<?xml version="1.0" encoding="utf-8" standalone="no"?>
<!DOCTYPE svg PUBLIC "-//W3C//DTD SVG 1.1//EN"
  "http://www.w3.org/Graphics/SVG/1.1/DTD/svg11.dtd">
<svg xmlns:xlink="http://www.w3.org/1999/xlink" width="576pt" height="360pt" viewBox="0 0 576 360" xmlns="http://www.w3.org/2000/svg" version="1.1">
 <metadata>
  <rdf:RDF xmlns:dc="http://purl.org/dc/elements/1.1/" xmlns:cc="http://creativecommons.org/ns#" xmlns:rdf="http://www.w3.org/1999/02/22-rdf-syntax-ns#">
   <cc:Work>
    <dc:type rdf:resource="http://purl.org/dc/dcmitype/StillImage"/>
    <dc:date>2025-01-07T03:55:01.261500</dc:date>
    <dc:format>image/svg+xml</dc:format>
    <dc:creator>
     <cc:Agent>
      <dc:title>Matplotlib v3.10.0, https://matplotlib.org/</dc:title>
     </cc:Agent>
    </dc:creator>
   </cc:Work>
  </rdf:RDF>
 </metadata>
 <defs>
  <style type="text/css">*{stroke-linejoin: round; stroke-linecap: butt}</style>
 </defs>
 <g id="figure_1">
  <g id="patch_1">
   <path d="M 0 360 
L 576 360 
L 576 0 
L 0 0 
z
" style="fill: #ffffff"/>
  </g>
  <g id="axes_1">
   <g id="patch_2">
    <path d="M 72 320.4 
L 518.4 320.4 
L 518.4 43.2 
L 72 43.2 
z
" style="fill: #ffffff"/>
   </g>
   <g id="matplotlib.axis_1">
    <g id="xtick_1">
     <g id="line2d_1">
      <defs>
       <path id="m7ec75d039e" d="M 0 0 
L 0 3.5 
" style="stroke: #000000; stroke-width: 0.8"/>
      </defs>
      <g>
       <use xlink:href="#m7ec75d039e" x="157.672727" y="320.4" style="stroke: #000000; stroke-width: 0.8"/>
      </g>
     </g>
     <g id="text_1">
      <!-- 2000 -->
      <g transform="translate(144.947727 334.998438) scale(0.1 -0.1)">
       <defs>
        <path id="DejaVuSans-32" d="M 1228 531 
L 3431 531 
L 3431 0 
L 469 0 
L 469 531 
Q 828 903 1448 1529 
Q 2069 2156 2228 2338 
Q 2531 2678 2651 2914 
Q 2772 3150 2772 3378 
Q 2772 3750 2511 3984 
Q 2250 4219 1831 4219 
Q 1534 4219 1204 4116 
Q 875 4013 500 3803 
L 500 4441 
Q 881 4594 1212 4672 
Q 1544 4750 1819 4750 
Q 2544 4750 2975 4387 
Q 3406 4025 3406 3419 
Q 3406 3131 3298 2873 
Q 3191 2616 2906 2266 
Q 2828 2175 2409 1742 
Q 1991 1309 1228 531 
z
" transform="scale(0.015625)"/>
        <path id="DejaVuSans-30" d="M 2034 4250 
Q 1547 4250 1301 3770 
Q 1056 3291 1056 2328 
Q 1056 1369 1301 889 
Q 1547 409 2034 409 
Q 2525 409 2770 889 
Q 3016 1369 3016 2328 
Q 3016 3291 2770 3770 
Q 2525 4250 2034 4250 
z
M 2034 4750 
Q 2819 4750 3233 4129 
Q 3647 3509 3647 2328 
Q 3647 1150 3233 529 
Q 2819 -91 2034 -91 
Q 1250 -91 836 529 
Q 422 1150 422 2328 
Q 422 3509 836 4129 
Q 1250 4750 2034 4750 
z
" transform="scale(0.015625)"/>
       </defs>
       <use xlink:href="#DejaVuSans-32"/>
       <use xlink:href="#DejaVuSans-30" transform="translate(63.623047 0)"/>
       <use xlink:href="#DejaVuSans-30" transform="translate(127.246094 0)"/>
       <use xlink:href="#DejaVuSans-30" transform="translate(190.869141 0)"/>
      </g>
     </g>
    </g>
    <g id="xtick_2">
     <g id="line2d_2">
      <g>
       <use xlink:href="#m7ec75d039e" x="247.854545" y="320.4" style="stroke: #000000; stroke-width: 0.8"/>
      </g>
     </g>
     <g id="text_2">
      <!-- 4000 -->
      <g transform="translate(235.129545 334.998438) scale(0.1 -0.1)">
       <defs>
        <path id="DejaVuSans-34" d="M 2419 4116 
L 825 1625 
L 2419 1625 
L 2419 4116 
z
M 2253 4666 
L 3047 4666 
L 3047 1625 
L 3713 1625 
L 3713 1100 
L 3047 1100 
L 3047 0 
L 2419 0 
L 2419 1100 
L 313 1100 
L 313 1709 
L 2253 4666 
z
" transform="scale(0.015625)"/>
       </defs>
       <use xlink:href="#DejaVuSans-34"/>
       <use xlink:href="#DejaVuSans-30" transform="translate(63.623047 0)"/>
       <use xlink:href="#DejaVuSans-30" transform="translate(127.246094 0)"/>
       <use xlink:href="#DejaVuSans-30" transform="translate(190.869141 0)"/>
      </g>
     </g>
    </g>
    <g id="xtick_3">
     <g id="line2d_3">
      <g>
       <use xlink:href="#m7ec75d039e" x="338.036364" y="320.4" style="stroke: #000000; stroke-width: 0.8"/>
      </g>
     </g>
     <g id="text_3">
      <!-- 6000 -->
      <g transform="translate(325.311364 334.998438) scale(0.1 -0.1)">
       <defs>
        <path id="DejaVuSans-36" d="M 2113 2584 
Q 1688 2584 1439 2293 
Q 1191 2003 1191 1497 
Q 1191 994 1439 701 
Q 1688 409 2113 409 
Q 2538 409 2786 701 
Q 3034 994 3034 1497 
Q 3034 2003 2786 2293 
Q 2538 2584 2113 2584 
z
M 3366 4563 
L 3366 3988 
Q 3128 4100 2886 4159 
Q 2644 4219 2406 4219 
Q 1781 4219 1451 3797 
Q 1122 3375 1075 2522 
Q 1259 2794 1537 2939 
Q 1816 3084 2150 3084 
Q 2853 3084 3261 2657 
Q 3669 2231 3669 1497 
Q 3669 778 3244 343 
Q 2819 -91 2113 -91 
Q 1303 -91 875 529 
Q 447 1150 447 2328 
Q 447 3434 972 4092 
Q 1497 4750 2381 4750 
Q 2619 4750 2861 4703 
Q 3103 4656 3366 4563 
z
" transform="scale(0.015625)"/>
       </defs>
       <use xlink:href="#DejaVuSans-36"/>
       <use xlink:href="#DejaVuSans-30" transform="translate(63.623047 0)"/>
       <use xlink:href="#DejaVuSans-30" transform="translate(127.246094 0)"/>
       <use xlink:href="#DejaVuSans-30" transform="translate(190.869141 0)"/>
      </g>
     </g>
    </g>
    <g id="xtick_4">
     <g id="line2d_4">
      <g>
       <use xlink:href="#m7ec75d039e" x="428.218182" y="320.4" style="stroke: #000000; stroke-width: 0.8"/>
      </g>
     </g>
     <g id="text_4">
      <!-- 8000 -->
      <g transform="translate(415.493182 334.998438) scale(0.1 -0.1)">
       <defs>
        <path id="DejaVuSans-38" d="M 2034 2216 
Q 1584 2216 1326 1975 
Q 1069 1734 1069 1313 
Q 1069 891 1326 650 
Q 1584 409 2034 409 
Q 2484 409 2743 651 
Q 3003 894 3003 1313 
Q 3003 1734 2745 1975 
Q 2488 2216 2034 2216 
z
M 1403 2484 
Q 997 2584 770 2862 
Q 544 3141 544 3541 
Q 544 4100 942 4425 
Q 1341 4750 2034 4750 
Q 2731 4750 3128 4425 
Q 3525 4100 3525 3541 
Q 3525 3141 3298 2862 
Q 3072 2584 2669 2484 
Q 3125 2378 3379 2068 
Q 3634 1759 3634 1313 
Q 3634 634 3220 271 
Q 2806 -91 2034 -91 
Q 1263 -91 848 271 
Q 434 634 434 1313 
Q 434 1759 690 2068 
Q 947 2378 1403 2484 
z
M 1172 3481 
Q 1172 3119 1398 2916 
Q 1625 2713 2034 2713 
Q 2441 2713 2670 2916 
Q 2900 3119 2900 3481 
Q 2900 3844 2670 4047 
Q 2441 4250 2034 4250 
Q 1625 4250 1398 4047 
Q 1172 3844 1172 3481 
z
" transform="scale(0.015625)"/>
       </defs>
       <use xlink:href="#DejaVuSans-38"/>
       <use xlink:href="#DejaVuSans-30" transform="translate(63.623047 0)"/>
       <use xlink:href="#DejaVuSans-30" transform="translate(127.246094 0)"/>
       <use xlink:href="#DejaVuSans-30" transform="translate(190.869141 0)"/>
      </g>
     </g>
    </g>
    <g id="xtick_5">
     <g id="line2d_5">
      <g>
       <use xlink:href="#m7ec75d039e" x="518.4" y="320.4" style="stroke: #000000; stroke-width: 0.8"/>
      </g>
     </g>
     <g id="text_5">
      <!-- 10000 -->
      <g transform="translate(502.49375 334.998438) scale(0.1 -0.1)">
       <defs>
        <path id="DejaVuSans-31" d="M 794 531 
L 1825 531 
L 1825 4091 
L 703 3866 
L 703 4441 
L 1819 4666 
L 2450 4666 
L 2450 531 
L 3481 531 
L 3481 0 
L 794 0 
L 794 531 
z
" transform="scale(0.015625)"/>
       </defs>
       <use xlink:href="#DejaVuSans-31"/>
       <use xlink:href="#DejaVuSans-30" transform="translate(63.623047 0)"/>
       <use xlink:href="#DejaVuSans-30" transform="translate(127.246094 0)"/>
       <use xlink:href="#DejaVuSans-30" transform="translate(190.869141 0)"/>
       <use xlink:href="#DejaVuSans-30" transform="translate(254.492188 0)"/>
      </g>
     </g>
    </g>
    <g id="text_6">
     <!-- Training steps -->
     <g transform="translate(260.464844 348.676562) scale(0.1 -0.1)">
      <defs>
       <path id="DejaVuSans-54" d="M -19 4666 
L 3928 4666 
L 3928 4134 
L 2272 4134 
L 2272 0 
L 1638 0 
L 1638 4134 
L -19 4134 
L -19 4666 
z
" transform="scale(0.015625)"/>
       <path id="DejaVuSans-72" d="M 2631 2963 
Q 2534 3019 2420 3045 
Q 2306 3072 2169 3072 
Q 1681 3072 1420 2755 
Q 1159 2438 1159 1844 
L 1159 0 
L 581 0 
L 581 3500 
L 1159 3500 
L 1159 2956 
Q 1341 3275 1631 3429 
Q 1922 3584 2338 3584 
Q 2397 3584 2469 3576 
Q 2541 3569 2628 3553 
L 2631 2963 
z
" transform="scale(0.015625)"/>
       <path id="DejaVuSans-61" d="M 2194 1759 
Q 1497 1759 1228 1600 
Q 959 1441 959 1056 
Q 959 750 1161 570 
Q 1363 391 1709 391 
Q 2188 391 2477 730 
Q 2766 1069 2766 1631 
L 2766 1759 
L 2194 1759 
z
M 3341 1997 
L 3341 0 
L 2766 0 
L 2766 531 
Q 2569 213 2275 61 
Q 1981 -91 1556 -91 
Q 1019 -91 701 211 
Q 384 513 384 1019 
Q 384 1609 779 1909 
Q 1175 2209 1959 2209 
L 2766 2209 
L 2766 2266 
Q 2766 2663 2505 2880 
Q 2244 3097 1772 3097 
Q 1472 3097 1187 3025 
Q 903 2953 641 2809 
L 641 3341 
Q 956 3463 1253 3523 
Q 1550 3584 1831 3584 
Q 2591 3584 2966 3190 
Q 3341 2797 3341 1997 
z
" transform="scale(0.015625)"/>
       <path id="DejaVuSans-69" d="M 603 3500 
L 1178 3500 
L 1178 0 
L 603 0 
L 603 3500 
z
M 603 4863 
L 1178 4863 
L 1178 4134 
L 603 4134 
L 603 4863 
z
" transform="scale(0.015625)"/>
       <path id="DejaVuSans-6e" d="M 3513 2113 
L 3513 0 
L 2938 0 
L 2938 2094 
Q 2938 2591 2744 2837 
Q 2550 3084 2163 3084 
Q 1697 3084 1428 2787 
Q 1159 2491 1159 1978 
L 1159 0 
L 581 0 
L 581 3500 
L 1159 3500 
L 1159 2956 
Q 1366 3272 1645 3428 
Q 1925 3584 2291 3584 
Q 2894 3584 3203 3211 
Q 3513 2838 3513 2113 
z
" transform="scale(0.015625)"/>
       <path id="DejaVuSans-67" d="M 2906 1791 
Q 2906 2416 2648 2759 
Q 2391 3103 1925 3103 
Q 1463 3103 1205 2759 
Q 947 2416 947 1791 
Q 947 1169 1205 825 
Q 1463 481 1925 481 
Q 2391 481 2648 825 
Q 2906 1169 2906 1791 
z
M 3481 434 
Q 3481 -459 3084 -895 
Q 2688 -1331 1869 -1331 
Q 1566 -1331 1297 -1286 
Q 1028 -1241 775 -1147 
L 775 -588 
Q 1028 -725 1275 -790 
Q 1522 -856 1778 -856 
Q 2344 -856 2625 -561 
Q 2906 -266 2906 331 
L 2906 616 
Q 2728 306 2450 153 
Q 2172 0 1784 0 
Q 1141 0 747 490 
Q 353 981 353 1791 
Q 353 2603 747 3093 
Q 1141 3584 1784 3584 
Q 2172 3584 2450 3431 
Q 2728 3278 2906 2969 
L 2906 3500 
L 3481 3500 
L 3481 434 
z
" transform="scale(0.015625)"/>
       <path id="DejaVuSans-20" transform="scale(0.015625)"/>
       <path id="DejaVuSans-73" d="M 2834 3397 
L 2834 2853 
Q 2591 2978 2328 3040 
Q 2066 3103 1784 3103 
Q 1356 3103 1142 2972 
Q 928 2841 928 2578 
Q 928 2378 1081 2264 
Q 1234 2150 1697 2047 
L 1894 2003 
Q 2506 1872 2764 1633 
Q 3022 1394 3022 966 
Q 3022 478 2636 193 
Q 2250 -91 1575 -91 
Q 1294 -91 989 -36 
Q 684 19 347 128 
L 347 722 
Q 666 556 975 473 
Q 1284 391 1588 391 
Q 1994 391 2212 530 
Q 2431 669 2431 922 
Q 2431 1156 2273 1281 
Q 2116 1406 1581 1522 
L 1381 1569 
Q 847 1681 609 1914 
Q 372 2147 372 2553 
Q 372 3047 722 3315 
Q 1072 3584 1716 3584 
Q 2034 3584 2315 3537 
Q 2597 3491 2834 3397 
z
" transform="scale(0.015625)"/>
       <path id="DejaVuSans-74" d="M 1172 4494 
L 1172 3500 
L 2356 3500 
L 2356 3053 
L 1172 3053 
L 1172 1153 
Q 1172 725 1289 603 
Q 1406 481 1766 481 
L 2356 481 
L 2356 0 
L 1766 0 
Q 1100 0 847 248 
Q 594 497 594 1153 
L 594 3053 
L 172 3053 
L 172 3500 
L 594 3500 
L 594 4494 
L 1172 4494 
z
" transform="scale(0.015625)"/>
       <path id="DejaVuSans-65" d="M 3597 1894 
L 3597 1613 
L 953 1613 
Q 991 1019 1311 708 
Q 1631 397 2203 397 
Q 2534 397 2845 478 
Q 3156 559 3463 722 
L 3463 178 
Q 3153 47 2828 -22 
Q 2503 -91 2169 -91 
Q 1331 -91 842 396 
Q 353 884 353 1716 
Q 353 2575 817 3079 
Q 1281 3584 2069 3584 
Q 2775 3584 3186 3129 
Q 3597 2675 3597 1894 
z
M 3022 2063 
Q 3016 2534 2758 2815 
Q 2500 3097 2075 3097 
Q 1594 3097 1305 2825 
Q 1016 2553 972 2059 
L 3022 2063 
z
" transform="scale(0.015625)"/>
       <path id="DejaVuSans-70" d="M 1159 525 
L 1159 -1331 
L 581 -1331 
L 581 3500 
L 1159 3500 
L 1159 2969 
Q 1341 3281 1617 3432 
Q 1894 3584 2278 3584 
Q 2916 3584 3314 3078 
Q 3713 2572 3713 1747 
Q 3713 922 3314 415 
Q 2916 -91 2278 -91 
Q 1894 -91 1617 61 
Q 1341 213 1159 525 
z
M 3116 1747 
Q 3116 2381 2855 2742 
Q 2594 3103 2138 3103 
Q 1681 3103 1420 2742 
Q 1159 2381 1159 1747 
Q 1159 1113 1420 752 
Q 1681 391 2138 391 
Q 2594 391 2855 752 
Q 3116 1113 3116 1747 
z
" transform="scale(0.015625)"/>
      </defs>
      <use xlink:href="#DejaVuSans-54"/>
      <use xlink:href="#DejaVuSans-72" transform="translate(46.333984 0)"/>
      <use xlink:href="#DejaVuSans-61" transform="translate(87.447266 0)"/>
      <use xlink:href="#DejaVuSans-69" transform="translate(148.726562 0)"/>
      <use xlink:href="#DejaVuSans-6e" transform="translate(176.509766 0)"/>
      <use xlink:href="#DejaVuSans-69" transform="translate(239.888672 0)"/>
      <use xlink:href="#DejaVuSans-6e" transform="translate(267.671875 0)"/>
      <use xlink:href="#DejaVuSans-67" transform="translate(331.050781 0)"/>
      <use xlink:href="#DejaVuSans-20" transform="translate(394.527344 0)"/>
      <use xlink:href="#DejaVuSans-73" transform="translate(426.314453 0)"/>
      <use xlink:href="#DejaVuSans-74" transform="translate(478.414062 0)"/>
      <use xlink:href="#DejaVuSans-65" transform="translate(517.623047 0)"/>
      <use xlink:href="#DejaVuSans-70" transform="translate(579.146484 0)"/>
      <use xlink:href="#DejaVuSans-73" transform="translate(642.623047 0)"/>
     </g>
    </g>
   </g>
   <g id="matplotlib.axis_2">
    <g id="ytick_1">
     <g id="line2d_6">
      <defs>
       <path id="mfeeb71e08b" d="M 0 0 
L -3.5 0 
" style="stroke: #000000; stroke-width: 0.8"/>
      </defs>
      <g>
       <use xlink:href="#mfeeb71e08b" x="72" y="313.26665" style="stroke: #000000; stroke-width: 0.8"/>
      </g>
     </g>
     <g id="text_7">
      <!-- 0.1 -->
      <g transform="translate(49.096875 317.065869) scale(0.1 -0.1)">
       <defs>
        <path id="DejaVuSans-2e" d="M 684 794 
L 1344 794 
L 1344 0 
L 684 0 
L 684 794 
z
" transform="scale(0.015625)"/>
       </defs>
       <use xlink:href="#DejaVuSans-30"/>
       <use xlink:href="#DejaVuSans-2e" transform="translate(63.623047 0)"/>
       <use xlink:href="#DejaVuSans-31" transform="translate(95.410156 0)"/>
      </g>
     </g>
    </g>
    <g id="ytick_2">
     <g id="line2d_7">
      <g>
       <use xlink:href="#mfeeb71e08b" x="72" y="281.849121" style="stroke: #000000; stroke-width: 0.8"/>
      </g>
     </g>
     <g id="text_8">
      <!-- 0.2 -->
      <g transform="translate(49.096875 285.64834) scale(0.1 -0.1)">
       <use xlink:href="#DejaVuSans-30"/>
       <use xlink:href="#DejaVuSans-2e" transform="translate(63.623047 0)"/>
       <use xlink:href="#DejaVuSans-32" transform="translate(95.410156 0)"/>
      </g>
     </g>
    </g>
    <g id="ytick_3">
     <g id="line2d_8">
      <g>
       <use xlink:href="#mfeeb71e08b" x="72" y="250.431592" style="stroke: #000000; stroke-width: 0.8"/>
      </g>
     </g>
     <g id="text_9">
      <!-- 0.3 -->
      <g transform="translate(49.096875 254.230811) scale(0.1 -0.1)">
       <defs>
        <path id="DejaVuSans-33" d="M 2597 2516 
Q 3050 2419 3304 2112 
Q 3559 1806 3559 1356 
Q 3559 666 3084 287 
Q 2609 -91 1734 -91 
Q 1441 -91 1130 -33 
Q 819 25 488 141 
L 488 750 
Q 750 597 1062 519 
Q 1375 441 1716 441 
Q 2309 441 2620 675 
Q 2931 909 2931 1356 
Q 2931 1769 2642 2001 
Q 2353 2234 1838 2234 
L 1294 2234 
L 1294 2753 
L 1863 2753 
Q 2328 2753 2575 2939 
Q 2822 3125 2822 3475 
Q 2822 3834 2567 4026 
Q 2313 4219 1838 4219 
Q 1578 4219 1281 4162 
Q 984 4106 628 3988 
L 628 4550 
Q 988 4650 1302 4700 
Q 1616 4750 1894 4750 
Q 2613 4750 3031 4423 
Q 3450 4097 3450 3541 
Q 3450 3153 3228 2886 
Q 3006 2619 2597 2516 
z
" transform="scale(0.015625)"/>
       </defs>
       <use xlink:href="#DejaVuSans-30"/>
       <use xlink:href="#DejaVuSans-2e" transform="translate(63.623047 0)"/>
       <use xlink:href="#DejaVuSans-33" transform="translate(95.410156 0)"/>
      </g>
     </g>
    </g>
    <g id="ytick_4">
     <g id="line2d_9">
      <g>
       <use xlink:href="#mfeeb71e08b" x="72" y="219.014063" style="stroke: #000000; stroke-width: 0.8"/>
      </g>
     </g>
     <g id="text_10">
      <!-- 0.4 -->
      <g transform="translate(49.096875 222.813282) scale(0.1 -0.1)">
       <use xlink:href="#DejaVuSans-30"/>
       <use xlink:href="#DejaVuSans-2e" transform="translate(63.623047 0)"/>
       <use xlink:href="#DejaVuSans-34" transform="translate(95.410156 0)"/>
      </g>
     </g>
    </g>
    <g id="ytick_5">
     <g id="line2d_10">
      <g>
       <use xlink:href="#mfeeb71e08b" x="72" y="187.596534" style="stroke: #000000; stroke-width: 0.8"/>
      </g>
     </g>
     <g id="text_11">
      <!-- 0.5 -->
      <g transform="translate(49.096875 191.395753) scale(0.1 -0.1)">
       <defs>
        <path id="DejaVuSans-35" d="M 691 4666 
L 3169 4666 
L 3169 4134 
L 1269 4134 
L 1269 2991 
Q 1406 3038 1543 3061 
Q 1681 3084 1819 3084 
Q 2600 3084 3056 2656 
Q 3513 2228 3513 1497 
Q 3513 744 3044 326 
Q 2575 -91 1722 -91 
Q 1428 -91 1123 -41 
Q 819 9 494 109 
L 494 744 
Q 775 591 1075 516 
Q 1375 441 1709 441 
Q 2250 441 2565 725 
Q 2881 1009 2881 1497 
Q 2881 1984 2565 2268 
Q 2250 2553 1709 2553 
Q 1456 2553 1204 2497 
Q 953 2441 691 2322 
L 691 4666 
z
" transform="scale(0.015625)"/>
       </defs>
       <use xlink:href="#DejaVuSans-30"/>
       <use xlink:href="#DejaVuSans-2e" transform="translate(63.623047 0)"/>
       <use xlink:href="#DejaVuSans-35" transform="translate(95.410156 0)"/>
      </g>
     </g>
    </g>
    <g id="ytick_6">
     <g id="line2d_11">
      <g>
       <use xlink:href="#mfeeb71e08b" x="72" y="156.179005" style="stroke: #000000; stroke-width: 0.8"/>
      </g>
     </g>
     <g id="text_12">
      <!-- 0.6 -->
      <g transform="translate(49.096875 159.978224) scale(0.1 -0.1)">
       <use xlink:href="#DejaVuSans-30"/>
       <use xlink:href="#DejaVuSans-2e" transform="translate(63.623047 0)"/>
       <use xlink:href="#DejaVuSans-36" transform="translate(95.410156 0)"/>
      </g>
     </g>
    </g>
    <g id="ytick_7">
     <g id="line2d_12">
      <g>
       <use xlink:href="#mfeeb71e08b" x="72" y="124.761476" style="stroke: #000000; stroke-width: 0.8"/>
      </g>
     </g>
     <g id="text_13">
      <!-- 0.7 -->
      <g transform="translate(49.096875 128.560695) scale(0.1 -0.1)">
       <defs>
        <path id="DejaVuSans-37" d="M 525 4666 
L 3525 4666 
L 3525 4397 
L 1831 0 
L 1172 0 
L 2766 4134 
L 525 4134 
L 525 4666 
z
" transform="scale(0.015625)"/>
       </defs>
       <use xlink:href="#DejaVuSans-30"/>
       <use xlink:href="#DejaVuSans-2e" transform="translate(63.623047 0)"/>
       <use xlink:href="#DejaVuSans-37" transform="translate(95.410156 0)"/>
      </g>
     </g>
    </g>
    <g id="ytick_8">
     <g id="line2d_13">
      <g>
       <use xlink:href="#mfeeb71e08b" x="72" y="93.343947" style="stroke: #000000; stroke-width: 0.8"/>
      </g>
     </g>
     <g id="text_14">
      <!-- 0.8 -->
      <g transform="translate(49.096875 97.143166) scale(0.1 -0.1)">
       <use xlink:href="#DejaVuSans-30"/>
       <use xlink:href="#DejaVuSans-2e" transform="translate(63.623047 0)"/>
       <use xlink:href="#DejaVuSans-38" transform="translate(95.410156 0)"/>
      </g>
     </g>
    </g>
    <g id="ytick_9">
     <g id="line2d_14">
      <g>
       <use xlink:href="#mfeeb71e08b" x="72" y="61.926418" style="stroke: #000000; stroke-width: 0.8"/>
      </g>
     </g>
     <g id="text_15">
      <!-- 0.9 -->
      <g transform="translate(49.096875 65.725637) scale(0.1 -0.1)">
       <defs>
        <path id="DejaVuSans-39" d="M 703 97 
L 703 672 
Q 941 559 1184 500 
Q 1428 441 1663 441 
Q 2288 441 2617 861 
Q 2947 1281 2994 2138 
Q 2813 1869 2534 1725 
Q 2256 1581 1919 1581 
Q 1219 1581 811 2004 
Q 403 2428 403 3163 
Q 403 3881 828 4315 
Q 1253 4750 1959 4750 
Q 2769 4750 3195 4129 
Q 3622 3509 3622 2328 
Q 3622 1225 3098 567 
Q 2575 -91 1691 -91 
Q 1453 -91 1209 -44 
Q 966 3 703 97 
z
M 1959 2075 
Q 2384 2075 2632 2365 
Q 2881 2656 2881 3163 
Q 2881 3666 2632 3958 
Q 2384 4250 1959 4250 
Q 1534 4250 1286 3958 
Q 1038 3666 1038 3163 
Q 1038 2656 1286 2365 
Q 1534 2075 1959 2075 
z
" transform="scale(0.015625)"/>
       </defs>
       <use xlink:href="#DejaVuSans-30"/>
       <use xlink:href="#DejaVuSans-2e" transform="translate(63.623047 0)"/>
       <use xlink:href="#DejaVuSans-39" transform="translate(95.410156 0)"/>
      </g>
     </g>
    </g>
    <g id="text_16">
     <!-- Loss -->
     <g transform="translate(43.017187 192.767187) rotate(-90) scale(0.1 -0.1)">
      <defs>
       <path id="DejaVuSans-4c" d="M 628 4666 
L 1259 4666 
L 1259 531 
L 3531 531 
L 3531 0 
L 628 0 
L 628 4666 
z
" transform="scale(0.015625)"/>
       <path id="DejaVuSans-6f" d="M 1959 3097 
Q 1497 3097 1228 2736 
Q 959 2375 959 1747 
Q 959 1119 1226 758 
Q 1494 397 1959 397 
Q 2419 397 2687 759 
Q 2956 1122 2956 1747 
Q 2956 2369 2687 2733 
Q 2419 3097 1959 3097 
z
M 1959 3584 
Q 2709 3584 3137 3096 
Q 3566 2609 3566 1747 
Q 3566 888 3137 398 
Q 2709 -91 1959 -91 
Q 1206 -91 779 398 
Q 353 888 353 1747 
Q 353 2609 779 3096 
Q 1206 3584 1959 3584 
z
" transform="scale(0.015625)"/>
      </defs>
      <use xlink:href="#DejaVuSans-4c"/>
      <use xlink:href="#DejaVuSans-6f" transform="translate(53.962891 0)"/>
      <use xlink:href="#DejaVuSans-73" transform="translate(115.144531 0)"/>
      <use xlink:href="#DejaVuSans-73" transform="translate(167.244141 0)"/>
     </g>
    </g>
   </g>
   <g id="line2d_15">
    <path d="M 72 107.701758 
L 76.509091 127.714724 
L 81.018182 150.77519 
L 85.527273 142.857973 
L 90.036364 156.964443 
L 94.545455 161.614238 
L 99.054545 155.801995 
L 103.563636 168.117666 
L 108.072727 163.059444 
L 112.581818 154.262536 
L 117.090909 151.466376 
L 121.6 160.577459 
L 126.109091 161.519985 
L 130.618182 163.405037 
L 135.127273 169.34295 
L 139.636364 175.406533 
L 144.145455 167.237975 
L 148.654545 171.699264 
L 153.163636 157.372871 
L 157.672727 179.113801 
L 162.181818 172.547538 
L 166.690909 166.609625 
L 171.2 173.584316 
L 175.709091 169.028774 
L 180.218182 180.77893 
L 184.727273 163.342202 
L 189.236364 169.248697 
L 193.745455 180.590425 
L 198.254545 177.542925 
L 202.763636 176.254806 
L 207.272727 174.55826 
L 211.781818 180.087745 
L 216.290909 177.165914 
L 220.8 176.914574 
L 225.309091 171.573594 
L 229.818182 175.06094 
L 234.327273 191.398055 
L 238.836364 178.328363 
L 243.345455 183.669343 
L 247.854545 180.307667 
L 252.363636 187.502282 
L 256.872727 184.329111 
L 261.381818 183.229498 
L 265.890909 201.168907 
L 270.4 183.983518 
L 274.909091 187.439446 
L 279.418182 187.596534 
L 283.927273 170.442563 
L 288.436364 185.020297 
L 292.945455 185.208802 
L 297.454545 182.6954 
L 301.963636 182.632565 
L 306.472727 190.486947 
L 310.981818 185.86857 
L 315.490909 178.328363 
L 320 177.197332 
L 324.509091 183.292333 
L 329.018182 190.204189 
L 333.527273 186.654008 
L 338.036364 189.513003 
L 342.545455 183.606508 
L 347.054545 191.115297 
L 351.563636 193.220272 
L 356.072727 182.444059 
L 360.581818 192.874679 
L 365.090909 199.59803 
L 369.6 188.66473 
L 374.109091 185.177384 
L 378.618182 186.496921 
L 383.127273 193.817205 
L 387.636364 189.073158 
L 392.145455 200.132128 
L 396.654545 178.642538 
L 401.163636 196.236355 
L 405.672727 189.324498 
L 410.181818 193.942875 
L 414.690909 190.109936 
L 419.2 190.738287 
L 423.709091 199.535195 
L 428.218182 191.837901 
L 432.727273 189.324498 
L 437.236364 187.250941 
L 441.745455 197.17888 
L 446.254545 194.571226 
L 450.763636 203.116793 
L 455.272727 195.922179 
L 459.781818 195.985014 
L 464.290909 204.562 
L 468.8 193.911457 
L 473.309091 201.200324 
L 477.818182 195.325246 
L 482.327273 212.636305 
L 486.836364 203.053958 
L 491.345455 203.022541 
L 495.854545 185.428725 
L 500.363636 207.766588 
L 504.872727 186.37125 
L 509.381818 200.352051 
L 513.890909 194.853983 
L 518.4 213.45316 
" clip-path="url(#p1b11bb6051)" style="fill: none; stroke: #1f77b4; stroke-width: 1.5; stroke-linecap: square"/>
   </g>
   <g id="line2d_16">
    <path d="M 72 55.8 
L 76.509091 114.205186 
L 81.018182 127.117791 
L 85.527273 142.76372 
L 90.036364 147.47635 
L 94.545455 157.184366 
L 99.054545 155.927665 
L 103.563636 162.902356 
L 108.072727 166.201197 
L 112.581818 159.854856 
L 117.090909 155.205062 
L 121.6 178.799626 
L 126.109091 164.159057 
L 130.618182 160.451789 
L 135.127273 169.154445 
L 139.636364 181.124523 
L 144.145455 163.8763 
L 148.654545 188.067797 
L 153.163636 160.483207 
L 157.672727 183.19808 
L 162.181818 165.352924 
L 166.690909 180.77893 
L 171.2 182.349807 
L 175.709091 182.318389 
L 180.218182 181.752874 
L 184.727273 170.09697 
L 189.236364 186.339833 
L 193.745455 180.873183 
L 198.254545 165.447176 
L 202.763636 175.123775 
L 207.272727 181.784291 
L 211.781818 178.705373 
L 216.290909 179.176636 
L 220.8 181.784291 
L 225.309091 181.847126 
L 229.818182 176.443311 
L 234.327273 191.932153 
L 238.836364 184.329111 
L 243.345455 188.224885 
L 247.854545 171.479342 
L 252.363636 176.883157 
L 256.872727 180.810348 
L 261.381818 194.50839 
L 265.890909 200.069293 
L 270.4 177.8571 
L 274.909091 201.294577 
L 279.418182 186.936766 
L 283.927273 177.762848 
L 288.436364 186.24558 
L 292.945455 195.608004 
L 297.454545 188.067797 
L 301.963636 188.758983 
L 306.472727 197.147463 
L 310.981818 188.476225 
L 315.490909 193.031767 
L 320 183.292333 
L 324.509091 197.524473 
L 329.018182 187.690787 
L 333.527273 187.125271 
L 338.036364 199.440943 
L 342.545455 188.53906 
L 347.054545 193.471612 
L 351.563636 187.408029 
L 356.072727 188.66473 
L 360.581818 199.566613 
L 365.090909 200.100711 
L 369.6 191.429473 
L 374.109091 195.545169 
L 378.618182 194.759731 
L 383.127273 196.393442 
L 387.636364 187.345194 
L 392.145455 210.311408 
L 396.654545 183.763596 
L 401.163636 205.221768 
L 405.672727 194.00571 
L 410.181818 195.136741 
L 414.690909 188.130632 
L 419.2 204.907593 
L 423.709091 212.604887 
L 428.218182 196.110684 
L 432.727273 185.86857 
L 437.236364 197.147463 
L 441.745455 204.027902 
L 446.254545 202.896871 
L 450.763636 214.866949 
L 455.272727 195.639422 
L 459.781818 203.022541 
L 464.290909 201.828675 
L 468.8 189.827179 
L 473.309091 204.93901 
L 477.818182 204.876175 
L 482.327273 220.050842 
L 486.836364 218.354295 
L 491.345455 207.6095 
L 495.854545 201.608752 
L 500.363636 219.799501 
L 504.872727 197.430221 
L 509.381818 201.231742 
L 513.890909 211.034011 
L 518.4 213.07615 
" clip-path="url(#p1b11bb6051)" style="fill: none; stroke: #ff7f0e; stroke-width: 1.5; stroke-linecap: square"/>
   </g>
   <g id="line2d_17">
    <path d="M 72 178.171275 
L 76.509091 213.798753 
L 81.018182 237.770328 
L 85.527273 235.633936 
L 90.036364 222.344321 
L 94.545455 252.599402 
L 99.054545 237.299065 
L 103.563636 248.892133 
L 108.072727 250.84002 
L 112.581818 256.495175 
L 117.090909 237.48757 
L 121.6 269.973295 
L 126.109091 251.185613 
L 130.618182 248.232365 
L 135.127273 260.045356 
L 139.636364 260.076773 
L 144.145455 265.323501 
L 148.654545 254.861464 
L 153.163636 253.322005 
L 157.672727 263.501284 
L 162.181818 255.521232 
L 166.690909 263.972547 
L 171.2 254.233113 
L 175.709091 249.017803 
L 180.218182 253.479092 
L 184.727273 248.892133 
L 189.236364 253.573345 
L 193.745455 268.999352 
L 198.254545 271.261414 
L 202.763636 247.79252 
L 207.272727 255.92966 
L 211.781818 263.784042 
L 216.290909 258.537315 
L 220.8 255.961077 
L 225.309091 253.322005 
L 229.818182 257.531954 
L 234.327273 261.364892 
L 238.836364 261.616232 
L 243.345455 255.646902 
L 247.854545 273.146466 
L 252.363636 268.056826 
L 256.872727 256.872186 
L 261.381818 271.544172 
L 265.890909 272.95796 
L 270.4 268.590924 
L 274.909091 274.74876 
L 279.418182 273.020795 
L 283.927273 253.353422 
L 288.436364 263.972547 
L 292.945455 260.673707 
L 297.454545 264.600898 
L 301.963636 265.166413 
L 306.472727 278.267523 
L 310.981818 268.779429 
L 315.490909 262.590176 
L 320 258.945742 
L 324.509091 278.738786 
L 329.018182 256.715098 
L 333.527273 271.669842 
L 338.036364 278.204688 
L 342.545455 266.454532 
L 347.054545 259.731181 
L 351.563636 274.088991 
L 356.072727 277.607755 
L 360.581818 267.428475 
L 365.090909 290.928787 
L 369.6 282.446054 
L 374.109091 277.010822 
L 378.618182 270.570228 
L 383.127273 267.082882 
L 387.636364 276.256801 
L 392.145455 264.757985 
L 396.654545 269.721955 
L 401.163636 272.895125 
L 405.672727 270.444558 
L 410.181818 274.528837 
L 414.690909 277.356414 
L 419.2 276.068296 
L 423.709091 268.936517 
L 428.218182 270.193218 
L 432.727273 276.413889 
L 437.236364 272.45528 
L 441.745455 279.869817 
L 446.254545 277.073657 
L 450.763636 287.629946 
L 455.272727 282.351802 
L 459.781818 272.046852 
L 464.290909 284.362523 
L 468.8 281.189353 
L 473.309091 276.947987 
L 477.818182 279.492806 
L 482.327273 293.724947 
L 486.836364 289.075153 
L 491.345455 282.477472 
L 495.854545 275.188605 
L 500.363636 286.027652 
L 504.872727 280.121157 
L 509.381818 275.534198 
L 513.890909 296.144097 
L 518.4 290.111931 
" clip-path="url(#p1b11bb6051)" style="fill: none; stroke: #2ca02c; stroke-width: 1.5; stroke-linecap: square"/>
   </g>
   <g id="line2d_18">
    <path d="M 72 125.075651 
L 76.509091 176.254806 
L 81.018182 224.669218 
L 85.527273 200.226381 
L 90.036364 224.480713 
L 94.545455 224.386461 
L 99.054545 213.641666 
L 103.563636 228.470739 
L 108.072727 196.958958 
L 112.581818 219.925171 
L 117.090909 208.394938 
L 121.6 199.440943 
L 126.109091 191.523725 
L 130.618182 212.981898 
L 135.127273 222.501409 
L 139.636364 223.066924 
L 144.145455 214.050094 
L 148.654545 215.36963 
L 153.163636 211.568109 
L 157.672727 230.795636 
L 162.181818 220.239347 
L 166.690909 228.753497 
L 171.2 202.39419 
L 175.709091 221.967311 
L 180.218182 215.338212 
L 184.727273 228.125146 
L 189.236364 233.843137 
L 193.745455 225.171899 
L 198.254545 236.98489 
L 202.763636 208.489191 
L 207.272727 207.138237 
L 211.781818 218.825558 
L 216.290909 238.430096 
L 220.8 228.627827 
L 225.309091 202.834036 
L 229.818182 224.920559 
L 234.327273 236.545044 
L 238.836364 212.542052 
L 243.345455 231.832415 
L 247.854545 196.864705 
L 252.363636 239.372622 
L 256.872727 224.040868 
L 261.381818 233.497544 
L 265.890909 238.461514 
L 270.4 218.951228 
L 274.909091 234.157312 
L 279.418182 239.058447 
L 283.927273 215.212542 
L 288.436364 253.007829 
L 292.945455 239.058447 
L 297.454545 223.443935 
L 301.963636 220.082259 
L 306.472727 227.748136 
L 310.981818 239.058447 
L 315.490909 219.265403 
L 320 233.654632 
L 324.509091 248.200948 
L 329.018182 232.994863 
L 333.527273 243.708241 
L 338.036364 235.162673 
L 342.545455 236.042364 
L 347.054545 246.755741 
L 351.563636 234.502905 
L 356.072727 248.67221 
L 360.581818 242.859968 
L 365.090909 259.071413 
L 369.6 253.070665 
L 374.109091 253.730433 
L 378.618182 225.580327 
L 383.127273 243.990999 
L 387.636364 240.692158 
L 392.145455 249.489066 
L 396.654545 245.059195 
L 401.163636 244.713602 
L 405.672727 258.97716 
L 410.181818 237.48757 
L 414.690909 249.708989 
L 419.2 249.489066 
L 423.709091 244.525097 
L 428.218182 246.472983 
L 432.727273 233.748884 
L 437.236364 249.331979 
L 441.745455 257.531954 
L 446.254545 259.134248 
L 450.763636 251.09136 
L 455.272727 244.462262 
L 459.781818 253.353422 
L 464.290909 252.913577 
L 468.8 250.651515 
L 473.309091 248.012442 
L 477.818182 257.060691 
L 482.327273 265.323501 
L 486.836364 249.080638 
L 491.345455 267.428475 
L 495.854545 249.646154 
L 500.363636 264.035382 
L 504.872727 260.453784 
L 509.381818 257.469119 
L 513.890909 266.674455 
L 518.4 253.290587 
" clip-path="url(#p1b11bb6051)" style="fill: none; stroke: #d62728; stroke-width: 1.5; stroke-linecap: square"/>
   </g>
   <g id="line2d_19">
    <path d="M 72 181.281611 
L 76.509091 228.439322 
L 81.018182 251.782546 
L 85.527273 236.325122 
L 90.036364 237.456153 
L 94.545455 260.830794 
L 99.054545 251.971051 
L 103.563636 267.61698 
L 108.072727 269.627702 
L 112.581818 254.107443 
L 117.090909 257.500536 
L 121.6 261.616232 
L 126.109091 245.561875 
L 130.618182 254.076025 
L 135.127273 275.188605 
L 139.636364 269.879043 
L 144.145455 265.009326 
L 148.654545 261.113552 
L 153.163636 259.668346 
L 157.672727 275.314275 
L 162.181818 263.532702 
L 166.690909 257.217778 
L 171.2 266.297444 
L 175.709091 276.131131 
L 180.218182 263.878294 
L 184.727273 263.124274 
L 189.236364 269.721955 
L 193.745455 269.690537 
L 198.254545 275.534198 
L 202.763636 259.448423 
L 207.272727 268.245331 
L 211.781818 283.105822 
L 216.290909 286.05907 
L 220.8 272.141105 
L 225.309091 269.690537 
L 229.818182 271.292831 
L 234.327273 278.0476 
L 238.836364 275.157187 
L 243.345455 273.994739 
L 247.854545 277.953347 
L 252.363636 277.262162 
L 256.872727 271.481336 
L 261.381818 292.311158 
L 265.890909 277.764842 
L 270.4 281.252188 
L 274.909091 279.084379 
L 279.418182 271.889764 
L 283.927273 270.130383 
L 288.436364 265.543424 
L 292.945455 273.680564 
L 297.454545 272.486697 
L 301.963636 265.794764 
L 306.472727 280.875178 
L 310.981818 274.120409 
L 315.490909 262.244583 
L 320 270.947238 
L 324.509091 276.288218 
L 329.018182 262.118913 
L 333.527273 276.979404 
L 338.036364 270.727316 
L 342.545455 271.858347 
L 347.054545 271.638424 
L 351.563636 271.575589 
L 356.072727 279.964069 
L 360.581818 267.397058 
L 365.090909 288.226879 
L 369.6 277.639172 
L 374.109091 284.551029 
L 378.618182 281.000848 
L 383.127273 278.361775 
L 387.636364 282.383219 
L 392.145455 275.50278 
L 396.654545 280.84376 
L 401.163636 265.512006 
L 405.672727 280.121157 
L 410.181818 279.210049 
L 414.690909 295.044483 
L 419.2 286.938761 
L 423.709091 279.838399 
L 428.218182 283.671338 
L 432.727273 280.089739 
L 437.236364 288.006957 
L 441.745455 278.079018 
L 446.254545 283.168657 
L 450.763636 286.121905 
L 455.272727 285.147962 
L 459.781818 280.246827 
L 464.290909 293.787782 
L 468.8 286.373245 
L 473.309091 294.039122 
L 477.818182 289.892008 
L 482.327273 295.767086 
L 486.836364 286.090487 
L 491.345455 287.849869 
L 495.854545 283.419998 
L 500.363636 291.368632 
L 504.872727 287.629946 
L 509.381818 274.87443 
L 513.890909 307.8 
L 518.4 287.661364 
" clip-path="url(#p1b11bb6051)" style="fill: none; stroke: #9467bd; stroke-width: 1.5; stroke-linecap: square"/>
   </g>
   <g id="line2d_20">
    <path d="M 72 194.948236 
L 76.509091 241.886024 
L 81.018182 233.591797 
L 85.527273 237.550405 
L 90.036364 247.352674 
L 94.545455 246.818576 
L 99.054545 260.453784 
L 103.563636 266.643037 
L 108.072727 262.15033 
L 112.581818 264.632315 
L 117.090909 266.140357 
L 121.6 264.94649 
L 126.109091 264.69515 
L 130.618182 265.920434 
L 135.127273 284.425358 
L 139.636364 269.816207 
L 144.145455 258.505897 
L 148.654545 259.825433 
L 153.163636 268.559506 
L 157.672727 279.869817 
L 162.181818 266.705872 
L 166.690909 266.485949 
L 171.2 259.668346 
L 175.709091 268.496671 
L 180.218182 264.915073 
L 184.727273 261.89899 
L 189.236364 262.213165 
L 193.745455 272.07827 
L 198.254545 276.413889 
L 202.763636 260.359531 
L 207.272727 274.937265 
L 211.781818 272.769455 
L 216.290909 279.367136 
L 220.8 263.092856 
L 225.309091 274.497419 
L 229.818182 269.941878 
L 234.327273 280.372497 
L 238.836364 274.026156 
L 243.345455 270.130383 
L 247.854545 277.010822 
L 252.363636 277.79626 
L 256.872727 274.371749 
L 261.381818 279.147214 
L 265.890909 262.684428 
L 270.4 284.299688 
L 274.909091 276.822316 
L 279.418182 276.822316 
L 283.927273 261.459145 
L 288.436364 274.87443 
L 292.945455 263.218526 
L 297.454545 272.549532 
L 301.963636 269.91046 
L 306.472727 285.022291 
L 310.981818 287.472859 
L 315.490909 268.308166 
L 320 261.459145 
L 324.509091 283.168657 
L 329.018182 263.375614 
L 333.527273 281.440693 
L 338.036364 276.979404 
L 342.545455 278.550281 
L 347.054545 272.235357 
L 351.563636 278.990126 
L 356.072727 287.661364 
L 360.581818 268.967934 
L 365.090909 293.002344 
L 369.6 285.556389 
L 374.109091 280.655255 
L 378.618182 270.884403 
L 383.127273 275.785538 
L 387.636364 279.838399 
L 392.145455 278.0476 
L 396.654545 276.382471 
L 401.163636 267.648398 
L 405.672727 278.487445 
L 410.181818 267.334223 
L 414.690909 291.745643 
L 419.2 289.075153 
L 423.709091 283.545668 
L 428.218182 272.32961 
L 432.727273 286.875926 
L 437.236364 277.733425 
L 441.745455 278.0476 
L 446.254545 286.404663 
L 450.763636 291.494302 
L 455.272727 282.728812 
L 459.781818 282.414637 
L 464.290909 287.567111 
L 468.8 278.456028 
L 473.309091 289.137988 
L 477.818182 287.252936 
L 482.327273 298.563246 
L 486.836364 284.236853 
L 491.345455 293.787782 
L 495.854545 285.964817 
L 500.363636 281.346441 
L 504.872727 293.567859 
L 509.381818 288.666725 
L 513.890909 301.893505 
L 518.4 289.829173 
" clip-path="url(#p1b11bb6051)" style="fill: none; stroke: #8c564b; stroke-width: 1.5; stroke-linecap: square"/>
   </g>
   <g id="line2d_21">
    <path d="M 72 170.662486 
L 76.509091 189.450168 
L 81.018182 215.809475 
L 85.527273 214.050094 
L 90.036364 227.245456 
L 94.545455 234.408652 
L 99.054545 214.678444 
L 103.563636 238.398678 
L 108.072727 209.90298 
L 112.581818 223.3811 
L 117.090909 211.913702 
L 121.6 233.591797 
L 126.109091 206.541304 
L 130.618182 229.664605 
L 135.127273 227.214038 
L 139.636364 213.264655 
L 144.145455 224.512131 
L 148.654545 215.87231 
L 153.163636 224.637801 
L 157.672727 208.269268 
L 162.181818 206.070041 
L 166.690909 231.298317 
L 171.2 226.083007 
L 175.709091 239.027029 
L 180.218182 215.526717 
L 184.727273 231.863832 
L 189.236364 208.740531 
L 193.745455 205.473108 
L 198.254545 238.084503 
L 202.763636 221.276125 
L 207.272727 219.736666 
L 211.781818 237.48757 
L 216.290909 235.319761 
L 220.8 221.21329 
L 225.309091 232.052338 
L 229.818182 218.637053 
L 234.327273 233.968807 
L 238.836364 226.30293 
L 243.345455 223.192594 
L 247.854545 220.742027 
L 252.363636 243.739658 
L 256.872727 235.288343 
L 261.381818 248.263783 
L 265.890909 243.739658 
L 270.4 230.198703 
L 274.909091 245.2477 
L 279.418182 243.017055 
L 283.927273 219.862336 
L 288.436364 237.330482 
L 292.945455 221.747388 
L 297.454545 235.979529 
L 301.963636 225.548909 
L 306.472727 235.822441 
L 310.981818 242.671462 
L 315.490909 230.512879 
L 320 219.045481 
L 324.509091 240.597905 
L 329.018182 221.621718 
L 333.527273 239.466874 
L 338.036364 238.587184 
L 342.545455 243.07989 
L 347.054545 237.61324 
L 351.563636 227.025533 
L 356.072727 235.571101 
L 360.581818 235.571101 
L 365.090909 255.584067 
L 369.6 245.467622 
L 374.109091 249.646154 
L 378.618182 227.591048 
L 383.127273 244.430844 
L 387.636364 249.646154 
L 392.145455 248.326618 
L 396.654545 248.2952 
L 401.163636 251.908216 
L 405.672727 259.951103 
L 410.181818 233.686049 
L 414.690909 253.88752 
L 419.2 254.170278 
L 423.709091 245.781798 
L 428.218182 244.242339 
L 432.727273 247.79252 
L 437.236364 250.525845 
L 441.745455 258.662985 
L 446.254545 259.762598 
L 450.763636 261.113552 
L 455.272727 258.568732 
L 459.781818 258.003217 
L 464.290909 258.034634 
L 468.8 244.525097 
L 473.309091 257.437701 
L 477.818182 268.999352 
L 482.327273 268.496671 
L 486.836364 242.357287 
L 491.345455 268.151078 
L 495.854545 259.165665 
L 500.363636 254.076025 
L 504.872727 259.259918 
L 509.381818 263.407032 
L 513.890909 268.433836 
L 518.4 255.301309 
" clip-path="url(#p1b11bb6051)" style="fill: none; stroke: #e377c2; stroke-width: 1.5; stroke-linecap: square"/>
   </g>
   <g id="line2d_22">
    <path d="M 72 181.250193 
L 76.509091 149.392819 
L 81.018182 222.658496 
L 85.527273 212.133624 
L 90.036364 221.967311 
L 94.545455 220.616357 
L 99.054545 233.371874 
L 103.563636 235.319761 
L 108.072727 234.220147 
L 112.581818 238.147338 
L 117.090909 225.360404 
L 121.6 250.96569 
L 126.109091 229.256178 
L 130.618182 210.437078 
L 135.127273 230.418626 
L 139.636364 244.650767 
L 144.145455 226.240095 
L 148.654545 243.331231 
L 153.163636 229.853111 
L 157.672727 242.545792 
L 162.181818 236.356539 
L 166.690909 234.094477 
L 171.2 234.879915 
L 175.709091 221.307543 
L 180.218182 242.294452 
L 184.727273 243.268395 
L 189.236364 244.368009 
L 193.745455 247.604014 
L 198.254545 262.778681 
L 202.763636 237.958833 
L 207.272727 237.707493 
L 211.781818 250.71435 
L 216.290909 258.505897 
L 220.8 248.16953 
L 225.309091 245.87605 
L 229.818182 263.312779 
L 234.327273 257.186361 
L 238.836364 246.00172 
L 243.345455 253.290587 
L 247.854545 260.987882 
L 252.363636 262.464506 
L 256.872727 244.210921 
L 261.381818 261.427727 
L 265.890909 260.987882 
L 270.4 263.375614 
L 274.909091 268.182496 
L 279.418182 262.590176 
L 283.927273 244.713602 
L 288.436364 257.469119 
L 292.945455 260.108191 
L 297.454545 251.813963 
L 301.963636 253.699015 
L 306.472727 257.437701 
L 310.981818 254.13886 
L 315.490909 254.044608 
L 320 249.960329 
L 324.509091 258.254557 
L 329.018182 252.725072 
L 333.527273 265.134996 
L 338.036364 257.751876 
L 342.545455 269.439197 
L 347.054545 250.902855 
L 351.563636 267.554145 
L 356.072727 274.340332 
L 360.581818 263.501284 
L 365.090909 279.901234 
L 369.6 268.088243 
L 374.109091 269.91046 
L 378.618182 271.764094 
L 383.127273 264.349557 
L 387.636364 275.879791 
L 392.145455 268.873682 
L 396.654545 265.669094 
L 401.163636 254.358783 
L 405.672727 272.298192 
L 410.181818 256.212417 
L 414.690909 276.036878 
L 419.2 261.616232 
L 423.709091 272.863708 
L 428.218182 270.350305 
L 432.727273 262.401671 
L 437.236364 267.61698 
L 441.745455 273.869069 
L 446.254545 273.115048 
L 450.763636 273.397806 
L 455.272727 284.488193 
L 459.781818 260.925047 
L 464.290909 278.42461 
L 468.8 261.144969 
L 473.309091 289.483581 
L 477.818182 276.256801 
L 482.327273 289.23224 
L 486.836364 274.057574 
L 491.345455 280.498167 
L 495.854545 270.413141 
L 500.363636 276.508141 
L 504.872727 279.084379 
L 509.381818 269.564867 
L 513.890909 292.813839 
L 518.4 274.74876 
" clip-path="url(#p1b11bb6051)" style="fill: none; stroke: #7f7f7f; stroke-width: 1.5; stroke-linecap: square"/>
   </g>
   <g id="patch_3">
    <path d="M 72 320.4 
L 72 43.2 
" style="fill: none; stroke: #000000; stroke-width: 0.8; stroke-linejoin: miter; stroke-linecap: square"/>
   </g>
   <g id="patch_4">
    <path d="M 518.4 320.4 
L 518.4 43.2 
" style="fill: none; stroke: #000000; stroke-width: 0.8; stroke-linejoin: miter; stroke-linecap: square"/>
   </g>
   <g id="patch_5">
    <path d="M 72 320.4 
L 518.4 320.4 
" style="fill: none; stroke: #000000; stroke-width: 0.8; stroke-linejoin: miter; stroke-linecap: square"/>
   </g>
   <g id="patch_6">
    <path d="M 72 43.2 
L 518.4 43.2 
" style="fill: none; stroke: #000000; stroke-width: 0.8; stroke-linejoin: miter; stroke-linecap: square"/>
   </g>
   <g id="text_17">
    <!-- Coding vs Intergenomic Seq. -->
    <g transform="translate(208.874062 37.2) scale(0.12 -0.12)">
     <defs>
      <path id="DejaVuSans-43" d="M 4122 4306 
L 4122 3641 
Q 3803 3938 3442 4084 
Q 3081 4231 2675 4231 
Q 1875 4231 1450 3742 
Q 1025 3253 1025 2328 
Q 1025 1406 1450 917 
Q 1875 428 2675 428 
Q 3081 428 3442 575 
Q 3803 722 4122 1019 
L 4122 359 
Q 3791 134 3420 21 
Q 3050 -91 2638 -91 
Q 1578 -91 968 557 
Q 359 1206 359 2328 
Q 359 3453 968 4101 
Q 1578 4750 2638 4750 
Q 3056 4750 3426 4639 
Q 3797 4528 4122 4306 
z
" transform="scale(0.015625)"/>
      <path id="DejaVuSans-64" d="M 2906 2969 
L 2906 4863 
L 3481 4863 
L 3481 0 
L 2906 0 
L 2906 525 
Q 2725 213 2448 61 
Q 2172 -91 1784 -91 
Q 1150 -91 751 415 
Q 353 922 353 1747 
Q 353 2572 751 3078 
Q 1150 3584 1784 3584 
Q 2172 3584 2448 3432 
Q 2725 3281 2906 2969 
z
M 947 1747 
Q 947 1113 1208 752 
Q 1469 391 1925 391 
Q 2381 391 2643 752 
Q 2906 1113 2906 1747 
Q 2906 2381 2643 2742 
Q 2381 3103 1925 3103 
Q 1469 3103 1208 2742 
Q 947 2381 947 1747 
z
" transform="scale(0.015625)"/>
      <path id="DejaVuSans-76" d="M 191 3500 
L 800 3500 
L 1894 563 
L 2988 3500 
L 3597 3500 
L 2284 0 
L 1503 0 
L 191 3500 
z
" transform="scale(0.015625)"/>
      <path id="DejaVuSans-49" d="M 628 4666 
L 1259 4666 
L 1259 0 
L 628 0 
L 628 4666 
z
" transform="scale(0.015625)"/>
      <path id="DejaVuSans-6d" d="M 3328 2828 
Q 3544 3216 3844 3400 
Q 4144 3584 4550 3584 
Q 5097 3584 5394 3201 
Q 5691 2819 5691 2113 
L 5691 0 
L 5113 0 
L 5113 2094 
Q 5113 2597 4934 2840 
Q 4756 3084 4391 3084 
Q 3944 3084 3684 2787 
Q 3425 2491 3425 1978 
L 3425 0 
L 2847 0 
L 2847 2094 
Q 2847 2600 2669 2842 
Q 2491 3084 2119 3084 
Q 1678 3084 1418 2786 
Q 1159 2488 1159 1978 
L 1159 0 
L 581 0 
L 581 3500 
L 1159 3500 
L 1159 2956 
Q 1356 3278 1631 3431 
Q 1906 3584 2284 3584 
Q 2666 3584 2933 3390 
Q 3200 3197 3328 2828 
z
" transform="scale(0.015625)"/>
      <path id="DejaVuSans-63" d="M 3122 3366 
L 3122 2828 
Q 2878 2963 2633 3030 
Q 2388 3097 2138 3097 
Q 1578 3097 1268 2742 
Q 959 2388 959 1747 
Q 959 1106 1268 751 
Q 1578 397 2138 397 
Q 2388 397 2633 464 
Q 2878 531 3122 666 
L 3122 134 
Q 2881 22 2623 -34 
Q 2366 -91 2075 -91 
Q 1284 -91 818 406 
Q 353 903 353 1747 
Q 353 2603 823 3093 
Q 1294 3584 2113 3584 
Q 2378 3584 2631 3529 
Q 2884 3475 3122 3366 
z
" transform="scale(0.015625)"/>
      <path id="DejaVuSans-53" d="M 3425 4513 
L 3425 3897 
Q 3066 4069 2747 4153 
Q 2428 4238 2131 4238 
Q 1616 4238 1336 4038 
Q 1056 3838 1056 3469 
Q 1056 3159 1242 3001 
Q 1428 2844 1947 2747 
L 2328 2669 
Q 3034 2534 3370 2195 
Q 3706 1856 3706 1288 
Q 3706 609 3251 259 
Q 2797 -91 1919 -91 
Q 1588 -91 1214 -16 
Q 841 59 441 206 
L 441 856 
Q 825 641 1194 531 
Q 1563 422 1919 422 
Q 2459 422 2753 634 
Q 3047 847 3047 1241 
Q 3047 1584 2836 1778 
Q 2625 1972 2144 2069 
L 1759 2144 
Q 1053 2284 737 2584 
Q 422 2884 422 3419 
Q 422 4038 858 4394 
Q 1294 4750 2059 4750 
Q 2388 4750 2728 4690 
Q 3069 4631 3425 4513 
z
" transform="scale(0.015625)"/>
      <path id="DejaVuSans-71" d="M 947 1747 
Q 947 1113 1208 752 
Q 1469 391 1925 391 
Q 2381 391 2643 752 
Q 2906 1113 2906 1747 
Q 2906 2381 2643 2742 
Q 2381 3103 1925 3103 
Q 1469 3103 1208 2742 
Q 947 2381 947 1747 
z
M 2906 525 
Q 2725 213 2448 61 
Q 2172 -91 1784 -91 
Q 1150 -91 751 415 
Q 353 922 353 1747 
Q 353 2572 751 3078 
Q 1150 3584 1784 3584 
Q 2172 3584 2448 3432 
Q 2725 3281 2906 2969 
L 2906 3500 
L 3481 3500 
L 3481 -1331 
L 2906 -1331 
L 2906 525 
z
" transform="scale(0.015625)"/>
     </defs>
     <use xlink:href="#DejaVuSans-43"/>
     <use xlink:href="#DejaVuSans-6f" transform="translate(69.824219 0)"/>
     <use xlink:href="#DejaVuSans-64" transform="translate(131.005859 0)"/>
     <use xlink:href="#DejaVuSans-69" transform="translate(194.482422 0)"/>
     <use xlink:href="#DejaVuSans-6e" transform="translate(222.265625 0)"/>
     <use xlink:href="#DejaVuSans-67" transform="translate(285.644531 0)"/>
     <use xlink:href="#DejaVuSans-20" transform="translate(349.121094 0)"/>
     <use xlink:href="#DejaVuSans-76" transform="translate(380.908203 0)"/>
     <use xlink:href="#DejaVuSans-73" transform="translate(440.087891 0)"/>
     <use xlink:href="#DejaVuSans-20" transform="translate(492.1875 0)"/>
     <use xlink:href="#DejaVuSans-49" transform="translate(523.974609 0)"/>
     <use xlink:href="#DejaVuSans-6e" transform="translate(553.466797 0)"/>
     <use xlink:href="#DejaVuSans-74" transform="translate(616.845703 0)"/>
     <use xlink:href="#DejaVuSans-65" transform="translate(656.054688 0)"/>
     <use xlink:href="#DejaVuSans-72" transform="translate(717.578125 0)"/>
     <use xlink:href="#DejaVuSans-67" transform="translate(756.941406 0)"/>
     <use xlink:href="#DejaVuSans-65" transform="translate(820.417969 0)"/>
     <use xlink:href="#DejaVuSans-6e" transform="translate(881.941406 0)"/>
     <use xlink:href="#DejaVuSans-6f" transform="translate(945.320312 0)"/>
     <use xlink:href="#DejaVuSans-6d" transform="translate(1006.501953 0)"/>
     <use xlink:href="#DejaVuSans-69" transform="translate(1103.914062 0)"/>
     <use xlink:href="#DejaVuSans-63" transform="translate(1131.697266 0)"/>
     <use xlink:href="#DejaVuSans-20" transform="translate(1186.677734 0)"/>
     <use xlink:href="#DejaVuSans-53" transform="translate(1218.464844 0)"/>
     <use xlink:href="#DejaVuSans-65" transform="translate(1281.941406 0)"/>
     <use xlink:href="#DejaVuSans-71" transform="translate(1343.464844 0)"/>
     <use xlink:href="#DejaVuSans-2e" transform="translate(1406.941406 0)"/>
    </g>
   </g>
   <g id="legend_1">
    <g id="patch_7">
     <path d="M 334.210684 147.679025 
L 512.569 147.679025 
Q 514.235 147.679025 514.235 146.013025 
L 514.235 49.031 
Q 514.235 47.365 512.569 47.365 
L 334.210684 47.365 
Q 332.544684 47.365 332.544684 49.031 
L 332.544684 146.013025 
Q 332.544684 147.679025 334.210684 147.679025 
z
" style="fill: #ffffff; opacity: 0.8; stroke: #cccccc; stroke-linejoin: miter"/>
    </g>
    <g id="line2d_23">
     <path d="M 335.876684 54.110998 
L 344.206684 54.110998 
L 352.536684 54.110998 
" style="fill: none; stroke: #1f77b4; stroke-width: 1.5; stroke-linecap: square"/>
    </g>
    <g id="text_18">
     <!-- NT-MS V2 (50M) with rand. weights -->
     <g transform="translate(359.200684 57.026498) scale(0.0833 -0.0833)">
      <defs>
       <path id="DejaVuSans-4e" d="M 628 4666 
L 1478 4666 
L 3547 763 
L 3547 4666 
L 4159 4666 
L 4159 0 
L 3309 0 
L 1241 3903 
L 1241 0 
L 628 0 
L 628 4666 
z
" transform="scale(0.015625)"/>
       <path id="DejaVuSans-2d" d="M 313 2009 
L 1997 2009 
L 1997 1497 
L 313 1497 
L 313 2009 
z
" transform="scale(0.015625)"/>
       <path id="DejaVuSans-4d" d="M 628 4666 
L 1569 4666 
L 2759 1491 
L 3956 4666 
L 4897 4666 
L 4897 0 
L 4281 0 
L 4281 4097 
L 3078 897 
L 2444 897 
L 1241 4097 
L 1241 0 
L 628 0 
L 628 4666 
z
" transform="scale(0.015625)"/>
       <path id="DejaVuSans-56" d="M 1831 0 
L 50 4666 
L 709 4666 
L 2188 738 
L 3669 4666 
L 4325 4666 
L 2547 0 
L 1831 0 
z
" transform="scale(0.015625)"/>
       <path id="DejaVuSans-28" d="M 1984 4856 
Q 1566 4138 1362 3434 
Q 1159 2731 1159 2009 
Q 1159 1288 1364 580 
Q 1569 -128 1984 -844 
L 1484 -844 
Q 1016 -109 783 600 
Q 550 1309 550 2009 
Q 550 2706 781 3412 
Q 1013 4119 1484 4856 
L 1984 4856 
z
" transform="scale(0.015625)"/>
       <path id="DejaVuSans-29" d="M 513 4856 
L 1013 4856 
Q 1481 4119 1714 3412 
Q 1947 2706 1947 2009 
Q 1947 1309 1714 600 
Q 1481 -109 1013 -844 
L 513 -844 
Q 928 -128 1133 580 
Q 1338 1288 1338 2009 
Q 1338 2731 1133 3434 
Q 928 4138 513 4856 
z
" transform="scale(0.015625)"/>
       <path id="DejaVuSans-77" d="M 269 3500 
L 844 3500 
L 1563 769 
L 2278 3500 
L 2956 3500 
L 3675 769 
L 4391 3500 
L 4966 3500 
L 4050 0 
L 3372 0 
L 2619 2869 
L 1863 0 
L 1184 0 
L 269 3500 
z
" transform="scale(0.015625)"/>
       <path id="DejaVuSans-68" d="M 3513 2113 
L 3513 0 
L 2938 0 
L 2938 2094 
Q 2938 2591 2744 2837 
Q 2550 3084 2163 3084 
Q 1697 3084 1428 2787 
Q 1159 2491 1159 1978 
L 1159 0 
L 581 0 
L 581 4863 
L 1159 4863 
L 1159 2956 
Q 1366 3272 1645 3428 
Q 1925 3584 2291 3584 
Q 2894 3584 3203 3211 
Q 3513 2838 3513 2113 
z
" transform="scale(0.015625)"/>
      </defs>
      <use xlink:href="#DejaVuSans-4e"/>
      <use xlink:href="#DejaVuSans-54" transform="translate(74.804688 0)"/>
      <use xlink:href="#DejaVuSans-2d" transform="translate(126.763672 0)"/>
      <use xlink:href="#DejaVuSans-4d" transform="translate(162.847656 0)"/>
      <use xlink:href="#DejaVuSans-53" transform="translate(249.126953 0)"/>
      <use xlink:href="#DejaVuSans-20" transform="translate(312.603516 0)"/>
      <use xlink:href="#DejaVuSans-56" transform="translate(344.390625 0)"/>
      <use xlink:href="#DejaVuSans-32" transform="translate(412.798828 0)"/>
      <use xlink:href="#DejaVuSans-20" transform="translate(476.421875 0)"/>
      <use xlink:href="#DejaVuSans-28" transform="translate(508.208984 0)"/>
      <use xlink:href="#DejaVuSans-35" transform="translate(547.222656 0)"/>
      <use xlink:href="#DejaVuSans-30" transform="translate(610.845703 0)"/>
      <use xlink:href="#DejaVuSans-4d" transform="translate(674.46875 0)"/>
      <use xlink:href="#DejaVuSans-29" transform="translate(760.748047 0)"/>
      <use xlink:href="#DejaVuSans-20" transform="translate(799.761719 0)"/>
      <use xlink:href="#DejaVuSans-77" transform="translate(831.548828 0)"/>
      <use xlink:href="#DejaVuSans-69" transform="translate(913.335938 0)"/>
      <use xlink:href="#DejaVuSans-74" transform="translate(941.119141 0)"/>
      <use xlink:href="#DejaVuSans-68" transform="translate(980.328125 0)"/>
      <use xlink:href="#DejaVuSans-20" transform="translate(1043.707031 0)"/>
      <use xlink:href="#DejaVuSans-72" transform="translate(1075.494141 0)"/>
      <use xlink:href="#DejaVuSans-61" transform="translate(1116.607422 0)"/>
      <use xlink:href="#DejaVuSans-6e" transform="translate(1177.886719 0)"/>
      <use xlink:href="#DejaVuSans-64" transform="translate(1241.265625 0)"/>
      <use xlink:href="#DejaVuSans-2e" transform="translate(1304.742188 0)"/>
      <use xlink:href="#DejaVuSans-20" transform="translate(1336.529297 0)"/>
      <use xlink:href="#DejaVuSans-77" transform="translate(1368.316406 0)"/>
      <use xlink:href="#DejaVuSans-65" transform="translate(1450.103516 0)"/>
      <use xlink:href="#DejaVuSans-69" transform="translate(1511.626953 0)"/>
      <use xlink:href="#DejaVuSans-67" transform="translate(1539.410156 0)"/>
      <use xlink:href="#DejaVuSans-68" transform="translate(1602.886719 0)"/>
      <use xlink:href="#DejaVuSans-74" transform="translate(1666.265625 0)"/>
      <use xlink:href="#DejaVuSans-73" transform="translate(1705.474609 0)"/>
     </g>
    </g>
    <g id="line2d_24">
     <path d="M 335.876684 66.337877 
L 344.206684 66.337877 
L 352.536684 66.337877 
" style="fill: none; stroke: #ff7f0e; stroke-width: 1.5; stroke-linecap: square"/>
    </g>
    <g id="text_19">
     <!-- NT-MS V2 (500M) with rand. weights -->
     <g transform="translate(359.200684 69.253377) scale(0.0833 -0.0833)">
      <use xlink:href="#DejaVuSans-4e"/>
      <use xlink:href="#DejaVuSans-54" transform="translate(74.804688 0)"/>
      <use xlink:href="#DejaVuSans-2d" transform="translate(126.763672 0)"/>
      <use xlink:href="#DejaVuSans-4d" transform="translate(162.847656 0)"/>
      <use xlink:href="#DejaVuSans-53" transform="translate(249.126953 0)"/>
      <use xlink:href="#DejaVuSans-20" transform="translate(312.603516 0)"/>
      <use xlink:href="#DejaVuSans-56" transform="translate(344.390625 0)"/>
      <use xlink:href="#DejaVuSans-32" transform="translate(412.798828 0)"/>
      <use xlink:href="#DejaVuSans-20" transform="translate(476.421875 0)"/>
      <use xlink:href="#DejaVuSans-28" transform="translate(508.208984 0)"/>
      <use xlink:href="#DejaVuSans-35" transform="translate(547.222656 0)"/>
      <use xlink:href="#DejaVuSans-30" transform="translate(610.845703 0)"/>
      <use xlink:href="#DejaVuSans-30" transform="translate(674.46875 0)"/>
      <use xlink:href="#DejaVuSans-4d" transform="translate(738.091797 0)"/>
      <use xlink:href="#DejaVuSans-29" transform="translate(824.371094 0)"/>
      <use xlink:href="#DejaVuSans-20" transform="translate(863.384766 0)"/>
      <use xlink:href="#DejaVuSans-77" transform="translate(895.171875 0)"/>
      <use xlink:href="#DejaVuSans-69" transform="translate(976.958984 0)"/>
      <use xlink:href="#DejaVuSans-74" transform="translate(1004.742188 0)"/>
      <use xlink:href="#DejaVuSans-68" transform="translate(1043.951172 0)"/>
      <use xlink:href="#DejaVuSans-20" transform="translate(1107.330078 0)"/>
      <use xlink:href="#DejaVuSans-72" transform="translate(1139.117188 0)"/>
      <use xlink:href="#DejaVuSans-61" transform="translate(1180.230469 0)"/>
      <use xlink:href="#DejaVuSans-6e" transform="translate(1241.509766 0)"/>
      <use xlink:href="#DejaVuSans-64" transform="translate(1304.888672 0)"/>
      <use xlink:href="#DejaVuSans-2e" transform="translate(1368.365234 0)"/>
      <use xlink:href="#DejaVuSans-20" transform="translate(1400.152344 0)"/>
      <use xlink:href="#DejaVuSans-77" transform="translate(1431.939453 0)"/>
      <use xlink:href="#DejaVuSans-65" transform="translate(1513.726562 0)"/>
      <use xlink:href="#DejaVuSans-69" transform="translate(1575.25 0)"/>
      <use xlink:href="#DejaVuSans-67" transform="translate(1603.033203 0)"/>
      <use xlink:href="#DejaVuSans-68" transform="translate(1666.509766 0)"/>
      <use xlink:href="#DejaVuSans-74" transform="translate(1729.888672 0)"/>
      <use xlink:href="#DejaVuSans-73" transform="translate(1769.097656 0)"/>
     </g>
    </g>
    <g id="line2d_25">
     <path d="M 335.876684 78.564755 
L 344.206684 78.564755 
L 352.536684 78.564755 
" style="fill: none; stroke: #2ca02c; stroke-width: 1.5; stroke-linecap: square"/>
    </g>
    <g id="text_20">
     <!-- NT-MS V2 (50M) -->
     <g transform="translate(359.200684 81.480255) scale(0.0833 -0.0833)">
      <use xlink:href="#DejaVuSans-4e"/>
      <use xlink:href="#DejaVuSans-54" transform="translate(74.804688 0)"/>
      <use xlink:href="#DejaVuSans-2d" transform="translate(126.763672 0)"/>
      <use xlink:href="#DejaVuSans-4d" transform="translate(162.847656 0)"/>
      <use xlink:href="#DejaVuSans-53" transform="translate(249.126953 0)"/>
      <use xlink:href="#DejaVuSans-20" transform="translate(312.603516 0)"/>
      <use xlink:href="#DejaVuSans-56" transform="translate(344.390625 0)"/>
      <use xlink:href="#DejaVuSans-32" transform="translate(412.798828 0)"/>
      <use xlink:href="#DejaVuSans-20" transform="translate(476.421875 0)"/>
      <use xlink:href="#DejaVuSans-28" transform="translate(508.208984 0)"/>
      <use xlink:href="#DejaVuSans-35" transform="translate(547.222656 0)"/>
      <use xlink:href="#DejaVuSans-30" transform="translate(610.845703 0)"/>
      <use xlink:href="#DejaVuSans-4d" transform="translate(674.46875 0)"/>
      <use xlink:href="#DejaVuSans-29" transform="translate(760.748047 0)"/>
     </g>
    </g>
    <g id="line2d_26">
     <path d="M 335.876684 90.791633 
L 344.206684 90.791633 
L 352.536684 90.791633 
" style="fill: none; stroke: #d62728; stroke-width: 1.5; stroke-linecap: square"/>
    </g>
    <g id="text_21">
     <!-- NT-1000g (500M) -->
     <g transform="translate(359.200684 93.707133) scale(0.0833 -0.0833)">
      <use xlink:href="#DejaVuSans-4e"/>
      <use xlink:href="#DejaVuSans-54" transform="translate(74.804688 0)"/>
      <use xlink:href="#DejaVuSans-2d" transform="translate(126.763672 0)"/>
      <use xlink:href="#DejaVuSans-31" transform="translate(162.847656 0)"/>
      <use xlink:href="#DejaVuSans-30" transform="translate(226.470703 0)"/>
      <use xlink:href="#DejaVuSans-30" transform="translate(290.09375 0)"/>
      <use xlink:href="#DejaVuSans-30" transform="translate(353.716797 0)"/>
      <use xlink:href="#DejaVuSans-67" transform="translate(417.339844 0)"/>
      <use xlink:href="#DejaVuSans-20" transform="translate(480.816406 0)"/>
      <use xlink:href="#DejaVuSans-28" transform="translate(512.603516 0)"/>
      <use xlink:href="#DejaVuSans-35" transform="translate(551.617188 0)"/>
      <use xlink:href="#DejaVuSans-30" transform="translate(615.240234 0)"/>
      <use xlink:href="#DejaVuSans-30" transform="translate(678.863281 0)"/>
      <use xlink:href="#DejaVuSans-4d" transform="translate(742.486328 0)"/>
      <use xlink:href="#DejaVuSans-29" transform="translate(828.765625 0)"/>
     </g>
    </g>
    <g id="line2d_27">
     <path d="M 335.876684 103.018511 
L 344.206684 103.018511 
L 352.536684 103.018511 
" style="fill: none; stroke: #9467bd; stroke-width: 1.5; stroke-linecap: square"/>
    </g>
    <g id="text_22">
     <!-- NT-MS V2 (250M) -->
     <g transform="translate(359.200684 105.934011) scale(0.0833 -0.0833)">
      <use xlink:href="#DejaVuSans-4e"/>
      <use xlink:href="#DejaVuSans-54" transform="translate(74.804688 0)"/>
      <use xlink:href="#DejaVuSans-2d" transform="translate(126.763672 0)"/>
      <use xlink:href="#DejaVuSans-4d" transform="translate(162.847656 0)"/>
      <use xlink:href="#DejaVuSans-53" transform="translate(249.126953 0)"/>
      <use xlink:href="#DejaVuSans-20" transform="translate(312.603516 0)"/>
      <use xlink:href="#DejaVuSans-56" transform="translate(344.390625 0)"/>
      <use xlink:href="#DejaVuSans-32" transform="translate(412.798828 0)"/>
      <use xlink:href="#DejaVuSans-20" transform="translate(476.421875 0)"/>
      <use xlink:href="#DejaVuSans-28" transform="translate(508.208984 0)"/>
      <use xlink:href="#DejaVuSans-32" transform="translate(547.222656 0)"/>
      <use xlink:href="#DejaVuSans-35" transform="translate(610.845703 0)"/>
      <use xlink:href="#DejaVuSans-30" transform="translate(674.46875 0)"/>
      <use xlink:href="#DejaVuSans-4d" transform="translate(738.091797 0)"/>
      <use xlink:href="#DejaVuSans-29" transform="translate(824.371094 0)"/>
     </g>
    </g>
    <g id="line2d_28">
     <path d="M 335.876684 115.245389 
L 344.206684 115.245389 
L 352.536684 115.245389 
" style="fill: none; stroke: #8c564b; stroke-width: 1.5; stroke-linecap: square"/>
    </g>
    <g id="text_23">
     <!-- NT-MS V2 (100M) -->
     <g transform="translate(359.200684 118.160889) scale(0.0833 -0.0833)">
      <use xlink:href="#DejaVuSans-4e"/>
      <use xlink:href="#DejaVuSans-54" transform="translate(74.804688 0)"/>
      <use xlink:href="#DejaVuSans-2d" transform="translate(126.763672 0)"/>
      <use xlink:href="#DejaVuSans-4d" transform="translate(162.847656 0)"/>
      <use xlink:href="#DejaVuSans-53" transform="translate(249.126953 0)"/>
      <use xlink:href="#DejaVuSans-20" transform="translate(312.603516 0)"/>
      <use xlink:href="#DejaVuSans-56" transform="translate(344.390625 0)"/>
      <use xlink:href="#DejaVuSans-32" transform="translate(412.798828 0)"/>
      <use xlink:href="#DejaVuSans-20" transform="translate(476.421875 0)"/>
      <use xlink:href="#DejaVuSans-28" transform="translate(508.208984 0)"/>
      <use xlink:href="#DejaVuSans-31" transform="translate(547.222656 0)"/>
      <use xlink:href="#DejaVuSans-30" transform="translate(610.845703 0)"/>
      <use xlink:href="#DejaVuSans-30" transform="translate(674.46875 0)"/>
      <use xlink:href="#DejaVuSans-4d" transform="translate(738.091797 0)"/>
      <use xlink:href="#DejaVuSans-29" transform="translate(824.371094 0)"/>
     </g>
    </g>
    <g id="line2d_29">
     <path d="M 335.876684 127.472267 
L 344.206684 127.472267 
L 352.536684 127.472267 
" style="fill: none; stroke: #e377c2; stroke-width: 1.5; stroke-linecap: square"/>
    </g>
    <g id="text_24">
     <!-- NT-Human-Ref. (500M) -->
     <g transform="translate(359.200684 130.387767) scale(0.0833 -0.0833)">
      <defs>
       <path id="DejaVuSans-48" d="M 628 4666 
L 1259 4666 
L 1259 2753 
L 3553 2753 
L 3553 4666 
L 4184 4666 
L 4184 0 
L 3553 0 
L 3553 2222 
L 1259 2222 
L 1259 0 
L 628 0 
L 628 4666 
z
" transform="scale(0.015625)"/>
       <path id="DejaVuSans-75" d="M 544 1381 
L 544 3500 
L 1119 3500 
L 1119 1403 
Q 1119 906 1312 657 
Q 1506 409 1894 409 
Q 2359 409 2629 706 
Q 2900 1003 2900 1516 
L 2900 3500 
L 3475 3500 
L 3475 0 
L 2900 0 
L 2900 538 
Q 2691 219 2414 64 
Q 2138 -91 1772 -91 
Q 1169 -91 856 284 
Q 544 659 544 1381 
z
M 1991 3584 
L 1991 3584 
z
" transform="scale(0.015625)"/>
       <path id="DejaVuSans-52" d="M 2841 2188 
Q 3044 2119 3236 1894 
Q 3428 1669 3622 1275 
L 4263 0 
L 3584 0 
L 2988 1197 
Q 2756 1666 2539 1819 
Q 2322 1972 1947 1972 
L 1259 1972 
L 1259 0 
L 628 0 
L 628 4666 
L 2053 4666 
Q 2853 4666 3247 4331 
Q 3641 3997 3641 3322 
Q 3641 2881 3436 2590 
Q 3231 2300 2841 2188 
z
M 1259 4147 
L 1259 2491 
L 2053 2491 
Q 2509 2491 2742 2702 
Q 2975 2913 2975 3322 
Q 2975 3731 2742 3939 
Q 2509 4147 2053 4147 
L 1259 4147 
z
" transform="scale(0.015625)"/>
       <path id="DejaVuSans-66" d="M 2375 4863 
L 2375 4384 
L 1825 4384 
Q 1516 4384 1395 4259 
Q 1275 4134 1275 3809 
L 1275 3500 
L 2222 3500 
L 2222 3053 
L 1275 3053 
L 1275 0 
L 697 0 
L 697 3053 
L 147 3053 
L 147 3500 
L 697 3500 
L 697 3744 
Q 697 4328 969 4595 
Q 1241 4863 1831 4863 
L 2375 4863 
z
" transform="scale(0.015625)"/>
      </defs>
      <use xlink:href="#DejaVuSans-4e"/>
      <use xlink:href="#DejaVuSans-54" transform="translate(74.804688 0)"/>
      <use xlink:href="#DejaVuSans-2d" transform="translate(126.763672 0)"/>
      <use xlink:href="#DejaVuSans-48" transform="translate(162.847656 0)"/>
      <use xlink:href="#DejaVuSans-75" transform="translate(238.042969 0)"/>
      <use xlink:href="#DejaVuSans-6d" transform="translate(301.421875 0)"/>
      <use xlink:href="#DejaVuSans-61" transform="translate(398.833984 0)"/>
      <use xlink:href="#DejaVuSans-6e" transform="translate(460.113281 0)"/>
      <use xlink:href="#DejaVuSans-2d" transform="translate(523.492188 0)"/>
      <use xlink:href="#DejaVuSans-52" transform="translate(559.576172 0)"/>
      <use xlink:href="#DejaVuSans-65" transform="translate(624.558594 0)"/>
      <use xlink:href="#DejaVuSans-66" transform="translate(686.082031 0)"/>
      <use xlink:href="#DejaVuSans-2e" transform="translate(714.037109 0)"/>
      <use xlink:href="#DejaVuSans-20" transform="translate(745.824219 0)"/>
      <use xlink:href="#DejaVuSans-28" transform="translate(777.611328 0)"/>
      <use xlink:href="#DejaVuSans-35" transform="translate(816.625 0)"/>
      <use xlink:href="#DejaVuSans-30" transform="translate(880.248047 0)"/>
      <use xlink:href="#DejaVuSans-30" transform="translate(943.871094 0)"/>
      <use xlink:href="#DejaVuSans-4d" transform="translate(1007.494141 0)"/>
      <use xlink:href="#DejaVuSans-29" transform="translate(1093.773438 0)"/>
     </g>
    </g>
    <g id="line2d_30">
     <path d="M 335.876684 139.699145 
L 344.206684 139.699145 
L 352.536684 139.699145 
" style="fill: none; stroke: #7f7f7f; stroke-width: 1.5; stroke-linecap: square"/>
    </g>
    <g id="text_25">
     <!-- NT-MS V2 (500M) -->
     <g transform="translate(359.200684 142.614645) scale(0.0833 -0.0833)">
      <use xlink:href="#DejaVuSans-4e"/>
      <use xlink:href="#DejaVuSans-54" transform="translate(74.804688 0)"/>
      <use xlink:href="#DejaVuSans-2d" transform="translate(126.763672 0)"/>
      <use xlink:href="#DejaVuSans-4d" transform="translate(162.847656 0)"/>
      <use xlink:href="#DejaVuSans-53" transform="translate(249.126953 0)"/>
      <use xlink:href="#DejaVuSans-20" transform="translate(312.603516 0)"/>
      <use xlink:href="#DejaVuSans-56" transform="translate(344.390625 0)"/>
      <use xlink:href="#DejaVuSans-32" transform="translate(412.798828 0)"/>
      <use xlink:href="#DejaVuSans-20" transform="translate(476.421875 0)"/>
      <use xlink:href="#DejaVuSans-28" transform="translate(508.208984 0)"/>
      <use xlink:href="#DejaVuSans-35" transform="translate(547.222656 0)"/>
      <use xlink:href="#DejaVuSans-30" transform="translate(610.845703 0)"/>
      <use xlink:href="#DejaVuSans-30" transform="translate(674.46875 0)"/>
      <use xlink:href="#DejaVuSans-4d" transform="translate(738.091797 0)"/>
      <use xlink:href="#DejaVuSans-29" transform="translate(824.371094 0)"/>
     </g>
    </g>
   </g>
  </g>
 </g>
 <defs>
  <clipPath id="p1b11bb6051">
   <rect x="72" y="43.2" width="446.4" height="277.2"/>
  </clipPath>
 </defs>
</svg>
