<?xml version="1.0" encoding="utf-8" standalone="no"?>
<!DOCTYPE svg PUBLIC "-//W3C//DTD SVG 1.1//EN"
  "http://www.w3.org/Graphics/SVG/1.1/DTD/svg11.dtd">
<svg xmlns:xlink="http://www.w3.org/1999/xlink" width="576pt" height="360pt" viewBox="0 0 576 360" xmlns="http://www.w3.org/2000/svg" version="1.1">
 <metadata>
  <rdf:RDF xmlns:dc="http://purl.org/dc/elements/1.1/" xmlns:cc="http://creativecommons.org/ns#" xmlns:rdf="http://www.w3.org/1999/02/22-rdf-syntax-ns#">
   <cc:Work>
    <dc:type rdf:resource="http://purl.org/dc/dcmitype/StillImage"/>
    <dc:date>2025-01-07T03:55:02.435448</dc:date>
    <dc:format>image/svg+xml</dc:format>
    <dc:creator>
     <cc:Agent>
      <dc:title>Matplotlib v3.10.0, https://matplotlib.org/</dc:title>
     </cc:Agent>
    </dc:creator>
   </cc:Work>
  </rdf:RDF>
 </metadata>
 <defs>
  <style type="text/css">*{stroke-linejoin: round; stroke-linecap: butt}</style>
 </defs>
 <g id="figure_1">
  <g id="patch_1">
   <path d="M 0 360 
L 576 360 
L 576 0 
L 0 0 
z
" style="fill: #ffffff"/>
  </g>
  <g id="axes_1">
   <g id="patch_2">
    <path d="M 72 320.4 
L 518.4 320.4 
L 518.4 43.2 
L 72 43.2 
z
" style="fill: #ffffff"/>
   </g>
   <g id="matplotlib.axis_1">
    <g id="xtick_1">
     <g id="line2d_1">
      <defs>
       <path id="m9c38518456" d="M 0 0 
L 0 3.5 
" style="stroke: #000000; stroke-width: 0.8"/>
      </defs>
      <g>
       <use xlink:href="#m9c38518456" x="157.672727" y="320.4" style="stroke: #000000; stroke-width: 0.8"/>
      </g>
     </g>
     <g id="text_1">
      <!-- 2000 -->
      <g transform="translate(144.947727 334.998438) scale(0.1 -0.1)">
       <defs>
        <path id="DejaVuSans-32" d="M 1228 531 
L 3431 531 
L 3431 0 
L 469 0 
L 469 531 
Q 828 903 1448 1529 
Q 2069 2156 2228 2338 
Q 2531 2678 2651 2914 
Q 2772 3150 2772 3378 
Q 2772 3750 2511 3984 
Q 2250 4219 1831 4219 
Q 1534 4219 1204 4116 
Q 875 4013 500 3803 
L 500 4441 
Q 881 4594 1212 4672 
Q 1544 4750 1819 4750 
Q 2544 4750 2975 4387 
Q 3406 4025 3406 3419 
Q 3406 3131 3298 2873 
Q 3191 2616 2906 2266 
Q 2828 2175 2409 1742 
Q 1991 1309 1228 531 
z
" transform="scale(0.015625)"/>
        <path id="DejaVuSans-30" d="M 2034 4250 
Q 1547 4250 1301 3770 
Q 1056 3291 1056 2328 
Q 1056 1369 1301 889 
Q 1547 409 2034 409 
Q 2525 409 2770 889 
Q 3016 1369 3016 2328 
Q 3016 3291 2770 3770 
Q 2525 4250 2034 4250 
z
M 2034 4750 
Q 2819 4750 3233 4129 
Q 3647 3509 3647 2328 
Q 3647 1150 3233 529 
Q 2819 -91 2034 -91 
Q 1250 -91 836 529 
Q 422 1150 422 2328 
Q 422 3509 836 4129 
Q 1250 4750 2034 4750 
z
" transform="scale(0.015625)"/>
       </defs>
       <use xlink:href="#DejaVuSans-32"/>
       <use xlink:href="#DejaVuSans-30" transform="translate(63.623047 0)"/>
       <use xlink:href="#DejaVuSans-30" transform="translate(127.246094 0)"/>
       <use xlink:href="#DejaVuSans-30" transform="translate(190.869141 0)"/>
      </g>
     </g>
    </g>
    <g id="xtick_2">
     <g id="line2d_2">
      <g>
       <use xlink:href="#m9c38518456" x="247.854545" y="320.4" style="stroke: #000000; stroke-width: 0.8"/>
      </g>
     </g>
     <g id="text_2">
      <!-- 4000 -->
      <g transform="translate(235.129545 334.998438) scale(0.1 -0.1)">
       <defs>
        <path id="DejaVuSans-34" d="M 2419 4116 
L 825 1625 
L 2419 1625 
L 2419 4116 
z
M 2253 4666 
L 3047 4666 
L 3047 1625 
L 3713 1625 
L 3713 1100 
L 3047 1100 
L 3047 0 
L 2419 0 
L 2419 1100 
L 313 1100 
L 313 1709 
L 2253 4666 
z
" transform="scale(0.015625)"/>
       </defs>
       <use xlink:href="#DejaVuSans-34"/>
       <use xlink:href="#DejaVuSans-30" transform="translate(63.623047 0)"/>
       <use xlink:href="#DejaVuSans-30" transform="translate(127.246094 0)"/>
       <use xlink:href="#DejaVuSans-30" transform="translate(190.869141 0)"/>
      </g>
     </g>
    </g>
    <g id="xtick_3">
     <g id="line2d_3">
      <g>
       <use xlink:href="#m9c38518456" x="338.036364" y="320.4" style="stroke: #000000; stroke-width: 0.8"/>
      </g>
     </g>
     <g id="text_3">
      <!-- 6000 -->
      <g transform="translate(325.311364 334.998438) scale(0.1 -0.1)">
       <defs>
        <path id="DejaVuSans-36" d="M 2113 2584 
Q 1688 2584 1439 2293 
Q 1191 2003 1191 1497 
Q 1191 994 1439 701 
Q 1688 409 2113 409 
Q 2538 409 2786 701 
Q 3034 994 3034 1497 
Q 3034 2003 2786 2293 
Q 2538 2584 2113 2584 
z
M 3366 4563 
L 3366 3988 
Q 3128 4100 2886 4159 
Q 2644 4219 2406 4219 
Q 1781 4219 1451 3797 
Q 1122 3375 1075 2522 
Q 1259 2794 1537 2939 
Q 1816 3084 2150 3084 
Q 2853 3084 3261 2657 
Q 3669 2231 3669 1497 
Q 3669 778 3244 343 
Q 2819 -91 2113 -91 
Q 1303 -91 875 529 
Q 447 1150 447 2328 
Q 447 3434 972 4092 
Q 1497 4750 2381 4750 
Q 2619 4750 2861 4703 
Q 3103 4656 3366 4563 
z
" transform="scale(0.015625)"/>
       </defs>
       <use xlink:href="#DejaVuSans-36"/>
       <use xlink:href="#DejaVuSans-30" transform="translate(63.623047 0)"/>
       <use xlink:href="#DejaVuSans-30" transform="translate(127.246094 0)"/>
       <use xlink:href="#DejaVuSans-30" transform="translate(190.869141 0)"/>
      </g>
     </g>
    </g>
    <g id="xtick_4">
     <g id="line2d_4">
      <g>
       <use xlink:href="#m9c38518456" x="428.218182" y="320.4" style="stroke: #000000; stroke-width: 0.8"/>
      </g>
     </g>
     <g id="text_4">
      <!-- 8000 -->
      <g transform="translate(415.493182 334.998438) scale(0.1 -0.1)">
       <defs>
        <path id="DejaVuSans-38" d="M 2034 2216 
Q 1584 2216 1326 1975 
Q 1069 1734 1069 1313 
Q 1069 891 1326 650 
Q 1584 409 2034 409 
Q 2484 409 2743 651 
Q 3003 894 3003 1313 
Q 3003 1734 2745 1975 
Q 2488 2216 2034 2216 
z
M 1403 2484 
Q 997 2584 770 2862 
Q 544 3141 544 3541 
Q 544 4100 942 4425 
Q 1341 4750 2034 4750 
Q 2731 4750 3128 4425 
Q 3525 4100 3525 3541 
Q 3525 3141 3298 2862 
Q 3072 2584 2669 2484 
Q 3125 2378 3379 2068 
Q 3634 1759 3634 1313 
Q 3634 634 3220 271 
Q 2806 -91 2034 -91 
Q 1263 -91 848 271 
Q 434 634 434 1313 
Q 434 1759 690 2068 
Q 947 2378 1403 2484 
z
M 1172 3481 
Q 1172 3119 1398 2916 
Q 1625 2713 2034 2713 
Q 2441 2713 2670 2916 
Q 2900 3119 2900 3481 
Q 2900 3844 2670 4047 
Q 2441 4250 2034 4250 
Q 1625 4250 1398 4047 
Q 1172 3844 1172 3481 
z
" transform="scale(0.015625)"/>
       </defs>
       <use xlink:href="#DejaVuSans-38"/>
       <use xlink:href="#DejaVuSans-30" transform="translate(63.623047 0)"/>
       <use xlink:href="#DejaVuSans-30" transform="translate(127.246094 0)"/>
       <use xlink:href="#DejaVuSans-30" transform="translate(190.869141 0)"/>
      </g>
     </g>
    </g>
    <g id="xtick_5">
     <g id="line2d_5">
      <g>
       <use xlink:href="#m9c38518456" x="518.4" y="320.4" style="stroke: #000000; stroke-width: 0.8"/>
      </g>
     </g>
     <g id="text_5">
      <!-- 10000 -->
      <g transform="translate(502.49375 334.998438) scale(0.1 -0.1)">
       <defs>
        <path id="DejaVuSans-31" d="M 794 531 
L 1825 531 
L 1825 4091 
L 703 3866 
L 703 4441 
L 1819 4666 
L 2450 4666 
L 2450 531 
L 3481 531 
L 3481 0 
L 794 0 
L 794 531 
z
" transform="scale(0.015625)"/>
       </defs>
       <use xlink:href="#DejaVuSans-31"/>
       <use xlink:href="#DejaVuSans-30" transform="translate(63.623047 0)"/>
       <use xlink:href="#DejaVuSans-30" transform="translate(127.246094 0)"/>
       <use xlink:href="#DejaVuSans-30" transform="translate(190.869141 0)"/>
       <use xlink:href="#DejaVuSans-30" transform="translate(254.492188 0)"/>
      </g>
     </g>
    </g>
    <g id="text_6">
     <!-- Training steps -->
     <g transform="translate(260.464844 348.676562) scale(0.1 -0.1)">
      <defs>
       <path id="DejaVuSans-54" d="M -19 4666 
L 3928 4666 
L 3928 4134 
L 2272 4134 
L 2272 0 
L 1638 0 
L 1638 4134 
L -19 4134 
L -19 4666 
z
" transform="scale(0.015625)"/>
       <path id="DejaVuSans-72" d="M 2631 2963 
Q 2534 3019 2420 3045 
Q 2306 3072 2169 3072 
Q 1681 3072 1420 2755 
Q 1159 2438 1159 1844 
L 1159 0 
L 581 0 
L 581 3500 
L 1159 3500 
L 1159 2956 
Q 1341 3275 1631 3429 
Q 1922 3584 2338 3584 
Q 2397 3584 2469 3576 
Q 2541 3569 2628 3553 
L 2631 2963 
z
" transform="scale(0.015625)"/>
       <path id="DejaVuSans-61" d="M 2194 1759 
Q 1497 1759 1228 1600 
Q 959 1441 959 1056 
Q 959 750 1161 570 
Q 1363 391 1709 391 
Q 2188 391 2477 730 
Q 2766 1069 2766 1631 
L 2766 1759 
L 2194 1759 
z
M 3341 1997 
L 3341 0 
L 2766 0 
L 2766 531 
Q 2569 213 2275 61 
Q 1981 -91 1556 -91 
Q 1019 -91 701 211 
Q 384 513 384 1019 
Q 384 1609 779 1909 
Q 1175 2209 1959 2209 
L 2766 2209 
L 2766 2266 
Q 2766 2663 2505 2880 
Q 2244 3097 1772 3097 
Q 1472 3097 1187 3025 
Q 903 2953 641 2809 
L 641 3341 
Q 956 3463 1253 3523 
Q 1550 3584 1831 3584 
Q 2591 3584 2966 3190 
Q 3341 2797 3341 1997 
z
" transform="scale(0.015625)"/>
       <path id="DejaVuSans-69" d="M 603 3500 
L 1178 3500 
L 1178 0 
L 603 0 
L 603 3500 
z
M 603 4863 
L 1178 4863 
L 1178 4134 
L 603 4134 
L 603 4863 
z
" transform="scale(0.015625)"/>
       <path id="DejaVuSans-6e" d="M 3513 2113 
L 3513 0 
L 2938 0 
L 2938 2094 
Q 2938 2591 2744 2837 
Q 2550 3084 2163 3084 
Q 1697 3084 1428 2787 
Q 1159 2491 1159 1978 
L 1159 0 
L 581 0 
L 581 3500 
L 1159 3500 
L 1159 2956 
Q 1366 3272 1645 3428 
Q 1925 3584 2291 3584 
Q 2894 3584 3203 3211 
Q 3513 2838 3513 2113 
z
" transform="scale(0.015625)"/>
       <path id="DejaVuSans-67" d="M 2906 1791 
Q 2906 2416 2648 2759 
Q 2391 3103 1925 3103 
Q 1463 3103 1205 2759 
Q 947 2416 947 1791 
Q 947 1169 1205 825 
Q 1463 481 1925 481 
Q 2391 481 2648 825 
Q 2906 1169 2906 1791 
z
M 3481 434 
Q 3481 -459 3084 -895 
Q 2688 -1331 1869 -1331 
Q 1566 -1331 1297 -1286 
Q 1028 -1241 775 -1147 
L 775 -588 
Q 1028 -725 1275 -790 
Q 1522 -856 1778 -856 
Q 2344 -856 2625 -561 
Q 2906 -266 2906 331 
L 2906 616 
Q 2728 306 2450 153 
Q 2172 0 1784 0 
Q 1141 0 747 490 
Q 353 981 353 1791 
Q 353 2603 747 3093 
Q 1141 3584 1784 3584 
Q 2172 3584 2450 3431 
Q 2728 3278 2906 2969 
L 2906 3500 
L 3481 3500 
L 3481 434 
z
" transform="scale(0.015625)"/>
       <path id="DejaVuSans-20" transform="scale(0.015625)"/>
       <path id="DejaVuSans-73" d="M 2834 3397 
L 2834 2853 
Q 2591 2978 2328 3040 
Q 2066 3103 1784 3103 
Q 1356 3103 1142 2972 
Q 928 2841 928 2578 
Q 928 2378 1081 2264 
Q 1234 2150 1697 2047 
L 1894 2003 
Q 2506 1872 2764 1633 
Q 3022 1394 3022 966 
Q 3022 478 2636 193 
Q 2250 -91 1575 -91 
Q 1294 -91 989 -36 
Q 684 19 347 128 
L 347 722 
Q 666 556 975 473 
Q 1284 391 1588 391 
Q 1994 391 2212 530 
Q 2431 669 2431 922 
Q 2431 1156 2273 1281 
Q 2116 1406 1581 1522 
L 1381 1569 
Q 847 1681 609 1914 
Q 372 2147 372 2553 
Q 372 3047 722 3315 
Q 1072 3584 1716 3584 
Q 2034 3584 2315 3537 
Q 2597 3491 2834 3397 
z
" transform="scale(0.015625)"/>
       <path id="DejaVuSans-74" d="M 1172 4494 
L 1172 3500 
L 2356 3500 
L 2356 3053 
L 1172 3053 
L 1172 1153 
Q 1172 725 1289 603 
Q 1406 481 1766 481 
L 2356 481 
L 2356 0 
L 1766 0 
Q 1100 0 847 248 
Q 594 497 594 1153 
L 594 3053 
L 172 3053 
L 172 3500 
L 594 3500 
L 594 4494 
L 1172 4494 
z
" transform="scale(0.015625)"/>
       <path id="DejaVuSans-65" d="M 3597 1894 
L 3597 1613 
L 953 1613 
Q 991 1019 1311 708 
Q 1631 397 2203 397 
Q 2534 397 2845 478 
Q 3156 559 3463 722 
L 3463 178 
Q 3153 47 2828 -22 
Q 2503 -91 2169 -91 
Q 1331 -91 842 396 
Q 353 884 353 1716 
Q 353 2575 817 3079 
Q 1281 3584 2069 3584 
Q 2775 3584 3186 3129 
Q 3597 2675 3597 1894 
z
M 3022 2063 
Q 3016 2534 2758 2815 
Q 2500 3097 2075 3097 
Q 1594 3097 1305 2825 
Q 1016 2553 972 2059 
L 3022 2063 
z
" transform="scale(0.015625)"/>
       <path id="DejaVuSans-70" d="M 1159 525 
L 1159 -1331 
L 581 -1331 
L 581 3500 
L 1159 3500 
L 1159 2969 
Q 1341 3281 1617 3432 
Q 1894 3584 2278 3584 
Q 2916 3584 3314 3078 
Q 3713 2572 3713 1747 
Q 3713 922 3314 415 
Q 2916 -91 2278 -91 
Q 1894 -91 1617 61 
Q 1341 213 1159 525 
z
M 3116 1747 
Q 3116 2381 2855 2742 
Q 2594 3103 2138 3103 
Q 1681 3103 1420 2742 
Q 1159 2381 1159 1747 
Q 1159 1113 1420 752 
Q 1681 391 2138 391 
Q 2594 391 2855 752 
Q 3116 1113 3116 1747 
z
" transform="scale(0.015625)"/>
      </defs>
      <use xlink:href="#DejaVuSans-54"/>
      <use xlink:href="#DejaVuSans-72" transform="translate(46.333984 0)"/>
      <use xlink:href="#DejaVuSans-61" transform="translate(87.447266 0)"/>
      <use xlink:href="#DejaVuSans-69" transform="translate(148.726562 0)"/>
      <use xlink:href="#DejaVuSans-6e" transform="translate(176.509766 0)"/>
      <use xlink:href="#DejaVuSans-69" transform="translate(239.888672 0)"/>
      <use xlink:href="#DejaVuSans-6e" transform="translate(267.671875 0)"/>
      <use xlink:href="#DejaVuSans-67" transform="translate(331.050781 0)"/>
      <use xlink:href="#DejaVuSans-20" transform="translate(394.527344 0)"/>
      <use xlink:href="#DejaVuSans-73" transform="translate(426.314453 0)"/>
      <use xlink:href="#DejaVuSans-74" transform="translate(478.414062 0)"/>
      <use xlink:href="#DejaVuSans-65" transform="translate(517.623047 0)"/>
      <use xlink:href="#DejaVuSans-70" transform="translate(579.146484 0)"/>
      <use xlink:href="#DejaVuSans-73" transform="translate(642.623047 0)"/>
     </g>
    </g>
   </g>
   <g id="matplotlib.axis_2">
    <g id="ytick_1">
     <g id="line2d_6">
      <defs>
       <path id="m0eea398c59" d="M 0 0 
L -3.5 0 
" style="stroke: #000000; stroke-width: 0.8"/>
      </defs>
      <g>
       <use xlink:href="#m0eea398c59" x="72" y="281.573128" style="stroke: #000000; stroke-width: 0.8"/>
      </g>
     </g>
     <g id="text_7">
      <!-- 0.4 -->
      <g transform="translate(49.096875 285.372347) scale(0.1 -0.1)">
       <defs>
        <path id="DejaVuSans-2e" d="M 684 794 
L 1344 794 
L 1344 0 
L 684 0 
L 684 794 
z
" transform="scale(0.015625)"/>
       </defs>
       <use xlink:href="#DejaVuSans-30"/>
       <use xlink:href="#DejaVuSans-2e" transform="translate(63.623047 0)"/>
       <use xlink:href="#DejaVuSans-34" transform="translate(95.410156 0)"/>
      </g>
     </g>
    </g>
    <g id="ytick_2">
     <g id="line2d_7">
      <g>
       <use xlink:href="#m0eea398c59" x="72" y="235.317621" style="stroke: #000000; stroke-width: 0.8"/>
      </g>
     </g>
     <g id="text_8">
      <!-- 0.5 -->
      <g transform="translate(49.096875 239.11684) scale(0.1 -0.1)">
       <defs>
        <path id="DejaVuSans-35" d="M 691 4666 
L 3169 4666 
L 3169 4134 
L 1269 4134 
L 1269 2991 
Q 1406 3038 1543 3061 
Q 1681 3084 1819 3084 
Q 2600 3084 3056 2656 
Q 3513 2228 3513 1497 
Q 3513 744 3044 326 
Q 2575 -91 1722 -91 
Q 1428 -91 1123 -41 
Q 819 9 494 109 
L 494 744 
Q 775 591 1075 516 
Q 1375 441 1709 441 
Q 2250 441 2565 725 
Q 2881 1009 2881 1497 
Q 2881 1984 2565 2268 
Q 2250 2553 1709 2553 
Q 1456 2553 1204 2497 
Q 953 2441 691 2322 
L 691 4666 
z
" transform="scale(0.015625)"/>
       </defs>
       <use xlink:href="#DejaVuSans-30"/>
       <use xlink:href="#DejaVuSans-2e" transform="translate(63.623047 0)"/>
       <use xlink:href="#DejaVuSans-35" transform="translate(95.410156 0)"/>
      </g>
     </g>
    </g>
    <g id="ytick_3">
     <g id="line2d_8">
      <g>
       <use xlink:href="#m0eea398c59" x="72" y="189.062115" style="stroke: #000000; stroke-width: 0.8"/>
      </g>
     </g>
     <g id="text_9">
      <!-- 0.6 -->
      <g transform="translate(49.096875 192.861333) scale(0.1 -0.1)">
       <use xlink:href="#DejaVuSans-30"/>
       <use xlink:href="#DejaVuSans-2e" transform="translate(63.623047 0)"/>
       <use xlink:href="#DejaVuSans-36" transform="translate(95.410156 0)"/>
      </g>
     </g>
    </g>
    <g id="ytick_4">
     <g id="line2d_9">
      <g>
       <use xlink:href="#m0eea398c59" x="72" y="142.806608" style="stroke: #000000; stroke-width: 0.8"/>
      </g>
     </g>
     <g id="text_10">
      <!-- 0.7 -->
      <g transform="translate(49.096875 146.605827) scale(0.1 -0.1)">
       <defs>
        <path id="DejaVuSans-37" d="M 525 4666 
L 3525 4666 
L 3525 4397 
L 1831 0 
L 1172 0 
L 2766 4134 
L 525 4134 
L 525 4666 
z
" transform="scale(0.015625)"/>
       </defs>
       <use xlink:href="#DejaVuSans-30"/>
       <use xlink:href="#DejaVuSans-2e" transform="translate(63.623047 0)"/>
       <use xlink:href="#DejaVuSans-37" transform="translate(95.410156 0)"/>
      </g>
     </g>
    </g>
    <g id="ytick_5">
     <g id="line2d_10">
      <g>
       <use xlink:href="#m0eea398c59" x="72" y="96.551101" style="stroke: #000000; stroke-width: 0.8"/>
      </g>
     </g>
     <g id="text_11">
      <!-- 0.8 -->
      <g transform="translate(49.096875 100.35032) scale(0.1 -0.1)">
       <use xlink:href="#DejaVuSans-30"/>
       <use xlink:href="#DejaVuSans-2e" transform="translate(63.623047 0)"/>
       <use xlink:href="#DejaVuSans-38" transform="translate(95.410156 0)"/>
      </g>
     </g>
    </g>
    <g id="ytick_6">
     <g id="line2d_11">
      <g>
       <use xlink:href="#m0eea398c59" x="72" y="50.295595" style="stroke: #000000; stroke-width: 0.8"/>
      </g>
     </g>
     <g id="text_12">
      <!-- 0.9 -->
      <g transform="translate(49.096875 54.094813) scale(0.1 -0.1)">
       <defs>
        <path id="DejaVuSans-39" d="M 703 97 
L 703 672 
Q 941 559 1184 500 
Q 1428 441 1663 441 
Q 2288 441 2617 861 
Q 2947 1281 2994 2138 
Q 2813 1869 2534 1725 
Q 2256 1581 1919 1581 
Q 1219 1581 811 2004 
Q 403 2428 403 3163 
Q 403 3881 828 4315 
Q 1253 4750 1959 4750 
Q 2769 4750 3195 4129 
Q 3622 3509 3622 2328 
Q 3622 1225 3098 567 
Q 2575 -91 1691 -91 
Q 1453 -91 1209 -44 
Q 966 3 703 97 
z
M 1959 2075 
Q 2384 2075 2632 2365 
Q 2881 2656 2881 3163 
Q 2881 3666 2632 3958 
Q 2384 4250 1959 4250 
Q 1534 4250 1286 3958 
Q 1038 3666 1038 3163 
Q 1038 2656 1286 2365 
Q 1534 2075 1959 2075 
z
" transform="scale(0.015625)"/>
       </defs>
       <use xlink:href="#DejaVuSans-30"/>
       <use xlink:href="#DejaVuSans-2e" transform="translate(63.623047 0)"/>
       <use xlink:href="#DejaVuSans-39" transform="translate(95.410156 0)"/>
      </g>
     </g>
    </g>
    <g id="text_13">
     <!-- Loss -->
     <g transform="translate(43.017187 192.767187) rotate(-90) scale(0.1 -0.1)">
      <defs>
       <path id="DejaVuSans-4c" d="M 628 4666 
L 1259 4666 
L 1259 531 
L 3531 531 
L 3531 0 
L 628 0 
L 628 4666 
z
" transform="scale(0.015625)"/>
       <path id="DejaVuSans-6f" d="M 1959 3097 
Q 1497 3097 1228 2736 
Q 959 2375 959 1747 
Q 959 1119 1226 758 
Q 1494 397 1959 397 
Q 2419 397 2687 759 
Q 2956 1122 2956 1747 
Q 2956 2369 2687 2733 
Q 2419 3097 1959 3097 
z
M 1959 3584 
Q 2709 3584 3137 3096 
Q 3566 2609 3566 1747 
Q 3566 888 3137 398 
Q 2709 -91 1959 -91 
Q 1206 -91 779 398 
Q 353 888 353 1747 
Q 353 2609 779 3096 
Q 1206 3584 1959 3584 
z
" transform="scale(0.015625)"/>
      </defs>
      <use xlink:href="#DejaVuSans-4c"/>
      <use xlink:href="#DejaVuSans-6f" transform="translate(53.962891 0)"/>
      <use xlink:href="#DejaVuSans-73" transform="translate(115.144531 0)"/>
      <use xlink:href="#DejaVuSans-73" transform="translate(167.244141 0)"/>
     </g>
    </g>
   </g>
   <g id="line2d_12">
    <path d="M 72 109.64141 
L 76.509091 137.672247 
L 81.018182 143.870485 
L 85.527273 143.870485 
L 90.036364 162.557709 
L 94.545455 146.137004 
L 99.054545 148.819824 
L 103.563636 153.537885 
L 108.072727 152.15022 
L 112.581818 161.72511 
L 117.090909 162.002643 
L 121.6 158.302203 
L 126.109091 167.275771 
L 130.618182 161.863877 
L 135.127273 141.372687 
L 139.636364 152.196476 
L 144.145455 156.775771 
L 148.654545 161.72511 
L 153.163636 159.87489 
L 157.672727 163.57533 
L 162.181818 164.731718 
L 166.690909 169.496035 
L 171.2 171.438767 
L 175.709091 166.951982 
L 180.218182 156.359471 
L 184.727273 173.797797 
L 189.236364 173.242731 
L 193.745455 182.308811 
L 198.254545 171.114978 
L 202.763636 183.326432 
L 207.272727 166.951982 
L 211.781818 175.601762 
L 216.290909 161.355066 
L 220.8 166.951982 
L 225.309091 163.205286 
L 229.818182 169.773568 
L 234.327273 177.960793 
L 238.836364 169.912335 
L 243.345455 170.8837 
L 247.854545 175.046696 
L 252.363636 175.324229 
L 256.872727 177.220705 
L 261.381818 173.196476 
L 265.890909 177.451982 
L 270.4 195.07533 
L 274.909091 164.777974 
L 279.418182 171.531278 
L 283.927273 177.729515 
L 288.436364 176.804405 
L 292.945455 175.092952 
L 297.454545 179.348458 
L 301.963636 176.943172 
L 306.472727 174.537885 
L 310.981818 174.214097 
L 315.490909 187.489427 
L 320 188.69207 
L 324.509091 183.418943 
L 329.018182 181.3837 
L 333.527273 180.45859 
L 338.036364 181.8 
L 342.545455 182.493833 
L 347.054545 183.835242 
L 351.563636 190.912335 
L 356.072727 185.639207 
L 360.581818 189.570925 
L 365.090909 168.940969 
L 369.6 179.348458 
L 374.109091 178.793392 
L 378.618182 182.678855 
L 383.127273 174.584141 
L 387.636364 185.361674 
L 392.145455 183.603965 
L 396.654545 190.496035 
L 401.163636 169.912335 
L 405.672727 179.94978 
L 410.181818 186.749339 
L 414.690909 191.791189 
L 419.2 188.090749 
L 423.709091 177.498238 
L 428.218182 187.396916 
L 432.727273 188.090749 
L 437.236364 185.777974 
L 441.745455 190.634802 
L 446.254545 194.288987 
L 450.763636 196.324229 
L 455.272727 191.837445 
L 459.781818 193.780176 
L 464.290909 202.106167 
L 468.8 187.581938 
L 473.309091 203.72511 
L 477.818182 204.742731 
L 482.327273 203.540088 
L 486.836364 179.440969 
L 491.345455 193.548899 
L 495.854545 193.548899 
L 500.363636 189.894714 
L 504.872727 199.978414 
L 509.381818 189.802203 
L 513.890909 188.69207 
L 518.4 208.443172 
" clip-path="url(#p7596f23db3)" style="fill: none; stroke: #1f77b4; stroke-width: 1.5; stroke-linecap: square"/>
   </g>
   <g id="line2d_13">
    <path d="M 72 66.485022 
L 76.509091 110.705286 
L 81.018182 138.181057 
L 85.527273 143.315419 
L 90.036364 168.015859 
L 94.545455 149.421145 
L 99.054545 143.91674 
L 103.563636 155.943172 
L 108.072727 141.280176 
L 112.581818 152.103965 
L 117.090909 141.465198 
L 121.6 146.460793 
L 126.109091 136.885903 
L 130.618182 144.009251 
L 135.127273 150.7163 
L 139.636364 155.388106 
L 144.145455 159.967401 
L 148.654545 143.454185 
L 153.163636 160.106167 
L 157.672727 153.306608 
L 162.181818 168.755947 
L 166.690909 167.137004 
L 171.2 158.302203 
L 175.709091 171.068722 
L 180.218182 157.469604 
L 184.727273 177.220705 
L 189.236364 161.632599 
L 193.745455 175.185463 
L 198.254545 168.339648 
L 202.763636 185.500441 
L 207.272727 158.070925 
L 211.781818 163.621586 
L 216.290909 150.623789 
L 220.8 164.176652 
L 225.309091 171.808811 
L 229.818182 160.614978 
L 234.327273 182.401322 
L 238.836364 171.022467 
L 243.345455 164.870485 
L 247.854545 170.189868 
L 252.363636 175.41674 
L 256.872727 179.857269 
L 261.381818 183.233921 
L 265.890909 171.531278 
L 270.4 172.363877 
L 274.909091 178.562115 
L 279.418182 169.264758 
L 283.927273 176.896916 
L 288.436364 172.178855 
L 292.945455 168.062115 
L 297.454545 170.513656 
L 301.963636 179.163436 
L 306.472727 174.769163 
L 310.981818 176.711894 
L 315.490909 183.465198 
L 320 182.2163 
L 324.509091 187.443172 
L 329.018182 172.965198 
L 333.527273 173.011454 
L 338.036364 175.971806 
L 342.545455 183.881498 
L 347.054545 188.969604 
L 351.563636 178.562115 
L 356.072727 175.786784 
L 360.581818 183.095154 
L 365.090909 163.159031 
L 369.6 184.251542 
L 374.109091 180.921145 
L 378.618182 174.815419 
L 383.127273 177.174449 
L 387.636364 188.460793 
L 392.145455 182.077533 
L 396.654545 194.381498 
L 401.163636 185.269163 
L 405.672727 186.84185 
L 410.181818 200.440969 
L 414.690909 189.247137 
L 419.2 188.368282 
L 423.709091 175.648018 
L 428.218182 193.872687 
L 432.727273 199.238326 
L 437.236364 188.044493 
L 441.745455 197.989427 
L 446.254545 197.480617 
L 450.763636 195.676652 
L 455.272727 177.498238 
L 459.781818 204.927753 
L 464.290909 195.769163 
L 468.8 182.170044 
L 473.309091 204.788987 
L 477.818182 191.236123 
L 482.327273 191.652423 
L 486.836364 200.672247 
L 491.345455 212.698678 
L 495.854545 185.962996 
L 500.363636 192.670044 
L 504.872727 201.181057 
L 509.381818 193.64141 
L 513.890909 202.522467 
L 518.4 213.947577 
" clip-path="url(#p7596f23db3)" style="fill: none; stroke: #ff7f0e; stroke-width: 1.5; stroke-linecap: square"/>
   </g>
   <g id="line2d_14">
    <path d="M 72 162.002643 
L 76.509091 170.421145 
L 81.018182 197.619383 
L 85.527273 180.366079 
L 90.036364 205.159031 
L 94.545455 200.394714 
L 99.054545 195.306608 
L 103.563636 206.500441 
L 108.072727 179.764758 
L 112.581818 202.152423 
L 117.090909 202.938767 
L 121.6 200.394714 
L 126.109091 216.584141 
L 130.618182 196.740529 
L 135.127273 203.2163 
L 139.636364 180.504846 
L 144.145455 198.637004 
L 148.654545 198.405727 
L 153.163636 192.114978 
L 157.672727 199.284581 
L 162.181818 215.844053 
L 166.690909 205.436564 
L 171.2 223.707489 
L 175.709091 205.621586 
L 180.218182 196.462996 
L 184.727273 214.965198 
L 189.236364 216.214097 
L 193.745455 223.985022 
L 198.254545 212.976211 
L 202.763636 219.590749 
L 207.272727 211.727313 
L 211.781818 223.985022 
L 216.290909 197.295595 
L 220.8 203.678855 
L 225.309091 199.469604 
L 229.818182 200.209692 
L 234.327273 206.824229 
L 238.836364 209.090749 
L 243.345455 211.44978 
L 247.854545 216.029075 
L 252.363636 227.870485 
L 256.872727 214.595154 
L 261.381818 213.022467 
L 265.890909 215.936564 
L 270.4 217.370485 
L 274.909091 218.619383 
L 279.418182 224.447577 
L 283.927273 226.06652 
L 288.436364 222.366079 
L 292.945455 221.996035 
L 297.454545 218.896916 
L 301.963636 235.918943 
L 306.472727 211.634802 
L 310.981818 223.661233 
L 315.490909 237.167841 
L 320 234.855066 
L 324.509091 231.709692 
L 329.018182 216.815419 
L 333.527273 215.520264 
L 338.036364 224.447577 
L 342.545455 238.694273 
L 347.054545 226.529075 
L 351.563636 226.159031 
L 356.072727 228.795595 
L 360.581818 239.943172 
L 365.090909 216.584141 
L 369.6 234.670044 
L 374.109091 220.330837 
L 378.618182 226.159031 
L 383.127273 217.83304 
L 387.636364 231.385903 
L 392.145455 237.07533 
L 396.654545 251.229515 
L 401.163636 218.896916 
L 405.672727 222.45859 
L 410.181818 247.205286 
L 414.690909 240.590749 
L 419.2 233.559912 
L 423.709091 228.148018 
L 428.218182 250.026872 
L 432.727273 225.14141 
L 437.236364 241.099559 
L 441.745455 238.000441 
L 446.254545 232.542291 
L 450.763636 236.15022 
L 455.272727 223.106167 
L 459.781818 240.174449 
L 464.290909 261.775771 
L 468.8 236.612775 
L 473.309091 246.65022 
L 477.818182 255.022467 
L 482.327273 243.088546 
L 486.836364 234.253744 
L 491.345455 253.727313 
L 495.854545 242.996035 
L 500.363636 246.742731 
L 504.872727 231.755947 
L 509.381818 243.134802 
L 513.890909 243.412335 
L 518.4 261.822026 
" clip-path="url(#p7596f23db3)" style="fill: none; stroke: #2ca02c; stroke-width: 1.5; stroke-linecap: square"/>
   </g>
   <g id="line2d_15">
    <path d="M 72 55.8 
L 76.509091 149.791189 
L 81.018182 183.418943 
L 85.527273 149.143612 
L 90.036364 181.522467 
L 94.545455 175.509251 
L 99.054545 170.467401 
L 103.563636 160.476211 
L 108.072727 173.612775 
L 112.581818 165.749339 
L 117.090909 175.185463 
L 121.6 169.681057 
L 126.109091 178.700881 
L 130.618182 173.474009 
L 135.127273 174.49163 
L 139.636364 176.064317 
L 144.145455 175.694273 
L 148.654545 187.211894 
L 153.163636 168.247137 
L 157.672727 182.031278 
L 162.181818 203.355066 
L 166.690909 197.804405 
L 171.2 193.363877 
L 175.709091 189.617181 
L 180.218182 176.943172 
L 184.727273 202.3837 
L 189.236364 198.960793 
L 193.745455 201.504846 
L 198.254545 188.18326 
L 202.763636 208.119383 
L 207.272727 175.509251 
L 211.781818 196.83304 
L 216.290909 181.337445 
L 220.8 185.500441 
L 225.309091 191.976211 
L 229.818182 189.385903 
L 234.327273 202.244934 
L 238.836364 188.090749 
L 243.345455 196.694273 
L 247.854545 173.844053 
L 252.363636 207.194273 
L 256.872727 191.513656 
L 261.381818 196.462996 
L 265.890909 199.562115 
L 270.4 203.863877 
L 274.909091 195.90793 
L 279.418182 202.938767 
L 283.927273 198.26696 
L 288.436364 203.72511 
L 292.945455 202.892511 
L 297.454545 190.311013 
L 301.963636 204.048899 
L 306.472727 195.861674 
L 310.981818 207.795595 
L 315.490909 216.954185 
L 320 216.07533 
L 324.509091 217.925551 
L 329.018182 209.553304 
L 333.527273 211.311013 
L 338.036364 208.951982 
L 342.545455 219.128194 
L 347.054545 219.313216 
L 351.563636 220.284581 
L 356.072727 217.092952 
L 360.581818 227.315419 
L 365.090909 218.896916 
L 369.6 220.423348 
L 374.109091 207.055507 
L 378.618182 221.53348 
L 383.127273 208.119383 
L 387.636364 224.447577 
L 392.145455 228.33304 
L 396.654545 222.319824 
L 401.163636 213.531278 
L 405.672727 208.165639 
L 410.181818 247.806608 
L 414.690909 228.379295 
L 419.2 220.19207 
L 423.709091 223.291189 
L 428.218182 238.971806 
L 432.727273 230.599559 
L 437.236364 242.672247 
L 441.745455 240.68326 
L 446.254545 229.859471 
L 450.763636 240.637004 
L 455.272727 228.518062 
L 459.781818 238.000441 
L 464.290909 260.295595 
L 468.8 235.132599 
L 473.309091 244.614978 
L 477.818182 251.969604 
L 482.327273 246.881498 
L 486.836364 247.205286 
L 491.345455 251.044493 
L 495.854545 236.474009 
L 500.363636 254.051101 
L 504.872727 238.139207 
L 509.381818 245.678855 
L 513.890909 239.711894 
L 518.4 271.951982 
" clip-path="url(#p7596f23db3)" style="fill: none; stroke: #d62728; stroke-width: 1.5; stroke-linecap: square"/>
   </g>
   <g id="line2d_16">
    <path d="M 72 155.249339 
L 76.509091 166.073128 
L 81.018182 188.368282 
L 85.527273 195.306608 
L 90.036364 213.901322 
L 94.545455 209.923348 
L 99.054545 203.170044 
L 103.563636 211.218502 
L 108.072727 200.487225 
L 112.581818 218.064317 
L 117.090909 204.187665 
L 121.6 197.110573 
L 126.109091 217.324229 
L 130.618182 215.751542 
L 135.127273 214.965198 
L 139.636364 215.011454 
L 144.145455 207.703084 
L 148.654545 217.370485 
L 153.163636 198.174449 
L 157.672727 212.513656 
L 162.181818 234.207489 
L 166.690909 208.25815 
L 171.2 228.656828 
L 175.709091 220.515859 
L 180.218182 210.663436 
L 184.727273 237.306608 
L 189.236364 234.901322 
L 193.745455 237.121586 
L 198.254545 232.912335 
L 202.763636 242.53348 
L 207.272727 225.372687 
L 211.781818 232.912335 
L 216.290909 225.187665 
L 220.8 224.72511 
L 225.309091 216.954185 
L 229.818182 219.081938 
L 234.327273 231.848458 
L 238.836364 226.205286 
L 243.345455 230.322026 
L 247.854545 226.899119 
L 252.363636 245.123789 
L 256.872727 219.26696 
L 261.381818 226.344053 
L 265.890909 225.696476 
L 270.4 229.998238 
L 274.909091 225.002643 
L 279.418182 233.004846 
L 283.927273 242.302203 
L 288.436364 232.403524 
L 292.945455 249.009251 
L 297.454545 241.469604 
L 301.963636 251.599559 
L 306.472727 223.429956 
L 310.981818 247.390308 
L 315.490909 259.694273 
L 320 260.850661 
L 324.509091 245.678855 
L 329.018182 235.456388 
L 333.527273 246.187665 
L 338.036364 248.731718 
L 342.545455 267.187665 
L 347.054545 241.978414 
L 351.563636 252.247137 
L 356.072727 245.817621 
L 360.581818 258.537885 
L 365.090909 239.989427 
L 369.6 251.830837 
L 374.109091 234.7163 
L 378.618182 248.269163 
L 383.127273 239.75815 
L 387.636364 254.837445 
L 392.145455 258.49163 
L 396.654545 265.938767 
L 401.163636 239.75815 
L 405.672727 253.079736 
L 410.181818 272.738326 
L 414.690909 276.392511 
L 419.2 261.868282 
L 423.709091 266.123789 
L 428.218182 291.194273 
L 432.727273 260.619383 
L 437.236364 276.901322 
L 441.745455 268.06652 
L 446.254545 267.280176 
L 450.763636 257.381498 
L 455.272727 264.319824 
L 459.781818 261.775771 
L 464.290909 280.971806 
L 468.8 268.251542 
L 473.309091 289.899119 
L 477.818182 281.156828 
L 482.327273 274.681057 
L 486.836364 275.421145 
L 491.345455 281.34185 
L 495.854545 279.445374 
L 500.363636 275.929956 
L 504.872727 273.802203 
L 509.381818 265.3837 
L 513.890909 277.363877 
L 518.4 307.8 
" clip-path="url(#p7596f23db3)" style="fill: none; stroke: #9467bd; stroke-width: 1.5; stroke-linecap: square"/>
   </g>
   <g id="line2d_17">
    <path d="M 72 169.44978 
L 76.509091 173.751542 
L 81.018182 187.76696 
L 85.527273 191.328634 
L 90.036364 208.581938 
L 94.545455 203.447577 
L 99.054545 206.176652 
L 103.563636 215.381498 
L 108.072727 189.570925 
L 112.581818 208.951982 
L 117.090909 209.275771 
L 121.6 204.696476 
L 126.109091 216.954185 
L 130.618182 208.350661 
L 135.127273 211.634802 
L 139.636364 210.015859 
L 144.145455 213.670044 
L 148.654545 213.114978 
L 153.163636 195.537885 
L 157.672727 209.044493 
L 162.181818 223.938767 
L 166.690909 217.509251 
L 171.2 226.251542 
L 175.709091 217.092952 
L 180.218182 199.885903 
L 184.727273 225.372687 
L 189.236364 230.18326 
L 193.745455 227.361674 
L 198.254545 218.388106 
L 202.763636 237.49163 
L 207.272727 218.434361 
L 211.781818 224.401322 
L 216.290909 210.52467 
L 220.8 215.011454 
L 225.309091 208.443172 
L 229.818182 209.969604 
L 234.327273 226.112775 
L 238.836364 221.625991 
L 243.345455 208.76696 
L 247.854545 220.423348 
L 252.363636 233.976211 
L 256.872727 217.000441 
L 261.381818 218.388106 
L 265.890909 221.53348 
L 270.4 217.740529 
L 274.909091 220.60837 
L 279.418182 224.771366 
L 283.927273 214.456388 
L 288.436364 214.687665 
L 292.945455 230.368282 
L 297.454545 221.255947 
L 301.963636 232.542291 
L 306.472727 218.989427 
L 310.981818 226.344053 
L 315.490909 241.238326 
L 320 252.015859 
L 324.509091 238.000441 
L 329.018182 218.480617 
L 333.527273 225.280176 
L 338.036364 238.83304 
L 342.545455 252.293392 
L 347.054545 237.676652 
L 351.563636 242.117181 
L 356.072727 235.086344 
L 360.581818 240.220705 
L 365.090909 227.870485 
L 369.6 243.273568 
L 374.109091 226.482819 
L 378.618182 235.410132 
L 383.127273 230.69207 
L 387.636364 236.520264 
L 392.145455 256.086344 
L 396.654545 261.68326 
L 401.163636 237.07533 
L 405.672727 233.328634 
L 410.181818 263.209692 
L 414.690909 249.564317 
L 419.2 243.412335 
L 423.709091 246.557709 
L 428.218182 258.584141 
L 432.727273 248.40793 
L 437.236364 257.982819 
L 441.745455 254.929956 
L 446.254545 252.247137 
L 450.763636 253.681057 
L 455.272727 243.366079 
L 459.781818 253.218502 
L 464.290909 273.200881 
L 468.8 247.99163 
L 473.309091 260.295595 
L 477.818182 264.319824 
L 482.327273 259.879295 
L 486.836364 254.051101 
L 491.345455 262.377093 
L 495.854545 248.870485 
L 500.363636 260.110573 
L 504.872727 258.167841 
L 509.381818 246.881498 
L 513.890909 260.75815 
L 518.4 266.817621 
" clip-path="url(#p7596f23db3)" style="fill: none; stroke: #8c564b; stroke-width: 1.5; stroke-linecap: square"/>
   </g>
   <g id="line2d_18">
    <path d="M 72 161.401322 
L 76.509091 151.456388 
L 81.018182 184.112775 
L 85.527273 194.797797 
L 90.036364 189.200881 
L 94.545455 196.879295 
L 99.054545 194.797797 
L 103.563636 180.45859 
L 108.072727 187.073128 
L 112.581818 192.161233 
L 117.090909 180.689868 
L 121.6 176.480617 
L 126.109091 191.929956 
L 130.618182 184.251542 
L 135.127273 185.222907 
L 139.636364 192.346256 
L 144.145455 193.317621 
L 148.654545 193.733921 
L 153.163636 176.619383 
L 157.672727 195.537885 
L 162.181818 217.231718 
L 166.690909 194.520264 
L 171.2 205.020264 
L 175.709091 194.982819 
L 180.218182 174.029075 
L 184.727273 210.663436 
L 189.236364 212.929956 
L 193.745455 219.868282 
L 198.254545 205.390308 
L 202.763636 218.434361 
L 207.272727 191.929956 
L 211.781818 212.8837 
L 216.290909 196.324229 
L 220.8 203.031278 
L 225.309091 196.83304 
L 229.818182 203.355066 
L 234.327273 199.839648 
L 238.836364 190.727313 
L 243.345455 204.603965 
L 247.854545 194.103965 
L 252.363636 210.755947 
L 256.872727 197.619383 
L 261.381818 198.313216 
L 265.890909 205.899119 
L 270.4 204.927753 
L 274.909091 204.326432 
L 279.418182 209.877093 
L 283.927273 217.41674 
L 288.436364 223.707489 
L 292.945455 220.469604 
L 297.454545 219.035683 
L 301.963636 239.110573 
L 306.472727 199.700881 
L 310.981818 227.315419 
L 315.490909 232.95859 
L 320 240.26696 
L 324.509091 234.3 
L 329.018182 217.83304 
L 333.527273 225.974009 
L 338.036364 230.322026 
L 342.545455 240.775771 
L 347.054545 224.355066 
L 351.563636 244.707489 
L 356.072727 227.40793 
L 360.581818 238.139207 
L 365.090909 238.324229 
L 369.6 227.546696 
L 374.109091 222.181057 
L 378.618182 236.751542 
L 383.127273 222.921145 
L 387.636364 232.079736 
L 392.145455 248.130396 
L 396.654545 243.227313 
L 401.163636 235.363877 
L 405.672727 237.306608 
L 410.181818 266.586344 
L 414.690909 258.214097 
L 419.2 242.764758 
L 423.709091 254.744934 
L 428.218182 267.696476 
L 432.727273 251.599559 
L 437.236364 272.275771 
L 441.745455 259.601762 
L 446.254545 257.011454 
L 450.763636 273.940969 
L 455.272727 243.689868 
L 459.781818 250.535683 
L 464.290909 281.110573 
L 468.8 260.203084 
L 473.309091 274.403524 
L 477.818182 284.070925 
L 482.327273 264.87489 
L 486.836364 272.137004 
L 491.345455 273.339648 
L 495.854545 257.659031 
L 500.363636 273.940969 
L 504.872727 273.940969 
L 509.381818 263.302203 
L 513.890909 277.548899 
L 518.4 298.178855 
" clip-path="url(#p7596f23db3)" style="fill: none; stroke: #e377c2; stroke-width: 1.5; stroke-linecap: square"/>
   </g>
   <g id="line2d_19">
    <path d="M 72 143.500441 
L 76.509091 153.260352 
L 81.018182 184.529075 
L 85.527273 186.934361 
L 90.036364 203.401322 
L 94.545455 214.363877 
L 99.054545 198.498238 
L 103.563636 200.94978 
L 108.072727 204.418943 
L 112.581818 209.044493 
L 117.090909 209.368282 
L 121.6 193.965198 
L 126.109091 210.570925 
L 130.618182 188.507048 
L 135.127273 180.643612 
L 139.636364 186.518062 
L 144.145455 210.802203 
L 148.654545 209.645815 
L 153.163636 197.989427 
L 157.672727 210.802203 
L 162.181818 229.073128 
L 166.690909 220.099559 
L 171.2 228.84185 
L 175.709091 211.542291 
L 180.218182 208.76696 
L 184.727273 229.720705 
L 189.236364 242.857269 
L 193.745455 231.293392 
L 198.254545 234.346256 
L 202.763636 240.451982 
L 207.272727 227.40793 
L 211.781818 231.432159 
L 216.290909 220.839648 
L 220.8 232.125991 
L 225.309091 217.694273 
L 229.818182 223.985022 
L 234.327273 227.130396 
L 238.836364 219.26696 
L 243.345455 223.3837 
L 247.854545 229.905727 
L 252.363636 242.02467 
L 256.872727 225.326432 
L 261.381818 228.564317 
L 265.890909 231.10837 
L 270.4 225.233921 
L 274.909091 233.189868 
L 279.418182 234.947577 
L 283.927273 231.015859 
L 288.436364 235.733921 
L 292.945455 236.381498 
L 297.454545 250.350661 
L 301.963636 255.993833 
L 306.472727 227.592952 
L 310.981818 249.101762 
L 315.490909 257.011454 
L 320 269.777974 
L 324.509091 250.628194 
L 329.018182 231.247137 
L 333.527273 245.632599 
L 338.036364 252.478414 
L 342.545455 269.037885 
L 347.054545 250.535683 
L 351.563636 252.940969 
L 356.072727 240.68326 
L 360.581818 259.555507 
L 365.090909 236.56652 
L 369.6 249.055507 
L 374.109091 241.099559 
L 378.618182 250.951982 
L 383.127273 240.313216 
L 387.636364 256.548899 
L 392.145455 259.185463 
L 396.654545 261.26696 
L 401.163636 246.927753 
L 405.672727 264.551101 
L 410.181818 276.901322 
L 414.690909 279.676652 
L 419.2 261.128194 
L 423.709091 274.866079 
L 428.218182 298.363877 
L 432.727273 273.339648 
L 437.236364 280.555507 
L 441.745455 273.200881 
L 446.254545 269.639207 
L 450.763636 280.000441 
L 455.272727 258.90793 
L 459.781818 280.41674 
L 464.290909 294.10837 
L 468.8 269.222907 
L 473.309091 296.467401 
L 477.818182 292.998238 
L 482.327273 272.18326 
L 486.836364 293.044493 
L 491.345455 289.667841 
L 495.854545 282.960793 
L 500.363636 290.222907 
L 504.872727 275.606167 
L 509.381818 271.951982 
L 513.890909 270.703084 
L 518.4 299.982819 
" clip-path="url(#p7596f23db3)" style="fill: none; stroke: #7f7f7f; stroke-width: 1.5; stroke-linecap: square"/>
   </g>
   <g id="patch_3">
    <path d="M 72 320.4 
L 72 43.2 
" style="fill: none; stroke: #000000; stroke-width: 0.8; stroke-linejoin: miter; stroke-linecap: square"/>
   </g>
   <g id="patch_4">
    <path d="M 518.4 320.4 
L 518.4 43.2 
" style="fill: none; stroke: #000000; stroke-width: 0.8; stroke-linejoin: miter; stroke-linecap: square"/>
   </g>
   <g id="patch_5">
    <path d="M 72 320.4 
L 518.4 320.4 
" style="fill: none; stroke: #000000; stroke-width: 0.8; stroke-linejoin: miter; stroke-linecap: square"/>
   </g>
   <g id="patch_6">
    <path d="M 72 43.2 
L 518.4 43.2 
" style="fill: none; stroke: #000000; stroke-width: 0.8; stroke-linejoin: miter; stroke-linecap: square"/>
   </g>
   <g id="text_14">
    <!-- Enhancers (human cohn) -->
    <g transform="translate(219.741562 37.2) scale(0.12 -0.12)">
     <defs>
      <path id="DejaVuSans-45" d="M 628 4666 
L 3578 4666 
L 3578 4134 
L 1259 4134 
L 1259 2753 
L 3481 2753 
L 3481 2222 
L 1259 2222 
L 1259 531 
L 3634 531 
L 3634 0 
L 628 0 
L 628 4666 
z
" transform="scale(0.015625)"/>
      <path id="DejaVuSans-68" d="M 3513 2113 
L 3513 0 
L 2938 0 
L 2938 2094 
Q 2938 2591 2744 2837 
Q 2550 3084 2163 3084 
Q 1697 3084 1428 2787 
Q 1159 2491 1159 1978 
L 1159 0 
L 581 0 
L 581 4863 
L 1159 4863 
L 1159 2956 
Q 1366 3272 1645 3428 
Q 1925 3584 2291 3584 
Q 2894 3584 3203 3211 
Q 3513 2838 3513 2113 
z
" transform="scale(0.015625)"/>
      <path id="DejaVuSans-63" d="M 3122 3366 
L 3122 2828 
Q 2878 2963 2633 3030 
Q 2388 3097 2138 3097 
Q 1578 3097 1268 2742 
Q 959 2388 959 1747 
Q 959 1106 1268 751 
Q 1578 397 2138 397 
Q 2388 397 2633 464 
Q 2878 531 3122 666 
L 3122 134 
Q 2881 22 2623 -34 
Q 2366 -91 2075 -91 
Q 1284 -91 818 406 
Q 353 903 353 1747 
Q 353 2603 823 3093 
Q 1294 3584 2113 3584 
Q 2378 3584 2631 3529 
Q 2884 3475 3122 3366 
z
" transform="scale(0.015625)"/>
      <path id="DejaVuSans-28" d="M 1984 4856 
Q 1566 4138 1362 3434 
Q 1159 2731 1159 2009 
Q 1159 1288 1364 580 
Q 1569 -128 1984 -844 
L 1484 -844 
Q 1016 -109 783 600 
Q 550 1309 550 2009 
Q 550 2706 781 3412 
Q 1013 4119 1484 4856 
L 1984 4856 
z
" transform="scale(0.015625)"/>
      <path id="DejaVuSans-75" d="M 544 1381 
L 544 3500 
L 1119 3500 
L 1119 1403 
Q 1119 906 1312 657 
Q 1506 409 1894 409 
Q 2359 409 2629 706 
Q 2900 1003 2900 1516 
L 2900 3500 
L 3475 3500 
L 3475 0 
L 2900 0 
L 2900 538 
Q 2691 219 2414 64 
Q 2138 -91 1772 -91 
Q 1169 -91 856 284 
Q 544 659 544 1381 
z
M 1991 3584 
L 1991 3584 
z
" transform="scale(0.015625)"/>
      <path id="DejaVuSans-6d" d="M 3328 2828 
Q 3544 3216 3844 3400 
Q 4144 3584 4550 3584 
Q 5097 3584 5394 3201 
Q 5691 2819 5691 2113 
L 5691 0 
L 5113 0 
L 5113 2094 
Q 5113 2597 4934 2840 
Q 4756 3084 4391 3084 
Q 3944 3084 3684 2787 
Q 3425 2491 3425 1978 
L 3425 0 
L 2847 0 
L 2847 2094 
Q 2847 2600 2669 2842 
Q 2491 3084 2119 3084 
Q 1678 3084 1418 2786 
Q 1159 2488 1159 1978 
L 1159 0 
L 581 0 
L 581 3500 
L 1159 3500 
L 1159 2956 
Q 1356 3278 1631 3431 
Q 1906 3584 2284 3584 
Q 2666 3584 2933 3390 
Q 3200 3197 3328 2828 
z
" transform="scale(0.015625)"/>
      <path id="DejaVuSans-29" d="M 513 4856 
L 1013 4856 
Q 1481 4119 1714 3412 
Q 1947 2706 1947 2009 
Q 1947 1309 1714 600 
Q 1481 -109 1013 -844 
L 513 -844 
Q 928 -128 1133 580 
Q 1338 1288 1338 2009 
Q 1338 2731 1133 3434 
Q 928 4138 513 4856 
z
" transform="scale(0.015625)"/>
     </defs>
     <use xlink:href="#DejaVuSans-45"/>
     <use xlink:href="#DejaVuSans-6e" transform="translate(63.183594 0)"/>
     <use xlink:href="#DejaVuSans-68" transform="translate(126.5625 0)"/>
     <use xlink:href="#DejaVuSans-61" transform="translate(189.941406 0)"/>
     <use xlink:href="#DejaVuSans-6e" transform="translate(251.220703 0)"/>
     <use xlink:href="#DejaVuSans-63" transform="translate(314.599609 0)"/>
     <use xlink:href="#DejaVuSans-65" transform="translate(369.580078 0)"/>
     <use xlink:href="#DejaVuSans-72" transform="translate(431.103516 0)"/>
     <use xlink:href="#DejaVuSans-73" transform="translate(472.216797 0)"/>
     <use xlink:href="#DejaVuSans-20" transform="translate(524.316406 0)"/>
     <use xlink:href="#DejaVuSans-28" transform="translate(556.103516 0)"/>
     <use xlink:href="#DejaVuSans-68" transform="translate(595.117188 0)"/>
     <use xlink:href="#DejaVuSans-75" transform="translate(658.496094 0)"/>
     <use xlink:href="#DejaVuSans-6d" transform="translate(721.875 0)"/>
     <use xlink:href="#DejaVuSans-61" transform="translate(819.287109 0)"/>
     <use xlink:href="#DejaVuSans-6e" transform="translate(880.566406 0)"/>
     <use xlink:href="#DejaVuSans-20" transform="translate(943.945312 0)"/>
     <use xlink:href="#DejaVuSans-63" transform="translate(975.732422 0)"/>
     <use xlink:href="#DejaVuSans-6f" transform="translate(1030.712891 0)"/>
     <use xlink:href="#DejaVuSans-68" transform="translate(1091.894531 0)"/>
     <use xlink:href="#DejaVuSans-6e" transform="translate(1155.273438 0)"/>
     <use xlink:href="#DejaVuSans-29" transform="translate(1218.652344 0)"/>
    </g>
   </g>
   <g id="legend_1">
    <g id="patch_7">
     <path d="M 334.210684 147.679025 
L 512.569 147.679025 
Q 514.235 147.679025 514.235 146.013025 
L 514.235 49.031 
Q 514.235 47.365 512.569 47.365 
L 334.210684 47.365 
Q 332.544684 47.365 332.544684 49.031 
L 332.544684 146.013025 
Q 332.544684 147.679025 334.210684 147.679025 
z
" style="fill: #ffffff; opacity: 0.8; stroke: #cccccc; stroke-linejoin: miter"/>
    </g>
    <g id="line2d_20">
     <path d="M 335.876684 54.110998 
L 344.206684 54.110998 
L 352.536684 54.110998 
" style="fill: none; stroke: #1f77b4; stroke-width: 1.5; stroke-linecap: square"/>
    </g>
    <g id="text_15">
     <!-- NT-MS V2 (50M) with rand. weights -->
     <g transform="translate(359.200684 57.026498) scale(0.0833 -0.0833)">
      <defs>
       <path id="DejaVuSans-4e" d="M 628 4666 
L 1478 4666 
L 3547 763 
L 3547 4666 
L 4159 4666 
L 4159 0 
L 3309 0 
L 1241 3903 
L 1241 0 
L 628 0 
L 628 4666 
z
" transform="scale(0.015625)"/>
       <path id="DejaVuSans-2d" d="M 313 2009 
L 1997 2009 
L 1997 1497 
L 313 1497 
L 313 2009 
z
" transform="scale(0.015625)"/>
       <path id="DejaVuSans-4d" d="M 628 4666 
L 1569 4666 
L 2759 1491 
L 3956 4666 
L 4897 4666 
L 4897 0 
L 4281 0 
L 4281 4097 
L 3078 897 
L 2444 897 
L 1241 4097 
L 1241 0 
L 628 0 
L 628 4666 
z
" transform="scale(0.015625)"/>
       <path id="DejaVuSans-53" d="M 3425 4513 
L 3425 3897 
Q 3066 4069 2747 4153 
Q 2428 4238 2131 4238 
Q 1616 4238 1336 4038 
Q 1056 3838 1056 3469 
Q 1056 3159 1242 3001 
Q 1428 2844 1947 2747 
L 2328 2669 
Q 3034 2534 3370 2195 
Q 3706 1856 3706 1288 
Q 3706 609 3251 259 
Q 2797 -91 1919 -91 
Q 1588 -91 1214 -16 
Q 841 59 441 206 
L 441 856 
Q 825 641 1194 531 
Q 1563 422 1919 422 
Q 2459 422 2753 634 
Q 3047 847 3047 1241 
Q 3047 1584 2836 1778 
Q 2625 1972 2144 2069 
L 1759 2144 
Q 1053 2284 737 2584 
Q 422 2884 422 3419 
Q 422 4038 858 4394 
Q 1294 4750 2059 4750 
Q 2388 4750 2728 4690 
Q 3069 4631 3425 4513 
z
" transform="scale(0.015625)"/>
       <path id="DejaVuSans-56" d="M 1831 0 
L 50 4666 
L 709 4666 
L 2188 738 
L 3669 4666 
L 4325 4666 
L 2547 0 
L 1831 0 
z
" transform="scale(0.015625)"/>
       <path id="DejaVuSans-77" d="M 269 3500 
L 844 3500 
L 1563 769 
L 2278 3500 
L 2956 3500 
L 3675 769 
L 4391 3500 
L 4966 3500 
L 4050 0 
L 3372 0 
L 2619 2869 
L 1863 0 
L 1184 0 
L 269 3500 
z
" transform="scale(0.015625)"/>
       <path id="DejaVuSans-64" d="M 2906 2969 
L 2906 4863 
L 3481 4863 
L 3481 0 
L 2906 0 
L 2906 525 
Q 2725 213 2448 61 
Q 2172 -91 1784 -91 
Q 1150 -91 751 415 
Q 353 922 353 1747 
Q 353 2572 751 3078 
Q 1150 3584 1784 3584 
Q 2172 3584 2448 3432 
Q 2725 3281 2906 2969 
z
M 947 1747 
Q 947 1113 1208 752 
Q 1469 391 1925 391 
Q 2381 391 2643 752 
Q 2906 1113 2906 1747 
Q 2906 2381 2643 2742 
Q 2381 3103 1925 3103 
Q 1469 3103 1208 2742 
Q 947 2381 947 1747 
z
" transform="scale(0.015625)"/>
      </defs>
      <use xlink:href="#DejaVuSans-4e"/>
      <use xlink:href="#DejaVuSans-54" transform="translate(74.804688 0)"/>
      <use xlink:href="#DejaVuSans-2d" transform="translate(126.763672 0)"/>
      <use xlink:href="#DejaVuSans-4d" transform="translate(162.847656 0)"/>
      <use xlink:href="#DejaVuSans-53" transform="translate(249.126953 0)"/>
      <use xlink:href="#DejaVuSans-20" transform="translate(312.603516 0)"/>
      <use xlink:href="#DejaVuSans-56" transform="translate(344.390625 0)"/>
      <use xlink:href="#DejaVuSans-32" transform="translate(412.798828 0)"/>
      <use xlink:href="#DejaVuSans-20" transform="translate(476.421875 0)"/>
      <use xlink:href="#DejaVuSans-28" transform="translate(508.208984 0)"/>
      <use xlink:href="#DejaVuSans-35" transform="translate(547.222656 0)"/>
      <use xlink:href="#DejaVuSans-30" transform="translate(610.845703 0)"/>
      <use xlink:href="#DejaVuSans-4d" transform="translate(674.46875 0)"/>
      <use xlink:href="#DejaVuSans-29" transform="translate(760.748047 0)"/>
      <use xlink:href="#DejaVuSans-20" transform="translate(799.761719 0)"/>
      <use xlink:href="#DejaVuSans-77" transform="translate(831.548828 0)"/>
      <use xlink:href="#DejaVuSans-69" transform="translate(913.335938 0)"/>
      <use xlink:href="#DejaVuSans-74" transform="translate(941.119141 0)"/>
      <use xlink:href="#DejaVuSans-68" transform="translate(980.328125 0)"/>
      <use xlink:href="#DejaVuSans-20" transform="translate(1043.707031 0)"/>
      <use xlink:href="#DejaVuSans-72" transform="translate(1075.494141 0)"/>
      <use xlink:href="#DejaVuSans-61" transform="translate(1116.607422 0)"/>
      <use xlink:href="#DejaVuSans-6e" transform="translate(1177.886719 0)"/>
      <use xlink:href="#DejaVuSans-64" transform="translate(1241.265625 0)"/>
      <use xlink:href="#DejaVuSans-2e" transform="translate(1304.742188 0)"/>
      <use xlink:href="#DejaVuSans-20" transform="translate(1336.529297 0)"/>
      <use xlink:href="#DejaVuSans-77" transform="translate(1368.316406 0)"/>
      <use xlink:href="#DejaVuSans-65" transform="translate(1450.103516 0)"/>
      <use xlink:href="#DejaVuSans-69" transform="translate(1511.626953 0)"/>
      <use xlink:href="#DejaVuSans-67" transform="translate(1539.410156 0)"/>
      <use xlink:href="#DejaVuSans-68" transform="translate(1602.886719 0)"/>
      <use xlink:href="#DejaVuSans-74" transform="translate(1666.265625 0)"/>
      <use xlink:href="#DejaVuSans-73" transform="translate(1705.474609 0)"/>
     </g>
    </g>
    <g id="line2d_21">
     <path d="M 335.876684 66.337877 
L 344.206684 66.337877 
L 352.536684 66.337877 
" style="fill: none; stroke: #ff7f0e; stroke-width: 1.5; stroke-linecap: square"/>
    </g>
    <g id="text_16">
     <!-- NT-MS V2 (500M) with rand. weights -->
     <g transform="translate(359.200684 69.253377) scale(0.0833 -0.0833)">
      <use xlink:href="#DejaVuSans-4e"/>
      <use xlink:href="#DejaVuSans-54" transform="translate(74.804688 0)"/>
      <use xlink:href="#DejaVuSans-2d" transform="translate(126.763672 0)"/>
      <use xlink:href="#DejaVuSans-4d" transform="translate(162.847656 0)"/>
      <use xlink:href="#DejaVuSans-53" transform="translate(249.126953 0)"/>
      <use xlink:href="#DejaVuSans-20" transform="translate(312.603516 0)"/>
      <use xlink:href="#DejaVuSans-56" transform="translate(344.390625 0)"/>
      <use xlink:href="#DejaVuSans-32" transform="translate(412.798828 0)"/>
      <use xlink:href="#DejaVuSans-20" transform="translate(476.421875 0)"/>
      <use xlink:href="#DejaVuSans-28" transform="translate(508.208984 0)"/>
      <use xlink:href="#DejaVuSans-35" transform="translate(547.222656 0)"/>
      <use xlink:href="#DejaVuSans-30" transform="translate(610.845703 0)"/>
      <use xlink:href="#DejaVuSans-30" transform="translate(674.46875 0)"/>
      <use xlink:href="#DejaVuSans-4d" transform="translate(738.091797 0)"/>
      <use xlink:href="#DejaVuSans-29" transform="translate(824.371094 0)"/>
      <use xlink:href="#DejaVuSans-20" transform="translate(863.384766 0)"/>
      <use xlink:href="#DejaVuSans-77" transform="translate(895.171875 0)"/>
      <use xlink:href="#DejaVuSans-69" transform="translate(976.958984 0)"/>
      <use xlink:href="#DejaVuSans-74" transform="translate(1004.742188 0)"/>
      <use xlink:href="#DejaVuSans-68" transform="translate(1043.951172 0)"/>
      <use xlink:href="#DejaVuSans-20" transform="translate(1107.330078 0)"/>
      <use xlink:href="#DejaVuSans-72" transform="translate(1139.117188 0)"/>
      <use xlink:href="#DejaVuSans-61" transform="translate(1180.230469 0)"/>
      <use xlink:href="#DejaVuSans-6e" transform="translate(1241.509766 0)"/>
      <use xlink:href="#DejaVuSans-64" transform="translate(1304.888672 0)"/>
      <use xlink:href="#DejaVuSans-2e" transform="translate(1368.365234 0)"/>
      <use xlink:href="#DejaVuSans-20" transform="translate(1400.152344 0)"/>
      <use xlink:href="#DejaVuSans-77" transform="translate(1431.939453 0)"/>
      <use xlink:href="#DejaVuSans-65" transform="translate(1513.726562 0)"/>
      <use xlink:href="#DejaVuSans-69" transform="translate(1575.25 0)"/>
      <use xlink:href="#DejaVuSans-67" transform="translate(1603.033203 0)"/>
      <use xlink:href="#DejaVuSans-68" transform="translate(1666.509766 0)"/>
      <use xlink:href="#DejaVuSans-74" transform="translate(1729.888672 0)"/>
      <use xlink:href="#DejaVuSans-73" transform="translate(1769.097656 0)"/>
     </g>
    </g>
    <g id="line2d_22">
     <path d="M 335.876684 78.564755 
L 344.206684 78.564755 
L 352.536684 78.564755 
" style="fill: none; stroke: #2ca02c; stroke-width: 1.5; stroke-linecap: square"/>
    </g>
    <g id="text_17">
     <!-- NT-MS V2 (50M) -->
     <g transform="translate(359.200684 81.480255) scale(0.0833 -0.0833)">
      <use xlink:href="#DejaVuSans-4e"/>
      <use xlink:href="#DejaVuSans-54" transform="translate(74.804688 0)"/>
      <use xlink:href="#DejaVuSans-2d" transform="translate(126.763672 0)"/>
      <use xlink:href="#DejaVuSans-4d" transform="translate(162.847656 0)"/>
      <use xlink:href="#DejaVuSans-53" transform="translate(249.126953 0)"/>
      <use xlink:href="#DejaVuSans-20" transform="translate(312.603516 0)"/>
      <use xlink:href="#DejaVuSans-56" transform="translate(344.390625 0)"/>
      <use xlink:href="#DejaVuSans-32" transform="translate(412.798828 0)"/>
      <use xlink:href="#DejaVuSans-20" transform="translate(476.421875 0)"/>
      <use xlink:href="#DejaVuSans-28" transform="translate(508.208984 0)"/>
      <use xlink:href="#DejaVuSans-35" transform="translate(547.222656 0)"/>
      <use xlink:href="#DejaVuSans-30" transform="translate(610.845703 0)"/>
      <use xlink:href="#DejaVuSans-4d" transform="translate(674.46875 0)"/>
      <use xlink:href="#DejaVuSans-29" transform="translate(760.748047 0)"/>
     </g>
    </g>
    <g id="line2d_23">
     <path d="M 335.876684 90.791633 
L 344.206684 90.791633 
L 352.536684 90.791633 
" style="fill: none; stroke: #d62728; stroke-width: 1.5; stroke-linecap: square"/>
    </g>
    <g id="text_18">
     <!-- NT-1000g (500M) -->
     <g transform="translate(359.200684 93.707133) scale(0.0833 -0.0833)">
      <use xlink:href="#DejaVuSans-4e"/>
      <use xlink:href="#DejaVuSans-54" transform="translate(74.804688 0)"/>
      <use xlink:href="#DejaVuSans-2d" transform="translate(126.763672 0)"/>
      <use xlink:href="#DejaVuSans-31" transform="translate(162.847656 0)"/>
      <use xlink:href="#DejaVuSans-30" transform="translate(226.470703 0)"/>
      <use xlink:href="#DejaVuSans-30" transform="translate(290.09375 0)"/>
      <use xlink:href="#DejaVuSans-30" transform="translate(353.716797 0)"/>
      <use xlink:href="#DejaVuSans-67" transform="translate(417.339844 0)"/>
      <use xlink:href="#DejaVuSans-20" transform="translate(480.816406 0)"/>
      <use xlink:href="#DejaVuSans-28" transform="translate(512.603516 0)"/>
      <use xlink:href="#DejaVuSans-35" transform="translate(551.617188 0)"/>
      <use xlink:href="#DejaVuSans-30" transform="translate(615.240234 0)"/>
      <use xlink:href="#DejaVuSans-30" transform="translate(678.863281 0)"/>
      <use xlink:href="#DejaVuSans-4d" transform="translate(742.486328 0)"/>
      <use xlink:href="#DejaVuSans-29" transform="translate(828.765625 0)"/>
     </g>
    </g>
    <g id="line2d_24">
     <path d="M 335.876684 103.018511 
L 344.206684 103.018511 
L 352.536684 103.018511 
" style="fill: none; stroke: #9467bd; stroke-width: 1.5; stroke-linecap: square"/>
    </g>
    <g id="text_19">
     <!-- NT-MS V2 (250M) -->
     <g transform="translate(359.200684 105.934011) scale(0.0833 -0.0833)">
      <use xlink:href="#DejaVuSans-4e"/>
      <use xlink:href="#DejaVuSans-54" transform="translate(74.804688 0)"/>
      <use xlink:href="#DejaVuSans-2d" transform="translate(126.763672 0)"/>
      <use xlink:href="#DejaVuSans-4d" transform="translate(162.847656 0)"/>
      <use xlink:href="#DejaVuSans-53" transform="translate(249.126953 0)"/>
      <use xlink:href="#DejaVuSans-20" transform="translate(312.603516 0)"/>
      <use xlink:href="#DejaVuSans-56" transform="translate(344.390625 0)"/>
      <use xlink:href="#DejaVuSans-32" transform="translate(412.798828 0)"/>
      <use xlink:href="#DejaVuSans-20" transform="translate(476.421875 0)"/>
      <use xlink:href="#DejaVuSans-28" transform="translate(508.208984 0)"/>
      <use xlink:href="#DejaVuSans-32" transform="translate(547.222656 0)"/>
      <use xlink:href="#DejaVuSans-35" transform="translate(610.845703 0)"/>
      <use xlink:href="#DejaVuSans-30" transform="translate(674.46875 0)"/>
      <use xlink:href="#DejaVuSans-4d" transform="translate(738.091797 0)"/>
      <use xlink:href="#DejaVuSans-29" transform="translate(824.371094 0)"/>
     </g>
    </g>
    <g id="line2d_25">
     <path d="M 335.876684 115.245389 
L 344.206684 115.245389 
L 352.536684 115.245389 
" style="fill: none; stroke: #8c564b; stroke-width: 1.5; stroke-linecap: square"/>
    </g>
    <g id="text_20">
     <!-- NT-MS V2 (100M) -->
     <g transform="translate(359.200684 118.160889) scale(0.0833 -0.0833)">
      <use xlink:href="#DejaVuSans-4e"/>
      <use xlink:href="#DejaVuSans-54" transform="translate(74.804688 0)"/>
      <use xlink:href="#DejaVuSans-2d" transform="translate(126.763672 0)"/>
      <use xlink:href="#DejaVuSans-4d" transform="translate(162.847656 0)"/>
      <use xlink:href="#DejaVuSans-53" transform="translate(249.126953 0)"/>
      <use xlink:href="#DejaVuSans-20" transform="translate(312.603516 0)"/>
      <use xlink:href="#DejaVuSans-56" transform="translate(344.390625 0)"/>
      <use xlink:href="#DejaVuSans-32" transform="translate(412.798828 0)"/>
      <use xlink:href="#DejaVuSans-20" transform="translate(476.421875 0)"/>
      <use xlink:href="#DejaVuSans-28" transform="translate(508.208984 0)"/>
      <use xlink:href="#DejaVuSans-31" transform="translate(547.222656 0)"/>
      <use xlink:href="#DejaVuSans-30" transform="translate(610.845703 0)"/>
      <use xlink:href="#DejaVuSans-30" transform="translate(674.46875 0)"/>
      <use xlink:href="#DejaVuSans-4d" transform="translate(738.091797 0)"/>
      <use xlink:href="#DejaVuSans-29" transform="translate(824.371094 0)"/>
     </g>
    </g>
    <g id="line2d_26">
     <path d="M 335.876684 127.472267 
L 344.206684 127.472267 
L 352.536684 127.472267 
" style="fill: none; stroke: #e377c2; stroke-width: 1.5; stroke-linecap: square"/>
    </g>
    <g id="text_21">
     <!-- NT-Human-Ref. (500M) -->
     <g transform="translate(359.200684 130.387767) scale(0.0833 -0.0833)">
      <defs>
       <path id="DejaVuSans-48" d="M 628 4666 
L 1259 4666 
L 1259 2753 
L 3553 2753 
L 3553 4666 
L 4184 4666 
L 4184 0 
L 3553 0 
L 3553 2222 
L 1259 2222 
L 1259 0 
L 628 0 
L 628 4666 
z
" transform="scale(0.015625)"/>
       <path id="DejaVuSans-52" d="M 2841 2188 
Q 3044 2119 3236 1894 
Q 3428 1669 3622 1275 
L 4263 0 
L 3584 0 
L 2988 1197 
Q 2756 1666 2539 1819 
Q 2322 1972 1947 1972 
L 1259 1972 
L 1259 0 
L 628 0 
L 628 4666 
L 2053 4666 
Q 2853 4666 3247 4331 
Q 3641 3997 3641 3322 
Q 3641 2881 3436 2590 
Q 3231 2300 2841 2188 
z
M 1259 4147 
L 1259 2491 
L 2053 2491 
Q 2509 2491 2742 2702 
Q 2975 2913 2975 3322 
Q 2975 3731 2742 3939 
Q 2509 4147 2053 4147 
L 1259 4147 
z
" transform="scale(0.015625)"/>
       <path id="DejaVuSans-66" d="M 2375 4863 
L 2375 4384 
L 1825 4384 
Q 1516 4384 1395 4259 
Q 1275 4134 1275 3809 
L 1275 3500 
L 2222 3500 
L 2222 3053 
L 1275 3053 
L 1275 0 
L 697 0 
L 697 3053 
L 147 3053 
L 147 3500 
L 697 3500 
L 697 3744 
Q 697 4328 969 4595 
Q 1241 4863 1831 4863 
L 2375 4863 
z
" transform="scale(0.015625)"/>
      </defs>
      <use xlink:href="#DejaVuSans-4e"/>
      <use xlink:href="#DejaVuSans-54" transform="translate(74.804688 0)"/>
      <use xlink:href="#DejaVuSans-2d" transform="translate(126.763672 0)"/>
      <use xlink:href="#DejaVuSans-48" transform="translate(162.847656 0)"/>
      <use xlink:href="#DejaVuSans-75" transform="translate(238.042969 0)"/>
      <use xlink:href="#DejaVuSans-6d" transform="translate(301.421875 0)"/>
      <use xlink:href="#DejaVuSans-61" transform="translate(398.833984 0)"/>
      <use xlink:href="#DejaVuSans-6e" transform="translate(460.113281 0)"/>
      <use xlink:href="#DejaVuSans-2d" transform="translate(523.492188 0)"/>
      <use xlink:href="#DejaVuSans-52" transform="translate(559.576172 0)"/>
      <use xlink:href="#DejaVuSans-65" transform="translate(624.558594 0)"/>
      <use xlink:href="#DejaVuSans-66" transform="translate(686.082031 0)"/>
      <use xlink:href="#DejaVuSans-2e" transform="translate(714.037109 0)"/>
      <use xlink:href="#DejaVuSans-20" transform="translate(745.824219 0)"/>
      <use xlink:href="#DejaVuSans-28" transform="translate(777.611328 0)"/>
      <use xlink:href="#DejaVuSans-35" transform="translate(816.625 0)"/>
      <use xlink:href="#DejaVuSans-30" transform="translate(880.248047 0)"/>
      <use xlink:href="#DejaVuSans-30" transform="translate(943.871094 0)"/>
      <use xlink:href="#DejaVuSans-4d" transform="translate(1007.494141 0)"/>
      <use xlink:href="#DejaVuSans-29" transform="translate(1093.773438 0)"/>
     </g>
    </g>
    <g id="line2d_27">
     <path d="M 335.876684 139.699145 
L 344.206684 139.699145 
L 352.536684 139.699145 
" style="fill: none; stroke: #7f7f7f; stroke-width: 1.5; stroke-linecap: square"/>
    </g>
    <g id="text_22">
     <!-- NT-MS V2 (500M) -->
     <g transform="translate(359.200684 142.614645) scale(0.0833 -0.0833)">
      <use xlink:href="#DejaVuSans-4e"/>
      <use xlink:href="#DejaVuSans-54" transform="translate(74.804688 0)"/>
      <use xlink:href="#DejaVuSans-2d" transform="translate(126.763672 0)"/>
      <use xlink:href="#DejaVuSans-4d" transform="translate(162.847656 0)"/>
      <use xlink:href="#DejaVuSans-53" transform="translate(249.126953 0)"/>
      <use xlink:href="#DejaVuSans-20" transform="translate(312.603516 0)"/>
      <use xlink:href="#DejaVuSans-56" transform="translate(344.390625 0)"/>
      <use xlink:href="#DejaVuSans-32" transform="translate(412.798828 0)"/>
      <use xlink:href="#DejaVuSans-20" transform="translate(476.421875 0)"/>
      <use xlink:href="#DejaVuSans-28" transform="translate(508.208984 0)"/>
      <use xlink:href="#DejaVuSans-35" transform="translate(547.222656 0)"/>
      <use xlink:href="#DejaVuSans-30" transform="translate(610.845703 0)"/>
      <use xlink:href="#DejaVuSans-30" transform="translate(674.46875 0)"/>
      <use xlink:href="#DejaVuSans-4d" transform="translate(738.091797 0)"/>
      <use xlink:href="#DejaVuSans-29" transform="translate(824.371094 0)"/>
     </g>
    </g>
   </g>
  </g>
 </g>
 <defs>
  <clipPath id="p7596f23db3">
   <rect x="72" y="43.2" width="446.4" height="277.2"/>
  </clipPath>
 </defs>
</svg>
