<?xml version="1.0" encoding="utf-8" standalone="no"?>
<!DOCTYPE svg PUBLIC "-//W3C//DTD SVG 1.1//EN"
  "http://www.w3.org/Graphics/SVG/1.1/DTD/svg11.dtd">
<svg xmlns:xlink="http://www.w3.org/1999/xlink" width="576pt" height="360pt" viewBox="0 0 576 360" xmlns="http://www.w3.org/2000/svg" version="1.1">
 <metadata>
  <rdf:RDF xmlns:dc="http://purl.org/dc/elements/1.1/" xmlns:cc="http://creativecommons.org/ns#" xmlns:rdf="http://www.w3.org/1999/02/22-rdf-syntax-ns#">
   <cc:Work>
    <dc:type rdf:resource="http://purl.org/dc/dcmitype/StillImage"/>
    <dc:date>2025-01-07T03:55:00.517669</dc:date>
    <dc:format>image/svg+xml</dc:format>
    <dc:creator>
     <cc:Agent>
      <dc:title>Matplotlib v3.10.0, https://matplotlib.org/</dc:title>
     </cc:Agent>
    </dc:creator>
   </cc:Work>
  </rdf:RDF>
 </metadata>
 <defs>
  <style type="text/css">*{stroke-linejoin: round; stroke-linecap: butt}</style>
 </defs>
 <g id="figure_1">
  <g id="patch_1">
   <path d="M 0 360 
L 576 360 
L 576 0 
L 0 0 
z
" style="fill: #ffffff"/>
  </g>
  <g id="axes_1">
   <g id="patch_2">
    <path d="M 72 320.4 
L 518.4 320.4 
L 518.4 43.2 
L 72 43.2 
z
" style="fill: #ffffff"/>
   </g>
   <g id="matplotlib.axis_1">
    <g id="xtick_1">
     <g id="line2d_1">
      <defs>
       <path id="mf68ffd0604" d="M 0 0 
L 0 3.5 
" style="stroke: #000000; stroke-width: 0.8"/>
      </defs>
      <g>
       <use xlink:href="#mf68ffd0604" x="157.672727" y="320.4" style="stroke: #000000; stroke-width: 0.8"/>
      </g>
     </g>
     <g id="text_1">
      <!-- 2000 -->
      <g transform="translate(144.947727 334.998438) scale(0.1 -0.1)">
       <defs>
        <path id="DejaVuSans-32" d="M 1228 531 
L 3431 531 
L 3431 0 
L 469 0 
L 469 531 
Q 828 903 1448 1529 
Q 2069 2156 2228 2338 
Q 2531 2678 2651 2914 
Q 2772 3150 2772 3378 
Q 2772 3750 2511 3984 
Q 2250 4219 1831 4219 
Q 1534 4219 1204 4116 
Q 875 4013 500 3803 
L 500 4441 
Q 881 4594 1212 4672 
Q 1544 4750 1819 4750 
Q 2544 4750 2975 4387 
Q 3406 4025 3406 3419 
Q 3406 3131 3298 2873 
Q 3191 2616 2906 2266 
Q 2828 2175 2409 1742 
Q 1991 1309 1228 531 
z
" transform="scale(0.015625)"/>
        <path id="DejaVuSans-30" d="M 2034 4250 
Q 1547 4250 1301 3770 
Q 1056 3291 1056 2328 
Q 1056 1369 1301 889 
Q 1547 409 2034 409 
Q 2525 409 2770 889 
Q 3016 1369 3016 2328 
Q 3016 3291 2770 3770 
Q 2525 4250 2034 4250 
z
M 2034 4750 
Q 2819 4750 3233 4129 
Q 3647 3509 3647 2328 
Q 3647 1150 3233 529 
Q 2819 -91 2034 -91 
Q 1250 -91 836 529 
Q 422 1150 422 2328 
Q 422 3509 836 4129 
Q 1250 4750 2034 4750 
z
" transform="scale(0.015625)"/>
       </defs>
       <use xlink:href="#DejaVuSans-32"/>
       <use xlink:href="#DejaVuSans-30" transform="translate(63.623047 0)"/>
       <use xlink:href="#DejaVuSans-30" transform="translate(127.246094 0)"/>
       <use xlink:href="#DejaVuSans-30" transform="translate(190.869141 0)"/>
      </g>
     </g>
    </g>
    <g id="xtick_2">
     <g id="line2d_2">
      <g>
       <use xlink:href="#mf68ffd0604" x="247.854545" y="320.4" style="stroke: #000000; stroke-width: 0.8"/>
      </g>
     </g>
     <g id="text_2">
      <!-- 4000 -->
      <g transform="translate(235.129545 334.998438) scale(0.1 -0.1)">
       <defs>
        <path id="DejaVuSans-34" d="M 2419 4116 
L 825 1625 
L 2419 1625 
L 2419 4116 
z
M 2253 4666 
L 3047 4666 
L 3047 1625 
L 3713 1625 
L 3713 1100 
L 3047 1100 
L 3047 0 
L 2419 0 
L 2419 1100 
L 313 1100 
L 313 1709 
L 2253 4666 
z
" transform="scale(0.015625)"/>
       </defs>
       <use xlink:href="#DejaVuSans-34"/>
       <use xlink:href="#DejaVuSans-30" transform="translate(63.623047 0)"/>
       <use xlink:href="#DejaVuSans-30" transform="translate(127.246094 0)"/>
       <use xlink:href="#DejaVuSans-30" transform="translate(190.869141 0)"/>
      </g>
     </g>
    </g>
    <g id="xtick_3">
     <g id="line2d_3">
      <g>
       <use xlink:href="#mf68ffd0604" x="338.036364" y="320.4" style="stroke: #000000; stroke-width: 0.8"/>
      </g>
     </g>
     <g id="text_3">
      <!-- 6000 -->
      <g transform="translate(325.311364 334.998438) scale(0.1 -0.1)">
       <defs>
        <path id="DejaVuSans-36" d="M 2113 2584 
Q 1688 2584 1439 2293 
Q 1191 2003 1191 1497 
Q 1191 994 1439 701 
Q 1688 409 2113 409 
Q 2538 409 2786 701 
Q 3034 994 3034 1497 
Q 3034 2003 2786 2293 
Q 2538 2584 2113 2584 
z
M 3366 4563 
L 3366 3988 
Q 3128 4100 2886 4159 
Q 2644 4219 2406 4219 
Q 1781 4219 1451 3797 
Q 1122 3375 1075 2522 
Q 1259 2794 1537 2939 
Q 1816 3084 2150 3084 
Q 2853 3084 3261 2657 
Q 3669 2231 3669 1497 
Q 3669 778 3244 343 
Q 2819 -91 2113 -91 
Q 1303 -91 875 529 
Q 447 1150 447 2328 
Q 447 3434 972 4092 
Q 1497 4750 2381 4750 
Q 2619 4750 2861 4703 
Q 3103 4656 3366 4563 
z
" transform="scale(0.015625)"/>
       </defs>
       <use xlink:href="#DejaVuSans-36"/>
       <use xlink:href="#DejaVuSans-30" transform="translate(63.623047 0)"/>
       <use xlink:href="#DejaVuSans-30" transform="translate(127.246094 0)"/>
       <use xlink:href="#DejaVuSans-30" transform="translate(190.869141 0)"/>
      </g>
     </g>
    </g>
    <g id="xtick_4">
     <g id="line2d_4">
      <g>
       <use xlink:href="#mf68ffd0604" x="428.218182" y="320.4" style="stroke: #000000; stroke-width: 0.8"/>
      </g>
     </g>
     <g id="text_4">
      <!-- 8000 -->
      <g transform="translate(415.493182 334.998438) scale(0.1 -0.1)">
       <defs>
        <path id="DejaVuSans-38" d="M 2034 2216 
Q 1584 2216 1326 1975 
Q 1069 1734 1069 1313 
Q 1069 891 1326 650 
Q 1584 409 2034 409 
Q 2484 409 2743 651 
Q 3003 894 3003 1313 
Q 3003 1734 2745 1975 
Q 2488 2216 2034 2216 
z
M 1403 2484 
Q 997 2584 770 2862 
Q 544 3141 544 3541 
Q 544 4100 942 4425 
Q 1341 4750 2034 4750 
Q 2731 4750 3128 4425 
Q 3525 4100 3525 3541 
Q 3525 3141 3298 2862 
Q 3072 2584 2669 2484 
Q 3125 2378 3379 2068 
Q 3634 1759 3634 1313 
Q 3634 634 3220 271 
Q 2806 -91 2034 -91 
Q 1263 -91 848 271 
Q 434 634 434 1313 
Q 434 1759 690 2068 
Q 947 2378 1403 2484 
z
M 1172 3481 
Q 1172 3119 1398 2916 
Q 1625 2713 2034 2713 
Q 2441 2713 2670 2916 
Q 2900 3119 2900 3481 
Q 2900 3844 2670 4047 
Q 2441 4250 2034 4250 
Q 1625 4250 1398 4047 
Q 1172 3844 1172 3481 
z
" transform="scale(0.015625)"/>
       </defs>
       <use xlink:href="#DejaVuSans-38"/>
       <use xlink:href="#DejaVuSans-30" transform="translate(63.623047 0)"/>
       <use xlink:href="#DejaVuSans-30" transform="translate(127.246094 0)"/>
       <use xlink:href="#DejaVuSans-30" transform="translate(190.869141 0)"/>
      </g>
     </g>
    </g>
    <g id="xtick_5">
     <g id="line2d_5">
      <g>
       <use xlink:href="#mf68ffd0604" x="518.4" y="320.4" style="stroke: #000000; stroke-width: 0.8"/>
      </g>
     </g>
     <g id="text_5">
      <!-- 10000 -->
      <g transform="translate(502.49375 334.998438) scale(0.1 -0.1)">
       <defs>
        <path id="DejaVuSans-31" d="M 794 531 
L 1825 531 
L 1825 4091 
L 703 3866 
L 703 4441 
L 1819 4666 
L 2450 4666 
L 2450 531 
L 3481 531 
L 3481 0 
L 794 0 
L 794 531 
z
" transform="scale(0.015625)"/>
       </defs>
       <use xlink:href="#DejaVuSans-31"/>
       <use xlink:href="#DejaVuSans-30" transform="translate(63.623047 0)"/>
       <use xlink:href="#DejaVuSans-30" transform="translate(127.246094 0)"/>
       <use xlink:href="#DejaVuSans-30" transform="translate(190.869141 0)"/>
       <use xlink:href="#DejaVuSans-30" transform="translate(254.492188 0)"/>
      </g>
     </g>
    </g>
    <g id="text_6">
     <!-- Training steps -->
     <g transform="translate(260.464844 348.676562) scale(0.1 -0.1)">
      <defs>
       <path id="DejaVuSans-54" d="M -19 4666 
L 3928 4666 
L 3928 4134 
L 2272 4134 
L 2272 0 
L 1638 0 
L 1638 4134 
L -19 4134 
L -19 4666 
z
" transform="scale(0.015625)"/>
       <path id="DejaVuSans-72" d="M 2631 2963 
Q 2534 3019 2420 3045 
Q 2306 3072 2169 3072 
Q 1681 3072 1420 2755 
Q 1159 2438 1159 1844 
L 1159 0 
L 581 0 
L 581 3500 
L 1159 3500 
L 1159 2956 
Q 1341 3275 1631 3429 
Q 1922 3584 2338 3584 
Q 2397 3584 2469 3576 
Q 2541 3569 2628 3553 
L 2631 2963 
z
" transform="scale(0.015625)"/>
       <path id="DejaVuSans-61" d="M 2194 1759 
Q 1497 1759 1228 1600 
Q 959 1441 959 1056 
Q 959 750 1161 570 
Q 1363 391 1709 391 
Q 2188 391 2477 730 
Q 2766 1069 2766 1631 
L 2766 1759 
L 2194 1759 
z
M 3341 1997 
L 3341 0 
L 2766 0 
L 2766 531 
Q 2569 213 2275 61 
Q 1981 -91 1556 -91 
Q 1019 -91 701 211 
Q 384 513 384 1019 
Q 384 1609 779 1909 
Q 1175 2209 1959 2209 
L 2766 2209 
L 2766 2266 
Q 2766 2663 2505 2880 
Q 2244 3097 1772 3097 
Q 1472 3097 1187 3025 
Q 903 2953 641 2809 
L 641 3341 
Q 956 3463 1253 3523 
Q 1550 3584 1831 3584 
Q 2591 3584 2966 3190 
Q 3341 2797 3341 1997 
z
" transform="scale(0.015625)"/>
       <path id="DejaVuSans-69" d="M 603 3500 
L 1178 3500 
L 1178 0 
L 603 0 
L 603 3500 
z
M 603 4863 
L 1178 4863 
L 1178 4134 
L 603 4134 
L 603 4863 
z
" transform="scale(0.015625)"/>
       <path id="DejaVuSans-6e" d="M 3513 2113 
L 3513 0 
L 2938 0 
L 2938 2094 
Q 2938 2591 2744 2837 
Q 2550 3084 2163 3084 
Q 1697 3084 1428 2787 
Q 1159 2491 1159 1978 
L 1159 0 
L 581 0 
L 581 3500 
L 1159 3500 
L 1159 2956 
Q 1366 3272 1645 3428 
Q 1925 3584 2291 3584 
Q 2894 3584 3203 3211 
Q 3513 2838 3513 2113 
z
" transform="scale(0.015625)"/>
       <path id="DejaVuSans-67" d="M 2906 1791 
Q 2906 2416 2648 2759 
Q 2391 3103 1925 3103 
Q 1463 3103 1205 2759 
Q 947 2416 947 1791 
Q 947 1169 1205 825 
Q 1463 481 1925 481 
Q 2391 481 2648 825 
Q 2906 1169 2906 1791 
z
M 3481 434 
Q 3481 -459 3084 -895 
Q 2688 -1331 1869 -1331 
Q 1566 -1331 1297 -1286 
Q 1028 -1241 775 -1147 
L 775 -588 
Q 1028 -725 1275 -790 
Q 1522 -856 1778 -856 
Q 2344 -856 2625 -561 
Q 2906 -266 2906 331 
L 2906 616 
Q 2728 306 2450 153 
Q 2172 0 1784 0 
Q 1141 0 747 490 
Q 353 981 353 1791 
Q 353 2603 747 3093 
Q 1141 3584 1784 3584 
Q 2172 3584 2450 3431 
Q 2728 3278 2906 2969 
L 2906 3500 
L 3481 3500 
L 3481 434 
z
" transform="scale(0.015625)"/>
       <path id="DejaVuSans-20" transform="scale(0.015625)"/>
       <path id="DejaVuSans-73" d="M 2834 3397 
L 2834 2853 
Q 2591 2978 2328 3040 
Q 2066 3103 1784 3103 
Q 1356 3103 1142 2972 
Q 928 2841 928 2578 
Q 928 2378 1081 2264 
Q 1234 2150 1697 2047 
L 1894 2003 
Q 2506 1872 2764 1633 
Q 3022 1394 3022 966 
Q 3022 478 2636 193 
Q 2250 -91 1575 -91 
Q 1294 -91 989 -36 
Q 684 19 347 128 
L 347 722 
Q 666 556 975 473 
Q 1284 391 1588 391 
Q 1994 391 2212 530 
Q 2431 669 2431 922 
Q 2431 1156 2273 1281 
Q 2116 1406 1581 1522 
L 1381 1569 
Q 847 1681 609 1914 
Q 372 2147 372 2553 
Q 372 3047 722 3315 
Q 1072 3584 1716 3584 
Q 2034 3584 2315 3537 
Q 2597 3491 2834 3397 
z
" transform="scale(0.015625)"/>
       <path id="DejaVuSans-74" d="M 1172 4494 
L 1172 3500 
L 2356 3500 
L 2356 3053 
L 1172 3053 
L 1172 1153 
Q 1172 725 1289 603 
Q 1406 481 1766 481 
L 2356 481 
L 2356 0 
L 1766 0 
Q 1100 0 847 248 
Q 594 497 594 1153 
L 594 3053 
L 172 3053 
L 172 3500 
L 594 3500 
L 594 4494 
L 1172 4494 
z
" transform="scale(0.015625)"/>
       <path id="DejaVuSans-65" d="M 3597 1894 
L 3597 1613 
L 953 1613 
Q 991 1019 1311 708 
Q 1631 397 2203 397 
Q 2534 397 2845 478 
Q 3156 559 3463 722 
L 3463 178 
Q 3153 47 2828 -22 
Q 2503 -91 2169 -91 
Q 1331 -91 842 396 
Q 353 884 353 1716 
Q 353 2575 817 3079 
Q 1281 3584 2069 3584 
Q 2775 3584 3186 3129 
Q 3597 2675 3597 1894 
z
M 3022 2063 
Q 3016 2534 2758 2815 
Q 2500 3097 2075 3097 
Q 1594 3097 1305 2825 
Q 1016 2553 972 2059 
L 3022 2063 
z
" transform="scale(0.015625)"/>
       <path id="DejaVuSans-70" d="M 1159 525 
L 1159 -1331 
L 581 -1331 
L 581 3500 
L 1159 3500 
L 1159 2969 
Q 1341 3281 1617 3432 
Q 1894 3584 2278 3584 
Q 2916 3584 3314 3078 
Q 3713 2572 3713 1747 
Q 3713 922 3314 415 
Q 2916 -91 2278 -91 
Q 1894 -91 1617 61 
Q 1341 213 1159 525 
z
M 3116 1747 
Q 3116 2381 2855 2742 
Q 2594 3103 2138 3103 
Q 1681 3103 1420 2742 
Q 1159 2381 1159 1747 
Q 1159 1113 1420 752 
Q 1681 391 2138 391 
Q 2594 391 2855 752 
Q 3116 1113 3116 1747 
z
" transform="scale(0.015625)"/>
      </defs>
      <use xlink:href="#DejaVuSans-54"/>
      <use xlink:href="#DejaVuSans-72" transform="translate(46.333984 0)"/>
      <use xlink:href="#DejaVuSans-61" transform="translate(87.447266 0)"/>
      <use xlink:href="#DejaVuSans-69" transform="translate(148.726562 0)"/>
      <use xlink:href="#DejaVuSans-6e" transform="translate(176.509766 0)"/>
      <use xlink:href="#DejaVuSans-69" transform="translate(239.888672 0)"/>
      <use xlink:href="#DejaVuSans-6e" transform="translate(267.671875 0)"/>
      <use xlink:href="#DejaVuSans-67" transform="translate(331.050781 0)"/>
      <use xlink:href="#DejaVuSans-20" transform="translate(394.527344 0)"/>
      <use xlink:href="#DejaVuSans-73" transform="translate(426.314453 0)"/>
      <use xlink:href="#DejaVuSans-74" transform="translate(478.414062 0)"/>
      <use xlink:href="#DejaVuSans-65" transform="translate(517.623047 0)"/>
      <use xlink:href="#DejaVuSans-70" transform="translate(579.146484 0)"/>
      <use xlink:href="#DejaVuSans-73" transform="translate(642.623047 0)"/>
     </g>
    </g>
   </g>
   <g id="matplotlib.axis_2">
    <g id="ytick_1">
     <g id="line2d_6">
      <defs>
       <path id="mcf29417059" d="M 0 0 
L -3.5 0 
" style="stroke: #000000; stroke-width: 0.8"/>
      </defs>
      <g>
       <use xlink:href="#mcf29417059" x="72" y="299.135135" style="stroke: #000000; stroke-width: 0.8"/>
      </g>
     </g>
     <g id="text_7">
      <!-- 0.5 -->
      <g transform="translate(49.096875 302.934354) scale(0.1 -0.1)">
       <defs>
        <path id="DejaVuSans-2e" d="M 684 794 
L 1344 794 
L 1344 0 
L 684 0 
L 684 794 
z
" transform="scale(0.015625)"/>
        <path id="DejaVuSans-35" d="M 691 4666 
L 3169 4666 
L 3169 4134 
L 1269 4134 
L 1269 2991 
Q 1406 3038 1543 3061 
Q 1681 3084 1819 3084 
Q 2600 3084 3056 2656 
Q 3513 2228 3513 1497 
Q 3513 744 3044 326 
Q 2575 -91 1722 -91 
Q 1428 -91 1123 -41 
Q 819 9 494 109 
L 494 744 
Q 775 591 1075 516 
Q 1375 441 1709 441 
Q 2250 441 2565 725 
Q 2881 1009 2881 1497 
Q 2881 1984 2565 2268 
Q 2250 2553 1709 2553 
Q 1456 2553 1204 2497 
Q 953 2441 691 2322 
L 691 4666 
z
" transform="scale(0.015625)"/>
       </defs>
       <use xlink:href="#DejaVuSans-30"/>
       <use xlink:href="#DejaVuSans-2e" transform="translate(63.623047 0)"/>
       <use xlink:href="#DejaVuSans-35" transform="translate(95.410156 0)"/>
      </g>
     </g>
    </g>
    <g id="ytick_2">
     <g id="line2d_7">
      <g>
       <use xlink:href="#mcf29417059" x="72" y="261.297297" style="stroke: #000000; stroke-width: 0.8"/>
      </g>
     </g>
     <g id="text_8">
      <!-- 0.6 -->
      <g transform="translate(49.096875 265.096516) scale(0.1 -0.1)">
       <use xlink:href="#DejaVuSans-30"/>
       <use xlink:href="#DejaVuSans-2e" transform="translate(63.623047 0)"/>
       <use xlink:href="#DejaVuSans-36" transform="translate(95.410156 0)"/>
      </g>
     </g>
    </g>
    <g id="ytick_3">
     <g id="line2d_8">
      <g>
       <use xlink:href="#mcf29417059" x="72" y="223.459459" style="stroke: #000000; stroke-width: 0.8"/>
      </g>
     </g>
     <g id="text_9">
      <!-- 0.7 -->
      <g transform="translate(49.096875 227.258678) scale(0.1 -0.1)">
       <defs>
        <path id="DejaVuSans-37" d="M 525 4666 
L 3525 4666 
L 3525 4397 
L 1831 0 
L 1172 0 
L 2766 4134 
L 525 4134 
L 525 4666 
z
" transform="scale(0.015625)"/>
       </defs>
       <use xlink:href="#DejaVuSans-30"/>
       <use xlink:href="#DejaVuSans-2e" transform="translate(63.623047 0)"/>
       <use xlink:href="#DejaVuSans-37" transform="translate(95.410156 0)"/>
      </g>
     </g>
    </g>
    <g id="ytick_4">
     <g id="line2d_9">
      <g>
       <use xlink:href="#mcf29417059" x="72" y="185.621622" style="stroke: #000000; stroke-width: 0.8"/>
      </g>
     </g>
     <g id="text_10">
      <!-- 0.8 -->
      <g transform="translate(49.096875 189.42084) scale(0.1 -0.1)">
       <use xlink:href="#DejaVuSans-30"/>
       <use xlink:href="#DejaVuSans-2e" transform="translate(63.623047 0)"/>
       <use xlink:href="#DejaVuSans-38" transform="translate(95.410156 0)"/>
      </g>
     </g>
    </g>
    <g id="ytick_5">
     <g id="line2d_10">
      <g>
       <use xlink:href="#mcf29417059" x="72" y="147.783784" style="stroke: #000000; stroke-width: 0.8"/>
      </g>
     </g>
     <g id="text_11">
      <!-- 0.9 -->
      <g transform="translate(49.096875 151.583003) scale(0.1 -0.1)">
       <defs>
        <path id="DejaVuSans-39" d="M 703 97 
L 703 672 
Q 941 559 1184 500 
Q 1428 441 1663 441 
Q 2288 441 2617 861 
Q 2947 1281 2994 2138 
Q 2813 1869 2534 1725 
Q 2256 1581 1919 1581 
Q 1219 1581 811 2004 
Q 403 2428 403 3163 
Q 403 3881 828 4315 
Q 1253 4750 1959 4750 
Q 2769 4750 3195 4129 
Q 3622 3509 3622 2328 
Q 3622 1225 3098 567 
Q 2575 -91 1691 -91 
Q 1453 -91 1209 -44 
Q 966 3 703 97 
z
M 1959 2075 
Q 2384 2075 2632 2365 
Q 2881 2656 2881 3163 
Q 2881 3666 2632 3958 
Q 2384 4250 1959 4250 
Q 1534 4250 1286 3958 
Q 1038 3666 1038 3163 
Q 1038 2656 1286 2365 
Q 1534 2075 1959 2075 
z
" transform="scale(0.015625)"/>
       </defs>
       <use xlink:href="#DejaVuSans-30"/>
       <use xlink:href="#DejaVuSans-2e" transform="translate(63.623047 0)"/>
       <use xlink:href="#DejaVuSans-39" transform="translate(95.410156 0)"/>
      </g>
     </g>
    </g>
    <g id="ytick_6">
     <g id="line2d_11">
      <g>
       <use xlink:href="#mcf29417059" x="72" y="109.945946" style="stroke: #000000; stroke-width: 0.8"/>
      </g>
     </g>
     <g id="text_12">
      <!-- 1.0 -->
      <g transform="translate(49.096875 113.745165) scale(0.1 -0.1)">
       <use xlink:href="#DejaVuSans-31"/>
       <use xlink:href="#DejaVuSans-2e" transform="translate(63.623047 0)"/>
       <use xlink:href="#DejaVuSans-30" transform="translate(95.410156 0)"/>
      </g>
     </g>
    </g>
    <g id="ytick_7">
     <g id="line2d_12">
      <g>
       <use xlink:href="#mcf29417059" x="72" y="72.108108" style="stroke: #000000; stroke-width: 0.8"/>
      </g>
     </g>
     <g id="text_13">
      <!-- 1.1 -->
      <g transform="translate(49.096875 75.907327) scale(0.1 -0.1)">
       <use xlink:href="#DejaVuSans-31"/>
       <use xlink:href="#DejaVuSans-2e" transform="translate(63.623047 0)"/>
       <use xlink:href="#DejaVuSans-31" transform="translate(95.410156 0)"/>
      </g>
     </g>
    </g>
    <g id="text_14">
     <!-- Loss -->
     <g transform="translate(43.017187 192.767187) rotate(-90) scale(0.1 -0.1)">
      <defs>
       <path id="DejaVuSans-4c" d="M 628 4666 
L 1259 4666 
L 1259 531 
L 3531 531 
L 3531 0 
L 628 0 
L 628 4666 
z
" transform="scale(0.015625)"/>
       <path id="DejaVuSans-6f" d="M 1959 3097 
Q 1497 3097 1228 2736 
Q 959 2375 959 1747 
Q 959 1119 1226 758 
Q 1494 397 1959 397 
Q 2419 397 2687 759 
Q 2956 1122 2956 1747 
Q 2956 2369 2687 2733 
Q 2419 3097 1959 3097 
z
M 1959 3584 
Q 2709 3584 3137 3096 
Q 3566 2609 3566 1747 
Q 3566 888 3137 398 
Q 2709 -91 1959 -91 
Q 1206 -91 779 398 
Q 353 888 353 1747 
Q 353 2609 779 3096 
Q 1206 3584 1959 3584 
z
" transform="scale(0.015625)"/>
      </defs>
      <use xlink:href="#DejaVuSans-4c"/>
      <use xlink:href="#DejaVuSans-6f" transform="translate(53.962891 0)"/>
      <use xlink:href="#DejaVuSans-73" transform="translate(115.144531 0)"/>
      <use xlink:href="#DejaVuSans-73" transform="translate(167.244141 0)"/>
     </g>
    </g>
   </g>
   <g id="line2d_13">
    <path d="M 72 137.151351 
L 76.509091 162.502703 
L 81.018182 160.345946 
L 85.527273 176.956757 
L 90.036364 169.918919 
L 94.545455 165.189189 
L 99.054545 172.378378 
L 103.563636 183.654054 
L 108.072727 172.378378 
L 112.581818 177.335135 
L 117.090909 174.610811 
L 121.6 176.956757 
L 126.109091 181.27027 
L 130.618182 168.67027 
L 135.127273 163.524324 
L 139.636364 175.102703 
L 144.145455 178.735135 
L 148.654545 173.437838 
L 153.163636 189.481081 
L 157.672727 180.891892 
L 162.181818 198.183784 
L 166.690909 198.410811 
L 171.2 197.2 
L 175.709091 186.075676 
L 180.218182 180.589189 
L 184.727273 194.362162 
L 189.236364 185.886486 
L 193.745455 168.708108 
L 198.254545 183.086486 
L 202.763636 171.848649 
L 207.272727 189.67027 
L 211.781818 183.010811 
L 216.290909 190.2 
L 220.8 193.151351 
L 225.309091 197.843243 
L 229.818182 188.610811 
L 234.327273 187.589189 
L 238.836364 196.745946 
L 243.345455 188.686486 
L 247.854545 188.989189 
L 252.363636 205.562162 
L 256.872727 191.145946 
L 261.381818 208.059459 
L 265.890909 189.254054 
L 270.4 204.767568 
L 274.909091 188.27027 
L 279.418182 196.367568 
L 283.927273 203.594595 
L 288.436364 191.713514 
L 292.945455 193.113514 
L 297.454545 196.443243 
L 301.963636 187.021622 
L 306.472727 194.740541 
L 310.981818 195.8 
L 315.490909 210.367568 
L 320 193.945946 
L 324.509091 200.227027 
L 329.018182 188.497297 
L 333.527273 195.308108 
L 338.036364 193.227027 
L 342.545455 192.886486 
L 347.054545 189.556757 
L 351.563636 202.194595 
L 356.072727 196.783784 
L 360.581818 199.12973 
L 365.090909 190.464865 
L 369.6 212.864865 
L 374.109091 197.502703 
L 378.618182 186 
L 383.127273 184.902703 
L 387.636364 198.259459 
L 392.145455 202.497297 
L 396.654545 219.713514 
L 401.163636 212.637838 
L 405.672727 212.032432 
L 410.181818 209.345946 
L 414.690909 198.713514 
L 419.2 201.059459 
L 423.709091 208.097297 
L 428.218182 204.540541 
L 432.727273 197.881081 
L 437.236364 212.335135 
L 441.745455 195.913514 
L 446.254545 219.713514 
L 450.763636 205.259459 
L 455.272727 199.281081 
L 459.781818 200.378378 
L 464.290909 204.881081 
L 468.8 214.151351 
L 473.309091 195.194595 
L 477.818182 205.108108 
L 482.327273 211.237838 
L 486.836364 207.832432 
L 491.345455 209.875676 
L 495.854545 209.081081 
L 500.363636 200.227027 
L 504.872727 207.113514 
L 509.381818 208.92973 
L 513.890909 197.578378 
L 518.4 216.118919 
" clip-path="url(#p201a631738)" style="fill: none; stroke: #1f77b4; stroke-width: 1.5; stroke-linecap: square"/>
   </g>
   <g id="line2d_14">
    <path d="M 72 55.8 
L 76.509091 145.4 
L 81.018182 151.681081 
L 85.527273 154.556757 
L 90.036364 164.659459 
L 94.545455 166.135135 
L 99.054545 156.259459 
L 103.563636 169.691892 
L 108.072727 169.540541 
L 112.581818 174.875676 
L 117.090909 150.659459 
L 121.6 168.632432 
L 126.109091 154.632432 
L 130.618182 155.351351 
L 135.127273 144.302703 
L 139.636364 168.708108 
L 144.145455 161.102703 
L 148.654545 157.205405 
L 153.163636 180.286486 
L 157.672727 176.578378 
L 162.181818 172.151351 
L 166.690909 180.286486 
L 171.2 188.762162 
L 175.709091 177.221622 
L 180.218182 186.605405 
L 184.727273 182.783784 
L 189.236364 170.940541 
L 193.745455 160.459459 
L 198.254545 168.027027 
L 202.763636 161.405405 
L 207.272727 185.772973 
L 211.781818 173.021622 
L 216.290909 184.827027 
L 220.8 184.789189 
L 225.309091 185.054054 
L 229.818182 180.627027 
L 234.327273 184.713514 
L 238.836364 182.481081 
L 243.345455 176.654054 
L 247.854545 181.535135 
L 252.363636 212.713514 
L 256.872727 191.978378 
L 261.381818 201.778378 
L 265.890909 184.183784 
L 270.4 198.827027 
L 274.909091 181.497297 
L 279.418182 198.032432 
L 283.927273 198.486486 
L 288.436364 190.805405 
L 292.945455 199.356757 
L 297.454545 192.016216 
L 301.963636 179.718919 
L 306.472727 190.691892 
L 310.981818 184.827027 
L 315.490909 202.232432 
L 320 189.745946 
L 324.509091 193.945946 
L 329.018182 194.324324 
L 333.527273 191.637838 
L 338.036364 194.362162 
L 342.545455 184.410811 
L 347.054545 195.610811 
L 351.563636 196.935135 
L 356.072727 193.075676 
L 360.581818 192.394595 
L 365.090909 187.248649 
L 369.6 199.848649 
L 374.109091 194.210811 
L 378.618182 187.4 
L 383.127273 179.227027 
L 387.636364 196.178378 
L 392.145455 192.962162 
L 396.654545 203.291892 
L 401.163636 204.72973 
L 405.672727 209.081081 
L 410.181818 210.405405 
L 414.690909 199.12973 
L 419.2 186.037838 
L 423.709091 204.956757 
L 428.218182 202.535135 
L 432.727273 201.437838 
L 437.236364 210.216216 
L 441.745455 198.297297 
L 446.254545 220.697297 
L 450.763636 207.037838 
L 455.272727 197.389189 
L 459.781818 210.216216 
L 464.290909 202.686486 
L 468.8 211.2 
L 473.309091 196.518919 
L 477.818182 198.789189 
L 482.327273 205.297297 
L 486.836364 212.259459 
L 491.345455 208.248649 
L 495.854545 211.616216 
L 500.363636 209.27027 
L 504.872727 217.291892 
L 509.381818 205.940541 
L 513.890909 193.113514 
L 518.4 213.47027 
" clip-path="url(#p201a631738)" style="fill: none; stroke: #ff7f0e; stroke-width: 1.5; stroke-linecap: square"/>
   </g>
   <g id="line2d_15">
    <path d="M 72 171.243243 
L 76.509091 192.659459 
L 81.018182 191.902703 
L 85.527273 213.432432 
L 90.036364 221.491892 
L 94.545455 217.32973 
L 99.054545 214.454054 
L 103.563636 224.632432 
L 108.072727 214.491892 
L 112.581818 227.886486 
L 117.090909 231.972973 
L 121.6 226.751351 
L 126.109091 246.464865 
L 130.618182 214.756757 
L 135.127273 217.783784 
L 139.636364 227.924324 
L 144.145455 221.378378 
L 148.654545 233.562162 
L 153.163636 239.464865 
L 157.672727 222.135135 
L 162.181818 245.897297 
L 166.690909 237.837838 
L 171.2 251.081081 
L 175.709091 240.410811 
L 180.218182 244.535135 
L 184.727273 243.589189 
L 189.236364 238.32973 
L 193.745455 228.718919 
L 198.254545 241.848649 
L 202.763636 224.518919 
L 207.272727 255.659459 
L 211.781818 238.67027 
L 216.290909 254.448649 
L 220.8 266.821622 
L 225.309091 266.897297 
L 229.818182 241.810811 
L 234.327273 244.232432 
L 238.836364 248.772973 
L 243.345455 248.962162 
L 247.854545 254.07027 
L 252.363636 270.113514 
L 256.872727 262.810811 
L 261.381818 271.967568 
L 265.890909 252.821622 
L 270.4 262.281081 
L 274.909091 248.962162 
L 279.418182 258.837838 
L 283.927273 270.908108 
L 288.436364 259.935135 
L 292.945455 269.016216 
L 297.454545 252.178378 
L 301.963636 264.854054 
L 306.472727 259.821622 
L 310.981818 255.47027 
L 315.490909 274.464865 
L 320 260.654054 
L 324.509091 263.302703 
L 329.018182 257.513514 
L 333.527273 255.205405 
L 338.036364 254.751351 
L 342.545455 265.8 
L 347.054545 266.708108 
L 351.563636 280.102703 
L 356.072727 257.778378 
L 360.581818 251.535135 
L 365.090909 264.92973 
L 369.6 274.616216 
L 374.109091 257.4 
L 378.618182 268.902703 
L 383.127273 241.016216 
L 387.636364 255.205405 
L 392.145455 264.210811 
L 396.654545 281.691892 
L 401.163636 280.32973 
L 405.672727 285.92973 
L 410.181818 285.135135 
L 414.690909 285.92973 
L 419.2 271.854054 
L 423.709091 269.432432 
L 428.218182 280.254054 
L 432.727273 274.2 
L 437.236364 286.837838 
L 441.745455 263.605405 
L 446.254545 294.027027 
L 450.763636 279.951351 
L 455.272727 261.713514 
L 459.781818 274.2 
L 464.290909 266.972973 
L 468.8 271.92973 
L 473.309091 274.767568 
L 477.818182 277.87027 
L 482.327273 284.227027 
L 486.836364 297.924324 
L 491.345455 285.627027 
L 495.854545 278.740541 
L 500.363636 284.567568 
L 504.872727 273.821622 
L 509.381818 271.967568 
L 513.890909 263.832432 
L 518.4 273.783784 
" clip-path="url(#p201a631738)" style="fill: none; stroke: #2ca02c; stroke-width: 1.5; stroke-linecap: square"/>
   </g>
   <g id="line2d_16">
    <path d="M 72 111.043243 
L 76.509091 184.410811 
L 81.018182 198.221622 
L 85.527273 184.827027 
L 90.036364 207 
L 94.545455 188.648649 
L 99.054545 205.562162 
L 103.563636 224.708108 
L 108.072727 203.027027 
L 112.581818 225.048649 
L 117.090909 219.827027 
L 121.6 215.4 
L 126.109091 227.772973 
L 130.618182 195.421622 
L 135.127273 217.594595 
L 139.636364 222.589189 
L 144.145455 218.805405 
L 148.654545 200.983784 
L 153.163636 231.935135 
L 157.672727 213.962162 
L 162.181818 244.951351 
L 166.690909 223.989189 
L 171.2 247.637838 
L 175.709091 234.924324 
L 180.218182 239.691892 
L 184.727273 235.075676 
L 189.236364 217.216216 
L 193.745455 210.935135 
L 198.254545 205.183784 
L 202.763636 209.497297 
L 207.272727 250.702703 
L 211.781818 225.956757 
L 216.290909 234.394595 
L 220.8 246.010811 
L 225.309091 248.281081 
L 229.818182 219.486486 
L 234.327273 221.87027 
L 238.836364 239.805405 
L 243.345455 226.562162 
L 247.854545 238.481081 
L 252.363636 232.616216 
L 256.872727 250.135135 
L 261.381818 246.691892 
L 265.890909 234.47027 
L 270.4 234.508108 
L 274.909091 223.345946 
L 279.418182 236.967568 
L 283.927273 241.356757 
L 288.436364 240.108108 
L 292.945455 245.405405 
L 297.454545 247.524324 
L 301.963636 231.859459 
L 306.472727 225.843243 
L 310.981818 236.210811 
L 315.490909 256.189189 
L 320 240.145946 
L 324.509091 254.978378 
L 329.018182 240.032432 
L 333.527273 243.059459 
L 338.036364 246.616216 
L 342.545455 252.178378 
L 347.054545 255.886486 
L 351.563636 257.475676 
L 356.072727 244.8 
L 360.581818 238.064865 
L 365.090909 252.783784 
L 369.6 253.313514 
L 374.109091 248.772973 
L 378.618182 246.162162 
L 383.127273 233.07027 
L 387.636364 246.010811 
L 392.145455 245.935135 
L 396.654545 261.145946 
L 401.163636 260.086486 
L 405.672727 273.291892 
L 410.181818 272.156757 
L 414.690909 270.983784 
L 419.2 260.72973 
L 423.709091 257.854054 
L 428.218182 263.605405 
L 432.727273 256.454054 
L 437.236364 271.92973 
L 441.745455 240.562162 
L 446.254545 282.562162 
L 450.763636 266.972973 
L 455.272727 245.821622 
L 459.781818 262.356757 
L 464.290909 257.475676 
L 468.8 265.989189 
L 473.309091 261.032432 
L 477.818182 271.854054 
L 482.327273 273.67027 
L 486.836364 278.854054 
L 491.345455 276.12973 
L 495.854545 269.054054 
L 500.363636 280.405405 
L 504.872727 270.643243 
L 509.381818 263.605405 
L 513.890909 248.659459 
L 518.4 272.686486 
" clip-path="url(#p201a631738)" style="fill: none; stroke: #d62728; stroke-width: 1.5; stroke-linecap: square"/>
   </g>
   <g id="line2d_17">
    <path d="M 72 155.010811 
L 76.509091 188.383784 
L 81.018182 132.308108 
L 85.527273 154.708108 
L 90.036364 164.281081 
L 94.545455 176.275676 
L 99.054545 189.291892 
L 103.563636 187.021622 
L 108.072727 176.237838 
L 112.581818 179.832432 
L 117.090909 179.794595 
L 121.6 208.854054 
L 126.109091 192.167568 
L 130.618182 184.486486 
L 135.127273 186.037838 
L 139.636364 184.486486 
L 144.145455 180.059459 
L 148.654545 176.918919 
L 153.163636 205.864865 
L 157.672727 190.578378 
L 162.181818 219.032432 
L 166.690909 211.654054 
L 171.2 218.048649 
L 175.709091 205.751351 
L 180.218182 201.589189 
L 184.727273 215.210811 
L 189.236364 201.551351 
L 193.745455 193.075676 
L 198.254545 198.751351 
L 202.763636 197.086486 
L 207.272727 209.837838 
L 211.781818 203.140541 
L 216.290909 224.064865 
L 220.8 220.47027 
L 225.309091 223.951351 
L 229.818182 214.643243 
L 234.327273 202.156757 
L 238.836364 212.978378 
L 243.345455 211.654054 
L 247.854545 217.254054 
L 252.363636 231.178378 
L 256.872727 223.951351 
L 261.381818 230.837838 
L 265.890909 215.437838 
L 270.4 235.454054 
L 274.909091 212.940541 
L 279.418182 233.108108 
L 283.927273 239.010811 
L 288.436364 221.945946 
L 292.945455 238.064865 
L 297.454545 231.556757 
L 301.963636 228 
L 306.472727 235.832432 
L 310.981818 236.627027 
L 315.490909 247.751351 
L 320 244.459459 
L 324.509091 252.821622 
L 329.018182 243.551351 
L 333.527273 238.632432 
L 338.036364 243.891892 
L 342.545455 248.508108 
L 347.054545 250.778378 
L 351.563636 260.427027 
L 356.072727 255.659459 
L 360.581818 241.356757 
L 365.090909 250.135135 
L 369.6 257.664865 
L 374.109091 244.345946 
L 378.618182 251.345946 
L 383.127273 230.535135 
L 387.636364 247.183784 
L 392.145455 249.718919 
L 396.654545 271.778378 
L 401.163636 265.762162 
L 405.672727 265.005405 
L 410.181818 267.805405 
L 414.690909 270.832432 
L 419.2 254.902703 
L 423.709091 264.324324 
L 428.218182 258.686486 
L 432.727273 260.351351 
L 437.236364 270.037838 
L 441.745455 250.172973 
L 446.254545 284.227027 
L 450.763636 260.427027 
L 455.272727 255.697297 
L 459.781818 272.724324 
L 464.290909 256.227027 
L 468.8 266.102703 
L 473.309091 256.567568 
L 477.818182 270.491892 
L 482.327273 270.87027 
L 486.836364 287.594595 
L 491.345455 274.351351 
L 495.854545 269.432432 
L 500.363636 271.286486 
L 504.872727 270.605405 
L 509.381818 254.259459 
L 513.890909 246.881081 
L 518.4 267.502703 
" clip-path="url(#p201a631738)" style="fill: none; stroke: #9467bd; stroke-width: 1.5; stroke-linecap: square"/>
   </g>
   <g id="line2d_18">
    <path d="M 72 172.832432 
L 76.509091 195.459459 
L 81.018182 183.427027 
L 85.527273 182.935135 
L 90.036364 213.621622 
L 94.545455 200.302703 
L 99.054545 228.756757 
L 103.563636 225.275676 
L 108.072727 208.324324 
L 112.581818 215.891892 
L 117.090909 221.340541 
L 121.6 209.308108 
L 126.109091 239.237838 
L 130.618182 217.027027 
L 135.127273 218.881081 
L 139.636364 228.113514 
L 144.145455 215.92973 
L 148.654545 215.627027 
L 153.163636 241.167568 
L 157.672727 225.881081 
L 162.181818 250.324324 
L 166.690909 238.140541 
L 171.2 242.643243 
L 175.709091 227.432432 
L 180.218182 234.545946 
L 184.727273 232.237838 
L 189.236364 232.389189 
L 193.745455 231.367568 
L 198.254545 230.043243 
L 202.763636 219.562162 
L 207.272727 248.356757 
L 211.781818 238.594595 
L 216.290909 245.178378 
L 220.8 245.254054 
L 225.309091 259.518919 
L 229.818182 249.983784 
L 234.327273 235.302703 
L 238.836364 246.124324 
L 243.345455 237.648649 
L 247.854545 251.043243 
L 252.363636 254.145946 
L 256.872727 259.518919 
L 261.381818 267.691892 
L 265.890909 246.010811 
L 270.4 258.724324 
L 274.909091 249.113514 
L 279.418182 257.664865 
L 283.927273 261.145946 
L 288.436364 255.12973 
L 292.945455 263.908108 
L 297.454545 254.751351 
L 301.963636 262.924324 
L 306.472727 250.248649 
L 310.981818 249.567568 
L 315.490909 271.437838 
L 320 255.508108 
L 324.509091 260.237838 
L 329.018182 256.189189 
L 333.527273 258.043243 
L 338.036364 252.32973 
L 342.545455 260.427027 
L 347.054545 270.945946 
L 351.563636 269.848649 
L 356.072727 261.145946 
L 360.581818 257.135135 
L 365.090909 278.740541 
L 369.6 270.491892 
L 374.109091 263.454054 
L 378.618182 265.345946 
L 383.127273 250.92973 
L 387.636364 259.897297 
L 392.145455 259.064865 
L 396.654545 278.664865 
L 401.163636 277.718919 
L 405.672727 283.810811 
L 410.181818 296.108108 
L 414.690909 280.821622 
L 419.2 273.254054 
L 423.709091 278.475676 
L 428.218182 289.675676 
L 432.727273 266.443243 
L 437.236364 284.227027 
L 441.745455 261.978378 
L 446.254545 292.664865 
L 450.763636 278.4 
L 455.272727 263.075676 
L 459.781818 280.821622 
L 464.290909 277.643243 
L 468.8 275.713514 
L 473.309091 272.27027 
L 477.818182 278.4 
L 482.327273 285.324324 
L 486.836364 298.983784 
L 491.345455 291.567568 
L 495.854545 283.356757 
L 500.363636 278.021622 
L 504.872727 274.351351 
L 509.381818 269.243243 
L 513.890909 256.87027 
L 518.4 273.745946 
" clip-path="url(#p201a631738)" style="fill: none; stroke: #8c564b; stroke-width: 1.5; stroke-linecap: square"/>
   </g>
   <g id="line2d_19">
    <path d="M 72 127.767568 
L 76.509091 190.540541 
L 81.018182 189.367568 
L 85.527273 194.248649 
L 90.036364 194.967568 
L 94.545455 200.567568 
L 99.054545 222.059459 
L 103.563636 208.854054 
L 108.072727 201.362162 
L 112.581818 228.037838 
L 117.090909 216.27027 
L 121.6 211.427027 
L 126.109091 232.086486 
L 130.618182 204.313514 
L 135.127273 213.091892 
L 139.636364 218.767568 
L 144.145455 218.010811 
L 148.654545 215.627027 
L 153.163636 230.081081 
L 157.672727 224.481081 
L 162.181818 255.810811 
L 166.690909 232.502703 
L 171.2 251.118919 
L 175.709091 225.918919 
L 180.218182 246.010811 
L 184.727273 237.913514 
L 189.236364 233.675676 
L 193.745455 205.145946 
L 198.254545 223.383784 
L 202.763636 225.2 
L 207.272727 260.464865 
L 211.781818 236.627027 
L 216.290909 245.67027 
L 220.8 248.12973 
L 225.309091 251.194595 
L 229.818182 246.427027 
L 234.327273 239.691892 
L 238.836364 251.005405 
L 243.345455 241.697297 
L 247.854545 249.151351 
L 252.363636 260.048649 
L 256.872727 263.567568 
L 261.381818 260.427027 
L 265.890909 239.389189 
L 270.4 258.383784 
L 274.909091 232.691892 
L 279.418182 242.908108 
L 283.927273 256.037838 
L 288.436364 243.210811 
L 292.945455 267.691892 
L 297.454545 264.021622 
L 301.963636 260.654054 
L 306.472727 252.821622 
L 310.981818 249.416216 
L 315.490909 272.156757 
L 320 248.810811 
L 324.509091 271.475676 
L 329.018182 248.016216 
L 333.527273 259.32973 
L 338.036364 252.027027 
L 342.545455 251.345946 
L 347.054545 263.264865 
L 351.563636 274.578378 
L 356.072727 251.837838 
L 360.581818 253.994595 
L 365.090909 261.108108 
L 369.6 266.783784 
L 374.109091 263.567568 
L 378.618182 258.686486 
L 383.127273 240.562162 
L 387.636364 252.897297 
L 392.145455 258.194595 
L 396.654545 273.027027 
L 401.163636 280.783784 
L 405.672727 282.297297 
L 410.181818 292.702703 
L 414.690909 283.962162 
L 419.2 273.140541 
L 423.709091 279.572973 
L 428.218182 284.189189 
L 432.727273 276.054054 
L 437.236364 290.545946 
L 441.745455 261.978378 
L 446.254545 299.059459 
L 450.763636 274.956757 
L 455.272727 263.113514 
L 459.781818 289.410811 
L 464.290909 279.951351 
L 468.8 284.416216 
L 473.309091 276.091892 
L 477.818182 285.210811 
L 482.327273 292.664865 
L 486.836364 307.8 
L 491.345455 298.113514 
L 495.854545 295.616216 
L 500.363636 296.562162 
L 504.872727 285.551351 
L 509.381818 277.151351 
L 513.890909 270.378378 
L 518.4 283.394595 
" clip-path="url(#p201a631738)" style="fill: none; stroke: #e377c2; stroke-width: 1.5; stroke-linecap: square"/>
   </g>
   <g id="line2d_20">
    <path d="M 72 152.854054 
L 76.509091 147.481081 
L 81.018182 139.383784 
L 85.527273 167.308108 
L 90.036364 172.302703 
L 94.545455 170.259459 
L 99.054545 171.924324 
L 103.563636 176.994595 
L 108.072727 175.216216 
L 112.581818 168.745946 
L 117.090909 162.237838 
L 121.6 180.286486 
L 126.109091 172.52973 
L 130.618182 184.259459 
L 135.127273 178.545946 
L 139.636364 189.67027 
L 144.145455 194.021622 
L 148.654545 186.378378 
L 153.163636 210.064865 
L 157.672727 202.837838 
L 162.181818 219.827027 
L 166.690909 216.648649 
L 171.2 216.686486 
L 175.709091 215.967568 
L 180.218182 210.859459 
L 184.727273 223.383784 
L 189.236364 218.843243 
L 193.745455 209.8 
L 198.254545 203.783784 
L 202.763636 197.124324 
L 207.272727 210.783784 
L 211.781818 202.043243 
L 216.290909 220.772973 
L 220.8 221.605405 
L 225.309091 225.805405 
L 229.818182 219.032432 
L 234.327273 213.12973 
L 238.836364 218.313514 
L 243.345455 214.075676 
L 247.854545 230.913514 
L 252.363636 246.124324 
L 256.872727 233.410811 
L 261.381818 246.237838 
L 265.890909 223.951351 
L 270.4 234.12973 
L 274.909091 215.551351 
L 279.418182 228.605405 
L 283.927273 237.8 
L 288.436364 223.194595 
L 292.945455 235.454054 
L 297.454545 244.005405 
L 301.963636 242.302703 
L 306.472727 239.010811 
L 310.981818 234.016216 
L 315.490909 253.72973 
L 320 234.621622 
L 324.509091 250.513514 
L 329.018182 243.4 
L 333.527273 245.783784 
L 338.036364 248.962162 
L 342.545455 247.827027 
L 347.054545 251.194595 
L 351.563636 260.048649 
L 356.072727 255.848649 
L 360.581818 240.108108 
L 365.090909 250.059459 
L 369.6 256.378378 
L 374.109091 250.286486 
L 378.618182 251.005405 
L 383.127273 238.102703 
L 387.636364 247.978378 
L 392.145455 242.378378 
L 396.654545 265.913514 
L 401.163636 259.291892 
L 405.672727 275.524324 
L 410.181818 281.010811 
L 414.690909 268.372973 
L 419.2 261.562162 
L 423.709091 264.740541 
L 428.218182 263.983784 
L 432.727273 253.578378 
L 437.236364 269.356757 
L 441.745455 250.324324 
L 446.254545 280.027027 
L 450.763636 257.475676 
L 455.272727 258.194595 
L 459.781818 270.681081 
L 464.290909 263.340541 
L 468.8 269.772973 
L 473.309091 255.659459 
L 477.818182 268.562162 
L 482.327273 272.043243 
L 486.836364 277.567568 
L 491.345455 267.464865 
L 495.854545 269.583784 
L 500.363636 270.983784 
L 504.872727 265.459459 
L 509.381818 258.913514 
L 513.890909 247.940541 
L 518.4 273.972973 
" clip-path="url(#p201a631738)" style="fill: none; stroke: #7f7f7f; stroke-width: 1.5; stroke-linecap: square"/>
   </g>
   <g id="patch_3">
    <path d="M 72 320.4 
L 72 43.2 
" style="fill: none; stroke: #000000; stroke-width: 0.8; stroke-linejoin: miter; stroke-linecap: square"/>
   </g>
   <g id="patch_4">
    <path d="M 518.4 320.4 
L 518.4 43.2 
" style="fill: none; stroke: #000000; stroke-width: 0.8; stroke-linejoin: miter; stroke-linecap: square"/>
   </g>
   <g id="patch_5">
    <path d="M 72 320.4 
L 518.4 320.4 
" style="fill: none; stroke: #000000; stroke-width: 0.8; stroke-linejoin: miter; stroke-linecap: square"/>
   </g>
   <g id="patch_6">
    <path d="M 72 43.2 
L 518.4 43.2 
" style="fill: none; stroke: #000000; stroke-width: 0.8; stroke-linejoin: miter; stroke-linecap: square"/>
   </g>
   <g id="text_15">
    <!-- Enhancers (types) -->
    <g transform="translate(240.6225 37.2) scale(0.12 -0.12)">
     <defs>
      <path id="DejaVuSans-45" d="M 628 4666 
L 3578 4666 
L 3578 4134 
L 1259 4134 
L 1259 2753 
L 3481 2753 
L 3481 2222 
L 1259 2222 
L 1259 531 
L 3634 531 
L 3634 0 
L 628 0 
L 628 4666 
z
" transform="scale(0.015625)"/>
      <path id="DejaVuSans-68" d="M 3513 2113 
L 3513 0 
L 2938 0 
L 2938 2094 
Q 2938 2591 2744 2837 
Q 2550 3084 2163 3084 
Q 1697 3084 1428 2787 
Q 1159 2491 1159 1978 
L 1159 0 
L 581 0 
L 581 4863 
L 1159 4863 
L 1159 2956 
Q 1366 3272 1645 3428 
Q 1925 3584 2291 3584 
Q 2894 3584 3203 3211 
Q 3513 2838 3513 2113 
z
" transform="scale(0.015625)"/>
      <path id="DejaVuSans-63" d="M 3122 3366 
L 3122 2828 
Q 2878 2963 2633 3030 
Q 2388 3097 2138 3097 
Q 1578 3097 1268 2742 
Q 959 2388 959 1747 
Q 959 1106 1268 751 
Q 1578 397 2138 397 
Q 2388 397 2633 464 
Q 2878 531 3122 666 
L 3122 134 
Q 2881 22 2623 -34 
Q 2366 -91 2075 -91 
Q 1284 -91 818 406 
Q 353 903 353 1747 
Q 353 2603 823 3093 
Q 1294 3584 2113 3584 
Q 2378 3584 2631 3529 
Q 2884 3475 3122 3366 
z
" transform="scale(0.015625)"/>
      <path id="DejaVuSans-28" d="M 1984 4856 
Q 1566 4138 1362 3434 
Q 1159 2731 1159 2009 
Q 1159 1288 1364 580 
Q 1569 -128 1984 -844 
L 1484 -844 
Q 1016 -109 783 600 
Q 550 1309 550 2009 
Q 550 2706 781 3412 
Q 1013 4119 1484 4856 
L 1984 4856 
z
" transform="scale(0.015625)"/>
      <path id="DejaVuSans-79" d="M 2059 -325 
Q 1816 -950 1584 -1140 
Q 1353 -1331 966 -1331 
L 506 -1331 
L 506 -850 
L 844 -850 
Q 1081 -850 1212 -737 
Q 1344 -625 1503 -206 
L 1606 56 
L 191 3500 
L 800 3500 
L 1894 763 
L 2988 3500 
L 3597 3500 
L 2059 -325 
z
" transform="scale(0.015625)"/>
      <path id="DejaVuSans-29" d="M 513 4856 
L 1013 4856 
Q 1481 4119 1714 3412 
Q 1947 2706 1947 2009 
Q 1947 1309 1714 600 
Q 1481 -109 1013 -844 
L 513 -844 
Q 928 -128 1133 580 
Q 1338 1288 1338 2009 
Q 1338 2731 1133 3434 
Q 928 4138 513 4856 
z
" transform="scale(0.015625)"/>
     </defs>
     <use xlink:href="#DejaVuSans-45"/>
     <use xlink:href="#DejaVuSans-6e" transform="translate(63.183594 0)"/>
     <use xlink:href="#DejaVuSans-68" transform="translate(126.5625 0)"/>
     <use xlink:href="#DejaVuSans-61" transform="translate(189.941406 0)"/>
     <use xlink:href="#DejaVuSans-6e" transform="translate(251.220703 0)"/>
     <use xlink:href="#DejaVuSans-63" transform="translate(314.599609 0)"/>
     <use xlink:href="#DejaVuSans-65" transform="translate(369.580078 0)"/>
     <use xlink:href="#DejaVuSans-72" transform="translate(431.103516 0)"/>
     <use xlink:href="#DejaVuSans-73" transform="translate(472.216797 0)"/>
     <use xlink:href="#DejaVuSans-20" transform="translate(524.316406 0)"/>
     <use xlink:href="#DejaVuSans-28" transform="translate(556.103516 0)"/>
     <use xlink:href="#DejaVuSans-74" transform="translate(595.117188 0)"/>
     <use xlink:href="#DejaVuSans-79" transform="translate(634.326172 0)"/>
     <use xlink:href="#DejaVuSans-70" transform="translate(693.505859 0)"/>
     <use xlink:href="#DejaVuSans-65" transform="translate(756.982422 0)"/>
     <use xlink:href="#DejaVuSans-73" transform="translate(818.505859 0)"/>
     <use xlink:href="#DejaVuSans-29" transform="translate(870.605469 0)"/>
    </g>
   </g>
   <g id="legend_1">
    <g id="patch_7">
     <path d="M 334.210684 147.679025 
L 512.569 147.679025 
Q 514.235 147.679025 514.235 146.013025 
L 514.235 49.031 
Q 514.235 47.365 512.569 47.365 
L 334.210684 47.365 
Q 332.544684 47.365 332.544684 49.031 
L 332.544684 146.013025 
Q 332.544684 147.679025 334.210684 147.679025 
z
" style="fill: #ffffff; opacity: 0.8; stroke: #cccccc; stroke-linejoin: miter"/>
    </g>
    <g id="line2d_21">
     <path d="M 335.876684 54.110998 
L 344.206684 54.110998 
L 352.536684 54.110998 
" style="fill: none; stroke: #1f77b4; stroke-width: 1.5; stroke-linecap: square"/>
    </g>
    <g id="text_16">
     <!-- NT-MS V2 (50M) with rand. weights -->
     <g transform="translate(359.200684 57.026498) scale(0.0833 -0.0833)">
      <defs>
       <path id="DejaVuSans-4e" d="M 628 4666 
L 1478 4666 
L 3547 763 
L 3547 4666 
L 4159 4666 
L 4159 0 
L 3309 0 
L 1241 3903 
L 1241 0 
L 628 0 
L 628 4666 
z
" transform="scale(0.015625)"/>
       <path id="DejaVuSans-2d" d="M 313 2009 
L 1997 2009 
L 1997 1497 
L 313 1497 
L 313 2009 
z
" transform="scale(0.015625)"/>
       <path id="DejaVuSans-4d" d="M 628 4666 
L 1569 4666 
L 2759 1491 
L 3956 4666 
L 4897 4666 
L 4897 0 
L 4281 0 
L 4281 4097 
L 3078 897 
L 2444 897 
L 1241 4097 
L 1241 0 
L 628 0 
L 628 4666 
z
" transform="scale(0.015625)"/>
       <path id="DejaVuSans-53" d="M 3425 4513 
L 3425 3897 
Q 3066 4069 2747 4153 
Q 2428 4238 2131 4238 
Q 1616 4238 1336 4038 
Q 1056 3838 1056 3469 
Q 1056 3159 1242 3001 
Q 1428 2844 1947 2747 
L 2328 2669 
Q 3034 2534 3370 2195 
Q 3706 1856 3706 1288 
Q 3706 609 3251 259 
Q 2797 -91 1919 -91 
Q 1588 -91 1214 -16 
Q 841 59 441 206 
L 441 856 
Q 825 641 1194 531 
Q 1563 422 1919 422 
Q 2459 422 2753 634 
Q 3047 847 3047 1241 
Q 3047 1584 2836 1778 
Q 2625 1972 2144 2069 
L 1759 2144 
Q 1053 2284 737 2584 
Q 422 2884 422 3419 
Q 422 4038 858 4394 
Q 1294 4750 2059 4750 
Q 2388 4750 2728 4690 
Q 3069 4631 3425 4513 
z
" transform="scale(0.015625)"/>
       <path id="DejaVuSans-56" d="M 1831 0 
L 50 4666 
L 709 4666 
L 2188 738 
L 3669 4666 
L 4325 4666 
L 2547 0 
L 1831 0 
z
" transform="scale(0.015625)"/>
       <path id="DejaVuSans-77" d="M 269 3500 
L 844 3500 
L 1563 769 
L 2278 3500 
L 2956 3500 
L 3675 769 
L 4391 3500 
L 4966 3500 
L 4050 0 
L 3372 0 
L 2619 2869 
L 1863 0 
L 1184 0 
L 269 3500 
z
" transform="scale(0.015625)"/>
       <path id="DejaVuSans-64" d="M 2906 2969 
L 2906 4863 
L 3481 4863 
L 3481 0 
L 2906 0 
L 2906 525 
Q 2725 213 2448 61 
Q 2172 -91 1784 -91 
Q 1150 -91 751 415 
Q 353 922 353 1747 
Q 353 2572 751 3078 
Q 1150 3584 1784 3584 
Q 2172 3584 2448 3432 
Q 2725 3281 2906 2969 
z
M 947 1747 
Q 947 1113 1208 752 
Q 1469 391 1925 391 
Q 2381 391 2643 752 
Q 2906 1113 2906 1747 
Q 2906 2381 2643 2742 
Q 2381 3103 1925 3103 
Q 1469 3103 1208 2742 
Q 947 2381 947 1747 
z
" transform="scale(0.015625)"/>
      </defs>
      <use xlink:href="#DejaVuSans-4e"/>
      <use xlink:href="#DejaVuSans-54" transform="translate(74.804688 0)"/>
      <use xlink:href="#DejaVuSans-2d" transform="translate(126.763672 0)"/>
      <use xlink:href="#DejaVuSans-4d" transform="translate(162.847656 0)"/>
      <use xlink:href="#DejaVuSans-53" transform="translate(249.126953 0)"/>
      <use xlink:href="#DejaVuSans-20" transform="translate(312.603516 0)"/>
      <use xlink:href="#DejaVuSans-56" transform="translate(344.390625 0)"/>
      <use xlink:href="#DejaVuSans-32" transform="translate(412.798828 0)"/>
      <use xlink:href="#DejaVuSans-20" transform="translate(476.421875 0)"/>
      <use xlink:href="#DejaVuSans-28" transform="translate(508.208984 0)"/>
      <use xlink:href="#DejaVuSans-35" transform="translate(547.222656 0)"/>
      <use xlink:href="#DejaVuSans-30" transform="translate(610.845703 0)"/>
      <use xlink:href="#DejaVuSans-4d" transform="translate(674.46875 0)"/>
      <use xlink:href="#DejaVuSans-29" transform="translate(760.748047 0)"/>
      <use xlink:href="#DejaVuSans-20" transform="translate(799.761719 0)"/>
      <use xlink:href="#DejaVuSans-77" transform="translate(831.548828 0)"/>
      <use xlink:href="#DejaVuSans-69" transform="translate(913.335938 0)"/>
      <use xlink:href="#DejaVuSans-74" transform="translate(941.119141 0)"/>
      <use xlink:href="#DejaVuSans-68" transform="translate(980.328125 0)"/>
      <use xlink:href="#DejaVuSans-20" transform="translate(1043.707031 0)"/>
      <use xlink:href="#DejaVuSans-72" transform="translate(1075.494141 0)"/>
      <use xlink:href="#DejaVuSans-61" transform="translate(1116.607422 0)"/>
      <use xlink:href="#DejaVuSans-6e" transform="translate(1177.886719 0)"/>
      <use xlink:href="#DejaVuSans-64" transform="translate(1241.265625 0)"/>
      <use xlink:href="#DejaVuSans-2e" transform="translate(1304.742188 0)"/>
      <use xlink:href="#DejaVuSans-20" transform="translate(1336.529297 0)"/>
      <use xlink:href="#DejaVuSans-77" transform="translate(1368.316406 0)"/>
      <use xlink:href="#DejaVuSans-65" transform="translate(1450.103516 0)"/>
      <use xlink:href="#DejaVuSans-69" transform="translate(1511.626953 0)"/>
      <use xlink:href="#DejaVuSans-67" transform="translate(1539.410156 0)"/>
      <use xlink:href="#DejaVuSans-68" transform="translate(1602.886719 0)"/>
      <use xlink:href="#DejaVuSans-74" transform="translate(1666.265625 0)"/>
      <use xlink:href="#DejaVuSans-73" transform="translate(1705.474609 0)"/>
     </g>
    </g>
    <g id="line2d_22">
     <path d="M 335.876684 66.337877 
L 344.206684 66.337877 
L 352.536684 66.337877 
" style="fill: none; stroke: #ff7f0e; stroke-width: 1.5; stroke-linecap: square"/>
    </g>
    <g id="text_17">
     <!-- NT-MS V2 (500M) with rand. weights -->
     <g transform="translate(359.200684 69.253377) scale(0.0833 -0.0833)">
      <use xlink:href="#DejaVuSans-4e"/>
      <use xlink:href="#DejaVuSans-54" transform="translate(74.804688 0)"/>
      <use xlink:href="#DejaVuSans-2d" transform="translate(126.763672 0)"/>
      <use xlink:href="#DejaVuSans-4d" transform="translate(162.847656 0)"/>
      <use xlink:href="#DejaVuSans-53" transform="translate(249.126953 0)"/>
      <use xlink:href="#DejaVuSans-20" transform="translate(312.603516 0)"/>
      <use xlink:href="#DejaVuSans-56" transform="translate(344.390625 0)"/>
      <use xlink:href="#DejaVuSans-32" transform="translate(412.798828 0)"/>
      <use xlink:href="#DejaVuSans-20" transform="translate(476.421875 0)"/>
      <use xlink:href="#DejaVuSans-28" transform="translate(508.208984 0)"/>
      <use xlink:href="#DejaVuSans-35" transform="translate(547.222656 0)"/>
      <use xlink:href="#DejaVuSans-30" transform="translate(610.845703 0)"/>
      <use xlink:href="#DejaVuSans-30" transform="translate(674.46875 0)"/>
      <use xlink:href="#DejaVuSans-4d" transform="translate(738.091797 0)"/>
      <use xlink:href="#DejaVuSans-29" transform="translate(824.371094 0)"/>
      <use xlink:href="#DejaVuSans-20" transform="translate(863.384766 0)"/>
      <use xlink:href="#DejaVuSans-77" transform="translate(895.171875 0)"/>
      <use xlink:href="#DejaVuSans-69" transform="translate(976.958984 0)"/>
      <use xlink:href="#DejaVuSans-74" transform="translate(1004.742188 0)"/>
      <use xlink:href="#DejaVuSans-68" transform="translate(1043.951172 0)"/>
      <use xlink:href="#DejaVuSans-20" transform="translate(1107.330078 0)"/>
      <use xlink:href="#DejaVuSans-72" transform="translate(1139.117188 0)"/>
      <use xlink:href="#DejaVuSans-61" transform="translate(1180.230469 0)"/>
      <use xlink:href="#DejaVuSans-6e" transform="translate(1241.509766 0)"/>
      <use xlink:href="#DejaVuSans-64" transform="translate(1304.888672 0)"/>
      <use xlink:href="#DejaVuSans-2e" transform="translate(1368.365234 0)"/>
      <use xlink:href="#DejaVuSans-20" transform="translate(1400.152344 0)"/>
      <use xlink:href="#DejaVuSans-77" transform="translate(1431.939453 0)"/>
      <use xlink:href="#DejaVuSans-65" transform="translate(1513.726562 0)"/>
      <use xlink:href="#DejaVuSans-69" transform="translate(1575.25 0)"/>
      <use xlink:href="#DejaVuSans-67" transform="translate(1603.033203 0)"/>
      <use xlink:href="#DejaVuSans-68" transform="translate(1666.509766 0)"/>
      <use xlink:href="#DejaVuSans-74" transform="translate(1729.888672 0)"/>
      <use xlink:href="#DejaVuSans-73" transform="translate(1769.097656 0)"/>
     </g>
    </g>
    <g id="line2d_23">
     <path d="M 335.876684 78.564755 
L 344.206684 78.564755 
L 352.536684 78.564755 
" style="fill: none; stroke: #2ca02c; stroke-width: 1.5; stroke-linecap: square"/>
    </g>
    <g id="text_18">
     <!-- NT-MS V2 (50M) -->
     <g transform="translate(359.200684 81.480255) scale(0.0833 -0.0833)">
      <use xlink:href="#DejaVuSans-4e"/>
      <use xlink:href="#DejaVuSans-54" transform="translate(74.804688 0)"/>
      <use xlink:href="#DejaVuSans-2d" transform="translate(126.763672 0)"/>
      <use xlink:href="#DejaVuSans-4d" transform="translate(162.847656 0)"/>
      <use xlink:href="#DejaVuSans-53" transform="translate(249.126953 0)"/>
      <use xlink:href="#DejaVuSans-20" transform="translate(312.603516 0)"/>
      <use xlink:href="#DejaVuSans-56" transform="translate(344.390625 0)"/>
      <use xlink:href="#DejaVuSans-32" transform="translate(412.798828 0)"/>
      <use xlink:href="#DejaVuSans-20" transform="translate(476.421875 0)"/>
      <use xlink:href="#DejaVuSans-28" transform="translate(508.208984 0)"/>
      <use xlink:href="#DejaVuSans-35" transform="translate(547.222656 0)"/>
      <use xlink:href="#DejaVuSans-30" transform="translate(610.845703 0)"/>
      <use xlink:href="#DejaVuSans-4d" transform="translate(674.46875 0)"/>
      <use xlink:href="#DejaVuSans-29" transform="translate(760.748047 0)"/>
     </g>
    </g>
    <g id="line2d_24">
     <path d="M 335.876684 90.791633 
L 344.206684 90.791633 
L 352.536684 90.791633 
" style="fill: none; stroke: #d62728; stroke-width: 1.5; stroke-linecap: square"/>
    </g>
    <g id="text_19">
     <!-- NT-1000g (500M) -->
     <g transform="translate(359.200684 93.707133) scale(0.0833 -0.0833)">
      <use xlink:href="#DejaVuSans-4e"/>
      <use xlink:href="#DejaVuSans-54" transform="translate(74.804688 0)"/>
      <use xlink:href="#DejaVuSans-2d" transform="translate(126.763672 0)"/>
      <use xlink:href="#DejaVuSans-31" transform="translate(162.847656 0)"/>
      <use xlink:href="#DejaVuSans-30" transform="translate(226.470703 0)"/>
      <use xlink:href="#DejaVuSans-30" transform="translate(290.09375 0)"/>
      <use xlink:href="#DejaVuSans-30" transform="translate(353.716797 0)"/>
      <use xlink:href="#DejaVuSans-67" transform="translate(417.339844 0)"/>
      <use xlink:href="#DejaVuSans-20" transform="translate(480.816406 0)"/>
      <use xlink:href="#DejaVuSans-28" transform="translate(512.603516 0)"/>
      <use xlink:href="#DejaVuSans-35" transform="translate(551.617188 0)"/>
      <use xlink:href="#DejaVuSans-30" transform="translate(615.240234 0)"/>
      <use xlink:href="#DejaVuSans-30" transform="translate(678.863281 0)"/>
      <use xlink:href="#DejaVuSans-4d" transform="translate(742.486328 0)"/>
      <use xlink:href="#DejaVuSans-29" transform="translate(828.765625 0)"/>
     </g>
    </g>
    <g id="line2d_25">
     <path d="M 335.876684 103.018511 
L 344.206684 103.018511 
L 352.536684 103.018511 
" style="fill: none; stroke: #9467bd; stroke-width: 1.5; stroke-linecap: square"/>
    </g>
    <g id="text_20">
     <!-- NT-MS V2 (250M) -->
     <g transform="translate(359.200684 105.934011) scale(0.0833 -0.0833)">
      <use xlink:href="#DejaVuSans-4e"/>
      <use xlink:href="#DejaVuSans-54" transform="translate(74.804688 0)"/>
      <use xlink:href="#DejaVuSans-2d" transform="translate(126.763672 0)"/>
      <use xlink:href="#DejaVuSans-4d" transform="translate(162.847656 0)"/>
      <use xlink:href="#DejaVuSans-53" transform="translate(249.126953 0)"/>
      <use xlink:href="#DejaVuSans-20" transform="translate(312.603516 0)"/>
      <use xlink:href="#DejaVuSans-56" transform="translate(344.390625 0)"/>
      <use xlink:href="#DejaVuSans-32" transform="translate(412.798828 0)"/>
      <use xlink:href="#DejaVuSans-20" transform="translate(476.421875 0)"/>
      <use xlink:href="#DejaVuSans-28" transform="translate(508.208984 0)"/>
      <use xlink:href="#DejaVuSans-32" transform="translate(547.222656 0)"/>
      <use xlink:href="#DejaVuSans-35" transform="translate(610.845703 0)"/>
      <use xlink:href="#DejaVuSans-30" transform="translate(674.46875 0)"/>
      <use xlink:href="#DejaVuSans-4d" transform="translate(738.091797 0)"/>
      <use xlink:href="#DejaVuSans-29" transform="translate(824.371094 0)"/>
     </g>
    </g>
    <g id="line2d_26">
     <path d="M 335.876684 115.245389 
L 344.206684 115.245389 
L 352.536684 115.245389 
" style="fill: none; stroke: #8c564b; stroke-width: 1.5; stroke-linecap: square"/>
    </g>
    <g id="text_21">
     <!-- NT-MS V2 (100M) -->
     <g transform="translate(359.200684 118.160889) scale(0.0833 -0.0833)">
      <use xlink:href="#DejaVuSans-4e"/>
      <use xlink:href="#DejaVuSans-54" transform="translate(74.804688 0)"/>
      <use xlink:href="#DejaVuSans-2d" transform="translate(126.763672 0)"/>
      <use xlink:href="#DejaVuSans-4d" transform="translate(162.847656 0)"/>
      <use xlink:href="#DejaVuSans-53" transform="translate(249.126953 0)"/>
      <use xlink:href="#DejaVuSans-20" transform="translate(312.603516 0)"/>
      <use xlink:href="#DejaVuSans-56" transform="translate(344.390625 0)"/>
      <use xlink:href="#DejaVuSans-32" transform="translate(412.798828 0)"/>
      <use xlink:href="#DejaVuSans-20" transform="translate(476.421875 0)"/>
      <use xlink:href="#DejaVuSans-28" transform="translate(508.208984 0)"/>
      <use xlink:href="#DejaVuSans-31" transform="translate(547.222656 0)"/>
      <use xlink:href="#DejaVuSans-30" transform="translate(610.845703 0)"/>
      <use xlink:href="#DejaVuSans-30" transform="translate(674.46875 0)"/>
      <use xlink:href="#DejaVuSans-4d" transform="translate(738.091797 0)"/>
      <use xlink:href="#DejaVuSans-29" transform="translate(824.371094 0)"/>
     </g>
    </g>
    <g id="line2d_27">
     <path d="M 335.876684 127.472267 
L 344.206684 127.472267 
L 352.536684 127.472267 
" style="fill: none; stroke: #e377c2; stroke-width: 1.5; stroke-linecap: square"/>
    </g>
    <g id="text_22">
     <!-- NT-Human-Ref. (500M) -->
     <g transform="translate(359.200684 130.387767) scale(0.0833 -0.0833)">
      <defs>
       <path id="DejaVuSans-48" d="M 628 4666 
L 1259 4666 
L 1259 2753 
L 3553 2753 
L 3553 4666 
L 4184 4666 
L 4184 0 
L 3553 0 
L 3553 2222 
L 1259 2222 
L 1259 0 
L 628 0 
L 628 4666 
z
" transform="scale(0.015625)"/>
       <path id="DejaVuSans-75" d="M 544 1381 
L 544 3500 
L 1119 3500 
L 1119 1403 
Q 1119 906 1312 657 
Q 1506 409 1894 409 
Q 2359 409 2629 706 
Q 2900 1003 2900 1516 
L 2900 3500 
L 3475 3500 
L 3475 0 
L 2900 0 
L 2900 538 
Q 2691 219 2414 64 
Q 2138 -91 1772 -91 
Q 1169 -91 856 284 
Q 544 659 544 1381 
z
M 1991 3584 
L 1991 3584 
z
" transform="scale(0.015625)"/>
       <path id="DejaVuSans-6d" d="M 3328 2828 
Q 3544 3216 3844 3400 
Q 4144 3584 4550 3584 
Q 5097 3584 5394 3201 
Q 5691 2819 5691 2113 
L 5691 0 
L 5113 0 
L 5113 2094 
Q 5113 2597 4934 2840 
Q 4756 3084 4391 3084 
Q 3944 3084 3684 2787 
Q 3425 2491 3425 1978 
L 3425 0 
L 2847 0 
L 2847 2094 
Q 2847 2600 2669 2842 
Q 2491 3084 2119 3084 
Q 1678 3084 1418 2786 
Q 1159 2488 1159 1978 
L 1159 0 
L 581 0 
L 581 3500 
L 1159 3500 
L 1159 2956 
Q 1356 3278 1631 3431 
Q 1906 3584 2284 3584 
Q 2666 3584 2933 3390 
Q 3200 3197 3328 2828 
z
" transform="scale(0.015625)"/>
       <path id="DejaVuSans-52" d="M 2841 2188 
Q 3044 2119 3236 1894 
Q 3428 1669 3622 1275 
L 4263 0 
L 3584 0 
L 2988 1197 
Q 2756 1666 2539 1819 
Q 2322 1972 1947 1972 
L 1259 1972 
L 1259 0 
L 628 0 
L 628 4666 
L 2053 4666 
Q 2853 4666 3247 4331 
Q 3641 3997 3641 3322 
Q 3641 2881 3436 2590 
Q 3231 2300 2841 2188 
z
M 1259 4147 
L 1259 2491 
L 2053 2491 
Q 2509 2491 2742 2702 
Q 2975 2913 2975 3322 
Q 2975 3731 2742 3939 
Q 2509 4147 2053 4147 
L 1259 4147 
z
" transform="scale(0.015625)"/>
       <path id="DejaVuSans-66" d="M 2375 4863 
L 2375 4384 
L 1825 4384 
Q 1516 4384 1395 4259 
Q 1275 4134 1275 3809 
L 1275 3500 
L 2222 3500 
L 2222 3053 
L 1275 3053 
L 1275 0 
L 697 0 
L 697 3053 
L 147 3053 
L 147 3500 
L 697 3500 
L 697 3744 
Q 697 4328 969 4595 
Q 1241 4863 1831 4863 
L 2375 4863 
z
" transform="scale(0.015625)"/>
      </defs>
      <use xlink:href="#DejaVuSans-4e"/>
      <use xlink:href="#DejaVuSans-54" transform="translate(74.804688 0)"/>
      <use xlink:href="#DejaVuSans-2d" transform="translate(126.763672 0)"/>
      <use xlink:href="#DejaVuSans-48" transform="translate(162.847656 0)"/>
      <use xlink:href="#DejaVuSans-75" transform="translate(238.042969 0)"/>
      <use xlink:href="#DejaVuSans-6d" transform="translate(301.421875 0)"/>
      <use xlink:href="#DejaVuSans-61" transform="translate(398.833984 0)"/>
      <use xlink:href="#DejaVuSans-6e" transform="translate(460.113281 0)"/>
      <use xlink:href="#DejaVuSans-2d" transform="translate(523.492188 0)"/>
      <use xlink:href="#DejaVuSans-52" transform="translate(559.576172 0)"/>
      <use xlink:href="#DejaVuSans-65" transform="translate(624.558594 0)"/>
      <use xlink:href="#DejaVuSans-66" transform="translate(686.082031 0)"/>
      <use xlink:href="#DejaVuSans-2e" transform="translate(714.037109 0)"/>
      <use xlink:href="#DejaVuSans-20" transform="translate(745.824219 0)"/>
      <use xlink:href="#DejaVuSans-28" transform="translate(777.611328 0)"/>
      <use xlink:href="#DejaVuSans-35" transform="translate(816.625 0)"/>
      <use xlink:href="#DejaVuSans-30" transform="translate(880.248047 0)"/>
      <use xlink:href="#DejaVuSans-30" transform="translate(943.871094 0)"/>
      <use xlink:href="#DejaVuSans-4d" transform="translate(1007.494141 0)"/>
      <use xlink:href="#DejaVuSans-29" transform="translate(1093.773438 0)"/>
     </g>
    </g>
    <g id="line2d_28">
     <path d="M 335.876684 139.699145 
L 344.206684 139.699145 
L 352.536684 139.699145 
" style="fill: none; stroke: #7f7f7f; stroke-width: 1.5; stroke-linecap: square"/>
    </g>
    <g id="text_23">
     <!-- NT-MS V2 (500M) -->
     <g transform="translate(359.200684 142.614645) scale(0.0833 -0.0833)">
      <use xlink:href="#DejaVuSans-4e"/>
      <use xlink:href="#DejaVuSans-54" transform="translate(74.804688 0)"/>
      <use xlink:href="#DejaVuSans-2d" transform="translate(126.763672 0)"/>
      <use xlink:href="#DejaVuSans-4d" transform="translate(162.847656 0)"/>
      <use xlink:href="#DejaVuSans-53" transform="translate(249.126953 0)"/>
      <use xlink:href="#DejaVuSans-20" transform="translate(312.603516 0)"/>
      <use xlink:href="#DejaVuSans-56" transform="translate(344.390625 0)"/>
      <use xlink:href="#DejaVuSans-32" transform="translate(412.798828 0)"/>
      <use xlink:href="#DejaVuSans-20" transform="translate(476.421875 0)"/>
      <use xlink:href="#DejaVuSans-28" transform="translate(508.208984 0)"/>
      <use xlink:href="#DejaVuSans-35" transform="translate(547.222656 0)"/>
      <use xlink:href="#DejaVuSans-30" transform="translate(610.845703 0)"/>
      <use xlink:href="#DejaVuSans-30" transform="translate(674.46875 0)"/>
      <use xlink:href="#DejaVuSans-4d" transform="translate(738.091797 0)"/>
      <use xlink:href="#DejaVuSans-29" transform="translate(824.371094 0)"/>
     </g>
    </g>
   </g>
  </g>
 </g>
 <defs>
  <clipPath id="p201a631738">
   <rect x="72" y="43.2" width="446.4" height="277.2"/>
  </clipPath>
 </defs>
</svg>
