<?xml version="1.0" encoding="utf-8" standalone="no"?>
<!DOCTYPE svg PUBLIC "-//W3C//DTD SVG 1.1//EN"
  "http://www.w3.org/Graphics/SVG/1.1/DTD/svg11.dtd">
<svg xmlns:xlink="http://www.w3.org/1999/xlink" width="576pt" height="360pt" viewBox="0 0 576 360" xmlns="http://www.w3.org/2000/svg" version="1.1">
 <metadata>
  <rdf:RDF xmlns:dc="http://purl.org/dc/elements/1.1/" xmlns:cc="http://creativecommons.org/ns#" xmlns:rdf="http://www.w3.org/1999/02/22-rdf-syntax-ns#">
   <cc:Work>
    <dc:type rdf:resource="http://purl.org/dc/dcmitype/StillImage"/>
    <dc:date>2025-01-07T03:55:00.392070</dc:date>
    <dc:format>image/svg+xml</dc:format>
    <dc:creator>
     <cc:Agent>
      <dc:title>Matplotlib v3.10.0, https://matplotlib.org/</dc:title>
     </cc:Agent>
    </dc:creator>
   </cc:Work>
  </rdf:RDF>
 </metadata>
 <defs>
  <style type="text/css">*{stroke-linejoin: round; stroke-linecap: butt}</style>
 </defs>
 <g id="figure_1">
  <g id="patch_1">
   <path d="M 0 360 
L 576 360 
L 576 0 
L 0 0 
z
" style="fill: #ffffff"/>
  </g>
  <g id="axes_1">
   <g id="patch_2">
    <path d="M 72 320.4 
L 518.4 320.4 
L 518.4 43.2 
L 72 43.2 
z
" style="fill: #ffffff"/>
   </g>
   <g id="matplotlib.axis_1">
    <g id="xtick_1">
     <g id="line2d_1">
      <defs>
       <path id="mabaac094fc" d="M 0 0 
L 0 3.5 
" style="stroke: #000000; stroke-width: 0.8"/>
      </defs>
      <g>
       <use xlink:href="#mabaac094fc" x="157.672727" y="320.4" style="stroke: #000000; stroke-width: 0.8"/>
      </g>
     </g>
     <g id="text_1">
      <!-- 2000 -->
      <g transform="translate(144.947727 334.998438) scale(0.1 -0.1)">
       <defs>
        <path id="DejaVuSans-32" d="M 1228 531 
L 3431 531 
L 3431 0 
L 469 0 
L 469 531 
Q 828 903 1448 1529 
Q 2069 2156 2228 2338 
Q 2531 2678 2651 2914 
Q 2772 3150 2772 3378 
Q 2772 3750 2511 3984 
Q 2250 4219 1831 4219 
Q 1534 4219 1204 4116 
Q 875 4013 500 3803 
L 500 4441 
Q 881 4594 1212 4672 
Q 1544 4750 1819 4750 
Q 2544 4750 2975 4387 
Q 3406 4025 3406 3419 
Q 3406 3131 3298 2873 
Q 3191 2616 2906 2266 
Q 2828 2175 2409 1742 
Q 1991 1309 1228 531 
z
" transform="scale(0.015625)"/>
        <path id="DejaVuSans-30" d="M 2034 4250 
Q 1547 4250 1301 3770 
Q 1056 3291 1056 2328 
Q 1056 1369 1301 889 
Q 1547 409 2034 409 
Q 2525 409 2770 889 
Q 3016 1369 3016 2328 
Q 3016 3291 2770 3770 
Q 2525 4250 2034 4250 
z
M 2034 4750 
Q 2819 4750 3233 4129 
Q 3647 3509 3647 2328 
Q 3647 1150 3233 529 
Q 2819 -91 2034 -91 
Q 1250 -91 836 529 
Q 422 1150 422 2328 
Q 422 3509 836 4129 
Q 1250 4750 2034 4750 
z
" transform="scale(0.015625)"/>
       </defs>
       <use xlink:href="#DejaVuSans-32"/>
       <use xlink:href="#DejaVuSans-30" transform="translate(63.623047 0)"/>
       <use xlink:href="#DejaVuSans-30" transform="translate(127.246094 0)"/>
       <use xlink:href="#DejaVuSans-30" transform="translate(190.869141 0)"/>
      </g>
     </g>
    </g>
    <g id="xtick_2">
     <g id="line2d_2">
      <g>
       <use xlink:href="#mabaac094fc" x="247.854545" y="320.4" style="stroke: #000000; stroke-width: 0.8"/>
      </g>
     </g>
     <g id="text_2">
      <!-- 4000 -->
      <g transform="translate(235.129545 334.998438) scale(0.1 -0.1)">
       <defs>
        <path id="DejaVuSans-34" d="M 2419 4116 
L 825 1625 
L 2419 1625 
L 2419 4116 
z
M 2253 4666 
L 3047 4666 
L 3047 1625 
L 3713 1625 
L 3713 1100 
L 3047 1100 
L 3047 0 
L 2419 0 
L 2419 1100 
L 313 1100 
L 313 1709 
L 2253 4666 
z
" transform="scale(0.015625)"/>
       </defs>
       <use xlink:href="#DejaVuSans-34"/>
       <use xlink:href="#DejaVuSans-30" transform="translate(63.623047 0)"/>
       <use xlink:href="#DejaVuSans-30" transform="translate(127.246094 0)"/>
       <use xlink:href="#DejaVuSans-30" transform="translate(190.869141 0)"/>
      </g>
     </g>
    </g>
    <g id="xtick_3">
     <g id="line2d_3">
      <g>
       <use xlink:href="#mabaac094fc" x="338.036364" y="320.4" style="stroke: #000000; stroke-width: 0.8"/>
      </g>
     </g>
     <g id="text_3">
      <!-- 6000 -->
      <g transform="translate(325.311364 334.998438) scale(0.1 -0.1)">
       <defs>
        <path id="DejaVuSans-36" d="M 2113 2584 
Q 1688 2584 1439 2293 
Q 1191 2003 1191 1497 
Q 1191 994 1439 701 
Q 1688 409 2113 409 
Q 2538 409 2786 701 
Q 3034 994 3034 1497 
Q 3034 2003 2786 2293 
Q 2538 2584 2113 2584 
z
M 3366 4563 
L 3366 3988 
Q 3128 4100 2886 4159 
Q 2644 4219 2406 4219 
Q 1781 4219 1451 3797 
Q 1122 3375 1075 2522 
Q 1259 2794 1537 2939 
Q 1816 3084 2150 3084 
Q 2853 3084 3261 2657 
Q 3669 2231 3669 1497 
Q 3669 778 3244 343 
Q 2819 -91 2113 -91 
Q 1303 -91 875 529 
Q 447 1150 447 2328 
Q 447 3434 972 4092 
Q 1497 4750 2381 4750 
Q 2619 4750 2861 4703 
Q 3103 4656 3366 4563 
z
" transform="scale(0.015625)"/>
       </defs>
       <use xlink:href="#DejaVuSans-36"/>
       <use xlink:href="#DejaVuSans-30" transform="translate(63.623047 0)"/>
       <use xlink:href="#DejaVuSans-30" transform="translate(127.246094 0)"/>
       <use xlink:href="#DejaVuSans-30" transform="translate(190.869141 0)"/>
      </g>
     </g>
    </g>
    <g id="xtick_4">
     <g id="line2d_4">
      <g>
       <use xlink:href="#mabaac094fc" x="428.218182" y="320.4" style="stroke: #000000; stroke-width: 0.8"/>
      </g>
     </g>
     <g id="text_4">
      <!-- 8000 -->
      <g transform="translate(415.493182 334.998438) scale(0.1 -0.1)">
       <defs>
        <path id="DejaVuSans-38" d="M 2034 2216 
Q 1584 2216 1326 1975 
Q 1069 1734 1069 1313 
Q 1069 891 1326 650 
Q 1584 409 2034 409 
Q 2484 409 2743 651 
Q 3003 894 3003 1313 
Q 3003 1734 2745 1975 
Q 2488 2216 2034 2216 
z
M 1403 2484 
Q 997 2584 770 2862 
Q 544 3141 544 3541 
Q 544 4100 942 4425 
Q 1341 4750 2034 4750 
Q 2731 4750 3128 4425 
Q 3525 4100 3525 3541 
Q 3525 3141 3298 2862 
Q 3072 2584 2669 2484 
Q 3125 2378 3379 2068 
Q 3634 1759 3634 1313 
Q 3634 634 3220 271 
Q 2806 -91 2034 -91 
Q 1263 -91 848 271 
Q 434 634 434 1313 
Q 434 1759 690 2068 
Q 947 2378 1403 2484 
z
M 1172 3481 
Q 1172 3119 1398 2916 
Q 1625 2713 2034 2713 
Q 2441 2713 2670 2916 
Q 2900 3119 2900 3481 
Q 2900 3844 2670 4047 
Q 2441 4250 2034 4250 
Q 1625 4250 1398 4047 
Q 1172 3844 1172 3481 
z
" transform="scale(0.015625)"/>
       </defs>
       <use xlink:href="#DejaVuSans-38"/>
       <use xlink:href="#DejaVuSans-30" transform="translate(63.623047 0)"/>
       <use xlink:href="#DejaVuSans-30" transform="translate(127.246094 0)"/>
       <use xlink:href="#DejaVuSans-30" transform="translate(190.869141 0)"/>
      </g>
     </g>
    </g>
    <g id="xtick_5">
     <g id="line2d_5">
      <g>
       <use xlink:href="#mabaac094fc" x="518.4" y="320.4" style="stroke: #000000; stroke-width: 0.8"/>
      </g>
     </g>
     <g id="text_5">
      <!-- 10000 -->
      <g transform="translate(502.49375 334.998438) scale(0.1 -0.1)">
       <defs>
        <path id="DejaVuSans-31" d="M 794 531 
L 1825 531 
L 1825 4091 
L 703 3866 
L 703 4441 
L 1819 4666 
L 2450 4666 
L 2450 531 
L 3481 531 
L 3481 0 
L 794 0 
L 794 531 
z
" transform="scale(0.015625)"/>
       </defs>
       <use xlink:href="#DejaVuSans-31"/>
       <use xlink:href="#DejaVuSans-30" transform="translate(63.623047 0)"/>
       <use xlink:href="#DejaVuSans-30" transform="translate(127.246094 0)"/>
       <use xlink:href="#DejaVuSans-30" transform="translate(190.869141 0)"/>
       <use xlink:href="#DejaVuSans-30" transform="translate(254.492188 0)"/>
      </g>
     </g>
    </g>
    <g id="text_6">
     <!-- Training steps -->
     <g transform="translate(260.464844 348.676562) scale(0.1 -0.1)">
      <defs>
       <path id="DejaVuSans-54" d="M -19 4666 
L 3928 4666 
L 3928 4134 
L 2272 4134 
L 2272 0 
L 1638 0 
L 1638 4134 
L -19 4134 
L -19 4666 
z
" transform="scale(0.015625)"/>
       <path id="DejaVuSans-72" d="M 2631 2963 
Q 2534 3019 2420 3045 
Q 2306 3072 2169 3072 
Q 1681 3072 1420 2755 
Q 1159 2438 1159 1844 
L 1159 0 
L 581 0 
L 581 3500 
L 1159 3500 
L 1159 2956 
Q 1341 3275 1631 3429 
Q 1922 3584 2338 3584 
Q 2397 3584 2469 3576 
Q 2541 3569 2628 3553 
L 2631 2963 
z
" transform="scale(0.015625)"/>
       <path id="DejaVuSans-61" d="M 2194 1759 
Q 1497 1759 1228 1600 
Q 959 1441 959 1056 
Q 959 750 1161 570 
Q 1363 391 1709 391 
Q 2188 391 2477 730 
Q 2766 1069 2766 1631 
L 2766 1759 
L 2194 1759 
z
M 3341 1997 
L 3341 0 
L 2766 0 
L 2766 531 
Q 2569 213 2275 61 
Q 1981 -91 1556 -91 
Q 1019 -91 701 211 
Q 384 513 384 1019 
Q 384 1609 779 1909 
Q 1175 2209 1959 2209 
L 2766 2209 
L 2766 2266 
Q 2766 2663 2505 2880 
Q 2244 3097 1772 3097 
Q 1472 3097 1187 3025 
Q 903 2953 641 2809 
L 641 3341 
Q 956 3463 1253 3523 
Q 1550 3584 1831 3584 
Q 2591 3584 2966 3190 
Q 3341 2797 3341 1997 
z
" transform="scale(0.015625)"/>
       <path id="DejaVuSans-69" d="M 603 3500 
L 1178 3500 
L 1178 0 
L 603 0 
L 603 3500 
z
M 603 4863 
L 1178 4863 
L 1178 4134 
L 603 4134 
L 603 4863 
z
" transform="scale(0.015625)"/>
       <path id="DejaVuSans-6e" d="M 3513 2113 
L 3513 0 
L 2938 0 
L 2938 2094 
Q 2938 2591 2744 2837 
Q 2550 3084 2163 3084 
Q 1697 3084 1428 2787 
Q 1159 2491 1159 1978 
L 1159 0 
L 581 0 
L 581 3500 
L 1159 3500 
L 1159 2956 
Q 1366 3272 1645 3428 
Q 1925 3584 2291 3584 
Q 2894 3584 3203 3211 
Q 3513 2838 3513 2113 
z
" transform="scale(0.015625)"/>
       <path id="DejaVuSans-67" d="M 2906 1791 
Q 2906 2416 2648 2759 
Q 2391 3103 1925 3103 
Q 1463 3103 1205 2759 
Q 947 2416 947 1791 
Q 947 1169 1205 825 
Q 1463 481 1925 481 
Q 2391 481 2648 825 
Q 2906 1169 2906 1791 
z
M 3481 434 
Q 3481 -459 3084 -895 
Q 2688 -1331 1869 -1331 
Q 1566 -1331 1297 -1286 
Q 1028 -1241 775 -1147 
L 775 -588 
Q 1028 -725 1275 -790 
Q 1522 -856 1778 -856 
Q 2344 -856 2625 -561 
Q 2906 -266 2906 331 
L 2906 616 
Q 2728 306 2450 153 
Q 2172 0 1784 0 
Q 1141 0 747 490 
Q 353 981 353 1791 
Q 353 2603 747 3093 
Q 1141 3584 1784 3584 
Q 2172 3584 2450 3431 
Q 2728 3278 2906 2969 
L 2906 3500 
L 3481 3500 
L 3481 434 
z
" transform="scale(0.015625)"/>
       <path id="DejaVuSans-20" transform="scale(0.015625)"/>
       <path id="DejaVuSans-73" d="M 2834 3397 
L 2834 2853 
Q 2591 2978 2328 3040 
Q 2066 3103 1784 3103 
Q 1356 3103 1142 2972 
Q 928 2841 928 2578 
Q 928 2378 1081 2264 
Q 1234 2150 1697 2047 
L 1894 2003 
Q 2506 1872 2764 1633 
Q 3022 1394 3022 966 
Q 3022 478 2636 193 
Q 2250 -91 1575 -91 
Q 1294 -91 989 -36 
Q 684 19 347 128 
L 347 722 
Q 666 556 975 473 
Q 1284 391 1588 391 
Q 1994 391 2212 530 
Q 2431 669 2431 922 
Q 2431 1156 2273 1281 
Q 2116 1406 1581 1522 
L 1381 1569 
Q 847 1681 609 1914 
Q 372 2147 372 2553 
Q 372 3047 722 3315 
Q 1072 3584 1716 3584 
Q 2034 3584 2315 3537 
Q 2597 3491 2834 3397 
z
" transform="scale(0.015625)"/>
       <path id="DejaVuSans-74" d="M 1172 4494 
L 1172 3500 
L 2356 3500 
L 2356 3053 
L 1172 3053 
L 1172 1153 
Q 1172 725 1289 603 
Q 1406 481 1766 481 
L 2356 481 
L 2356 0 
L 1766 0 
Q 1100 0 847 248 
Q 594 497 594 1153 
L 594 3053 
L 172 3053 
L 172 3500 
L 594 3500 
L 594 4494 
L 1172 4494 
z
" transform="scale(0.015625)"/>
       <path id="DejaVuSans-65" d="M 3597 1894 
L 3597 1613 
L 953 1613 
Q 991 1019 1311 708 
Q 1631 397 2203 397 
Q 2534 397 2845 478 
Q 3156 559 3463 722 
L 3463 178 
Q 3153 47 2828 -22 
Q 2503 -91 2169 -91 
Q 1331 -91 842 396 
Q 353 884 353 1716 
Q 353 2575 817 3079 
Q 1281 3584 2069 3584 
Q 2775 3584 3186 3129 
Q 3597 2675 3597 1894 
z
M 3022 2063 
Q 3016 2534 2758 2815 
Q 2500 3097 2075 3097 
Q 1594 3097 1305 2825 
Q 1016 2553 972 2059 
L 3022 2063 
z
" transform="scale(0.015625)"/>
       <path id="DejaVuSans-70" d="M 1159 525 
L 1159 -1331 
L 581 -1331 
L 581 3500 
L 1159 3500 
L 1159 2969 
Q 1341 3281 1617 3432 
Q 1894 3584 2278 3584 
Q 2916 3584 3314 3078 
Q 3713 2572 3713 1747 
Q 3713 922 3314 415 
Q 2916 -91 2278 -91 
Q 1894 -91 1617 61 
Q 1341 213 1159 525 
z
M 3116 1747 
Q 3116 2381 2855 2742 
Q 2594 3103 2138 3103 
Q 1681 3103 1420 2742 
Q 1159 2381 1159 1747 
Q 1159 1113 1420 752 
Q 1681 391 2138 391 
Q 2594 391 2855 752 
Q 3116 1113 3116 1747 
z
" transform="scale(0.015625)"/>
      </defs>
      <use xlink:href="#DejaVuSans-54"/>
      <use xlink:href="#DejaVuSans-72" transform="translate(46.333984 0)"/>
      <use xlink:href="#DejaVuSans-61" transform="translate(87.447266 0)"/>
      <use xlink:href="#DejaVuSans-69" transform="translate(148.726562 0)"/>
      <use xlink:href="#DejaVuSans-6e" transform="translate(176.509766 0)"/>
      <use xlink:href="#DejaVuSans-69" transform="translate(239.888672 0)"/>
      <use xlink:href="#DejaVuSans-6e" transform="translate(267.671875 0)"/>
      <use xlink:href="#DejaVuSans-67" transform="translate(331.050781 0)"/>
      <use xlink:href="#DejaVuSans-20" transform="translate(394.527344 0)"/>
      <use xlink:href="#DejaVuSans-73" transform="translate(426.314453 0)"/>
      <use xlink:href="#DejaVuSans-74" transform="translate(478.414062 0)"/>
      <use xlink:href="#DejaVuSans-65" transform="translate(517.623047 0)"/>
      <use xlink:href="#DejaVuSans-70" transform="translate(579.146484 0)"/>
      <use xlink:href="#DejaVuSans-73" transform="translate(642.623047 0)"/>
     </g>
    </g>
   </g>
   <g id="matplotlib.axis_2">
    <g id="ytick_1">
     <g id="line2d_6">
      <defs>
       <path id="mca169509cd" d="M 0 0 
L -3.5 0 
" style="stroke: #000000; stroke-width: 0.8"/>
      </defs>
      <g>
       <use xlink:href="#mca169509cd" x="72" y="290.508951" style="stroke: #000000; stroke-width: 0.8"/>
      </g>
     </g>
     <g id="text_7">
      <!-- 0.2 -->
      <g transform="translate(49.096875 294.30817) scale(0.1 -0.1)">
       <defs>
        <path id="DejaVuSans-2e" d="M 684 794 
L 1344 794 
L 1344 0 
L 684 0 
L 684 794 
z
" transform="scale(0.015625)"/>
       </defs>
       <use xlink:href="#DejaVuSans-30"/>
       <use xlink:href="#DejaVuSans-2e" transform="translate(63.623047 0)"/>
       <use xlink:href="#DejaVuSans-32" transform="translate(95.410156 0)"/>
      </g>
     </g>
    </g>
    <g id="ytick_2">
     <g id="line2d_7">
      <g>
       <use xlink:href="#mca169509cd" x="72" y="253.680307" style="stroke: #000000; stroke-width: 0.8"/>
      </g>
     </g>
     <g id="text_8">
      <!-- 0.4 -->
      <g transform="translate(49.096875 257.479526) scale(0.1 -0.1)">
       <use xlink:href="#DejaVuSans-30"/>
       <use xlink:href="#DejaVuSans-2e" transform="translate(63.623047 0)"/>
       <use xlink:href="#DejaVuSans-34" transform="translate(95.410156 0)"/>
      </g>
     </g>
    </g>
    <g id="ytick_3">
     <g id="line2d_8">
      <g>
       <use xlink:href="#mca169509cd" x="72" y="216.851662" style="stroke: #000000; stroke-width: 0.8"/>
      </g>
     </g>
     <g id="text_9">
      <!-- 0.6 -->
      <g transform="translate(49.096875 220.650881) scale(0.1 -0.1)">
       <use xlink:href="#DejaVuSans-30"/>
       <use xlink:href="#DejaVuSans-2e" transform="translate(63.623047 0)"/>
       <use xlink:href="#DejaVuSans-36" transform="translate(95.410156 0)"/>
      </g>
     </g>
    </g>
    <g id="ytick_4">
     <g id="line2d_9">
      <g>
       <use xlink:href="#mca169509cd" x="72" y="180.023018" style="stroke: #000000; stroke-width: 0.8"/>
      </g>
     </g>
     <g id="text_10">
      <!-- 0.8 -->
      <g transform="translate(49.096875 183.822237) scale(0.1 -0.1)">
       <use xlink:href="#DejaVuSans-30"/>
       <use xlink:href="#DejaVuSans-2e" transform="translate(63.623047 0)"/>
       <use xlink:href="#DejaVuSans-38" transform="translate(95.410156 0)"/>
      </g>
     </g>
    </g>
    <g id="ytick_5">
     <g id="line2d_10">
      <g>
       <use xlink:href="#mca169509cd" x="72" y="143.194373" style="stroke: #000000; stroke-width: 0.8"/>
      </g>
     </g>
     <g id="text_11">
      <!-- 1.0 -->
      <g transform="translate(49.096875 146.993592) scale(0.1 -0.1)">
       <use xlink:href="#DejaVuSans-31"/>
       <use xlink:href="#DejaVuSans-2e" transform="translate(63.623047 0)"/>
       <use xlink:href="#DejaVuSans-30" transform="translate(95.410156 0)"/>
      </g>
     </g>
    </g>
    <g id="ytick_6">
     <g id="line2d_11">
      <g>
       <use xlink:href="#mca169509cd" x="72" y="106.365729" style="stroke: #000000; stroke-width: 0.8"/>
      </g>
     </g>
     <g id="text_12">
      <!-- 1.2 -->
      <g transform="translate(49.096875 110.164948) scale(0.1 -0.1)">
       <use xlink:href="#DejaVuSans-31"/>
       <use xlink:href="#DejaVuSans-2e" transform="translate(63.623047 0)"/>
       <use xlink:href="#DejaVuSans-32" transform="translate(95.410156 0)"/>
      </g>
     </g>
    </g>
    <g id="ytick_7">
     <g id="line2d_12">
      <g>
       <use xlink:href="#mca169509cd" x="72" y="69.537084" style="stroke: #000000; stroke-width: 0.8"/>
      </g>
     </g>
     <g id="text_13">
      <!-- 1.4 -->
      <g transform="translate(49.096875 73.336303) scale(0.1 -0.1)">
       <use xlink:href="#DejaVuSans-31"/>
       <use xlink:href="#DejaVuSans-2e" transform="translate(63.623047 0)"/>
       <use xlink:href="#DejaVuSans-34" transform="translate(95.410156 0)"/>
      </g>
     </g>
    </g>
    <g id="text_14">
     <!-- Loss -->
     <g transform="translate(43.017187 192.767187) rotate(-90) scale(0.1 -0.1)">
      <defs>
       <path id="DejaVuSans-4c" d="M 628 4666 
L 1259 4666 
L 1259 531 
L 3531 531 
L 3531 0 
L 628 0 
L 628 4666 
z
" transform="scale(0.015625)"/>
       <path id="DejaVuSans-6f" d="M 1959 3097 
Q 1497 3097 1228 2736 
Q 959 2375 959 1747 
Q 959 1119 1226 758 
Q 1494 397 1959 397 
Q 2419 397 2687 759 
Q 2956 1122 2956 1747 
Q 2956 2369 2687 2733 
Q 2419 3097 1959 3097 
z
M 1959 3584 
Q 2709 3584 3137 3096 
Q 3566 2609 3566 1747 
Q 3566 888 3137 398 
Q 2709 -91 1959 -91 
Q 1206 -91 779 398 
Q 353 888 353 1747 
Q 353 2609 779 3096 
Q 1206 3584 1959 3584 
z
" transform="scale(0.015625)"/>
      </defs>
      <use xlink:href="#DejaVuSans-4c"/>
      <use xlink:href="#DejaVuSans-6f" transform="translate(53.962891 0)"/>
      <use xlink:href="#DejaVuSans-73" transform="translate(115.144531 0)"/>
      <use xlink:href="#DejaVuSans-73" transform="translate(167.244141 0)"/>
     </g>
    </g>
   </g>
   <g id="line2d_13">
    <path d="M 72 157.299744 
L 76.509091 135.349872 
L 81.018182 138.425064 
L 85.527273 173.559591 
L 90.036364 185.805115 
L 94.545455 184.424041 
L 99.054545 189.322251 
L 103.563636 196.614322 
L 108.072727 185.068542 
L 112.581818 191.384655 
L 117.090909 182.490537 
L 121.6 205.526854 
L 126.109091 200.812788 
L 130.618182 174.314578 
L 135.127273 207.202558 
L 139.636364 196.595908 
L 144.145455 188.604092 
L 148.654545 209.504348 
L 153.163636 212.119182 
L 157.672727 193.097187 
L 162.181818 211.401023 
L 166.690909 208.473146 
L 171.2 216.096675 
L 175.709091 206.31867 
L 180.218182 208.878261 
L 184.727273 202.046547 
L 189.236364 219.319182 
L 193.745455 188.51202 
L 198.254545 209.72532 
L 202.763636 206.705371 
L 207.272727 217.348849 
L 211.781818 212.119182 
L 216.290909 212.008696 
L 220.8 201.899233 
L 225.309091 212.487468 
L 229.818182 168.495652 
L 234.327273 200.647059 
L 238.836364 199.302813 
L 243.345455 214.402558 
L 247.854545 211.861381 
L 252.363636 153.966752 
L 256.872727 190.55601 
L 261.381818 178.034271 
L 265.890909 207.368286 
L 270.4 175.806138 
L 274.909091 202.78312 
L 279.418182 205.176982 
L 283.927273 198.455754 
L 288.436364 217.753964 
L 292.945455 217.017391 
L 297.454545 218.177494 
L 301.963636 218.067008 
L 306.472727 211.419437 
L 310.981818 199.855243 
L 315.490909 219.982097 
L 320 215.360102 
L 324.509091 221.841944 
L 329.018182 216.37289 
L 333.527273 218.729923 
L 338.036364 209.596419 
L 342.545455 210.903836 
L 347.054545 206.373913 
L 351.563636 224.070077 
L 356.072727 220.921228 
L 360.581818 224.585678 
L 365.090909 216.814834 
L 369.6 209.154476 
L 374.109091 220.663427 
L 378.618182 222.007673 
L 383.127273 212.524297 
L 387.636364 214.107928 
L 392.145455 222.854731 
L 396.654545 212.800512 
L 401.163636 223.978005 
L 405.672727 224.033248 
L 410.181818 216.851662 
L 414.690909 227.23734 
L 419.2 227.36624 
L 423.709091 220.147826 
L 428.218182 220.129412 
L 432.727273 220.700256 
L 437.236364 230.404604 
L 441.745455 218.030179 
L 446.254545 223.609719 
L 450.763636 224.25422 
L 455.272727 224.217391 
L 459.781818 220.884399 
L 464.290909 229.907417 
L 468.8 223.978005 
L 473.309091 229.520716 
L 477.818182 227.881841 
L 482.327273 227.23734 
L 486.836364 219.319182 
L 491.345455 227.182097 
L 495.854545 230.90179 
L 500.363636 225.395908 
L 504.872727 232.061893 
L 509.381818 233.369309 
L 513.890909 234.474169 
L 518.4 227.347826 
" clip-path="url(#pb08e0b4b19)" style="fill: none; stroke: #1f77b4; stroke-width: 1.5; stroke-linecap: square"/>
   </g>
   <g id="line2d_14">
    <path d="M 72 73.569821 
L 76.509091 55.8 
L 81.018182 88.853708 
L 85.527273 103.732481 
L 90.036364 95.20665 
L 94.545455 106.107928 
L 99.054545 83.421483 
L 103.563636 94.378005 
L 108.072727 96.348338 
L 112.581818 100.049616 
L 117.090909 110.343223 
L 121.6 110.785166 
L 126.109091 113.657801 
L 130.618182 112.46087 
L 135.127273 112.221483 
L 139.636364 111.540153 
L 144.145455 119.200512 
L 148.654545 116.93555 
L 153.163636 117.451151 
L 157.672727 117.267008 
L 162.181818 118.408696 
L 166.690909 118.961125 
L 171.2 121.483887 
L 175.709091 109.367263 
L 180.218182 113.860358 
L 184.727273 118.29821 
L 189.236364 111.466496 
L 193.745455 114.76266 
L 198.254545 99.036829 
L 202.763636 114.228645 
L 207.272727 105.573913 
L 211.781818 109.05422 
L 216.290909 105.445013 
L 220.8 104.082353 
L 225.309091 111.613811 
L 229.818182 114.468031 
L 234.327273 116.364706 
L 238.836364 117.027621 
L 243.345455 115.720205 
L 247.854545 118.574425 
L 252.363636 118.463939 
L 256.872727 114.707417 
L 261.381818 115.738619 
L 265.890909 120.673657 
L 270.4 116.604092 
L 274.909091 110.490537 
L 279.418182 102.277749 
L 283.927273 98.31867 
L 288.436364 95.759079 
L 292.945455 111.724297 
L 297.454545 110.343223 
L 301.963636 112.442455 
L 306.472727 114.76266 
L 310.981818 112.663427 
L 315.490909 114.578517 
L 320 106.807673 
L 324.509091 107.360102 
L 329.018182 110.214322 
L 333.527273 108.667519 
L 338.036364 112.16624 
L 342.545455 112.939642 
L 347.054545 97.895141 
L 351.563636 106.255243 
L 356.072727 113.731458 
L 360.581818 113.492072 
L 365.090909 115.057289 
L 369.6 114.946803 
L 374.109091 112.055754 
L 378.618182 119.016368 
L 383.127273 120.379028 
L 387.636364 118.905882 
L 392.145455 116.291049 
L 396.654545 113.602558 
L 401.163636 117.248593 
L 405.672727 108.354476 
L 410.181818 109.956522 
L 414.690909 119.568798 
L 419.2 113.418414 
L 423.709091 114.89156 
L 428.218182 116.51202 
L 432.727273 116.493606 
L 437.236364 118.519182 
L 441.745455 119.403069 
L 446.254545 120.342199 
L 450.763636 116.825064 
L 455.272727 120.4711 
L 459.781818 119.071611 
L 464.290909 117.359079 
L 468.8 121.53913 
L 473.309091 120.489514 
L 477.818182 118.29821 
L 482.327273 121.226087 
L 486.836364 121.115601 
L 491.345455 121.005115 
L 495.854545 123.638363 
L 500.363636 123.159591 
L 504.872727 123.71202 
L 509.381818 123.214834 
L 513.890909 124.26445 
L 518.4 123.45422 
" clip-path="url(#pb08e0b4b19)" style="fill: none; stroke: #ff7f0e; stroke-width: 1.5; stroke-linecap: square"/>
   </g>
   <g id="line2d_15">
    <path d="M 72 174.388235 
L 76.509091 167.225064 
L 81.018182 158.993862 
L 85.527273 173.393862 
L 90.036364 186.615345 
L 94.545455 177.979028 
L 99.054545 182.601023 
L 103.563636 142.292072 
L 108.072727 147.245524 
L 112.581818 186.504859 
L 117.090909 168.753453 
L 121.6 183.35601 
L 126.109091 186.817903 
L 130.618182 172.49156 
L 135.127273 155.421483 
L 139.636364 181.882864 
L 144.145455 171.331458 
L 148.654545 174.701279 
L 153.163636 179.838875 
L 157.672727 180.778005 
L 162.181818 183.982097 
L 166.690909 197.332481 
L 171.2 176.192839 
L 175.709091 187.70179 
L 180.218182 188.567263 
L 184.727273 196.430179 
L 189.236364 193.53913 
L 193.745455 191.403069 
L 198.254545 197.479795 
L 202.763636 182.140665 
L 207.272727 176.303325 
L 211.781818 174.461893 
L 216.290909 188.38312 
L 220.8 192.029156 
L 225.309091 192.379028 
L 229.818182 170.18977 
L 234.327273 190.021995 
L 238.836364 178.586701 
L 243.345455 176.616368 
L 247.854545 189.856266 
L 252.363636 185.160614 
L 256.872727 196.780051 
L 261.381818 194.386189 
L 265.890909 194.736061 
L 270.4 199.855243 
L 274.909091 187.351918 
L 279.418182 189.543223 
L 283.927273 204.606138 
L 288.436364 201.807161 
L 292.945455 187.44399 
L 297.454545 194.736061 
L 301.963636 192.397442 
L 306.472727 190.997954 
L 310.981818 199.413299 
L 315.490909 193.686445 
L 320 205.324297 
L 324.509091 200.002558 
L 329.018182 194.294118 
L 333.527273 204.182609 
L 338.036364 197.792839 
L 342.545455 201.236317 
L 347.054545 199.763171 
L 351.563636 194.238875 
L 356.072727 197.406138 
L 360.581818 189.322251 
L 365.090909 200.536573 
L 369.6 185.565729 
L 374.109091 200.996931 
L 378.618182 196.430179 
L 383.127273 199.413299 
L 387.636364 206.613299 
L 392.145455 205.37954 
L 396.654545 201.512532 
L 401.163636 193.207673 
L 405.672727 200.407673 
L 410.181818 204.127366 
L 414.690909 203.980051 
L 419.2 203.574936 
L 423.709091 206.723785 
L 428.218182 203.740665 
L 432.727273 205.655754 
L 437.236364 202.543734 
L 441.745455 204.587724 
L 446.254545 203.869565 
L 450.763636 212.929412 
L 455.272727 205.692583 
L 459.781818 208.417903 
L 464.290909 203.740665 
L 468.8 209.191304 
L 473.309091 209.412276 
L 477.818182 201.825575 
L 482.327273 207.626087 
L 486.836364 211.824552 
L 491.345455 208.694118 
L 495.854545 212.800512 
L 500.363636 209.946292 
L 504.872727 209.688491 
L 509.381818 214.310486 
L 513.890909 210.075192 
L 518.4 209.762148 
" clip-path="url(#pb08e0b4b19)" style="fill: none; stroke: #2ca02c; stroke-width: 1.5; stroke-linecap: square"/>
   </g>
   <g id="line2d_16">
    <path d="M 72 150.689003 
L 76.509091 170.134527 
L 81.018182 167.077749 
L 85.527273 181.201535 
L 90.036364 180.225575 
L 94.545455 153.837852 
L 99.054545 166.580563 
L 103.563636 160.356522 
L 108.072727 167.648593 
L 112.581818 166.893606 
L 117.090909 172.767775 
L 121.6 141.131969 
L 126.109091 175.621995 
L 130.618182 163.855243 
L 135.127273 155.274169 
L 139.636364 165.586189 
L 144.145455 179.82046 
L 148.654545 173.706905 
L 153.163636 170.539642 
L 157.672727 182.932481 
L 162.181818 181.753964 
L 166.690909 169.140153 
L 171.2 172.896675 
L 175.709091 183.466496 
L 180.218182 178.973402 
L 184.727273 185.326343 
L 189.236364 172.270588 
L 193.745455 184.092583 
L 198.254545 169.048082 
L 202.763636 178.734015 
L 207.272727 164.720716 
L 211.781818 165.346803 
L 216.290909 174.940665 
L 220.8 184.58977 
L 225.309091 181.698721 
L 229.818182 186.265473 
L 234.327273 182.159079 
L 238.836364 189.211765 
L 243.345455 177.684399 
L 247.854545 178.75243 
L 252.363636 183.669054 
L 256.872727 188.456777 
L 261.381818 187.646547 
L 265.890909 192.452685 
L 270.4 174.903836 
L 274.909091 170.392327 
L 279.418182 184.350384 
L 283.927273 156.084399 
L 288.436364 186.836317 
L 292.945455 189.395908 
L 297.454545 162.363683 
L 301.963636 187.112532 
L 306.472727 180.059847 
L 310.981818 185.436829 
L 315.490909 189.708951 
L 320 192.084399 
L 324.509091 184.110997 
L 329.018182 187.683376 
L 333.527273 190.279795 
L 338.036364 192.7289 
L 342.545455 190.150895 
L 347.054545 181.680307 
L 351.563636 189.635294 
L 356.072727 190.97954 
L 360.581818 195.398977 
L 365.090909 194.073146 
L 369.6 195.969821 
L 374.109091 196.356522 
L 378.618182 195.251662 
L 383.127273 195.601535 
L 387.636364 196.411765 
L 392.145455 199.358056 
L 396.654545 194.588747 
L 401.163636 198.013811 
L 405.672727 194.312532 
L 410.181818 191.845013 
L 414.690909 197.848082 
L 419.2 192.544757 
L 423.709091 199.284399 
L 428.218182 192.931458 
L 432.727273 197.203581 
L 437.236364 196.872123 
L 441.745455 194.257289 
L 446.254545 196.061893 
L 450.763636 196.724808 
L 455.272727 197.07468 
L 459.781818 197.866496 
L 464.290909 194.183632 
L 468.8 197.240409 
L 473.309091 198.345269 
L 477.818182 198.787212 
L 482.327273 196.338107 
L 486.836364 198.400512 
L 491.345455 196.982609 
L 495.854545 196.356522 
L 500.363636 196.927366 
L 504.872727 198.621483 
L 509.381818 198.105882 
L 513.890909 194.791304 
L 518.4 198.824041 
" clip-path="url(#pb08e0b4b19)" style="fill: none; stroke: #d62728; stroke-width: 1.5; stroke-linecap: square"/>
   </g>
   <g id="line2d_17">
    <path d="M 72 168.642967 
L 76.509091 204.035294 
L 81.018182 205.232225 
L 85.527273 190.537596 
L 90.036364 209.651662 
L 94.545455 205.729412 
L 99.054545 212.818926 
L 103.563636 211.548338 
L 108.072727 214.715601 
L 112.581818 212.653197 
L 117.090909 216.262404 
L 121.6 208.767775 
L 126.109091 220.03734 
L 130.618182 224.291049 
L 135.127273 221.602558 
L 139.636364 219.190281 
L 144.145455 214.660358 
L 148.654545 230.754476 
L 153.163636 225.929923 
L 157.672727 214.107928 
L 162.181818 223.241432 
L 166.690909 222.265473 
L 171.2 220.313555 
L 175.709091 230.90179 
L 180.218182 227.91867 
L 184.727273 231.233248 
L 189.236364 237.567775 
L 193.745455 227.200512 
L 198.254545 230.054731 
L 202.763636 231.675192 
L 207.272727 227.439898 
L 211.781818 235.505371 
L 216.290909 235.763171 
L 220.8 237.03376 
L 225.309091 232.282864 
L 229.818182 236.904859 
L 234.327273 227.384655 
L 238.836364 243.589258 
L 243.345455 239.906394 
L 247.854545 236.149872 
L 252.363636 237.438875 
L 256.872727 240.311509 
L 261.381818 236.812788 
L 265.890909 239.740665 
L 270.4 249.592327 
L 274.909091 244.878261 
L 279.418182 238.709463 
L 283.927273 237.71509 
L 288.436364 242.208184 
L 292.945455 253.569821 
L 297.454545 251.746803 
L 301.963636 246.332992 
L 306.472727 249.426598 
L 310.981818 251.507417 
L 315.490909 250.494629 
L 320 256.976471 
L 324.509091 249.352941 
L 329.018182 259.462404 
L 333.527273 255.153453 
L 338.036364 257.657801 
L 342.545455 251.838875 
L 347.054545 266.64399 
L 351.563636 258.412788 
L 356.072727 257.4 
L 360.581818 256.884399 
L 365.090909 258.707417 
L 369.6 249.794885 
L 374.109091 263.66087 
L 378.618182 271.836829 
L 383.127273 265.207673 
L 387.636364 265.760102 
L 392.145455 260.346292 
L 396.654545 258.578517 
L 401.163636 260.014834 
L 405.672727 278.502813 
L 410.181818 277.839898 
L 414.690909 273.604604 
L 419.2 273.181074 
L 423.709091 272.057801 
L 428.218182 264.434271 
L 432.727273 295.70179 
L 437.236364 281.062404 
L 441.745455 286.494629 
L 446.254545 281.98312 
L 450.763636 284.303325 
L 455.272727 269.406138 
L 459.781818 295.885934 
L 464.290909 287.341688 
L 468.8 301.097187 
L 473.309091 288.998977 
L 477.818182 295.480818 
L 482.327273 303.417391 
L 486.836364 296.309463 
L 491.345455 294.468031 
L 495.854545 298.703325 
L 500.363636 296.861893 
L 504.872727 305.792839 
L 509.381818 295.167775 
L 513.890909 307.8 
L 518.4 306.713555 
" clip-path="url(#pb08e0b4b19)" style="fill: none; stroke: #9467bd; stroke-width: 1.5; stroke-linecap: square"/>
   </g>
   <g id="line2d_18">
    <path d="M 72 146.159079 
L 76.509091 180.409719 
L 81.018182 176.28491 
L 85.527273 172.859847 
L 90.036364 182.472123 
L 94.545455 180.943734 
L 99.054545 174.148849 
L 103.563636 160.94578 
L 108.072727 178.531458 
L 112.581818 162.934527 
L 117.090909 166.175448 
L 121.6 165.696675 
L 126.109091 171.570844 
L 130.618182 178.476215 
L 135.127273 187.223018 
L 139.636364 171.865473 
L 144.145455 184.884399 
L 148.654545 182.656266 
L 153.163636 176.892583 
L 157.672727 182.987724 
L 162.181818 167.814322 
L 166.690909 178.310486 
L 171.2 184.773913 
L 175.709091 179.82046 
L 180.218182 162.916113 
L 184.727273 185.915601 
L 189.236364 172.325831 
L 193.745455 171.055243 
L 198.254545 168.403581 
L 202.763636 174.995908 
L 207.272727 178.734015 
L 211.781818 156.526343 
L 216.290909 183.48491 
L 220.8 178.715601 
L 225.309091 176.690026 
L 229.818182 168.845524 
L 234.327273 182.490537 
L 238.836364 187.094118 
L 243.345455 187.591304 
L 247.854545 193.207673 
L 252.363636 188.898721 
L 256.872727 177.758056 
L 261.381818 183.945269 
L 265.890909 190.335038 
L 270.4 189.009207 
L 274.909091 184.534527 
L 279.418182 187.407161 
L 283.927273 194.294118 
L 288.436364 182.803581 
L 292.945455 193.134015 
L 297.454545 180.483376 
L 301.963636 184.939642 
L 306.472727 186.854731 
L 310.981818 184.773913 
L 315.490909 179.028645 
L 320 189.138107 
L 324.509091 184.110997 
L 329.018182 195.159591 
L 333.527273 188.880307 
L 338.036364 189.046036 
L 342.545455 180.538619 
L 347.054545 186.689003 
L 351.563636 189.985166 
L 356.072727 192.102813 
L 360.581818 192.894629 
L 365.090909 190.316624 
L 369.6 189.174936 
L 374.109091 194.22046 
L 378.618182 194.22046 
L 383.127273 192.04757 
L 387.636364 195.969821 
L 392.145455 192.360614 
L 396.654545 193.391816 
L 401.163636 194.423018 
L 405.672727 186.026087 
L 410.181818 188.088491 
L 414.690909 194.294118 
L 419.2 192.397442 
L 423.709091 186.468031 
L 428.218182 189.87468 
L 432.727273 194.920205 
L 437.236364 194.036317 
L 441.745455 195.914578 
L 446.254545 196.559079 
L 450.763636 196.411765 
L 455.272727 197.719182 
L 459.781818 196.00665 
L 464.290909 196.595908 
L 468.8 197.958568 
L 473.309091 194.073146 
L 477.818182 197.056266 
L 482.327273 197.866496 
L 486.836364 198.234783 
L 491.345455 195.859335 
L 495.854545 197.848082 
L 500.363636 199.008184 
L 504.872727 198.050639 
L 509.381818 198.234783 
L 513.890909 199.726343 
L 518.4 199.6711 
" clip-path="url(#pb08e0b4b19)" style="fill: none; stroke: #8c564b; stroke-width: 1.5; stroke-linecap: square"/>
   </g>
   <g id="line2d_19">
    <path d="M 72 150.689003 
L 76.509091 170.134527 
L 81.018182 167.077749 
L 85.527273 181.201535 
L 90.036364 180.225575 
L 94.545455 153.837852 
L 99.054545 166.580563 
L 103.563636 160.356522 
L 108.072727 167.648593 
L 112.581818 166.893606 
L 117.090909 172.767775 
L 121.6 141.131969 
L 126.109091 175.621995 
L 130.618182 163.855243 
L 135.127273 155.274169 
L 139.636364 165.586189 
L 144.145455 179.82046 
L 148.654545 173.706905 
L 153.163636 170.539642 
L 157.672727 182.932481 
L 162.181818 181.753964 
L 166.690909 169.140153 
L 171.2 172.896675 
L 175.709091 183.466496 
L 180.218182 178.973402 
L 184.727273 185.326343 
L 189.236364 172.270588 
L 193.745455 184.092583 
L 198.254545 169.048082 
L 202.763636 178.734015 
L 207.272727 164.720716 
L 211.781818 165.346803 
L 216.290909 174.940665 
L 220.8 184.58977 
L 225.309091 181.698721 
L 229.818182 186.265473 
L 234.327273 182.159079 
L 238.836364 189.211765 
L 243.345455 177.684399 
L 247.854545 178.75243 
L 252.363636 183.669054 
L 256.872727 188.456777 
L 261.381818 187.646547 
L 265.890909 192.452685 
L 270.4 174.903836 
L 274.909091 170.392327 
L 279.418182 184.350384 
L 283.927273 156.084399 
L 288.436364 186.836317 
L 292.945455 189.395908 
L 297.454545 162.363683 
L 301.963636 187.112532 
L 306.472727 180.059847 
L 310.981818 185.436829 
L 315.490909 189.708951 
L 320 192.084399 
L 324.509091 184.110997 
L 329.018182 187.683376 
L 333.527273 190.279795 
L 338.036364 192.7289 
L 342.545455 190.150895 
L 347.054545 181.680307 
L 351.563636 189.635294 
L 356.072727 190.97954 
L 360.581818 195.398977 
L 365.090909 194.073146 
L 369.6 195.969821 
L 374.109091 196.356522 
L 378.618182 195.251662 
L 383.127273 195.601535 
L 387.636364 196.411765 
L 392.145455 199.358056 
L 396.654545 194.588747 
L 401.163636 198.013811 
L 405.672727 194.312532 
L 410.181818 191.845013 
L 414.690909 197.848082 
L 419.2 192.544757 
L 423.709091 199.284399 
L 428.218182 192.931458 
L 432.727273 197.203581 
L 437.236364 196.872123 
L 441.745455 194.257289 
L 446.254545 196.061893 
L 450.763636 196.724808 
L 455.272727 197.07468 
L 459.781818 197.866496 
L 464.290909 194.183632 
L 468.8 197.240409 
L 473.309091 198.345269 
L 477.818182 198.787212 
L 482.327273 196.338107 
L 486.836364 198.400512 
L 491.345455 196.982609 
L 495.854545 196.356522 
L 500.363636 196.927366 
L 504.872727 198.621483 
L 509.381818 198.105882 
L 513.890909 194.791304 
L 518.4 198.824041 
" clip-path="url(#pb08e0b4b19)" style="fill: none; stroke: #e377c2; stroke-width: 1.5; stroke-linecap: square"/>
   </g>
   <g id="line2d_20">
    <path d="M 72 117.06445 
L 76.509091 128.757545 
L 81.018182 139.253708 
L 85.527273 136.91509 
L 90.036364 147.116624 
L 94.545455 147.945269 
L 99.054545 138.940665 
L 103.563636 145.385678 
L 108.072727 140.892583 
L 112.581818 150.118159 
L 117.090909 139.437852 
L 121.6 126.087468 
L 126.109091 156.010742 
L 130.618182 114.89156 
L 135.127273 135.331458 
L 139.636364 149.105371 
L 144.145455 150.044501 
L 148.654545 144.004604 
L 153.163636 143.709974 
L 157.672727 159.804092 
L 162.181818 161.442967 
L 166.690909 160.927366 
L 171.2 138.53555 
L 175.709091 152.640921 
L 180.218182 163.11867 
L 184.727273 142.88133 
L 189.236364 153.230179 
L 193.745455 152.180563 
L 198.254545 156.931458 
L 202.763636 133.895141 
L 207.272727 168.329923 
L 211.781818 150.707417 
L 216.290909 160.098721 
L 220.8 159.638363 
L 225.309091 157.594373 
L 229.818182 152.143734 
L 234.327273 137.17289 
L 238.836364 157.981074 
L 243.345455 155.458312 
L 247.854545 160.153964 
L 252.363636 165.604604 
L 256.872727 152.12532 
L 261.381818 156.4711 
L 265.890909 153.469565 
L 270.4 159.122762 
L 274.909091 158.330946 
L 279.418182 151.259847 
L 283.927273 159.491049 
L 288.436364 159.343734 
L 292.945455 159.564706 
L 297.454545 171.147315 
L 301.963636 157.981074 
L 306.472727 164.960102 
L 310.981818 153.19335 
L 315.490909 160.080307 
L 320 168.679795 
L 324.509091 166.304348 
L 329.018182 159.104348 
L 333.527273 164.426087 
L 338.036364 166.359591 
L 342.545455 157.649616 
L 347.054545 157.944246 
L 351.563636 164.868031 
L 356.072727 170.079284 
L 360.581818 168.771867 
L 365.090909 161.369309 
L 369.6 164.812788 
L 374.109091 166.488491 
L 378.618182 165.530946 
L 383.127273 160.227621 
L 387.636364 159.748849 
L 392.145455 163.11867 
L 396.654545 167.943223 
L 401.163636 170.797442 
L 405.672727 159.969821 
L 410.181818 168.845524 
L 414.690909 169.968798 
L 419.2 166.267519 
L 423.709091 164.241944 
L 428.218182 167.46445 
L 432.727273 164.020972 
L 437.236364 169.747826 
L 441.745455 168.753453 
L 446.254545 175.842967 
L 450.763636 170.44757 
L 455.272727 172.031202 
L 459.781818 169.895141 
L 464.290909 168.201023 
L 468.8 175.861381 
L 473.309091 170.926343 
L 477.818182 167.722251 
L 482.327273 174.774936 
L 486.836364 171.331458 
L 491.345455 170.042455 
L 495.854545 174.811765 
L 500.363636 169.121739 
L 504.872727 174.517136 
L 509.381818 174.553964 
L 513.890909 167.961637 
L 518.4 175.290537 
" clip-path="url(#pb08e0b4b19)" style="fill: none; stroke: #7f7f7f; stroke-width: 1.5; stroke-linecap: square"/>
   </g>
   <g id="patch_3">
    <path d="M 72 320.4 
L 72 43.2 
" style="fill: none; stroke: #000000; stroke-width: 0.8; stroke-linejoin: miter; stroke-linecap: square"/>
   </g>
   <g id="patch_4">
    <path d="M 518.4 320.4 
L 518.4 43.2 
" style="fill: none; stroke: #000000; stroke-width: 0.8; stroke-linejoin: miter; stroke-linecap: square"/>
   </g>
   <g id="patch_5">
    <path d="M 72 320.4 
L 518.4 320.4 
" style="fill: none; stroke: #000000; stroke-width: 0.8; stroke-linejoin: miter; stroke-linecap: square"/>
   </g>
   <g id="patch_6">
    <path d="M 72 43.2 
L 518.4 43.2 
" style="fill: none; stroke: #000000; stroke-width: 0.8; stroke-linejoin: miter; stroke-linecap: square"/>
   </g>
   <g id="text_15">
    <!-- Enhancers (mouse) -->
    <g transform="translate(237.016875 37.2) scale(0.12 -0.12)">
     <defs>
      <path id="DejaVuSans-45" d="M 628 4666 
L 3578 4666 
L 3578 4134 
L 1259 4134 
L 1259 2753 
L 3481 2753 
L 3481 2222 
L 1259 2222 
L 1259 531 
L 3634 531 
L 3634 0 
L 628 0 
L 628 4666 
z
" transform="scale(0.015625)"/>
      <path id="DejaVuSans-68" d="M 3513 2113 
L 3513 0 
L 2938 0 
L 2938 2094 
Q 2938 2591 2744 2837 
Q 2550 3084 2163 3084 
Q 1697 3084 1428 2787 
Q 1159 2491 1159 1978 
L 1159 0 
L 581 0 
L 581 4863 
L 1159 4863 
L 1159 2956 
Q 1366 3272 1645 3428 
Q 1925 3584 2291 3584 
Q 2894 3584 3203 3211 
Q 3513 2838 3513 2113 
z
" transform="scale(0.015625)"/>
      <path id="DejaVuSans-63" d="M 3122 3366 
L 3122 2828 
Q 2878 2963 2633 3030 
Q 2388 3097 2138 3097 
Q 1578 3097 1268 2742 
Q 959 2388 959 1747 
Q 959 1106 1268 751 
Q 1578 397 2138 397 
Q 2388 397 2633 464 
Q 2878 531 3122 666 
L 3122 134 
Q 2881 22 2623 -34 
Q 2366 -91 2075 -91 
Q 1284 -91 818 406 
Q 353 903 353 1747 
Q 353 2603 823 3093 
Q 1294 3584 2113 3584 
Q 2378 3584 2631 3529 
Q 2884 3475 3122 3366 
z
" transform="scale(0.015625)"/>
      <path id="DejaVuSans-28" d="M 1984 4856 
Q 1566 4138 1362 3434 
Q 1159 2731 1159 2009 
Q 1159 1288 1364 580 
Q 1569 -128 1984 -844 
L 1484 -844 
Q 1016 -109 783 600 
Q 550 1309 550 2009 
Q 550 2706 781 3412 
Q 1013 4119 1484 4856 
L 1984 4856 
z
" transform="scale(0.015625)"/>
      <path id="DejaVuSans-6d" d="M 3328 2828 
Q 3544 3216 3844 3400 
Q 4144 3584 4550 3584 
Q 5097 3584 5394 3201 
Q 5691 2819 5691 2113 
L 5691 0 
L 5113 0 
L 5113 2094 
Q 5113 2597 4934 2840 
Q 4756 3084 4391 3084 
Q 3944 3084 3684 2787 
Q 3425 2491 3425 1978 
L 3425 0 
L 2847 0 
L 2847 2094 
Q 2847 2600 2669 2842 
Q 2491 3084 2119 3084 
Q 1678 3084 1418 2786 
Q 1159 2488 1159 1978 
L 1159 0 
L 581 0 
L 581 3500 
L 1159 3500 
L 1159 2956 
Q 1356 3278 1631 3431 
Q 1906 3584 2284 3584 
Q 2666 3584 2933 3390 
Q 3200 3197 3328 2828 
z
" transform="scale(0.015625)"/>
      <path id="DejaVuSans-75" d="M 544 1381 
L 544 3500 
L 1119 3500 
L 1119 1403 
Q 1119 906 1312 657 
Q 1506 409 1894 409 
Q 2359 409 2629 706 
Q 2900 1003 2900 1516 
L 2900 3500 
L 3475 3500 
L 3475 0 
L 2900 0 
L 2900 538 
Q 2691 219 2414 64 
Q 2138 -91 1772 -91 
Q 1169 -91 856 284 
Q 544 659 544 1381 
z
M 1991 3584 
L 1991 3584 
z
" transform="scale(0.015625)"/>
      <path id="DejaVuSans-29" d="M 513 4856 
L 1013 4856 
Q 1481 4119 1714 3412 
Q 1947 2706 1947 2009 
Q 1947 1309 1714 600 
Q 1481 -109 1013 -844 
L 513 -844 
Q 928 -128 1133 580 
Q 1338 1288 1338 2009 
Q 1338 2731 1133 3434 
Q 928 4138 513 4856 
z
" transform="scale(0.015625)"/>
     </defs>
     <use xlink:href="#DejaVuSans-45"/>
     <use xlink:href="#DejaVuSans-6e" transform="translate(63.183594 0)"/>
     <use xlink:href="#DejaVuSans-68" transform="translate(126.5625 0)"/>
     <use xlink:href="#DejaVuSans-61" transform="translate(189.941406 0)"/>
     <use xlink:href="#DejaVuSans-6e" transform="translate(251.220703 0)"/>
     <use xlink:href="#DejaVuSans-63" transform="translate(314.599609 0)"/>
     <use xlink:href="#DejaVuSans-65" transform="translate(369.580078 0)"/>
     <use xlink:href="#DejaVuSans-72" transform="translate(431.103516 0)"/>
     <use xlink:href="#DejaVuSans-73" transform="translate(472.216797 0)"/>
     <use xlink:href="#DejaVuSans-20" transform="translate(524.316406 0)"/>
     <use xlink:href="#DejaVuSans-28" transform="translate(556.103516 0)"/>
     <use xlink:href="#DejaVuSans-6d" transform="translate(595.117188 0)"/>
     <use xlink:href="#DejaVuSans-6f" transform="translate(692.529297 0)"/>
     <use xlink:href="#DejaVuSans-75" transform="translate(753.710938 0)"/>
     <use xlink:href="#DejaVuSans-73" transform="translate(817.089844 0)"/>
     <use xlink:href="#DejaVuSans-65" transform="translate(869.189453 0)"/>
     <use xlink:href="#DejaVuSans-29" transform="translate(930.712891 0)"/>
    </g>
   </g>
   <g id="legend_1">
    <g id="patch_7">
     <path d="M 334.210684 147.679025 
L 512.569 147.679025 
Q 514.235 147.679025 514.235 146.013025 
L 514.235 49.031 
Q 514.235 47.365 512.569 47.365 
L 334.210684 47.365 
Q 332.544684 47.365 332.544684 49.031 
L 332.544684 146.013025 
Q 332.544684 147.679025 334.210684 147.679025 
z
" style="fill: #ffffff; opacity: 0.8; stroke: #cccccc; stroke-linejoin: miter"/>
    </g>
    <g id="line2d_21">
     <path d="M 335.876684 54.110998 
L 344.206684 54.110998 
L 352.536684 54.110998 
" style="fill: none; stroke: #1f77b4; stroke-width: 1.5; stroke-linecap: square"/>
    </g>
    <g id="text_16">
     <!-- NT-MS V2 (50M) with rand. weights -->
     <g transform="translate(359.200684 57.026498) scale(0.0833 -0.0833)">
      <defs>
       <path id="DejaVuSans-4e" d="M 628 4666 
L 1478 4666 
L 3547 763 
L 3547 4666 
L 4159 4666 
L 4159 0 
L 3309 0 
L 1241 3903 
L 1241 0 
L 628 0 
L 628 4666 
z
" transform="scale(0.015625)"/>
       <path id="DejaVuSans-2d" d="M 313 2009 
L 1997 2009 
L 1997 1497 
L 313 1497 
L 313 2009 
z
" transform="scale(0.015625)"/>
       <path id="DejaVuSans-4d" d="M 628 4666 
L 1569 4666 
L 2759 1491 
L 3956 4666 
L 4897 4666 
L 4897 0 
L 4281 0 
L 4281 4097 
L 3078 897 
L 2444 897 
L 1241 4097 
L 1241 0 
L 628 0 
L 628 4666 
z
" transform="scale(0.015625)"/>
       <path id="DejaVuSans-53" d="M 3425 4513 
L 3425 3897 
Q 3066 4069 2747 4153 
Q 2428 4238 2131 4238 
Q 1616 4238 1336 4038 
Q 1056 3838 1056 3469 
Q 1056 3159 1242 3001 
Q 1428 2844 1947 2747 
L 2328 2669 
Q 3034 2534 3370 2195 
Q 3706 1856 3706 1288 
Q 3706 609 3251 259 
Q 2797 -91 1919 -91 
Q 1588 -91 1214 -16 
Q 841 59 441 206 
L 441 856 
Q 825 641 1194 531 
Q 1563 422 1919 422 
Q 2459 422 2753 634 
Q 3047 847 3047 1241 
Q 3047 1584 2836 1778 
Q 2625 1972 2144 2069 
L 1759 2144 
Q 1053 2284 737 2584 
Q 422 2884 422 3419 
Q 422 4038 858 4394 
Q 1294 4750 2059 4750 
Q 2388 4750 2728 4690 
Q 3069 4631 3425 4513 
z
" transform="scale(0.015625)"/>
       <path id="DejaVuSans-56" d="M 1831 0 
L 50 4666 
L 709 4666 
L 2188 738 
L 3669 4666 
L 4325 4666 
L 2547 0 
L 1831 0 
z
" transform="scale(0.015625)"/>
       <path id="DejaVuSans-35" d="M 691 4666 
L 3169 4666 
L 3169 4134 
L 1269 4134 
L 1269 2991 
Q 1406 3038 1543 3061 
Q 1681 3084 1819 3084 
Q 2600 3084 3056 2656 
Q 3513 2228 3513 1497 
Q 3513 744 3044 326 
Q 2575 -91 1722 -91 
Q 1428 -91 1123 -41 
Q 819 9 494 109 
L 494 744 
Q 775 591 1075 516 
Q 1375 441 1709 441 
Q 2250 441 2565 725 
Q 2881 1009 2881 1497 
Q 2881 1984 2565 2268 
Q 2250 2553 1709 2553 
Q 1456 2553 1204 2497 
Q 953 2441 691 2322 
L 691 4666 
z
" transform="scale(0.015625)"/>
       <path id="DejaVuSans-77" d="M 269 3500 
L 844 3500 
L 1563 769 
L 2278 3500 
L 2956 3500 
L 3675 769 
L 4391 3500 
L 4966 3500 
L 4050 0 
L 3372 0 
L 2619 2869 
L 1863 0 
L 1184 0 
L 269 3500 
z
" transform="scale(0.015625)"/>
       <path id="DejaVuSans-64" d="M 2906 2969 
L 2906 4863 
L 3481 4863 
L 3481 0 
L 2906 0 
L 2906 525 
Q 2725 213 2448 61 
Q 2172 -91 1784 -91 
Q 1150 -91 751 415 
Q 353 922 353 1747 
Q 353 2572 751 3078 
Q 1150 3584 1784 3584 
Q 2172 3584 2448 3432 
Q 2725 3281 2906 2969 
z
M 947 1747 
Q 947 1113 1208 752 
Q 1469 391 1925 391 
Q 2381 391 2643 752 
Q 2906 1113 2906 1747 
Q 2906 2381 2643 2742 
Q 2381 3103 1925 3103 
Q 1469 3103 1208 2742 
Q 947 2381 947 1747 
z
" transform="scale(0.015625)"/>
      </defs>
      <use xlink:href="#DejaVuSans-4e"/>
      <use xlink:href="#DejaVuSans-54" transform="translate(74.804688 0)"/>
      <use xlink:href="#DejaVuSans-2d" transform="translate(126.763672 0)"/>
      <use xlink:href="#DejaVuSans-4d" transform="translate(162.847656 0)"/>
      <use xlink:href="#DejaVuSans-53" transform="translate(249.126953 0)"/>
      <use xlink:href="#DejaVuSans-20" transform="translate(312.603516 0)"/>
      <use xlink:href="#DejaVuSans-56" transform="translate(344.390625 0)"/>
      <use xlink:href="#DejaVuSans-32" transform="translate(412.798828 0)"/>
      <use xlink:href="#DejaVuSans-20" transform="translate(476.421875 0)"/>
      <use xlink:href="#DejaVuSans-28" transform="translate(508.208984 0)"/>
      <use xlink:href="#DejaVuSans-35" transform="translate(547.222656 0)"/>
      <use xlink:href="#DejaVuSans-30" transform="translate(610.845703 0)"/>
      <use xlink:href="#DejaVuSans-4d" transform="translate(674.46875 0)"/>
      <use xlink:href="#DejaVuSans-29" transform="translate(760.748047 0)"/>
      <use xlink:href="#DejaVuSans-20" transform="translate(799.761719 0)"/>
      <use xlink:href="#DejaVuSans-77" transform="translate(831.548828 0)"/>
      <use xlink:href="#DejaVuSans-69" transform="translate(913.335938 0)"/>
      <use xlink:href="#DejaVuSans-74" transform="translate(941.119141 0)"/>
      <use xlink:href="#DejaVuSans-68" transform="translate(980.328125 0)"/>
      <use xlink:href="#DejaVuSans-20" transform="translate(1043.707031 0)"/>
      <use xlink:href="#DejaVuSans-72" transform="translate(1075.494141 0)"/>
      <use xlink:href="#DejaVuSans-61" transform="translate(1116.607422 0)"/>
      <use xlink:href="#DejaVuSans-6e" transform="translate(1177.886719 0)"/>
      <use xlink:href="#DejaVuSans-64" transform="translate(1241.265625 0)"/>
      <use xlink:href="#DejaVuSans-2e" transform="translate(1304.742188 0)"/>
      <use xlink:href="#DejaVuSans-20" transform="translate(1336.529297 0)"/>
      <use xlink:href="#DejaVuSans-77" transform="translate(1368.316406 0)"/>
      <use xlink:href="#DejaVuSans-65" transform="translate(1450.103516 0)"/>
      <use xlink:href="#DejaVuSans-69" transform="translate(1511.626953 0)"/>
      <use xlink:href="#DejaVuSans-67" transform="translate(1539.410156 0)"/>
      <use xlink:href="#DejaVuSans-68" transform="translate(1602.886719 0)"/>
      <use xlink:href="#DejaVuSans-74" transform="translate(1666.265625 0)"/>
      <use xlink:href="#DejaVuSans-73" transform="translate(1705.474609 0)"/>
     </g>
    </g>
    <g id="line2d_22">
     <path d="M 335.876684 66.337877 
L 344.206684 66.337877 
L 352.536684 66.337877 
" style="fill: none; stroke: #ff7f0e; stroke-width: 1.5; stroke-linecap: square"/>
    </g>
    <g id="text_17">
     <!-- NT-MS V2 (500M) with rand. weights -->
     <g transform="translate(359.200684 69.253377) scale(0.0833 -0.0833)">
      <use xlink:href="#DejaVuSans-4e"/>
      <use xlink:href="#DejaVuSans-54" transform="translate(74.804688 0)"/>
      <use xlink:href="#DejaVuSans-2d" transform="translate(126.763672 0)"/>
      <use xlink:href="#DejaVuSans-4d" transform="translate(162.847656 0)"/>
      <use xlink:href="#DejaVuSans-53" transform="translate(249.126953 0)"/>
      <use xlink:href="#DejaVuSans-20" transform="translate(312.603516 0)"/>
      <use xlink:href="#DejaVuSans-56" transform="translate(344.390625 0)"/>
      <use xlink:href="#DejaVuSans-32" transform="translate(412.798828 0)"/>
      <use xlink:href="#DejaVuSans-20" transform="translate(476.421875 0)"/>
      <use xlink:href="#DejaVuSans-28" transform="translate(508.208984 0)"/>
      <use xlink:href="#DejaVuSans-35" transform="translate(547.222656 0)"/>
      <use xlink:href="#DejaVuSans-30" transform="translate(610.845703 0)"/>
      <use xlink:href="#DejaVuSans-30" transform="translate(674.46875 0)"/>
      <use xlink:href="#DejaVuSans-4d" transform="translate(738.091797 0)"/>
      <use xlink:href="#DejaVuSans-29" transform="translate(824.371094 0)"/>
      <use xlink:href="#DejaVuSans-20" transform="translate(863.384766 0)"/>
      <use xlink:href="#DejaVuSans-77" transform="translate(895.171875 0)"/>
      <use xlink:href="#DejaVuSans-69" transform="translate(976.958984 0)"/>
      <use xlink:href="#DejaVuSans-74" transform="translate(1004.742188 0)"/>
      <use xlink:href="#DejaVuSans-68" transform="translate(1043.951172 0)"/>
      <use xlink:href="#DejaVuSans-20" transform="translate(1107.330078 0)"/>
      <use xlink:href="#DejaVuSans-72" transform="translate(1139.117188 0)"/>
      <use xlink:href="#DejaVuSans-61" transform="translate(1180.230469 0)"/>
      <use xlink:href="#DejaVuSans-6e" transform="translate(1241.509766 0)"/>
      <use xlink:href="#DejaVuSans-64" transform="translate(1304.888672 0)"/>
      <use xlink:href="#DejaVuSans-2e" transform="translate(1368.365234 0)"/>
      <use xlink:href="#DejaVuSans-20" transform="translate(1400.152344 0)"/>
      <use xlink:href="#DejaVuSans-77" transform="translate(1431.939453 0)"/>
      <use xlink:href="#DejaVuSans-65" transform="translate(1513.726562 0)"/>
      <use xlink:href="#DejaVuSans-69" transform="translate(1575.25 0)"/>
      <use xlink:href="#DejaVuSans-67" transform="translate(1603.033203 0)"/>
      <use xlink:href="#DejaVuSans-68" transform="translate(1666.509766 0)"/>
      <use xlink:href="#DejaVuSans-74" transform="translate(1729.888672 0)"/>
      <use xlink:href="#DejaVuSans-73" transform="translate(1769.097656 0)"/>
     </g>
    </g>
    <g id="line2d_23">
     <path d="M 335.876684 78.564755 
L 344.206684 78.564755 
L 352.536684 78.564755 
" style="fill: none; stroke: #2ca02c; stroke-width: 1.5; stroke-linecap: square"/>
    </g>
    <g id="text_18">
     <!-- NT-MS V2 (50M) -->
     <g transform="translate(359.200684 81.480255) scale(0.0833 -0.0833)">
      <use xlink:href="#DejaVuSans-4e"/>
      <use xlink:href="#DejaVuSans-54" transform="translate(74.804688 0)"/>
      <use xlink:href="#DejaVuSans-2d" transform="translate(126.763672 0)"/>
      <use xlink:href="#DejaVuSans-4d" transform="translate(162.847656 0)"/>
      <use xlink:href="#DejaVuSans-53" transform="translate(249.126953 0)"/>
      <use xlink:href="#DejaVuSans-20" transform="translate(312.603516 0)"/>
      <use xlink:href="#DejaVuSans-56" transform="translate(344.390625 0)"/>
      <use xlink:href="#DejaVuSans-32" transform="translate(412.798828 0)"/>
      <use xlink:href="#DejaVuSans-20" transform="translate(476.421875 0)"/>
      <use xlink:href="#DejaVuSans-28" transform="translate(508.208984 0)"/>
      <use xlink:href="#DejaVuSans-35" transform="translate(547.222656 0)"/>
      <use xlink:href="#DejaVuSans-30" transform="translate(610.845703 0)"/>
      <use xlink:href="#DejaVuSans-4d" transform="translate(674.46875 0)"/>
      <use xlink:href="#DejaVuSans-29" transform="translate(760.748047 0)"/>
     </g>
    </g>
    <g id="line2d_24">
     <path d="M 335.876684 90.791633 
L 344.206684 90.791633 
L 352.536684 90.791633 
" style="fill: none; stroke: #d62728; stroke-width: 1.5; stroke-linecap: square"/>
    </g>
    <g id="text_19">
     <!-- NT-1000g (500M) -->
     <g transform="translate(359.200684 93.707133) scale(0.0833 -0.0833)">
      <use xlink:href="#DejaVuSans-4e"/>
      <use xlink:href="#DejaVuSans-54" transform="translate(74.804688 0)"/>
      <use xlink:href="#DejaVuSans-2d" transform="translate(126.763672 0)"/>
      <use xlink:href="#DejaVuSans-31" transform="translate(162.847656 0)"/>
      <use xlink:href="#DejaVuSans-30" transform="translate(226.470703 0)"/>
      <use xlink:href="#DejaVuSans-30" transform="translate(290.09375 0)"/>
      <use xlink:href="#DejaVuSans-30" transform="translate(353.716797 0)"/>
      <use xlink:href="#DejaVuSans-67" transform="translate(417.339844 0)"/>
      <use xlink:href="#DejaVuSans-20" transform="translate(480.816406 0)"/>
      <use xlink:href="#DejaVuSans-28" transform="translate(512.603516 0)"/>
      <use xlink:href="#DejaVuSans-35" transform="translate(551.617188 0)"/>
      <use xlink:href="#DejaVuSans-30" transform="translate(615.240234 0)"/>
      <use xlink:href="#DejaVuSans-30" transform="translate(678.863281 0)"/>
      <use xlink:href="#DejaVuSans-4d" transform="translate(742.486328 0)"/>
      <use xlink:href="#DejaVuSans-29" transform="translate(828.765625 0)"/>
     </g>
    </g>
    <g id="line2d_25">
     <path d="M 335.876684 103.018511 
L 344.206684 103.018511 
L 352.536684 103.018511 
" style="fill: none; stroke: #9467bd; stroke-width: 1.5; stroke-linecap: square"/>
    </g>
    <g id="text_20">
     <!-- NT-MS V2 (250M) -->
     <g transform="translate(359.200684 105.934011) scale(0.0833 -0.0833)">
      <use xlink:href="#DejaVuSans-4e"/>
      <use xlink:href="#DejaVuSans-54" transform="translate(74.804688 0)"/>
      <use xlink:href="#DejaVuSans-2d" transform="translate(126.763672 0)"/>
      <use xlink:href="#DejaVuSans-4d" transform="translate(162.847656 0)"/>
      <use xlink:href="#DejaVuSans-53" transform="translate(249.126953 0)"/>
      <use xlink:href="#DejaVuSans-20" transform="translate(312.603516 0)"/>
      <use xlink:href="#DejaVuSans-56" transform="translate(344.390625 0)"/>
      <use xlink:href="#DejaVuSans-32" transform="translate(412.798828 0)"/>
      <use xlink:href="#DejaVuSans-20" transform="translate(476.421875 0)"/>
      <use xlink:href="#DejaVuSans-28" transform="translate(508.208984 0)"/>
      <use xlink:href="#DejaVuSans-32" transform="translate(547.222656 0)"/>
      <use xlink:href="#DejaVuSans-35" transform="translate(610.845703 0)"/>
      <use xlink:href="#DejaVuSans-30" transform="translate(674.46875 0)"/>
      <use xlink:href="#DejaVuSans-4d" transform="translate(738.091797 0)"/>
      <use xlink:href="#DejaVuSans-29" transform="translate(824.371094 0)"/>
     </g>
    </g>
    <g id="line2d_26">
     <path d="M 335.876684 115.245389 
L 344.206684 115.245389 
L 352.536684 115.245389 
" style="fill: none; stroke: #8c564b; stroke-width: 1.5; stroke-linecap: square"/>
    </g>
    <g id="text_21">
     <!-- NT-MS V2 (100M) -->
     <g transform="translate(359.200684 118.160889) scale(0.0833 -0.0833)">
      <use xlink:href="#DejaVuSans-4e"/>
      <use xlink:href="#DejaVuSans-54" transform="translate(74.804688 0)"/>
      <use xlink:href="#DejaVuSans-2d" transform="translate(126.763672 0)"/>
      <use xlink:href="#DejaVuSans-4d" transform="translate(162.847656 0)"/>
      <use xlink:href="#DejaVuSans-53" transform="translate(249.126953 0)"/>
      <use xlink:href="#DejaVuSans-20" transform="translate(312.603516 0)"/>
      <use xlink:href="#DejaVuSans-56" transform="translate(344.390625 0)"/>
      <use xlink:href="#DejaVuSans-32" transform="translate(412.798828 0)"/>
      <use xlink:href="#DejaVuSans-20" transform="translate(476.421875 0)"/>
      <use xlink:href="#DejaVuSans-28" transform="translate(508.208984 0)"/>
      <use xlink:href="#DejaVuSans-31" transform="translate(547.222656 0)"/>
      <use xlink:href="#DejaVuSans-30" transform="translate(610.845703 0)"/>
      <use xlink:href="#DejaVuSans-30" transform="translate(674.46875 0)"/>
      <use xlink:href="#DejaVuSans-4d" transform="translate(738.091797 0)"/>
      <use xlink:href="#DejaVuSans-29" transform="translate(824.371094 0)"/>
     </g>
    </g>
    <g id="line2d_27">
     <path d="M 335.876684 127.472267 
L 344.206684 127.472267 
L 352.536684 127.472267 
" style="fill: none; stroke: #e377c2; stroke-width: 1.5; stroke-linecap: square"/>
    </g>
    <g id="text_22">
     <!-- NT-Human-Ref. (500M) -->
     <g transform="translate(359.200684 130.387767) scale(0.0833 -0.0833)">
      <defs>
       <path id="DejaVuSans-48" d="M 628 4666 
L 1259 4666 
L 1259 2753 
L 3553 2753 
L 3553 4666 
L 4184 4666 
L 4184 0 
L 3553 0 
L 3553 2222 
L 1259 2222 
L 1259 0 
L 628 0 
L 628 4666 
z
" transform="scale(0.015625)"/>
       <path id="DejaVuSans-52" d="M 2841 2188 
Q 3044 2119 3236 1894 
Q 3428 1669 3622 1275 
L 4263 0 
L 3584 0 
L 2988 1197 
Q 2756 1666 2539 1819 
Q 2322 1972 1947 1972 
L 1259 1972 
L 1259 0 
L 628 0 
L 628 4666 
L 2053 4666 
Q 2853 4666 3247 4331 
Q 3641 3997 3641 3322 
Q 3641 2881 3436 2590 
Q 3231 2300 2841 2188 
z
M 1259 4147 
L 1259 2491 
L 2053 2491 
Q 2509 2491 2742 2702 
Q 2975 2913 2975 3322 
Q 2975 3731 2742 3939 
Q 2509 4147 2053 4147 
L 1259 4147 
z
" transform="scale(0.015625)"/>
       <path id="DejaVuSans-66" d="M 2375 4863 
L 2375 4384 
L 1825 4384 
Q 1516 4384 1395 4259 
Q 1275 4134 1275 3809 
L 1275 3500 
L 2222 3500 
L 2222 3053 
L 1275 3053 
L 1275 0 
L 697 0 
L 697 3053 
L 147 3053 
L 147 3500 
L 697 3500 
L 697 3744 
Q 697 4328 969 4595 
Q 1241 4863 1831 4863 
L 2375 4863 
z
" transform="scale(0.015625)"/>
      </defs>
      <use xlink:href="#DejaVuSans-4e"/>
      <use xlink:href="#DejaVuSans-54" transform="translate(74.804688 0)"/>
      <use xlink:href="#DejaVuSans-2d" transform="translate(126.763672 0)"/>
      <use xlink:href="#DejaVuSans-48" transform="translate(162.847656 0)"/>
      <use xlink:href="#DejaVuSans-75" transform="translate(238.042969 0)"/>
      <use xlink:href="#DejaVuSans-6d" transform="translate(301.421875 0)"/>
      <use xlink:href="#DejaVuSans-61" transform="translate(398.833984 0)"/>
      <use xlink:href="#DejaVuSans-6e" transform="translate(460.113281 0)"/>
      <use xlink:href="#DejaVuSans-2d" transform="translate(523.492188 0)"/>
      <use xlink:href="#DejaVuSans-52" transform="translate(559.576172 0)"/>
      <use xlink:href="#DejaVuSans-65" transform="translate(624.558594 0)"/>
      <use xlink:href="#DejaVuSans-66" transform="translate(686.082031 0)"/>
      <use xlink:href="#DejaVuSans-2e" transform="translate(714.037109 0)"/>
      <use xlink:href="#DejaVuSans-20" transform="translate(745.824219 0)"/>
      <use xlink:href="#DejaVuSans-28" transform="translate(777.611328 0)"/>
      <use xlink:href="#DejaVuSans-35" transform="translate(816.625 0)"/>
      <use xlink:href="#DejaVuSans-30" transform="translate(880.248047 0)"/>
      <use xlink:href="#DejaVuSans-30" transform="translate(943.871094 0)"/>
      <use xlink:href="#DejaVuSans-4d" transform="translate(1007.494141 0)"/>
      <use xlink:href="#DejaVuSans-29" transform="translate(1093.773438 0)"/>
     </g>
    </g>
    <g id="line2d_28">
     <path d="M 335.876684 139.699145 
L 344.206684 139.699145 
L 352.536684 139.699145 
" style="fill: none; stroke: #7f7f7f; stroke-width: 1.5; stroke-linecap: square"/>
    </g>
    <g id="text_23">
     <!-- NT-MS V2 (500M) -->
     <g transform="translate(359.200684 142.614645) scale(0.0833 -0.0833)">
      <use xlink:href="#DejaVuSans-4e"/>
      <use xlink:href="#DejaVuSans-54" transform="translate(74.804688 0)"/>
      <use xlink:href="#DejaVuSans-2d" transform="translate(126.763672 0)"/>
      <use xlink:href="#DejaVuSans-4d" transform="translate(162.847656 0)"/>
      <use xlink:href="#DejaVuSans-53" transform="translate(249.126953 0)"/>
      <use xlink:href="#DejaVuSans-20" transform="translate(312.603516 0)"/>
      <use xlink:href="#DejaVuSans-56" transform="translate(344.390625 0)"/>
      <use xlink:href="#DejaVuSans-32" transform="translate(412.798828 0)"/>
      <use xlink:href="#DejaVuSans-20" transform="translate(476.421875 0)"/>
      <use xlink:href="#DejaVuSans-28" transform="translate(508.208984 0)"/>
      <use xlink:href="#DejaVuSans-35" transform="translate(547.222656 0)"/>
      <use xlink:href="#DejaVuSans-30" transform="translate(610.845703 0)"/>
      <use xlink:href="#DejaVuSans-30" transform="translate(674.46875 0)"/>
      <use xlink:href="#DejaVuSans-4d" transform="translate(738.091797 0)"/>
      <use xlink:href="#DejaVuSans-29" transform="translate(824.371094 0)"/>
     </g>
    </g>
   </g>
  </g>
 </g>
 <defs>
  <clipPath id="pb08e0b4b19">
   <rect x="72" y="43.2" width="446.4" height="277.2"/>
  </clipPath>
 </defs>
</svg>
