<?xml version="1.0" encoding="utf-8" standalone="no"?>
<!DOCTYPE svg PUBLIC "-//W3C//DTD SVG 1.1//EN"
  "http://www.w3.org/Graphics/SVG/1.1/DTD/svg11.dtd">
<svg xmlns:xlink="http://www.w3.org/1999/xlink" width="576pt" height="360pt" viewBox="0 0 576 360" xmlns="http://www.w3.org/2000/svg" version="1.1">
 <metadata>
  <rdf:RDF xmlns:dc="http://purl.org/dc/elements/1.1/" xmlns:cc="http://creativecommons.org/ns#" xmlns:rdf="http://www.w3.org/1999/02/22-rdf-syntax-ns#">
   <cc:Work>
    <dc:type rdf:resource="http://purl.org/dc/dcmitype/StillImage"/>
    <dc:date>2025-01-07T03:55:02.186516</dc:date>
    <dc:format>image/svg+xml</dc:format>
    <dc:creator>
     <cc:Agent>
      <dc:title>Matplotlib v3.10.0, https://matplotlib.org/</dc:title>
     </cc:Agent>
    </dc:creator>
   </cc:Work>
  </rdf:RDF>
 </metadata>
 <defs>
  <style type="text/css">*{stroke-linejoin: round; stroke-linecap: butt}</style>
 </defs>
 <g id="figure_1">
  <g id="patch_1">
   <path d="M 0 360 
L 576 360 
L 576 0 
L 0 0 
z
" style="fill: #ffffff"/>
  </g>
  <g id="axes_1">
   <g id="patch_2">
    <path d="M 72 320.4 
L 518.4 320.4 
L 518.4 43.2 
L 72 43.2 
z
" style="fill: #ffffff"/>
   </g>
   <g id="matplotlib.axis_1">
    <g id="xtick_1">
     <g id="line2d_1">
      <defs>
       <path id="ma6dace7be8" d="M 0 0 
L 0 3.5 
" style="stroke: #000000; stroke-width: 0.8"/>
      </defs>
      <g>
       <use xlink:href="#ma6dace7be8" x="157.672727" y="320.4" style="stroke: #000000; stroke-width: 0.8"/>
      </g>
     </g>
     <g id="text_1">
      <!-- 2000 -->
      <g transform="translate(144.947727 334.998438) scale(0.1 -0.1)">
       <defs>
        <path id="DejaVuSans-32" d="M 1228 531 
L 3431 531 
L 3431 0 
L 469 0 
L 469 531 
Q 828 903 1448 1529 
Q 2069 2156 2228 2338 
Q 2531 2678 2651 2914 
Q 2772 3150 2772 3378 
Q 2772 3750 2511 3984 
Q 2250 4219 1831 4219 
Q 1534 4219 1204 4116 
Q 875 4013 500 3803 
L 500 4441 
Q 881 4594 1212 4672 
Q 1544 4750 1819 4750 
Q 2544 4750 2975 4387 
Q 3406 4025 3406 3419 
Q 3406 3131 3298 2873 
Q 3191 2616 2906 2266 
Q 2828 2175 2409 1742 
Q 1991 1309 1228 531 
z
" transform="scale(0.015625)"/>
        <path id="DejaVuSans-30" d="M 2034 4250 
Q 1547 4250 1301 3770 
Q 1056 3291 1056 2328 
Q 1056 1369 1301 889 
Q 1547 409 2034 409 
Q 2525 409 2770 889 
Q 3016 1369 3016 2328 
Q 3016 3291 2770 3770 
Q 2525 4250 2034 4250 
z
M 2034 4750 
Q 2819 4750 3233 4129 
Q 3647 3509 3647 2328 
Q 3647 1150 3233 529 
Q 2819 -91 2034 -91 
Q 1250 -91 836 529 
Q 422 1150 422 2328 
Q 422 3509 836 4129 
Q 1250 4750 2034 4750 
z
" transform="scale(0.015625)"/>
       </defs>
       <use xlink:href="#DejaVuSans-32"/>
       <use xlink:href="#DejaVuSans-30" transform="translate(63.623047 0)"/>
       <use xlink:href="#DejaVuSans-30" transform="translate(127.246094 0)"/>
       <use xlink:href="#DejaVuSans-30" transform="translate(190.869141 0)"/>
      </g>
     </g>
    </g>
    <g id="xtick_2">
     <g id="line2d_2">
      <g>
       <use xlink:href="#ma6dace7be8" x="247.854545" y="320.4" style="stroke: #000000; stroke-width: 0.8"/>
      </g>
     </g>
     <g id="text_2">
      <!-- 4000 -->
      <g transform="translate(235.129545 334.998438) scale(0.1 -0.1)">
       <defs>
        <path id="DejaVuSans-34" d="M 2419 4116 
L 825 1625 
L 2419 1625 
L 2419 4116 
z
M 2253 4666 
L 3047 4666 
L 3047 1625 
L 3713 1625 
L 3713 1100 
L 3047 1100 
L 3047 0 
L 2419 0 
L 2419 1100 
L 313 1100 
L 313 1709 
L 2253 4666 
z
" transform="scale(0.015625)"/>
       </defs>
       <use xlink:href="#DejaVuSans-34"/>
       <use xlink:href="#DejaVuSans-30" transform="translate(63.623047 0)"/>
       <use xlink:href="#DejaVuSans-30" transform="translate(127.246094 0)"/>
       <use xlink:href="#DejaVuSans-30" transform="translate(190.869141 0)"/>
      </g>
     </g>
    </g>
    <g id="xtick_3">
     <g id="line2d_3">
      <g>
       <use xlink:href="#ma6dace7be8" x="338.036364" y="320.4" style="stroke: #000000; stroke-width: 0.8"/>
      </g>
     </g>
     <g id="text_3">
      <!-- 6000 -->
      <g transform="translate(325.311364 334.998438) scale(0.1 -0.1)">
       <defs>
        <path id="DejaVuSans-36" d="M 2113 2584 
Q 1688 2584 1439 2293 
Q 1191 2003 1191 1497 
Q 1191 994 1439 701 
Q 1688 409 2113 409 
Q 2538 409 2786 701 
Q 3034 994 3034 1497 
Q 3034 2003 2786 2293 
Q 2538 2584 2113 2584 
z
M 3366 4563 
L 3366 3988 
Q 3128 4100 2886 4159 
Q 2644 4219 2406 4219 
Q 1781 4219 1451 3797 
Q 1122 3375 1075 2522 
Q 1259 2794 1537 2939 
Q 1816 3084 2150 3084 
Q 2853 3084 3261 2657 
Q 3669 2231 3669 1497 
Q 3669 778 3244 343 
Q 2819 -91 2113 -91 
Q 1303 -91 875 529 
Q 447 1150 447 2328 
Q 447 3434 972 4092 
Q 1497 4750 2381 4750 
Q 2619 4750 2861 4703 
Q 3103 4656 3366 4563 
z
" transform="scale(0.015625)"/>
       </defs>
       <use xlink:href="#DejaVuSans-36"/>
       <use xlink:href="#DejaVuSans-30" transform="translate(63.623047 0)"/>
       <use xlink:href="#DejaVuSans-30" transform="translate(127.246094 0)"/>
       <use xlink:href="#DejaVuSans-30" transform="translate(190.869141 0)"/>
      </g>
     </g>
    </g>
    <g id="xtick_4">
     <g id="line2d_4">
      <g>
       <use xlink:href="#ma6dace7be8" x="428.218182" y="320.4" style="stroke: #000000; stroke-width: 0.8"/>
      </g>
     </g>
     <g id="text_4">
      <!-- 8000 -->
      <g transform="translate(415.493182 334.998438) scale(0.1 -0.1)">
       <defs>
        <path id="DejaVuSans-38" d="M 2034 2216 
Q 1584 2216 1326 1975 
Q 1069 1734 1069 1313 
Q 1069 891 1326 650 
Q 1584 409 2034 409 
Q 2484 409 2743 651 
Q 3003 894 3003 1313 
Q 3003 1734 2745 1975 
Q 2488 2216 2034 2216 
z
M 1403 2484 
Q 997 2584 770 2862 
Q 544 3141 544 3541 
Q 544 4100 942 4425 
Q 1341 4750 2034 4750 
Q 2731 4750 3128 4425 
Q 3525 4100 3525 3541 
Q 3525 3141 3298 2862 
Q 3072 2584 2669 2484 
Q 3125 2378 3379 2068 
Q 3634 1759 3634 1313 
Q 3634 634 3220 271 
Q 2806 -91 2034 -91 
Q 1263 -91 848 271 
Q 434 634 434 1313 
Q 434 1759 690 2068 
Q 947 2378 1403 2484 
z
M 1172 3481 
Q 1172 3119 1398 2916 
Q 1625 2713 2034 2713 
Q 2441 2713 2670 2916 
Q 2900 3119 2900 3481 
Q 2900 3844 2670 4047 
Q 2441 4250 2034 4250 
Q 1625 4250 1398 4047 
Q 1172 3844 1172 3481 
z
" transform="scale(0.015625)"/>
       </defs>
       <use xlink:href="#DejaVuSans-38"/>
       <use xlink:href="#DejaVuSans-30" transform="translate(63.623047 0)"/>
       <use xlink:href="#DejaVuSans-30" transform="translate(127.246094 0)"/>
       <use xlink:href="#DejaVuSans-30" transform="translate(190.869141 0)"/>
      </g>
     </g>
    </g>
    <g id="xtick_5">
     <g id="line2d_5">
      <g>
       <use xlink:href="#ma6dace7be8" x="518.4" y="320.4" style="stroke: #000000; stroke-width: 0.8"/>
      </g>
     </g>
     <g id="text_5">
      <!-- 10000 -->
      <g transform="translate(502.49375 334.998438) scale(0.1 -0.1)">
       <defs>
        <path id="DejaVuSans-31" d="M 794 531 
L 1825 531 
L 1825 4091 
L 703 3866 
L 703 4441 
L 1819 4666 
L 2450 4666 
L 2450 531 
L 3481 531 
L 3481 0 
L 794 0 
L 794 531 
z
" transform="scale(0.015625)"/>
       </defs>
       <use xlink:href="#DejaVuSans-31"/>
       <use xlink:href="#DejaVuSans-30" transform="translate(63.623047 0)"/>
       <use xlink:href="#DejaVuSans-30" transform="translate(127.246094 0)"/>
       <use xlink:href="#DejaVuSans-30" transform="translate(190.869141 0)"/>
       <use xlink:href="#DejaVuSans-30" transform="translate(254.492188 0)"/>
      </g>
     </g>
    </g>
    <g id="text_6">
     <!-- Training steps -->
     <g transform="translate(260.464844 348.676562) scale(0.1 -0.1)">
      <defs>
       <path id="DejaVuSans-54" d="M -19 4666 
L 3928 4666 
L 3928 4134 
L 2272 4134 
L 2272 0 
L 1638 0 
L 1638 4134 
L -19 4134 
L -19 4666 
z
" transform="scale(0.015625)"/>
       <path id="DejaVuSans-72" d="M 2631 2963 
Q 2534 3019 2420 3045 
Q 2306 3072 2169 3072 
Q 1681 3072 1420 2755 
Q 1159 2438 1159 1844 
L 1159 0 
L 581 0 
L 581 3500 
L 1159 3500 
L 1159 2956 
Q 1341 3275 1631 3429 
Q 1922 3584 2338 3584 
Q 2397 3584 2469 3576 
Q 2541 3569 2628 3553 
L 2631 2963 
z
" transform="scale(0.015625)"/>
       <path id="DejaVuSans-61" d="M 2194 1759 
Q 1497 1759 1228 1600 
Q 959 1441 959 1056 
Q 959 750 1161 570 
Q 1363 391 1709 391 
Q 2188 391 2477 730 
Q 2766 1069 2766 1631 
L 2766 1759 
L 2194 1759 
z
M 3341 1997 
L 3341 0 
L 2766 0 
L 2766 531 
Q 2569 213 2275 61 
Q 1981 -91 1556 -91 
Q 1019 -91 701 211 
Q 384 513 384 1019 
Q 384 1609 779 1909 
Q 1175 2209 1959 2209 
L 2766 2209 
L 2766 2266 
Q 2766 2663 2505 2880 
Q 2244 3097 1772 3097 
Q 1472 3097 1187 3025 
Q 903 2953 641 2809 
L 641 3341 
Q 956 3463 1253 3523 
Q 1550 3584 1831 3584 
Q 2591 3584 2966 3190 
Q 3341 2797 3341 1997 
z
" transform="scale(0.015625)"/>
       <path id="DejaVuSans-69" d="M 603 3500 
L 1178 3500 
L 1178 0 
L 603 0 
L 603 3500 
z
M 603 4863 
L 1178 4863 
L 1178 4134 
L 603 4134 
L 603 4863 
z
" transform="scale(0.015625)"/>
       <path id="DejaVuSans-6e" d="M 3513 2113 
L 3513 0 
L 2938 0 
L 2938 2094 
Q 2938 2591 2744 2837 
Q 2550 3084 2163 3084 
Q 1697 3084 1428 2787 
Q 1159 2491 1159 1978 
L 1159 0 
L 581 0 
L 581 3500 
L 1159 3500 
L 1159 2956 
Q 1366 3272 1645 3428 
Q 1925 3584 2291 3584 
Q 2894 3584 3203 3211 
Q 3513 2838 3513 2113 
z
" transform="scale(0.015625)"/>
       <path id="DejaVuSans-67" d="M 2906 1791 
Q 2906 2416 2648 2759 
Q 2391 3103 1925 3103 
Q 1463 3103 1205 2759 
Q 947 2416 947 1791 
Q 947 1169 1205 825 
Q 1463 481 1925 481 
Q 2391 481 2648 825 
Q 2906 1169 2906 1791 
z
M 3481 434 
Q 3481 -459 3084 -895 
Q 2688 -1331 1869 -1331 
Q 1566 -1331 1297 -1286 
Q 1028 -1241 775 -1147 
L 775 -588 
Q 1028 -725 1275 -790 
Q 1522 -856 1778 -856 
Q 2344 -856 2625 -561 
Q 2906 -266 2906 331 
L 2906 616 
Q 2728 306 2450 153 
Q 2172 0 1784 0 
Q 1141 0 747 490 
Q 353 981 353 1791 
Q 353 2603 747 3093 
Q 1141 3584 1784 3584 
Q 2172 3584 2450 3431 
Q 2728 3278 2906 2969 
L 2906 3500 
L 3481 3500 
L 3481 434 
z
" transform="scale(0.015625)"/>
       <path id="DejaVuSans-20" transform="scale(0.015625)"/>
       <path id="DejaVuSans-73" d="M 2834 3397 
L 2834 2853 
Q 2591 2978 2328 3040 
Q 2066 3103 1784 3103 
Q 1356 3103 1142 2972 
Q 928 2841 928 2578 
Q 928 2378 1081 2264 
Q 1234 2150 1697 2047 
L 1894 2003 
Q 2506 1872 2764 1633 
Q 3022 1394 3022 966 
Q 3022 478 2636 193 
Q 2250 -91 1575 -91 
Q 1294 -91 989 -36 
Q 684 19 347 128 
L 347 722 
Q 666 556 975 473 
Q 1284 391 1588 391 
Q 1994 391 2212 530 
Q 2431 669 2431 922 
Q 2431 1156 2273 1281 
Q 2116 1406 1581 1522 
L 1381 1569 
Q 847 1681 609 1914 
Q 372 2147 372 2553 
Q 372 3047 722 3315 
Q 1072 3584 1716 3584 
Q 2034 3584 2315 3537 
Q 2597 3491 2834 3397 
z
" transform="scale(0.015625)"/>
       <path id="DejaVuSans-74" d="M 1172 4494 
L 1172 3500 
L 2356 3500 
L 2356 3053 
L 1172 3053 
L 1172 1153 
Q 1172 725 1289 603 
Q 1406 481 1766 481 
L 2356 481 
L 2356 0 
L 1766 0 
Q 1100 0 847 248 
Q 594 497 594 1153 
L 594 3053 
L 172 3053 
L 172 3500 
L 594 3500 
L 594 4494 
L 1172 4494 
z
" transform="scale(0.015625)"/>
       <path id="DejaVuSans-65" d="M 3597 1894 
L 3597 1613 
L 953 1613 
Q 991 1019 1311 708 
Q 1631 397 2203 397 
Q 2534 397 2845 478 
Q 3156 559 3463 722 
L 3463 178 
Q 3153 47 2828 -22 
Q 2503 -91 2169 -91 
Q 1331 -91 842 396 
Q 353 884 353 1716 
Q 353 2575 817 3079 
Q 1281 3584 2069 3584 
Q 2775 3584 3186 3129 
Q 3597 2675 3597 1894 
z
M 3022 2063 
Q 3016 2534 2758 2815 
Q 2500 3097 2075 3097 
Q 1594 3097 1305 2825 
Q 1016 2553 972 2059 
L 3022 2063 
z
" transform="scale(0.015625)"/>
       <path id="DejaVuSans-70" d="M 1159 525 
L 1159 -1331 
L 581 -1331 
L 581 3500 
L 1159 3500 
L 1159 2969 
Q 1341 3281 1617 3432 
Q 1894 3584 2278 3584 
Q 2916 3584 3314 3078 
Q 3713 2572 3713 1747 
Q 3713 922 3314 415 
Q 2916 -91 2278 -91 
Q 1894 -91 1617 61 
Q 1341 213 1159 525 
z
M 3116 1747 
Q 3116 2381 2855 2742 
Q 2594 3103 2138 3103 
Q 1681 3103 1420 2742 
Q 1159 2381 1159 1747 
Q 1159 1113 1420 752 
Q 1681 391 2138 391 
Q 2594 391 2855 752 
Q 3116 1113 3116 1747 
z
" transform="scale(0.015625)"/>
      </defs>
      <use xlink:href="#DejaVuSans-54"/>
      <use xlink:href="#DejaVuSans-72" transform="translate(46.333984 0)"/>
      <use xlink:href="#DejaVuSans-61" transform="translate(87.447266 0)"/>
      <use xlink:href="#DejaVuSans-69" transform="translate(148.726562 0)"/>
      <use xlink:href="#DejaVuSans-6e" transform="translate(176.509766 0)"/>
      <use xlink:href="#DejaVuSans-69" transform="translate(239.888672 0)"/>
      <use xlink:href="#DejaVuSans-6e" transform="translate(267.671875 0)"/>
      <use xlink:href="#DejaVuSans-67" transform="translate(331.050781 0)"/>
      <use xlink:href="#DejaVuSans-20" transform="translate(394.527344 0)"/>
      <use xlink:href="#DejaVuSans-73" transform="translate(426.314453 0)"/>
      <use xlink:href="#DejaVuSans-74" transform="translate(478.414062 0)"/>
      <use xlink:href="#DejaVuSans-65" transform="translate(517.623047 0)"/>
      <use xlink:href="#DejaVuSans-70" transform="translate(579.146484 0)"/>
      <use xlink:href="#DejaVuSans-73" transform="translate(642.623047 0)"/>
     </g>
    </g>
   </g>
   <g id="matplotlib.axis_2">
    <g id="ytick_1">
     <g id="line2d_6">
      <defs>
       <path id="mb051dd82ac" d="M 0 0 
L -3.5 0 
" style="stroke: #000000; stroke-width: 0.8"/>
      </defs>
      <g>
       <use xlink:href="#mb051dd82ac" x="72" y="281.818441" style="stroke: #000000; stroke-width: 0.8"/>
      </g>
     </g>
     <g id="text_7">
      <!-- 0.4 -->
      <g transform="translate(49.096875 285.61766) scale(0.1 -0.1)">
       <defs>
        <path id="DejaVuSans-2e" d="M 684 794 
L 1344 794 
L 1344 0 
L 684 0 
L 684 794 
z
" transform="scale(0.015625)"/>
       </defs>
       <use xlink:href="#DejaVuSans-30"/>
       <use xlink:href="#DejaVuSans-2e" transform="translate(63.623047 0)"/>
       <use xlink:href="#DejaVuSans-34" transform="translate(95.410156 0)"/>
      </g>
     </g>
    </g>
    <g id="ytick_2">
     <g id="line2d_7">
      <g>
       <use xlink:href="#mb051dd82ac" x="72" y="239.572003" style="stroke: #000000; stroke-width: 0.8"/>
      </g>
     </g>
     <g id="text_8">
      <!-- 0.5 -->
      <g transform="translate(49.096875 243.371222) scale(0.1 -0.1)">
       <defs>
        <path id="DejaVuSans-35" d="M 691 4666 
L 3169 4666 
L 3169 4134 
L 1269 4134 
L 1269 2991 
Q 1406 3038 1543 3061 
Q 1681 3084 1819 3084 
Q 2600 3084 3056 2656 
Q 3513 2228 3513 1497 
Q 3513 744 3044 326 
Q 2575 -91 1722 -91 
Q 1428 -91 1123 -41 
Q 819 9 494 109 
L 494 744 
Q 775 591 1075 516 
Q 1375 441 1709 441 
Q 2250 441 2565 725 
Q 2881 1009 2881 1497 
Q 2881 1984 2565 2268 
Q 2250 2553 1709 2553 
Q 1456 2553 1204 2497 
Q 953 2441 691 2322 
L 691 4666 
z
" transform="scale(0.015625)"/>
       </defs>
       <use xlink:href="#DejaVuSans-30"/>
       <use xlink:href="#DejaVuSans-2e" transform="translate(63.623047 0)"/>
       <use xlink:href="#DejaVuSans-35" transform="translate(95.410156 0)"/>
      </g>
     </g>
    </g>
    <g id="ytick_3">
     <g id="line2d_8">
      <g>
       <use xlink:href="#mb051dd82ac" x="72" y="197.325566" style="stroke: #000000; stroke-width: 0.8"/>
      </g>
     </g>
     <g id="text_9">
      <!-- 0.6 -->
      <g transform="translate(49.096875 201.124785) scale(0.1 -0.1)">
       <use xlink:href="#DejaVuSans-30"/>
       <use xlink:href="#DejaVuSans-2e" transform="translate(63.623047 0)"/>
       <use xlink:href="#DejaVuSans-36" transform="translate(95.410156 0)"/>
      </g>
     </g>
    </g>
    <g id="ytick_4">
     <g id="line2d_9">
      <g>
       <use xlink:href="#mb051dd82ac" x="72" y="155.079128" style="stroke: #000000; stroke-width: 0.8"/>
      </g>
     </g>
     <g id="text_10">
      <!-- 0.7 -->
      <g transform="translate(49.096875 158.878347) scale(0.1 -0.1)">
       <defs>
        <path id="DejaVuSans-37" d="M 525 4666 
L 3525 4666 
L 3525 4397 
L 1831 0 
L 1172 0 
L 2766 4134 
L 525 4134 
L 525 4666 
z
" transform="scale(0.015625)"/>
       </defs>
       <use xlink:href="#DejaVuSans-30"/>
       <use xlink:href="#DejaVuSans-2e" transform="translate(63.623047 0)"/>
       <use xlink:href="#DejaVuSans-37" transform="translate(95.410156 0)"/>
      </g>
     </g>
    </g>
    <g id="ytick_5">
     <g id="line2d_10">
      <g>
       <use xlink:href="#mb051dd82ac" x="72" y="112.832691" style="stroke: #000000; stroke-width: 0.8"/>
      </g>
     </g>
     <g id="text_11">
      <!-- 0.8 -->
      <g transform="translate(49.096875 116.631909) scale(0.1 -0.1)">
       <use xlink:href="#DejaVuSans-30"/>
       <use xlink:href="#DejaVuSans-2e" transform="translate(63.623047 0)"/>
       <use xlink:href="#DejaVuSans-38" transform="translate(95.410156 0)"/>
      </g>
     </g>
    </g>
    <g id="ytick_6">
     <g id="line2d_11">
      <g>
       <use xlink:href="#mb051dd82ac" x="72" y="70.586253" style="stroke: #000000; stroke-width: 0.8"/>
      </g>
     </g>
     <g id="text_12">
      <!-- 0.9 -->
      <g transform="translate(49.096875 74.385472) scale(0.1 -0.1)">
       <defs>
        <path id="DejaVuSans-39" d="M 703 97 
L 703 672 
Q 941 559 1184 500 
Q 1428 441 1663 441 
Q 2288 441 2617 861 
Q 2947 1281 2994 2138 
Q 2813 1869 2534 1725 
Q 2256 1581 1919 1581 
Q 1219 1581 811 2004 
Q 403 2428 403 3163 
Q 403 3881 828 4315 
Q 1253 4750 1959 4750 
Q 2769 4750 3195 4129 
Q 3622 3509 3622 2328 
Q 3622 1225 3098 567 
Q 2575 -91 1691 -91 
Q 1453 -91 1209 -44 
Q 966 3 703 97 
z
M 1959 2075 
Q 2384 2075 2632 2365 
Q 2881 2656 2881 3163 
Q 2881 3666 2632 3958 
Q 2384 4250 1959 4250 
Q 1534 4250 1286 3958 
Q 1038 3666 1038 3163 
Q 1038 2656 1286 2365 
Q 1534 2075 1959 2075 
z
" transform="scale(0.015625)"/>
       </defs>
       <use xlink:href="#DejaVuSans-30"/>
       <use xlink:href="#DejaVuSans-2e" transform="translate(63.623047 0)"/>
       <use xlink:href="#DejaVuSans-39" transform="translate(95.410156 0)"/>
      </g>
     </g>
    </g>
    <g id="text_13">
     <!-- Loss -->
     <g transform="translate(43.017187 192.767187) rotate(-90) scale(0.1 -0.1)">
      <defs>
       <path id="DejaVuSans-4c" d="M 628 4666 
L 1259 4666 
L 1259 531 
L 3531 531 
L 3531 0 
L 628 0 
L 628 4666 
z
" transform="scale(0.015625)"/>
       <path id="DejaVuSans-6f" d="M 1959 3097 
Q 1497 3097 1228 2736 
Q 959 2375 959 1747 
Q 959 1119 1226 758 
Q 1494 397 1959 397 
Q 2419 397 2687 759 
Q 2956 1122 2956 1747 
Q 2956 2369 2687 2733 
Q 2419 3097 1959 3097 
z
M 1959 3584 
Q 2709 3584 3137 3096 
Q 3566 2609 3566 1747 
Q 3566 888 3137 398 
Q 2709 -91 1959 -91 
Q 1206 -91 779 398 
Q 353 888 353 1747 
Q 353 2609 779 3096 
Q 1206 3584 1959 3584 
z
" transform="scale(0.015625)"/>
      </defs>
      <use xlink:href="#DejaVuSans-4c"/>
      <use xlink:href="#DejaVuSans-6f" transform="translate(53.962891 0)"/>
      <use xlink:href="#DejaVuSans-73" transform="translate(115.144531 0)"/>
      <use xlink:href="#DejaVuSans-73" transform="translate(167.244141 0)"/>
     </g>
    </g>
   </g>
   <g id="line2d_12">
    <path d="M 72 131.167645 
L 76.509091 142.743168 
L 81.018182 152.20637 
L 85.527273 147.390277 
L 90.036364 149.333613 
L 94.545455 144.095054 
L 99.054545 151.783906 
L 103.563636 149.629338 
L 108.072727 154.910142 
L 112.581818 152.502096 
L 117.090909 147.897234 
L 121.6 150.347527 
L 126.109091 158.120872 
L 130.618182 156.6 
L 135.127273 155.966303 
L 139.636364 155.924057 
L 144.145455 149.629338 
L 148.654545 157.994132 
L 153.163636 156.557754 
L 157.672727 158.754568 
L 162.181818 159.303772 
L 166.690909 156.177536 
L 171.2 165.26052 
L 175.709091 157.7829 
L 180.218182 163.021459 
L 184.727273 158.163118 
L 189.236364 169.147192 
L 193.745455 162.810226 
L 198.254545 165.894216 
L 202.763636 164.373345 
L 207.272727 160.99363 
L 211.781818 169.400671 
L 216.290909 158.120872 
L 220.8 161.627326 
L 225.309091 163.486169 
L 229.818182 169.738642 
L 234.327273 171.766471 
L 238.836364 167.119363 
L 243.345455 169.907628 
L 247.854545 167.62632 
L 252.363636 168.80922 
L 256.872727 180.173512 
L 261.381818 171.555239 
L 265.890909 175.653143 
L 270.4 169.654149 
L 274.909091 177.005029 
L 279.418182 182.581559 
L 283.927273 172.822632 
L 288.436364 167.710813 
L 292.945455 168.048785 
L 297.454545 174.047779 
L 301.963636 166.358927 
L 306.472727 169.231685 
L 310.981818 173.878793 
L 315.490909 177.300754 
L 320 178.483655 
L 324.509091 175.69539 
L 329.018182 170.625817 
L 333.527273 178.906119 
L 338.036364 170.330092 
L 342.545455 181.060687 
L 347.054545 183.510981 
L 351.563636 185.707795 
L 356.072727 176.202347 
L 360.581818 178.483655 
L 365.090909 182.032355 
L 369.6 184.271417 
L 374.109091 187.144174 
L 378.618182 178.483655 
L 383.127273 173.414082 
L 387.636364 181.440905 
L 392.145455 185.496563 
L 396.654545 175.822129 
L 401.163636 195.044258 
L 405.672727 180.764962 
L 410.181818 184.440402 
L 414.690909 187.524392 
L 419.2 180.342498 
L 423.709091 189.425482 
L 428.218182 182.581559 
L 432.727273 181.018441 
L 437.236364 182.45482 
L 441.745455 189.045264 
L 446.254545 178.948365 
L 450.763636 186.932942 
L 455.272727 188.03135 
L 459.781818 174.216764 
L 464.290909 180.511484 
L 468.8 184.102431 
L 473.309091 192.340486 
L 477.818182 178.863873 
L 482.327273 182.201341 
L 486.836364 186.510478 
L 491.345455 188.707293 
L 495.854545 182.032355 
L 500.363636 179.328583 
L 504.872727 195.424476 
L 509.381818 180.680469 
L 513.890909 192.382733 
L 518.4 184.609388 
" clip-path="url(#pab969a4815)" style="fill: none; stroke: #1f77b4; stroke-width: 1.5; stroke-linecap: square"/>
   </g>
   <g id="line2d_13">
    <path d="M 72 55.8 
L 76.509091 127.956915 
L 81.018182 139.152221 
L 85.527273 145.066723 
L 90.036364 144.433026 
L 94.545455 138.772003 
L 99.054545 146.75658 
L 103.563636 156.6 
L 108.072727 147.728248 
L 112.581818 152.037385 
L 117.090909 154.065214 
L 121.6 142.869908 
L 126.109091 135.181056 
L 130.618182 131.46337 
L 135.127273 146.672087 
L 139.636364 152.20637 
L 144.145455 142.362951 
L 148.654545 143.883822 
L 153.163636 143.757083 
L 157.672727 140.842079 
L 162.181818 161.542833 
L 166.690909 154.614417 
L 171.2 141.433529 
L 175.709091 138.09606 
L 180.218182 169.738642 
L 184.727273 169.654149 
L 189.236364 160.571165 
L 193.745455 161.162615 
L 198.254545 165.302766 
L 202.763636 144.85549 
L 207.272727 159.09254 
L 211.781818 151.657167 
L 216.290909 154.69891 
L 220.8 156.811232 
L 225.309091 160.740151 
L 229.818182 165.978709 
L 234.327273 167.457334 
L 238.836364 151.995138 
L 243.345455 167.499581 
L 247.854545 154.360939 
L 252.363636 147.305784 
L 256.872727 164.54233 
L 261.381818 169.611903 
L 265.890909 162.472255 
L 270.4 161.204862 
L 274.909091 154.69891 
L 279.418182 153.473764 
L 283.927273 159.979715 
L 288.436364 161.796312 
L 292.945455 174.850461 
L 297.454545 165.725231 
L 301.963636 166.401174 
L 306.472727 158.247611 
L 310.981818 170.161106 
L 315.490909 174.38575 
L 320 172.738139 
L 324.509091 168.682481 
L 329.018182 164.204359 
L 333.527273 176.582565 
L 338.036364 166.908131 
L 342.545455 184.144677 
L 347.054545 180.469237 
L 351.563636 168.724728 
L 356.072727 184.271417 
L 360.581818 173.540821 
L 365.090909 186.383738 
L 369.6 165.26052 
L 374.109091 169.442917 
L 378.618182 172.315675 
L 383.127273 180.595977 
L 387.636364 180.680469 
L 392.145455 178.863873 
L 396.654545 167.879799 
L 401.163636 171.386253 
L 405.672727 179.877787 
L 410.181818 175.822129 
L 414.690909 183.299749 
L 419.2 177.638726 
L 423.709091 173.160604 
L 428.218182 184.398156 
L 432.727273 186.045767 
L 437.236364 181.440905 
L 441.745455 187.989103 
L 446.254545 175.653143 
L 450.763636 180.173512 
L 455.272727 182.539313 
L 459.781818 166.823638 
L 464.290909 184.651635 
L 468.8 178.906119 
L 473.309091 177.638726 
L 477.818182 180.426991 
L 482.327273 186.637217 
L 486.836364 185.53881 
L 491.345455 181.229673 
L 495.854545 174.301257 
L 500.363636 179.793294 
L 504.872727 190.228164 
L 509.381818 186.045767 
L 513.890909 183.679966 
L 518.4 183.173009 
" clip-path="url(#pab969a4815)" style="fill: none; stroke: #ff7f0e; stroke-width: 1.5; stroke-linecap: square"/>
   </g>
   <g id="line2d_14">
    <path d="M 72 196.691869 
L 76.509091 209.450293 
L 81.018182 199.987091 
L 85.527273 202.944342 
L 90.036364 217.688349 
L 94.545455 236.234535 
L 99.054545 225.50394 
L 103.563636 233.826488 
L 108.072727 227.236044 
L 112.581818 237.839899 
L 117.090909 231.164962 
L 121.6 234.079966 
L 126.109091 237.966639 
L 130.618182 233.699749 
L 135.127273 244.810562 
L 139.636364 226.855826 
L 144.145455 239.0228 
L 148.654545 234.03772 
L 153.163636 228.249958 
L 157.672727 238.30461 
L 162.181818 244.683822 
L 166.690909 249.711148 
L 171.2 247.218609 
L 175.709091 233.784241 
L 180.218182 254.062531 
L 184.727273 223.349371 
L 189.236364 238.600335 
L 193.745455 241.135122 
L 198.254545 265.300084 
L 202.763636 247.979044 
L 207.272727 257.737972 
L 211.781818 251.274267 
L 216.290909 247.303101 
L 220.8 251.020788 
L 225.309091 247.936798 
L 229.818182 263.441241 
L 234.327273 243.838894 
L 238.836364 258.751886 
L 243.345455 259.723554 
L 247.854545 260.019279 
L 252.363636 259.850293 
L 256.872727 246.204694 
L 261.381818 255.921375 
L 265.890909 244.092372 
L 270.4 250.556077 
L 274.909091 250.175859 
L 279.418182 254.31601 
L 283.927273 263.356748 
L 288.436364 257.442246 
L 292.945455 273.791618 
L 297.454545 271.003353 
L 301.963636 245.613244 
L 306.472727 259.30109 
L 310.981818 275.7772 
L 315.490909 253.640067 
L 320 268.848785 
L 324.509091 258.329422 
L 329.018182 258.413915 
L 333.527273 251.316513 
L 338.036364 260.779715 
L 342.545455 257.822464 
L 347.054545 278.100754 
L 351.563636 280.213076 
L 356.072727 269.14451 
L 360.581818 266.187259 
L 365.090909 278.396479 
L 369.6 275.523722 
L 374.109091 266.905448 
L 378.618182 258.033697 
L 383.127273 252.119195 
L 387.636364 270.496396 
L 392.145455 277.67829 
L 396.654545 263.061023 
L 401.163636 283.043588 
L 405.672727 271.003353 
L 410.181818 282.832355 
L 414.690909 279.241408 
L 419.2 268.257334 
L 423.709091 294.788097 
L 428.218182 258.244929 
L 432.727273 269.397988 
L 437.236364 267.032188 
L 441.745455 273.538139 
L 446.254545 255.034199 
L 450.763636 278.565465 
L 455.272727 280.255323 
L 459.781818 255.203185 
L 464.290909 267.750377 
L 468.8 274.00285 
L 473.309091 263.145516 
L 477.818182 269.693713 
L 482.327273 268.088349 
L 486.836364 273.200168 
L 491.345455 276.537636 
L 495.854545 254.062531 
L 500.363636 278.523219 
L 504.872727 289.549539 
L 509.381818 261.07544 
L 513.890909 279.368148 
L 518.4 284.564459 
" clip-path="url(#pab969a4815)" style="fill: none; stroke: #2ca02c; stroke-width: 1.5; stroke-linecap: square"/>
   </g>
   <g id="line2d_15">
    <path d="M 72 67.671249 
L 76.509091 155.121375 
L 81.018182 150.685499 
L 85.527273 189.8057 
L 90.036364 161.289355 
L 94.545455 167.837552 
L 99.054545 179.582062 
L 103.563636 196.607376 
L 108.072727 203.493546 
L 112.581818 198.170495 
L 117.090909 175.948868 
L 121.6 204.169489 
L 126.109091 211.140151 
L 130.618182 195.635708 
L 135.127273 217.265884 
L 139.636364 210.506454 
L 144.145455 208.013915 
L 148.654545 183.426488 
L 153.163636 197.367812 
L 157.672727 208.943336 
L 162.181818 203.831517 
L 166.690909 208.30964 
L 171.2 221.70176 
L 175.709091 203.366806 
L 180.218182 211.689355 
L 184.727273 212.069573 
L 189.236364 213.210226 
L 193.745455 199.395641 
L 198.254545 223.898575 
L 202.763636 213.421459 
L 207.272727 221.025817 
L 211.781818 212.57653 
L 216.290909 211.942833 
L 220.8 215.66052 
L 225.309091 222.29321 
L 229.818182 228.123219 
L 234.327273 211.604862 
L 238.836364 208.098407 
L 243.345455 222.504443 
L 247.854545 216.547695 
L 252.363636 207.211232 
L 256.872727 221.11031 
L 261.381818 226.517854 
L 265.890909 199.902598 
L 270.4 219.673931 
L 274.909091 207.718189 
L 279.418182 225.250461 
L 283.927273 221.955239 
L 288.436364 224.447779 
L 292.945455 234.882649 
L 297.454545 228.292205 
L 301.963636 217.772842 
L 306.472727 216.927913 
L 310.981818 236.192288 
L 315.490909 227.911987 
L 320 222.462196 
L 324.509091 216.758927 
L 329.018182 213.801676 
L 333.527273 220.223135 
L 338.036364 222.588935 
L 342.545455 219.124728 
L 347.054545 232.516848 
L 351.563636 244.092372 
L 356.072727 239.0228 
L 360.581818 230.066555 
L 365.090909 230.277787 
L 369.6 238.938307 
L 374.109091 221.617267 
L 378.618182 237.375189 
L 383.127273 222.715675 
L 387.636364 229.813076 
L 392.145455 238.515842 
L 396.654545 221.363789 
L 401.163636 234.840402 
L 405.672727 241.895557 
L 410.181818 240.163453 
L 414.690909 242.318022 
L 419.2 251.401006 
L 423.709091 248.14803 
L 428.218182 228.883655 
L 432.727273 236.234535 
L 437.236364 241.177368 
L 441.745455 241.895557 
L 446.254545 229.982062 
L 450.763636 244.641576 
L 455.272727 253.259849 
L 459.781818 233.108298 
L 464.290909 252.076949 
L 468.8 240.121207 
L 473.309091 226.433361 
L 477.818182 235.854317 
L 482.327273 240.670411 
L 486.836364 248.190277 
L 491.345455 248.274769 
L 495.854545 228.080972 
L 500.363636 243.923386 
L 504.872727 258.244929 
L 509.381818 240.881643 
L 513.890909 254.569489 
L 518.4 256.048114 
" clip-path="url(#pab969a4815)" style="fill: none; stroke: #d62728; stroke-width: 1.5; stroke-linecap: square"/>
   </g>
   <g id="line2d_16">
    <path d="M 72 170.499078 
L 76.509091 214.097402 
L 81.018182 202.521878 
L 85.527273 205.141157 
L 90.036364 219.673931 
L 94.545455 221.955239 
L 99.054545 231.080469 
L 103.563636 242.951718 
L 108.072727 240.374686 
L 112.581818 233.699749 
L 117.090909 231.333948 
L 121.6 244.007879 
L 126.109091 252.245935 
L 130.618182 244.641576 
L 135.127273 253.259849 
L 139.636364 244.388097 
L 144.145455 255.118692 
L 148.654545 247.472087 
L 153.163636 237.248449 
L 157.672727 251.147527 
L 162.181818 243.796647 
L 166.690909 253.090863 
L 171.2 275.565968 
L 175.709091 243.374183 
L 180.218182 254.231517 
L 184.727273 242.909472 
L 189.236364 245.359765 
L 193.745455 264.117184 
L 198.254545 272.650964 
L 202.763636 255.794635 
L 207.272727 268.722045 
L 211.781818 266.820956 
L 216.290909 266.398491 
L 220.8 266.525231 
L 225.309091 247.387594 
L 229.818182 268.679799 
L 234.327273 250.936295 
L 238.836364 255.541157 
L 243.345455 270.792121 
L 247.854545 269.482481 
L 252.363636 258.794132 
L 256.872727 256.766303 
L 261.381818 270.073931 
L 265.890909 251.654484 
L 270.4 258.751886 
L 274.909091 256.259346 
L 279.418182 259.808047 
L 283.927273 275.059011 
L 288.436364 264.708634 
L 292.945455 278.058508 
L 297.454545 279.959598 
L 301.963636 259.343336 
L 306.472727 266.989941 
L 310.981818 280.677787 
L 315.490909 271.763789 
L 320 279.959598 
L 324.509091 275.819447 
L 329.018182 260.695222 
L 333.527273 259.850293 
L 338.036364 274.5943 
L 342.545455 273.326907 
L 347.054545 287.056999 
L 351.563636 283.466052 
L 356.072727 278.354233 
L 360.581818 270.91886 
L 365.090909 292.211065 
L 369.6 289.507293 
L 374.109091 274.298575 
L 378.618182 273.918357 
L 383.127273 258.456161 
L 387.636364 280.128583 
L 392.145455 289.929757 
L 396.654545 274.467561 
L 401.163636 287.986421 
L 405.672727 283.508298 
L 410.181818 289.929757 
L 414.690909 291.915339 
L 419.2 282.832355 
L 423.709091 301.378541 
L 428.218182 277.298072 
L 432.727273 284.395474 
L 437.236364 281.902934 
L 441.745455 289.253814 
L 446.254545 282.367645 
L 450.763636 294.407879 
L 455.272727 304.12456 
L 459.781818 270.834367 
L 464.290909 279.368148 
L 468.8 278.86119 
L 473.309091 284.184241 
L 477.818182 281.269237 
L 482.327273 289.169321 
L 486.836364 290.352221 
L 491.345455 294.28114 
L 495.854545 272.059514 
L 500.363636 281.94518 
L 504.872727 307.8 
L 509.381818 284.522213 
L 513.890909 284.268734 
L 518.4 298.717016 
" clip-path="url(#pab969a4815)" style="fill: none; stroke: #9467bd; stroke-width: 1.5; stroke-linecap: square"/>
   </g>
   <g id="line2d_17">
    <path d="M 72 191.495557 
L 76.509091 205.8171 
L 81.018182 201.465717 
L 85.527273 195.84694 
L 90.036364 201.676949 
L 94.545455 212.154065 
L 99.054545 205.521375 
L 103.563636 225.630679 
L 108.072727 234.586924 
L 112.581818 225.250461 
L 117.090909 227.531769 
L 121.6 231.207209 
L 126.109091 236.952724 
L 130.618182 239.61425 
L 135.127273 239.065046 
L 139.636364 238.89606 
L 144.145455 232.601341 
L 148.654545 230.108801 
L 153.163636 215.449288 
L 157.672727 239.994468 
L 162.181818 250.471584 
L 166.690909 248.190277 
L 171.2 253.597821 
L 175.709091 230.531266 
L 180.218182 259.765801 
L 184.727273 238.811567 
L 189.236364 221.8285 
L 193.745455 239.403018 
L 198.254545 261.582397 
L 202.763636 242.233529 
L 207.272727 257.019782 
L 211.781818 250.809556 
L 216.290909 251.063034 
L 220.8 250.556077 
L 225.309091 230.911484 
L 229.818182 258.540654 
L 234.327273 245.148533 
L 238.836364 259.258843 
L 243.345455 263.821459 
L 247.854545 254.569489 
L 252.363636 255.118692 
L 256.872727 249.542163 
L 261.381818 252.626153 
L 265.890909 247.049623 
L 270.4 244.388097 
L 274.909091 244.134619 
L 279.418182 248.908466 
L 283.927273 253.640067 
L 288.436364 262.131601 
L 292.945455 264.15943 
L 297.454545 269.989438 
L 301.963636 244.768315 
L 306.472727 259.30109 
L 310.981818 263.018776 
L 315.490909 255.118692 
L 320 272.439732 
L 324.509091 265.046605 
L 329.018182 257.526739 
L 333.527273 251.82347 
L 338.036364 260.652976 
L 342.545455 263.736966 
L 347.054545 279.156915 
L 351.563636 273.960604 
L 356.072727 273.707125 
L 360.581818 266.229505 
L 365.090909 290.056496 
L 369.6 275.90394 
L 374.109091 262.25834 
L 378.618182 264.793127 
L 383.127273 250.387091 
L 387.636364 271.721542 
L 392.145455 284.606706 
L 396.654545 263.905951 
L 401.163636 280.593294 
L 405.672727 270.961106 
L 410.181818 288.408885 
L 414.690909 281.607209 
L 419.2 274.00285 
L 423.709091 283.804023 
L 428.218182 269.73596 
L 432.727273 275.059011 
L 437.236364 268.848785 
L 441.745455 276.36865 
L 446.254545 255.118692 
L 450.763636 273.4114 
L 455.272727 283.888516 
L 459.781818 258.667393 
L 464.290909 260.779715 
L 468.8 269.989438 
L 473.309091 265.215591 
L 477.818182 273.369153 
L 482.327273 276.157418 
L 486.836364 274.847779 
L 491.345455 273.369153 
L 495.854545 256.470578 
L 500.363636 270.961106 
L 504.872727 292.718022 
L 509.381818 261.286672 
L 513.890909 283.12808 
L 518.4 279.537133 
" clip-path="url(#pab969a4815)" style="fill: none; stroke: #8c564b; stroke-width: 1.5; stroke-linecap: square"/>
   </g>
   <g id="line2d_18">
    <path d="M 72 114.649288 
L 76.509091 168.978206 
L 81.018182 148.868902 
L 85.527273 181.314166 
L 90.036364 176.455826 
L 94.545455 183.975692 
L 99.054545 179.244091 
L 103.563636 196.142666 
L 108.072727 205.056664 
L 112.581818 204.042749 
L 117.090909 202.226153 
L 121.6 194.537301 
L 126.109091 197.072087 
L 130.618182 206.239564 
L 135.127273 219.547192 
L 139.636364 223.433864 
L 144.145455 219.251467 
L 148.654545 190.819614 
L 153.163636 196.269405 
L 157.672727 224.152054 
L 162.181818 207.549204 
L 166.690909 209.872758 
L 171.2 234.586924 
L 175.709091 200.747527 
L 180.218182 205.521375 
L 184.727273 205.014417 
L 189.236364 209.619279 
L 193.745455 212.280805 
L 198.254545 232.685834 
L 202.763636 217.857334 
L 207.272727 235.727578 
L 211.781818 226.433361 
L 216.290909 211.689355 
L 220.8 223.983068 
L 225.309091 205.859346 
L 229.818182 216.209723 
L 234.327273 217.139145 
L 238.836364 220.054149 
L 243.345455 216.420956 
L 247.854545 229.475105 
L 252.363636 215.153562 
L 256.872727 224.490025 
L 261.381818 226.010897 
L 265.890909 214.224141 
L 270.4 224.363286 
L 274.909091 214.604359 
L 279.418182 215.913998 
L 283.927273 230.911484 
L 288.436364 228.038726 
L 292.945455 247.683319 
L 297.454545 242.233529 
L 301.963636 227.109304 
L 306.472727 225.926404 
L 310.981818 240.585918 
L 315.490909 232.13663 
L 320 241.811065 
L 324.509091 230.826991 
L 329.018182 223.60285 
L 333.527273 223.898575 
L 338.036364 224.743504 
L 342.545455 228.207712 
L 347.054545 256.80855 
L 351.563636 252.119195 
L 356.072727 250.006873 
L 360.581818 235.051635 
L 365.090909 255.921375 
L 369.6 239.61425 
L 374.109091 237.079464 
L 378.618182 238.093378 
L 383.127273 229.728583 
L 387.636364 247.176362 
L 392.145455 243.162951 
L 396.654545 232.094384 
L 401.163636 242.740486 
L 405.672727 252.076949 
L 410.181818 243.162951 
L 414.690909 250.851802 
L 419.2 243.796647 
L 423.709091 263.356748 
L 428.218182 233.995474 
L 432.727273 249.880134 
L 437.236364 247.387594 
L 441.745455 251.485499 
L 446.254545 238.89606 
L 450.763636 257.526739 
L 455.272727 255.49891 
L 459.781818 238.684828 
L 464.290909 247.049623 
L 468.8 243.965633 
L 473.309091 244.219111 
L 477.818182 254.696228 
L 482.327273 252.034702 
L 486.836364 251.485499 
L 491.345455 252.330427 
L 495.854545 232.981559 
L 500.363636 247.936798 
L 504.872727 263.948198 
L 509.381818 241.473093 
L 513.890909 260.610729 
L 518.4 260.737469 
" clip-path="url(#pab969a4815)" style="fill: none; stroke: #e377c2; stroke-width: 1.5; stroke-linecap: square"/>
   </g>
   <g id="line2d_19">
    <path d="M 72 181.14518 
L 76.509091 200.747527 
L 81.018182 204.211735 
L 85.527273 201.296731 
L 90.036364 179.624308 
L 94.545455 136.575189 
L 99.054545 148.784409 
L 103.563636 145.235708 
L 108.072727 153.304778 
L 112.581818 153.220285 
L 117.090909 157.444929 
L 121.6 157.275943 
L 126.109091 156.980218 
L 130.618182 154.69891 
L 135.127273 144.770997 
L 139.636364 148.995641 
L 144.145455 148.826655 
L 148.654545 158.078625 
L 153.163636 153.853982 
L 157.672727 148.488684 
L 162.181818 148.023973 
L 166.690909 156.768986 
L 171.2 160.909137 
L 175.709091 158.50109 
L 180.218182 150.643252 
L 184.727273 159.09254 
L 189.236364 158.543336 
L 193.745455 157.90964 
L 198.254545 154.10746 
L 202.763636 157.951886 
L 207.272727 157.529422 
L 211.781818 157.233697 
L 216.290909 159.261526 
L 220.8 156.768986 
L 225.309091 152.121878 
L 229.818182 157.022464 
L 234.327273 155.079128 
L 238.836364 152.840067 
L 243.345455 156.135289 
L 247.854545 156.895725 
L 252.363636 156.093043 
L 256.872727 157.360436 
L 261.381818 155.670578 
L 265.890909 156.684493 
L 270.4 156.937972 
L 274.909091 157.402682 
L 279.418182 158.881308 
L 283.927273 157.571668 
L 288.436364 156.304275 
L 292.945455 158.754568 
L 297.454545 156.895725 
L 301.963636 157.106957 
L 306.472727 157.064711 
L 310.981818 156.388768 
L 315.490909 157.740654 
L 320 158.881308 
L 324.509091 152.755574 
L 329.018182 157.402682 
L 333.527273 156.937972 
L 338.036364 160.106454 
L 342.545455 160.359933 
L 347.054545 158.37435 
L 351.563636 159.219279 
L 356.072727 158.078625 
L 360.581818 157.444929 
L 365.090909 162.556748 
L 369.6 159.979715 
L 374.109091 162.76798 
L 378.618182 157.825147 
L 383.127273 156.853479 
L 387.636364 158.289858 
L 392.145455 164.415591 
L 396.654545 159.472758 
L 401.163636 161.500587 
L 405.672727 159.937469 
L 410.181818 160.824644 
L 414.690909 161.035876 
L 419.2 164.880302 
L 423.709091 165.007041 
L 428.218182 164.373345 
L 432.727273 164.795809 
L 437.236364 164.204359 
L 441.745455 161.669573 
L 446.254545 166.781391 
L 450.763636 170.076614 
L 455.272727 165.682984 
L 459.781818 165.682984 
L 464.290909 175.69539 
L 468.8 174.132272 
L 473.309091 174.216764 
L 477.818182 170.879296 
L 482.327273 173.7943 
L 486.836364 180.933948 
L 491.345455 176.371333 
L 495.854545 175.230679 
L 500.363636 179.328583 
L 504.872727 176.709304 
L 509.381818 182.961777 
L 513.890909 177.047276 
L 518.4 181.398659 
" clip-path="url(#pab969a4815)" style="fill: none; stroke: #7f7f7f; stroke-width: 1.5; stroke-linecap: square"/>
   </g>
   <g id="patch_3">
    <path d="M 72 320.4 
L 72 43.2 
" style="fill: none; stroke: #000000; stroke-width: 0.8; stroke-linejoin: miter; stroke-linecap: square"/>
   </g>
   <g id="patch_4">
    <path d="M 518.4 320.4 
L 518.4 43.2 
" style="fill: none; stroke: #000000; stroke-width: 0.8; stroke-linejoin: miter; stroke-linecap: square"/>
   </g>
   <g id="patch_5">
    <path d="M 72 320.4 
L 518.4 320.4 
" style="fill: none; stroke: #000000; stroke-width: 0.8; stroke-linejoin: miter; stroke-linecap: square"/>
   </g>
   <g id="patch_6">
    <path d="M 72 43.2 
L 518.4 43.2 
" style="fill: none; stroke: #000000; stroke-width: 0.8; stroke-linejoin: miter; stroke-linecap: square"/>
   </g>
   <g id="text_14">
    <!-- Enhancers (human ensemble) -->
    <g transform="translate(204.992812 37.2) scale(0.12 -0.12)">
     <defs>
      <path id="DejaVuSans-45" d="M 628 4666 
L 3578 4666 
L 3578 4134 
L 1259 4134 
L 1259 2753 
L 3481 2753 
L 3481 2222 
L 1259 2222 
L 1259 531 
L 3634 531 
L 3634 0 
L 628 0 
L 628 4666 
z
" transform="scale(0.015625)"/>
      <path id="DejaVuSans-68" d="M 3513 2113 
L 3513 0 
L 2938 0 
L 2938 2094 
Q 2938 2591 2744 2837 
Q 2550 3084 2163 3084 
Q 1697 3084 1428 2787 
Q 1159 2491 1159 1978 
L 1159 0 
L 581 0 
L 581 4863 
L 1159 4863 
L 1159 2956 
Q 1366 3272 1645 3428 
Q 1925 3584 2291 3584 
Q 2894 3584 3203 3211 
Q 3513 2838 3513 2113 
z
" transform="scale(0.015625)"/>
      <path id="DejaVuSans-63" d="M 3122 3366 
L 3122 2828 
Q 2878 2963 2633 3030 
Q 2388 3097 2138 3097 
Q 1578 3097 1268 2742 
Q 959 2388 959 1747 
Q 959 1106 1268 751 
Q 1578 397 2138 397 
Q 2388 397 2633 464 
Q 2878 531 3122 666 
L 3122 134 
Q 2881 22 2623 -34 
Q 2366 -91 2075 -91 
Q 1284 -91 818 406 
Q 353 903 353 1747 
Q 353 2603 823 3093 
Q 1294 3584 2113 3584 
Q 2378 3584 2631 3529 
Q 2884 3475 3122 3366 
z
" transform="scale(0.015625)"/>
      <path id="DejaVuSans-28" d="M 1984 4856 
Q 1566 4138 1362 3434 
Q 1159 2731 1159 2009 
Q 1159 1288 1364 580 
Q 1569 -128 1984 -844 
L 1484 -844 
Q 1016 -109 783 600 
Q 550 1309 550 2009 
Q 550 2706 781 3412 
Q 1013 4119 1484 4856 
L 1984 4856 
z
" transform="scale(0.015625)"/>
      <path id="DejaVuSans-75" d="M 544 1381 
L 544 3500 
L 1119 3500 
L 1119 1403 
Q 1119 906 1312 657 
Q 1506 409 1894 409 
Q 2359 409 2629 706 
Q 2900 1003 2900 1516 
L 2900 3500 
L 3475 3500 
L 3475 0 
L 2900 0 
L 2900 538 
Q 2691 219 2414 64 
Q 2138 -91 1772 -91 
Q 1169 -91 856 284 
Q 544 659 544 1381 
z
M 1991 3584 
L 1991 3584 
z
" transform="scale(0.015625)"/>
      <path id="DejaVuSans-6d" d="M 3328 2828 
Q 3544 3216 3844 3400 
Q 4144 3584 4550 3584 
Q 5097 3584 5394 3201 
Q 5691 2819 5691 2113 
L 5691 0 
L 5113 0 
L 5113 2094 
Q 5113 2597 4934 2840 
Q 4756 3084 4391 3084 
Q 3944 3084 3684 2787 
Q 3425 2491 3425 1978 
L 3425 0 
L 2847 0 
L 2847 2094 
Q 2847 2600 2669 2842 
Q 2491 3084 2119 3084 
Q 1678 3084 1418 2786 
Q 1159 2488 1159 1978 
L 1159 0 
L 581 0 
L 581 3500 
L 1159 3500 
L 1159 2956 
Q 1356 3278 1631 3431 
Q 1906 3584 2284 3584 
Q 2666 3584 2933 3390 
Q 3200 3197 3328 2828 
z
" transform="scale(0.015625)"/>
      <path id="DejaVuSans-62" d="M 3116 1747 
Q 3116 2381 2855 2742 
Q 2594 3103 2138 3103 
Q 1681 3103 1420 2742 
Q 1159 2381 1159 1747 
Q 1159 1113 1420 752 
Q 1681 391 2138 391 
Q 2594 391 2855 752 
Q 3116 1113 3116 1747 
z
M 1159 2969 
Q 1341 3281 1617 3432 
Q 1894 3584 2278 3584 
Q 2916 3584 3314 3078 
Q 3713 2572 3713 1747 
Q 3713 922 3314 415 
Q 2916 -91 2278 -91 
Q 1894 -91 1617 61 
Q 1341 213 1159 525 
L 1159 0 
L 581 0 
L 581 4863 
L 1159 4863 
L 1159 2969 
z
" transform="scale(0.015625)"/>
      <path id="DejaVuSans-6c" d="M 603 4863 
L 1178 4863 
L 1178 0 
L 603 0 
L 603 4863 
z
" transform="scale(0.015625)"/>
      <path id="DejaVuSans-29" d="M 513 4856 
L 1013 4856 
Q 1481 4119 1714 3412 
Q 1947 2706 1947 2009 
Q 1947 1309 1714 600 
Q 1481 -109 1013 -844 
L 513 -844 
Q 928 -128 1133 580 
Q 1338 1288 1338 2009 
Q 1338 2731 1133 3434 
Q 928 4138 513 4856 
z
" transform="scale(0.015625)"/>
     </defs>
     <use xlink:href="#DejaVuSans-45"/>
     <use xlink:href="#DejaVuSans-6e" transform="translate(63.183594 0)"/>
     <use xlink:href="#DejaVuSans-68" transform="translate(126.5625 0)"/>
     <use xlink:href="#DejaVuSans-61" transform="translate(189.941406 0)"/>
     <use xlink:href="#DejaVuSans-6e" transform="translate(251.220703 0)"/>
     <use xlink:href="#DejaVuSans-63" transform="translate(314.599609 0)"/>
     <use xlink:href="#DejaVuSans-65" transform="translate(369.580078 0)"/>
     <use xlink:href="#DejaVuSans-72" transform="translate(431.103516 0)"/>
     <use xlink:href="#DejaVuSans-73" transform="translate(472.216797 0)"/>
     <use xlink:href="#DejaVuSans-20" transform="translate(524.316406 0)"/>
     <use xlink:href="#DejaVuSans-28" transform="translate(556.103516 0)"/>
     <use xlink:href="#DejaVuSans-68" transform="translate(595.117188 0)"/>
     <use xlink:href="#DejaVuSans-75" transform="translate(658.496094 0)"/>
     <use xlink:href="#DejaVuSans-6d" transform="translate(721.875 0)"/>
     <use xlink:href="#DejaVuSans-61" transform="translate(819.287109 0)"/>
     <use xlink:href="#DejaVuSans-6e" transform="translate(880.566406 0)"/>
     <use xlink:href="#DejaVuSans-20" transform="translate(943.945312 0)"/>
     <use xlink:href="#DejaVuSans-65" transform="translate(975.732422 0)"/>
     <use xlink:href="#DejaVuSans-6e" transform="translate(1037.255859 0)"/>
     <use xlink:href="#DejaVuSans-73" transform="translate(1100.634766 0)"/>
     <use xlink:href="#DejaVuSans-65" transform="translate(1152.734375 0)"/>
     <use xlink:href="#DejaVuSans-6d" transform="translate(1214.257812 0)"/>
     <use xlink:href="#DejaVuSans-62" transform="translate(1311.669922 0)"/>
     <use xlink:href="#DejaVuSans-6c" transform="translate(1375.146484 0)"/>
     <use xlink:href="#DejaVuSans-65" transform="translate(1402.929688 0)"/>
     <use xlink:href="#DejaVuSans-29" transform="translate(1464.453125 0)"/>
    </g>
   </g>
   <g id="legend_1">
    <g id="patch_7">
     <path d="M 334.210684 147.679025 
L 512.569 147.679025 
Q 514.235 147.679025 514.235 146.013025 
L 514.235 49.031 
Q 514.235 47.365 512.569 47.365 
L 334.210684 47.365 
Q 332.544684 47.365 332.544684 49.031 
L 332.544684 146.013025 
Q 332.544684 147.679025 334.210684 147.679025 
z
" style="fill: #ffffff; opacity: 0.8; stroke: #cccccc; stroke-linejoin: miter"/>
    </g>
    <g id="line2d_20">
     <path d="M 335.876684 54.110998 
L 344.206684 54.110998 
L 352.536684 54.110998 
" style="fill: none; stroke: #1f77b4; stroke-width: 1.5; stroke-linecap: square"/>
    </g>
    <g id="text_15">
     <!-- NT-MS V2 (50M) with rand. weights -->
     <g transform="translate(359.200684 57.026498) scale(0.0833 -0.0833)">
      <defs>
       <path id="DejaVuSans-4e" d="M 628 4666 
L 1478 4666 
L 3547 763 
L 3547 4666 
L 4159 4666 
L 4159 0 
L 3309 0 
L 1241 3903 
L 1241 0 
L 628 0 
L 628 4666 
z
" transform="scale(0.015625)"/>
       <path id="DejaVuSans-2d" d="M 313 2009 
L 1997 2009 
L 1997 1497 
L 313 1497 
L 313 2009 
z
" transform="scale(0.015625)"/>
       <path id="DejaVuSans-4d" d="M 628 4666 
L 1569 4666 
L 2759 1491 
L 3956 4666 
L 4897 4666 
L 4897 0 
L 4281 0 
L 4281 4097 
L 3078 897 
L 2444 897 
L 1241 4097 
L 1241 0 
L 628 0 
L 628 4666 
z
" transform="scale(0.015625)"/>
       <path id="DejaVuSans-53" d="M 3425 4513 
L 3425 3897 
Q 3066 4069 2747 4153 
Q 2428 4238 2131 4238 
Q 1616 4238 1336 4038 
Q 1056 3838 1056 3469 
Q 1056 3159 1242 3001 
Q 1428 2844 1947 2747 
L 2328 2669 
Q 3034 2534 3370 2195 
Q 3706 1856 3706 1288 
Q 3706 609 3251 259 
Q 2797 -91 1919 -91 
Q 1588 -91 1214 -16 
Q 841 59 441 206 
L 441 856 
Q 825 641 1194 531 
Q 1563 422 1919 422 
Q 2459 422 2753 634 
Q 3047 847 3047 1241 
Q 3047 1584 2836 1778 
Q 2625 1972 2144 2069 
L 1759 2144 
Q 1053 2284 737 2584 
Q 422 2884 422 3419 
Q 422 4038 858 4394 
Q 1294 4750 2059 4750 
Q 2388 4750 2728 4690 
Q 3069 4631 3425 4513 
z
" transform="scale(0.015625)"/>
       <path id="DejaVuSans-56" d="M 1831 0 
L 50 4666 
L 709 4666 
L 2188 738 
L 3669 4666 
L 4325 4666 
L 2547 0 
L 1831 0 
z
" transform="scale(0.015625)"/>
       <path id="DejaVuSans-77" d="M 269 3500 
L 844 3500 
L 1563 769 
L 2278 3500 
L 2956 3500 
L 3675 769 
L 4391 3500 
L 4966 3500 
L 4050 0 
L 3372 0 
L 2619 2869 
L 1863 0 
L 1184 0 
L 269 3500 
z
" transform="scale(0.015625)"/>
       <path id="DejaVuSans-64" d="M 2906 2969 
L 2906 4863 
L 3481 4863 
L 3481 0 
L 2906 0 
L 2906 525 
Q 2725 213 2448 61 
Q 2172 -91 1784 -91 
Q 1150 -91 751 415 
Q 353 922 353 1747 
Q 353 2572 751 3078 
Q 1150 3584 1784 3584 
Q 2172 3584 2448 3432 
Q 2725 3281 2906 2969 
z
M 947 1747 
Q 947 1113 1208 752 
Q 1469 391 1925 391 
Q 2381 391 2643 752 
Q 2906 1113 2906 1747 
Q 2906 2381 2643 2742 
Q 2381 3103 1925 3103 
Q 1469 3103 1208 2742 
Q 947 2381 947 1747 
z
" transform="scale(0.015625)"/>
      </defs>
      <use xlink:href="#DejaVuSans-4e"/>
      <use xlink:href="#DejaVuSans-54" transform="translate(74.804688 0)"/>
      <use xlink:href="#DejaVuSans-2d" transform="translate(126.763672 0)"/>
      <use xlink:href="#DejaVuSans-4d" transform="translate(162.847656 0)"/>
      <use xlink:href="#DejaVuSans-53" transform="translate(249.126953 0)"/>
      <use xlink:href="#DejaVuSans-20" transform="translate(312.603516 0)"/>
      <use xlink:href="#DejaVuSans-56" transform="translate(344.390625 0)"/>
      <use xlink:href="#DejaVuSans-32" transform="translate(412.798828 0)"/>
      <use xlink:href="#DejaVuSans-20" transform="translate(476.421875 0)"/>
      <use xlink:href="#DejaVuSans-28" transform="translate(508.208984 0)"/>
      <use xlink:href="#DejaVuSans-35" transform="translate(547.222656 0)"/>
      <use xlink:href="#DejaVuSans-30" transform="translate(610.845703 0)"/>
      <use xlink:href="#DejaVuSans-4d" transform="translate(674.46875 0)"/>
      <use xlink:href="#DejaVuSans-29" transform="translate(760.748047 0)"/>
      <use xlink:href="#DejaVuSans-20" transform="translate(799.761719 0)"/>
      <use xlink:href="#DejaVuSans-77" transform="translate(831.548828 0)"/>
      <use xlink:href="#DejaVuSans-69" transform="translate(913.335938 0)"/>
      <use xlink:href="#DejaVuSans-74" transform="translate(941.119141 0)"/>
      <use xlink:href="#DejaVuSans-68" transform="translate(980.328125 0)"/>
      <use xlink:href="#DejaVuSans-20" transform="translate(1043.707031 0)"/>
      <use xlink:href="#DejaVuSans-72" transform="translate(1075.494141 0)"/>
      <use xlink:href="#DejaVuSans-61" transform="translate(1116.607422 0)"/>
      <use xlink:href="#DejaVuSans-6e" transform="translate(1177.886719 0)"/>
      <use xlink:href="#DejaVuSans-64" transform="translate(1241.265625 0)"/>
      <use xlink:href="#DejaVuSans-2e" transform="translate(1304.742188 0)"/>
      <use xlink:href="#DejaVuSans-20" transform="translate(1336.529297 0)"/>
      <use xlink:href="#DejaVuSans-77" transform="translate(1368.316406 0)"/>
      <use xlink:href="#DejaVuSans-65" transform="translate(1450.103516 0)"/>
      <use xlink:href="#DejaVuSans-69" transform="translate(1511.626953 0)"/>
      <use xlink:href="#DejaVuSans-67" transform="translate(1539.410156 0)"/>
      <use xlink:href="#DejaVuSans-68" transform="translate(1602.886719 0)"/>
      <use xlink:href="#DejaVuSans-74" transform="translate(1666.265625 0)"/>
      <use xlink:href="#DejaVuSans-73" transform="translate(1705.474609 0)"/>
     </g>
    </g>
    <g id="line2d_21">
     <path d="M 335.876684 66.337877 
L 344.206684 66.337877 
L 352.536684 66.337877 
" style="fill: none; stroke: #ff7f0e; stroke-width: 1.5; stroke-linecap: square"/>
    </g>
    <g id="text_16">
     <!-- NT-MS V2 (500M) with rand. weights -->
     <g transform="translate(359.200684 69.253377) scale(0.0833 -0.0833)">
      <use xlink:href="#DejaVuSans-4e"/>
      <use xlink:href="#DejaVuSans-54" transform="translate(74.804688 0)"/>
      <use xlink:href="#DejaVuSans-2d" transform="translate(126.763672 0)"/>
      <use xlink:href="#DejaVuSans-4d" transform="translate(162.847656 0)"/>
      <use xlink:href="#DejaVuSans-53" transform="translate(249.126953 0)"/>
      <use xlink:href="#DejaVuSans-20" transform="translate(312.603516 0)"/>
      <use xlink:href="#DejaVuSans-56" transform="translate(344.390625 0)"/>
      <use xlink:href="#DejaVuSans-32" transform="translate(412.798828 0)"/>
      <use xlink:href="#DejaVuSans-20" transform="translate(476.421875 0)"/>
      <use xlink:href="#DejaVuSans-28" transform="translate(508.208984 0)"/>
      <use xlink:href="#DejaVuSans-35" transform="translate(547.222656 0)"/>
      <use xlink:href="#DejaVuSans-30" transform="translate(610.845703 0)"/>
      <use xlink:href="#DejaVuSans-30" transform="translate(674.46875 0)"/>
      <use xlink:href="#DejaVuSans-4d" transform="translate(738.091797 0)"/>
      <use xlink:href="#DejaVuSans-29" transform="translate(824.371094 0)"/>
      <use xlink:href="#DejaVuSans-20" transform="translate(863.384766 0)"/>
      <use xlink:href="#DejaVuSans-77" transform="translate(895.171875 0)"/>
      <use xlink:href="#DejaVuSans-69" transform="translate(976.958984 0)"/>
      <use xlink:href="#DejaVuSans-74" transform="translate(1004.742188 0)"/>
      <use xlink:href="#DejaVuSans-68" transform="translate(1043.951172 0)"/>
      <use xlink:href="#DejaVuSans-20" transform="translate(1107.330078 0)"/>
      <use xlink:href="#DejaVuSans-72" transform="translate(1139.117188 0)"/>
      <use xlink:href="#DejaVuSans-61" transform="translate(1180.230469 0)"/>
      <use xlink:href="#DejaVuSans-6e" transform="translate(1241.509766 0)"/>
      <use xlink:href="#DejaVuSans-64" transform="translate(1304.888672 0)"/>
      <use xlink:href="#DejaVuSans-2e" transform="translate(1368.365234 0)"/>
      <use xlink:href="#DejaVuSans-20" transform="translate(1400.152344 0)"/>
      <use xlink:href="#DejaVuSans-77" transform="translate(1431.939453 0)"/>
      <use xlink:href="#DejaVuSans-65" transform="translate(1513.726562 0)"/>
      <use xlink:href="#DejaVuSans-69" transform="translate(1575.25 0)"/>
      <use xlink:href="#DejaVuSans-67" transform="translate(1603.033203 0)"/>
      <use xlink:href="#DejaVuSans-68" transform="translate(1666.509766 0)"/>
      <use xlink:href="#DejaVuSans-74" transform="translate(1729.888672 0)"/>
      <use xlink:href="#DejaVuSans-73" transform="translate(1769.097656 0)"/>
     </g>
    </g>
    <g id="line2d_22">
     <path d="M 335.876684 78.564755 
L 344.206684 78.564755 
L 352.536684 78.564755 
" style="fill: none; stroke: #2ca02c; stroke-width: 1.5; stroke-linecap: square"/>
    </g>
    <g id="text_17">
     <!-- NT-MS V2 (50M) -->
     <g transform="translate(359.200684 81.480255) scale(0.0833 -0.0833)">
      <use xlink:href="#DejaVuSans-4e"/>
      <use xlink:href="#DejaVuSans-54" transform="translate(74.804688 0)"/>
      <use xlink:href="#DejaVuSans-2d" transform="translate(126.763672 0)"/>
      <use xlink:href="#DejaVuSans-4d" transform="translate(162.847656 0)"/>
      <use xlink:href="#DejaVuSans-53" transform="translate(249.126953 0)"/>
      <use xlink:href="#DejaVuSans-20" transform="translate(312.603516 0)"/>
      <use xlink:href="#DejaVuSans-56" transform="translate(344.390625 0)"/>
      <use xlink:href="#DejaVuSans-32" transform="translate(412.798828 0)"/>
      <use xlink:href="#DejaVuSans-20" transform="translate(476.421875 0)"/>
      <use xlink:href="#DejaVuSans-28" transform="translate(508.208984 0)"/>
      <use xlink:href="#DejaVuSans-35" transform="translate(547.222656 0)"/>
      <use xlink:href="#DejaVuSans-30" transform="translate(610.845703 0)"/>
      <use xlink:href="#DejaVuSans-4d" transform="translate(674.46875 0)"/>
      <use xlink:href="#DejaVuSans-29" transform="translate(760.748047 0)"/>
     </g>
    </g>
    <g id="line2d_23">
     <path d="M 335.876684 90.791633 
L 344.206684 90.791633 
L 352.536684 90.791633 
" style="fill: none; stroke: #d62728; stroke-width: 1.5; stroke-linecap: square"/>
    </g>
    <g id="text_18">
     <!-- NT-1000g (500M) -->
     <g transform="translate(359.200684 93.707133) scale(0.0833 -0.0833)">
      <use xlink:href="#DejaVuSans-4e"/>
      <use xlink:href="#DejaVuSans-54" transform="translate(74.804688 0)"/>
      <use xlink:href="#DejaVuSans-2d" transform="translate(126.763672 0)"/>
      <use xlink:href="#DejaVuSans-31" transform="translate(162.847656 0)"/>
      <use xlink:href="#DejaVuSans-30" transform="translate(226.470703 0)"/>
      <use xlink:href="#DejaVuSans-30" transform="translate(290.09375 0)"/>
      <use xlink:href="#DejaVuSans-30" transform="translate(353.716797 0)"/>
      <use xlink:href="#DejaVuSans-67" transform="translate(417.339844 0)"/>
      <use xlink:href="#DejaVuSans-20" transform="translate(480.816406 0)"/>
      <use xlink:href="#DejaVuSans-28" transform="translate(512.603516 0)"/>
      <use xlink:href="#DejaVuSans-35" transform="translate(551.617188 0)"/>
      <use xlink:href="#DejaVuSans-30" transform="translate(615.240234 0)"/>
      <use xlink:href="#DejaVuSans-30" transform="translate(678.863281 0)"/>
      <use xlink:href="#DejaVuSans-4d" transform="translate(742.486328 0)"/>
      <use xlink:href="#DejaVuSans-29" transform="translate(828.765625 0)"/>
     </g>
    </g>
    <g id="line2d_24">
     <path d="M 335.876684 103.018511 
L 344.206684 103.018511 
L 352.536684 103.018511 
" style="fill: none; stroke: #9467bd; stroke-width: 1.5; stroke-linecap: square"/>
    </g>
    <g id="text_19">
     <!-- NT-MS V2 (250M) -->
     <g transform="translate(359.200684 105.934011) scale(0.0833 -0.0833)">
      <use xlink:href="#DejaVuSans-4e"/>
      <use xlink:href="#DejaVuSans-54" transform="translate(74.804688 0)"/>
      <use xlink:href="#DejaVuSans-2d" transform="translate(126.763672 0)"/>
      <use xlink:href="#DejaVuSans-4d" transform="translate(162.847656 0)"/>
      <use xlink:href="#DejaVuSans-53" transform="translate(249.126953 0)"/>
      <use xlink:href="#DejaVuSans-20" transform="translate(312.603516 0)"/>
      <use xlink:href="#DejaVuSans-56" transform="translate(344.390625 0)"/>
      <use xlink:href="#DejaVuSans-32" transform="translate(412.798828 0)"/>
      <use xlink:href="#DejaVuSans-20" transform="translate(476.421875 0)"/>
      <use xlink:href="#DejaVuSans-28" transform="translate(508.208984 0)"/>
      <use xlink:href="#DejaVuSans-32" transform="translate(547.222656 0)"/>
      <use xlink:href="#DejaVuSans-35" transform="translate(610.845703 0)"/>
      <use xlink:href="#DejaVuSans-30" transform="translate(674.46875 0)"/>
      <use xlink:href="#DejaVuSans-4d" transform="translate(738.091797 0)"/>
      <use xlink:href="#DejaVuSans-29" transform="translate(824.371094 0)"/>
     </g>
    </g>
    <g id="line2d_25">
     <path d="M 335.876684 115.245389 
L 344.206684 115.245389 
L 352.536684 115.245389 
" style="fill: none; stroke: #8c564b; stroke-width: 1.5; stroke-linecap: square"/>
    </g>
    <g id="text_20">
     <!-- NT-MS V2 (100M) -->
     <g transform="translate(359.200684 118.160889) scale(0.0833 -0.0833)">
      <use xlink:href="#DejaVuSans-4e"/>
      <use xlink:href="#DejaVuSans-54" transform="translate(74.804688 0)"/>
      <use xlink:href="#DejaVuSans-2d" transform="translate(126.763672 0)"/>
      <use xlink:href="#DejaVuSans-4d" transform="translate(162.847656 0)"/>
      <use xlink:href="#DejaVuSans-53" transform="translate(249.126953 0)"/>
      <use xlink:href="#DejaVuSans-20" transform="translate(312.603516 0)"/>
      <use xlink:href="#DejaVuSans-56" transform="translate(344.390625 0)"/>
      <use xlink:href="#DejaVuSans-32" transform="translate(412.798828 0)"/>
      <use xlink:href="#DejaVuSans-20" transform="translate(476.421875 0)"/>
      <use xlink:href="#DejaVuSans-28" transform="translate(508.208984 0)"/>
      <use xlink:href="#DejaVuSans-31" transform="translate(547.222656 0)"/>
      <use xlink:href="#DejaVuSans-30" transform="translate(610.845703 0)"/>
      <use xlink:href="#DejaVuSans-30" transform="translate(674.46875 0)"/>
      <use xlink:href="#DejaVuSans-4d" transform="translate(738.091797 0)"/>
      <use xlink:href="#DejaVuSans-29" transform="translate(824.371094 0)"/>
     </g>
    </g>
    <g id="line2d_26">
     <path d="M 335.876684 127.472267 
L 344.206684 127.472267 
L 352.536684 127.472267 
" style="fill: none; stroke: #e377c2; stroke-width: 1.5; stroke-linecap: square"/>
    </g>
    <g id="text_21">
     <!-- NT-Human-Ref. (500M) -->
     <g transform="translate(359.200684 130.387767) scale(0.0833 -0.0833)">
      <defs>
       <path id="DejaVuSans-48" d="M 628 4666 
L 1259 4666 
L 1259 2753 
L 3553 2753 
L 3553 4666 
L 4184 4666 
L 4184 0 
L 3553 0 
L 3553 2222 
L 1259 2222 
L 1259 0 
L 628 0 
L 628 4666 
z
" transform="scale(0.015625)"/>
       <path id="DejaVuSans-52" d="M 2841 2188 
Q 3044 2119 3236 1894 
Q 3428 1669 3622 1275 
L 4263 0 
L 3584 0 
L 2988 1197 
Q 2756 1666 2539 1819 
Q 2322 1972 1947 1972 
L 1259 1972 
L 1259 0 
L 628 0 
L 628 4666 
L 2053 4666 
Q 2853 4666 3247 4331 
Q 3641 3997 3641 3322 
Q 3641 2881 3436 2590 
Q 3231 2300 2841 2188 
z
M 1259 4147 
L 1259 2491 
L 2053 2491 
Q 2509 2491 2742 2702 
Q 2975 2913 2975 3322 
Q 2975 3731 2742 3939 
Q 2509 4147 2053 4147 
L 1259 4147 
z
" transform="scale(0.015625)"/>
       <path id="DejaVuSans-66" d="M 2375 4863 
L 2375 4384 
L 1825 4384 
Q 1516 4384 1395 4259 
Q 1275 4134 1275 3809 
L 1275 3500 
L 2222 3500 
L 2222 3053 
L 1275 3053 
L 1275 0 
L 697 0 
L 697 3053 
L 147 3053 
L 147 3500 
L 697 3500 
L 697 3744 
Q 697 4328 969 4595 
Q 1241 4863 1831 4863 
L 2375 4863 
z
" transform="scale(0.015625)"/>
      </defs>
      <use xlink:href="#DejaVuSans-4e"/>
      <use xlink:href="#DejaVuSans-54" transform="translate(74.804688 0)"/>
      <use xlink:href="#DejaVuSans-2d" transform="translate(126.763672 0)"/>
      <use xlink:href="#DejaVuSans-48" transform="translate(162.847656 0)"/>
      <use xlink:href="#DejaVuSans-75" transform="translate(238.042969 0)"/>
      <use xlink:href="#DejaVuSans-6d" transform="translate(301.421875 0)"/>
      <use xlink:href="#DejaVuSans-61" transform="translate(398.833984 0)"/>
      <use xlink:href="#DejaVuSans-6e" transform="translate(460.113281 0)"/>
      <use xlink:href="#DejaVuSans-2d" transform="translate(523.492188 0)"/>
      <use xlink:href="#DejaVuSans-52" transform="translate(559.576172 0)"/>
      <use xlink:href="#DejaVuSans-65" transform="translate(624.558594 0)"/>
      <use xlink:href="#DejaVuSans-66" transform="translate(686.082031 0)"/>
      <use xlink:href="#DejaVuSans-2e" transform="translate(714.037109 0)"/>
      <use xlink:href="#DejaVuSans-20" transform="translate(745.824219 0)"/>
      <use xlink:href="#DejaVuSans-28" transform="translate(777.611328 0)"/>
      <use xlink:href="#DejaVuSans-35" transform="translate(816.625 0)"/>
      <use xlink:href="#DejaVuSans-30" transform="translate(880.248047 0)"/>
      <use xlink:href="#DejaVuSans-30" transform="translate(943.871094 0)"/>
      <use xlink:href="#DejaVuSans-4d" transform="translate(1007.494141 0)"/>
      <use xlink:href="#DejaVuSans-29" transform="translate(1093.773438 0)"/>
     </g>
    </g>
    <g id="line2d_27">
     <path d="M 335.876684 139.699145 
L 344.206684 139.699145 
L 352.536684 139.699145 
" style="fill: none; stroke: #7f7f7f; stroke-width: 1.5; stroke-linecap: square"/>
    </g>
    <g id="text_22">
     <!-- NT-MS V2 (500M) -->
     <g transform="translate(359.200684 142.614645) scale(0.0833 -0.0833)">
      <use xlink:href="#DejaVuSans-4e"/>
      <use xlink:href="#DejaVuSans-54" transform="translate(74.804688 0)"/>
      <use xlink:href="#DejaVuSans-2d" transform="translate(126.763672 0)"/>
      <use xlink:href="#DejaVuSans-4d" transform="translate(162.847656 0)"/>
      <use xlink:href="#DejaVuSans-53" transform="translate(249.126953 0)"/>
      <use xlink:href="#DejaVuSans-20" transform="translate(312.603516 0)"/>
      <use xlink:href="#DejaVuSans-56" transform="translate(344.390625 0)"/>
      <use xlink:href="#DejaVuSans-32" transform="translate(412.798828 0)"/>
      <use xlink:href="#DejaVuSans-20" transform="translate(476.421875 0)"/>
      <use xlink:href="#DejaVuSans-28" transform="translate(508.208984 0)"/>
      <use xlink:href="#DejaVuSans-35" transform="translate(547.222656 0)"/>
      <use xlink:href="#DejaVuSans-30" transform="translate(610.845703 0)"/>
      <use xlink:href="#DejaVuSans-30" transform="translate(674.46875 0)"/>
      <use xlink:href="#DejaVuSans-4d" transform="translate(738.091797 0)"/>
      <use xlink:href="#DejaVuSans-29" transform="translate(824.371094 0)"/>
     </g>
    </g>
   </g>
  </g>
 </g>
 <defs>
  <clipPath id="pab969a4815">
   <rect x="72" y="43.2" width="446.4" height="277.2"/>
  </clipPath>
 </defs>
</svg>
