<?xml version="1.0" encoding="utf-8" standalone="no"?>
<!DOCTYPE svg PUBLIC "-//W3C//DTD SVG 1.1//EN"
  "http://www.w3.org/Graphics/SVG/1.1/DTD/svg11.dtd">
<svg xmlns:xlink="http://www.w3.org/1999/xlink" width="576pt" height="360pt" viewBox="0 0 576 360" xmlns="http://www.w3.org/2000/svg" version="1.1">
 <metadata>
  <rdf:RDF xmlns:dc="http://purl.org/dc/elements/1.1/" xmlns:cc="http://creativecommons.org/ns#" xmlns:rdf="http://www.w3.org/1999/02/22-rdf-syntax-ns#">
   <cc:Work>
    <dc:type rdf:resource="http://purl.org/dc/dcmitype/StillImage"/>
    <dc:date>2025-01-07T03:55:01.703475</dc:date>
    <dc:format>image/svg+xml</dc:format>
    <dc:creator>
     <cc:Agent>
      <dc:title>Matplotlib v3.10.0, https://matplotlib.org/</dc:title>
     </cc:Agent>
    </dc:creator>
   </cc:Work>
  </rdf:RDF>
 </metadata>
 <defs>
  <style type="text/css">*{stroke-linejoin: round; stroke-linecap: butt}</style>
 </defs>
 <g id="figure_1">
  <g id="patch_1">
   <path d="M 0 360 
L 576 360 
L 576 0 
L 0 0 
z
" style="fill: #ffffff"/>
  </g>
  <g id="axes_1">
   <g id="patch_2">
    <path d="M 72 320.4 
L 518.4 320.4 
L 518.4 43.2 
L 72 43.2 
z
" style="fill: #ffffff"/>
   </g>
   <g id="matplotlib.axis_1">
    <g id="xtick_1">
     <g id="line2d_1">
      <defs>
       <path id="mcb894f97e7" d="M 0 0 
L 0 3.5 
" style="stroke: #000000; stroke-width: 0.8"/>
      </defs>
      <g>
       <use xlink:href="#mcb894f97e7" x="157.672727" y="320.4" style="stroke: #000000; stroke-width: 0.8"/>
      </g>
     </g>
     <g id="text_1">
      <!-- 2000 -->
      <g transform="translate(144.947727 334.998438) scale(0.1 -0.1)">
       <defs>
        <path id="DejaVuSans-32" d="M 1228 531 
L 3431 531 
L 3431 0 
L 469 0 
L 469 531 
Q 828 903 1448 1529 
Q 2069 2156 2228 2338 
Q 2531 2678 2651 2914 
Q 2772 3150 2772 3378 
Q 2772 3750 2511 3984 
Q 2250 4219 1831 4219 
Q 1534 4219 1204 4116 
Q 875 4013 500 3803 
L 500 4441 
Q 881 4594 1212 4672 
Q 1544 4750 1819 4750 
Q 2544 4750 2975 4387 
Q 3406 4025 3406 3419 
Q 3406 3131 3298 2873 
Q 3191 2616 2906 2266 
Q 2828 2175 2409 1742 
Q 1991 1309 1228 531 
z
" transform="scale(0.015625)"/>
        <path id="DejaVuSans-30" d="M 2034 4250 
Q 1547 4250 1301 3770 
Q 1056 3291 1056 2328 
Q 1056 1369 1301 889 
Q 1547 409 2034 409 
Q 2525 409 2770 889 
Q 3016 1369 3016 2328 
Q 3016 3291 2770 3770 
Q 2525 4250 2034 4250 
z
M 2034 4750 
Q 2819 4750 3233 4129 
Q 3647 3509 3647 2328 
Q 3647 1150 3233 529 
Q 2819 -91 2034 -91 
Q 1250 -91 836 529 
Q 422 1150 422 2328 
Q 422 3509 836 4129 
Q 1250 4750 2034 4750 
z
" transform="scale(0.015625)"/>
       </defs>
       <use xlink:href="#DejaVuSans-32"/>
       <use xlink:href="#DejaVuSans-30" transform="translate(63.623047 0)"/>
       <use xlink:href="#DejaVuSans-30" transform="translate(127.246094 0)"/>
       <use xlink:href="#DejaVuSans-30" transform="translate(190.869141 0)"/>
      </g>
     </g>
    </g>
    <g id="xtick_2">
     <g id="line2d_2">
      <g>
       <use xlink:href="#mcb894f97e7" x="247.854545" y="320.4" style="stroke: #000000; stroke-width: 0.8"/>
      </g>
     </g>
     <g id="text_2">
      <!-- 4000 -->
      <g transform="translate(235.129545 334.998438) scale(0.1 -0.1)">
       <defs>
        <path id="DejaVuSans-34" d="M 2419 4116 
L 825 1625 
L 2419 1625 
L 2419 4116 
z
M 2253 4666 
L 3047 4666 
L 3047 1625 
L 3713 1625 
L 3713 1100 
L 3047 1100 
L 3047 0 
L 2419 0 
L 2419 1100 
L 313 1100 
L 313 1709 
L 2253 4666 
z
" transform="scale(0.015625)"/>
       </defs>
       <use xlink:href="#DejaVuSans-34"/>
       <use xlink:href="#DejaVuSans-30" transform="translate(63.623047 0)"/>
       <use xlink:href="#DejaVuSans-30" transform="translate(127.246094 0)"/>
       <use xlink:href="#DejaVuSans-30" transform="translate(190.869141 0)"/>
      </g>
     </g>
    </g>
    <g id="xtick_3">
     <g id="line2d_3">
      <g>
       <use xlink:href="#mcb894f97e7" x="338.036364" y="320.4" style="stroke: #000000; stroke-width: 0.8"/>
      </g>
     </g>
     <g id="text_3">
      <!-- 6000 -->
      <g transform="translate(325.311364 334.998438) scale(0.1 -0.1)">
       <defs>
        <path id="DejaVuSans-36" d="M 2113 2584 
Q 1688 2584 1439 2293 
Q 1191 2003 1191 1497 
Q 1191 994 1439 701 
Q 1688 409 2113 409 
Q 2538 409 2786 701 
Q 3034 994 3034 1497 
Q 3034 2003 2786 2293 
Q 2538 2584 2113 2584 
z
M 3366 4563 
L 3366 3988 
Q 3128 4100 2886 4159 
Q 2644 4219 2406 4219 
Q 1781 4219 1451 3797 
Q 1122 3375 1075 2522 
Q 1259 2794 1537 2939 
Q 1816 3084 2150 3084 
Q 2853 3084 3261 2657 
Q 3669 2231 3669 1497 
Q 3669 778 3244 343 
Q 2819 -91 2113 -91 
Q 1303 -91 875 529 
Q 447 1150 447 2328 
Q 447 3434 972 4092 
Q 1497 4750 2381 4750 
Q 2619 4750 2861 4703 
Q 3103 4656 3366 4563 
z
" transform="scale(0.015625)"/>
       </defs>
       <use xlink:href="#DejaVuSans-36"/>
       <use xlink:href="#DejaVuSans-30" transform="translate(63.623047 0)"/>
       <use xlink:href="#DejaVuSans-30" transform="translate(127.246094 0)"/>
       <use xlink:href="#DejaVuSans-30" transform="translate(190.869141 0)"/>
      </g>
     </g>
    </g>
    <g id="xtick_4">
     <g id="line2d_4">
      <g>
       <use xlink:href="#mcb894f97e7" x="428.218182" y="320.4" style="stroke: #000000; stroke-width: 0.8"/>
      </g>
     </g>
     <g id="text_4">
      <!-- 8000 -->
      <g transform="translate(415.493182 334.998438) scale(0.1 -0.1)">
       <defs>
        <path id="DejaVuSans-38" d="M 2034 2216 
Q 1584 2216 1326 1975 
Q 1069 1734 1069 1313 
Q 1069 891 1326 650 
Q 1584 409 2034 409 
Q 2484 409 2743 651 
Q 3003 894 3003 1313 
Q 3003 1734 2745 1975 
Q 2488 2216 2034 2216 
z
M 1403 2484 
Q 997 2584 770 2862 
Q 544 3141 544 3541 
Q 544 4100 942 4425 
Q 1341 4750 2034 4750 
Q 2731 4750 3128 4425 
Q 3525 4100 3525 3541 
Q 3525 3141 3298 2862 
Q 3072 2584 2669 2484 
Q 3125 2378 3379 2068 
Q 3634 1759 3634 1313 
Q 3634 634 3220 271 
Q 2806 -91 2034 -91 
Q 1263 -91 848 271 
Q 434 634 434 1313 
Q 434 1759 690 2068 
Q 947 2378 1403 2484 
z
M 1172 3481 
Q 1172 3119 1398 2916 
Q 1625 2713 2034 2713 
Q 2441 2713 2670 2916 
Q 2900 3119 2900 3481 
Q 2900 3844 2670 4047 
Q 2441 4250 2034 4250 
Q 1625 4250 1398 4047 
Q 1172 3844 1172 3481 
z
" transform="scale(0.015625)"/>
       </defs>
       <use xlink:href="#DejaVuSans-38"/>
       <use xlink:href="#DejaVuSans-30" transform="translate(63.623047 0)"/>
       <use xlink:href="#DejaVuSans-30" transform="translate(127.246094 0)"/>
       <use xlink:href="#DejaVuSans-30" transform="translate(190.869141 0)"/>
      </g>
     </g>
    </g>
    <g id="xtick_5">
     <g id="line2d_5">
      <g>
       <use xlink:href="#mcb894f97e7" x="518.4" y="320.4" style="stroke: #000000; stroke-width: 0.8"/>
      </g>
     </g>
     <g id="text_5">
      <!-- 10000 -->
      <g transform="translate(502.49375 334.998438) scale(0.1 -0.1)">
       <defs>
        <path id="DejaVuSans-31" d="M 794 531 
L 1825 531 
L 1825 4091 
L 703 3866 
L 703 4441 
L 1819 4666 
L 2450 4666 
L 2450 531 
L 3481 531 
L 3481 0 
L 794 0 
L 794 531 
z
" transform="scale(0.015625)"/>
       </defs>
       <use xlink:href="#DejaVuSans-31"/>
       <use xlink:href="#DejaVuSans-30" transform="translate(63.623047 0)"/>
       <use xlink:href="#DejaVuSans-30" transform="translate(127.246094 0)"/>
       <use xlink:href="#DejaVuSans-30" transform="translate(190.869141 0)"/>
       <use xlink:href="#DejaVuSans-30" transform="translate(254.492188 0)"/>
      </g>
     </g>
    </g>
    <g id="text_6">
     <!-- Training steps -->
     <g transform="translate(260.464844 348.676562) scale(0.1 -0.1)">
      <defs>
       <path id="DejaVuSans-54" d="M -19 4666 
L 3928 4666 
L 3928 4134 
L 2272 4134 
L 2272 0 
L 1638 0 
L 1638 4134 
L -19 4134 
L -19 4666 
z
" transform="scale(0.015625)"/>
       <path id="DejaVuSans-72" d="M 2631 2963 
Q 2534 3019 2420 3045 
Q 2306 3072 2169 3072 
Q 1681 3072 1420 2755 
Q 1159 2438 1159 1844 
L 1159 0 
L 581 0 
L 581 3500 
L 1159 3500 
L 1159 2956 
Q 1341 3275 1631 3429 
Q 1922 3584 2338 3584 
Q 2397 3584 2469 3576 
Q 2541 3569 2628 3553 
L 2631 2963 
z
" transform="scale(0.015625)"/>
       <path id="DejaVuSans-61" d="M 2194 1759 
Q 1497 1759 1228 1600 
Q 959 1441 959 1056 
Q 959 750 1161 570 
Q 1363 391 1709 391 
Q 2188 391 2477 730 
Q 2766 1069 2766 1631 
L 2766 1759 
L 2194 1759 
z
M 3341 1997 
L 3341 0 
L 2766 0 
L 2766 531 
Q 2569 213 2275 61 
Q 1981 -91 1556 -91 
Q 1019 -91 701 211 
Q 384 513 384 1019 
Q 384 1609 779 1909 
Q 1175 2209 1959 2209 
L 2766 2209 
L 2766 2266 
Q 2766 2663 2505 2880 
Q 2244 3097 1772 3097 
Q 1472 3097 1187 3025 
Q 903 2953 641 2809 
L 641 3341 
Q 956 3463 1253 3523 
Q 1550 3584 1831 3584 
Q 2591 3584 2966 3190 
Q 3341 2797 3341 1997 
z
" transform="scale(0.015625)"/>
       <path id="DejaVuSans-69" d="M 603 3500 
L 1178 3500 
L 1178 0 
L 603 0 
L 603 3500 
z
M 603 4863 
L 1178 4863 
L 1178 4134 
L 603 4134 
L 603 4863 
z
" transform="scale(0.015625)"/>
       <path id="DejaVuSans-6e" d="M 3513 2113 
L 3513 0 
L 2938 0 
L 2938 2094 
Q 2938 2591 2744 2837 
Q 2550 3084 2163 3084 
Q 1697 3084 1428 2787 
Q 1159 2491 1159 1978 
L 1159 0 
L 581 0 
L 581 3500 
L 1159 3500 
L 1159 2956 
Q 1366 3272 1645 3428 
Q 1925 3584 2291 3584 
Q 2894 3584 3203 3211 
Q 3513 2838 3513 2113 
z
" transform="scale(0.015625)"/>
       <path id="DejaVuSans-67" d="M 2906 1791 
Q 2906 2416 2648 2759 
Q 2391 3103 1925 3103 
Q 1463 3103 1205 2759 
Q 947 2416 947 1791 
Q 947 1169 1205 825 
Q 1463 481 1925 481 
Q 2391 481 2648 825 
Q 2906 1169 2906 1791 
z
M 3481 434 
Q 3481 -459 3084 -895 
Q 2688 -1331 1869 -1331 
Q 1566 -1331 1297 -1286 
Q 1028 -1241 775 -1147 
L 775 -588 
Q 1028 -725 1275 -790 
Q 1522 -856 1778 -856 
Q 2344 -856 2625 -561 
Q 2906 -266 2906 331 
L 2906 616 
Q 2728 306 2450 153 
Q 2172 0 1784 0 
Q 1141 0 747 490 
Q 353 981 353 1791 
Q 353 2603 747 3093 
Q 1141 3584 1784 3584 
Q 2172 3584 2450 3431 
Q 2728 3278 2906 2969 
L 2906 3500 
L 3481 3500 
L 3481 434 
z
" transform="scale(0.015625)"/>
       <path id="DejaVuSans-20" transform="scale(0.015625)"/>
       <path id="DejaVuSans-73" d="M 2834 3397 
L 2834 2853 
Q 2591 2978 2328 3040 
Q 2066 3103 1784 3103 
Q 1356 3103 1142 2972 
Q 928 2841 928 2578 
Q 928 2378 1081 2264 
Q 1234 2150 1697 2047 
L 1894 2003 
Q 2506 1872 2764 1633 
Q 3022 1394 3022 966 
Q 3022 478 2636 193 
Q 2250 -91 1575 -91 
Q 1294 -91 989 -36 
Q 684 19 347 128 
L 347 722 
Q 666 556 975 473 
Q 1284 391 1588 391 
Q 1994 391 2212 530 
Q 2431 669 2431 922 
Q 2431 1156 2273 1281 
Q 2116 1406 1581 1522 
L 1381 1569 
Q 847 1681 609 1914 
Q 372 2147 372 2553 
Q 372 3047 722 3315 
Q 1072 3584 1716 3584 
Q 2034 3584 2315 3537 
Q 2597 3491 2834 3397 
z
" transform="scale(0.015625)"/>
       <path id="DejaVuSans-74" d="M 1172 4494 
L 1172 3500 
L 2356 3500 
L 2356 3053 
L 1172 3053 
L 1172 1153 
Q 1172 725 1289 603 
Q 1406 481 1766 481 
L 2356 481 
L 2356 0 
L 1766 0 
Q 1100 0 847 248 
Q 594 497 594 1153 
L 594 3053 
L 172 3053 
L 172 3500 
L 594 3500 
L 594 4494 
L 1172 4494 
z
" transform="scale(0.015625)"/>
       <path id="DejaVuSans-65" d="M 3597 1894 
L 3597 1613 
L 953 1613 
Q 991 1019 1311 708 
Q 1631 397 2203 397 
Q 2534 397 2845 478 
Q 3156 559 3463 722 
L 3463 178 
Q 3153 47 2828 -22 
Q 2503 -91 2169 -91 
Q 1331 -91 842 396 
Q 353 884 353 1716 
Q 353 2575 817 3079 
Q 1281 3584 2069 3584 
Q 2775 3584 3186 3129 
Q 3597 2675 3597 1894 
z
M 3022 2063 
Q 3016 2534 2758 2815 
Q 2500 3097 2075 3097 
Q 1594 3097 1305 2825 
Q 1016 2553 972 2059 
L 3022 2063 
z
" transform="scale(0.015625)"/>
       <path id="DejaVuSans-70" d="M 1159 525 
L 1159 -1331 
L 581 -1331 
L 581 3500 
L 1159 3500 
L 1159 2969 
Q 1341 3281 1617 3432 
Q 1894 3584 2278 3584 
Q 2916 3584 3314 3078 
Q 3713 2572 3713 1747 
Q 3713 922 3314 415 
Q 2916 -91 2278 -91 
Q 1894 -91 1617 61 
Q 1341 213 1159 525 
z
M 3116 1747 
Q 3116 2381 2855 2742 
Q 2594 3103 2138 3103 
Q 1681 3103 1420 2742 
Q 1159 2381 1159 1747 
Q 1159 1113 1420 752 
Q 1681 391 2138 391 
Q 2594 391 2855 752 
Q 3116 1113 3116 1747 
z
" transform="scale(0.015625)"/>
      </defs>
      <use xlink:href="#DejaVuSans-54"/>
      <use xlink:href="#DejaVuSans-72" transform="translate(46.333984 0)"/>
      <use xlink:href="#DejaVuSans-61" transform="translate(87.447266 0)"/>
      <use xlink:href="#DejaVuSans-69" transform="translate(148.726562 0)"/>
      <use xlink:href="#DejaVuSans-6e" transform="translate(176.509766 0)"/>
      <use xlink:href="#DejaVuSans-69" transform="translate(239.888672 0)"/>
      <use xlink:href="#DejaVuSans-6e" transform="translate(267.671875 0)"/>
      <use xlink:href="#DejaVuSans-67" transform="translate(331.050781 0)"/>
      <use xlink:href="#DejaVuSans-20" transform="translate(394.527344 0)"/>
      <use xlink:href="#DejaVuSans-73" transform="translate(426.314453 0)"/>
      <use xlink:href="#DejaVuSans-74" transform="translate(478.414062 0)"/>
      <use xlink:href="#DejaVuSans-65" transform="translate(517.623047 0)"/>
      <use xlink:href="#DejaVuSans-70" transform="translate(579.146484 0)"/>
      <use xlink:href="#DejaVuSans-73" transform="translate(642.623047 0)"/>
     </g>
    </g>
   </g>
   <g id="matplotlib.axis_2">
    <g id="ytick_1">
     <g id="line2d_6">
      <defs>
       <path id="mc7813cbb07" d="M 0 0 
L -3.5 0 
" style="stroke: #000000; stroke-width: 0.8"/>
      </defs>
      <g>
       <use xlink:href="#mc7813cbb07" x="72" y="307.8" style="stroke: #000000; stroke-width: 0.8"/>
      </g>
     </g>
     <g id="text_7">
      <!-- 0.0 -->
      <g transform="translate(49.096875 311.599219) scale(0.1 -0.1)">
       <defs>
        <path id="DejaVuSans-2e" d="M 684 794 
L 1344 794 
L 1344 0 
L 684 0 
L 684 794 
z
" transform="scale(0.015625)"/>
       </defs>
       <use xlink:href="#DejaVuSans-30"/>
       <use xlink:href="#DejaVuSans-2e" transform="translate(63.623047 0)"/>
       <use xlink:href="#DejaVuSans-30" transform="translate(95.410156 0)"/>
      </g>
     </g>
    </g>
    <g id="ytick_2">
     <g id="line2d_7">
      <g>
       <use xlink:href="#mc7813cbb07" x="72" y="254.35922" style="stroke: #000000; stroke-width: 0.8"/>
      </g>
     </g>
     <g id="text_8">
      <!-- 0.2 -->
      <g transform="translate(49.096875 258.158438) scale(0.1 -0.1)">
       <use xlink:href="#DejaVuSans-30"/>
       <use xlink:href="#DejaVuSans-2e" transform="translate(63.623047 0)"/>
       <use xlink:href="#DejaVuSans-32" transform="translate(95.410156 0)"/>
      </g>
     </g>
    </g>
    <g id="ytick_3">
     <g id="line2d_8">
      <g>
       <use xlink:href="#mc7813cbb07" x="72" y="200.918439" style="stroke: #000000; stroke-width: 0.8"/>
      </g>
     </g>
     <g id="text_9">
      <!-- 0.4 -->
      <g transform="translate(49.096875 204.717658) scale(0.1 -0.1)">
       <use xlink:href="#DejaVuSans-30"/>
       <use xlink:href="#DejaVuSans-2e" transform="translate(63.623047 0)"/>
       <use xlink:href="#DejaVuSans-34" transform="translate(95.410156 0)"/>
      </g>
     </g>
    </g>
    <g id="ytick_4">
     <g id="line2d_9">
      <g>
       <use xlink:href="#mc7813cbb07" x="72" y="147.477659" style="stroke: #000000; stroke-width: 0.8"/>
      </g>
     </g>
     <g id="text_10">
      <!-- 0.6 -->
      <g transform="translate(49.096875 151.276878) scale(0.1 -0.1)">
       <use xlink:href="#DejaVuSans-30"/>
       <use xlink:href="#DejaVuSans-2e" transform="translate(63.623047 0)"/>
       <use xlink:href="#DejaVuSans-36" transform="translate(95.410156 0)"/>
      </g>
     </g>
    </g>
    <g id="ytick_5">
     <g id="line2d_10">
      <g>
       <use xlink:href="#mc7813cbb07" x="72" y="94.036878" style="stroke: #000000; stroke-width: 0.8"/>
      </g>
     </g>
     <g id="text_11">
      <!-- 0.8 -->
      <g transform="translate(49.096875 97.836097) scale(0.1 -0.1)">
       <use xlink:href="#DejaVuSans-30"/>
       <use xlink:href="#DejaVuSans-2e" transform="translate(63.623047 0)"/>
       <use xlink:href="#DejaVuSans-38" transform="translate(95.410156 0)"/>
      </g>
     </g>
    </g>
    <g id="text_12">
     <!-- Loss -->
     <g transform="translate(43.017187 192.767187) rotate(-90) scale(0.1 -0.1)">
      <defs>
       <path id="DejaVuSans-4c" d="M 628 4666 
L 1259 4666 
L 1259 531 
L 3531 531 
L 3531 0 
L 628 0 
L 628 4666 
z
" transform="scale(0.015625)"/>
       <path id="DejaVuSans-6f" d="M 1959 3097 
Q 1497 3097 1228 2736 
Q 959 2375 959 1747 
Q 959 1119 1226 758 
Q 1494 397 1959 397 
Q 2419 397 2687 759 
Q 2956 1122 2956 1747 
Q 2956 2369 2687 2733 
Q 2419 3097 1959 3097 
z
M 1959 3584 
Q 2709 3584 3137 3096 
Q 3566 2609 3566 1747 
Q 3566 888 3137 398 
Q 2709 -91 1959 -91 
Q 1206 -91 779 398 
Q 353 888 353 1747 
Q 353 2609 779 3096 
Q 1206 3584 1959 3584 
z
" transform="scale(0.015625)"/>
      </defs>
      <use xlink:href="#DejaVuSans-4c"/>
      <use xlink:href="#DejaVuSans-6f" transform="translate(53.962891 0)"/>
      <use xlink:href="#DejaVuSans-73" transform="translate(115.144531 0)"/>
      <use xlink:href="#DejaVuSans-73" transform="translate(167.244141 0)"/>
     </g>
    </g>
   </g>
   <g id="line2d_11">
    <path d="M 72 104.297508 
L 76.509091 116.05448 
L 81.018182 111.084487 
L 85.527273 118.486035 
L 90.036364 119.875496 
L 94.545455 114.050451 
L 99.054545 122.22689 
L 103.563636 125.326455 
L 108.072727 120.783989 
L 112.581818 117.844746 
L 117.090909 122.440653 
L 121.6 123.081943 
L 126.109091 125.914304 
L 130.618182 121.665762 
L 135.127273 131.899671 
L 139.636364 126.181508 
L 144.145455 131.445425 
L 148.654545 125.139413 
L 153.163636 127.624409 
L 157.672727 132.540961 
L 162.181818 138.018641 
L 166.690909 129.655159 
L 171.2 129.708599 
L 175.709091 133.075368 
L 180.218182 136.842943 
L 184.727273 140.476917 
L 189.236364 140.503637 
L 193.745455 139.862348 
L 198.254545 135.506924 
L 202.763636 135.26644 
L 207.272727 132.808165 
L 211.781818 143.015354 
L 216.290909 141.038045 
L 220.8 147.958626 
L 225.309091 140.69068 
L 229.818182 143.122235 
L 234.327273 142.587827 
L 238.836364 148.27927 
L 243.345455 152.875178 
L 247.854545 144.83234 
L 252.363636 153.329424 
L 256.872727 151.913244 
L 261.381818 142.855031 
L 265.890909 160.677532 
L 270.4 149.294645 
L 274.909091 156.589312 
L 279.418182 155.173131 
L 283.927273 159.769038 
L 288.436364 154.718885 
L 292.945455 165.460481 
L 297.454545 154.104316 
L 301.963636 163.242689 
L 306.472727 152.527813 
L 310.981818 158.673502 
L 315.490909 152.928618 
L 320 168.560047 
L 324.509091 171.579451 
L 329.018182 166.556017 
L 333.527273 159.555275 
L 338.036364 167.731715 
L 342.545455 162.975485 
L 347.054545 165.674245 
L 351.563636 179.435245 
L 356.072727 176.709766 
L 360.581818 175.61423 
L 365.090909 166.208652 
L 369.6 170.056389 
L 374.109091 174.438532 
L 378.618182 178.179387 
L 383.127273 185.687817 
L 387.636364 170.697678 
L 392.145455 172.060418 
L 396.654545 177.244173 
L 401.163636 184.405238 
L 405.672727 187.584964 
L 410.181818 184.993087 
L 414.690909 183.069219 
L 419.2 189.9898 
L 423.709091 185.313731 
L 428.218182 182.588252 
L 432.727273 193.196246 
L 437.236364 187.745287 
L 441.745455 191.486141 
L 446.254545 186.703192 
L 450.763636 181.305673 
L 455.272727 185.046527 
L 459.781818 197.605111 
L 464.290909 191.833507 
L 468.8 193.703934 
L 473.309091 198.593765 
L 477.818182 190.444046 
L 482.327273 185.90158 
L 486.836364 194.639147 
L 491.345455 189.642435 
L 495.854545 200.891719 
L 500.363636 206.716764 
L 504.872727 204.445531 
L 509.381818 208.854395 
L 513.890909 188.814102 
L 518.4 199.528979 
" clip-path="url(#p4ed4f0e141)" style="fill: none; stroke: #1f77b4; stroke-width: 1.5; stroke-linecap: square"/>
   </g>
   <g id="line2d_12">
    <path d="M 72 55.8 
L 76.509091 103.70966 
L 81.018182 108.492609 
L 85.527273 93.128385 
L 90.036364 113.409161 
L 94.545455 113.248839 
L 99.054545 111.031047 
L 103.563636 114.905503 
L 108.072727 116.428565 
L 112.581818 113.248839 
L 117.090909 110.656961 
L 121.6 113.222119 
L 126.109091 112.420507 
L 130.618182 119.768614 
L 135.127273 120.516785 
L 139.636364 124.765327 
L 144.145455 118.646358 
L 148.654545 119.955657 
L 153.163636 115.092546 
L 157.672727 125.326455 
L 162.181818 127.490807 
L 166.690909 121.986407 
L 171.2 117.337059 
L 175.709091 124.097317 
L 180.218182 133.075368 
L 184.727273 129.09403 
L 189.236364 125.299735 
L 193.745455 119.875496 
L 198.254545 132.006553 
L 202.763636 133.20897 
L 207.272727 136.121493 
L 211.781818 134.438108 
L 216.290909 142.213742 
L 220.8 129.09403 
L 225.309091 140.102831 
L 229.818182 134.705312 
L 234.327273 128.666504 
L 238.836364 130.029244 
L 243.345455 136.655901 
L 247.854545 135.640526 
L 252.363636 141.759495 
L 256.872727 144.324653 
L 261.381818 143.389439 
L 265.890909 142.988633 
L 270.4 145.714113 
L 274.909091 147.344057 
L 279.418182 147.744863 
L 283.927273 145.47363 
L 288.436364 140.263153 
L 292.945455 151.966684 
L 297.454545 150.97803 
L 301.963636 149.882494 
L 306.472727 155.333454 
L 310.981818 157.043558 
L 315.490909 139.007295 
L 320 156.722914 
L 324.509091 155.654098 
L 329.018182 159.662157 
L 333.527273 152.233888 
L 338.036364 157.497805 
L 342.545455 151.859803 
L 347.054545 163.082367 
L 351.563636 158.753663 
L 356.072727 153.275983 
L 360.581818 172.354342 
L 365.090909 157.551246 
L 369.6 157.043558 
L 374.109091 168.853971 
L 378.618182 167.304188 
L 383.127273 170.644237 
L 387.636364 156.054904 
L 392.145455 158.48646 
L 396.654545 168.292843 
L 401.163636 183.229541 
L 405.672727 172.91547 
L 410.181818 172.060418 
L 414.690909 167.090425 
L 419.2 178.36643 
L 423.709091 172.327622 
L 428.218182 177.751861 
L 432.727273 180.103255 
L 437.236364 180.637663 
L 441.745455 170.670957 
L 446.254545 178.660354 
L 450.763636 182.134005 
L 455.272727 184.004432 
L 459.781818 186.088623 
L 464.290909 189.829477 
L 468.8 180.236857 
L 473.309091 193.249687 
L 477.818182 186.489428 
L 482.327273 176.415841 
L 486.836364 184.378518 
L 491.345455 199.101453 
L 495.854545 192.234312 
L 500.363636 188.333135 
L 504.872727 190.577648 
L 509.381818 186.997116 
L 513.890909 193.035924 
L 518.4 207.491655 
" clip-path="url(#p4ed4f0e141)" style="fill: none; stroke: #ff7f0e; stroke-width: 1.5; stroke-linecap: square"/>
   </g>
   <g id="line2d_13">
    <path d="M 72 129.868922 
L 76.509091 145.794274 
L 81.018182 158.433019 
L 85.527273 156.990118 
L 90.036364 170.002948 
L 94.545455 172.113859 
L 99.054545 167.090425 
L 103.563636 178.019065 
L 108.072727 193.383289 
L 112.581818 175.507348 
L 117.090909 176.442562 
L 121.6 173.636921 
L 126.109091 199.315216 
L 130.618182 178.019065 
L 135.127273 187.558244 
L 139.636364 185.046527 
L 144.145455 189.054586 
L 148.654545 189.9898 
L 153.163636 126.395271 
L 157.672727 204.472251 
L 162.181818 205.033379 
L 166.690909 200.517633 
L 171.2 184.485399 
L 175.709091 198.673926 
L 180.218182 217.298038 
L 184.727273 211.419553 
L 189.236364 211.018747 
L 193.745455 214.706161 
L 198.254545 209.89649 
L 202.763636 198.326561 
L 207.272727 205.220422 
L 211.781818 230.284148 
L 216.290909 225.127113 
L 220.8 222.722278 
L 225.309091 206.44956 
L 229.818182 203.082791 
L 234.327273 223.229965 
L 238.836364 229.936783 
L 243.345455 233.944841 
L 247.854545 219.970077 
L 252.363636 222.21459 
L 256.872727 216.843792 
L 261.381818 221.279377 
L 265.890909 236.56344 
L 270.4 244.713159 
L 274.909091 233.944841 
L 279.418182 238.086502 
L 283.927273 217.43164 
L 288.436364 248.747938 
L 292.945455 244.739879 
L 297.454545 241.560153 
L 301.963636 254.466101 
L 306.472727 223.844534 
L 310.981818 240.063811 
L 315.490909 258.420719 
L 320 260.932436 
L 324.509091 247.999767 
L 329.018182 261.600445 
L 333.527273 263.524313 
L 338.036364 261.012597 
L 342.545455 247.759283 
L 347.054545 278.300689 
L 351.563636 283.003478 
L 356.072727 272.395483 
L 360.581818 267.39877 
L 365.090909 273.918545 
L 369.6 262.482218 
L 374.109091 279.823751 
L 378.618182 287.305461 
L 383.127273 285.702237 
L 387.636364 278.701495 
L 392.145455 284.820464 
L 396.654545 297.031683 
L 401.163636 293.370989 
L 405.672727 294.947492 
L 410.181818 282.709554 
L 414.690909 296.016308 
L 419.2 290.271424 
L 423.709091 290.645509 
L 428.218182 298.367702 
L 432.727273 301.226784 
L 437.236364 303.604899 
L 441.745455 305.582208 
L 446.254545 293.664914 
L 450.763636 296.390393 
L 455.272727 297.031683 
L 459.781818 304.860757 
L 464.290909 307.345753 
L 468.8 305.849412 
L 473.309091 293.718354 
L 477.818182 297.913456 
L 482.327273 304.700435 
L 486.836364 303.738501 
L 491.345455 305.929573 
L 495.854545 306.036454 
L 500.363636 305.876132 
L 504.872727 299.089153 
L 509.381818 307.13199 
L 513.890909 307.532796 
L 518.4 307.265592 
" clip-path="url(#p4ed4f0e141)" style="fill: none; stroke: #2ca02c; stroke-width: 1.5; stroke-linecap: square"/>
   </g>
   <g id="line2d_14">
    <path d="M 72 77.523677 
L 76.509091 128.880267 
L 81.018182 130.617093 
L 85.527273 109.294221 
L 90.036364 137.029986 
L 94.545455 131.338543 
L 99.054545 141.625893 
L 103.563636 139.782186 
L 108.072727 144.378094 
L 112.581818 141.38541 
L 117.090909 146.622606 
L 121.6 135.747407 
L 126.109091 152.100286 
L 130.618182 158.272696 
L 135.127273 154.371519 
L 139.636364 150.871148 
L 144.145455 144.297932 
L 148.654545 167.651553 
L 153.163636 160.650811 
L 157.672727 143.496321 
L 162.181818 156.749634 
L 166.690909 155.333454 
L 171.2 152.501092 
L 175.709091 167.865317 
L 180.218182 163.536613 
L 184.727273 168.346284 
L 189.236364 177.538098 
L 193.745455 162.494518 
L 198.254545 166.636179 
L 202.763636 168.987573 
L 207.272727 162.841883 
L 211.781818 174.545414 
L 216.290909 174.9195 
L 220.8 176.763206 
L 225.309091 169.869346 
L 229.818182 176.576164 
L 234.327273 162.761722 
L 238.836364 186.275665 
L 243.345455 180.931587 
L 247.854545 175.480628 
L 252.363636 177.351055 
L 256.872727 181.519436 
L 261.381818 176.442562 
L 265.890909 180.691104 
L 270.4 194.986513 
L 274.909091 188.146093 
L 279.418182 179.194762 
L 283.927273 177.751861 
L 288.436364 184.271636 
L 292.945455 200.758117 
L 297.454545 198.112798 
L 301.963636 190.257003 
L 306.472727 194.746029 
L 310.981818 197.765433 
L 315.490909 196.295812 
L 320 205.701389 
L 324.509091 194.639147 
L 329.018182 209.308642 
L 333.527273 203.05607 
L 338.036364 206.690043 
L 342.545455 198.2464 
L 347.054545 219.729594 
L 351.563636 207.785579 
L 356.072727 206.315958 
L 360.581818 205.567787 
L 365.090909 208.213106 
L 369.6 195.280437 
L 374.109091 215.400891 
L 378.618182 227.264744 
L 383.127273 217.645403 
L 387.636364 218.447015 
L 392.145455 210.59122 
L 396.654545 208.026063 
L 401.163636 210.110253 
L 405.672727 236.937525 
L 410.181818 235.975591 
L 414.690909 229.829901 
L 419.2 229.215332 
L 423.709091 227.585389 
L 428.218182 216.523147 
L 432.727273 261.89437 
L 437.236364 240.651659 
L 441.745455 248.534175 
L 446.254545 241.987679 
L 450.763636 245.354448 
L 455.272727 223.737652 
L 459.781818 262.161574 
L 464.290909 249.763312 
L 468.8 269.723444 
L 473.309091 252.168148 
L 477.818182 261.573725 
L 482.327273 273.090213 
L 486.836364 262.776143 
L 491.345455 260.104103 
L 495.854545 266.249793 
L 500.363636 263.577754 
L 504.872727 276.537143 
L 509.381818 261.119478 
L 513.890909 279.449666 
L 518.4 277.873163 
" clip-path="url(#p4ed4f0e141)" style="fill: none; stroke: #d62728; stroke-width: 1.5; stroke-linecap: square"/>
   </g>
   <g id="line2d_15">
    <path d="M 72 136.495578 
L 76.509091 161.372262 
L 81.018182 162.120433 
L 85.527273 164.391666 
L 90.036364 175.961595 
L 94.545455 170.751119 
L 99.054545 175.721111 
L 103.563636 191.325819 
L 108.072727 192.581677 
L 112.581818 177.6717 
L 117.090909 178.179387 
L 121.6 183.630347 
L 126.109091 208.213106 
L 130.618182 195.333878 
L 135.127273 194.986513 
L 139.636364 193.570332 
L 144.145455 190.871572 
L 148.654545 162.708281 
L 153.163636 184.51212 
L 157.672727 226.516573 
L 162.181818 208.106224 
L 166.690909 208.239826 
L 171.2 196.937101 
L 175.709091 208.159665 
L 180.218182 220.264002 
L 184.727273 209.549125 
L 189.236364 215.828417 
L 193.745455 222.161149 
L 198.254545 218.500456 
L 202.763636 213.396861 
L 207.272727 215.454331 
L 211.781818 242.548807 
L 216.290909 239.262199 
L 220.8 241.079186 
L 225.309091 234.693012 
L 229.818182 224.779748 
L 234.327273 237.578815 
L 238.836364 261.279801 
L 243.345455 256.817495 
L 247.854545 253.04992 
L 252.363636 248.988421 
L 256.872727 257.378624 
L 261.381818 245.247567 
L 265.890909 279.476386 
L 270.4 283.80509 
L 274.909091 270.899141 
L 279.418182 273.437578 
L 283.927273 269.830326 
L 288.436364 269.910487 
L 292.945455 278.674775 
L 297.454545 292.783141 
L 301.963636 281.026169 
L 306.472727 282.575952 
L 310.981818 275.414887 
L 315.490909 282.869876 
L 320 283.377563 
L 324.509091 298.340982 
L 329.018182 298.18066 
L 333.527273 286.209925 
L 338.036364 293.39771 
L 342.545455 295.187976 
L 347.054545 290.405026 
L 351.563636 294.78717 
L 356.072727 302.32232 
L 360.581818 301.493988 
L 365.090909 300.692376 
L 369.6 291.527282 
L 374.109091 301.600869 
L 378.618182 297.860015 
L 383.127273 305.635648 
L 387.636364 304.486672 
L 392.145455 307.238872 
L 396.654545 303.230813 
L 401.163636 305.181402 
L 405.672727 302.856728 
L 410.181818 307.212151 
L 414.690909 302.749846 
L 419.2 307.8 
L 423.709091 303.978984 
L 428.218182 306.998388 
L 432.727273 306.971668 
L 437.236364 304.914198 
L 441.745455 306.330379 
L 446.254545 304.085866 
L 450.763636 303.925543 
L 455.272727 302.883448 
L 459.781818 307.345753 
L 464.290909 306.43726 
L 468.8 307.8 
L 473.309091 307.8 
L 477.818182 307.77328 
L 482.327273 306.063175 
L 486.836364 307.506076 
L 491.345455 307.559516 
L 495.854545 307.666398 
L 500.363636 307.8 
L 504.872727 307.746559 
L 509.381818 307.8 
L 513.890909 307.746559 
L 518.4 307.8 
" clip-path="url(#p4ed4f0e141)" style="fill: none; stroke: #9467bd; stroke-width: 1.5; stroke-linecap: square"/>
   </g>
   <g id="line2d_16">
    <path d="M 72 127.303764 
L 76.509091 150.95131 
L 81.018182 156.642753 
L 85.527273 158.5399 
L 90.036364 166.368975 
L 94.545455 164.445107 
L 99.054545 168.560047 
L 103.563636 177.832022 
L 108.072727 187.371201 
L 112.581818 169.709023 
L 117.090909 174.598855 
L 121.6 177.404496 
L 126.109091 195.975167 
L 130.618182 174.358371 
L 135.127273 151.806362 
L 139.636364 188.974425 
L 144.145455 187.26432 
L 148.654545 188.172813 
L 153.163636 188.6805 
L 157.672727 212.328046 
L 162.181818 203.884403 
L 166.690909 199.956505 
L 171.2 195.547641 
L 175.709091 199.181614 
L 180.218182 206.128915 
L 184.727273 216.870512 
L 189.236364 217.832446 
L 193.745455 219.275347 
L 198.254545 207.14429 
L 202.763636 211.847079 
L 207.272727 209.068158 
L 211.781818 232.208016 
L 216.290909 235.307581 
L 220.8 218.527176 
L 225.309091 226.890658 
L 229.818182 225.821843 
L 234.327273 238.300265 
L 238.836364 253.04992 
L 243.345455 253.71793 
L 247.854545 229.215332 
L 252.363636 241.37311 
L 256.872727 251.072612 
L 261.381818 235.2007 
L 265.890909 254.092016 
L 270.4 274.21247 
L 274.909091 260.451469 
L 279.418182 264.67329 
L 283.927273 246.476704 
L 288.436364 257.298463 
L 292.945455 268.601188 
L 297.454545 279.02214 
L 301.963636 274.559835 
L 306.472727 271.139625 
L 310.981818 281.80106 
L 315.490909 264.085442 
L 320 285.728958 
L 324.509091 276.403542 
L 329.018182 297.619531 
L 333.527273 281.07961 
L 338.036364 273.437578 
L 342.545455 297.004962 
L 347.054545 287.893309 
L 351.563636 299.837324 
L 356.072727 287.198579 
L 360.581818 304.112586 
L 365.090909 296.81792 
L 369.6 291.928088 
L 374.109091 296.84464 
L 378.618182 304.860757 
L 383.127273 305.395165 
L 387.636364 295.187976 
L 392.145455 283.13708 
L 396.654545 303.310974 
L 401.163636 301.841353 
L 405.672727 305.902852 
L 410.181818 297.004962 
L 414.690909 296.523995 
L 419.2 292.462496 
L 423.709091 303.417856 
L 428.218182 294.920772 
L 432.727273 303.177372 
L 437.236364 302.536083 
L 441.745455 302.669685 
L 446.254545 306.811346 
L 450.763636 303.578178 
L 455.272727 307.078549 
L 459.781818 307.719839 
L 464.290909 305.71581 
L 468.8 301.413827 
L 473.309091 307.158711 
L 477.818182 307.532796 
L 482.327273 304.807316 
L 486.836364 306.009734 
L 491.345455 307.479355 
L 495.854545 306.838066 
L 500.363636 306.170056 
L 504.872727 307.693118 
L 509.381818 306.517421 
L 513.890909 306.490701 
L 518.4 305.181402 
" clip-path="url(#p4ed4f0e141)" style="fill: none; stroke: #8c564b; stroke-width: 1.5; stroke-linecap: square"/>
   </g>
   <g id="line2d_17">
    <path d="M 72 66.381275 
L 76.509091 121.826084 
L 81.018182 126.101347 
L 85.527273 134.384668 
L 90.036364 121.238236 
L 94.545455 127.490807 
L 99.054545 150.470342 
L 103.563636 152.447651 
L 108.072727 140.69068 
L 112.581818 145.927876 
L 117.090909 153.917273 
L 121.6 160.330166 
L 126.109091 173.369717 
L 130.618182 167.704994 
L 135.127273 169.521981 
L 139.636364 175.480628 
L 144.145455 159.662157 
L 148.654545 153.943993 
L 153.163636 167.197307 
L 157.672727 184.912925 
L 162.181818 183.309702 
L 166.690909 179.114601 
L 171.2 169.361658 
L 175.709091 178.660354 
L 180.218182 186.195504 
L 184.727273 199.181614 
L 189.236364 186.435988 
L 193.745455 186.195504 
L 198.254545 185.981741 
L 202.763636 178.713795 
L 207.272727 175.827993 
L 211.781818 205.514346 
L 216.290909 208.373428 
L 220.8 185.313731 
L 225.309091 181.225512 
L 229.818182 184.485399 
L 234.327273 195.226996 
L 238.836364 194.505546 
L 243.345455 191.806786 
L 247.854545 188.6805 
L 252.363636 208.293267 
L 256.872727 194.10474 
L 261.381818 194.612427 
L 265.890909 201.907094 
L 270.4 210.083533 
L 274.909091 192.902322 
L 279.418182 202.575103 
L 283.927273 197.899035 
L 288.436364 206.369399 
L 292.945455 216.523147 
L 297.454545 185.126689 
L 301.963636 218.847821 
L 306.472727 196.509575 
L 310.981818 217.164436 
L 315.490909 227.318185 
L 320 205.674669 
L 324.509091 220.557926 
L 329.018182 223.310126 
L 333.527273 209.068158 
L 338.036364 229.108451 
L 342.545455 234.986937 
L 347.054545 214.385516 
L 351.563636 240.331015 
L 356.072727 235.173979 
L 360.581818 210.377457 
L 365.090909 230.043665 
L 369.6 214.946644 
L 374.109091 231.753769 
L 378.618182 247.999767 
L 383.127273 252.061266 
L 387.636364 249.709872 
L 392.145455 228.012915 
L 396.654545 247.759283 
L 401.163636 248.026487 
L 405.672727 250.645085 
L 410.181818 267.772855 
L 414.690909 233.81124 
L 419.2 261.039317 
L 423.709091 254.546262 
L 428.218182 263.070067 
L 432.727273 274.052147 
L 437.236364 266.356675 
L 441.745455 278.781656 
L 446.254545 256.603732 
L 450.763636 270.979302 
L 455.272727 268.120221 
L 459.781818 285.595356 
L 464.290909 295.241417 
L 468.8 286.156484 
L 473.309091 280.571922 
L 477.818182 280.224557 
L 482.327273 286.771053 
L 486.836364 293.45115 
L 491.345455 295.428459 
L 495.854545 294.920772 
L 500.363636 286.396967 
L 504.872727 293.958838 
L 509.381818 286.904655 
L 513.890909 297.485929 
L 518.4 294.653568 
" clip-path="url(#p4ed4f0e141)" style="fill: none; stroke: #e377c2; stroke-width: 1.5; stroke-linecap: square"/>
   </g>
   <g id="line2d_18">
    <path d="M 72 136.816223 
L 76.509091 159.23463 
L 81.018182 163.376291 
L 85.527273 152.100286 
L 90.036364 168.346284 
L 94.545455 172.942191 
L 99.054545 163.509893 
L 103.563636 182.962337 
L 108.072727 201.345965 
L 112.581818 166.155212 
L 117.090909 182.855455 
L 121.6 180.637663 
L 126.109091 203.136232 
L 130.618182 199.555699 
L 135.127273 198.94113 
L 139.636364 188.252974 
L 144.145455 194.425384 
L 148.654545 193.43673 
L 153.163636 196.429414 
L 157.672727 226.570014 
L 162.181818 210.698102 
L 166.690909 212.034122 
L 171.2 199.021291 
L 175.709091 218.553897 
L 180.218182 219.355508 
L 184.727273 225.207274 
L 189.236364 228.093076 
L 193.745455 222.508514 
L 198.254545 219.034864 
L 202.763636 219.943357 
L 207.272727 226.463132 
L 211.781818 245.113965 
L 216.290909 241.773916 
L 220.8 242.789291 
L 225.309091 237.151288 
L 229.818182 239.582844 
L 234.327273 239.663005 
L 238.836364 265.715385 
L 243.345455 249.041862 
L 247.854545 261.306521 
L 252.363636 264.432807 
L 256.872727 250.751967 
L 261.381818 246.583586 
L 265.890909 282.709554 
L 270.4 276.189778 
L 274.909091 287.038257 
L 279.418182 282.46907 
L 283.927273 281.07961 
L 288.436364 270.979302 
L 292.945455 269.883766 
L 297.454545 294.332923 
L 301.963636 288.320836 
L 306.472727 292.596098 
L 310.981818 292.195292 
L 315.490909 281.07961 
L 320 303.765221 
L 324.509091 301.547429 
L 329.018182 302.429202 
L 333.527273 307.10527 
L 338.036364 299.997646 
L 342.545455 295.615502 
L 347.054545 298.554745 
L 351.563636 299.944205 
L 356.072727 305.71581 
L 360.581818 302.135277 
L 365.090909 301.200064 
L 369.6 304.834037 
L 374.109091 304.620274 
L 378.618182 304.35307 
L 383.127273 304.860757 
L 387.636364 305.983013 
L 392.145455 306.43726 
L 396.654545 302.803287 
L 401.163636 303.097211 
L 405.672727 307.345753 
L 410.181818 307.746559 
L 414.690909 302.135277 
L 419.2 307.719839 
L 423.709091 307.238872 
L 428.218182 304.780596 
L 432.727273 306.009734 
L 437.236364 303.845382 
L 441.745455 307.719839 
L 446.254545 307.746559 
L 450.763636 303.765221 
L 455.272727 307.719839 
L 459.781818 307.8 
L 464.290909 305.983013 
L 468.8 306.944948 
L 473.309091 307.77328 
L 477.818182 307.8 
L 482.327273 307.8 
L 486.836364 307.77328 
L 491.345455 307.612957 
L 495.854545 307.10527 
L 500.363636 307.77328 
L 504.872727 307.8 
L 509.381818 303.738501 
L 513.890909 307.746559 
L 518.4 307.8 
" clip-path="url(#p4ed4f0e141)" style="fill: none; stroke: #7f7f7f; stroke-width: 1.5; stroke-linecap: square"/>
   </g>
   <g id="patch_3">
    <path d="M 72 320.4 
L 72 43.2 
" style="fill: none; stroke: #000000; stroke-width: 0.8; stroke-linejoin: miter; stroke-linecap: square"/>
   </g>
   <g id="patch_4">
    <path d="M 518.4 320.4 
L 518.4 43.2 
" style="fill: none; stroke: #000000; stroke-width: 0.8; stroke-linejoin: miter; stroke-linecap: square"/>
   </g>
   <g id="patch_5">
    <path d="M 72 320.4 
L 518.4 320.4 
" style="fill: none; stroke: #000000; stroke-width: 0.8; stroke-linejoin: miter; stroke-linecap: square"/>
   </g>
   <g id="patch_6">
    <path d="M 72 43.2 
L 518.4 43.2 
" style="fill: none; stroke: #000000; stroke-width: 0.8; stroke-linejoin: miter; stroke-linecap: square"/>
   </g>
   <g id="text_13">
    <!-- Enhancers (drosophila) -->
    <g transform="translate(225.921562 37.2) scale(0.12 -0.12)">
     <defs>
      <path id="DejaVuSans-45" d="M 628 4666 
L 3578 4666 
L 3578 4134 
L 1259 4134 
L 1259 2753 
L 3481 2753 
L 3481 2222 
L 1259 2222 
L 1259 531 
L 3634 531 
L 3634 0 
L 628 0 
L 628 4666 
z
" transform="scale(0.015625)"/>
      <path id="DejaVuSans-68" d="M 3513 2113 
L 3513 0 
L 2938 0 
L 2938 2094 
Q 2938 2591 2744 2837 
Q 2550 3084 2163 3084 
Q 1697 3084 1428 2787 
Q 1159 2491 1159 1978 
L 1159 0 
L 581 0 
L 581 4863 
L 1159 4863 
L 1159 2956 
Q 1366 3272 1645 3428 
Q 1925 3584 2291 3584 
Q 2894 3584 3203 3211 
Q 3513 2838 3513 2113 
z
" transform="scale(0.015625)"/>
      <path id="DejaVuSans-63" d="M 3122 3366 
L 3122 2828 
Q 2878 2963 2633 3030 
Q 2388 3097 2138 3097 
Q 1578 3097 1268 2742 
Q 959 2388 959 1747 
Q 959 1106 1268 751 
Q 1578 397 2138 397 
Q 2388 397 2633 464 
Q 2878 531 3122 666 
L 3122 134 
Q 2881 22 2623 -34 
Q 2366 -91 2075 -91 
Q 1284 -91 818 406 
Q 353 903 353 1747 
Q 353 2603 823 3093 
Q 1294 3584 2113 3584 
Q 2378 3584 2631 3529 
Q 2884 3475 3122 3366 
z
" transform="scale(0.015625)"/>
      <path id="DejaVuSans-28" d="M 1984 4856 
Q 1566 4138 1362 3434 
Q 1159 2731 1159 2009 
Q 1159 1288 1364 580 
Q 1569 -128 1984 -844 
L 1484 -844 
Q 1016 -109 783 600 
Q 550 1309 550 2009 
Q 550 2706 781 3412 
Q 1013 4119 1484 4856 
L 1984 4856 
z
" transform="scale(0.015625)"/>
      <path id="DejaVuSans-64" d="M 2906 2969 
L 2906 4863 
L 3481 4863 
L 3481 0 
L 2906 0 
L 2906 525 
Q 2725 213 2448 61 
Q 2172 -91 1784 -91 
Q 1150 -91 751 415 
Q 353 922 353 1747 
Q 353 2572 751 3078 
Q 1150 3584 1784 3584 
Q 2172 3584 2448 3432 
Q 2725 3281 2906 2969 
z
M 947 1747 
Q 947 1113 1208 752 
Q 1469 391 1925 391 
Q 2381 391 2643 752 
Q 2906 1113 2906 1747 
Q 2906 2381 2643 2742 
Q 2381 3103 1925 3103 
Q 1469 3103 1208 2742 
Q 947 2381 947 1747 
z
" transform="scale(0.015625)"/>
      <path id="DejaVuSans-6c" d="M 603 4863 
L 1178 4863 
L 1178 0 
L 603 0 
L 603 4863 
z
" transform="scale(0.015625)"/>
      <path id="DejaVuSans-29" d="M 513 4856 
L 1013 4856 
Q 1481 4119 1714 3412 
Q 1947 2706 1947 2009 
Q 1947 1309 1714 600 
Q 1481 -109 1013 -844 
L 513 -844 
Q 928 -128 1133 580 
Q 1338 1288 1338 2009 
Q 1338 2731 1133 3434 
Q 928 4138 513 4856 
z
" transform="scale(0.015625)"/>
     </defs>
     <use xlink:href="#DejaVuSans-45"/>
     <use xlink:href="#DejaVuSans-6e" transform="translate(63.183594 0)"/>
     <use xlink:href="#DejaVuSans-68" transform="translate(126.5625 0)"/>
     <use xlink:href="#DejaVuSans-61" transform="translate(189.941406 0)"/>
     <use xlink:href="#DejaVuSans-6e" transform="translate(251.220703 0)"/>
     <use xlink:href="#DejaVuSans-63" transform="translate(314.599609 0)"/>
     <use xlink:href="#DejaVuSans-65" transform="translate(369.580078 0)"/>
     <use xlink:href="#DejaVuSans-72" transform="translate(431.103516 0)"/>
     <use xlink:href="#DejaVuSans-73" transform="translate(472.216797 0)"/>
     <use xlink:href="#DejaVuSans-20" transform="translate(524.316406 0)"/>
     <use xlink:href="#DejaVuSans-28" transform="translate(556.103516 0)"/>
     <use xlink:href="#DejaVuSans-64" transform="translate(595.117188 0)"/>
     <use xlink:href="#DejaVuSans-72" transform="translate(658.59375 0)"/>
     <use xlink:href="#DejaVuSans-6f" transform="translate(697.457031 0)"/>
     <use xlink:href="#DejaVuSans-73" transform="translate(758.638672 0)"/>
     <use xlink:href="#DejaVuSans-6f" transform="translate(810.738281 0)"/>
     <use xlink:href="#DejaVuSans-70" transform="translate(871.919922 0)"/>
     <use xlink:href="#DejaVuSans-68" transform="translate(935.396484 0)"/>
     <use xlink:href="#DejaVuSans-69" transform="translate(998.775391 0)"/>
     <use xlink:href="#DejaVuSans-6c" transform="translate(1026.558594 0)"/>
     <use xlink:href="#DejaVuSans-61" transform="translate(1054.341797 0)"/>
     <use xlink:href="#DejaVuSans-29" transform="translate(1115.621094 0)"/>
    </g>
   </g>
   <g id="legend_1">
    <g id="patch_7">
     <path d="M 334.210684 147.679025 
L 512.569 147.679025 
Q 514.235 147.679025 514.235 146.013025 
L 514.235 49.031 
Q 514.235 47.365 512.569 47.365 
L 334.210684 47.365 
Q 332.544684 47.365 332.544684 49.031 
L 332.544684 146.013025 
Q 332.544684 147.679025 334.210684 147.679025 
z
" style="fill: #ffffff; opacity: 0.8; stroke: #cccccc; stroke-linejoin: miter"/>
    </g>
    <g id="line2d_19">
     <path d="M 335.876684 54.110998 
L 344.206684 54.110998 
L 352.536684 54.110998 
" style="fill: none; stroke: #1f77b4; stroke-width: 1.5; stroke-linecap: square"/>
    </g>
    <g id="text_14">
     <!-- NT-MS V2 (50M) with rand. weights -->
     <g transform="translate(359.200684 57.026498) scale(0.0833 -0.0833)">
      <defs>
       <path id="DejaVuSans-4e" d="M 628 4666 
L 1478 4666 
L 3547 763 
L 3547 4666 
L 4159 4666 
L 4159 0 
L 3309 0 
L 1241 3903 
L 1241 0 
L 628 0 
L 628 4666 
z
" transform="scale(0.015625)"/>
       <path id="DejaVuSans-2d" d="M 313 2009 
L 1997 2009 
L 1997 1497 
L 313 1497 
L 313 2009 
z
" transform="scale(0.015625)"/>
       <path id="DejaVuSans-4d" d="M 628 4666 
L 1569 4666 
L 2759 1491 
L 3956 4666 
L 4897 4666 
L 4897 0 
L 4281 0 
L 4281 4097 
L 3078 897 
L 2444 897 
L 1241 4097 
L 1241 0 
L 628 0 
L 628 4666 
z
" transform="scale(0.015625)"/>
       <path id="DejaVuSans-53" d="M 3425 4513 
L 3425 3897 
Q 3066 4069 2747 4153 
Q 2428 4238 2131 4238 
Q 1616 4238 1336 4038 
Q 1056 3838 1056 3469 
Q 1056 3159 1242 3001 
Q 1428 2844 1947 2747 
L 2328 2669 
Q 3034 2534 3370 2195 
Q 3706 1856 3706 1288 
Q 3706 609 3251 259 
Q 2797 -91 1919 -91 
Q 1588 -91 1214 -16 
Q 841 59 441 206 
L 441 856 
Q 825 641 1194 531 
Q 1563 422 1919 422 
Q 2459 422 2753 634 
Q 3047 847 3047 1241 
Q 3047 1584 2836 1778 
Q 2625 1972 2144 2069 
L 1759 2144 
Q 1053 2284 737 2584 
Q 422 2884 422 3419 
Q 422 4038 858 4394 
Q 1294 4750 2059 4750 
Q 2388 4750 2728 4690 
Q 3069 4631 3425 4513 
z
" transform="scale(0.015625)"/>
       <path id="DejaVuSans-56" d="M 1831 0 
L 50 4666 
L 709 4666 
L 2188 738 
L 3669 4666 
L 4325 4666 
L 2547 0 
L 1831 0 
z
" transform="scale(0.015625)"/>
       <path id="DejaVuSans-35" d="M 691 4666 
L 3169 4666 
L 3169 4134 
L 1269 4134 
L 1269 2991 
Q 1406 3038 1543 3061 
Q 1681 3084 1819 3084 
Q 2600 3084 3056 2656 
Q 3513 2228 3513 1497 
Q 3513 744 3044 326 
Q 2575 -91 1722 -91 
Q 1428 -91 1123 -41 
Q 819 9 494 109 
L 494 744 
Q 775 591 1075 516 
Q 1375 441 1709 441 
Q 2250 441 2565 725 
Q 2881 1009 2881 1497 
Q 2881 1984 2565 2268 
Q 2250 2553 1709 2553 
Q 1456 2553 1204 2497 
Q 953 2441 691 2322 
L 691 4666 
z
" transform="scale(0.015625)"/>
       <path id="DejaVuSans-77" d="M 269 3500 
L 844 3500 
L 1563 769 
L 2278 3500 
L 2956 3500 
L 3675 769 
L 4391 3500 
L 4966 3500 
L 4050 0 
L 3372 0 
L 2619 2869 
L 1863 0 
L 1184 0 
L 269 3500 
z
" transform="scale(0.015625)"/>
      </defs>
      <use xlink:href="#DejaVuSans-4e"/>
      <use xlink:href="#DejaVuSans-54" transform="translate(74.804688 0)"/>
      <use xlink:href="#DejaVuSans-2d" transform="translate(126.763672 0)"/>
      <use xlink:href="#DejaVuSans-4d" transform="translate(162.847656 0)"/>
      <use xlink:href="#DejaVuSans-53" transform="translate(249.126953 0)"/>
      <use xlink:href="#DejaVuSans-20" transform="translate(312.603516 0)"/>
      <use xlink:href="#DejaVuSans-56" transform="translate(344.390625 0)"/>
      <use xlink:href="#DejaVuSans-32" transform="translate(412.798828 0)"/>
      <use xlink:href="#DejaVuSans-20" transform="translate(476.421875 0)"/>
      <use xlink:href="#DejaVuSans-28" transform="translate(508.208984 0)"/>
      <use xlink:href="#DejaVuSans-35" transform="translate(547.222656 0)"/>
      <use xlink:href="#DejaVuSans-30" transform="translate(610.845703 0)"/>
      <use xlink:href="#DejaVuSans-4d" transform="translate(674.46875 0)"/>
      <use xlink:href="#DejaVuSans-29" transform="translate(760.748047 0)"/>
      <use xlink:href="#DejaVuSans-20" transform="translate(799.761719 0)"/>
      <use xlink:href="#DejaVuSans-77" transform="translate(831.548828 0)"/>
      <use xlink:href="#DejaVuSans-69" transform="translate(913.335938 0)"/>
      <use xlink:href="#DejaVuSans-74" transform="translate(941.119141 0)"/>
      <use xlink:href="#DejaVuSans-68" transform="translate(980.328125 0)"/>
      <use xlink:href="#DejaVuSans-20" transform="translate(1043.707031 0)"/>
      <use xlink:href="#DejaVuSans-72" transform="translate(1075.494141 0)"/>
      <use xlink:href="#DejaVuSans-61" transform="translate(1116.607422 0)"/>
      <use xlink:href="#DejaVuSans-6e" transform="translate(1177.886719 0)"/>
      <use xlink:href="#DejaVuSans-64" transform="translate(1241.265625 0)"/>
      <use xlink:href="#DejaVuSans-2e" transform="translate(1304.742188 0)"/>
      <use xlink:href="#DejaVuSans-20" transform="translate(1336.529297 0)"/>
      <use xlink:href="#DejaVuSans-77" transform="translate(1368.316406 0)"/>
      <use xlink:href="#DejaVuSans-65" transform="translate(1450.103516 0)"/>
      <use xlink:href="#DejaVuSans-69" transform="translate(1511.626953 0)"/>
      <use xlink:href="#DejaVuSans-67" transform="translate(1539.410156 0)"/>
      <use xlink:href="#DejaVuSans-68" transform="translate(1602.886719 0)"/>
      <use xlink:href="#DejaVuSans-74" transform="translate(1666.265625 0)"/>
      <use xlink:href="#DejaVuSans-73" transform="translate(1705.474609 0)"/>
     </g>
    </g>
    <g id="line2d_20">
     <path d="M 335.876684 66.337877 
L 344.206684 66.337877 
L 352.536684 66.337877 
" style="fill: none; stroke: #ff7f0e; stroke-width: 1.5; stroke-linecap: square"/>
    </g>
    <g id="text_15">
     <!-- NT-MS V2 (500M) with rand. weights -->
     <g transform="translate(359.200684 69.253377) scale(0.0833 -0.0833)">
      <use xlink:href="#DejaVuSans-4e"/>
      <use xlink:href="#DejaVuSans-54" transform="translate(74.804688 0)"/>
      <use xlink:href="#DejaVuSans-2d" transform="translate(126.763672 0)"/>
      <use xlink:href="#DejaVuSans-4d" transform="translate(162.847656 0)"/>
      <use xlink:href="#DejaVuSans-53" transform="translate(249.126953 0)"/>
      <use xlink:href="#DejaVuSans-20" transform="translate(312.603516 0)"/>
      <use xlink:href="#DejaVuSans-56" transform="translate(344.390625 0)"/>
      <use xlink:href="#DejaVuSans-32" transform="translate(412.798828 0)"/>
      <use xlink:href="#DejaVuSans-20" transform="translate(476.421875 0)"/>
      <use xlink:href="#DejaVuSans-28" transform="translate(508.208984 0)"/>
      <use xlink:href="#DejaVuSans-35" transform="translate(547.222656 0)"/>
      <use xlink:href="#DejaVuSans-30" transform="translate(610.845703 0)"/>
      <use xlink:href="#DejaVuSans-30" transform="translate(674.46875 0)"/>
      <use xlink:href="#DejaVuSans-4d" transform="translate(738.091797 0)"/>
      <use xlink:href="#DejaVuSans-29" transform="translate(824.371094 0)"/>
      <use xlink:href="#DejaVuSans-20" transform="translate(863.384766 0)"/>
      <use xlink:href="#DejaVuSans-77" transform="translate(895.171875 0)"/>
      <use xlink:href="#DejaVuSans-69" transform="translate(976.958984 0)"/>
      <use xlink:href="#DejaVuSans-74" transform="translate(1004.742188 0)"/>
      <use xlink:href="#DejaVuSans-68" transform="translate(1043.951172 0)"/>
      <use xlink:href="#DejaVuSans-20" transform="translate(1107.330078 0)"/>
      <use xlink:href="#DejaVuSans-72" transform="translate(1139.117188 0)"/>
      <use xlink:href="#DejaVuSans-61" transform="translate(1180.230469 0)"/>
      <use xlink:href="#DejaVuSans-6e" transform="translate(1241.509766 0)"/>
      <use xlink:href="#DejaVuSans-64" transform="translate(1304.888672 0)"/>
      <use xlink:href="#DejaVuSans-2e" transform="translate(1368.365234 0)"/>
      <use xlink:href="#DejaVuSans-20" transform="translate(1400.152344 0)"/>
      <use xlink:href="#DejaVuSans-77" transform="translate(1431.939453 0)"/>
      <use xlink:href="#DejaVuSans-65" transform="translate(1513.726562 0)"/>
      <use xlink:href="#DejaVuSans-69" transform="translate(1575.25 0)"/>
      <use xlink:href="#DejaVuSans-67" transform="translate(1603.033203 0)"/>
      <use xlink:href="#DejaVuSans-68" transform="translate(1666.509766 0)"/>
      <use xlink:href="#DejaVuSans-74" transform="translate(1729.888672 0)"/>
      <use xlink:href="#DejaVuSans-73" transform="translate(1769.097656 0)"/>
     </g>
    </g>
    <g id="line2d_21">
     <path d="M 335.876684 78.564755 
L 344.206684 78.564755 
L 352.536684 78.564755 
" style="fill: none; stroke: #2ca02c; stroke-width: 1.5; stroke-linecap: square"/>
    </g>
    <g id="text_16">
     <!-- NT-MS V2 (50M) -->
     <g transform="translate(359.200684 81.480255) scale(0.0833 -0.0833)">
      <use xlink:href="#DejaVuSans-4e"/>
      <use xlink:href="#DejaVuSans-54" transform="translate(74.804688 0)"/>
      <use xlink:href="#DejaVuSans-2d" transform="translate(126.763672 0)"/>
      <use xlink:href="#DejaVuSans-4d" transform="translate(162.847656 0)"/>
      <use xlink:href="#DejaVuSans-53" transform="translate(249.126953 0)"/>
      <use xlink:href="#DejaVuSans-20" transform="translate(312.603516 0)"/>
      <use xlink:href="#DejaVuSans-56" transform="translate(344.390625 0)"/>
      <use xlink:href="#DejaVuSans-32" transform="translate(412.798828 0)"/>
      <use xlink:href="#DejaVuSans-20" transform="translate(476.421875 0)"/>
      <use xlink:href="#DejaVuSans-28" transform="translate(508.208984 0)"/>
      <use xlink:href="#DejaVuSans-35" transform="translate(547.222656 0)"/>
      <use xlink:href="#DejaVuSans-30" transform="translate(610.845703 0)"/>
      <use xlink:href="#DejaVuSans-4d" transform="translate(674.46875 0)"/>
      <use xlink:href="#DejaVuSans-29" transform="translate(760.748047 0)"/>
     </g>
    </g>
    <g id="line2d_22">
     <path d="M 335.876684 90.791633 
L 344.206684 90.791633 
L 352.536684 90.791633 
" style="fill: none; stroke: #d62728; stroke-width: 1.5; stroke-linecap: square"/>
    </g>
    <g id="text_17">
     <!-- NT-1000g (500M) -->
     <g transform="translate(359.200684 93.707133) scale(0.0833 -0.0833)">
      <use xlink:href="#DejaVuSans-4e"/>
      <use xlink:href="#DejaVuSans-54" transform="translate(74.804688 0)"/>
      <use xlink:href="#DejaVuSans-2d" transform="translate(126.763672 0)"/>
      <use xlink:href="#DejaVuSans-31" transform="translate(162.847656 0)"/>
      <use xlink:href="#DejaVuSans-30" transform="translate(226.470703 0)"/>
      <use xlink:href="#DejaVuSans-30" transform="translate(290.09375 0)"/>
      <use xlink:href="#DejaVuSans-30" transform="translate(353.716797 0)"/>
      <use xlink:href="#DejaVuSans-67" transform="translate(417.339844 0)"/>
      <use xlink:href="#DejaVuSans-20" transform="translate(480.816406 0)"/>
      <use xlink:href="#DejaVuSans-28" transform="translate(512.603516 0)"/>
      <use xlink:href="#DejaVuSans-35" transform="translate(551.617188 0)"/>
      <use xlink:href="#DejaVuSans-30" transform="translate(615.240234 0)"/>
      <use xlink:href="#DejaVuSans-30" transform="translate(678.863281 0)"/>
      <use xlink:href="#DejaVuSans-4d" transform="translate(742.486328 0)"/>
      <use xlink:href="#DejaVuSans-29" transform="translate(828.765625 0)"/>
     </g>
    </g>
    <g id="line2d_23">
     <path d="M 335.876684 103.018511 
L 344.206684 103.018511 
L 352.536684 103.018511 
" style="fill: none; stroke: #9467bd; stroke-width: 1.5; stroke-linecap: square"/>
    </g>
    <g id="text_18">
     <!-- NT-MS V2 (250M) -->
     <g transform="translate(359.200684 105.934011) scale(0.0833 -0.0833)">
      <use xlink:href="#DejaVuSans-4e"/>
      <use xlink:href="#DejaVuSans-54" transform="translate(74.804688 0)"/>
      <use xlink:href="#DejaVuSans-2d" transform="translate(126.763672 0)"/>
      <use xlink:href="#DejaVuSans-4d" transform="translate(162.847656 0)"/>
      <use xlink:href="#DejaVuSans-53" transform="translate(249.126953 0)"/>
      <use xlink:href="#DejaVuSans-20" transform="translate(312.603516 0)"/>
      <use xlink:href="#DejaVuSans-56" transform="translate(344.390625 0)"/>
      <use xlink:href="#DejaVuSans-32" transform="translate(412.798828 0)"/>
      <use xlink:href="#DejaVuSans-20" transform="translate(476.421875 0)"/>
      <use xlink:href="#DejaVuSans-28" transform="translate(508.208984 0)"/>
      <use xlink:href="#DejaVuSans-32" transform="translate(547.222656 0)"/>
      <use xlink:href="#DejaVuSans-35" transform="translate(610.845703 0)"/>
      <use xlink:href="#DejaVuSans-30" transform="translate(674.46875 0)"/>
      <use xlink:href="#DejaVuSans-4d" transform="translate(738.091797 0)"/>
      <use xlink:href="#DejaVuSans-29" transform="translate(824.371094 0)"/>
     </g>
    </g>
    <g id="line2d_24">
     <path d="M 335.876684 115.245389 
L 344.206684 115.245389 
L 352.536684 115.245389 
" style="fill: none; stroke: #8c564b; stroke-width: 1.5; stroke-linecap: square"/>
    </g>
    <g id="text_19">
     <!-- NT-MS V2 (100M) -->
     <g transform="translate(359.200684 118.160889) scale(0.0833 -0.0833)">
      <use xlink:href="#DejaVuSans-4e"/>
      <use xlink:href="#DejaVuSans-54" transform="translate(74.804688 0)"/>
      <use xlink:href="#DejaVuSans-2d" transform="translate(126.763672 0)"/>
      <use xlink:href="#DejaVuSans-4d" transform="translate(162.847656 0)"/>
      <use xlink:href="#DejaVuSans-53" transform="translate(249.126953 0)"/>
      <use xlink:href="#DejaVuSans-20" transform="translate(312.603516 0)"/>
      <use xlink:href="#DejaVuSans-56" transform="translate(344.390625 0)"/>
      <use xlink:href="#DejaVuSans-32" transform="translate(412.798828 0)"/>
      <use xlink:href="#DejaVuSans-20" transform="translate(476.421875 0)"/>
      <use xlink:href="#DejaVuSans-28" transform="translate(508.208984 0)"/>
      <use xlink:href="#DejaVuSans-31" transform="translate(547.222656 0)"/>
      <use xlink:href="#DejaVuSans-30" transform="translate(610.845703 0)"/>
      <use xlink:href="#DejaVuSans-30" transform="translate(674.46875 0)"/>
      <use xlink:href="#DejaVuSans-4d" transform="translate(738.091797 0)"/>
      <use xlink:href="#DejaVuSans-29" transform="translate(824.371094 0)"/>
     </g>
    </g>
    <g id="line2d_25">
     <path d="M 335.876684 127.472267 
L 344.206684 127.472267 
L 352.536684 127.472267 
" style="fill: none; stroke: #e377c2; stroke-width: 1.5; stroke-linecap: square"/>
    </g>
    <g id="text_20">
     <!-- NT-Human-Ref. (500M) -->
     <g transform="translate(359.200684 130.387767) scale(0.0833 -0.0833)">
      <defs>
       <path id="DejaVuSans-48" d="M 628 4666 
L 1259 4666 
L 1259 2753 
L 3553 2753 
L 3553 4666 
L 4184 4666 
L 4184 0 
L 3553 0 
L 3553 2222 
L 1259 2222 
L 1259 0 
L 628 0 
L 628 4666 
z
" transform="scale(0.015625)"/>
       <path id="DejaVuSans-75" d="M 544 1381 
L 544 3500 
L 1119 3500 
L 1119 1403 
Q 1119 906 1312 657 
Q 1506 409 1894 409 
Q 2359 409 2629 706 
Q 2900 1003 2900 1516 
L 2900 3500 
L 3475 3500 
L 3475 0 
L 2900 0 
L 2900 538 
Q 2691 219 2414 64 
Q 2138 -91 1772 -91 
Q 1169 -91 856 284 
Q 544 659 544 1381 
z
M 1991 3584 
L 1991 3584 
z
" transform="scale(0.015625)"/>
       <path id="DejaVuSans-6d" d="M 3328 2828 
Q 3544 3216 3844 3400 
Q 4144 3584 4550 3584 
Q 5097 3584 5394 3201 
Q 5691 2819 5691 2113 
L 5691 0 
L 5113 0 
L 5113 2094 
Q 5113 2597 4934 2840 
Q 4756 3084 4391 3084 
Q 3944 3084 3684 2787 
Q 3425 2491 3425 1978 
L 3425 0 
L 2847 0 
L 2847 2094 
Q 2847 2600 2669 2842 
Q 2491 3084 2119 3084 
Q 1678 3084 1418 2786 
Q 1159 2488 1159 1978 
L 1159 0 
L 581 0 
L 581 3500 
L 1159 3500 
L 1159 2956 
Q 1356 3278 1631 3431 
Q 1906 3584 2284 3584 
Q 2666 3584 2933 3390 
Q 3200 3197 3328 2828 
z
" transform="scale(0.015625)"/>
       <path id="DejaVuSans-52" d="M 2841 2188 
Q 3044 2119 3236 1894 
Q 3428 1669 3622 1275 
L 4263 0 
L 3584 0 
L 2988 1197 
Q 2756 1666 2539 1819 
Q 2322 1972 1947 1972 
L 1259 1972 
L 1259 0 
L 628 0 
L 628 4666 
L 2053 4666 
Q 2853 4666 3247 4331 
Q 3641 3997 3641 3322 
Q 3641 2881 3436 2590 
Q 3231 2300 2841 2188 
z
M 1259 4147 
L 1259 2491 
L 2053 2491 
Q 2509 2491 2742 2702 
Q 2975 2913 2975 3322 
Q 2975 3731 2742 3939 
Q 2509 4147 2053 4147 
L 1259 4147 
z
" transform="scale(0.015625)"/>
       <path id="DejaVuSans-66" d="M 2375 4863 
L 2375 4384 
L 1825 4384 
Q 1516 4384 1395 4259 
Q 1275 4134 1275 3809 
L 1275 3500 
L 2222 3500 
L 2222 3053 
L 1275 3053 
L 1275 0 
L 697 0 
L 697 3053 
L 147 3053 
L 147 3500 
L 697 3500 
L 697 3744 
Q 697 4328 969 4595 
Q 1241 4863 1831 4863 
L 2375 4863 
z
" transform="scale(0.015625)"/>
      </defs>
      <use xlink:href="#DejaVuSans-4e"/>
      <use xlink:href="#DejaVuSans-54" transform="translate(74.804688 0)"/>
      <use xlink:href="#DejaVuSans-2d" transform="translate(126.763672 0)"/>
      <use xlink:href="#DejaVuSans-48" transform="translate(162.847656 0)"/>
      <use xlink:href="#DejaVuSans-75" transform="translate(238.042969 0)"/>
      <use xlink:href="#DejaVuSans-6d" transform="translate(301.421875 0)"/>
      <use xlink:href="#DejaVuSans-61" transform="translate(398.833984 0)"/>
      <use xlink:href="#DejaVuSans-6e" transform="translate(460.113281 0)"/>
      <use xlink:href="#DejaVuSans-2d" transform="translate(523.492188 0)"/>
      <use xlink:href="#DejaVuSans-52" transform="translate(559.576172 0)"/>
      <use xlink:href="#DejaVuSans-65" transform="translate(624.558594 0)"/>
      <use xlink:href="#DejaVuSans-66" transform="translate(686.082031 0)"/>
      <use xlink:href="#DejaVuSans-2e" transform="translate(714.037109 0)"/>
      <use xlink:href="#DejaVuSans-20" transform="translate(745.824219 0)"/>
      <use xlink:href="#DejaVuSans-28" transform="translate(777.611328 0)"/>
      <use xlink:href="#DejaVuSans-35" transform="translate(816.625 0)"/>
      <use xlink:href="#DejaVuSans-30" transform="translate(880.248047 0)"/>
      <use xlink:href="#DejaVuSans-30" transform="translate(943.871094 0)"/>
      <use xlink:href="#DejaVuSans-4d" transform="translate(1007.494141 0)"/>
      <use xlink:href="#DejaVuSans-29" transform="translate(1093.773438 0)"/>
     </g>
    </g>
    <g id="line2d_26">
     <path d="M 335.876684 139.699145 
L 344.206684 139.699145 
L 352.536684 139.699145 
" style="fill: none; stroke: #7f7f7f; stroke-width: 1.5; stroke-linecap: square"/>
    </g>
    <g id="text_21">
     <!-- NT-MS V2 (500M) -->
     <g transform="translate(359.200684 142.614645) scale(0.0833 -0.0833)">
      <use xlink:href="#DejaVuSans-4e"/>
      <use xlink:href="#DejaVuSans-54" transform="translate(74.804688 0)"/>
      <use xlink:href="#DejaVuSans-2d" transform="translate(126.763672 0)"/>
      <use xlink:href="#DejaVuSans-4d" transform="translate(162.847656 0)"/>
      <use xlink:href="#DejaVuSans-53" transform="translate(249.126953 0)"/>
      <use xlink:href="#DejaVuSans-20" transform="translate(312.603516 0)"/>
      <use xlink:href="#DejaVuSans-56" transform="translate(344.390625 0)"/>
      <use xlink:href="#DejaVuSans-32" transform="translate(412.798828 0)"/>
      <use xlink:href="#DejaVuSans-20" transform="translate(476.421875 0)"/>
      <use xlink:href="#DejaVuSans-28" transform="translate(508.208984 0)"/>
      <use xlink:href="#DejaVuSans-35" transform="translate(547.222656 0)"/>
      <use xlink:href="#DejaVuSans-30" transform="translate(610.845703 0)"/>
      <use xlink:href="#DejaVuSans-30" transform="translate(674.46875 0)"/>
      <use xlink:href="#DejaVuSans-4d" transform="translate(738.091797 0)"/>
      <use xlink:href="#DejaVuSans-29" transform="translate(824.371094 0)"/>
     </g>
    </g>
   </g>
  </g>
 </g>
 <defs>
  <clipPath id="p4ed4f0e141">
   <rect x="72" y="43.2" width="446.4" height="277.2"/>
  </clipPath>
 </defs>
</svg>
