<?xml version="1.0" encoding="utf-8" standalone="no"?>
<!DOCTYPE svg PUBLIC "-//W3C//DTD SVG 1.1//EN"
  "http://www.w3.org/Graphics/SVG/1.1/DTD/svg11.dtd">
<svg xmlns:xlink="http://www.w3.org/1999/xlink" width="576pt" height="360pt" viewBox="0 0 576 360" xmlns="http://www.w3.org/2000/svg" version="1.1">
 <metadata>
  <rdf:RDF xmlns:dc="http://purl.org/dc/elements/1.1/" xmlns:cc="http://creativecommons.org/ns#" xmlns:rdf="http://www.w3.org/1999/02/22-rdf-syntax-ns#">
   <cc:Work>
    <dc:type rdf:resource="http://purl.org/dc/dcmitype/StillImage"/>
    <dc:date>2025-01-07T03:54:59.889257</dc:date>
    <dc:format>image/svg+xml</dc:format>
    <dc:creator>
     <cc:Agent>
      <dc:title>Matplotlib v3.10.0, https://matplotlib.org/</dc:title>
     </cc:Agent>
    </dc:creator>
   </cc:Work>
  </rdf:RDF>
 </metadata>
 <defs>
  <style type="text/css">*{stroke-linejoin: round; stroke-linecap: butt}</style>
 </defs>
 <g id="figure_1">
  <g id="patch_1">
   <path d="M 0 360 
L 576 360 
L 576 0 
L 0 0 
z
" style="fill: #ffffff"/>
  </g>
  <g id="axes_1">
   <g id="patch_2">
    <path d="M 72 320.4 
L 518.4 320.4 
L 518.4 43.2 
L 72 43.2 
z
" style="fill: #ffffff"/>
   </g>
   <g id="matplotlib.axis_1">
    <g id="xtick_1">
     <g id="line2d_1">
      <defs>
       <path id="mf08f393500" d="M 0 0 
L 0 3.5 
" style="stroke: #000000; stroke-width: 0.8"/>
      </defs>
      <g>
       <use xlink:href="#mf08f393500" x="157.672727" y="320.4" style="stroke: #000000; stroke-width: 0.8"/>
      </g>
     </g>
     <g id="text_1">
      <!-- 2000 -->
      <g transform="translate(144.947727 334.998438) scale(0.1 -0.1)">
       <defs>
        <path id="DejaVuSans-32" d="M 1228 531 
L 3431 531 
L 3431 0 
L 469 0 
L 469 531 
Q 828 903 1448 1529 
Q 2069 2156 2228 2338 
Q 2531 2678 2651 2914 
Q 2772 3150 2772 3378 
Q 2772 3750 2511 3984 
Q 2250 4219 1831 4219 
Q 1534 4219 1204 4116 
Q 875 4013 500 3803 
L 500 4441 
Q 881 4594 1212 4672 
Q 1544 4750 1819 4750 
Q 2544 4750 2975 4387 
Q 3406 4025 3406 3419 
Q 3406 3131 3298 2873 
Q 3191 2616 2906 2266 
Q 2828 2175 2409 1742 
Q 1991 1309 1228 531 
z
" transform="scale(0.015625)"/>
        <path id="DejaVuSans-30" d="M 2034 4250 
Q 1547 4250 1301 3770 
Q 1056 3291 1056 2328 
Q 1056 1369 1301 889 
Q 1547 409 2034 409 
Q 2525 409 2770 889 
Q 3016 1369 3016 2328 
Q 3016 3291 2770 3770 
Q 2525 4250 2034 4250 
z
M 2034 4750 
Q 2819 4750 3233 4129 
Q 3647 3509 3647 2328 
Q 3647 1150 3233 529 
Q 2819 -91 2034 -91 
Q 1250 -91 836 529 
Q 422 1150 422 2328 
Q 422 3509 836 4129 
Q 1250 4750 2034 4750 
z
" transform="scale(0.015625)"/>
       </defs>
       <use xlink:href="#DejaVuSans-32"/>
       <use xlink:href="#DejaVuSans-30" transform="translate(63.623047 0)"/>
       <use xlink:href="#DejaVuSans-30" transform="translate(127.246094 0)"/>
       <use xlink:href="#DejaVuSans-30" transform="translate(190.869141 0)"/>
      </g>
     </g>
    </g>
    <g id="xtick_2">
     <g id="line2d_2">
      <g>
       <use xlink:href="#mf08f393500" x="247.854545" y="320.4" style="stroke: #000000; stroke-width: 0.8"/>
      </g>
     </g>
     <g id="text_2">
      <!-- 4000 -->
      <g transform="translate(235.129545 334.998438) scale(0.1 -0.1)">
       <defs>
        <path id="DejaVuSans-34" d="M 2419 4116 
L 825 1625 
L 2419 1625 
L 2419 4116 
z
M 2253 4666 
L 3047 4666 
L 3047 1625 
L 3713 1625 
L 3713 1100 
L 3047 1100 
L 3047 0 
L 2419 0 
L 2419 1100 
L 313 1100 
L 313 1709 
L 2253 4666 
z
" transform="scale(0.015625)"/>
       </defs>
       <use xlink:href="#DejaVuSans-34"/>
       <use xlink:href="#DejaVuSans-30" transform="translate(63.623047 0)"/>
       <use xlink:href="#DejaVuSans-30" transform="translate(127.246094 0)"/>
       <use xlink:href="#DejaVuSans-30" transform="translate(190.869141 0)"/>
      </g>
     </g>
    </g>
    <g id="xtick_3">
     <g id="line2d_3">
      <g>
       <use xlink:href="#mf08f393500" x="338.036364" y="320.4" style="stroke: #000000; stroke-width: 0.8"/>
      </g>
     </g>
     <g id="text_3">
      <!-- 6000 -->
      <g transform="translate(325.311364 334.998438) scale(0.1 -0.1)">
       <defs>
        <path id="DejaVuSans-36" d="M 2113 2584 
Q 1688 2584 1439 2293 
Q 1191 2003 1191 1497 
Q 1191 994 1439 701 
Q 1688 409 2113 409 
Q 2538 409 2786 701 
Q 3034 994 3034 1497 
Q 3034 2003 2786 2293 
Q 2538 2584 2113 2584 
z
M 3366 4563 
L 3366 3988 
Q 3128 4100 2886 4159 
Q 2644 4219 2406 4219 
Q 1781 4219 1451 3797 
Q 1122 3375 1075 2522 
Q 1259 2794 1537 2939 
Q 1816 3084 2150 3084 
Q 2853 3084 3261 2657 
Q 3669 2231 3669 1497 
Q 3669 778 3244 343 
Q 2819 -91 2113 -91 
Q 1303 -91 875 529 
Q 447 1150 447 2328 
Q 447 3434 972 4092 
Q 1497 4750 2381 4750 
Q 2619 4750 2861 4703 
Q 3103 4656 3366 4563 
z
" transform="scale(0.015625)"/>
       </defs>
       <use xlink:href="#DejaVuSans-36"/>
       <use xlink:href="#DejaVuSans-30" transform="translate(63.623047 0)"/>
       <use xlink:href="#DejaVuSans-30" transform="translate(127.246094 0)"/>
       <use xlink:href="#DejaVuSans-30" transform="translate(190.869141 0)"/>
      </g>
     </g>
    </g>
    <g id="xtick_4">
     <g id="line2d_4">
      <g>
       <use xlink:href="#mf08f393500" x="428.218182" y="320.4" style="stroke: #000000; stroke-width: 0.8"/>
      </g>
     </g>
     <g id="text_4">
      <!-- 8000 -->
      <g transform="translate(415.493182 334.998438) scale(0.1 -0.1)">
       <defs>
        <path id="DejaVuSans-38" d="M 2034 2216 
Q 1584 2216 1326 1975 
Q 1069 1734 1069 1313 
Q 1069 891 1326 650 
Q 1584 409 2034 409 
Q 2484 409 2743 651 
Q 3003 894 3003 1313 
Q 3003 1734 2745 1975 
Q 2488 2216 2034 2216 
z
M 1403 2484 
Q 997 2584 770 2862 
Q 544 3141 544 3541 
Q 544 4100 942 4425 
Q 1341 4750 2034 4750 
Q 2731 4750 3128 4425 
Q 3525 4100 3525 3541 
Q 3525 3141 3298 2862 
Q 3072 2584 2669 2484 
Q 3125 2378 3379 2068 
Q 3634 1759 3634 1313 
Q 3634 634 3220 271 
Q 2806 -91 2034 -91 
Q 1263 -91 848 271 
Q 434 634 434 1313 
Q 434 1759 690 2068 
Q 947 2378 1403 2484 
z
M 1172 3481 
Q 1172 3119 1398 2916 
Q 1625 2713 2034 2713 
Q 2441 2713 2670 2916 
Q 2900 3119 2900 3481 
Q 2900 3844 2670 4047 
Q 2441 4250 2034 4250 
Q 1625 4250 1398 4047 
Q 1172 3844 1172 3481 
z
" transform="scale(0.015625)"/>
       </defs>
       <use xlink:href="#DejaVuSans-38"/>
       <use xlink:href="#DejaVuSans-30" transform="translate(63.623047 0)"/>
       <use xlink:href="#DejaVuSans-30" transform="translate(127.246094 0)"/>
       <use xlink:href="#DejaVuSans-30" transform="translate(190.869141 0)"/>
      </g>
     </g>
    </g>
    <g id="xtick_5">
     <g id="line2d_5">
      <g>
       <use xlink:href="#mf08f393500" x="518.4" y="320.4" style="stroke: #000000; stroke-width: 0.8"/>
      </g>
     </g>
     <g id="text_5">
      <!-- 10000 -->
      <g transform="translate(502.49375 334.998438) scale(0.1 -0.1)">
       <defs>
        <path id="DejaVuSans-31" d="M 794 531 
L 1825 531 
L 1825 4091 
L 703 3866 
L 703 4441 
L 1819 4666 
L 2450 4666 
L 2450 531 
L 3481 531 
L 3481 0 
L 794 0 
L 794 531 
z
" transform="scale(0.015625)"/>
       </defs>
       <use xlink:href="#DejaVuSans-31"/>
       <use xlink:href="#DejaVuSans-30" transform="translate(63.623047 0)"/>
       <use xlink:href="#DejaVuSans-30" transform="translate(127.246094 0)"/>
       <use xlink:href="#DejaVuSans-30" transform="translate(190.869141 0)"/>
       <use xlink:href="#DejaVuSans-30" transform="translate(254.492188 0)"/>
      </g>
     </g>
    </g>
    <g id="text_6">
     <!-- Training steps -->
     <g transform="translate(260.464844 348.676562) scale(0.1 -0.1)">
      <defs>
       <path id="DejaVuSans-54" d="M -19 4666 
L 3928 4666 
L 3928 4134 
L 2272 4134 
L 2272 0 
L 1638 0 
L 1638 4134 
L -19 4134 
L -19 4666 
z
" transform="scale(0.015625)"/>
       <path id="DejaVuSans-72" d="M 2631 2963 
Q 2534 3019 2420 3045 
Q 2306 3072 2169 3072 
Q 1681 3072 1420 2755 
Q 1159 2438 1159 1844 
L 1159 0 
L 581 0 
L 581 3500 
L 1159 3500 
L 1159 2956 
Q 1341 3275 1631 3429 
Q 1922 3584 2338 3584 
Q 2397 3584 2469 3576 
Q 2541 3569 2628 3553 
L 2631 2963 
z
" transform="scale(0.015625)"/>
       <path id="DejaVuSans-61" d="M 2194 1759 
Q 1497 1759 1228 1600 
Q 959 1441 959 1056 
Q 959 750 1161 570 
Q 1363 391 1709 391 
Q 2188 391 2477 730 
Q 2766 1069 2766 1631 
L 2766 1759 
L 2194 1759 
z
M 3341 1997 
L 3341 0 
L 2766 0 
L 2766 531 
Q 2569 213 2275 61 
Q 1981 -91 1556 -91 
Q 1019 -91 701 211 
Q 384 513 384 1019 
Q 384 1609 779 1909 
Q 1175 2209 1959 2209 
L 2766 2209 
L 2766 2266 
Q 2766 2663 2505 2880 
Q 2244 3097 1772 3097 
Q 1472 3097 1187 3025 
Q 903 2953 641 2809 
L 641 3341 
Q 956 3463 1253 3523 
Q 1550 3584 1831 3584 
Q 2591 3584 2966 3190 
Q 3341 2797 3341 1997 
z
" transform="scale(0.015625)"/>
       <path id="DejaVuSans-69" d="M 603 3500 
L 1178 3500 
L 1178 0 
L 603 0 
L 603 3500 
z
M 603 4863 
L 1178 4863 
L 1178 4134 
L 603 4134 
L 603 4863 
z
" transform="scale(0.015625)"/>
       <path id="DejaVuSans-6e" d="M 3513 2113 
L 3513 0 
L 2938 0 
L 2938 2094 
Q 2938 2591 2744 2837 
Q 2550 3084 2163 3084 
Q 1697 3084 1428 2787 
Q 1159 2491 1159 1978 
L 1159 0 
L 581 0 
L 581 3500 
L 1159 3500 
L 1159 2956 
Q 1366 3272 1645 3428 
Q 1925 3584 2291 3584 
Q 2894 3584 3203 3211 
Q 3513 2838 3513 2113 
z
" transform="scale(0.015625)"/>
       <path id="DejaVuSans-67" d="M 2906 1791 
Q 2906 2416 2648 2759 
Q 2391 3103 1925 3103 
Q 1463 3103 1205 2759 
Q 947 2416 947 1791 
Q 947 1169 1205 825 
Q 1463 481 1925 481 
Q 2391 481 2648 825 
Q 2906 1169 2906 1791 
z
M 3481 434 
Q 3481 -459 3084 -895 
Q 2688 -1331 1869 -1331 
Q 1566 -1331 1297 -1286 
Q 1028 -1241 775 -1147 
L 775 -588 
Q 1028 -725 1275 -790 
Q 1522 -856 1778 -856 
Q 2344 -856 2625 -561 
Q 2906 -266 2906 331 
L 2906 616 
Q 2728 306 2450 153 
Q 2172 0 1784 0 
Q 1141 0 747 490 
Q 353 981 353 1791 
Q 353 2603 747 3093 
Q 1141 3584 1784 3584 
Q 2172 3584 2450 3431 
Q 2728 3278 2906 2969 
L 2906 3500 
L 3481 3500 
L 3481 434 
z
" transform="scale(0.015625)"/>
       <path id="DejaVuSans-20" transform="scale(0.015625)"/>
       <path id="DejaVuSans-73" d="M 2834 3397 
L 2834 2853 
Q 2591 2978 2328 3040 
Q 2066 3103 1784 3103 
Q 1356 3103 1142 2972 
Q 928 2841 928 2578 
Q 928 2378 1081 2264 
Q 1234 2150 1697 2047 
L 1894 2003 
Q 2506 1872 2764 1633 
Q 3022 1394 3022 966 
Q 3022 478 2636 193 
Q 2250 -91 1575 -91 
Q 1294 -91 989 -36 
Q 684 19 347 128 
L 347 722 
Q 666 556 975 473 
Q 1284 391 1588 391 
Q 1994 391 2212 530 
Q 2431 669 2431 922 
Q 2431 1156 2273 1281 
Q 2116 1406 1581 1522 
L 1381 1569 
Q 847 1681 609 1914 
Q 372 2147 372 2553 
Q 372 3047 722 3315 
Q 1072 3584 1716 3584 
Q 2034 3584 2315 3537 
Q 2597 3491 2834 3397 
z
" transform="scale(0.015625)"/>
       <path id="DejaVuSans-74" d="M 1172 4494 
L 1172 3500 
L 2356 3500 
L 2356 3053 
L 1172 3053 
L 1172 1153 
Q 1172 725 1289 603 
Q 1406 481 1766 481 
L 2356 481 
L 2356 0 
L 1766 0 
Q 1100 0 847 248 
Q 594 497 594 1153 
L 594 3053 
L 172 3053 
L 172 3500 
L 594 3500 
L 594 4494 
L 1172 4494 
z
" transform="scale(0.015625)"/>
       <path id="DejaVuSans-65" d="M 3597 1894 
L 3597 1613 
L 953 1613 
Q 991 1019 1311 708 
Q 1631 397 2203 397 
Q 2534 397 2845 478 
Q 3156 559 3463 722 
L 3463 178 
Q 3153 47 2828 -22 
Q 2503 -91 2169 -91 
Q 1331 -91 842 396 
Q 353 884 353 1716 
Q 353 2575 817 3079 
Q 1281 3584 2069 3584 
Q 2775 3584 3186 3129 
Q 3597 2675 3597 1894 
z
M 3022 2063 
Q 3016 2534 2758 2815 
Q 2500 3097 2075 3097 
Q 1594 3097 1305 2825 
Q 1016 2553 972 2059 
L 3022 2063 
z
" transform="scale(0.015625)"/>
       <path id="DejaVuSans-70" d="M 1159 525 
L 1159 -1331 
L 581 -1331 
L 581 3500 
L 1159 3500 
L 1159 2969 
Q 1341 3281 1617 3432 
Q 1894 3584 2278 3584 
Q 2916 3584 3314 3078 
Q 3713 2572 3713 1747 
Q 3713 922 3314 415 
Q 2916 -91 2278 -91 
Q 1894 -91 1617 61 
Q 1341 213 1159 525 
z
M 3116 1747 
Q 3116 2381 2855 2742 
Q 2594 3103 2138 3103 
Q 1681 3103 1420 2742 
Q 1159 2381 1159 1747 
Q 1159 1113 1420 752 
Q 1681 391 2138 391 
Q 2594 391 2855 752 
Q 3116 1113 3116 1747 
z
" transform="scale(0.015625)"/>
      </defs>
      <use xlink:href="#DejaVuSans-54"/>
      <use xlink:href="#DejaVuSans-72" transform="translate(46.333984 0)"/>
      <use xlink:href="#DejaVuSans-61" transform="translate(87.447266 0)"/>
      <use xlink:href="#DejaVuSans-69" transform="translate(148.726562 0)"/>
      <use xlink:href="#DejaVuSans-6e" transform="translate(176.509766 0)"/>
      <use xlink:href="#DejaVuSans-69" transform="translate(239.888672 0)"/>
      <use xlink:href="#DejaVuSans-6e" transform="translate(267.671875 0)"/>
      <use xlink:href="#DejaVuSans-67" transform="translate(331.050781 0)"/>
      <use xlink:href="#DejaVuSans-20" transform="translate(394.527344 0)"/>
      <use xlink:href="#DejaVuSans-73" transform="translate(426.314453 0)"/>
      <use xlink:href="#DejaVuSans-74" transform="translate(478.414062 0)"/>
      <use xlink:href="#DejaVuSans-65" transform="translate(517.623047 0)"/>
      <use xlink:href="#DejaVuSans-70" transform="translate(579.146484 0)"/>
      <use xlink:href="#DejaVuSans-73" transform="translate(642.623047 0)"/>
     </g>
    </g>
   </g>
   <g id="matplotlib.axis_2">
    <g id="ytick_1">
     <g id="line2d_6">
      <defs>
       <path id="m34cc2b77cc" d="M 0 0 
L -3.5 0 
" style="stroke: #000000; stroke-width: 0.8"/>
      </defs>
      <g>
       <use xlink:href="#m34cc2b77cc" x="72" y="277.576191" style="stroke: #000000; stroke-width: 0.8"/>
      </g>
     </g>
     <g id="text_7">
      <!-- 0.4 -->
      <g transform="translate(49.096875 281.37541) scale(0.1 -0.1)">
       <defs>
        <path id="DejaVuSans-2e" d="M 684 794 
L 1344 794 
L 1344 0 
L 684 0 
L 684 794 
z
" transform="scale(0.015625)"/>
       </defs>
       <use xlink:href="#DejaVuSans-30"/>
       <use xlink:href="#DejaVuSans-2e" transform="translate(63.623047 0)"/>
       <use xlink:href="#DejaVuSans-34" transform="translate(95.410156 0)"/>
      </g>
     </g>
    </g>
    <g id="ytick_2">
     <g id="line2d_7">
      <g>
       <use xlink:href="#m34cc2b77cc" x="72" y="232.600286" style="stroke: #000000; stroke-width: 0.8"/>
      </g>
     </g>
     <g id="text_8">
      <!-- 0.5 -->
      <g transform="translate(49.096875 236.399504) scale(0.1 -0.1)">
       <defs>
        <path id="DejaVuSans-35" d="M 691 4666 
L 3169 4666 
L 3169 4134 
L 1269 4134 
L 1269 2991 
Q 1406 3038 1543 3061 
Q 1681 3084 1819 3084 
Q 2600 3084 3056 2656 
Q 3513 2228 3513 1497 
Q 3513 744 3044 326 
Q 2575 -91 1722 -91 
Q 1428 -91 1123 -41 
Q 819 9 494 109 
L 494 744 
Q 775 591 1075 516 
Q 1375 441 1709 441 
Q 2250 441 2565 725 
Q 2881 1009 2881 1497 
Q 2881 1984 2565 2268 
Q 2250 2553 1709 2553 
Q 1456 2553 1204 2497 
Q 953 2441 691 2322 
L 691 4666 
z
" transform="scale(0.015625)"/>
       </defs>
       <use xlink:href="#DejaVuSans-30"/>
       <use xlink:href="#DejaVuSans-2e" transform="translate(63.623047 0)"/>
       <use xlink:href="#DejaVuSans-35" transform="translate(95.410156 0)"/>
      </g>
     </g>
    </g>
    <g id="ytick_3">
     <g id="line2d_8">
      <g>
       <use xlink:href="#m34cc2b77cc" x="72" y="187.62438" style="stroke: #000000; stroke-width: 0.8"/>
      </g>
     </g>
     <g id="text_9">
      <!-- 0.6 -->
      <g transform="translate(49.096875 191.423599) scale(0.1 -0.1)">
       <use xlink:href="#DejaVuSans-30"/>
       <use xlink:href="#DejaVuSans-2e" transform="translate(63.623047 0)"/>
       <use xlink:href="#DejaVuSans-36" transform="translate(95.410156 0)"/>
      </g>
     </g>
    </g>
    <g id="ytick_4">
     <g id="line2d_9">
      <g>
       <use xlink:href="#m34cc2b77cc" x="72" y="142.648474" style="stroke: #000000; stroke-width: 0.8"/>
      </g>
     </g>
     <g id="text_10">
      <!-- 0.7 -->
      <g transform="translate(49.096875 146.447693) scale(0.1 -0.1)">
       <defs>
        <path id="DejaVuSans-37" d="M 525 4666 
L 3525 4666 
L 3525 4397 
L 1831 0 
L 1172 0 
L 2766 4134 
L 525 4134 
L 525 4666 
z
" transform="scale(0.015625)"/>
       </defs>
       <use xlink:href="#DejaVuSans-30"/>
       <use xlink:href="#DejaVuSans-2e" transform="translate(63.623047 0)"/>
       <use xlink:href="#DejaVuSans-37" transform="translate(95.410156 0)"/>
      </g>
     </g>
    </g>
    <g id="ytick_5">
     <g id="line2d_10">
      <g>
       <use xlink:href="#m34cc2b77cc" x="72" y="97.672568" style="stroke: #000000; stroke-width: 0.8"/>
      </g>
     </g>
     <g id="text_11">
      <!-- 0.8 -->
      <g transform="translate(49.096875 101.471787) scale(0.1 -0.1)">
       <use xlink:href="#DejaVuSans-30"/>
       <use xlink:href="#DejaVuSans-2e" transform="translate(63.623047 0)"/>
       <use xlink:href="#DejaVuSans-38" transform="translate(95.410156 0)"/>
      </g>
     </g>
    </g>
    <g id="ytick_6">
     <g id="line2d_11">
      <g>
       <use xlink:href="#m34cc2b77cc" x="72" y="52.696663" style="stroke: #000000; stroke-width: 0.8"/>
      </g>
     </g>
     <g id="text_12">
      <!-- 0.9 -->
      <g transform="translate(49.096875 56.495881) scale(0.1 -0.1)">
       <defs>
        <path id="DejaVuSans-39" d="M 703 97 
L 703 672 
Q 941 559 1184 500 
Q 1428 441 1663 441 
Q 2288 441 2617 861 
Q 2947 1281 2994 2138 
Q 2813 1869 2534 1725 
Q 2256 1581 1919 1581 
Q 1219 1581 811 2004 
Q 403 2428 403 3163 
Q 403 3881 828 4315 
Q 1253 4750 1959 4750 
Q 2769 4750 3195 4129 
Q 3622 3509 3622 2328 
Q 3622 1225 3098 567 
Q 2575 -91 1691 -91 
Q 1453 -91 1209 -44 
Q 966 3 703 97 
z
M 1959 2075 
Q 2384 2075 2632 2365 
Q 2881 2656 2881 3163 
Q 2881 3666 2632 3958 
Q 2384 4250 1959 4250 
Q 1534 4250 1286 3958 
Q 1038 3666 1038 3163 
Q 1038 2656 1286 2365 
Q 1534 2075 1959 2075 
z
" transform="scale(0.015625)"/>
       </defs>
       <use xlink:href="#DejaVuSans-30"/>
       <use xlink:href="#DejaVuSans-2e" transform="translate(63.623047 0)"/>
       <use xlink:href="#DejaVuSans-39" transform="translate(95.410156 0)"/>
      </g>
     </g>
    </g>
    <g id="text_13">
     <!-- Loss -->
     <g transform="translate(43.017187 192.767187) rotate(-90) scale(0.1 -0.1)">
      <defs>
       <path id="DejaVuSans-4c" d="M 628 4666 
L 1259 4666 
L 1259 531 
L 3531 531 
L 3531 0 
L 628 0 
L 628 4666 
z
" transform="scale(0.015625)"/>
       <path id="DejaVuSans-6f" d="M 1959 3097 
Q 1497 3097 1228 2736 
Q 959 2375 959 1747 
Q 959 1119 1226 758 
Q 1494 397 1959 397 
Q 2419 397 2687 759 
Q 2956 1122 2956 1747 
Q 2956 2369 2687 2733 
Q 2419 3097 1959 3097 
z
M 1959 3584 
Q 2709 3584 3137 3096 
Q 3566 2609 3566 1747 
Q 3566 888 3137 398 
Q 2709 -91 1959 -91 
Q 1206 -91 779 398 
Q 353 888 353 1747 
Q 353 2609 779 3096 
Q 1206 3584 1959 3584 
z
" transform="scale(0.015625)"/>
      </defs>
      <use xlink:href="#DejaVuSans-4c"/>
      <use xlink:href="#DejaVuSans-6f" transform="translate(53.962891 0)"/>
      <use xlink:href="#DejaVuSans-73" transform="translate(115.144531 0)"/>
      <use xlink:href="#DejaVuSans-73" transform="translate(167.244141 0)"/>
     </g>
    </g>
   </g>
   <g id="line2d_12">
    <path d="M 72 115.168196 
L 76.509091 128.256184 
L 81.018182 137.97098 
L 85.527273 139.814992 
L 90.036364 143.997751 
L 94.545455 140.71451 
L 99.054545 135.76716 
L 103.563636 139.635088 
L 108.072727 123.893521 
L 112.581818 143.772872 
L 117.090909 143.952775 
L 121.6 143.907799 
L 126.109091 145.347028 
L 130.618182 145.43698 
L 135.127273 141.389149 
L 139.636364 140.71451 
L 144.145455 138.690594 
L 148.654545 150.924041 
L 153.163636 148.18051 
L 157.672727 141.164269 
L 162.181818 153.262788 
L 166.690909 146.921185 
L 171.2 160.59386 
L 175.709091 145.347028 
L 180.218182 148.135535 
L 184.727273 147.011137 
L 189.236364 148.675245 
L 193.745455 157.535499 
L 198.254545 151.688631 
L 202.763636 148.18051 
L 207.272727 148.900125 
L 211.781818 147.955631 
L 216.290909 159.199607 
L 220.8 160.863716 
L 225.309091 164.641692 
L 229.818182 152.453221 
L 234.327273 163.56227 
L 238.836364 159.739318 
L 243.345455 163.922077 
L 247.854545 152.543173 
L 252.363636 170.893343 
L 256.872727 164.281885 
L 261.381818 175.660789 
L 265.890909 157.625451 
L 270.4 158.884776 
L 274.909091 162.347921 
L 279.418182 165.361306 
L 283.927273 161.763234 
L 288.436364 158.07521 
L 292.945455 160.009174 
L 297.454545 170.668463 
L 301.963636 166.035945 
L 306.472727 161.313475 
L 310.981818 161.268499 
L 315.490909 171.972765 
L 320 163.292415 
L 324.509091 175.031126 
L 329.018182 164.461788 
L 333.527273 161.943138 
L 338.036364 159.424487 
L 342.545455 164.641692 
L 347.054545 168.014885 
L 351.563636 162.5728 
L 356.072727 160.638836 
L 360.581818 158.8398 
L 365.090909 161.628306 
L 369.6 166.800535 
L 374.109091 169.858897 
L 378.618182 167.475174 
L 383.127273 155.061824 
L 387.636364 169.094307 
L 392.145455 177.504801 
L 396.654545 177.864608 
L 401.163636 173.99668 
L 405.672727 176.470355 
L 410.181818 171.927789 
L 414.690909 171.343102 
L 419.2 168.734499 
L 423.709091 179.753596 
L 428.218182 178.809102 
L 432.727273 172.24262 
L 437.236364 177.010066 
L 441.745455 175.480885 
L 446.254545 178.269391 
L 450.763636 177.819632 
L 455.272727 168.599572 
L 459.781818 176.065572 
L 464.290909 173.906729 
L 468.8 163.382367 
L 473.309091 164.281885 
L 477.818182 172.962235 
L 482.327273 166.260825 
L 486.836364 182.137319 
L 491.345455 187.669356 
L 495.854545 173.23209 
L 500.363636 179.843548 
L 504.872727 182.542102 
L 509.381818 182.67703 
L 513.890909 164.461788 
L 518.4 177.055042 
" clip-path="url(#p4b9f5bc64f)" style="fill: none; stroke: #1f77b4; stroke-width: 1.5; stroke-linecap: square"/>
   </g>
   <g id="line2d_13">
    <path d="M 72 55.8 
L 76.509091 113.369159 
L 81.018182 134.462859 
L 85.527273 125.782509 
L 90.036364 122.499268 
L 94.545455 134.822666 
L 99.054545 120.295449 
L 103.563636 138.015956 
L 108.072727 127.491594 
L 112.581818 135.182474 
L 117.090909 142.333643 
L 121.6 138.645618 
L 126.109091 150.879065 
L 130.618182 137.611173 
L 135.127273 98.032376 
L 139.636364 112.559593 
L 144.145455 143.503016 
L 148.654545 145.257077 
L 153.163636 142.513546 
L 157.672727 136.576727 
L 162.181818 145.43698 
L 166.690909 144.222631 
L 171.2 151.868535 
L 175.709091 138.105908 
L 180.218182 140.264751 
L 184.727273 153.35274 
L 189.236364 153.12786 
L 193.745455 151.238872 
L 198.254545 150.114474 
L 202.763636 125.377726 
L 207.272727 149.754667 
L 211.781818 134.327931 
L 216.290909 155.556559 
L 220.8 145.302052 
L 225.309091 175.525861 
L 229.818182 140.174799 
L 234.327273 164.326861 
L 238.836364 132.304016 
L 243.345455 157.040764 
L 247.854545 162.168017 
L 252.363636 156.815884 
L 256.872727 156.186222 
L 261.381818 165.181403 
L 265.890909 153.757523 
L 270.4 150.38433 
L 274.909091 140.219775 
L 279.418182 166.3058 
L 283.927273 169.139283 
L 288.436364 148.135535 
L 292.945455 149.16998 
L 297.454545 155.916366 
L 301.963636 148.630269 
L 306.472727 155.196752 
L 310.981818 151.3738 
L 315.490909 166.215849 
L 320 156.680957 
L 324.509091 169.544066 
L 329.018182 158.07521 
L 333.527273 156.366125 
L 338.036364 159.559415 
L 342.545455 165.046475 
L 347.054545 165.54121 
L 351.563636 169.454114 
L 356.072727 155.061824 
L 360.581818 157.760378 
L 365.090909 151.598679 
L 369.6 163.427342 
L 374.109091 152.947956 
L 378.618182 160.728788 
L 383.127273 160.998644 
L 387.636364 168.959379 
L 392.145455 172.287596 
L 396.654545 182.002392 
L 401.163636 178.764126 
L 405.672727 169.634017 
L 410.181818 173.322042 
L 414.690909 175.525861 
L 419.2 170.578512 
L 423.709091 179.9335 
L 428.218182 178.224415 
L 432.727273 161.628306 
L 437.236364 179.70862 
L 441.745455 172.917259 
L 446.254545 183.216741 
L 450.763636 176.515331 
L 455.272727 167.610102 
L 459.781818 175.930644 
L 464.290909 172.24262 
L 468.8 171.747885 
L 473.309091 162.842656 
L 477.818182 174.22156 
L 482.327273 170.48856 
L 486.836364 181.68756 
L 491.345455 185.690416 
L 495.854545 169.768945 
L 500.363636 175.570837 
L 504.872727 177.100018 
L 509.381818 174.581367 
L 513.890909 166.75556 
L 518.4 174.041656 
" clip-path="url(#p4b9f5bc64f)" style="fill: none; stroke: #ff7f0e; stroke-width: 1.5; stroke-linecap: square"/>
   </g>
   <g id="line2d_14">
    <path d="M 72 158.794824 
L 76.509091 161.043619 
L 81.018182 172.422524 
L 85.527273 172.962235 
L 90.036364 193.786079 
L 94.545455 174.941174 
L 99.054545 179.978476 
L 103.563636 183.126789 
L 108.072727 181.91244 
L 112.581818 194.505693 
L 117.090909 209.572622 
L 121.6 190.502838 
L 126.109091 213.44055 
L 130.618182 183.6665 
L 135.127273 193.156416 
L 139.636364 201.072176 
L 144.145455 193.741103 
L 148.654545 208.583152 
L 153.163636 194.145886 
L 157.672727 189.738247 
L 162.181818 204.265465 
L 166.690909 202.01667 
L 171.2 214.744851 
L 175.709091 192.796609 
L 180.218182 199.722898 
L 184.727273 199.498019 
L 189.236364 209.797501 
L 193.745455 207.908513 
L 198.254545 210.067357 
L 202.763636 195.360236 
L 207.272727 207.683634 
L 211.781818 220.366839 
L 216.290909 217.803213 
L 220.8 204.490344 
L 225.309091 226.84337 
L 229.818182 206.289381 
L 234.327273 219.737177 
L 238.836364 218.477851 
L 243.345455 215.284562 
L 247.854545 218.297948 
L 252.363636 218.612779 
L 256.872727 230.441442 
L 261.381818 219.737177 
L 265.890909 211.641513 
L 270.4 226.258683 
L 274.909091 211.281706 
L 279.418182 228.777334 
L 283.927273 221.761092 
L 288.436364 211.686489 
L 292.945455 210.292236 
L 297.454545 217.893164 
L 301.963636 231.475888 
L 306.472727 220.591719 
L 310.981818 218.297948 
L 315.490909 237.907442 
L 320 215.779297 
L 324.509091 224.369695 
L 329.018182 223.560129 
L 333.527273 220.411815 
L 338.036364 216.229056 
L 342.545455 227.248153 
L 347.054545 226.528538 
L 351.563636 232.780189 
L 356.072727 219.962056 
L 360.581818 217.038622 
L 365.090909 226.258683 
L 369.6 231.071105 
L 374.109091 214.160164 
L 378.618182 236.648117 
L 383.127273 214.070212 
L 387.636364 223.829984 
L 392.145455 229.496948 
L 396.654545 240.695949 
L 401.163636 241.550491 
L 405.672727 253.334178 
L 410.181818 242.944744 
L 414.690909 237.457683 
L 419.2 235.973478 
L 423.709091 241.055756 
L 428.218182 251.220311 
L 432.727273 234.669177 
L 437.236364 239.706479 
L 441.745455 229.856755 
L 446.254545 240.02131 
L 450.763636 231.700767 
L 455.272727 235.07396 
L 459.781818 243.75431 
L 464.290909 240.156238 
L 468.8 232.33043 
L 473.309091 236.828021 
L 477.818182 254.278672 
L 482.327273 232.150527 
L 486.836364 261.249938 
L 491.345455 239.886382 
L 495.854545 247.892094 
L 500.363636 247.622238 
L 504.872727 231.34096 
L 509.381818 232.240478 
L 513.890909 236.648117 
L 518.4 240.066286 
" clip-path="url(#p4b9f5bc64f)" style="fill: none; stroke: #2ca02c; stroke-width: 1.5; stroke-linecap: square"/>
   </g>
   <g id="line2d_15">
    <path d="M 72 94.79411 
L 76.509091 159.649366 
L 81.018182 178.764126 
L 85.527273 171.612957 
L 90.036364 170.668463 
L 94.545455 171.028271 
L 99.054545 189.738247 
L 103.563636 179.573693 
L 108.072727 166.665608 
L 112.581818 186.499982 
L 117.090909 207.233875 
L 121.6 177.95456 
L 126.109091 196.799465 
L 130.618182 172.692379 
L 135.127273 201.926718 
L 139.636364 205.479814 
L 144.145455 197.384151 
L 148.654545 217.668285 
L 153.163636 199.318115 
L 157.672727 186.724862 
L 162.181818 214.969731 
L 166.690909 187.534428 
L 171.2 208.673104 
L 175.709091 203.815706 
L 180.218182 216.408959 
L 184.727273 210.517116 
L 189.236364 203.54585 
L 193.745455 186.904765 
L 198.254545 199.857826 
L 202.763636 205.479814 
L 207.272727 227.60796 
L 211.781818 219.377369 
L 216.290909 216.408959 
L 220.8 204.040585 
L 225.309091 233.095021 
L 229.818182 199.81285 
L 234.327273 217.533357 
L 238.836364 226.123755 
L 243.345455 217.353454 
L 247.854545 217.93814 
L 252.363636 209.25779 
L 256.872727 224.054863 
L 261.381818 233.364876 
L 265.890909 229.946707 
L 270.4 212.900839 
L 274.909091 218.342923 
L 279.418182 226.123755 
L 283.927273 213.755381 
L 288.436364 208.358272 
L 292.945455 220.546743 
L 297.454545 220.456791 
L 301.963636 216.903694 
L 306.472727 194.10091 
L 310.981818 209.392718 
L 315.490909 234.804105 
L 320 222.840514 
L 324.509091 234.624201 
L 329.018182 233.095021 
L 333.527273 220.366839 
L 338.036364 226.213707 
L 342.545455 234.489274 
L 347.054545 244.069142 
L 351.563636 237.592611 
L 356.072727 220.276887 
L 360.581818 215.734321 
L 365.090909 223.695056 
L 369.6 239.346671 
L 374.109091 231.655792 
L 378.618182 236.828021 
L 383.127273 226.348635 
L 387.636364 227.562984 
L 392.145455 239.211744 
L 396.654545 250.320792 
L 401.163636 236.648117 
L 405.672727 259.13607 
L 410.181818 249.826057 
L 414.690909 250.050937 
L 419.2 242.090202 
L 423.709091 239.391647 
L 428.218182 257.741817 
L 432.727273 250.950455 
L 437.236364 245.73325 
L 441.745455 220.321863 
L 446.254545 251.265286 
L 450.763636 245.238515 
L 455.272727 234.30937 
L 459.781818 261.025058 
L 464.290909 236.917973 
L 468.8 240.291165 
L 473.309091 242.405033 
L 477.818182 263.723612 
L 482.327273 249.151419 
L 486.836364 267.186757 
L 491.345455 265.522649 
L 495.854545 247.262431 
L 500.363636 265.162841 
L 504.872727 254.278672 
L 509.381818 244.114117 
L 513.890909 249.331323 
L 518.4 253.783937 
" clip-path="url(#p4b9f5bc64f)" style="fill: none; stroke: #d62728; stroke-width: 1.5; stroke-linecap: square"/>
   </g>
   <g id="line2d_16">
    <path d="M 72 132.573871 
L 76.509091 163.112511 
L 81.018182 180.248331 
L 85.527273 179.753596 
L 90.036364 190.277958 
L 94.545455 196.979368 
L 99.054545 199.138212 
L 103.563636 214.43002 
L 108.072727 199.453043 
L 112.581818 232.240478 
L 117.090909 229.721828 
L 121.6 206.829092 
L 126.109091 231.430912 
L 130.618182 192.166946 
L 135.127273 213.395574 
L 139.636364 232.645261 
L 144.145455 218.792682 
L 148.654545 236.603141 
L 153.163636 237.142852 
L 157.672727 209.032911 
L 162.181818 249.601178 
L 166.690909 223.65008 
L 171.2 236.603141 
L 175.709091 245.643298 
L 180.218182 226.258683 
L 184.727273 234.354346 
L 189.236364 235.658647 
L 193.745455 232.060575 
L 198.254545 233.769659 
L 202.763636 218.972586 
L 207.272727 243.709334 
L 211.781818 245.778226 
L 216.290909 250.905479 
L 220.8 239.706479 
L 225.309091 259.001142 
L 229.818182 246.227985 
L 234.327273 249.871033 
L 238.836364 252.884419 
L 243.345455 236.603141 
L 247.854545 248.116973 
L 252.363636 247.71219 
L 256.872727 263.85854 
L 261.381818 253.19925 
L 265.890909 250.410744 
L 270.4 244.563876 
L 274.909091 249.736106 
L 279.418182 248.791612 
L 283.927273 254.323648 
L 288.436364 254.18872 
L 292.945455 257.022202 
L 297.454545 253.42413 
L 301.963636 256.617419 
L 306.472727 250.185865 
L 310.981818 247.172479 
L 315.490909 258.866215 
L 320 253.873889 
L 324.509091 263.633661 
L 329.018182 257.292058 
L 333.527273 257.202106 
L 338.036364 236.648117 
L 342.545455 258.461431 
L 347.054545 259.315974 
L 351.563636 264.038444 
L 356.072727 246.227985 
L 360.581818 239.211744 
L 365.090909 261.025058 
L 369.6 257.337034 
L 374.109091 252.43466 
L 378.618182 264.84801 
L 383.127273 247.48731 
L 387.636364 261.924576 
L 392.145455 261.609745 
L 396.654545 275.642227 
L 401.163636 266.287239 
L 405.672727 288.505336 
L 410.181818 288.550312 
L 414.690909 282.298661 
L 419.2 275.5073 
L 423.709091 276.226914 
L 428.218182 286.211565 
L 432.727273 271.504444 
L 437.236364 273.078601 
L 441.745455 262.014528 
L 446.254545 290.66418 
L 450.763636 276.406818 
L 455.272727 254.323648 
L 459.781818 284.772336 
L 464.290909 276.811601 
L 468.8 270.55995 
L 473.309091 269.79536 
L 477.818182 287.92065 
L 482.327273 283.602963 
L 486.836364 297.590469 
L 491.345455 287.156059 
L 495.854545 274.562806 
L 500.363636 292.508192 
L 504.872727 263.003998 
L 509.381818 256.302588 
L 513.890909 269.345601 
L 518.4 280.274746 
" clip-path="url(#p4b9f5bc64f)" style="fill: none; stroke: #9467bd; stroke-width: 1.5; stroke-linecap: square"/>
   </g>
   <g id="line2d_17">
    <path d="M 72 141.209245 
L 76.509091 150.38433 
L 81.018182 166.035945 
L 85.527273 179.663644 
L 90.036364 189.288488 
L 94.545455 196.034874 
L 99.054545 203.905658 
L 103.563636 205.434838 
L 108.072727 189.918151 
L 112.581818 207.773586 
L 117.090909 211.506586 
L 121.6 200.262609 
L 126.109091 219.602249 
L 130.618182 199.093236 
L 135.127273 216.633839 
L 139.636364 209.842477 
L 144.145455 214.474996 
L 148.654545 242.809816 
L 153.163636 226.393611 
L 157.672727 215.374514 
L 162.181818 239.661503 
L 166.690909 213.395574 
L 171.2 240.650973 
L 175.709091 226.483562 
L 180.218182 229.541924 
L 184.727273 231.071105 
L 189.236364 224.504623 
L 193.745455 223.740032 
L 198.254545 228.732358 
L 202.763636 223.560129 
L 207.272727 236.06343 
L 211.781818 243.079672 
L 216.290909 245.238515 
L 220.8 242.045226 
L 225.309091 254.053793 
L 229.818182 231.071105 
L 234.327273 248.971515 
L 238.836364 246.362913 
L 243.345455 234.039515 
L 247.854545 240.336141 
L 252.363636 242.539961 
L 256.872727 264.128396 
L 261.381818 261.159986 
L 265.890909 243.97919 
L 270.4 242.225129 
L 274.909091 234.399322 
L 279.418182 255.40307 
L 283.927273 254.4136 
L 288.436364 240.291165 
L 292.945455 248.027021 
L 297.454545 247.71219 
L 301.963636 255.17819 
L 306.472727 240.695949 
L 310.981818 241.595467 
L 315.490909 253.559058 
L 320 246.857648 
L 324.509091 243.169623 
L 329.018182 256.302588 
L 333.527273 236.198358 
L 338.036364 237.322756 
L 342.545455 257.966696 
L 347.054545 264.62313 
L 351.563636 263.588685 
L 356.072727 239.481599 
L 360.581818 227.38308 
L 365.090909 256.797323 
L 369.6 258.37148 
L 374.109091 245.553346 
L 378.618182 262.914046 
L 383.127273 247.352383 
L 387.636364 250.005961 
L 392.145455 257.202106 
L 396.654545 265.162841 
L 401.163636 262.284383 
L 405.672727 278.835517 
L 410.181818 273.078601 
L 414.690909 272.53889 
L 419.2 268.536034 
L 423.709091 265.83748 
L 428.218182 273.258504 
L 432.727273 264.218347 
L 437.236364 266.82695 
L 441.745455 246.317937 
L 446.254545 271.369516 
L 450.763636 266.557094 
L 455.272727 252.614564 
L 459.781818 281.758951 
L 464.290909 264.84801 
L 468.8 257.38201 
L 473.309091 266.287239 
L 477.818182 287.425915 
L 482.327273 265.792504 
L 486.836364 288.460361 
L 491.345455 283.692915 
L 495.854545 272.718794 
L 500.363636 280.319722 
L 504.872727 248.161949 
L 509.381818 262.644191 
L 513.890909 254.143744 
L 518.4 261.834624 
" clip-path="url(#p4b9f5bc64f)" style="fill: none; stroke: #8c564b; stroke-width: 1.5; stroke-linecap: square"/>
   </g>
   <g id="line2d_18">
    <path d="M 72 104.149099 
L 76.509091 160.998644 
L 81.018182 191.672211 
L 85.527273 180.653114 
L 90.036364 178.629199 
L 94.545455 188.793753 
L 99.054545 196.484633 
L 103.563636 201.342031 
L 108.072727 178.224415 
L 112.581818 198.148742 
L 117.090909 202.286525 
L 121.6 184.071283 
L 126.109091 207.098947 
L 130.618182 168.194789 
L 135.127273 179.9335 
L 139.636364 184.43109 
L 144.145455 182.811958 
L 148.654545 209.347742 
L 153.163636 195.09038 
L 157.672727 191.312404 
L 162.181818 215.869249 
L 166.690909 198.778404 
L 171.2 226.61849 
L 175.709091 215.824273 
L 180.218182 223.425201 
L 184.727273 205.74967 
L 189.236364 214.789827 
L 193.745455 213.530502 
L 198.254545 221.626165 
L 202.763636 217.083598 
L 207.272727 233.005069 
L 211.781818 225.718972 
L 216.290909 233.724683 
L 220.8 211.596538 
L 225.309091 236.108406 
L 229.818182 208.897983 
L 234.327273 226.663466 
L 238.836364 235.748599 
L 243.345455 227.293129 
L 247.854545 229.766803 
L 252.363636 228.822309 
L 256.872727 242.225129 
L 261.381818 245.463395 
L 265.890909 228.687382 
L 270.4 228.957237 
L 274.909091 214.654899 
L 279.418182 243.844262 
L 283.927273 232.735213 
L 288.436364 228.507478 
L 292.945455 235.658647 
L 297.454545 234.53425 
L 301.963636 232.420382 
L 306.472727 215.779297 
L 310.981818 213.980261 
L 315.490909 250.410744 
L 320 227.023273 
L 324.509091 244.204069 
L 329.018182 240.336141 
L 333.527273 235.433768 
L 338.036364 232.150527 
L 342.545455 242.494985 
L 347.054545 256.662395 
L 351.563636 259.765733 
L 356.072727 232.33043 
L 360.581818 225.988827 
L 365.090909 242.270105 
L 369.6 247.442334 
L 374.109091 241.77537 
L 378.618182 249.421274 
L 383.127273 233.274924 
L 387.636364 245.463395 
L 392.145455 253.693985 
L 396.654545 266.242263 
L 401.163636 250.275817 
L 405.672727 271.864251 
L 410.181818 270.739854 
L 414.690909 272.53889 
L 419.2 264.803034 
L 423.709091 256.16766 
L 428.218182 287.965626 
L 432.727273 261.654721 
L 437.236364 268.176227 
L 441.745455 246.362913 
L 446.254545 275.057541 
L 450.763636 261.744672 
L 455.272727 244.069142 
L 459.781818 274.832661 
L 464.290909 265.027914 
L 468.8 262.149456 
L 473.309091 258.821239 
L 477.818182 286.886204 
L 482.327273 269.255649 
L 486.836364 282.523541 
L 491.345455 282.793396 
L 495.854545 264.84801 
L 500.363636 277.531215 
L 504.872727 259.091094 
L 509.381818 262.239407 
L 513.890909 259.765733 
L 518.4 259.270998 
" clip-path="url(#p4b9f5bc64f)" style="fill: none; stroke: #e377c2; stroke-width: 1.5; stroke-linecap: square"/>
   </g>
   <g id="line2d_19">
    <path d="M 72 121.734678 
L 76.509091 167.385222 
L 81.018182 183.756452 
L 85.527273 182.227271 
L 90.036364 205.209959 
L 94.545455 204.220489 
L 99.054545 209.25779 
L 103.563636 208.808031 
L 108.072727 202.871212 
L 112.581818 226.438586 
L 117.090909 226.663466 
L 121.6 192.931537 
L 126.109091 221.221381 
L 130.618182 173.322042 
L 135.127273 214.115188 
L 139.636364 221.851044 
L 144.145455 210.966875 
L 148.654545 247.082527 
L 153.163636 217.758237 
L 157.672727 215.689345 
L 162.181818 247.532286 
L 166.690909 220.096984 
L 171.2 236.423238 
L 175.709091 226.61849 
L 180.218182 220.591719 
L 184.727273 232.285454 
L 189.236364 235.928503 
L 193.745455 239.121792 
L 198.254545 230.666322 
L 202.763636 232.33043 
L 207.272727 249.960985 
L 211.781818 240.740925 
L 216.290909 245.418419 
L 220.8 247.217455 
L 225.309091 263.363805 
L 229.818182 246.003105 
L 234.327273 250.590648 
L 238.836364 257.292058 
L 243.345455 255.088238 
L 247.854545 254.503552 
L 252.363636 247.892094 
L 256.872727 257.337034 
L 261.381818 264.08342 
L 265.890909 253.828913 
L 270.4 244.428949 
L 274.909091 252.029877 
L 279.418182 236.153382 
L 283.927273 245.283491 
L 288.436364 249.151419 
L 292.945455 251.175335 
L 297.454545 260.080564 
L 301.963636 257.471961 
L 306.472727 248.746636 
L 310.981818 258.326504 
L 315.490909 268.356131 
L 320 256.797323 
L 324.509091 262.374335 
L 329.018182 259.181046 
L 333.527273 250.185865 
L 338.036364 245.95813 
L 342.545455 266.692022 
L 347.054545 274.472854 
L 351.563636 274.158022 
L 356.072727 251.67007 
L 360.581818 232.825165 
L 365.090909 265.6126 
L 369.6 263.363805 
L 374.109091 255.987757 
L 378.618182 269.705408 
L 383.127273 257.561913 
L 387.636364 262.014528 
L 392.145455 273.618312 
L 396.654545 274.967589 
L 401.163636 272.044155 
L 405.672727 307.485169 
L 410.181818 289.89959 
L 414.690909 282.388613 
L 419.2 278.835517 
L 423.709091 276.047011 
L 428.218182 285.446975 
L 432.727273 275.057541 
L 437.236364 281.848902 
L 441.745455 262.014528 
L 446.254545 278.02595 
L 450.763636 285.132143 
L 455.272727 274.202998 
L 459.781818 282.703445 
L 464.290909 276.721649 
L 468.8 278.925468 
L 473.309091 280.274746 
L 477.818182 296.331144 
L 482.327273 283.692915 
L 486.836364 307.8 
L 491.345455 290.034517 
L 495.854545 284.682384 
L 500.363636 295.206746 
L 504.872727 260.485347 
L 509.381818 268.985793 
L 513.890909 269.030769 
L 518.4 273.123577 
" clip-path="url(#p4b9f5bc64f)" style="fill: none; stroke: #7f7f7f; stroke-width: 1.5; stroke-linecap: square"/>
   </g>
   <g id="patch_3">
    <path d="M 72 320.4 
L 72 43.2 
" style="fill: none; stroke: #000000; stroke-width: 0.8; stroke-linejoin: miter; stroke-linecap: square"/>
   </g>
   <g id="patch_4">
    <path d="M 518.4 320.4 
L 518.4 43.2 
" style="fill: none; stroke: #000000; stroke-width: 0.8; stroke-linejoin: miter; stroke-linecap: square"/>
   </g>
   <g id="patch_5">
    <path d="M 72 320.4 
L 518.4 320.4 
" style="fill: none; stroke: #000000; stroke-width: 0.8; stroke-linejoin: miter; stroke-linecap: square"/>
   </g>
   <g id="patch_6">
    <path d="M 72 43.2 
L 518.4 43.2 
" style="fill: none; stroke: #000000; stroke-width: 0.8; stroke-linejoin: miter; stroke-linecap: square"/>
   </g>
   <g id="text_14">
    <!-- Enhancers -->
    <g transform="translate(263.74125 37.2) scale(0.12 -0.12)">
     <defs>
      <path id="DejaVuSans-45" d="M 628 4666 
L 3578 4666 
L 3578 4134 
L 1259 4134 
L 1259 2753 
L 3481 2753 
L 3481 2222 
L 1259 2222 
L 1259 531 
L 3634 531 
L 3634 0 
L 628 0 
L 628 4666 
z
" transform="scale(0.015625)"/>
      <path id="DejaVuSans-68" d="M 3513 2113 
L 3513 0 
L 2938 0 
L 2938 2094 
Q 2938 2591 2744 2837 
Q 2550 3084 2163 3084 
Q 1697 3084 1428 2787 
Q 1159 2491 1159 1978 
L 1159 0 
L 581 0 
L 581 4863 
L 1159 4863 
L 1159 2956 
Q 1366 3272 1645 3428 
Q 1925 3584 2291 3584 
Q 2894 3584 3203 3211 
Q 3513 2838 3513 2113 
z
" transform="scale(0.015625)"/>
      <path id="DejaVuSans-63" d="M 3122 3366 
L 3122 2828 
Q 2878 2963 2633 3030 
Q 2388 3097 2138 3097 
Q 1578 3097 1268 2742 
Q 959 2388 959 1747 
Q 959 1106 1268 751 
Q 1578 397 2138 397 
Q 2388 397 2633 464 
Q 2878 531 3122 666 
L 3122 134 
Q 2881 22 2623 -34 
Q 2366 -91 2075 -91 
Q 1284 -91 818 406 
Q 353 903 353 1747 
Q 353 2603 823 3093 
Q 1294 3584 2113 3584 
Q 2378 3584 2631 3529 
Q 2884 3475 3122 3366 
z
" transform="scale(0.015625)"/>
     </defs>
     <use xlink:href="#DejaVuSans-45"/>
     <use xlink:href="#DejaVuSans-6e" transform="translate(63.183594 0)"/>
     <use xlink:href="#DejaVuSans-68" transform="translate(126.5625 0)"/>
     <use xlink:href="#DejaVuSans-61" transform="translate(189.941406 0)"/>
     <use xlink:href="#DejaVuSans-6e" transform="translate(251.220703 0)"/>
     <use xlink:href="#DejaVuSans-63" transform="translate(314.599609 0)"/>
     <use xlink:href="#DejaVuSans-65" transform="translate(369.580078 0)"/>
     <use xlink:href="#DejaVuSans-72" transform="translate(431.103516 0)"/>
     <use xlink:href="#DejaVuSans-73" transform="translate(472.216797 0)"/>
    </g>
   </g>
   <g id="legend_1">
    <g id="patch_7">
     <path d="M 334.210684 147.679025 
L 512.569 147.679025 
Q 514.235 147.679025 514.235 146.013025 
L 514.235 49.031 
Q 514.235 47.365 512.569 47.365 
L 334.210684 47.365 
Q 332.544684 47.365 332.544684 49.031 
L 332.544684 146.013025 
Q 332.544684 147.679025 334.210684 147.679025 
z
" style="fill: #ffffff; opacity: 0.8; stroke: #cccccc; stroke-linejoin: miter"/>
    </g>
    <g id="line2d_20">
     <path d="M 335.876684 54.110998 
L 344.206684 54.110998 
L 352.536684 54.110998 
" style="fill: none; stroke: #1f77b4; stroke-width: 1.5; stroke-linecap: square"/>
    </g>
    <g id="text_15">
     <!-- NT-MS V2 (50M) with rand. weights -->
     <g transform="translate(359.200684 57.026498) scale(0.0833 -0.0833)">
      <defs>
       <path id="DejaVuSans-4e" d="M 628 4666 
L 1478 4666 
L 3547 763 
L 3547 4666 
L 4159 4666 
L 4159 0 
L 3309 0 
L 1241 3903 
L 1241 0 
L 628 0 
L 628 4666 
z
" transform="scale(0.015625)"/>
       <path id="DejaVuSans-2d" d="M 313 2009 
L 1997 2009 
L 1997 1497 
L 313 1497 
L 313 2009 
z
" transform="scale(0.015625)"/>
       <path id="DejaVuSans-4d" d="M 628 4666 
L 1569 4666 
L 2759 1491 
L 3956 4666 
L 4897 4666 
L 4897 0 
L 4281 0 
L 4281 4097 
L 3078 897 
L 2444 897 
L 1241 4097 
L 1241 0 
L 628 0 
L 628 4666 
z
" transform="scale(0.015625)"/>
       <path id="DejaVuSans-53" d="M 3425 4513 
L 3425 3897 
Q 3066 4069 2747 4153 
Q 2428 4238 2131 4238 
Q 1616 4238 1336 4038 
Q 1056 3838 1056 3469 
Q 1056 3159 1242 3001 
Q 1428 2844 1947 2747 
L 2328 2669 
Q 3034 2534 3370 2195 
Q 3706 1856 3706 1288 
Q 3706 609 3251 259 
Q 2797 -91 1919 -91 
Q 1588 -91 1214 -16 
Q 841 59 441 206 
L 441 856 
Q 825 641 1194 531 
Q 1563 422 1919 422 
Q 2459 422 2753 634 
Q 3047 847 3047 1241 
Q 3047 1584 2836 1778 
Q 2625 1972 2144 2069 
L 1759 2144 
Q 1053 2284 737 2584 
Q 422 2884 422 3419 
Q 422 4038 858 4394 
Q 1294 4750 2059 4750 
Q 2388 4750 2728 4690 
Q 3069 4631 3425 4513 
z
" transform="scale(0.015625)"/>
       <path id="DejaVuSans-56" d="M 1831 0 
L 50 4666 
L 709 4666 
L 2188 738 
L 3669 4666 
L 4325 4666 
L 2547 0 
L 1831 0 
z
" transform="scale(0.015625)"/>
       <path id="DejaVuSans-28" d="M 1984 4856 
Q 1566 4138 1362 3434 
Q 1159 2731 1159 2009 
Q 1159 1288 1364 580 
Q 1569 -128 1984 -844 
L 1484 -844 
Q 1016 -109 783 600 
Q 550 1309 550 2009 
Q 550 2706 781 3412 
Q 1013 4119 1484 4856 
L 1984 4856 
z
" transform="scale(0.015625)"/>
       <path id="DejaVuSans-29" d="M 513 4856 
L 1013 4856 
Q 1481 4119 1714 3412 
Q 1947 2706 1947 2009 
Q 1947 1309 1714 600 
Q 1481 -109 1013 -844 
L 513 -844 
Q 928 -128 1133 580 
Q 1338 1288 1338 2009 
Q 1338 2731 1133 3434 
Q 928 4138 513 4856 
z
" transform="scale(0.015625)"/>
       <path id="DejaVuSans-77" d="M 269 3500 
L 844 3500 
L 1563 769 
L 2278 3500 
L 2956 3500 
L 3675 769 
L 4391 3500 
L 4966 3500 
L 4050 0 
L 3372 0 
L 2619 2869 
L 1863 0 
L 1184 0 
L 269 3500 
z
" transform="scale(0.015625)"/>
       <path id="DejaVuSans-64" d="M 2906 2969 
L 2906 4863 
L 3481 4863 
L 3481 0 
L 2906 0 
L 2906 525 
Q 2725 213 2448 61 
Q 2172 -91 1784 -91 
Q 1150 -91 751 415 
Q 353 922 353 1747 
Q 353 2572 751 3078 
Q 1150 3584 1784 3584 
Q 2172 3584 2448 3432 
Q 2725 3281 2906 2969 
z
M 947 1747 
Q 947 1113 1208 752 
Q 1469 391 1925 391 
Q 2381 391 2643 752 
Q 2906 1113 2906 1747 
Q 2906 2381 2643 2742 
Q 2381 3103 1925 3103 
Q 1469 3103 1208 2742 
Q 947 2381 947 1747 
z
" transform="scale(0.015625)"/>
      </defs>
      <use xlink:href="#DejaVuSans-4e"/>
      <use xlink:href="#DejaVuSans-54" transform="translate(74.804688 0)"/>
      <use xlink:href="#DejaVuSans-2d" transform="translate(126.763672 0)"/>
      <use xlink:href="#DejaVuSans-4d" transform="translate(162.847656 0)"/>
      <use xlink:href="#DejaVuSans-53" transform="translate(249.126953 0)"/>
      <use xlink:href="#DejaVuSans-20" transform="translate(312.603516 0)"/>
      <use xlink:href="#DejaVuSans-56" transform="translate(344.390625 0)"/>
      <use xlink:href="#DejaVuSans-32" transform="translate(412.798828 0)"/>
      <use xlink:href="#DejaVuSans-20" transform="translate(476.421875 0)"/>
      <use xlink:href="#DejaVuSans-28" transform="translate(508.208984 0)"/>
      <use xlink:href="#DejaVuSans-35" transform="translate(547.222656 0)"/>
      <use xlink:href="#DejaVuSans-30" transform="translate(610.845703 0)"/>
      <use xlink:href="#DejaVuSans-4d" transform="translate(674.46875 0)"/>
      <use xlink:href="#DejaVuSans-29" transform="translate(760.748047 0)"/>
      <use xlink:href="#DejaVuSans-20" transform="translate(799.761719 0)"/>
      <use xlink:href="#DejaVuSans-77" transform="translate(831.548828 0)"/>
      <use xlink:href="#DejaVuSans-69" transform="translate(913.335938 0)"/>
      <use xlink:href="#DejaVuSans-74" transform="translate(941.119141 0)"/>
      <use xlink:href="#DejaVuSans-68" transform="translate(980.328125 0)"/>
      <use xlink:href="#DejaVuSans-20" transform="translate(1043.707031 0)"/>
      <use xlink:href="#DejaVuSans-72" transform="translate(1075.494141 0)"/>
      <use xlink:href="#DejaVuSans-61" transform="translate(1116.607422 0)"/>
      <use xlink:href="#DejaVuSans-6e" transform="translate(1177.886719 0)"/>
      <use xlink:href="#DejaVuSans-64" transform="translate(1241.265625 0)"/>
      <use xlink:href="#DejaVuSans-2e" transform="translate(1304.742188 0)"/>
      <use xlink:href="#DejaVuSans-20" transform="translate(1336.529297 0)"/>
      <use xlink:href="#DejaVuSans-77" transform="translate(1368.316406 0)"/>
      <use xlink:href="#DejaVuSans-65" transform="translate(1450.103516 0)"/>
      <use xlink:href="#DejaVuSans-69" transform="translate(1511.626953 0)"/>
      <use xlink:href="#DejaVuSans-67" transform="translate(1539.410156 0)"/>
      <use xlink:href="#DejaVuSans-68" transform="translate(1602.886719 0)"/>
      <use xlink:href="#DejaVuSans-74" transform="translate(1666.265625 0)"/>
      <use xlink:href="#DejaVuSans-73" transform="translate(1705.474609 0)"/>
     </g>
    </g>
    <g id="line2d_21">
     <path d="M 335.876684 66.337877 
L 344.206684 66.337877 
L 352.536684 66.337877 
" style="fill: none; stroke: #ff7f0e; stroke-width: 1.5; stroke-linecap: square"/>
    </g>
    <g id="text_16">
     <!-- NT-MS V2 (500M) with rand. weights -->
     <g transform="translate(359.200684 69.253377) scale(0.0833 -0.0833)">
      <use xlink:href="#DejaVuSans-4e"/>
      <use xlink:href="#DejaVuSans-54" transform="translate(74.804688 0)"/>
      <use xlink:href="#DejaVuSans-2d" transform="translate(126.763672 0)"/>
      <use xlink:href="#DejaVuSans-4d" transform="translate(162.847656 0)"/>
      <use xlink:href="#DejaVuSans-53" transform="translate(249.126953 0)"/>
      <use xlink:href="#DejaVuSans-20" transform="translate(312.603516 0)"/>
      <use xlink:href="#DejaVuSans-56" transform="translate(344.390625 0)"/>
      <use xlink:href="#DejaVuSans-32" transform="translate(412.798828 0)"/>
      <use xlink:href="#DejaVuSans-20" transform="translate(476.421875 0)"/>
      <use xlink:href="#DejaVuSans-28" transform="translate(508.208984 0)"/>
      <use xlink:href="#DejaVuSans-35" transform="translate(547.222656 0)"/>
      <use xlink:href="#DejaVuSans-30" transform="translate(610.845703 0)"/>
      <use xlink:href="#DejaVuSans-30" transform="translate(674.46875 0)"/>
      <use xlink:href="#DejaVuSans-4d" transform="translate(738.091797 0)"/>
      <use xlink:href="#DejaVuSans-29" transform="translate(824.371094 0)"/>
      <use xlink:href="#DejaVuSans-20" transform="translate(863.384766 0)"/>
      <use xlink:href="#DejaVuSans-77" transform="translate(895.171875 0)"/>
      <use xlink:href="#DejaVuSans-69" transform="translate(976.958984 0)"/>
      <use xlink:href="#DejaVuSans-74" transform="translate(1004.742188 0)"/>
      <use xlink:href="#DejaVuSans-68" transform="translate(1043.951172 0)"/>
      <use xlink:href="#DejaVuSans-20" transform="translate(1107.330078 0)"/>
      <use xlink:href="#DejaVuSans-72" transform="translate(1139.117188 0)"/>
      <use xlink:href="#DejaVuSans-61" transform="translate(1180.230469 0)"/>
      <use xlink:href="#DejaVuSans-6e" transform="translate(1241.509766 0)"/>
      <use xlink:href="#DejaVuSans-64" transform="translate(1304.888672 0)"/>
      <use xlink:href="#DejaVuSans-2e" transform="translate(1368.365234 0)"/>
      <use xlink:href="#DejaVuSans-20" transform="translate(1400.152344 0)"/>
      <use xlink:href="#DejaVuSans-77" transform="translate(1431.939453 0)"/>
      <use xlink:href="#DejaVuSans-65" transform="translate(1513.726562 0)"/>
      <use xlink:href="#DejaVuSans-69" transform="translate(1575.25 0)"/>
      <use xlink:href="#DejaVuSans-67" transform="translate(1603.033203 0)"/>
      <use xlink:href="#DejaVuSans-68" transform="translate(1666.509766 0)"/>
      <use xlink:href="#DejaVuSans-74" transform="translate(1729.888672 0)"/>
      <use xlink:href="#DejaVuSans-73" transform="translate(1769.097656 0)"/>
     </g>
    </g>
    <g id="line2d_22">
     <path d="M 335.876684 78.564755 
L 344.206684 78.564755 
L 352.536684 78.564755 
" style="fill: none; stroke: #2ca02c; stroke-width: 1.5; stroke-linecap: square"/>
    </g>
    <g id="text_17">
     <!-- NT-MS V2 (50M) -->
     <g transform="translate(359.200684 81.480255) scale(0.0833 -0.0833)">
      <use xlink:href="#DejaVuSans-4e"/>
      <use xlink:href="#DejaVuSans-54" transform="translate(74.804688 0)"/>
      <use xlink:href="#DejaVuSans-2d" transform="translate(126.763672 0)"/>
      <use xlink:href="#DejaVuSans-4d" transform="translate(162.847656 0)"/>
      <use xlink:href="#DejaVuSans-53" transform="translate(249.126953 0)"/>
      <use xlink:href="#DejaVuSans-20" transform="translate(312.603516 0)"/>
      <use xlink:href="#DejaVuSans-56" transform="translate(344.390625 0)"/>
      <use xlink:href="#DejaVuSans-32" transform="translate(412.798828 0)"/>
      <use xlink:href="#DejaVuSans-20" transform="translate(476.421875 0)"/>
      <use xlink:href="#DejaVuSans-28" transform="translate(508.208984 0)"/>
      <use xlink:href="#DejaVuSans-35" transform="translate(547.222656 0)"/>
      <use xlink:href="#DejaVuSans-30" transform="translate(610.845703 0)"/>
      <use xlink:href="#DejaVuSans-4d" transform="translate(674.46875 0)"/>
      <use xlink:href="#DejaVuSans-29" transform="translate(760.748047 0)"/>
     </g>
    </g>
    <g id="line2d_23">
     <path d="M 335.876684 90.791633 
L 344.206684 90.791633 
L 352.536684 90.791633 
" style="fill: none; stroke: #d62728; stroke-width: 1.5; stroke-linecap: square"/>
    </g>
    <g id="text_18">
     <!-- NT-1000g (500M) -->
     <g transform="translate(359.200684 93.707133) scale(0.0833 -0.0833)">
      <use xlink:href="#DejaVuSans-4e"/>
      <use xlink:href="#DejaVuSans-54" transform="translate(74.804688 0)"/>
      <use xlink:href="#DejaVuSans-2d" transform="translate(126.763672 0)"/>
      <use xlink:href="#DejaVuSans-31" transform="translate(162.847656 0)"/>
      <use xlink:href="#DejaVuSans-30" transform="translate(226.470703 0)"/>
      <use xlink:href="#DejaVuSans-30" transform="translate(290.09375 0)"/>
      <use xlink:href="#DejaVuSans-30" transform="translate(353.716797 0)"/>
      <use xlink:href="#DejaVuSans-67" transform="translate(417.339844 0)"/>
      <use xlink:href="#DejaVuSans-20" transform="translate(480.816406 0)"/>
      <use xlink:href="#DejaVuSans-28" transform="translate(512.603516 0)"/>
      <use xlink:href="#DejaVuSans-35" transform="translate(551.617188 0)"/>
      <use xlink:href="#DejaVuSans-30" transform="translate(615.240234 0)"/>
      <use xlink:href="#DejaVuSans-30" transform="translate(678.863281 0)"/>
      <use xlink:href="#DejaVuSans-4d" transform="translate(742.486328 0)"/>
      <use xlink:href="#DejaVuSans-29" transform="translate(828.765625 0)"/>
     </g>
    </g>
    <g id="line2d_24">
     <path d="M 335.876684 103.018511 
L 344.206684 103.018511 
L 352.536684 103.018511 
" style="fill: none; stroke: #9467bd; stroke-width: 1.5; stroke-linecap: square"/>
    </g>
    <g id="text_19">
     <!-- NT-MS V2 (250M) -->
     <g transform="translate(359.200684 105.934011) scale(0.0833 -0.0833)">
      <use xlink:href="#DejaVuSans-4e"/>
      <use xlink:href="#DejaVuSans-54" transform="translate(74.804688 0)"/>
      <use xlink:href="#DejaVuSans-2d" transform="translate(126.763672 0)"/>
      <use xlink:href="#DejaVuSans-4d" transform="translate(162.847656 0)"/>
      <use xlink:href="#DejaVuSans-53" transform="translate(249.126953 0)"/>
      <use xlink:href="#DejaVuSans-20" transform="translate(312.603516 0)"/>
      <use xlink:href="#DejaVuSans-56" transform="translate(344.390625 0)"/>
      <use xlink:href="#DejaVuSans-32" transform="translate(412.798828 0)"/>
      <use xlink:href="#DejaVuSans-20" transform="translate(476.421875 0)"/>
      <use xlink:href="#DejaVuSans-28" transform="translate(508.208984 0)"/>
      <use xlink:href="#DejaVuSans-32" transform="translate(547.222656 0)"/>
      <use xlink:href="#DejaVuSans-35" transform="translate(610.845703 0)"/>
      <use xlink:href="#DejaVuSans-30" transform="translate(674.46875 0)"/>
      <use xlink:href="#DejaVuSans-4d" transform="translate(738.091797 0)"/>
      <use xlink:href="#DejaVuSans-29" transform="translate(824.371094 0)"/>
     </g>
    </g>
    <g id="line2d_25">
     <path d="M 335.876684 115.245389 
L 344.206684 115.245389 
L 352.536684 115.245389 
" style="fill: none; stroke: #8c564b; stroke-width: 1.5; stroke-linecap: square"/>
    </g>
    <g id="text_20">
     <!-- NT-MS V2 (100M) -->
     <g transform="translate(359.200684 118.160889) scale(0.0833 -0.0833)">
      <use xlink:href="#DejaVuSans-4e"/>
      <use xlink:href="#DejaVuSans-54" transform="translate(74.804688 0)"/>
      <use xlink:href="#DejaVuSans-2d" transform="translate(126.763672 0)"/>
      <use xlink:href="#DejaVuSans-4d" transform="translate(162.847656 0)"/>
      <use xlink:href="#DejaVuSans-53" transform="translate(249.126953 0)"/>
      <use xlink:href="#DejaVuSans-20" transform="translate(312.603516 0)"/>
      <use xlink:href="#DejaVuSans-56" transform="translate(344.390625 0)"/>
      <use xlink:href="#DejaVuSans-32" transform="translate(412.798828 0)"/>
      <use xlink:href="#DejaVuSans-20" transform="translate(476.421875 0)"/>
      <use xlink:href="#DejaVuSans-28" transform="translate(508.208984 0)"/>
      <use xlink:href="#DejaVuSans-31" transform="translate(547.222656 0)"/>
      <use xlink:href="#DejaVuSans-30" transform="translate(610.845703 0)"/>
      <use xlink:href="#DejaVuSans-30" transform="translate(674.46875 0)"/>
      <use xlink:href="#DejaVuSans-4d" transform="translate(738.091797 0)"/>
      <use xlink:href="#DejaVuSans-29" transform="translate(824.371094 0)"/>
     </g>
    </g>
    <g id="line2d_26">
     <path d="M 335.876684 127.472267 
L 344.206684 127.472267 
L 352.536684 127.472267 
" style="fill: none; stroke: #e377c2; stroke-width: 1.5; stroke-linecap: square"/>
    </g>
    <g id="text_21">
     <!-- NT-Human-Ref. (500M) -->
     <g transform="translate(359.200684 130.387767) scale(0.0833 -0.0833)">
      <defs>
       <path id="DejaVuSans-48" d="M 628 4666 
L 1259 4666 
L 1259 2753 
L 3553 2753 
L 3553 4666 
L 4184 4666 
L 4184 0 
L 3553 0 
L 3553 2222 
L 1259 2222 
L 1259 0 
L 628 0 
L 628 4666 
z
" transform="scale(0.015625)"/>
       <path id="DejaVuSans-75" d="M 544 1381 
L 544 3500 
L 1119 3500 
L 1119 1403 
Q 1119 906 1312 657 
Q 1506 409 1894 409 
Q 2359 409 2629 706 
Q 2900 1003 2900 1516 
L 2900 3500 
L 3475 3500 
L 3475 0 
L 2900 0 
L 2900 538 
Q 2691 219 2414 64 
Q 2138 -91 1772 -91 
Q 1169 -91 856 284 
Q 544 659 544 1381 
z
M 1991 3584 
L 1991 3584 
z
" transform="scale(0.015625)"/>
       <path id="DejaVuSans-6d" d="M 3328 2828 
Q 3544 3216 3844 3400 
Q 4144 3584 4550 3584 
Q 5097 3584 5394 3201 
Q 5691 2819 5691 2113 
L 5691 0 
L 5113 0 
L 5113 2094 
Q 5113 2597 4934 2840 
Q 4756 3084 4391 3084 
Q 3944 3084 3684 2787 
Q 3425 2491 3425 1978 
L 3425 0 
L 2847 0 
L 2847 2094 
Q 2847 2600 2669 2842 
Q 2491 3084 2119 3084 
Q 1678 3084 1418 2786 
Q 1159 2488 1159 1978 
L 1159 0 
L 581 0 
L 581 3500 
L 1159 3500 
L 1159 2956 
Q 1356 3278 1631 3431 
Q 1906 3584 2284 3584 
Q 2666 3584 2933 3390 
Q 3200 3197 3328 2828 
z
" transform="scale(0.015625)"/>
       <path id="DejaVuSans-52" d="M 2841 2188 
Q 3044 2119 3236 1894 
Q 3428 1669 3622 1275 
L 4263 0 
L 3584 0 
L 2988 1197 
Q 2756 1666 2539 1819 
Q 2322 1972 1947 1972 
L 1259 1972 
L 1259 0 
L 628 0 
L 628 4666 
L 2053 4666 
Q 2853 4666 3247 4331 
Q 3641 3997 3641 3322 
Q 3641 2881 3436 2590 
Q 3231 2300 2841 2188 
z
M 1259 4147 
L 1259 2491 
L 2053 2491 
Q 2509 2491 2742 2702 
Q 2975 2913 2975 3322 
Q 2975 3731 2742 3939 
Q 2509 4147 2053 4147 
L 1259 4147 
z
" transform="scale(0.015625)"/>
       <path id="DejaVuSans-66" d="M 2375 4863 
L 2375 4384 
L 1825 4384 
Q 1516 4384 1395 4259 
Q 1275 4134 1275 3809 
L 1275 3500 
L 2222 3500 
L 2222 3053 
L 1275 3053 
L 1275 0 
L 697 0 
L 697 3053 
L 147 3053 
L 147 3500 
L 697 3500 
L 697 3744 
Q 697 4328 969 4595 
Q 1241 4863 1831 4863 
L 2375 4863 
z
" transform="scale(0.015625)"/>
      </defs>
      <use xlink:href="#DejaVuSans-4e"/>
      <use xlink:href="#DejaVuSans-54" transform="translate(74.804688 0)"/>
      <use xlink:href="#DejaVuSans-2d" transform="translate(126.763672 0)"/>
      <use xlink:href="#DejaVuSans-48" transform="translate(162.847656 0)"/>
      <use xlink:href="#DejaVuSans-75" transform="translate(238.042969 0)"/>
      <use xlink:href="#DejaVuSans-6d" transform="translate(301.421875 0)"/>
      <use xlink:href="#DejaVuSans-61" transform="translate(398.833984 0)"/>
      <use xlink:href="#DejaVuSans-6e" transform="translate(460.113281 0)"/>
      <use xlink:href="#DejaVuSans-2d" transform="translate(523.492188 0)"/>
      <use xlink:href="#DejaVuSans-52" transform="translate(559.576172 0)"/>
      <use xlink:href="#DejaVuSans-65" transform="translate(624.558594 0)"/>
      <use xlink:href="#DejaVuSans-66" transform="translate(686.082031 0)"/>
      <use xlink:href="#DejaVuSans-2e" transform="translate(714.037109 0)"/>
      <use xlink:href="#DejaVuSans-20" transform="translate(745.824219 0)"/>
      <use xlink:href="#DejaVuSans-28" transform="translate(777.611328 0)"/>
      <use xlink:href="#DejaVuSans-35" transform="translate(816.625 0)"/>
      <use xlink:href="#DejaVuSans-30" transform="translate(880.248047 0)"/>
      <use xlink:href="#DejaVuSans-30" transform="translate(943.871094 0)"/>
      <use xlink:href="#DejaVuSans-4d" transform="translate(1007.494141 0)"/>
      <use xlink:href="#DejaVuSans-29" transform="translate(1093.773438 0)"/>
     </g>
    </g>
    <g id="line2d_27">
     <path d="M 335.876684 139.699145 
L 344.206684 139.699145 
L 352.536684 139.699145 
" style="fill: none; stroke: #7f7f7f; stroke-width: 1.5; stroke-linecap: square"/>
    </g>
    <g id="text_22">
     <!-- NT-MS V2 (500M) -->
     <g transform="translate(359.200684 142.614645) scale(0.0833 -0.0833)">
      <use xlink:href="#DejaVuSans-4e"/>
      <use xlink:href="#DejaVuSans-54" transform="translate(74.804688 0)"/>
      <use xlink:href="#DejaVuSans-2d" transform="translate(126.763672 0)"/>
      <use xlink:href="#DejaVuSans-4d" transform="translate(162.847656 0)"/>
      <use xlink:href="#DejaVuSans-53" transform="translate(249.126953 0)"/>
      <use xlink:href="#DejaVuSans-20" transform="translate(312.603516 0)"/>
      <use xlink:href="#DejaVuSans-56" transform="translate(344.390625 0)"/>
      <use xlink:href="#DejaVuSans-32" transform="translate(412.798828 0)"/>
      <use xlink:href="#DejaVuSans-20" transform="translate(476.421875 0)"/>
      <use xlink:href="#DejaVuSans-28" transform="translate(508.208984 0)"/>
      <use xlink:href="#DejaVuSans-35" transform="translate(547.222656 0)"/>
      <use xlink:href="#DejaVuSans-30" transform="translate(610.845703 0)"/>
      <use xlink:href="#DejaVuSans-30" transform="translate(674.46875 0)"/>
      <use xlink:href="#DejaVuSans-4d" transform="translate(738.091797 0)"/>
      <use xlink:href="#DejaVuSans-29" transform="translate(824.371094 0)"/>
     </g>
    </g>
   </g>
  </g>
 </g>
 <defs>
  <clipPath id="p4b9f5bc64f">
   <rect x="72" y="43.2" width="446.4" height="277.2"/>
  </clipPath>
 </defs>
</svg>
