<?xml version="1.0" encoding="utf-8" standalone="no"?>
<!DOCTYPE svg PUBLIC "-//W3C//DTD SVG 1.1//EN"
  "http://www.w3.org/Graphics/SVG/1.1/DTD/svg11.dtd">
<svg xmlns:xlink="http://www.w3.org/1999/xlink" width="576pt" height="360pt" viewBox="0 0 576 360" xmlns="http://www.w3.org/2000/svg" version="1.1">
 <metadata>
  <rdf:RDF xmlns:dc="http://purl.org/dc/elements/1.1/" xmlns:cc="http://creativecommons.org/ns#" xmlns:rdf="http://www.w3.org/1999/02/22-rdf-syntax-ns#">
   <cc:Work>
    <dc:type rdf:resource="http://purl.org/dc/dcmitype/StillImage"/>
    <dc:date>2025-01-07T03:55:02.558108</dc:date>
    <dc:format>image/svg+xml</dc:format>
    <dc:creator>
     <cc:Agent>
      <dc:title>Matplotlib v3.10.0, https://matplotlib.org/</dc:title>
     </cc:Agent>
    </dc:creator>
   </cc:Work>
  </rdf:RDF>
 </metadata>
 <defs>
  <style type="text/css">*{stroke-linejoin: round; stroke-linecap: butt}</style>
 </defs>
 <g id="figure_1">
  <g id="patch_1">
   <path d="M 0 360 
L 576 360 
L 576 0 
L 0 0 
z
" style="fill: #ffffff"/>
  </g>
  <g id="axes_1">
   <g id="patch_2">
    <path d="M 72 320.4 
L 518.4 320.4 
L 518.4 43.2 
L 72 43.2 
z
" style="fill: #ffffff"/>
   </g>
   <g id="matplotlib.axis_1">
    <g id="xtick_1">
     <g id="line2d_1">
      <defs>
       <path id="ma77ee28044" d="M 0 0 
L 0 3.5 
" style="stroke: #000000; stroke-width: 0.8"/>
      </defs>
      <g>
       <use xlink:href="#ma77ee28044" x="157.672727" y="320.4" style="stroke: #000000; stroke-width: 0.8"/>
      </g>
     </g>
     <g id="text_1">
      <!-- 2000 -->
      <g transform="translate(144.947727 334.998438) scale(0.1 -0.1)">
       <defs>
        <path id="DejaVuSans-32" d="M 1228 531 
L 3431 531 
L 3431 0 
L 469 0 
L 469 531 
Q 828 903 1448 1529 
Q 2069 2156 2228 2338 
Q 2531 2678 2651 2914 
Q 2772 3150 2772 3378 
Q 2772 3750 2511 3984 
Q 2250 4219 1831 4219 
Q 1534 4219 1204 4116 
Q 875 4013 500 3803 
L 500 4441 
Q 881 4594 1212 4672 
Q 1544 4750 1819 4750 
Q 2544 4750 2975 4387 
Q 3406 4025 3406 3419 
Q 3406 3131 3298 2873 
Q 3191 2616 2906 2266 
Q 2828 2175 2409 1742 
Q 1991 1309 1228 531 
z
" transform="scale(0.015625)"/>
        <path id="DejaVuSans-30" d="M 2034 4250 
Q 1547 4250 1301 3770 
Q 1056 3291 1056 2328 
Q 1056 1369 1301 889 
Q 1547 409 2034 409 
Q 2525 409 2770 889 
Q 3016 1369 3016 2328 
Q 3016 3291 2770 3770 
Q 2525 4250 2034 4250 
z
M 2034 4750 
Q 2819 4750 3233 4129 
Q 3647 3509 3647 2328 
Q 3647 1150 3233 529 
Q 2819 -91 2034 -91 
Q 1250 -91 836 529 
Q 422 1150 422 2328 
Q 422 3509 836 4129 
Q 1250 4750 2034 4750 
z
" transform="scale(0.015625)"/>
       </defs>
       <use xlink:href="#DejaVuSans-32"/>
       <use xlink:href="#DejaVuSans-30" transform="translate(63.623047 0)"/>
       <use xlink:href="#DejaVuSans-30" transform="translate(127.246094 0)"/>
       <use xlink:href="#DejaVuSans-30" transform="translate(190.869141 0)"/>
      </g>
     </g>
    </g>
    <g id="xtick_2">
     <g id="line2d_2">
      <g>
       <use xlink:href="#ma77ee28044" x="247.854545" y="320.4" style="stroke: #000000; stroke-width: 0.8"/>
      </g>
     </g>
     <g id="text_2">
      <!-- 4000 -->
      <g transform="translate(235.129545 334.998438) scale(0.1 -0.1)">
       <defs>
        <path id="DejaVuSans-34" d="M 2419 4116 
L 825 1625 
L 2419 1625 
L 2419 4116 
z
M 2253 4666 
L 3047 4666 
L 3047 1625 
L 3713 1625 
L 3713 1100 
L 3047 1100 
L 3047 0 
L 2419 0 
L 2419 1100 
L 313 1100 
L 313 1709 
L 2253 4666 
z
" transform="scale(0.015625)"/>
       </defs>
       <use xlink:href="#DejaVuSans-34"/>
       <use xlink:href="#DejaVuSans-30" transform="translate(63.623047 0)"/>
       <use xlink:href="#DejaVuSans-30" transform="translate(127.246094 0)"/>
       <use xlink:href="#DejaVuSans-30" transform="translate(190.869141 0)"/>
      </g>
     </g>
    </g>
    <g id="xtick_3">
     <g id="line2d_3">
      <g>
       <use xlink:href="#ma77ee28044" x="338.036364" y="320.4" style="stroke: #000000; stroke-width: 0.8"/>
      </g>
     </g>
     <g id="text_3">
      <!-- 6000 -->
      <g transform="translate(325.311364 334.998438) scale(0.1 -0.1)">
       <defs>
        <path id="DejaVuSans-36" d="M 2113 2584 
Q 1688 2584 1439 2293 
Q 1191 2003 1191 1497 
Q 1191 994 1439 701 
Q 1688 409 2113 409 
Q 2538 409 2786 701 
Q 3034 994 3034 1497 
Q 3034 2003 2786 2293 
Q 2538 2584 2113 2584 
z
M 3366 4563 
L 3366 3988 
Q 3128 4100 2886 4159 
Q 2644 4219 2406 4219 
Q 1781 4219 1451 3797 
Q 1122 3375 1075 2522 
Q 1259 2794 1537 2939 
Q 1816 3084 2150 3084 
Q 2853 3084 3261 2657 
Q 3669 2231 3669 1497 
Q 3669 778 3244 343 
Q 2819 -91 2113 -91 
Q 1303 -91 875 529 
Q 447 1150 447 2328 
Q 447 3434 972 4092 
Q 1497 4750 2381 4750 
Q 2619 4750 2861 4703 
Q 3103 4656 3366 4563 
z
" transform="scale(0.015625)"/>
       </defs>
       <use xlink:href="#DejaVuSans-36"/>
       <use xlink:href="#DejaVuSans-30" transform="translate(63.623047 0)"/>
       <use xlink:href="#DejaVuSans-30" transform="translate(127.246094 0)"/>
       <use xlink:href="#DejaVuSans-30" transform="translate(190.869141 0)"/>
      </g>
     </g>
    </g>
    <g id="xtick_4">
     <g id="line2d_4">
      <g>
       <use xlink:href="#ma77ee28044" x="428.218182" y="320.4" style="stroke: #000000; stroke-width: 0.8"/>
      </g>
     </g>
     <g id="text_4">
      <!-- 8000 -->
      <g transform="translate(415.493182 334.998438) scale(0.1 -0.1)">
       <defs>
        <path id="DejaVuSans-38" d="M 2034 2216 
Q 1584 2216 1326 1975 
Q 1069 1734 1069 1313 
Q 1069 891 1326 650 
Q 1584 409 2034 409 
Q 2484 409 2743 651 
Q 3003 894 3003 1313 
Q 3003 1734 2745 1975 
Q 2488 2216 2034 2216 
z
M 1403 2484 
Q 997 2584 770 2862 
Q 544 3141 544 3541 
Q 544 4100 942 4425 
Q 1341 4750 2034 4750 
Q 2731 4750 3128 4425 
Q 3525 4100 3525 3541 
Q 3525 3141 3298 2862 
Q 3072 2584 2669 2484 
Q 3125 2378 3379 2068 
Q 3634 1759 3634 1313 
Q 3634 634 3220 271 
Q 2806 -91 2034 -91 
Q 1263 -91 848 271 
Q 434 634 434 1313 
Q 434 1759 690 2068 
Q 947 2378 1403 2484 
z
M 1172 3481 
Q 1172 3119 1398 2916 
Q 1625 2713 2034 2713 
Q 2441 2713 2670 2916 
Q 2900 3119 2900 3481 
Q 2900 3844 2670 4047 
Q 2441 4250 2034 4250 
Q 1625 4250 1398 4047 
Q 1172 3844 1172 3481 
z
" transform="scale(0.015625)"/>
       </defs>
       <use xlink:href="#DejaVuSans-38"/>
       <use xlink:href="#DejaVuSans-30" transform="translate(63.623047 0)"/>
       <use xlink:href="#DejaVuSans-30" transform="translate(127.246094 0)"/>
       <use xlink:href="#DejaVuSans-30" transform="translate(190.869141 0)"/>
      </g>
     </g>
    </g>
    <g id="xtick_5">
     <g id="line2d_5">
      <g>
       <use xlink:href="#ma77ee28044" x="518.4" y="320.4" style="stroke: #000000; stroke-width: 0.8"/>
      </g>
     </g>
     <g id="text_5">
      <!-- 10000 -->
      <g transform="translate(502.49375 334.998438) scale(0.1 -0.1)">
       <defs>
        <path id="DejaVuSans-31" d="M 794 531 
L 1825 531 
L 1825 4091 
L 703 3866 
L 703 4441 
L 1819 4666 
L 2450 4666 
L 2450 531 
L 3481 531 
L 3481 0 
L 794 0 
L 794 531 
z
" transform="scale(0.015625)"/>
       </defs>
       <use xlink:href="#DejaVuSans-31"/>
       <use xlink:href="#DejaVuSans-30" transform="translate(63.623047 0)"/>
       <use xlink:href="#DejaVuSans-30" transform="translate(127.246094 0)"/>
       <use xlink:href="#DejaVuSans-30" transform="translate(190.869141 0)"/>
       <use xlink:href="#DejaVuSans-30" transform="translate(254.492188 0)"/>
      </g>
     </g>
    </g>
    <g id="text_6">
     <!-- Training steps -->
     <g transform="translate(260.464844 348.676562) scale(0.1 -0.1)">
      <defs>
       <path id="DejaVuSans-54" d="M -19 4666 
L 3928 4666 
L 3928 4134 
L 2272 4134 
L 2272 0 
L 1638 0 
L 1638 4134 
L -19 4134 
L -19 4666 
z
" transform="scale(0.015625)"/>
       <path id="DejaVuSans-72" d="M 2631 2963 
Q 2534 3019 2420 3045 
Q 2306 3072 2169 3072 
Q 1681 3072 1420 2755 
Q 1159 2438 1159 1844 
L 1159 0 
L 581 0 
L 581 3500 
L 1159 3500 
L 1159 2956 
Q 1341 3275 1631 3429 
Q 1922 3584 2338 3584 
Q 2397 3584 2469 3576 
Q 2541 3569 2628 3553 
L 2631 2963 
z
" transform="scale(0.015625)"/>
       <path id="DejaVuSans-61" d="M 2194 1759 
Q 1497 1759 1228 1600 
Q 959 1441 959 1056 
Q 959 750 1161 570 
Q 1363 391 1709 391 
Q 2188 391 2477 730 
Q 2766 1069 2766 1631 
L 2766 1759 
L 2194 1759 
z
M 3341 1997 
L 3341 0 
L 2766 0 
L 2766 531 
Q 2569 213 2275 61 
Q 1981 -91 1556 -91 
Q 1019 -91 701 211 
Q 384 513 384 1019 
Q 384 1609 779 1909 
Q 1175 2209 1959 2209 
L 2766 2209 
L 2766 2266 
Q 2766 2663 2505 2880 
Q 2244 3097 1772 3097 
Q 1472 3097 1187 3025 
Q 903 2953 641 2809 
L 641 3341 
Q 956 3463 1253 3523 
Q 1550 3584 1831 3584 
Q 2591 3584 2966 3190 
Q 3341 2797 3341 1997 
z
" transform="scale(0.015625)"/>
       <path id="DejaVuSans-69" d="M 603 3500 
L 1178 3500 
L 1178 0 
L 603 0 
L 603 3500 
z
M 603 4863 
L 1178 4863 
L 1178 4134 
L 603 4134 
L 603 4863 
z
" transform="scale(0.015625)"/>
       <path id="DejaVuSans-6e" d="M 3513 2113 
L 3513 0 
L 2938 0 
L 2938 2094 
Q 2938 2591 2744 2837 
Q 2550 3084 2163 3084 
Q 1697 3084 1428 2787 
Q 1159 2491 1159 1978 
L 1159 0 
L 581 0 
L 581 3500 
L 1159 3500 
L 1159 2956 
Q 1366 3272 1645 3428 
Q 1925 3584 2291 3584 
Q 2894 3584 3203 3211 
Q 3513 2838 3513 2113 
z
" transform="scale(0.015625)"/>
       <path id="DejaVuSans-67" d="M 2906 1791 
Q 2906 2416 2648 2759 
Q 2391 3103 1925 3103 
Q 1463 3103 1205 2759 
Q 947 2416 947 1791 
Q 947 1169 1205 825 
Q 1463 481 1925 481 
Q 2391 481 2648 825 
Q 2906 1169 2906 1791 
z
M 3481 434 
Q 3481 -459 3084 -895 
Q 2688 -1331 1869 -1331 
Q 1566 -1331 1297 -1286 
Q 1028 -1241 775 -1147 
L 775 -588 
Q 1028 -725 1275 -790 
Q 1522 -856 1778 -856 
Q 2344 -856 2625 -561 
Q 2906 -266 2906 331 
L 2906 616 
Q 2728 306 2450 153 
Q 2172 0 1784 0 
Q 1141 0 747 490 
Q 353 981 353 1791 
Q 353 2603 747 3093 
Q 1141 3584 1784 3584 
Q 2172 3584 2450 3431 
Q 2728 3278 2906 2969 
L 2906 3500 
L 3481 3500 
L 3481 434 
z
" transform="scale(0.015625)"/>
       <path id="DejaVuSans-20" transform="scale(0.015625)"/>
       <path id="DejaVuSans-73" d="M 2834 3397 
L 2834 2853 
Q 2591 2978 2328 3040 
Q 2066 3103 1784 3103 
Q 1356 3103 1142 2972 
Q 928 2841 928 2578 
Q 928 2378 1081 2264 
Q 1234 2150 1697 2047 
L 1894 2003 
Q 2506 1872 2764 1633 
Q 3022 1394 3022 966 
Q 3022 478 2636 193 
Q 2250 -91 1575 -91 
Q 1294 -91 989 -36 
Q 684 19 347 128 
L 347 722 
Q 666 556 975 473 
Q 1284 391 1588 391 
Q 1994 391 2212 530 
Q 2431 669 2431 922 
Q 2431 1156 2273 1281 
Q 2116 1406 1581 1522 
L 1381 1569 
Q 847 1681 609 1914 
Q 372 2147 372 2553 
Q 372 3047 722 3315 
Q 1072 3584 1716 3584 
Q 2034 3584 2315 3537 
Q 2597 3491 2834 3397 
z
" transform="scale(0.015625)"/>
       <path id="DejaVuSans-74" d="M 1172 4494 
L 1172 3500 
L 2356 3500 
L 2356 3053 
L 1172 3053 
L 1172 1153 
Q 1172 725 1289 603 
Q 1406 481 1766 481 
L 2356 481 
L 2356 0 
L 1766 0 
Q 1100 0 847 248 
Q 594 497 594 1153 
L 594 3053 
L 172 3053 
L 172 3500 
L 594 3500 
L 594 4494 
L 1172 4494 
z
" transform="scale(0.015625)"/>
       <path id="DejaVuSans-65" d="M 3597 1894 
L 3597 1613 
L 953 1613 
Q 991 1019 1311 708 
Q 1631 397 2203 397 
Q 2534 397 2845 478 
Q 3156 559 3463 722 
L 3463 178 
Q 3153 47 2828 -22 
Q 2503 -91 2169 -91 
Q 1331 -91 842 396 
Q 353 884 353 1716 
Q 353 2575 817 3079 
Q 1281 3584 2069 3584 
Q 2775 3584 3186 3129 
Q 3597 2675 3597 1894 
z
M 3022 2063 
Q 3016 2534 2758 2815 
Q 2500 3097 2075 3097 
Q 1594 3097 1305 2825 
Q 1016 2553 972 2059 
L 3022 2063 
z
" transform="scale(0.015625)"/>
       <path id="DejaVuSans-70" d="M 1159 525 
L 1159 -1331 
L 581 -1331 
L 581 3500 
L 1159 3500 
L 1159 2969 
Q 1341 3281 1617 3432 
Q 1894 3584 2278 3584 
Q 2916 3584 3314 3078 
Q 3713 2572 3713 1747 
Q 3713 922 3314 415 
Q 2916 -91 2278 -91 
Q 1894 -91 1617 61 
Q 1341 213 1159 525 
z
M 3116 1747 
Q 3116 2381 2855 2742 
Q 2594 3103 2138 3103 
Q 1681 3103 1420 2742 
Q 1159 2381 1159 1747 
Q 1159 1113 1420 752 
Q 1681 391 2138 391 
Q 2594 391 2855 752 
Q 3116 1113 3116 1747 
z
" transform="scale(0.015625)"/>
      </defs>
      <use xlink:href="#DejaVuSans-54"/>
      <use xlink:href="#DejaVuSans-72" transform="translate(46.333984 0)"/>
      <use xlink:href="#DejaVuSans-61" transform="translate(87.447266 0)"/>
      <use xlink:href="#DejaVuSans-69" transform="translate(148.726562 0)"/>
      <use xlink:href="#DejaVuSans-6e" transform="translate(176.509766 0)"/>
      <use xlink:href="#DejaVuSans-69" transform="translate(239.888672 0)"/>
      <use xlink:href="#DejaVuSans-6e" transform="translate(267.671875 0)"/>
      <use xlink:href="#DejaVuSans-67" transform="translate(331.050781 0)"/>
      <use xlink:href="#DejaVuSans-20" transform="translate(394.527344 0)"/>
      <use xlink:href="#DejaVuSans-73" transform="translate(426.314453 0)"/>
      <use xlink:href="#DejaVuSans-74" transform="translate(478.414062 0)"/>
      <use xlink:href="#DejaVuSans-65" transform="translate(517.623047 0)"/>
      <use xlink:href="#DejaVuSans-70" transform="translate(579.146484 0)"/>
      <use xlink:href="#DejaVuSans-73" transform="translate(642.623047 0)"/>
     </g>
    </g>
   </g>
   <g id="matplotlib.axis_2">
    <g id="ytick_1">
     <g id="line2d_6">
      <defs>
       <path id="m002fda97c6" d="M 0 0 
L -3.5 0 
" style="stroke: #000000; stroke-width: 0.8"/>
      </defs>
      <g>
       <use xlink:href="#m002fda97c6" x="72" y="301.155072" style="stroke: #000000; stroke-width: 0.8"/>
      </g>
     </g>
     <g id="text_7">
      <!-- 0.4 -->
      <g transform="translate(49.096875 304.954291) scale(0.1 -0.1)">
       <defs>
        <path id="DejaVuSans-2e" d="M 684 794 
L 1344 794 
L 1344 0 
L 684 0 
L 684 794 
z
" transform="scale(0.015625)"/>
       </defs>
       <use xlink:href="#DejaVuSans-30"/>
       <use xlink:href="#DejaVuSans-2e" transform="translate(63.623047 0)"/>
       <use xlink:href="#DejaVuSans-34" transform="translate(95.410156 0)"/>
      </g>
     </g>
    </g>
    <g id="ytick_2">
     <g id="line2d_7">
      <g>
       <use xlink:href="#m002fda97c6" x="72" y="250.430435" style="stroke: #000000; stroke-width: 0.8"/>
      </g>
     </g>
     <g id="text_8">
      <!-- 0.5 -->
      <g transform="translate(49.096875 254.229654) scale(0.1 -0.1)">
       <defs>
        <path id="DejaVuSans-35" d="M 691 4666 
L 3169 4666 
L 3169 4134 
L 1269 4134 
L 1269 2991 
Q 1406 3038 1543 3061 
Q 1681 3084 1819 3084 
Q 2600 3084 3056 2656 
Q 3513 2228 3513 1497 
Q 3513 744 3044 326 
Q 2575 -91 1722 -91 
Q 1428 -91 1123 -41 
Q 819 9 494 109 
L 494 744 
Q 775 591 1075 516 
Q 1375 441 1709 441 
Q 2250 441 2565 725 
Q 2881 1009 2881 1497 
Q 2881 1984 2565 2268 
Q 2250 2553 1709 2553 
Q 1456 2553 1204 2497 
Q 953 2441 691 2322 
L 691 4666 
z
" transform="scale(0.015625)"/>
       </defs>
       <use xlink:href="#DejaVuSans-30"/>
       <use xlink:href="#DejaVuSans-2e" transform="translate(63.623047 0)"/>
       <use xlink:href="#DejaVuSans-35" transform="translate(95.410156 0)"/>
      </g>
     </g>
    </g>
    <g id="ytick_3">
     <g id="line2d_8">
      <g>
       <use xlink:href="#m002fda97c6" x="72" y="199.705797" style="stroke: #000000; stroke-width: 0.8"/>
      </g>
     </g>
     <g id="text_9">
      <!-- 0.6 -->
      <g transform="translate(49.096875 203.505016) scale(0.1 -0.1)">
       <use xlink:href="#DejaVuSans-30"/>
       <use xlink:href="#DejaVuSans-2e" transform="translate(63.623047 0)"/>
       <use xlink:href="#DejaVuSans-36" transform="translate(95.410156 0)"/>
      </g>
     </g>
    </g>
    <g id="ytick_4">
     <g id="line2d_9">
      <g>
       <use xlink:href="#m002fda97c6" x="72" y="148.981159" style="stroke: #000000; stroke-width: 0.8"/>
      </g>
     </g>
     <g id="text_10">
      <!-- 0.7 -->
      <g transform="translate(49.096875 152.780378) scale(0.1 -0.1)">
       <defs>
        <path id="DejaVuSans-37" d="M 525 4666 
L 3525 4666 
L 3525 4397 
L 1831 0 
L 1172 0 
L 2766 4134 
L 525 4134 
L 525 4666 
z
" transform="scale(0.015625)"/>
       </defs>
       <use xlink:href="#DejaVuSans-30"/>
       <use xlink:href="#DejaVuSans-2e" transform="translate(63.623047 0)"/>
       <use xlink:href="#DejaVuSans-37" transform="translate(95.410156 0)"/>
      </g>
     </g>
    </g>
    <g id="ytick_5">
     <g id="line2d_10">
      <g>
       <use xlink:href="#m002fda97c6" x="72" y="98.256522" style="stroke: #000000; stroke-width: 0.8"/>
      </g>
     </g>
     <g id="text_11">
      <!-- 0.8 -->
      <g transform="translate(49.096875 102.05574) scale(0.1 -0.1)">
       <use xlink:href="#DejaVuSans-30"/>
       <use xlink:href="#DejaVuSans-2e" transform="translate(63.623047 0)"/>
       <use xlink:href="#DejaVuSans-38" transform="translate(95.410156 0)"/>
      </g>
     </g>
    </g>
    <g id="ytick_6">
     <g id="line2d_11">
      <g>
       <use xlink:href="#m002fda97c6" x="72" y="47.531884" style="stroke: #000000; stroke-width: 0.8"/>
      </g>
     </g>
     <g id="text_12">
      <!-- 0.9 -->
      <g transform="translate(49.096875 51.331103) scale(0.1 -0.1)">
       <defs>
        <path id="DejaVuSans-39" d="M 703 97 
L 703 672 
Q 941 559 1184 500 
Q 1428 441 1663 441 
Q 2288 441 2617 861 
Q 2947 1281 2994 2138 
Q 2813 1869 2534 1725 
Q 2256 1581 1919 1581 
Q 1219 1581 811 2004 
Q 403 2428 403 3163 
Q 403 3881 828 4315 
Q 1253 4750 1959 4750 
Q 2769 4750 3195 4129 
Q 3622 3509 3622 2328 
Q 3622 1225 3098 567 
Q 2575 -91 1691 -91 
Q 1453 -91 1209 -44 
Q 966 3 703 97 
z
M 1959 2075 
Q 2384 2075 2632 2365 
Q 2881 2656 2881 3163 
Q 2881 3666 2632 3958 
Q 2384 4250 1959 4250 
Q 1534 4250 1286 3958 
Q 1038 3666 1038 3163 
Q 1038 2656 1286 2365 
Q 1534 2075 1959 2075 
z
" transform="scale(0.015625)"/>
       </defs>
       <use xlink:href="#DejaVuSans-30"/>
       <use xlink:href="#DejaVuSans-2e" transform="translate(63.623047 0)"/>
       <use xlink:href="#DejaVuSans-39" transform="translate(95.410156 0)"/>
      </g>
     </g>
    </g>
    <g id="text_13">
     <!-- Loss -->
     <g transform="translate(43.017187 192.767187) rotate(-90) scale(0.1 -0.1)">
      <defs>
       <path id="DejaVuSans-4c" d="M 628 4666 
L 1259 4666 
L 1259 531 
L 3531 531 
L 3531 0 
L 628 0 
L 628 4666 
z
" transform="scale(0.015625)"/>
       <path id="DejaVuSans-6f" d="M 1959 3097 
Q 1497 3097 1228 2736 
Q 959 2375 959 1747 
Q 959 1119 1226 758 
Q 1494 397 1959 397 
Q 2419 397 2687 759 
Q 2956 1122 2956 1747 
Q 2956 2369 2687 2733 
Q 2419 3097 1959 3097 
z
M 1959 3584 
Q 2709 3584 3137 3096 
Q 3566 2609 3566 1747 
Q 3566 888 3137 398 
Q 2709 -91 1959 -91 
Q 1206 -91 779 398 
Q 353 888 353 1747 
Q 353 2609 779 3096 
Q 1206 3584 1959 3584 
z
" transform="scale(0.015625)"/>
      </defs>
      <use xlink:href="#DejaVuSans-4c"/>
      <use xlink:href="#DejaVuSans-6f" transform="translate(53.962891 0)"/>
      <use xlink:href="#DejaVuSans-73" transform="translate(115.144531 0)"/>
      <use xlink:href="#DejaVuSans-73" transform="translate(167.244141 0)"/>
     </g>
    </g>
   </g>
   <g id="line2d_12">
    <path d="M 72 118.292754 
L 76.509091 144.213043 
L 81.018182 134.372464 
L 85.527273 138.278261 
L 90.036364 157.908696 
L 94.545455 154.307246 
L 99.054545 155.372464 
L 103.563636 151.010145 
L 108.072727 157.604348 
L 112.581818 164.857971 
L 117.090909 159.785507 
L 121.6 149.742029 
L 126.109091 158.314493 
L 130.618182 165.314493 
L 135.127273 152.227536 
L 139.636364 170.894203 
L 144.145455 170.995652 
L 148.654545 162.423188 
L 153.163636 151.618841 
L 157.672727 166.227536 
L 162.181818 164.95942 
L 166.690909 171.502899 
L 171.2 162.169565 
L 175.709091 168.408696 
L 180.218182 170.792754 
L 184.727273 168.053623 
L 189.236364 173.582609 
L 193.745455 165.821739 
L 198.254545 185.350725 
L 202.763636 163.437681 
L 207.272727 157.553623 
L 211.781818 172.821739 
L 216.290909 173.937681 
L 220.8 164.908696 
L 225.309091 156.944928 
L 229.818182 166.075362 
L 234.327273 169.22029 
L 238.836364 190.22029 
L 243.345455 173.37971 
L 247.854545 167.394203 
L 252.363636 174.191304 
L 256.872727 175.205797 
L 261.381818 177.082609 
L 265.890909 177.488406 
L 270.4 167.089855 
L 274.909091 182.763768 
L 279.418182 176.473913 
L 283.927273 185.249275 
L 288.436364 195.749275 
L 292.945455 168.357971 
L 297.454545 170.031884 
L 301.963636 177.386957 
L 306.472727 182.357971 
L 310.981818 187.227536 
L 315.490909 190.017391 
L 320 190.423188 
L 324.509091 184.995652 
L 329.018182 187.988406 
L 333.527273 180.531884 
L 338.036364 183.321739 
L 342.545455 179.263768 
L 347.054545 190.828986 
L 351.563636 183.068116 
L 356.072727 183.068116 
L 360.581818 191.336232 
L 365.090909 179.973913 
L 369.6 189.915942 
L 374.109091 177.234783 
L 378.618182 206.097101 
L 383.127273 191.792754 
L 387.636364 175.256522 
L 392.145455 203.256522 
L 396.654545 197.87971 
L 401.163636 197.778261 
L 405.672727 195.8 
L 410.181818 193.314493 
L 414.690909 196.865217 
L 419.2 208.481159 
L 423.709091 203.865217 
L 428.218182 194.684058 
L 432.727273 199.198551 
L 437.236364 206.046377 
L 441.745455 201.176812 
L 446.254545 201.886957 
L 450.763636 203.713043 
L 455.272727 195.292754 
L 459.781818 204.118841 
L 464.290909 200.010145 
L 468.8 199.705797 
L 473.309091 207.568116 
L 477.818182 198.944928 
L 482.327273 193.771014 
L 486.836364 198.437681 
L 491.345455 192.3 
L 495.854545 197.828986 
L 500.363636 187.126087 
L 504.872727 191.133333 
L 509.381818 204.271014 
L 513.890909 204.575362 
L 518.4 210.45942 
" clip-path="url(#p6b0ca546bc)" style="fill: none; stroke: #1f77b4; stroke-width: 1.5; stroke-linecap: square"/>
   </g>
   <g id="line2d_13">
    <path d="M 72 55.8 
L 76.509091 128.589855 
L 81.018182 128.133333 
L 85.527273 130.162319 
L 90.036364 150.097101 
L 94.545455 154.256522 
L 99.054545 153.952174 
L 103.563636 142.336232 
L 108.072727 133.45942 
L 112.581818 162.524638 
L 117.090909 155.727536 
L 121.6 131.886957 
L 126.109091 148.169565 
L 130.618182 146.191304 
L 135.127273 150.046377 
L 139.636364 164.807246 
L 144.145455 168.713043 
L 148.654545 151.923188 
L 153.163636 152.886957 
L 157.672727 135.184058 
L 162.181818 161.155072 
L 166.690909 160.242029 
L 171.2 148.473913 
L 175.709091 181.597101 
L 180.218182 166.937681 
L 184.727273 157.046377 
L 189.236364 170.995652 
L 193.745455 162.017391 
L 198.254545 155.778261 
L 202.763636 164.553623 
L 207.272727 168.256522 
L 211.781818 162.524638 
L 216.290909 158.973913 
L 220.8 152.024638 
L 225.309091 155.068116 
L 229.818182 176.118841 
L 234.327273 179.923188 
L 238.836364 181.14058 
L 243.345455 151.821739 
L 247.854545 162.981159 
L 252.363636 167.14058 
L 256.872727 173.531884 
L 261.381818 184.843478 
L 265.890909 179.72029 
L 270.4 174.749275 
L 274.909091 162.473913 
L 279.418182 180.531884 
L 283.927273 182.510145 
L 288.436364 192.401449 
L 292.945455 161.662319 
L 297.454545 170.488406 
L 301.963636 176.981159 
L 306.472727 181.292754 
L 310.981818 190.575362 
L 315.490909 169.87971 
L 320 179.06087 
L 324.509091 173.227536 
L 329.018182 187.684058 
L 333.527273 167.444928 
L 338.036364 180.734783 
L 342.545455 181.952174 
L 347.054545 191.589855 
L 351.563636 150.401449 
L 356.072727 184.031884 
L 360.581818 187.531884 
L 365.090909 179.923188 
L 369.6 184.336232 
L 374.109091 184.944928 
L 378.618182 182.966667 
L 383.127273 182.408696 
L 387.636364 173.024638 
L 392.145455 191.031884 
L 396.654545 206.452174 
L 401.163636 178.097101 
L 405.672727 177.082609 
L 410.181818 185.097101 
L 414.690909 190.727536 
L 419.2 205.691304 
L 423.709091 201.328986 
L 428.218182 197.321739 
L 432.727273 200.415942 
L 437.236364 206.756522 
L 441.745455 195.242029 
L 446.254545 193.415942 
L 450.763636 192.908696 
L 455.272727 193.466667 
L 459.781818 183.524638 
L 464.290909 200.872464 
L 468.8 212.691304 
L 473.309091 191.488406 
L 477.818182 195.546377 
L 482.327273 190.676812 
L 486.836364 191.944928 
L 491.345455 191.234783 
L 495.854545 196.104348 
L 500.363636 188.850725 
L 504.872727 192.401449 
L 509.381818 203.408696 
L 513.890909 207.162319 
L 518.4 212.234783 
" clip-path="url(#p6b0ca546bc)" style="fill: none; stroke: #ff7f0e; stroke-width: 1.5; stroke-linecap: square"/>
   </g>
   <g id="line2d_14">
    <path d="M 72 189.357971 
L 76.509091 202.03913 
L 81.018182 201.531884 
L 85.527273 199.705797 
L 90.036364 210.966667 
L 94.545455 207.213043 
L 99.054545 225.676812 
L 103.563636 214.415942 
L 108.072727 227.198551 
L 112.581818 217.865217 
L 117.090909 231.56087 
L 121.6 229.633333 
L 126.109091 217.814493 
L 130.618182 222.836232 
L 135.127273 229.836232 
L 139.636364 234.147826 
L 144.145455 235.973913 
L 148.654545 241.401449 
L 153.163636 227.097101 
L 157.672727 217.104348 
L 162.181818 235.568116 
L 166.690909 238.205797 
L 171.2 240.894203 
L 175.709091 242.010145 
L 180.218182 233.285507 
L 184.727273 245.45942 
L 189.236364 239.372464 
L 193.745455 231.713043 
L 198.254545 252.053623 
L 202.763636 236.075362 
L 207.272727 231.155072 
L 211.781818 228.669565 
L 216.290909 224.56087 
L 220.8 232.778261 
L 225.309091 223.850725 
L 229.818182 227.046377 
L 234.327273 238.307246 
L 238.836364 257.176812 
L 243.345455 238.510145 
L 247.854545 238.865217 
L 252.363636 238.205797 
L 256.872727 246.118841 
L 261.381818 249.162319 
L 265.890909 238.155072 
L 270.4 253.22029 
L 274.909091 240.184058 
L 279.418182 252.256522 
L 283.927273 262.553623 
L 288.436364 255.502899 
L 292.945455 224.45942 
L 297.454545 236.785507 
L 301.963636 245.814493 
L 306.472727 258.901449 
L 310.981818 258.292754 
L 315.490909 265.8 
L 320 241.046377 
L 324.509091 248.147826 
L 329.018182 257.37971 
L 333.527273 236.886957 
L 338.036364 245.611594 
L 342.545455 261.133333 
L 347.054545 232.828986 
L 351.563636 243.886957 
L 356.072727 272.444928 
L 360.581818 240.285507 
L 365.090909 255.502899 
L 369.6 264.430435 
L 374.109091 246.22029 
L 378.618182 264.481159 
L 383.127273 246.930435 
L 387.636364 250.684058 
L 392.145455 268.843478 
L 396.654545 281.87971 
L 401.163636 260.87971 
L 405.672727 257.278261 
L 410.181818 257.988406 
L 414.690909 265.394203 
L 419.2 276.249275 
L 423.709091 280.307246 
L 428.218182 274.423188 
L 432.727273 266.307246 
L 437.236364 274.271014 
L 441.745455 264.430435 
L 446.254545 275.133333 
L 450.763636 263.365217 
L 455.272727 258.952174 
L 459.781818 255.097101 
L 464.290909 269.401449 
L 468.8 285.937681 
L 473.309091 269.95942 
L 477.818182 283.604348 
L 482.327273 261.488406 
L 486.836364 252.611594 
L 491.345455 260.068116 
L 495.854545 279.546377 
L 500.363636 255.452174 
L 504.872727 262.502899 
L 509.381818 274.017391 
L 513.890909 277.72029 
L 518.4 274.473913 
" clip-path="url(#p6b0ca546bc)" style="fill: none; stroke: #2ca02c; stroke-width: 1.5; stroke-linecap: square"/>
   </g>
   <g id="line2d_15">
    <path d="M 72 84.865217 
L 76.509091 171.857971 
L 81.018182 185.350725 
L 85.527273 177.995652 
L 90.036364 200.162319 
L 94.545455 189.307246 
L 99.054545 189.915942 
L 103.563636 197.068116 
L 108.072727 190.676812 
L 112.581818 187.126087 
L 117.090909 195.14058 
L 121.6 203.357971 
L 126.109091 199.756522 
L 130.618182 204.372464 
L 135.127273 139.749275 
L 139.636364 198.184058 
L 144.145455 194.785507 
L 148.654545 218.828986 
L 153.163636 198.944928 
L 157.672727 187.582609 
L 162.181818 211.575362 
L 166.690909 207.466667 
L 171.2 208.836232 
L 175.709091 205.336232 
L 180.218182 198.589855 
L 184.727273 219.53913 
L 189.236364 206.908696 
L 193.745455 198.843478 
L 198.254545 222.785507 
L 202.763636 207.669565 
L 207.272727 208.126087 
L 211.781818 206.401449 
L 216.290909 182.611594 
L 220.8 192.401449 
L 225.309091 192.3 
L 229.818182 202.191304 
L 234.327273 201.328986 
L 238.836364 215.126087 
L 243.345455 213.807246 
L 247.854545 191.133333 
L 252.363636 199.857971 
L 256.872727 224.662319 
L 261.381818 219.742029 
L 265.890909 212.234783 
L 270.4 205.894203 
L 274.909091 221.010145 
L 279.418182 222.582609 
L 283.927273 222.328986 
L 288.436364 217.408696 
L 292.945455 187.024638 
L 297.454545 202.850725 
L 301.963636 214.466667 
L 306.472727 224.865217 
L 310.981818 232.321739 
L 315.490909 223.647826 
L 320 201.278261 
L 324.509091 219.843478 
L 329.018182 232.524638 
L 333.527273 199.249275 
L 338.036364 223.444928 
L 342.545455 221.973913 
L 347.054545 232.118841 
L 351.563636 230.292754 
L 356.072727 241.046377 
L 360.581818 221.923188 
L 365.090909 218.930435 
L 369.6 226.082609 
L 374.109091 218.778261 
L 378.618182 243.734783 
L 383.127273 217.966667 
L 387.636364 221.517391 
L 392.145455 229.481159 
L 396.654545 243.734783 
L 401.163636 232.423188 
L 405.672727 228.06087 
L 410.181818 230.8 
L 414.690909 250.176812 
L 419.2 243.176812 
L 423.709091 239.87971 
L 428.218182 240.234783 
L 432.727273 256.010145 
L 437.236364 252.56087 
L 441.745455 241.3 
L 446.254545 247.742029 
L 450.763636 232.676812 
L 455.272727 240.53913 
L 459.781818 238.510145 
L 464.290909 243.937681 
L 468.8 258.749275 
L 473.309091 234.046377 
L 477.818182 254.285507 
L 482.327273 242.365217 
L 486.836364 223.546377 
L 491.345455 238.763768 
L 495.854545 259.256522 
L 500.363636 243.278261 
L 504.872727 236.684058 
L 509.381818 248.3 
L 513.890909 256.111594 
L 518.4 249.213043 
" clip-path="url(#p6b0ca546bc)" style="fill: none; stroke: #d62728; stroke-width: 1.5; stroke-linecap: square"/>
   </g>
   <g id="line2d_16">
    <path d="M 72 164.198551 
L 76.509091 131.937681 
L 81.018182 129.908696 
L 85.527273 142.336232 
L 90.036364 147.662319 
L 94.545455 145.37971 
L 99.054545 166.024638 
L 103.563636 155.575362 
L 108.072727 182.56087 
L 112.581818 193.872464 
L 117.090909 209.647826 
L 121.6 206.655072 
L 126.109091 220.147826 
L 130.618182 217.45942 
L 135.127273 215.126087 
L 139.636364 224.104348 
L 144.145455 242.973913 
L 148.654545 236.684058 
L 153.163636 223.952174 
L 157.672727 213.249275 
L 162.181818 217.510145 
L 166.690909 224.510145 
L 171.2 233.894203 
L 175.709091 242.618841 
L 180.218182 232.676812 
L 184.727273 229.633333 
L 189.236364 237.850725 
L 193.745455 228.669565 
L 198.254545 250.37971 
L 202.763636 237.444928 
L 207.272727 233.589855 
L 211.781818 227.249275 
L 216.290909 234.401449 
L 220.8 230.597101 
L 225.309091 231.45942 
L 229.818182 233.437681 
L 234.327273 252.510145 
L 238.836364 265.292754 
L 243.345455 238.56087 
L 247.854545 240.082609 
L 252.363636 244.394203 
L 256.872727 243.075362 
L 261.381818 252.662319 
L 265.890909 260.068116 
L 270.4 252.56087 
L 274.909091 239.22029 
L 279.418182 251.242029 
L 283.927273 260.626087 
L 288.436364 266.763768 
L 292.945455 231.611594 
L 297.454545 246.372464 
L 301.963636 245.814493 
L 306.472727 256.365217 
L 310.981818 261.285507 
L 315.490909 268.437681 
L 320 249.821739 
L 324.509091 262.553623 
L 329.018182 258.698551 
L 333.527273 236.531884 
L 338.036364 254.691304 
L 342.545455 269.147826 
L 347.054545 245.408696 
L 351.563636 258.089855 
L 356.072727 276.147826 
L 360.581818 252.915942 
L 365.090909 250.075362 
L 369.6 275.386957 
L 374.109091 255.705797 
L 378.618182 268.742029 
L 383.127273 248.401449 
L 387.636364 252.763768 
L 392.145455 278.126087 
L 396.654545 286.698551 
L 401.163636 274.017391 
L 405.672727 269.95942 
L 410.181818 274.930435 
L 414.690909 292.328986 
L 419.2 287.56087 
L 423.709091 299.227536 
L 428.218182 293.03913 
L 432.727273 275.691304 
L 437.236364 281.626087 
L 441.745455 275.53913 
L 446.254545 280.510145 
L 450.763636 277.669565 
L 455.272727 278.988406 
L 459.781818 279.952174 
L 464.290909 283.908696 
L 468.8 307.8 
L 473.309091 280.763768 
L 477.818182 286.343478 
L 482.327273 294.053623 
L 486.836364 262.553623 
L 491.345455 279.03913 
L 495.854545 297.147826 
L 500.363636 265.394203 
L 504.872727 279.191304 
L 509.381818 297.95942 
L 513.890909 297.553623 
L 518.4 287.966667 
" clip-path="url(#p6b0ca546bc)" style="fill: none; stroke: #9467bd; stroke-width: 1.5; stroke-linecap: square"/>
   </g>
   <g id="line2d_17">
    <path d="M 72 180.785507 
L 76.509091 198.488406 
L 81.018182 189.104348 
L 85.527273 205.589855 
L 90.036364 215.531884 
L 94.545455 214.923188 
L 99.054545 221.923188 
L 103.563636 216.901449 
L 108.072727 232.22029 
L 112.581818 217.713043 
L 117.090909 231.915942 
L 121.6 215.278261 
L 126.109091 224.357971 
L 130.618182 224.510145 
L 135.127273 221.973913 
L 139.636364 221.06087 
L 144.145455 230.343478 
L 148.654545 239.778261 
L 153.163636 228.72029 
L 157.672727 211.87971 
L 162.181818 216.952174 
L 166.690909 210.053623 
L 171.2 215.734783 
L 175.709091 232.068116 
L 180.218182 236.481159 
L 184.727273 243.785507 
L 189.236364 235.517391 
L 193.745455 229.075362 
L 198.254545 236.633333 
L 202.763636 230.14058 
L 207.272727 219.792754 
L 211.781818 226.336232 
L 216.290909 230.292754 
L 220.8 231.155072 
L 225.309091 219.488406 
L 229.818182 231.611594 
L 234.327273 240.589855 
L 238.836364 255.046377 
L 243.345455 227.95942 
L 247.854545 236.582609 
L 252.363636 231.256522 
L 256.872727 237.191304 
L 261.381818 242.010145 
L 265.890909 248.908696 
L 270.4 234.756522 
L 274.909091 231.45942 
L 279.418182 251.03913 
L 283.927273 260.068116 
L 288.436364 253.676812 
L 292.945455 220.756522 
L 297.454545 234.046377 
L 301.963636 238.002899 
L 306.472727 248.502899 
L 310.981818 254.488406 
L 315.490909 256.72029 
L 320 236.988406 
L 324.509091 248.350725 
L 329.018182 256.618841 
L 333.527273 227.95942 
L 338.036364 244.546377 
L 342.545455 252.662319 
L 347.054545 243.430435 
L 351.563636 249.72029 
L 356.072727 262.553623 
L 360.581818 234.807246 
L 365.090909 247.285507 
L 369.6 258.495652 
L 374.109091 240.386957 
L 378.618182 257.481159 
L 383.127273 249.06087 
L 387.636364 244.242029 
L 392.145455 257.785507 
L 396.654545 269.553623 
L 401.163636 254.031884 
L 405.672727 246.727536 
L 410.181818 259.256522 
L 414.690909 264.988406 
L 419.2 266.763768 
L 423.709091 283.908696 
L 428.218182 269.807246 
L 432.727273 269.249275 
L 437.236364 258.647826 
L 441.745455 257.836232 
L 446.254545 260.778261 
L 450.763636 257.836232 
L 455.272727 261.995652 
L 459.781818 257.024638 
L 464.290909 268.133333 
L 468.8 263.72029 
L 473.309091 267.676812 
L 477.818182 273.56087 
L 482.327273 268.184058 
L 486.836364 246.778261 
L 491.345455 253.626087 
L 495.854545 285.176812 
L 500.363636 260.524638 
L 504.872727 251.14058 
L 509.381818 271.37971 
L 513.890909 273.611594 
L 518.4 259.053623 
" clip-path="url(#p6b0ca546bc)" style="fill: none; stroke: #8c564b; stroke-width: 1.5; stroke-linecap: square"/>
   </g>
   <g id="line2d_18">
    <path d="M 72 121.944928 
L 76.509091 176.676812 
L 81.018182 197.321739 
L 85.527273 191.53913 
L 90.036364 201.582609 
L 94.545455 198.742029 
L 99.054545 206.655072 
L 103.563636 187.227536 
L 108.072727 210.002899 
L 112.581818 184.234783 
L 117.090909 202.952174 
L 121.6 199.350725 
L 126.109091 197.068116 
L 130.618182 211.778261 
L 135.127273 178.147826 
L 139.636364 209.698551 
L 144.145455 194.684058 
L 148.654545 228.466667 
L 153.163636 208.785507 
L 157.672727 209.850725 
L 162.181818 210.45942 
L 166.690909 200.618841 
L 171.2 220.350725 
L 175.709091 214.568116 
L 180.218182 203.865217 
L 184.727273 227.198551 
L 189.236364 221.162319 
L 193.745455 208.785507 
L 198.254545 215.176812 
L 202.763636 217.307246 
L 207.272727 204.981159 
L 211.781818 205.234783 
L 216.290909 195.597101 
L 220.8 208.582609 
L 225.309091 189.104348 
L 229.818182 199.097101 
L 234.327273 219.184058 
L 238.836364 232.524638 
L 243.345455 221.111594 
L 247.854545 212.488406 
L 252.363636 214.06087 
L 256.872727 224.053623 
L 261.381818 240.336232 
L 265.890909 229.126087 
L 270.4 222.633333 
L 274.909091 222.886957 
L 279.418182 222.37971 
L 283.927273 223.343478 
L 288.436364 231.104348 
L 292.945455 193.010145 
L 297.454545 217.002899 
L 301.963636 225.22029 
L 306.472727 232.727536 
L 310.981818 243.075362 
L 315.490909 242.568116 
L 320 204.930435 
L 324.509091 233.386957 
L 329.018182 241.350725 
L 333.527273 204.271014 
L 338.036364 226.488406 
L 342.545455 233.53913 
L 347.054545 236.937681 
L 351.563636 230.089855 
L 356.072727 247.792754 
L 360.581818 227.147826 
L 365.090909 230.546377 
L 369.6 232.118841 
L 374.109091 222.278261 
L 378.618182 247.894203 
L 383.127273 229.075362 
L 387.636364 225.118841 
L 392.145455 255.705797 
L 396.654545 259.002899 
L 401.163636 255.046377 
L 405.672727 243.278261 
L 410.181818 252.053623 
L 414.690909 261.031884 
L 419.2 255.807246 
L 423.709091 272.901449 
L 428.218182 255.502899 
L 432.727273 266.915942 
L 437.236364 265.191304 
L 441.745455 252.814493 
L 446.254545 260.271014 
L 450.763636 257.988406 
L 455.272727 254.488406 
L 459.781818 258.14058 
L 464.290909 259.053623 
L 468.8 267.676812 
L 473.309091 251.495652 
L 477.818182 258.14058 
L 482.327273 266.256522 
L 486.836364 241.756522 
L 491.345455 243.126087 
L 495.854545 273.814493 
L 500.363636 252.763768 
L 504.872727 250.126087 
L 509.381818 264.988406 
L 513.890909 271.075362 
L 518.4 261.386957 
" clip-path="url(#p6b0ca546bc)" style="fill: none; stroke: #e377c2; stroke-width: 1.5; stroke-linecap: square"/>
   </g>
   <g id="line2d_19">
    <path d="M 72 155.727536 
L 76.509091 177.944928 
L 81.018182 180.582609 
L 85.527273 144.111594 
L 90.036364 166.684058 
L 94.545455 181.495652 
L 99.054545 175.408696 
L 103.563636 193.973913 
L 108.072727 207.821739 
L 112.581818 196.611594 
L 117.090909 209.597101 
L 121.6 198.792754 
L 126.109091 209.495652 
L 130.618182 216.03913 
L 135.127273 216.14058 
L 139.636364 207.923188 
L 144.145455 213.198551 
L 148.654545 230.901449 
L 153.163636 203.814493 
L 157.672727 199.553623 
L 162.181818 208.633333 
L 166.690909 217.966667 
L 171.2 216.343478 
L 175.709091 226.285507 
L 180.218182 225.981159 
L 184.727273 236.734783 
L 189.236364 228.111594 
L 193.745455 211.87971 
L 198.254545 243.582609 
L 202.763636 220.401449 
L 207.272727 218.575362 
L 211.781818 209.698551 
L 216.290909 219.843478 
L 220.8 217.763768 
L 225.309091 215.734783 
L 229.818182 223.8 
L 234.327273 216.749275 
L 238.836364 240.336232 
L 243.345455 213.452174 
L 247.854545 230.901449 
L 252.363636 226.031884 
L 256.872727 240.843478 
L 261.381818 240.082609 
L 265.890909 238.763768 
L 270.4 234.857971 
L 274.909091 233.64058 
L 279.418182 243.227536 
L 283.927273 245.56087 
L 288.436364 246.981159 
L 292.945455 217.45942 
L 297.454545 227.604348 
L 301.963636 233.53913 
L 306.472727 246.676812 
L 310.981818 248.3 
L 315.490909 244.546377 
L 320 235.568116 
L 324.509091 233.488406 
L 329.018182 255.147826 
L 333.527273 224.865217 
L 338.036364 246.727536 
L 342.545455 259.104348 
L 347.054545 235.821739 
L 351.563636 243.836232 
L 356.072727 261.234783 
L 360.581818 242.568116 
L 365.090909 253.372464 
L 369.6 251.698551 
L 374.109091 230.647826 
L 378.618182 250.988406 
L 383.127273 246.321739 
L 387.636364 240.488406 
L 392.145455 258.698551 
L 396.654545 261.742029 
L 401.163636 248.147826 
L 405.672727 250.126087 
L 410.181818 260.118841 
L 414.690909 257.836232 
L 419.2 268.742029 
L 423.709091 272.698551 
L 428.218182 274.372464 
L 432.727273 262.807246 
L 437.236364 258.647826 
L 441.745455 250.075362 
L 446.254545 255.553623 
L 450.763636 262.655072 
L 455.272727 249.669565 
L 459.781818 251.089855 
L 464.290909 261.589855 
L 468.8 276.350725 
L 473.309091 254.843478 
L 477.818182 271.937681 
L 482.327273 259.205797 
L 486.836364 249.466667 
L 491.345455 247.64058 
L 495.854545 272.394203 
L 500.363636 244.647826 
L 504.872727 253.473913 
L 509.381818 264.836232 
L 513.890909 264.886957 
L 518.4 267.676812 
" clip-path="url(#p6b0ca546bc)" style="fill: none; stroke: #7f7f7f; stroke-width: 1.5; stroke-linecap: square"/>
   </g>
   <g id="patch_3">
    <path d="M 72 320.4 
L 72 43.2 
" style="fill: none; stroke: #000000; stroke-width: 0.8; stroke-linejoin: miter; stroke-linecap: square"/>
   </g>
   <g id="patch_4">
    <path d="M 518.4 320.4 
L 518.4 43.2 
" style="fill: none; stroke: #000000; stroke-width: 0.8; stroke-linejoin: miter; stroke-linecap: square"/>
   </g>
   <g id="patch_5">
    <path d="M 72 320.4 
L 518.4 320.4 
" style="fill: none; stroke: #000000; stroke-width: 0.8; stroke-linejoin: miter; stroke-linecap: square"/>
   </g>
   <g id="patch_6">
    <path d="M 72 43.2 
L 518.4 43.2 
" style="fill: none; stroke: #000000; stroke-width: 0.8; stroke-linejoin: miter; stroke-linecap: square"/>
   </g>
   <g id="text_14">
    <!-- H2AFZ -->
    <g transform="translate(275.205 37.2) scale(0.12 -0.12)">
     <defs>
      <path id="DejaVuSans-48" d="M 628 4666 
L 1259 4666 
L 1259 2753 
L 3553 2753 
L 3553 4666 
L 4184 4666 
L 4184 0 
L 3553 0 
L 3553 2222 
L 1259 2222 
L 1259 0 
L 628 0 
L 628 4666 
z
" transform="scale(0.015625)"/>
      <path id="DejaVuSans-41" d="M 2188 4044 
L 1331 1722 
L 3047 1722 
L 2188 4044 
z
M 1831 4666 
L 2547 4666 
L 4325 0 
L 3669 0 
L 3244 1197 
L 1141 1197 
L 716 0 
L 50 0 
L 1831 4666 
z
" transform="scale(0.015625)"/>
      <path id="DejaVuSans-46" d="M 628 4666 
L 3309 4666 
L 3309 4134 
L 1259 4134 
L 1259 2759 
L 3109 2759 
L 3109 2228 
L 1259 2228 
L 1259 0 
L 628 0 
L 628 4666 
z
" transform="scale(0.015625)"/>
      <path id="DejaVuSans-5a" d="M 359 4666 
L 4025 4666 
L 4025 4184 
L 1075 531 
L 4097 531 
L 4097 0 
L 288 0 
L 288 481 
L 3238 4134 
L 359 4134 
L 359 4666 
z
" transform="scale(0.015625)"/>
     </defs>
     <use xlink:href="#DejaVuSans-48"/>
     <use xlink:href="#DejaVuSans-32" transform="translate(75.195312 0)"/>
     <use xlink:href="#DejaVuSans-41" transform="translate(138.818359 0)"/>
     <use xlink:href="#DejaVuSans-46" transform="translate(207.226562 0)"/>
     <use xlink:href="#DejaVuSans-5a" transform="translate(264.746094 0)"/>
    </g>
   </g>
   <g id="legend_1">
    <g id="patch_7">
     <path d="M 334.210684 147.679025 
L 512.569 147.679025 
Q 514.235 147.679025 514.235 146.013025 
L 514.235 49.031 
Q 514.235 47.365 512.569 47.365 
L 334.210684 47.365 
Q 332.544684 47.365 332.544684 49.031 
L 332.544684 146.013025 
Q 332.544684 147.679025 334.210684 147.679025 
z
" style="fill: #ffffff; opacity: 0.8; stroke: #cccccc; stroke-linejoin: miter"/>
    </g>
    <g id="line2d_20">
     <path d="M 335.876684 54.110998 
L 344.206684 54.110998 
L 352.536684 54.110998 
" style="fill: none; stroke: #1f77b4; stroke-width: 1.5; stroke-linecap: square"/>
    </g>
    <g id="text_15">
     <!-- NT-MS V2 (50M) with rand. weights -->
     <g transform="translate(359.200684 57.026498) scale(0.0833 -0.0833)">
      <defs>
       <path id="DejaVuSans-4e" d="M 628 4666 
L 1478 4666 
L 3547 763 
L 3547 4666 
L 4159 4666 
L 4159 0 
L 3309 0 
L 1241 3903 
L 1241 0 
L 628 0 
L 628 4666 
z
" transform="scale(0.015625)"/>
       <path id="DejaVuSans-2d" d="M 313 2009 
L 1997 2009 
L 1997 1497 
L 313 1497 
L 313 2009 
z
" transform="scale(0.015625)"/>
       <path id="DejaVuSans-4d" d="M 628 4666 
L 1569 4666 
L 2759 1491 
L 3956 4666 
L 4897 4666 
L 4897 0 
L 4281 0 
L 4281 4097 
L 3078 897 
L 2444 897 
L 1241 4097 
L 1241 0 
L 628 0 
L 628 4666 
z
" transform="scale(0.015625)"/>
       <path id="DejaVuSans-53" d="M 3425 4513 
L 3425 3897 
Q 3066 4069 2747 4153 
Q 2428 4238 2131 4238 
Q 1616 4238 1336 4038 
Q 1056 3838 1056 3469 
Q 1056 3159 1242 3001 
Q 1428 2844 1947 2747 
L 2328 2669 
Q 3034 2534 3370 2195 
Q 3706 1856 3706 1288 
Q 3706 609 3251 259 
Q 2797 -91 1919 -91 
Q 1588 -91 1214 -16 
Q 841 59 441 206 
L 441 856 
Q 825 641 1194 531 
Q 1563 422 1919 422 
Q 2459 422 2753 634 
Q 3047 847 3047 1241 
Q 3047 1584 2836 1778 
Q 2625 1972 2144 2069 
L 1759 2144 
Q 1053 2284 737 2584 
Q 422 2884 422 3419 
Q 422 4038 858 4394 
Q 1294 4750 2059 4750 
Q 2388 4750 2728 4690 
Q 3069 4631 3425 4513 
z
" transform="scale(0.015625)"/>
       <path id="DejaVuSans-56" d="M 1831 0 
L 50 4666 
L 709 4666 
L 2188 738 
L 3669 4666 
L 4325 4666 
L 2547 0 
L 1831 0 
z
" transform="scale(0.015625)"/>
       <path id="DejaVuSans-28" d="M 1984 4856 
Q 1566 4138 1362 3434 
Q 1159 2731 1159 2009 
Q 1159 1288 1364 580 
Q 1569 -128 1984 -844 
L 1484 -844 
Q 1016 -109 783 600 
Q 550 1309 550 2009 
Q 550 2706 781 3412 
Q 1013 4119 1484 4856 
L 1984 4856 
z
" transform="scale(0.015625)"/>
       <path id="DejaVuSans-29" d="M 513 4856 
L 1013 4856 
Q 1481 4119 1714 3412 
Q 1947 2706 1947 2009 
Q 1947 1309 1714 600 
Q 1481 -109 1013 -844 
L 513 -844 
Q 928 -128 1133 580 
Q 1338 1288 1338 2009 
Q 1338 2731 1133 3434 
Q 928 4138 513 4856 
z
" transform="scale(0.015625)"/>
       <path id="DejaVuSans-77" d="M 269 3500 
L 844 3500 
L 1563 769 
L 2278 3500 
L 2956 3500 
L 3675 769 
L 4391 3500 
L 4966 3500 
L 4050 0 
L 3372 0 
L 2619 2869 
L 1863 0 
L 1184 0 
L 269 3500 
z
" transform="scale(0.015625)"/>
       <path id="DejaVuSans-68" d="M 3513 2113 
L 3513 0 
L 2938 0 
L 2938 2094 
Q 2938 2591 2744 2837 
Q 2550 3084 2163 3084 
Q 1697 3084 1428 2787 
Q 1159 2491 1159 1978 
L 1159 0 
L 581 0 
L 581 4863 
L 1159 4863 
L 1159 2956 
Q 1366 3272 1645 3428 
Q 1925 3584 2291 3584 
Q 2894 3584 3203 3211 
Q 3513 2838 3513 2113 
z
" transform="scale(0.015625)"/>
       <path id="DejaVuSans-64" d="M 2906 2969 
L 2906 4863 
L 3481 4863 
L 3481 0 
L 2906 0 
L 2906 525 
Q 2725 213 2448 61 
Q 2172 -91 1784 -91 
Q 1150 -91 751 415 
Q 353 922 353 1747 
Q 353 2572 751 3078 
Q 1150 3584 1784 3584 
Q 2172 3584 2448 3432 
Q 2725 3281 2906 2969 
z
M 947 1747 
Q 947 1113 1208 752 
Q 1469 391 1925 391 
Q 2381 391 2643 752 
Q 2906 1113 2906 1747 
Q 2906 2381 2643 2742 
Q 2381 3103 1925 3103 
Q 1469 3103 1208 2742 
Q 947 2381 947 1747 
z
" transform="scale(0.015625)"/>
      </defs>
      <use xlink:href="#DejaVuSans-4e"/>
      <use xlink:href="#DejaVuSans-54" transform="translate(74.804688 0)"/>
      <use xlink:href="#DejaVuSans-2d" transform="translate(126.763672 0)"/>
      <use xlink:href="#DejaVuSans-4d" transform="translate(162.847656 0)"/>
      <use xlink:href="#DejaVuSans-53" transform="translate(249.126953 0)"/>
      <use xlink:href="#DejaVuSans-20" transform="translate(312.603516 0)"/>
      <use xlink:href="#DejaVuSans-56" transform="translate(344.390625 0)"/>
      <use xlink:href="#DejaVuSans-32" transform="translate(412.798828 0)"/>
      <use xlink:href="#DejaVuSans-20" transform="translate(476.421875 0)"/>
      <use xlink:href="#DejaVuSans-28" transform="translate(508.208984 0)"/>
      <use xlink:href="#DejaVuSans-35" transform="translate(547.222656 0)"/>
      <use xlink:href="#DejaVuSans-30" transform="translate(610.845703 0)"/>
      <use xlink:href="#DejaVuSans-4d" transform="translate(674.46875 0)"/>
      <use xlink:href="#DejaVuSans-29" transform="translate(760.748047 0)"/>
      <use xlink:href="#DejaVuSans-20" transform="translate(799.761719 0)"/>
      <use xlink:href="#DejaVuSans-77" transform="translate(831.548828 0)"/>
      <use xlink:href="#DejaVuSans-69" transform="translate(913.335938 0)"/>
      <use xlink:href="#DejaVuSans-74" transform="translate(941.119141 0)"/>
      <use xlink:href="#DejaVuSans-68" transform="translate(980.328125 0)"/>
      <use xlink:href="#DejaVuSans-20" transform="translate(1043.707031 0)"/>
      <use xlink:href="#DejaVuSans-72" transform="translate(1075.494141 0)"/>
      <use xlink:href="#DejaVuSans-61" transform="translate(1116.607422 0)"/>
      <use xlink:href="#DejaVuSans-6e" transform="translate(1177.886719 0)"/>
      <use xlink:href="#DejaVuSans-64" transform="translate(1241.265625 0)"/>
      <use xlink:href="#DejaVuSans-2e" transform="translate(1304.742188 0)"/>
      <use xlink:href="#DejaVuSans-20" transform="translate(1336.529297 0)"/>
      <use xlink:href="#DejaVuSans-77" transform="translate(1368.316406 0)"/>
      <use xlink:href="#DejaVuSans-65" transform="translate(1450.103516 0)"/>
      <use xlink:href="#DejaVuSans-69" transform="translate(1511.626953 0)"/>
      <use xlink:href="#DejaVuSans-67" transform="translate(1539.410156 0)"/>
      <use xlink:href="#DejaVuSans-68" transform="translate(1602.886719 0)"/>
      <use xlink:href="#DejaVuSans-74" transform="translate(1666.265625 0)"/>
      <use xlink:href="#DejaVuSans-73" transform="translate(1705.474609 0)"/>
     </g>
    </g>
    <g id="line2d_21">
     <path d="M 335.876684 66.337877 
L 344.206684 66.337877 
L 352.536684 66.337877 
" style="fill: none; stroke: #ff7f0e; stroke-width: 1.5; stroke-linecap: square"/>
    </g>
    <g id="text_16">
     <!-- NT-MS V2 (500M) with rand. weights -->
     <g transform="translate(359.200684 69.253377) scale(0.0833 -0.0833)">
      <use xlink:href="#DejaVuSans-4e"/>
      <use xlink:href="#DejaVuSans-54" transform="translate(74.804688 0)"/>
      <use xlink:href="#DejaVuSans-2d" transform="translate(126.763672 0)"/>
      <use xlink:href="#DejaVuSans-4d" transform="translate(162.847656 0)"/>
      <use xlink:href="#DejaVuSans-53" transform="translate(249.126953 0)"/>
      <use xlink:href="#DejaVuSans-20" transform="translate(312.603516 0)"/>
      <use xlink:href="#DejaVuSans-56" transform="translate(344.390625 0)"/>
      <use xlink:href="#DejaVuSans-32" transform="translate(412.798828 0)"/>
      <use xlink:href="#DejaVuSans-20" transform="translate(476.421875 0)"/>
      <use xlink:href="#DejaVuSans-28" transform="translate(508.208984 0)"/>
      <use xlink:href="#DejaVuSans-35" transform="translate(547.222656 0)"/>
      <use xlink:href="#DejaVuSans-30" transform="translate(610.845703 0)"/>
      <use xlink:href="#DejaVuSans-30" transform="translate(674.46875 0)"/>
      <use xlink:href="#DejaVuSans-4d" transform="translate(738.091797 0)"/>
      <use xlink:href="#DejaVuSans-29" transform="translate(824.371094 0)"/>
      <use xlink:href="#DejaVuSans-20" transform="translate(863.384766 0)"/>
      <use xlink:href="#DejaVuSans-77" transform="translate(895.171875 0)"/>
      <use xlink:href="#DejaVuSans-69" transform="translate(976.958984 0)"/>
      <use xlink:href="#DejaVuSans-74" transform="translate(1004.742188 0)"/>
      <use xlink:href="#DejaVuSans-68" transform="translate(1043.951172 0)"/>
      <use xlink:href="#DejaVuSans-20" transform="translate(1107.330078 0)"/>
      <use xlink:href="#DejaVuSans-72" transform="translate(1139.117188 0)"/>
      <use xlink:href="#DejaVuSans-61" transform="translate(1180.230469 0)"/>
      <use xlink:href="#DejaVuSans-6e" transform="translate(1241.509766 0)"/>
      <use xlink:href="#DejaVuSans-64" transform="translate(1304.888672 0)"/>
      <use xlink:href="#DejaVuSans-2e" transform="translate(1368.365234 0)"/>
      <use xlink:href="#DejaVuSans-20" transform="translate(1400.152344 0)"/>
      <use xlink:href="#DejaVuSans-77" transform="translate(1431.939453 0)"/>
      <use xlink:href="#DejaVuSans-65" transform="translate(1513.726562 0)"/>
      <use xlink:href="#DejaVuSans-69" transform="translate(1575.25 0)"/>
      <use xlink:href="#DejaVuSans-67" transform="translate(1603.033203 0)"/>
      <use xlink:href="#DejaVuSans-68" transform="translate(1666.509766 0)"/>
      <use xlink:href="#DejaVuSans-74" transform="translate(1729.888672 0)"/>
      <use xlink:href="#DejaVuSans-73" transform="translate(1769.097656 0)"/>
     </g>
    </g>
    <g id="line2d_22">
     <path d="M 335.876684 78.564755 
L 344.206684 78.564755 
L 352.536684 78.564755 
" style="fill: none; stroke: #2ca02c; stroke-width: 1.5; stroke-linecap: square"/>
    </g>
    <g id="text_17">
     <!-- NT-MS V2 (50M) -->
     <g transform="translate(359.200684 81.480255) scale(0.0833 -0.0833)">
      <use xlink:href="#DejaVuSans-4e"/>
      <use xlink:href="#DejaVuSans-54" transform="translate(74.804688 0)"/>
      <use xlink:href="#DejaVuSans-2d" transform="translate(126.763672 0)"/>
      <use xlink:href="#DejaVuSans-4d" transform="translate(162.847656 0)"/>
      <use xlink:href="#DejaVuSans-53" transform="translate(249.126953 0)"/>
      <use xlink:href="#DejaVuSans-20" transform="translate(312.603516 0)"/>
      <use xlink:href="#DejaVuSans-56" transform="translate(344.390625 0)"/>
      <use xlink:href="#DejaVuSans-32" transform="translate(412.798828 0)"/>
      <use xlink:href="#DejaVuSans-20" transform="translate(476.421875 0)"/>
      <use xlink:href="#DejaVuSans-28" transform="translate(508.208984 0)"/>
      <use xlink:href="#DejaVuSans-35" transform="translate(547.222656 0)"/>
      <use xlink:href="#DejaVuSans-30" transform="translate(610.845703 0)"/>
      <use xlink:href="#DejaVuSans-4d" transform="translate(674.46875 0)"/>
      <use xlink:href="#DejaVuSans-29" transform="translate(760.748047 0)"/>
     </g>
    </g>
    <g id="line2d_23">
     <path d="M 335.876684 90.791633 
L 344.206684 90.791633 
L 352.536684 90.791633 
" style="fill: none; stroke: #d62728; stroke-width: 1.5; stroke-linecap: square"/>
    </g>
    <g id="text_18">
     <!-- NT-1000g (500M) -->
     <g transform="translate(359.200684 93.707133) scale(0.0833 -0.0833)">
      <use xlink:href="#DejaVuSans-4e"/>
      <use xlink:href="#DejaVuSans-54" transform="translate(74.804688 0)"/>
      <use xlink:href="#DejaVuSans-2d" transform="translate(126.763672 0)"/>
      <use xlink:href="#DejaVuSans-31" transform="translate(162.847656 0)"/>
      <use xlink:href="#DejaVuSans-30" transform="translate(226.470703 0)"/>
      <use xlink:href="#DejaVuSans-30" transform="translate(290.09375 0)"/>
      <use xlink:href="#DejaVuSans-30" transform="translate(353.716797 0)"/>
      <use xlink:href="#DejaVuSans-67" transform="translate(417.339844 0)"/>
      <use xlink:href="#DejaVuSans-20" transform="translate(480.816406 0)"/>
      <use xlink:href="#DejaVuSans-28" transform="translate(512.603516 0)"/>
      <use xlink:href="#DejaVuSans-35" transform="translate(551.617188 0)"/>
      <use xlink:href="#DejaVuSans-30" transform="translate(615.240234 0)"/>
      <use xlink:href="#DejaVuSans-30" transform="translate(678.863281 0)"/>
      <use xlink:href="#DejaVuSans-4d" transform="translate(742.486328 0)"/>
      <use xlink:href="#DejaVuSans-29" transform="translate(828.765625 0)"/>
     </g>
    </g>
    <g id="line2d_24">
     <path d="M 335.876684 103.018511 
L 344.206684 103.018511 
L 352.536684 103.018511 
" style="fill: none; stroke: #9467bd; stroke-width: 1.5; stroke-linecap: square"/>
    </g>
    <g id="text_19">
     <!-- NT-MS V2 (250M) -->
     <g transform="translate(359.200684 105.934011) scale(0.0833 -0.0833)">
      <use xlink:href="#DejaVuSans-4e"/>
      <use xlink:href="#DejaVuSans-54" transform="translate(74.804688 0)"/>
      <use xlink:href="#DejaVuSans-2d" transform="translate(126.763672 0)"/>
      <use xlink:href="#DejaVuSans-4d" transform="translate(162.847656 0)"/>
      <use xlink:href="#DejaVuSans-53" transform="translate(249.126953 0)"/>
      <use xlink:href="#DejaVuSans-20" transform="translate(312.603516 0)"/>
      <use xlink:href="#DejaVuSans-56" transform="translate(344.390625 0)"/>
      <use xlink:href="#DejaVuSans-32" transform="translate(412.798828 0)"/>
      <use xlink:href="#DejaVuSans-20" transform="translate(476.421875 0)"/>
      <use xlink:href="#DejaVuSans-28" transform="translate(508.208984 0)"/>
      <use xlink:href="#DejaVuSans-32" transform="translate(547.222656 0)"/>
      <use xlink:href="#DejaVuSans-35" transform="translate(610.845703 0)"/>
      <use xlink:href="#DejaVuSans-30" transform="translate(674.46875 0)"/>
      <use xlink:href="#DejaVuSans-4d" transform="translate(738.091797 0)"/>
      <use xlink:href="#DejaVuSans-29" transform="translate(824.371094 0)"/>
     </g>
    </g>
    <g id="line2d_25">
     <path d="M 335.876684 115.245389 
L 344.206684 115.245389 
L 352.536684 115.245389 
" style="fill: none; stroke: #8c564b; stroke-width: 1.5; stroke-linecap: square"/>
    </g>
    <g id="text_20">
     <!-- NT-MS V2 (100M) -->
     <g transform="translate(359.200684 118.160889) scale(0.0833 -0.0833)">
      <use xlink:href="#DejaVuSans-4e"/>
      <use xlink:href="#DejaVuSans-54" transform="translate(74.804688 0)"/>
      <use xlink:href="#DejaVuSans-2d" transform="translate(126.763672 0)"/>
      <use xlink:href="#DejaVuSans-4d" transform="translate(162.847656 0)"/>
      <use xlink:href="#DejaVuSans-53" transform="translate(249.126953 0)"/>
      <use xlink:href="#DejaVuSans-20" transform="translate(312.603516 0)"/>
      <use xlink:href="#DejaVuSans-56" transform="translate(344.390625 0)"/>
      <use xlink:href="#DejaVuSans-32" transform="translate(412.798828 0)"/>
      <use xlink:href="#DejaVuSans-20" transform="translate(476.421875 0)"/>
      <use xlink:href="#DejaVuSans-28" transform="translate(508.208984 0)"/>
      <use xlink:href="#DejaVuSans-31" transform="translate(547.222656 0)"/>
      <use xlink:href="#DejaVuSans-30" transform="translate(610.845703 0)"/>
      <use xlink:href="#DejaVuSans-30" transform="translate(674.46875 0)"/>
      <use xlink:href="#DejaVuSans-4d" transform="translate(738.091797 0)"/>
      <use xlink:href="#DejaVuSans-29" transform="translate(824.371094 0)"/>
     </g>
    </g>
    <g id="line2d_26">
     <path d="M 335.876684 127.472267 
L 344.206684 127.472267 
L 352.536684 127.472267 
" style="fill: none; stroke: #e377c2; stroke-width: 1.5; stroke-linecap: square"/>
    </g>
    <g id="text_21">
     <!-- NT-Human-Ref. (500M) -->
     <g transform="translate(359.200684 130.387767) scale(0.0833 -0.0833)">
      <defs>
       <path id="DejaVuSans-75" d="M 544 1381 
L 544 3500 
L 1119 3500 
L 1119 1403 
Q 1119 906 1312 657 
Q 1506 409 1894 409 
Q 2359 409 2629 706 
Q 2900 1003 2900 1516 
L 2900 3500 
L 3475 3500 
L 3475 0 
L 2900 0 
L 2900 538 
Q 2691 219 2414 64 
Q 2138 -91 1772 -91 
Q 1169 -91 856 284 
Q 544 659 544 1381 
z
M 1991 3584 
L 1991 3584 
z
" transform="scale(0.015625)"/>
       <path id="DejaVuSans-6d" d="M 3328 2828 
Q 3544 3216 3844 3400 
Q 4144 3584 4550 3584 
Q 5097 3584 5394 3201 
Q 5691 2819 5691 2113 
L 5691 0 
L 5113 0 
L 5113 2094 
Q 5113 2597 4934 2840 
Q 4756 3084 4391 3084 
Q 3944 3084 3684 2787 
Q 3425 2491 3425 1978 
L 3425 0 
L 2847 0 
L 2847 2094 
Q 2847 2600 2669 2842 
Q 2491 3084 2119 3084 
Q 1678 3084 1418 2786 
Q 1159 2488 1159 1978 
L 1159 0 
L 581 0 
L 581 3500 
L 1159 3500 
L 1159 2956 
Q 1356 3278 1631 3431 
Q 1906 3584 2284 3584 
Q 2666 3584 2933 3390 
Q 3200 3197 3328 2828 
z
" transform="scale(0.015625)"/>
       <path id="DejaVuSans-52" d="M 2841 2188 
Q 3044 2119 3236 1894 
Q 3428 1669 3622 1275 
L 4263 0 
L 3584 0 
L 2988 1197 
Q 2756 1666 2539 1819 
Q 2322 1972 1947 1972 
L 1259 1972 
L 1259 0 
L 628 0 
L 628 4666 
L 2053 4666 
Q 2853 4666 3247 4331 
Q 3641 3997 3641 3322 
Q 3641 2881 3436 2590 
Q 3231 2300 2841 2188 
z
M 1259 4147 
L 1259 2491 
L 2053 2491 
Q 2509 2491 2742 2702 
Q 2975 2913 2975 3322 
Q 2975 3731 2742 3939 
Q 2509 4147 2053 4147 
L 1259 4147 
z
" transform="scale(0.015625)"/>
       <path id="DejaVuSans-66" d="M 2375 4863 
L 2375 4384 
L 1825 4384 
Q 1516 4384 1395 4259 
Q 1275 4134 1275 3809 
L 1275 3500 
L 2222 3500 
L 2222 3053 
L 1275 3053 
L 1275 0 
L 697 0 
L 697 3053 
L 147 3053 
L 147 3500 
L 697 3500 
L 697 3744 
Q 697 4328 969 4595 
Q 1241 4863 1831 4863 
L 2375 4863 
z
" transform="scale(0.015625)"/>
      </defs>
      <use xlink:href="#DejaVuSans-4e"/>
      <use xlink:href="#DejaVuSans-54" transform="translate(74.804688 0)"/>
      <use xlink:href="#DejaVuSans-2d" transform="translate(126.763672 0)"/>
      <use xlink:href="#DejaVuSans-48" transform="translate(162.847656 0)"/>
      <use xlink:href="#DejaVuSans-75" transform="translate(238.042969 0)"/>
      <use xlink:href="#DejaVuSans-6d" transform="translate(301.421875 0)"/>
      <use xlink:href="#DejaVuSans-61" transform="translate(398.833984 0)"/>
      <use xlink:href="#DejaVuSans-6e" transform="translate(460.113281 0)"/>
      <use xlink:href="#DejaVuSans-2d" transform="translate(523.492188 0)"/>
      <use xlink:href="#DejaVuSans-52" transform="translate(559.576172 0)"/>
      <use xlink:href="#DejaVuSans-65" transform="translate(624.558594 0)"/>
      <use xlink:href="#DejaVuSans-66" transform="translate(686.082031 0)"/>
      <use xlink:href="#DejaVuSans-2e" transform="translate(714.037109 0)"/>
      <use xlink:href="#DejaVuSans-20" transform="translate(745.824219 0)"/>
      <use xlink:href="#DejaVuSans-28" transform="translate(777.611328 0)"/>
      <use xlink:href="#DejaVuSans-35" transform="translate(816.625 0)"/>
      <use xlink:href="#DejaVuSans-30" transform="translate(880.248047 0)"/>
      <use xlink:href="#DejaVuSans-30" transform="translate(943.871094 0)"/>
      <use xlink:href="#DejaVuSans-4d" transform="translate(1007.494141 0)"/>
      <use xlink:href="#DejaVuSans-29" transform="translate(1093.773438 0)"/>
     </g>
    </g>
    <g id="line2d_27">
     <path d="M 335.876684 139.699145 
L 344.206684 139.699145 
L 352.536684 139.699145 
" style="fill: none; stroke: #7f7f7f; stroke-width: 1.5; stroke-linecap: square"/>
    </g>
    <g id="text_22">
     <!-- NT-MS V2 (500M) -->
     <g transform="translate(359.200684 142.614645) scale(0.0833 -0.0833)">
      <use xlink:href="#DejaVuSans-4e"/>
      <use xlink:href="#DejaVuSans-54" transform="translate(74.804688 0)"/>
      <use xlink:href="#DejaVuSans-2d" transform="translate(126.763672 0)"/>
      <use xlink:href="#DejaVuSans-4d" transform="translate(162.847656 0)"/>
      <use xlink:href="#DejaVuSans-53" transform="translate(249.126953 0)"/>
      <use xlink:href="#DejaVuSans-20" transform="translate(312.603516 0)"/>
      <use xlink:href="#DejaVuSans-56" transform="translate(344.390625 0)"/>
      <use xlink:href="#DejaVuSans-32" transform="translate(412.798828 0)"/>
      <use xlink:href="#DejaVuSans-20" transform="translate(476.421875 0)"/>
      <use xlink:href="#DejaVuSans-28" transform="translate(508.208984 0)"/>
      <use xlink:href="#DejaVuSans-35" transform="translate(547.222656 0)"/>
      <use xlink:href="#DejaVuSans-30" transform="translate(610.845703 0)"/>
      <use xlink:href="#DejaVuSans-30" transform="translate(674.46875 0)"/>
      <use xlink:href="#DejaVuSans-4d" transform="translate(738.091797 0)"/>
      <use xlink:href="#DejaVuSans-29" transform="translate(824.371094 0)"/>
     </g>
    </g>
   </g>
  </g>
 </g>
 <defs>
  <clipPath id="p6b0ca546bc">
   <rect x="72" y="43.2" width="446.4" height="277.2"/>
  </clipPath>
 </defs>
</svg>
