<?xml version="1.0" encoding="utf-8" standalone="no"?>
<!DOCTYPE svg PUBLIC "-//W3C//DTD SVG 1.1//EN"
  "http://www.w3.org/Graphics/SVG/1.1/DTD/svg11.dtd">
<svg xmlns:xlink="http://www.w3.org/1999/xlink" width="576pt" height="360pt" viewBox="0 0 576 360" xmlns="http://www.w3.org/2000/svg" version="1.1">
 <metadata>
  <rdf:RDF xmlns:dc="http://purl.org/dc/elements/1.1/" xmlns:cc="http://creativecommons.org/ns#" xmlns:rdf="http://www.w3.org/1999/02/22-rdf-syntax-ns#">
   <cc:Work>
    <dc:type rdf:resource="http://purl.org/dc/dcmitype/StillImage"/>
    <dc:date>2025-01-07T03:55:02.064784</dc:date>
    <dc:format>image/svg+xml</dc:format>
    <dc:creator>
     <cc:Agent>
      <dc:title>Matplotlib v3.10.0, https://matplotlib.org/</dc:title>
     </cc:Agent>
    </dc:creator>
   </cc:Work>
  </rdf:RDF>
 </metadata>
 <defs>
  <style type="text/css">*{stroke-linejoin: round; stroke-linecap: butt}</style>
 </defs>
 <g id="figure_1">
  <g id="patch_1">
   <path d="M 0 360 
L 576 360 
L 576 0 
L 0 0 
z
" style="fill: #ffffff"/>
  </g>
  <g id="axes_1">
   <g id="patch_2">
    <path d="M 72 320.4 
L 518.4 320.4 
L 518.4 43.2 
L 72 43.2 
z
" style="fill: #ffffff"/>
   </g>
   <g id="matplotlib.axis_1">
    <g id="xtick_1">
     <g id="line2d_1">
      <defs>
       <path id="m00eb11532f" d="M 0 0 
L 0 3.5 
" style="stroke: #000000; stroke-width: 0.8"/>
      </defs>
      <g>
       <use xlink:href="#m00eb11532f" x="157.672727" y="320.4" style="stroke: #000000; stroke-width: 0.8"/>
      </g>
     </g>
     <g id="text_1">
      <!-- 2000 -->
      <g transform="translate(144.947727 334.998438) scale(0.1 -0.1)">
       <defs>
        <path id="DejaVuSans-32" d="M 1228 531 
L 3431 531 
L 3431 0 
L 469 0 
L 469 531 
Q 828 903 1448 1529 
Q 2069 2156 2228 2338 
Q 2531 2678 2651 2914 
Q 2772 3150 2772 3378 
Q 2772 3750 2511 3984 
Q 2250 4219 1831 4219 
Q 1534 4219 1204 4116 
Q 875 4013 500 3803 
L 500 4441 
Q 881 4594 1212 4672 
Q 1544 4750 1819 4750 
Q 2544 4750 2975 4387 
Q 3406 4025 3406 3419 
Q 3406 3131 3298 2873 
Q 3191 2616 2906 2266 
Q 2828 2175 2409 1742 
Q 1991 1309 1228 531 
z
" transform="scale(0.015625)"/>
        <path id="DejaVuSans-30" d="M 2034 4250 
Q 1547 4250 1301 3770 
Q 1056 3291 1056 2328 
Q 1056 1369 1301 889 
Q 1547 409 2034 409 
Q 2525 409 2770 889 
Q 3016 1369 3016 2328 
Q 3016 3291 2770 3770 
Q 2525 4250 2034 4250 
z
M 2034 4750 
Q 2819 4750 3233 4129 
Q 3647 3509 3647 2328 
Q 3647 1150 3233 529 
Q 2819 -91 2034 -91 
Q 1250 -91 836 529 
Q 422 1150 422 2328 
Q 422 3509 836 4129 
Q 1250 4750 2034 4750 
z
" transform="scale(0.015625)"/>
       </defs>
       <use xlink:href="#DejaVuSans-32"/>
       <use xlink:href="#DejaVuSans-30" transform="translate(63.623047 0)"/>
       <use xlink:href="#DejaVuSans-30" transform="translate(127.246094 0)"/>
       <use xlink:href="#DejaVuSans-30" transform="translate(190.869141 0)"/>
      </g>
     </g>
    </g>
    <g id="xtick_2">
     <g id="line2d_2">
      <g>
       <use xlink:href="#m00eb11532f" x="247.854545" y="320.4" style="stroke: #000000; stroke-width: 0.8"/>
      </g>
     </g>
     <g id="text_2">
      <!-- 4000 -->
      <g transform="translate(235.129545 334.998438) scale(0.1 -0.1)">
       <defs>
        <path id="DejaVuSans-34" d="M 2419 4116 
L 825 1625 
L 2419 1625 
L 2419 4116 
z
M 2253 4666 
L 3047 4666 
L 3047 1625 
L 3713 1625 
L 3713 1100 
L 3047 1100 
L 3047 0 
L 2419 0 
L 2419 1100 
L 313 1100 
L 313 1709 
L 2253 4666 
z
" transform="scale(0.015625)"/>
       </defs>
       <use xlink:href="#DejaVuSans-34"/>
       <use xlink:href="#DejaVuSans-30" transform="translate(63.623047 0)"/>
       <use xlink:href="#DejaVuSans-30" transform="translate(127.246094 0)"/>
       <use xlink:href="#DejaVuSans-30" transform="translate(190.869141 0)"/>
      </g>
     </g>
    </g>
    <g id="xtick_3">
     <g id="line2d_3">
      <g>
       <use xlink:href="#m00eb11532f" x="338.036364" y="320.4" style="stroke: #000000; stroke-width: 0.8"/>
      </g>
     </g>
     <g id="text_3">
      <!-- 6000 -->
      <g transform="translate(325.311364 334.998438) scale(0.1 -0.1)">
       <defs>
        <path id="DejaVuSans-36" d="M 2113 2584 
Q 1688 2584 1439 2293 
Q 1191 2003 1191 1497 
Q 1191 994 1439 701 
Q 1688 409 2113 409 
Q 2538 409 2786 701 
Q 3034 994 3034 1497 
Q 3034 2003 2786 2293 
Q 2538 2584 2113 2584 
z
M 3366 4563 
L 3366 3988 
Q 3128 4100 2886 4159 
Q 2644 4219 2406 4219 
Q 1781 4219 1451 3797 
Q 1122 3375 1075 2522 
Q 1259 2794 1537 2939 
Q 1816 3084 2150 3084 
Q 2853 3084 3261 2657 
Q 3669 2231 3669 1497 
Q 3669 778 3244 343 
Q 2819 -91 2113 -91 
Q 1303 -91 875 529 
Q 447 1150 447 2328 
Q 447 3434 972 4092 
Q 1497 4750 2381 4750 
Q 2619 4750 2861 4703 
Q 3103 4656 3366 4563 
z
" transform="scale(0.015625)"/>
       </defs>
       <use xlink:href="#DejaVuSans-36"/>
       <use xlink:href="#DejaVuSans-30" transform="translate(63.623047 0)"/>
       <use xlink:href="#DejaVuSans-30" transform="translate(127.246094 0)"/>
       <use xlink:href="#DejaVuSans-30" transform="translate(190.869141 0)"/>
      </g>
     </g>
    </g>
    <g id="xtick_4">
     <g id="line2d_4">
      <g>
       <use xlink:href="#m00eb11532f" x="428.218182" y="320.4" style="stroke: #000000; stroke-width: 0.8"/>
      </g>
     </g>
     <g id="text_4">
      <!-- 8000 -->
      <g transform="translate(415.493182 334.998438) scale(0.1 -0.1)">
       <defs>
        <path id="DejaVuSans-38" d="M 2034 2216 
Q 1584 2216 1326 1975 
Q 1069 1734 1069 1313 
Q 1069 891 1326 650 
Q 1584 409 2034 409 
Q 2484 409 2743 651 
Q 3003 894 3003 1313 
Q 3003 1734 2745 1975 
Q 2488 2216 2034 2216 
z
M 1403 2484 
Q 997 2584 770 2862 
Q 544 3141 544 3541 
Q 544 4100 942 4425 
Q 1341 4750 2034 4750 
Q 2731 4750 3128 4425 
Q 3525 4100 3525 3541 
Q 3525 3141 3298 2862 
Q 3072 2584 2669 2484 
Q 3125 2378 3379 2068 
Q 3634 1759 3634 1313 
Q 3634 634 3220 271 
Q 2806 -91 2034 -91 
Q 1263 -91 848 271 
Q 434 634 434 1313 
Q 434 1759 690 2068 
Q 947 2378 1403 2484 
z
M 1172 3481 
Q 1172 3119 1398 2916 
Q 1625 2713 2034 2713 
Q 2441 2713 2670 2916 
Q 2900 3119 2900 3481 
Q 2900 3844 2670 4047 
Q 2441 4250 2034 4250 
Q 1625 4250 1398 4047 
Q 1172 3844 1172 3481 
z
" transform="scale(0.015625)"/>
       </defs>
       <use xlink:href="#DejaVuSans-38"/>
       <use xlink:href="#DejaVuSans-30" transform="translate(63.623047 0)"/>
       <use xlink:href="#DejaVuSans-30" transform="translate(127.246094 0)"/>
       <use xlink:href="#DejaVuSans-30" transform="translate(190.869141 0)"/>
      </g>
     </g>
    </g>
    <g id="xtick_5">
     <g id="line2d_5">
      <g>
       <use xlink:href="#m00eb11532f" x="518.4" y="320.4" style="stroke: #000000; stroke-width: 0.8"/>
      </g>
     </g>
     <g id="text_5">
      <!-- 10000 -->
      <g transform="translate(502.49375 334.998438) scale(0.1 -0.1)">
       <defs>
        <path id="DejaVuSans-31" d="M 794 531 
L 1825 531 
L 1825 4091 
L 703 3866 
L 703 4441 
L 1819 4666 
L 2450 4666 
L 2450 531 
L 3481 531 
L 3481 0 
L 794 0 
L 794 531 
z
" transform="scale(0.015625)"/>
       </defs>
       <use xlink:href="#DejaVuSans-31"/>
       <use xlink:href="#DejaVuSans-30" transform="translate(63.623047 0)"/>
       <use xlink:href="#DejaVuSans-30" transform="translate(127.246094 0)"/>
       <use xlink:href="#DejaVuSans-30" transform="translate(190.869141 0)"/>
       <use xlink:href="#DejaVuSans-30" transform="translate(254.492188 0)"/>
      </g>
     </g>
    </g>
    <g id="text_6">
     <!-- Training steps -->
     <g transform="translate(260.464844 348.676562) scale(0.1 -0.1)">
      <defs>
       <path id="DejaVuSans-54" d="M -19 4666 
L 3928 4666 
L 3928 4134 
L 2272 4134 
L 2272 0 
L 1638 0 
L 1638 4134 
L -19 4134 
L -19 4666 
z
" transform="scale(0.015625)"/>
       <path id="DejaVuSans-72" d="M 2631 2963 
Q 2534 3019 2420 3045 
Q 2306 3072 2169 3072 
Q 1681 3072 1420 2755 
Q 1159 2438 1159 1844 
L 1159 0 
L 581 0 
L 581 3500 
L 1159 3500 
L 1159 2956 
Q 1341 3275 1631 3429 
Q 1922 3584 2338 3584 
Q 2397 3584 2469 3576 
Q 2541 3569 2628 3553 
L 2631 2963 
z
" transform="scale(0.015625)"/>
       <path id="DejaVuSans-61" d="M 2194 1759 
Q 1497 1759 1228 1600 
Q 959 1441 959 1056 
Q 959 750 1161 570 
Q 1363 391 1709 391 
Q 2188 391 2477 730 
Q 2766 1069 2766 1631 
L 2766 1759 
L 2194 1759 
z
M 3341 1997 
L 3341 0 
L 2766 0 
L 2766 531 
Q 2569 213 2275 61 
Q 1981 -91 1556 -91 
Q 1019 -91 701 211 
Q 384 513 384 1019 
Q 384 1609 779 1909 
Q 1175 2209 1959 2209 
L 2766 2209 
L 2766 2266 
Q 2766 2663 2505 2880 
Q 2244 3097 1772 3097 
Q 1472 3097 1187 3025 
Q 903 2953 641 2809 
L 641 3341 
Q 956 3463 1253 3523 
Q 1550 3584 1831 3584 
Q 2591 3584 2966 3190 
Q 3341 2797 3341 1997 
z
" transform="scale(0.015625)"/>
       <path id="DejaVuSans-69" d="M 603 3500 
L 1178 3500 
L 1178 0 
L 603 0 
L 603 3500 
z
M 603 4863 
L 1178 4863 
L 1178 4134 
L 603 4134 
L 603 4863 
z
" transform="scale(0.015625)"/>
       <path id="DejaVuSans-6e" d="M 3513 2113 
L 3513 0 
L 2938 0 
L 2938 2094 
Q 2938 2591 2744 2837 
Q 2550 3084 2163 3084 
Q 1697 3084 1428 2787 
Q 1159 2491 1159 1978 
L 1159 0 
L 581 0 
L 581 3500 
L 1159 3500 
L 1159 2956 
Q 1366 3272 1645 3428 
Q 1925 3584 2291 3584 
Q 2894 3584 3203 3211 
Q 3513 2838 3513 2113 
z
" transform="scale(0.015625)"/>
       <path id="DejaVuSans-67" d="M 2906 1791 
Q 2906 2416 2648 2759 
Q 2391 3103 1925 3103 
Q 1463 3103 1205 2759 
Q 947 2416 947 1791 
Q 947 1169 1205 825 
Q 1463 481 1925 481 
Q 2391 481 2648 825 
Q 2906 1169 2906 1791 
z
M 3481 434 
Q 3481 -459 3084 -895 
Q 2688 -1331 1869 -1331 
Q 1566 -1331 1297 -1286 
Q 1028 -1241 775 -1147 
L 775 -588 
Q 1028 -725 1275 -790 
Q 1522 -856 1778 -856 
Q 2344 -856 2625 -561 
Q 2906 -266 2906 331 
L 2906 616 
Q 2728 306 2450 153 
Q 2172 0 1784 0 
Q 1141 0 747 490 
Q 353 981 353 1791 
Q 353 2603 747 3093 
Q 1141 3584 1784 3584 
Q 2172 3584 2450 3431 
Q 2728 3278 2906 2969 
L 2906 3500 
L 3481 3500 
L 3481 434 
z
" transform="scale(0.015625)"/>
       <path id="DejaVuSans-20" transform="scale(0.015625)"/>
       <path id="DejaVuSans-73" d="M 2834 3397 
L 2834 2853 
Q 2591 2978 2328 3040 
Q 2066 3103 1784 3103 
Q 1356 3103 1142 2972 
Q 928 2841 928 2578 
Q 928 2378 1081 2264 
Q 1234 2150 1697 2047 
L 1894 2003 
Q 2506 1872 2764 1633 
Q 3022 1394 3022 966 
Q 3022 478 2636 193 
Q 2250 -91 1575 -91 
Q 1294 -91 989 -36 
Q 684 19 347 128 
L 347 722 
Q 666 556 975 473 
Q 1284 391 1588 391 
Q 1994 391 2212 530 
Q 2431 669 2431 922 
Q 2431 1156 2273 1281 
Q 2116 1406 1581 1522 
L 1381 1569 
Q 847 1681 609 1914 
Q 372 2147 372 2553 
Q 372 3047 722 3315 
Q 1072 3584 1716 3584 
Q 2034 3584 2315 3537 
Q 2597 3491 2834 3397 
z
" transform="scale(0.015625)"/>
       <path id="DejaVuSans-74" d="M 1172 4494 
L 1172 3500 
L 2356 3500 
L 2356 3053 
L 1172 3053 
L 1172 1153 
Q 1172 725 1289 603 
Q 1406 481 1766 481 
L 2356 481 
L 2356 0 
L 1766 0 
Q 1100 0 847 248 
Q 594 497 594 1153 
L 594 3053 
L 172 3053 
L 172 3500 
L 594 3500 
L 594 4494 
L 1172 4494 
z
" transform="scale(0.015625)"/>
       <path id="DejaVuSans-65" d="M 3597 1894 
L 3597 1613 
L 953 1613 
Q 991 1019 1311 708 
Q 1631 397 2203 397 
Q 2534 397 2845 478 
Q 3156 559 3463 722 
L 3463 178 
Q 3153 47 2828 -22 
Q 2503 -91 2169 -91 
Q 1331 -91 842 396 
Q 353 884 353 1716 
Q 353 2575 817 3079 
Q 1281 3584 2069 3584 
Q 2775 3584 3186 3129 
Q 3597 2675 3597 1894 
z
M 3022 2063 
Q 3016 2534 2758 2815 
Q 2500 3097 2075 3097 
Q 1594 3097 1305 2825 
Q 1016 2553 972 2059 
L 3022 2063 
z
" transform="scale(0.015625)"/>
       <path id="DejaVuSans-70" d="M 1159 525 
L 1159 -1331 
L 581 -1331 
L 581 3500 
L 1159 3500 
L 1159 2969 
Q 1341 3281 1617 3432 
Q 1894 3584 2278 3584 
Q 2916 3584 3314 3078 
Q 3713 2572 3713 1747 
Q 3713 922 3314 415 
Q 2916 -91 2278 -91 
Q 1894 -91 1617 61 
Q 1341 213 1159 525 
z
M 3116 1747 
Q 3116 2381 2855 2742 
Q 2594 3103 2138 3103 
Q 1681 3103 1420 2742 
Q 1159 2381 1159 1747 
Q 1159 1113 1420 752 
Q 1681 391 2138 391 
Q 2594 391 2855 752 
Q 3116 1113 3116 1747 
z
" transform="scale(0.015625)"/>
      </defs>
      <use xlink:href="#DejaVuSans-54"/>
      <use xlink:href="#DejaVuSans-72" transform="translate(46.333984 0)"/>
      <use xlink:href="#DejaVuSans-61" transform="translate(87.447266 0)"/>
      <use xlink:href="#DejaVuSans-69" transform="translate(148.726562 0)"/>
      <use xlink:href="#DejaVuSans-6e" transform="translate(176.509766 0)"/>
      <use xlink:href="#DejaVuSans-69" transform="translate(239.888672 0)"/>
      <use xlink:href="#DejaVuSans-6e" transform="translate(267.671875 0)"/>
      <use xlink:href="#DejaVuSans-67" transform="translate(331.050781 0)"/>
      <use xlink:href="#DejaVuSans-20" transform="translate(394.527344 0)"/>
      <use xlink:href="#DejaVuSans-73" transform="translate(426.314453 0)"/>
      <use xlink:href="#DejaVuSans-74" transform="translate(478.414062 0)"/>
      <use xlink:href="#DejaVuSans-65" transform="translate(517.623047 0)"/>
      <use xlink:href="#DejaVuSans-70" transform="translate(579.146484 0)"/>
      <use xlink:href="#DejaVuSans-73" transform="translate(642.623047 0)"/>
     </g>
    </g>
   </g>
   <g id="matplotlib.axis_2">
    <g id="ytick_1">
     <g id="line2d_6">
      <defs>
       <path id="mfdb5e0e6fd" d="M 0 0 
L -3.5 0 
" style="stroke: #000000; stroke-width: 0.8"/>
      </defs>
      <g>
       <use xlink:href="#mfdb5e0e6fd" x="72" y="278.142038" style="stroke: #000000; stroke-width: 0.8"/>
      </g>
     </g>
     <g id="text_7">
      <!-- 0.4 -->
      <g transform="translate(49.096875 281.941256) scale(0.1 -0.1)">
       <defs>
        <path id="DejaVuSans-2e" d="M 684 794 
L 1344 794 
L 1344 0 
L 684 0 
L 684 794 
z
" transform="scale(0.015625)"/>
       </defs>
       <use xlink:href="#DejaVuSans-30"/>
       <use xlink:href="#DejaVuSans-2e" transform="translate(63.623047 0)"/>
       <use xlink:href="#DejaVuSans-34" transform="translate(95.410156 0)"/>
      </g>
     </g>
    </g>
    <g id="ytick_2">
     <g id="line2d_7">
      <g>
       <use xlink:href="#mfdb5e0e6fd" x="72" y="231.801471" style="stroke: #000000; stroke-width: 0.8"/>
      </g>
     </g>
     <g id="text_8">
      <!-- 0.5 -->
      <g transform="translate(49.096875 235.60069) scale(0.1 -0.1)">
       <defs>
        <path id="DejaVuSans-35" d="M 691 4666 
L 3169 4666 
L 3169 4134 
L 1269 4134 
L 1269 2991 
Q 1406 3038 1543 3061 
Q 1681 3084 1819 3084 
Q 2600 3084 3056 2656 
Q 3513 2228 3513 1497 
Q 3513 744 3044 326 
Q 2575 -91 1722 -91 
Q 1428 -91 1123 -41 
Q 819 9 494 109 
L 494 744 
Q 775 591 1075 516 
Q 1375 441 1709 441 
Q 2250 441 2565 725 
Q 2881 1009 2881 1497 
Q 2881 1984 2565 2268 
Q 2250 2553 1709 2553 
Q 1456 2553 1204 2497 
Q 953 2441 691 2322 
L 691 4666 
z
" transform="scale(0.015625)"/>
       </defs>
       <use xlink:href="#DejaVuSans-30"/>
       <use xlink:href="#DejaVuSans-2e" transform="translate(63.623047 0)"/>
       <use xlink:href="#DejaVuSans-35" transform="translate(95.410156 0)"/>
      </g>
     </g>
    </g>
    <g id="ytick_3">
     <g id="line2d_8">
      <g>
       <use xlink:href="#mfdb5e0e6fd" x="72" y="185.460905" style="stroke: #000000; stroke-width: 0.8"/>
      </g>
     </g>
     <g id="text_9">
      <!-- 0.6 -->
      <g transform="translate(49.096875 189.260123) scale(0.1 -0.1)">
       <use xlink:href="#DejaVuSans-30"/>
       <use xlink:href="#DejaVuSans-2e" transform="translate(63.623047 0)"/>
       <use xlink:href="#DejaVuSans-36" transform="translate(95.410156 0)"/>
      </g>
     </g>
    </g>
    <g id="ytick_4">
     <g id="line2d_9">
      <g>
       <use xlink:href="#mfdb5e0e6fd" x="72" y="139.120338" style="stroke: #000000; stroke-width: 0.8"/>
      </g>
     </g>
     <g id="text_10">
      <!-- 0.7 -->
      <g transform="translate(49.096875 142.919557) scale(0.1 -0.1)">
       <defs>
        <path id="DejaVuSans-37" d="M 525 4666 
L 3525 4666 
L 3525 4397 
L 1831 0 
L 1172 0 
L 2766 4134 
L 525 4134 
L 525 4666 
z
" transform="scale(0.015625)"/>
       </defs>
       <use xlink:href="#DejaVuSans-30"/>
       <use xlink:href="#DejaVuSans-2e" transform="translate(63.623047 0)"/>
       <use xlink:href="#DejaVuSans-37" transform="translate(95.410156 0)"/>
      </g>
     </g>
    </g>
    <g id="ytick_5">
     <g id="line2d_10">
      <g>
       <use xlink:href="#mfdb5e0e6fd" x="72" y="92.779772" style="stroke: #000000; stroke-width: 0.8"/>
      </g>
     </g>
     <g id="text_11">
      <!-- 0.8 -->
      <g transform="translate(49.096875 96.578991) scale(0.1 -0.1)">
       <use xlink:href="#DejaVuSans-30"/>
       <use xlink:href="#DejaVuSans-2e" transform="translate(63.623047 0)"/>
       <use xlink:href="#DejaVuSans-38" transform="translate(95.410156 0)"/>
      </g>
     </g>
    </g>
    <g id="ytick_6">
     <g id="line2d_11">
      <g>
       <use xlink:href="#mfdb5e0e6fd" x="72" y="46.439206" style="stroke: #000000; stroke-width: 0.8"/>
      </g>
     </g>
     <g id="text_12">
      <!-- 0.9 -->
      <g transform="translate(49.096875 50.238424) scale(0.1 -0.1)">
       <defs>
        <path id="DejaVuSans-39" d="M 703 97 
L 703 672 
Q 941 559 1184 500 
Q 1428 441 1663 441 
Q 2288 441 2617 861 
Q 2947 1281 2994 2138 
Q 2813 1869 2534 1725 
Q 2256 1581 1919 1581 
Q 1219 1581 811 2004 
Q 403 2428 403 3163 
Q 403 3881 828 4315 
Q 1253 4750 1959 4750 
Q 2769 4750 3195 4129 
Q 3622 3509 3622 2328 
Q 3622 1225 3098 567 
Q 2575 -91 1691 -91 
Q 1453 -91 1209 -44 
Q 966 3 703 97 
z
M 1959 2075 
Q 2384 2075 2632 2365 
Q 2881 2656 2881 3163 
Q 2881 3666 2632 3958 
Q 2384 4250 1959 4250 
Q 1534 4250 1286 3958 
Q 1038 3666 1038 3163 
Q 1038 2656 1286 2365 
Q 1534 2075 1959 2075 
z
" transform="scale(0.015625)"/>
       </defs>
       <use xlink:href="#DejaVuSans-30"/>
       <use xlink:href="#DejaVuSans-2e" transform="translate(63.623047 0)"/>
       <use xlink:href="#DejaVuSans-39" transform="translate(95.410156 0)"/>
      </g>
     </g>
    </g>
    <g id="text_13">
     <!-- Loss -->
     <g transform="translate(43.017187 192.767187) rotate(-90) scale(0.1 -0.1)">
      <defs>
       <path id="DejaVuSans-4c" d="M 628 4666 
L 1259 4666 
L 1259 531 
L 3531 531 
L 3531 0 
L 628 0 
L 628 4666 
z
" transform="scale(0.015625)"/>
       <path id="DejaVuSans-6f" d="M 1959 3097 
Q 1497 3097 1228 2736 
Q 959 2375 959 1747 
Q 959 1119 1226 758 
Q 1494 397 1959 397 
Q 2419 397 2687 759 
Q 2956 1122 2956 1747 
Q 2956 2369 2687 2733 
Q 2419 3097 1959 3097 
z
M 1959 3584 
Q 2709 3584 3137 3096 
Q 3566 2609 3566 1747 
Q 3566 888 3137 398 
Q 2709 -91 1959 -91 
Q 1206 -91 779 398 
Q 353 888 353 1747 
Q 353 2609 779 3096 
Q 1206 3584 1959 3584 
z
" transform="scale(0.015625)"/>
      </defs>
      <use xlink:href="#DejaVuSans-4c"/>
      <use xlink:href="#DejaVuSans-6f" transform="translate(53.962891 0)"/>
      <use xlink:href="#DejaVuSans-73" transform="translate(115.144531 0)"/>
      <use xlink:href="#DejaVuSans-73" transform="translate(167.244141 0)"/>
     </g>
    </g>
   </g>
   <g id="line2d_12">
    <path d="M 72 121.696285 
L 76.509091 136.895991 
L 81.018182 149.500625 
L 85.527273 150.242074 
L 90.036364 154.78345 
L 94.545455 163.449136 
L 99.054545 165.349099 
L 103.563636 166.924678 
L 108.072727 180.317102 
L 112.581818 169.751453 
L 117.090909 169.658772 
L 121.6 181.707319 
L 126.109091 173.134314 
L 130.618182 175.451342 
L 135.127273 167.341743 
L 139.636364 182.541449 
L 144.145455 186.202354 
L 148.654545 171.558735 
L 153.163636 175.961089 
L 157.672727 173.505039 
L 162.181818 180.085399 
L 166.690909 187.916955 
L 171.2 187.638911 
L 175.709091 172.392865 
L 180.218182 198.94601 
L 184.727273 182.124384 
L 189.236364 187.407209 
L 193.745455 195.192424 
L 198.254545 189.307172 
L 202.763636 192.551011 
L 207.272727 176.424494 
L 211.781818 188.287679 
L 216.290909 180.595145 
L 220.8 200.243545 
L 225.309091 188.890107 
L 229.818182 195.285105 
L 234.327273 190.697389 
L 238.836364 198.621626 
L 243.345455 202.097168 
L 247.854545 184.395072 
L 252.363636 190.048621 
L 256.872727 191.948584 
L 261.381818 200.567929 
L 265.890909 197.277749 
L 270.4 193.014417 
L 274.909091 209.372637 
L 279.418182 208.399485 
L 283.927273 211.2726 
L 288.436364 211.967709 
L 292.945455 196.814344 
L 297.454545 197.972858 
L 301.963636 193.477823 
L 306.472727 201.772784 
L 310.981818 200.845973 
L 315.490909 191.346157 
L 320 190.048621 
L 324.509091 194.86804 
L 329.018182 198.899669 
L 333.527273 194.172931 
L 338.036364 216.462744 
L 342.545455 201.680103 
L 347.054545 216.323722 
L 351.563636 202.745936 
L 356.072727 195.794851 
L 360.581818 210.021405 
L 365.090909 203.209342 
L 369.6 201.865465 
L 374.109091 198.019198 
L 378.618182 203.950791 
L 383.127273 201.031335 
L 387.636364 213.079882 
L 392.145455 222.162633 
L 396.654545 216.416403 
L 401.163636 200.058183 
L 405.672727 207.611695 
L 410.181818 217.80662 
L 414.690909 224.108937 
L 419.2 209.418978 
L 423.709091 221.699228 
L 428.218182 210.43847 
L 432.727273 232.913645 
L 437.236364 200.660611 
L 441.745455 224.386981 
L 446.254545 228.233248 
L 450.763636 232.820964 
L 455.272727 215.952997 
L 459.781818 218.038323 
L 464.290909 223.877234 
L 468.8 206.545862 
L 473.309091 233.469732 
L 477.818182 219.660243 
L 482.327273 216.879809 
L 486.836364 218.177345 
L 491.345455 224.479662 
L 495.854545 206.962928 
L 500.363636 228.742994 
L 504.872727 215.026186 
L 509.381818 212.014049 
L 513.890909 226.101581 
L 518.4 210.901876 
" clip-path="url(#pc2f86bc461)" style="fill: none; stroke: #1f77b4; stroke-width: 1.5; stroke-linecap: square"/>
   </g>
   <g id="line2d_13">
    <path d="M 72 55.8 
L 76.509091 125.681574 
L 81.018182 122.623097 
L 85.527273 133.327768 
L 90.036364 148.203089 
L 94.545455 171.744097 
L 99.054545 176.748878 
L 103.563636 162.846708 
L 108.072727 164.885693 
L 112.581818 162.707687 
L 117.090909 158.258992 
L 121.6 167.11004 
L 126.109091 160.205296 
L 130.618182 173.690401 
L 135.127273 149.361604 
L 139.636364 161.31747 
L 144.145455 182.402427 
L 148.654545 156.590732 
L 153.163636 164.144244 
L 157.672727 161.502832 
L 162.181818 172.624568 
L 166.690909 180.456124 
L 171.2 179.900037 
L 175.709091 171.929459 
L 180.218182 176.980581 
L 184.727273 170.214858 
L 189.236364 171.929459 
L 193.745455 191.670541 
L 198.254545 172.578227 
L 202.763636 178.278117 
L 207.272727 179.019566 
L 211.781818 178.417139 
L 216.290909 165.395439 
L 220.8 176.702538 
L 225.309091 171.327032 
L 229.818182 185.229202 
L 234.327273 168.870982 
L 238.836364 175.034277 
L 243.345455 181.521957 
L 247.854545 176.05377 
L 252.363636 174.524531 
L 256.872727 183.978007 
L 261.381818 177.583008 
L 265.890909 178.370798 
L 270.4 180.13174 
L 274.909091 186.851122 
L 279.418182 186.758441 
L 283.927273 173.226995 
L 288.436364 192.736374 
L 292.945455 186.341376 
L 297.454545 179.946377 
L 301.963636 181.985362 
L 306.472727 163.078411 
L 310.981818 190.187643 
L 315.490909 182.495108 
L 320 186.573078 
L 324.509091 188.797426 
L 329.018182 181.104892 
L 333.527273 183.329239 
L 338.036364 203.487385 
L 342.545455 191.57786 
L 347.054545 187.407209 
L 351.563636 181.290254 
L 356.072727 183.051195 
L 360.581818 192.272968 
L 365.090909 196.165576 
L 369.6 192.968076 
L 374.109091 182.680471 
L 378.618182 201.587422 
L 383.127273 194.404634 
L 387.636364 199.502096 
L 392.145455 202.328871 
L 396.654545 202.375211 
L 401.163636 193.663185 
L 405.672727 197.092387 
L 410.181818 201.4484 
L 414.690909 194.960721 
L 419.2 212.153071 
L 423.709091 207.333652 
L 428.218182 195.053402 
L 432.727273 209.372637 
L 437.236364 192.875395 
L 441.745455 209.465318 
L 446.254545 217.296874 
L 450.763636 210.809195 
L 455.272727 201.124016 
L 459.781818 207.333652 
L 464.290909 204.321515 
L 468.8 202.792277 
L 473.309091 219.706583 
L 477.818182 200.660611 
L 482.327273 188.148658 
L 486.836364 210.345789 
L 491.345455 206.453181 
L 495.854545 203.580066 
L 500.363636 220.633395 
L 504.872727 201.819125 
L 509.381818 202.143509 
L 513.890909 212.940861 
L 518.4 206.684884 
" clip-path="url(#pc2f86bc461)" style="fill: none; stroke: #ff7f0e; stroke-width: 1.5; stroke-linecap: square"/>
   </g>
   <g id="line2d_14">
    <path d="M 72 171.605075 
L 76.509091 222.023612 
L 81.018182 214.56278 
L 85.527273 210.994557 
L 90.036364 207.055609 
L 94.545455 217.852961 
L 99.054545 234.16484 
L 103.563636 231.245384 
L 108.072727 240.513498 
L 112.581818 230.08687 
L 117.090909 251.866936 
L 121.6 238.520853 
L 126.109091 221.374844 
L 130.618182 249.642589 
L 135.127273 232.820964 
L 139.636364 239.818389 
L 144.145455 240.837882 
L 148.654545 226.472306 
L 153.163636 232.218536 
L 157.672727 232.033174 
L 162.181818 235.277014 
L 166.690909 241.672012 
L 171.2 241.440309 
L 175.709091 229.716146 
L 180.218182 238.196469 
L 184.727273 239.540346 
L 189.236364 225.267451 
L 193.745455 240.652519 
L 198.254545 247.788967 
L 202.763636 237.084296 
L 207.272727 238.428172 
L 211.781818 240.374476 
L 216.290909 226.472306 
L 220.8 244.035381 
L 225.309091 240.328135 
L 229.818182 243.15491 
L 234.327273 252.052299 
L 238.836364 261.96918 
L 243.345455 251.866936 
L 247.854545 238.24281 
L 252.363636 248.762118 
L 256.872727 234.95263 
L 261.381818 260.486282 
L 265.890909 253.025451 
L 270.4 256.037587 
L 274.909091 263.63744 
L 279.418182 258.400956 
L 283.927273 261.644796 
L 288.436364 266.417874 
L 292.945455 241.023244 
L 297.454545 261.598455 
L 301.963636 243.386613 
L 306.472727 241.672012 
L 310.981818 252.97911 
L 315.490909 257.844869 
L 320 240.467157 
L 324.509091 258.076572 
L 329.018182 258.957043 
L 333.527273 251.959618 
L 338.036364 263.961824 
L 342.545455 257.242442 
L 347.054545 261.274071 
L 351.563636 267.437367 
L 356.072727 249.781611 
L 360.581818 269.708054 
L 365.090909 259.51313 
L 369.6 257.149761 
L 374.109091 267.483707 
L 378.618182 269.244649 
L 383.127273 268.225156 
L 387.636364 267.298345 
L 392.145455 274.620154 
L 396.654545 259.605811 
L 401.163636 272.303126 
L 405.672727 279.068849 
L 410.181818 255.064435 
L 414.690909 272.951894 
L 419.2 270.681206 
L 423.709091 264.008165 
L 428.218182 269.012946 
L 432.727273 264.378889 
L 437.236364 258.354616 
L 441.745455 260.115557 
L 446.254545 300.709893 
L 450.763636 270.727547 
L 455.272727 284.490695 
L 459.781818 271.144612 
L 464.290909 271.515337 
L 468.8 273.46164 
L 473.309091 289.495476 
L 477.818182 269.893417 
L 482.327273 265.630085 
L 486.836364 288.19794 
L 491.345455 266.09349 
L 495.854545 254.64737 
L 500.363636 298.902611 
L 504.872727 256.825377 
L 509.381818 279.717617 
L 513.890909 279.115189 
L 518.4 271.747039 
" clip-path="url(#pc2f86bc461)" style="fill: none; stroke: #2ca02c; stroke-width: 1.5; stroke-linecap: square"/>
   </g>
   <g id="line2d_15">
    <path d="M 72 95.004119 
L 76.509091 193.107098 
L 81.018182 179.112247 
L 85.527273 216.740787 
L 90.036364 197.277749 
L 94.545455 213.68231 
L 99.054545 206.31416 
L 103.563636 212.801839 
L 108.072727 210.345789 
L 112.581818 210.716513 
L 117.090909 221.004119 
L 121.6 205.155645 
L 126.109091 191.346157 
L 130.618182 211.596984 
L 135.127273 183.885325 
L 139.636364 197.092387 
L 144.145455 222.67238 
L 148.654545 218.409047 
L 153.163636 197.277749 
L 157.672727 194.682677 
L 162.181818 213.635969 
L 166.690909 168.129533 
L 171.2 206.267819 
L 175.709091 193.385142 
L 180.218182 201.170357 
L 184.727273 231.013682 
L 189.236364 201.309378 
L 193.745455 200.243545 
L 198.254545 212.338433 
L 202.763636 215.860316 
L 207.272727 208.353145 
L 211.781818 208.492166 
L 216.290909 206.128797 
L 220.8 221.235822 
L 225.309091 210.021405 
L 229.818182 225.082089 
L 234.327273 217.065171 
L 238.836364 219.335859 
L 243.345455 231.894152 
L 247.854545 222.116293 
L 252.363636 225.916219 
L 256.872727 217.389555 
L 261.381818 220.957779 
L 265.890909 225.035748 
L 270.4 225.17477 
L 274.909091 234.813608 
L 279.418182 242.089077 
L 283.927273 220.030967 
L 288.436364 229.994189 
L 292.945455 216.416403 
L 297.454545 225.591835 
L 301.963636 229.994189 
L 306.472727 215.396911 
L 310.981818 215.999338 
L 315.490909 192.365649 
L 320 211.689665 
L 324.509091 195.655829 
L 329.018182 222.394336 
L 333.527273 213.68231 
L 338.036364 240.930563 
L 342.545455 237.315999 
L 347.054545 231.384406 
L 351.563636 238.474513 
L 356.072727 224.526002 
L 360.581818 248.345053 
L 365.090909 224.294299 
L 369.6 233.747775 
L 374.109091 234.118499 
L 378.618182 240.281795 
L 383.127273 241.023244 
L 387.636364 228.882015 
L 392.145455 247.510923 
L 396.654545 244.591467 
L 401.163636 233.562413 
L 405.672727 241.393968 
L 410.181818 234.257521 
L 414.690909 241.301287 
L 419.2 239.633027 
L 423.709091 242.784185 
L 428.218182 248.298713 
L 432.727273 240.281795 
L 437.236364 233.423391 
L 441.745455 256.26929 
L 446.254545 264.610592 
L 450.763636 247.696285 
L 455.272727 252.701067 
L 459.781818 255.203457 
L 464.290909 245.054873 
L 468.8 247.418242 
L 473.309091 270.542185 
L 477.818182 253.118132 
L 482.327273 251.820596 
L 486.836364 259.466789 
L 491.345455 250.245017 
L 495.854545 242.506142 
L 500.363636 273.971387 
L 504.872727 235.323354 
L 509.381818 262.247223 
L 513.890909 261.505774 
L 518.4 255.805885 
" clip-path="url(#pc2f86bc461)" style="fill: none; stroke: #d62728; stroke-width: 1.5; stroke-linecap: square"/>
   </g>
   <g id="line2d_16">
    <path d="M 72 157.934608 
L 76.509091 186.526738 
L 81.018182 194.775359 
L 85.527273 181.753659 
L 90.036364 196.026554 
L 94.545455 223.55285 
L 99.054545 241.48665 
L 103.563636 232.311217 
L 108.072727 233.701434 
L 112.581818 233.469732 
L 117.090909 247.140199 
L 121.6 233.099007 
L 126.109091 216.045679 
L 130.618182 246.167047 
L 135.127273 229.716146 
L 139.636364 250.662082 
L 144.145455 249.73527 
L 148.654545 232.728282 
L 153.163636 235.78676 
L 157.672727 244.267083 
L 162.181818 243.757337 
L 166.690909 244.498786 
L 171.2 244.174402 
L 175.709091 243.479294 
L 180.218182 235.462376 
L 184.727273 245.703641 
L 189.236364 244.081721 
L 193.745455 232.774623 
L 198.254545 246.259728 
L 202.763636 253.627878 
L 207.272727 243.15491 
L 211.781818 236.203825 
L 216.290909 232.867304 
L 220.8 250.198676 
L 225.309091 240.976903 
L 229.818182 236.203825 
L 234.327273 238.381832 
L 238.836364 259.096065 
L 243.345455 252.005958 
L 247.854545 248.437734 
L 252.363636 252.608385 
L 256.872727 241.811033 
L 261.381818 259.327768 
L 265.890909 255.852225 
L 270.4 269.38367 
L 274.909091 266.325193 
L 279.418182 269.244649 
L 283.927273 264.981317 
L 288.436364 271.237293 
L 292.945455 246.074366 
L 297.454545 272.766532 
L 301.963636 246.815815 
L 306.472727 238.798897 
L 310.981818 259.791173 
L 315.490909 256.640015 
L 320 237.45502 
L 324.509091 249.410886 
L 329.018182 266.371534 
L 333.527273 265.583744 
L 338.036364 274.203089 
L 342.545455 257.705848 
L 347.054545 257.752188 
L 351.563636 270.12512 
L 356.072727 251.774255 
L 360.581818 274.620154 
L 365.090909 261.274071 
L 369.6 258.771681 
L 374.109091 271.468996 
L 378.618182 266.649577 
L 383.127273 274.898198 
L 387.636364 278.512762 
L 392.145455 281.061493 
L 396.654545 269.198308 
L 401.163636 280.227363 
L 405.672727 286.344318 
L 410.181818 267.71541 
L 414.690909 280.227363 
L 419.2 280.598088 
L 423.709091 275.361604 
L 428.218182 270.356822 
L 432.727273 275.593306 
L 437.236364 265.120338 
L 441.745455 274.064068 
L 446.254545 302.517175 
L 450.763636 272.117764 
L 455.272727 282.498051 
L 459.781818 279.346892 
L 464.290909 279.115189 
L 468.8 275.361604 
L 473.309091 294.500257 
L 477.818182 288.19794 
L 482.327273 276.381096 
L 486.836364 280.922471 
L 491.345455 282.266348 
L 495.854545 273.507981 
L 500.363636 302.378154 
L 504.872727 268.966605 
L 509.381818 288.244281 
L 513.890909 286.576021 
L 518.4 282.915116 
" clip-path="url(#pc2f86bc461)" style="fill: none; stroke: #9467bd; stroke-width: 1.5; stroke-linecap: square"/>
   </g>
   <g id="line2d_17">
    <path d="M 72 167.434424 
L 76.509091 212.89452 
L 81.018182 222.533358 
L 85.527273 216.740787 
L 90.036364 216.694446 
L 94.545455 231.291725 
L 99.054545 225.360132 
L 103.563636 225.17477 
L 108.072727 242.36712 
L 112.581818 240.096433 
L 117.090909 249.596249 
L 121.6 244.915851 
L 126.109091 223.367488 
L 130.618182 244.962192 
L 135.127273 237.547701 
L 139.636364 245.101214 
L 144.145455 225.17477 
L 148.654545 219.891946 
L 153.163636 218.733431 
L 157.672727 228.557631 
L 162.181818 234.257521 
L 166.690909 244.452446 
L 171.2 248.206032 
L 175.709091 237.686723 
L 180.218182 239.679367 
L 184.727273 242.645164 
L 189.236364 222.996764 
L 193.745455 236.250166 
L 198.254545 235.879441 
L 202.763636 249.874292 
L 207.272727 248.345053 
L 211.781818 237.130636 
L 216.290909 232.264877 
L 220.8 240.837882 
L 225.309091 239.07694 
L 229.818182 246.44509 
L 234.327273 249.457227 
L 238.836364 265.073998 
L 243.345455 253.720559 
L 247.854545 244.962192 
L 252.363636 251.820596 
L 256.872727 236.342847 
L 261.381818 257.659507 
L 265.890909 250.754763 
L 270.4 255.110776 
L 274.909091 257.752188 
L 279.418182 269.105627 
L 283.927273 252.469364 
L 288.436364 274.805517 
L 292.945455 241.672012 
L 297.454545 255.759544 
L 301.963636 249.271865 
L 306.472727 236.852593 
L 310.981818 252.608385 
L 315.490909 243.015888 
L 320 241.069584 
L 324.509091 248.90114 
L 329.018182 259.235086 
L 333.527273 264.286208 
L 338.036364 264.517911 
L 342.545455 261.552115 
L 347.054545 257.010739 
L 351.563636 274.481133 
L 356.072727 248.8548 
L 360.581818 270.912909 
L 365.090909 259.605811 
L 369.6 261.783818 
L 374.109091 263.822803 
L 378.618182 278.142038 
L 383.127273 270.866569 
L 387.636364 268.456859 
L 392.145455 278.420081 
L 396.654545 267.252004 
L 401.163636 271.561677 
L 405.672727 274.712836 
L 410.181818 268.827584 
L 414.690909 275.268922 
L 419.2 266.556896 
L 423.709091 271.978742 
L 428.218182 262.571607 
L 432.727273 269.244649 
L 437.236364 252.793748 
L 441.745455 270.403163 
L 446.254545 292.136889 
L 450.763636 269.754395 
L 455.272727 271.79338 
L 459.781818 268.595881 
L 464.290909 272.025083 
L 468.8 264.981317 
L 473.309091 284.954101 
L 477.818182 283.193159 
L 482.327273 268.410519 
L 486.836364 279.393233 
L 491.345455 271.515337 
L 495.854545 261.18139 
L 500.363636 299.180655 
L 504.872727 256.640015 
L 509.381818 275.685987 
L 513.890909 277.029864 
L 518.4 278.234719 
" clip-path="url(#pc2f86bc461)" style="fill: none; stroke: #8c564b; stroke-width: 1.5; stroke-linecap: square"/>
   </g>
   <g id="line2d_18">
    <path d="M 72 141.993453 
L 76.509091 196.582641 
L 81.018182 211.828687 
L 85.527273 211.087238 
L 90.036364 190.00228 
L 94.545455 220.355351 
L 99.054545 206.267819 
L 103.563636 214.794483 
L 108.072727 226.333284 
L 112.581818 232.079515 
L 117.090909 235.277014 
L 121.6 235.137992 
L 126.109091 197.32409 
L 130.618182 232.728282 
L 135.127273 213.635969 
L 139.636364 215.396911 
L 144.145455 233.562413 
L 148.654545 222.116293 
L 153.163636 227.908864 
L 157.672727 211.967709 
L 162.181818 219.938286 
L 166.690909 191.670541 
L 171.2 237.964766 
L 175.709091 204.784921 
L 180.218182 219.613902 
L 184.727273 240.930563 
L 189.236364 210.948216 
L 193.745455 235.78676 
L 198.254545 247.140199 
L 202.763636 227.352777 
L 207.272727 211.967709 
L 211.781818 210.021405 
L 216.290909 214.609121 
L 220.8 222.116293 
L 225.309091 219.057815 
L 229.818182 238.011107 
L 234.327273 237.825745 
L 238.836364 250.152335 
L 243.345455 244.035381 
L 247.854545 235.647738 
L 252.363636 235.925782 
L 256.872727 235.8331 
L 261.381818 244.962192 
L 265.890909 245.240235 
L 270.4 249.086502 
L 274.909091 250.013314 
L 279.418182 243.664656 
L 283.927273 250.384038 
L 288.436364 257.05708 
L 292.945455 234.442883 
L 297.454545 250.847444 
L 301.963636 243.98904 
L 306.472727 219.011475 
L 310.981818 244.591467 
L 315.490909 239.401324 
L 320 232.311217 
L 324.509091 243.340272 
L 329.018182 257.520485 
L 333.527273 244.684149 
L 338.036364 268.317837 
L 342.545455 248.669437 
L 347.054545 258.818021 
L 351.563636 249.410886 
L 356.072727 241.162266 
L 360.581818 260.486282 
L 365.090909 245.147554 
L 369.6 261.18139 
L 374.109091 243.062229 
L 378.618182 251.635234 
L 383.127273 263.220375 
L 387.636364 254.276646 
L 392.145455 266.556896 
L 396.654545 266.973961 
L 401.163636 272.58117 
L 405.672727 275.685987 
L 410.181818 259.466789 
L 414.690909 276.612799 
L 419.2 273.183597 
L 423.709091 265.398382 
L 428.218182 263.869143 
L 432.727273 270.032438 
L 437.236364 260.115557 
L 441.745455 266.232512 
L 446.254545 297.002648 
L 450.763636 274.203089 
L 455.272727 288.336962 
L 459.781818 259.791173 
L 464.290909 272.766532 
L 468.8 264.656933 
L 473.309091 288.98573 
L 477.818182 281.941964 
L 482.327273 277.771313 
L 486.836364 272.395807 
L 491.345455 273.46164 
L 495.854545 270.912909 
L 500.363636 307.8 
L 504.872727 270.634866 
L 509.381818 272.117764 
L 513.890909 278.883487 
L 518.4 275.778669 
" clip-path="url(#pc2f86bc461)" style="fill: none; stroke: #e377c2; stroke-width: 1.5; stroke-linecap: square"/>
   </g>
   <g id="line2d_19">
    <path d="M 72 123.318205 
L 76.509091 193.014417 
L 81.018182 205.201986 
L 85.527273 213.543288 
L 90.036364 215.721295 
L 94.545455 227.816182 
L 99.054545 234.720927 
L 103.563636 222.996764 
L 108.072727 223.367488 
L 112.581818 211.365281 
L 117.090909 215.396911 
L 121.6 188.797426 
L 126.109091 120.954836 
L 130.618182 138.703273 
L 135.127273 128.183965 
L 139.636364 136.664288 
L 144.145455 143.012946 
L 148.654545 141.71541 
L 153.163636 160.158955 
L 157.672727 210.948216 
L 162.181818 237.45502 
L 166.690909 230.596616 
L 171.2 221.235822 
L 175.709091 236.389187 
L 180.218182 239.540346 
L 184.727273 236.342847 
L 189.236364 225.96256 
L 193.745455 247.927988 
L 198.254545 248.06701 
L 202.763636 250.708422 
L 207.272727 245.240235 
L 211.781818 236.713571 
L 216.290909 223.274807 
L 220.8 237.037955 
L 225.309091 239.030599 
L 229.818182 235.647738 
L 234.327273 249.920633 
L 238.836364 262.710629 
L 243.345455 245.703641 
L 247.854545 244.962192 
L 252.363636 249.086502 
L 256.872727 241.254947 
L 261.381818 252.515704 
L 265.890909 252.237661 
L 270.4 267.808091 
L 274.909091 257.705848 
L 279.418182 266.92762 
L 283.927273 252.469364 
L 288.436364 261.830158 
L 292.945455 244.545127 
L 297.454545 260.578963 
L 301.963636 239.725708 
L 306.472727 239.679367 
L 310.981818 255.203457 
L 315.490909 242.923207 
L 320 234.906289 
L 324.509091 249.966973 
L 329.018182 264.193527 
L 333.527273 256.686355 
L 338.036364 270.032438 
L 342.545455 261.18139 
L 347.054545 265.537403 
L 351.563636 260.393601 
L 356.072727 248.993821 
L 360.581818 260.949687 
L 365.090909 256.825377 
L 369.6 260.022876 
L 374.109091 263.544759 
L 378.618182 274.481133 
L 383.127273 270.264141 
L 387.636364 258.679 
L 392.145455 272.488488 
L 396.654545 273.554321 
L 401.163636 272.673851 
L 405.672727 285.046782 
L 410.181818 267.71541 
L 414.690909 272.164104 
L 419.2 272.766532 
L 423.709091 274.527473 
L 428.218182 269.986098 
L 432.727273 278.605443 
L 437.236364 266.556896 
L 441.745455 275.03722 
L 446.254545 295.241707 
L 450.763636 278.790805 
L 455.272727 275.08356 
L 459.781818 277.956675 
L 464.290909 278.3274 
L 468.8 275.500625 
L 473.309091 287.085767 
L 477.818182 282.40537 
L 482.327273 276.334755 
L 486.836364 278.3274 
L 491.345455 278.466421 
L 495.854545 262.942332 
L 500.363636 305.900037 
L 504.872727 263.174035 
L 509.381818 280.82979 
L 513.890909 284.583376 
L 518.4 275.03722 
" clip-path="url(#pc2f86bc461)" style="fill: none; stroke: #7f7f7f; stroke-width: 1.5; stroke-linecap: square"/>
   </g>
   <g id="patch_3">
    <path d="M 72 320.4 
L 72 43.2 
" style="fill: none; stroke: #000000; stroke-width: 0.8; stroke-linejoin: miter; stroke-linecap: square"/>
   </g>
   <g id="patch_4">
    <path d="M 518.4 320.4 
L 518.4 43.2 
" style="fill: none; stroke: #000000; stroke-width: 0.8; stroke-linejoin: miter; stroke-linecap: square"/>
   </g>
   <g id="patch_5">
    <path d="M 72 320.4 
L 518.4 320.4 
" style="fill: none; stroke: #000000; stroke-width: 0.8; stroke-linejoin: miter; stroke-linecap: square"/>
   </g>
   <g id="patch_6">
    <path d="M 72 43.2 
L 518.4 43.2 
" style="fill: none; stroke: #000000; stroke-width: 0.8; stroke-linejoin: miter; stroke-linecap: square"/>
   </g>
   <g id="text_14">
    <!-- H3K27me3 -->
    <g transform="translate(261.946875 37.2) scale(0.12 -0.12)">
     <defs>
      <path id="DejaVuSans-48" d="M 628 4666 
L 1259 4666 
L 1259 2753 
L 3553 2753 
L 3553 4666 
L 4184 4666 
L 4184 0 
L 3553 0 
L 3553 2222 
L 1259 2222 
L 1259 0 
L 628 0 
L 628 4666 
z
" transform="scale(0.015625)"/>
      <path id="DejaVuSans-33" d="M 2597 2516 
Q 3050 2419 3304 2112 
Q 3559 1806 3559 1356 
Q 3559 666 3084 287 
Q 2609 -91 1734 -91 
Q 1441 -91 1130 -33 
Q 819 25 488 141 
L 488 750 
Q 750 597 1062 519 
Q 1375 441 1716 441 
Q 2309 441 2620 675 
Q 2931 909 2931 1356 
Q 2931 1769 2642 2001 
Q 2353 2234 1838 2234 
L 1294 2234 
L 1294 2753 
L 1863 2753 
Q 2328 2753 2575 2939 
Q 2822 3125 2822 3475 
Q 2822 3834 2567 4026 
Q 2313 4219 1838 4219 
Q 1578 4219 1281 4162 
Q 984 4106 628 3988 
L 628 4550 
Q 988 4650 1302 4700 
Q 1616 4750 1894 4750 
Q 2613 4750 3031 4423 
Q 3450 4097 3450 3541 
Q 3450 3153 3228 2886 
Q 3006 2619 2597 2516 
z
" transform="scale(0.015625)"/>
      <path id="DejaVuSans-4b" d="M 628 4666 
L 1259 4666 
L 1259 2694 
L 3353 4666 
L 4166 4666 
L 1850 2491 
L 4331 0 
L 3500 0 
L 1259 2247 
L 1259 0 
L 628 0 
L 628 4666 
z
" transform="scale(0.015625)"/>
      <path id="DejaVuSans-6d" d="M 3328 2828 
Q 3544 3216 3844 3400 
Q 4144 3584 4550 3584 
Q 5097 3584 5394 3201 
Q 5691 2819 5691 2113 
L 5691 0 
L 5113 0 
L 5113 2094 
Q 5113 2597 4934 2840 
Q 4756 3084 4391 3084 
Q 3944 3084 3684 2787 
Q 3425 2491 3425 1978 
L 3425 0 
L 2847 0 
L 2847 2094 
Q 2847 2600 2669 2842 
Q 2491 3084 2119 3084 
Q 1678 3084 1418 2786 
Q 1159 2488 1159 1978 
L 1159 0 
L 581 0 
L 581 3500 
L 1159 3500 
L 1159 2956 
Q 1356 3278 1631 3431 
Q 1906 3584 2284 3584 
Q 2666 3584 2933 3390 
Q 3200 3197 3328 2828 
z
" transform="scale(0.015625)"/>
     </defs>
     <use xlink:href="#DejaVuSans-48"/>
     <use xlink:href="#DejaVuSans-33" transform="translate(75.195312 0)"/>
     <use xlink:href="#DejaVuSans-4b" transform="translate(138.818359 0)"/>
     <use xlink:href="#DejaVuSans-32" transform="translate(204.394531 0)"/>
     <use xlink:href="#DejaVuSans-37" transform="translate(268.017578 0)"/>
     <use xlink:href="#DejaVuSans-6d" transform="translate(331.640625 0)"/>
     <use xlink:href="#DejaVuSans-65" transform="translate(429.052734 0)"/>
     <use xlink:href="#DejaVuSans-33" transform="translate(490.576172 0)"/>
    </g>
   </g>
   <g id="legend_1">
    <g id="patch_7">
     <path d="M 334.210684 147.679025 
L 512.569 147.679025 
Q 514.235 147.679025 514.235 146.013025 
L 514.235 49.031 
Q 514.235 47.365 512.569 47.365 
L 334.210684 47.365 
Q 332.544684 47.365 332.544684 49.031 
L 332.544684 146.013025 
Q 332.544684 147.679025 334.210684 147.679025 
z
" style="fill: #ffffff; opacity: 0.8; stroke: #cccccc; stroke-linejoin: miter"/>
    </g>
    <g id="line2d_20">
     <path d="M 335.876684 54.110998 
L 344.206684 54.110998 
L 352.536684 54.110998 
" style="fill: none; stroke: #1f77b4; stroke-width: 1.5; stroke-linecap: square"/>
    </g>
    <g id="text_15">
     <!-- NT-MS V2 (50M) with rand. weights -->
     <g transform="translate(359.200684 57.026498) scale(0.0833 -0.0833)">
      <defs>
       <path id="DejaVuSans-4e" d="M 628 4666 
L 1478 4666 
L 3547 763 
L 3547 4666 
L 4159 4666 
L 4159 0 
L 3309 0 
L 1241 3903 
L 1241 0 
L 628 0 
L 628 4666 
z
" transform="scale(0.015625)"/>
       <path id="DejaVuSans-2d" d="M 313 2009 
L 1997 2009 
L 1997 1497 
L 313 1497 
L 313 2009 
z
" transform="scale(0.015625)"/>
       <path id="DejaVuSans-4d" d="M 628 4666 
L 1569 4666 
L 2759 1491 
L 3956 4666 
L 4897 4666 
L 4897 0 
L 4281 0 
L 4281 4097 
L 3078 897 
L 2444 897 
L 1241 4097 
L 1241 0 
L 628 0 
L 628 4666 
z
" transform="scale(0.015625)"/>
       <path id="DejaVuSans-53" d="M 3425 4513 
L 3425 3897 
Q 3066 4069 2747 4153 
Q 2428 4238 2131 4238 
Q 1616 4238 1336 4038 
Q 1056 3838 1056 3469 
Q 1056 3159 1242 3001 
Q 1428 2844 1947 2747 
L 2328 2669 
Q 3034 2534 3370 2195 
Q 3706 1856 3706 1288 
Q 3706 609 3251 259 
Q 2797 -91 1919 -91 
Q 1588 -91 1214 -16 
Q 841 59 441 206 
L 441 856 
Q 825 641 1194 531 
Q 1563 422 1919 422 
Q 2459 422 2753 634 
Q 3047 847 3047 1241 
Q 3047 1584 2836 1778 
Q 2625 1972 2144 2069 
L 1759 2144 
Q 1053 2284 737 2584 
Q 422 2884 422 3419 
Q 422 4038 858 4394 
Q 1294 4750 2059 4750 
Q 2388 4750 2728 4690 
Q 3069 4631 3425 4513 
z
" transform="scale(0.015625)"/>
       <path id="DejaVuSans-56" d="M 1831 0 
L 50 4666 
L 709 4666 
L 2188 738 
L 3669 4666 
L 4325 4666 
L 2547 0 
L 1831 0 
z
" transform="scale(0.015625)"/>
       <path id="DejaVuSans-28" d="M 1984 4856 
Q 1566 4138 1362 3434 
Q 1159 2731 1159 2009 
Q 1159 1288 1364 580 
Q 1569 -128 1984 -844 
L 1484 -844 
Q 1016 -109 783 600 
Q 550 1309 550 2009 
Q 550 2706 781 3412 
Q 1013 4119 1484 4856 
L 1984 4856 
z
" transform="scale(0.015625)"/>
       <path id="DejaVuSans-29" d="M 513 4856 
L 1013 4856 
Q 1481 4119 1714 3412 
Q 1947 2706 1947 2009 
Q 1947 1309 1714 600 
Q 1481 -109 1013 -844 
L 513 -844 
Q 928 -128 1133 580 
Q 1338 1288 1338 2009 
Q 1338 2731 1133 3434 
Q 928 4138 513 4856 
z
" transform="scale(0.015625)"/>
       <path id="DejaVuSans-77" d="M 269 3500 
L 844 3500 
L 1563 769 
L 2278 3500 
L 2956 3500 
L 3675 769 
L 4391 3500 
L 4966 3500 
L 4050 0 
L 3372 0 
L 2619 2869 
L 1863 0 
L 1184 0 
L 269 3500 
z
" transform="scale(0.015625)"/>
       <path id="DejaVuSans-68" d="M 3513 2113 
L 3513 0 
L 2938 0 
L 2938 2094 
Q 2938 2591 2744 2837 
Q 2550 3084 2163 3084 
Q 1697 3084 1428 2787 
Q 1159 2491 1159 1978 
L 1159 0 
L 581 0 
L 581 4863 
L 1159 4863 
L 1159 2956 
Q 1366 3272 1645 3428 
Q 1925 3584 2291 3584 
Q 2894 3584 3203 3211 
Q 3513 2838 3513 2113 
z
" transform="scale(0.015625)"/>
       <path id="DejaVuSans-64" d="M 2906 2969 
L 2906 4863 
L 3481 4863 
L 3481 0 
L 2906 0 
L 2906 525 
Q 2725 213 2448 61 
Q 2172 -91 1784 -91 
Q 1150 -91 751 415 
Q 353 922 353 1747 
Q 353 2572 751 3078 
Q 1150 3584 1784 3584 
Q 2172 3584 2448 3432 
Q 2725 3281 2906 2969 
z
M 947 1747 
Q 947 1113 1208 752 
Q 1469 391 1925 391 
Q 2381 391 2643 752 
Q 2906 1113 2906 1747 
Q 2906 2381 2643 2742 
Q 2381 3103 1925 3103 
Q 1469 3103 1208 2742 
Q 947 2381 947 1747 
z
" transform="scale(0.015625)"/>
      </defs>
      <use xlink:href="#DejaVuSans-4e"/>
      <use xlink:href="#DejaVuSans-54" transform="translate(74.804688 0)"/>
      <use xlink:href="#DejaVuSans-2d" transform="translate(126.763672 0)"/>
      <use xlink:href="#DejaVuSans-4d" transform="translate(162.847656 0)"/>
      <use xlink:href="#DejaVuSans-53" transform="translate(249.126953 0)"/>
      <use xlink:href="#DejaVuSans-20" transform="translate(312.603516 0)"/>
      <use xlink:href="#DejaVuSans-56" transform="translate(344.390625 0)"/>
      <use xlink:href="#DejaVuSans-32" transform="translate(412.798828 0)"/>
      <use xlink:href="#DejaVuSans-20" transform="translate(476.421875 0)"/>
      <use xlink:href="#DejaVuSans-28" transform="translate(508.208984 0)"/>
      <use xlink:href="#DejaVuSans-35" transform="translate(547.222656 0)"/>
      <use xlink:href="#DejaVuSans-30" transform="translate(610.845703 0)"/>
      <use xlink:href="#DejaVuSans-4d" transform="translate(674.46875 0)"/>
      <use xlink:href="#DejaVuSans-29" transform="translate(760.748047 0)"/>
      <use xlink:href="#DejaVuSans-20" transform="translate(799.761719 0)"/>
      <use xlink:href="#DejaVuSans-77" transform="translate(831.548828 0)"/>
      <use xlink:href="#DejaVuSans-69" transform="translate(913.335938 0)"/>
      <use xlink:href="#DejaVuSans-74" transform="translate(941.119141 0)"/>
      <use xlink:href="#DejaVuSans-68" transform="translate(980.328125 0)"/>
      <use xlink:href="#DejaVuSans-20" transform="translate(1043.707031 0)"/>
      <use xlink:href="#DejaVuSans-72" transform="translate(1075.494141 0)"/>
      <use xlink:href="#DejaVuSans-61" transform="translate(1116.607422 0)"/>
      <use xlink:href="#DejaVuSans-6e" transform="translate(1177.886719 0)"/>
      <use xlink:href="#DejaVuSans-64" transform="translate(1241.265625 0)"/>
      <use xlink:href="#DejaVuSans-2e" transform="translate(1304.742188 0)"/>
      <use xlink:href="#DejaVuSans-20" transform="translate(1336.529297 0)"/>
      <use xlink:href="#DejaVuSans-77" transform="translate(1368.316406 0)"/>
      <use xlink:href="#DejaVuSans-65" transform="translate(1450.103516 0)"/>
      <use xlink:href="#DejaVuSans-69" transform="translate(1511.626953 0)"/>
      <use xlink:href="#DejaVuSans-67" transform="translate(1539.410156 0)"/>
      <use xlink:href="#DejaVuSans-68" transform="translate(1602.886719 0)"/>
      <use xlink:href="#DejaVuSans-74" transform="translate(1666.265625 0)"/>
      <use xlink:href="#DejaVuSans-73" transform="translate(1705.474609 0)"/>
     </g>
    </g>
    <g id="line2d_21">
     <path d="M 335.876684 66.337877 
L 344.206684 66.337877 
L 352.536684 66.337877 
" style="fill: none; stroke: #ff7f0e; stroke-width: 1.5; stroke-linecap: square"/>
    </g>
    <g id="text_16">
     <!-- NT-MS V2 (500M) with rand. weights -->
     <g transform="translate(359.200684 69.253377) scale(0.0833 -0.0833)">
      <use xlink:href="#DejaVuSans-4e"/>
      <use xlink:href="#DejaVuSans-54" transform="translate(74.804688 0)"/>
      <use xlink:href="#DejaVuSans-2d" transform="translate(126.763672 0)"/>
      <use xlink:href="#DejaVuSans-4d" transform="translate(162.847656 0)"/>
      <use xlink:href="#DejaVuSans-53" transform="translate(249.126953 0)"/>
      <use xlink:href="#DejaVuSans-20" transform="translate(312.603516 0)"/>
      <use xlink:href="#DejaVuSans-56" transform="translate(344.390625 0)"/>
      <use xlink:href="#DejaVuSans-32" transform="translate(412.798828 0)"/>
      <use xlink:href="#DejaVuSans-20" transform="translate(476.421875 0)"/>
      <use xlink:href="#DejaVuSans-28" transform="translate(508.208984 0)"/>
      <use xlink:href="#DejaVuSans-35" transform="translate(547.222656 0)"/>
      <use xlink:href="#DejaVuSans-30" transform="translate(610.845703 0)"/>
      <use xlink:href="#DejaVuSans-30" transform="translate(674.46875 0)"/>
      <use xlink:href="#DejaVuSans-4d" transform="translate(738.091797 0)"/>
      <use xlink:href="#DejaVuSans-29" transform="translate(824.371094 0)"/>
      <use xlink:href="#DejaVuSans-20" transform="translate(863.384766 0)"/>
      <use xlink:href="#DejaVuSans-77" transform="translate(895.171875 0)"/>
      <use xlink:href="#DejaVuSans-69" transform="translate(976.958984 0)"/>
      <use xlink:href="#DejaVuSans-74" transform="translate(1004.742188 0)"/>
      <use xlink:href="#DejaVuSans-68" transform="translate(1043.951172 0)"/>
      <use xlink:href="#DejaVuSans-20" transform="translate(1107.330078 0)"/>
      <use xlink:href="#DejaVuSans-72" transform="translate(1139.117188 0)"/>
      <use xlink:href="#DejaVuSans-61" transform="translate(1180.230469 0)"/>
      <use xlink:href="#DejaVuSans-6e" transform="translate(1241.509766 0)"/>
      <use xlink:href="#DejaVuSans-64" transform="translate(1304.888672 0)"/>
      <use xlink:href="#DejaVuSans-2e" transform="translate(1368.365234 0)"/>
      <use xlink:href="#DejaVuSans-20" transform="translate(1400.152344 0)"/>
      <use xlink:href="#DejaVuSans-77" transform="translate(1431.939453 0)"/>
      <use xlink:href="#DejaVuSans-65" transform="translate(1513.726562 0)"/>
      <use xlink:href="#DejaVuSans-69" transform="translate(1575.25 0)"/>
      <use xlink:href="#DejaVuSans-67" transform="translate(1603.033203 0)"/>
      <use xlink:href="#DejaVuSans-68" transform="translate(1666.509766 0)"/>
      <use xlink:href="#DejaVuSans-74" transform="translate(1729.888672 0)"/>
      <use xlink:href="#DejaVuSans-73" transform="translate(1769.097656 0)"/>
     </g>
    </g>
    <g id="line2d_22">
     <path d="M 335.876684 78.564755 
L 344.206684 78.564755 
L 352.536684 78.564755 
" style="fill: none; stroke: #2ca02c; stroke-width: 1.5; stroke-linecap: square"/>
    </g>
    <g id="text_17">
     <!-- NT-MS V2 (50M) -->
     <g transform="translate(359.200684 81.480255) scale(0.0833 -0.0833)">
      <use xlink:href="#DejaVuSans-4e"/>
      <use xlink:href="#DejaVuSans-54" transform="translate(74.804688 0)"/>
      <use xlink:href="#DejaVuSans-2d" transform="translate(126.763672 0)"/>
      <use xlink:href="#DejaVuSans-4d" transform="translate(162.847656 0)"/>
      <use xlink:href="#DejaVuSans-53" transform="translate(249.126953 0)"/>
      <use xlink:href="#DejaVuSans-20" transform="translate(312.603516 0)"/>
      <use xlink:href="#DejaVuSans-56" transform="translate(344.390625 0)"/>
      <use xlink:href="#DejaVuSans-32" transform="translate(412.798828 0)"/>
      <use xlink:href="#DejaVuSans-20" transform="translate(476.421875 0)"/>
      <use xlink:href="#DejaVuSans-28" transform="translate(508.208984 0)"/>
      <use xlink:href="#DejaVuSans-35" transform="translate(547.222656 0)"/>
      <use xlink:href="#DejaVuSans-30" transform="translate(610.845703 0)"/>
      <use xlink:href="#DejaVuSans-4d" transform="translate(674.46875 0)"/>
      <use xlink:href="#DejaVuSans-29" transform="translate(760.748047 0)"/>
     </g>
    </g>
    <g id="line2d_23">
     <path d="M 335.876684 90.791633 
L 344.206684 90.791633 
L 352.536684 90.791633 
" style="fill: none; stroke: #d62728; stroke-width: 1.5; stroke-linecap: square"/>
    </g>
    <g id="text_18">
     <!-- NT-1000g (500M) -->
     <g transform="translate(359.200684 93.707133) scale(0.0833 -0.0833)">
      <use xlink:href="#DejaVuSans-4e"/>
      <use xlink:href="#DejaVuSans-54" transform="translate(74.804688 0)"/>
      <use xlink:href="#DejaVuSans-2d" transform="translate(126.763672 0)"/>
      <use xlink:href="#DejaVuSans-31" transform="translate(162.847656 0)"/>
      <use xlink:href="#DejaVuSans-30" transform="translate(226.470703 0)"/>
      <use xlink:href="#DejaVuSans-30" transform="translate(290.09375 0)"/>
      <use xlink:href="#DejaVuSans-30" transform="translate(353.716797 0)"/>
      <use xlink:href="#DejaVuSans-67" transform="translate(417.339844 0)"/>
      <use xlink:href="#DejaVuSans-20" transform="translate(480.816406 0)"/>
      <use xlink:href="#DejaVuSans-28" transform="translate(512.603516 0)"/>
      <use xlink:href="#DejaVuSans-35" transform="translate(551.617188 0)"/>
      <use xlink:href="#DejaVuSans-30" transform="translate(615.240234 0)"/>
      <use xlink:href="#DejaVuSans-30" transform="translate(678.863281 0)"/>
      <use xlink:href="#DejaVuSans-4d" transform="translate(742.486328 0)"/>
      <use xlink:href="#DejaVuSans-29" transform="translate(828.765625 0)"/>
     </g>
    </g>
    <g id="line2d_24">
     <path d="M 335.876684 103.018511 
L 344.206684 103.018511 
L 352.536684 103.018511 
" style="fill: none; stroke: #9467bd; stroke-width: 1.5; stroke-linecap: square"/>
    </g>
    <g id="text_19">
     <!-- NT-MS V2 (250M) -->
     <g transform="translate(359.200684 105.934011) scale(0.0833 -0.0833)">
      <use xlink:href="#DejaVuSans-4e"/>
      <use xlink:href="#DejaVuSans-54" transform="translate(74.804688 0)"/>
      <use xlink:href="#DejaVuSans-2d" transform="translate(126.763672 0)"/>
      <use xlink:href="#DejaVuSans-4d" transform="translate(162.847656 0)"/>
      <use xlink:href="#DejaVuSans-53" transform="translate(249.126953 0)"/>
      <use xlink:href="#DejaVuSans-20" transform="translate(312.603516 0)"/>
      <use xlink:href="#DejaVuSans-56" transform="translate(344.390625 0)"/>
      <use xlink:href="#DejaVuSans-32" transform="translate(412.798828 0)"/>
      <use xlink:href="#DejaVuSans-20" transform="translate(476.421875 0)"/>
      <use xlink:href="#DejaVuSans-28" transform="translate(508.208984 0)"/>
      <use xlink:href="#DejaVuSans-32" transform="translate(547.222656 0)"/>
      <use xlink:href="#DejaVuSans-35" transform="translate(610.845703 0)"/>
      <use xlink:href="#DejaVuSans-30" transform="translate(674.46875 0)"/>
      <use xlink:href="#DejaVuSans-4d" transform="translate(738.091797 0)"/>
      <use xlink:href="#DejaVuSans-29" transform="translate(824.371094 0)"/>
     </g>
    </g>
    <g id="line2d_25">
     <path d="M 335.876684 115.245389 
L 344.206684 115.245389 
L 352.536684 115.245389 
" style="fill: none; stroke: #8c564b; stroke-width: 1.5; stroke-linecap: square"/>
    </g>
    <g id="text_20">
     <!-- NT-MS V2 (100M) -->
     <g transform="translate(359.200684 118.160889) scale(0.0833 -0.0833)">
      <use xlink:href="#DejaVuSans-4e"/>
      <use xlink:href="#DejaVuSans-54" transform="translate(74.804688 0)"/>
      <use xlink:href="#DejaVuSans-2d" transform="translate(126.763672 0)"/>
      <use xlink:href="#DejaVuSans-4d" transform="translate(162.847656 0)"/>
      <use xlink:href="#DejaVuSans-53" transform="translate(249.126953 0)"/>
      <use xlink:href="#DejaVuSans-20" transform="translate(312.603516 0)"/>
      <use xlink:href="#DejaVuSans-56" transform="translate(344.390625 0)"/>
      <use xlink:href="#DejaVuSans-32" transform="translate(412.798828 0)"/>
      <use xlink:href="#DejaVuSans-20" transform="translate(476.421875 0)"/>
      <use xlink:href="#DejaVuSans-28" transform="translate(508.208984 0)"/>
      <use xlink:href="#DejaVuSans-31" transform="translate(547.222656 0)"/>
      <use xlink:href="#DejaVuSans-30" transform="translate(610.845703 0)"/>
      <use xlink:href="#DejaVuSans-30" transform="translate(674.46875 0)"/>
      <use xlink:href="#DejaVuSans-4d" transform="translate(738.091797 0)"/>
      <use xlink:href="#DejaVuSans-29" transform="translate(824.371094 0)"/>
     </g>
    </g>
    <g id="line2d_26">
     <path d="M 335.876684 127.472267 
L 344.206684 127.472267 
L 352.536684 127.472267 
" style="fill: none; stroke: #e377c2; stroke-width: 1.5; stroke-linecap: square"/>
    </g>
    <g id="text_21">
     <!-- NT-Human-Ref. (500M) -->
     <g transform="translate(359.200684 130.387767) scale(0.0833 -0.0833)">
      <defs>
       <path id="DejaVuSans-75" d="M 544 1381 
L 544 3500 
L 1119 3500 
L 1119 1403 
Q 1119 906 1312 657 
Q 1506 409 1894 409 
Q 2359 409 2629 706 
Q 2900 1003 2900 1516 
L 2900 3500 
L 3475 3500 
L 3475 0 
L 2900 0 
L 2900 538 
Q 2691 219 2414 64 
Q 2138 -91 1772 -91 
Q 1169 -91 856 284 
Q 544 659 544 1381 
z
M 1991 3584 
L 1991 3584 
z
" transform="scale(0.015625)"/>
       <path id="DejaVuSans-52" d="M 2841 2188 
Q 3044 2119 3236 1894 
Q 3428 1669 3622 1275 
L 4263 0 
L 3584 0 
L 2988 1197 
Q 2756 1666 2539 1819 
Q 2322 1972 1947 1972 
L 1259 1972 
L 1259 0 
L 628 0 
L 628 4666 
L 2053 4666 
Q 2853 4666 3247 4331 
Q 3641 3997 3641 3322 
Q 3641 2881 3436 2590 
Q 3231 2300 2841 2188 
z
M 1259 4147 
L 1259 2491 
L 2053 2491 
Q 2509 2491 2742 2702 
Q 2975 2913 2975 3322 
Q 2975 3731 2742 3939 
Q 2509 4147 2053 4147 
L 1259 4147 
z
" transform="scale(0.015625)"/>
       <path id="DejaVuSans-66" d="M 2375 4863 
L 2375 4384 
L 1825 4384 
Q 1516 4384 1395 4259 
Q 1275 4134 1275 3809 
L 1275 3500 
L 2222 3500 
L 2222 3053 
L 1275 3053 
L 1275 0 
L 697 0 
L 697 3053 
L 147 3053 
L 147 3500 
L 697 3500 
L 697 3744 
Q 697 4328 969 4595 
Q 1241 4863 1831 4863 
L 2375 4863 
z
" transform="scale(0.015625)"/>
      </defs>
      <use xlink:href="#DejaVuSans-4e"/>
      <use xlink:href="#DejaVuSans-54" transform="translate(74.804688 0)"/>
      <use xlink:href="#DejaVuSans-2d" transform="translate(126.763672 0)"/>
      <use xlink:href="#DejaVuSans-48" transform="translate(162.847656 0)"/>
      <use xlink:href="#DejaVuSans-75" transform="translate(238.042969 0)"/>
      <use xlink:href="#DejaVuSans-6d" transform="translate(301.421875 0)"/>
      <use xlink:href="#DejaVuSans-61" transform="translate(398.833984 0)"/>
      <use xlink:href="#DejaVuSans-6e" transform="translate(460.113281 0)"/>
      <use xlink:href="#DejaVuSans-2d" transform="translate(523.492188 0)"/>
      <use xlink:href="#DejaVuSans-52" transform="translate(559.576172 0)"/>
      <use xlink:href="#DejaVuSans-65" transform="translate(624.558594 0)"/>
      <use xlink:href="#DejaVuSans-66" transform="translate(686.082031 0)"/>
      <use xlink:href="#DejaVuSans-2e" transform="translate(714.037109 0)"/>
      <use xlink:href="#DejaVuSans-20" transform="translate(745.824219 0)"/>
      <use xlink:href="#DejaVuSans-28" transform="translate(777.611328 0)"/>
      <use xlink:href="#DejaVuSans-35" transform="translate(816.625 0)"/>
      <use xlink:href="#DejaVuSans-30" transform="translate(880.248047 0)"/>
      <use xlink:href="#DejaVuSans-30" transform="translate(943.871094 0)"/>
      <use xlink:href="#DejaVuSans-4d" transform="translate(1007.494141 0)"/>
      <use xlink:href="#DejaVuSans-29" transform="translate(1093.773438 0)"/>
     </g>
    </g>
    <g id="line2d_27">
     <path d="M 335.876684 139.699145 
L 344.206684 139.699145 
L 352.536684 139.699145 
" style="fill: none; stroke: #7f7f7f; stroke-width: 1.5; stroke-linecap: square"/>
    </g>
    <g id="text_22">
     <!-- NT-MS V2 (500M) -->
     <g transform="translate(359.200684 142.614645) scale(0.0833 -0.0833)">
      <use xlink:href="#DejaVuSans-4e"/>
      <use xlink:href="#DejaVuSans-54" transform="translate(74.804688 0)"/>
      <use xlink:href="#DejaVuSans-2d" transform="translate(126.763672 0)"/>
      <use xlink:href="#DejaVuSans-4d" transform="translate(162.847656 0)"/>
      <use xlink:href="#DejaVuSans-53" transform="translate(249.126953 0)"/>
      <use xlink:href="#DejaVuSans-20" transform="translate(312.603516 0)"/>
      <use xlink:href="#DejaVuSans-56" transform="translate(344.390625 0)"/>
      <use xlink:href="#DejaVuSans-32" transform="translate(412.798828 0)"/>
      <use xlink:href="#DejaVuSans-20" transform="translate(476.421875 0)"/>
      <use xlink:href="#DejaVuSans-28" transform="translate(508.208984 0)"/>
      <use xlink:href="#DejaVuSans-35" transform="translate(547.222656 0)"/>
      <use xlink:href="#DejaVuSans-30" transform="translate(610.845703 0)"/>
      <use xlink:href="#DejaVuSans-30" transform="translate(674.46875 0)"/>
      <use xlink:href="#DejaVuSans-4d" transform="translate(738.091797 0)"/>
      <use xlink:href="#DejaVuSans-29" transform="translate(824.371094 0)"/>
     </g>
    </g>
   </g>
  </g>
 </g>
 <defs>
  <clipPath id="pc2f86bc461">
   <rect x="72" y="43.2" width="446.4" height="277.2"/>
  </clipPath>
 </defs>
</svg>
