<?xml version="1.0" encoding="utf-8" standalone="no"?>
<!DOCTYPE svg PUBLIC "-//W3C//DTD SVG 1.1//EN"
  "http://www.w3.org/Graphics/SVG/1.1/DTD/svg11.dtd">
<svg xmlns:xlink="http://www.w3.org/1999/xlink" width="576pt" height="360pt" viewBox="0 0 576 360" xmlns="http://www.w3.org/2000/svg" version="1.1">
 <metadata>
  <rdf:RDF xmlns:dc="http://purl.org/dc/elements/1.1/" xmlns:cc="http://creativecommons.org/ns#" xmlns:rdf="http://www.w3.org/1999/02/22-rdf-syntax-ns#">
   <cc:Work>
    <dc:type rdf:resource="http://purl.org/dc/dcmitype/StillImage"/>
    <dc:date>2025-01-07T03:55:01.513449</dc:date>
    <dc:format>image/svg+xml</dc:format>
    <dc:creator>
     <cc:Agent>
      <dc:title>Matplotlib v3.10.0, https://matplotlib.org/</dc:title>
     </cc:Agent>
    </dc:creator>
   </cc:Work>
  </rdf:RDF>
 </metadata>
 <defs>
  <style type="text/css">*{stroke-linejoin: round; stroke-linecap: butt}</style>
 </defs>
 <g id="figure_1">
  <g id="patch_1">
   <path d="M 0 360 
L 576 360 
L 576 0 
L 0 0 
z
" style="fill: #ffffff"/>
  </g>
  <g id="axes_1">
   <g id="patch_2">
    <path d="M 72 320.4 
L 518.4 320.4 
L 518.4 43.2 
L 72 43.2 
z
" style="fill: #ffffff"/>
   </g>
   <g id="matplotlib.axis_1">
    <g id="xtick_1">
     <g id="line2d_1">
      <defs>
       <path id="m3e23d92260" d="M 0 0 
L 0 3.5 
" style="stroke: #000000; stroke-width: 0.8"/>
      </defs>
      <g>
       <use xlink:href="#m3e23d92260" x="157.672727" y="320.4" style="stroke: #000000; stroke-width: 0.8"/>
      </g>
     </g>
     <g id="text_1">
      <!-- 2000 -->
      <g transform="translate(144.947727 334.998438) scale(0.1 -0.1)">
       <defs>
        <path id="DejaVuSans-32" d="M 1228 531 
L 3431 531 
L 3431 0 
L 469 0 
L 469 531 
Q 828 903 1448 1529 
Q 2069 2156 2228 2338 
Q 2531 2678 2651 2914 
Q 2772 3150 2772 3378 
Q 2772 3750 2511 3984 
Q 2250 4219 1831 4219 
Q 1534 4219 1204 4116 
Q 875 4013 500 3803 
L 500 4441 
Q 881 4594 1212 4672 
Q 1544 4750 1819 4750 
Q 2544 4750 2975 4387 
Q 3406 4025 3406 3419 
Q 3406 3131 3298 2873 
Q 3191 2616 2906 2266 
Q 2828 2175 2409 1742 
Q 1991 1309 1228 531 
z
" transform="scale(0.015625)"/>
        <path id="DejaVuSans-30" d="M 2034 4250 
Q 1547 4250 1301 3770 
Q 1056 3291 1056 2328 
Q 1056 1369 1301 889 
Q 1547 409 2034 409 
Q 2525 409 2770 889 
Q 3016 1369 3016 2328 
Q 3016 3291 2770 3770 
Q 2525 4250 2034 4250 
z
M 2034 4750 
Q 2819 4750 3233 4129 
Q 3647 3509 3647 2328 
Q 3647 1150 3233 529 
Q 2819 -91 2034 -91 
Q 1250 -91 836 529 
Q 422 1150 422 2328 
Q 422 3509 836 4129 
Q 1250 4750 2034 4750 
z
" transform="scale(0.015625)"/>
       </defs>
       <use xlink:href="#DejaVuSans-32"/>
       <use xlink:href="#DejaVuSans-30" transform="translate(63.623047 0)"/>
       <use xlink:href="#DejaVuSans-30" transform="translate(127.246094 0)"/>
       <use xlink:href="#DejaVuSans-30" transform="translate(190.869141 0)"/>
      </g>
     </g>
    </g>
    <g id="xtick_2">
     <g id="line2d_2">
      <g>
       <use xlink:href="#m3e23d92260" x="247.854545" y="320.4" style="stroke: #000000; stroke-width: 0.8"/>
      </g>
     </g>
     <g id="text_2">
      <!-- 4000 -->
      <g transform="translate(235.129545 334.998438) scale(0.1 -0.1)">
       <defs>
        <path id="DejaVuSans-34" d="M 2419 4116 
L 825 1625 
L 2419 1625 
L 2419 4116 
z
M 2253 4666 
L 3047 4666 
L 3047 1625 
L 3713 1625 
L 3713 1100 
L 3047 1100 
L 3047 0 
L 2419 0 
L 2419 1100 
L 313 1100 
L 313 1709 
L 2253 4666 
z
" transform="scale(0.015625)"/>
       </defs>
       <use xlink:href="#DejaVuSans-34"/>
       <use xlink:href="#DejaVuSans-30" transform="translate(63.623047 0)"/>
       <use xlink:href="#DejaVuSans-30" transform="translate(127.246094 0)"/>
       <use xlink:href="#DejaVuSans-30" transform="translate(190.869141 0)"/>
      </g>
     </g>
    </g>
    <g id="xtick_3">
     <g id="line2d_3">
      <g>
       <use xlink:href="#m3e23d92260" x="338.036364" y="320.4" style="stroke: #000000; stroke-width: 0.8"/>
      </g>
     </g>
     <g id="text_3">
      <!-- 6000 -->
      <g transform="translate(325.311364 334.998438) scale(0.1 -0.1)">
       <defs>
        <path id="DejaVuSans-36" d="M 2113 2584 
Q 1688 2584 1439 2293 
Q 1191 2003 1191 1497 
Q 1191 994 1439 701 
Q 1688 409 2113 409 
Q 2538 409 2786 701 
Q 3034 994 3034 1497 
Q 3034 2003 2786 2293 
Q 2538 2584 2113 2584 
z
M 3366 4563 
L 3366 3988 
Q 3128 4100 2886 4159 
Q 2644 4219 2406 4219 
Q 1781 4219 1451 3797 
Q 1122 3375 1075 2522 
Q 1259 2794 1537 2939 
Q 1816 3084 2150 3084 
Q 2853 3084 3261 2657 
Q 3669 2231 3669 1497 
Q 3669 778 3244 343 
Q 2819 -91 2113 -91 
Q 1303 -91 875 529 
Q 447 1150 447 2328 
Q 447 3434 972 4092 
Q 1497 4750 2381 4750 
Q 2619 4750 2861 4703 
Q 3103 4656 3366 4563 
z
" transform="scale(0.015625)"/>
       </defs>
       <use xlink:href="#DejaVuSans-36"/>
       <use xlink:href="#DejaVuSans-30" transform="translate(63.623047 0)"/>
       <use xlink:href="#DejaVuSans-30" transform="translate(127.246094 0)"/>
       <use xlink:href="#DejaVuSans-30" transform="translate(190.869141 0)"/>
      </g>
     </g>
    </g>
    <g id="xtick_4">
     <g id="line2d_4">
      <g>
       <use xlink:href="#m3e23d92260" x="428.218182" y="320.4" style="stroke: #000000; stroke-width: 0.8"/>
      </g>
     </g>
     <g id="text_4">
      <!-- 8000 -->
      <g transform="translate(415.493182 334.998438) scale(0.1 -0.1)">
       <defs>
        <path id="DejaVuSans-38" d="M 2034 2216 
Q 1584 2216 1326 1975 
Q 1069 1734 1069 1313 
Q 1069 891 1326 650 
Q 1584 409 2034 409 
Q 2484 409 2743 651 
Q 3003 894 3003 1313 
Q 3003 1734 2745 1975 
Q 2488 2216 2034 2216 
z
M 1403 2484 
Q 997 2584 770 2862 
Q 544 3141 544 3541 
Q 544 4100 942 4425 
Q 1341 4750 2034 4750 
Q 2731 4750 3128 4425 
Q 3525 4100 3525 3541 
Q 3525 3141 3298 2862 
Q 3072 2584 2669 2484 
Q 3125 2378 3379 2068 
Q 3634 1759 3634 1313 
Q 3634 634 3220 271 
Q 2806 -91 2034 -91 
Q 1263 -91 848 271 
Q 434 634 434 1313 
Q 434 1759 690 2068 
Q 947 2378 1403 2484 
z
M 1172 3481 
Q 1172 3119 1398 2916 
Q 1625 2713 2034 2713 
Q 2441 2713 2670 2916 
Q 2900 3119 2900 3481 
Q 2900 3844 2670 4047 
Q 2441 4250 2034 4250 
Q 1625 4250 1398 4047 
Q 1172 3844 1172 3481 
z
" transform="scale(0.015625)"/>
       </defs>
       <use xlink:href="#DejaVuSans-38"/>
       <use xlink:href="#DejaVuSans-30" transform="translate(63.623047 0)"/>
       <use xlink:href="#DejaVuSans-30" transform="translate(127.246094 0)"/>
       <use xlink:href="#DejaVuSans-30" transform="translate(190.869141 0)"/>
      </g>
     </g>
    </g>
    <g id="xtick_5">
     <g id="line2d_5">
      <g>
       <use xlink:href="#m3e23d92260" x="518.4" y="320.4" style="stroke: #000000; stroke-width: 0.8"/>
      </g>
     </g>
     <g id="text_5">
      <!-- 10000 -->
      <g transform="translate(502.49375 334.998438) scale(0.1 -0.1)">
       <defs>
        <path id="DejaVuSans-31" d="M 794 531 
L 1825 531 
L 1825 4091 
L 703 3866 
L 703 4441 
L 1819 4666 
L 2450 4666 
L 2450 531 
L 3481 531 
L 3481 0 
L 794 0 
L 794 531 
z
" transform="scale(0.015625)"/>
       </defs>
       <use xlink:href="#DejaVuSans-31"/>
       <use xlink:href="#DejaVuSans-30" transform="translate(63.623047 0)"/>
       <use xlink:href="#DejaVuSans-30" transform="translate(127.246094 0)"/>
       <use xlink:href="#DejaVuSans-30" transform="translate(190.869141 0)"/>
       <use xlink:href="#DejaVuSans-30" transform="translate(254.492188 0)"/>
      </g>
     </g>
    </g>
    <g id="text_6">
     <!-- Training steps -->
     <g transform="translate(260.464844 348.676562) scale(0.1 -0.1)">
      <defs>
       <path id="DejaVuSans-54" d="M -19 4666 
L 3928 4666 
L 3928 4134 
L 2272 4134 
L 2272 0 
L 1638 0 
L 1638 4134 
L -19 4134 
L -19 4666 
z
" transform="scale(0.015625)"/>
       <path id="DejaVuSans-72" d="M 2631 2963 
Q 2534 3019 2420 3045 
Q 2306 3072 2169 3072 
Q 1681 3072 1420 2755 
Q 1159 2438 1159 1844 
L 1159 0 
L 581 0 
L 581 3500 
L 1159 3500 
L 1159 2956 
Q 1341 3275 1631 3429 
Q 1922 3584 2338 3584 
Q 2397 3584 2469 3576 
Q 2541 3569 2628 3553 
L 2631 2963 
z
" transform="scale(0.015625)"/>
       <path id="DejaVuSans-61" d="M 2194 1759 
Q 1497 1759 1228 1600 
Q 959 1441 959 1056 
Q 959 750 1161 570 
Q 1363 391 1709 391 
Q 2188 391 2477 730 
Q 2766 1069 2766 1631 
L 2766 1759 
L 2194 1759 
z
M 3341 1997 
L 3341 0 
L 2766 0 
L 2766 531 
Q 2569 213 2275 61 
Q 1981 -91 1556 -91 
Q 1019 -91 701 211 
Q 384 513 384 1019 
Q 384 1609 779 1909 
Q 1175 2209 1959 2209 
L 2766 2209 
L 2766 2266 
Q 2766 2663 2505 2880 
Q 2244 3097 1772 3097 
Q 1472 3097 1187 3025 
Q 903 2953 641 2809 
L 641 3341 
Q 956 3463 1253 3523 
Q 1550 3584 1831 3584 
Q 2591 3584 2966 3190 
Q 3341 2797 3341 1997 
z
" transform="scale(0.015625)"/>
       <path id="DejaVuSans-69" d="M 603 3500 
L 1178 3500 
L 1178 0 
L 603 0 
L 603 3500 
z
M 603 4863 
L 1178 4863 
L 1178 4134 
L 603 4134 
L 603 4863 
z
" transform="scale(0.015625)"/>
       <path id="DejaVuSans-6e" d="M 3513 2113 
L 3513 0 
L 2938 0 
L 2938 2094 
Q 2938 2591 2744 2837 
Q 2550 3084 2163 3084 
Q 1697 3084 1428 2787 
Q 1159 2491 1159 1978 
L 1159 0 
L 581 0 
L 581 3500 
L 1159 3500 
L 1159 2956 
Q 1366 3272 1645 3428 
Q 1925 3584 2291 3584 
Q 2894 3584 3203 3211 
Q 3513 2838 3513 2113 
z
" transform="scale(0.015625)"/>
       <path id="DejaVuSans-67" d="M 2906 1791 
Q 2906 2416 2648 2759 
Q 2391 3103 1925 3103 
Q 1463 3103 1205 2759 
Q 947 2416 947 1791 
Q 947 1169 1205 825 
Q 1463 481 1925 481 
Q 2391 481 2648 825 
Q 2906 1169 2906 1791 
z
M 3481 434 
Q 3481 -459 3084 -895 
Q 2688 -1331 1869 -1331 
Q 1566 -1331 1297 -1286 
Q 1028 -1241 775 -1147 
L 775 -588 
Q 1028 -725 1275 -790 
Q 1522 -856 1778 -856 
Q 2344 -856 2625 -561 
Q 2906 -266 2906 331 
L 2906 616 
Q 2728 306 2450 153 
Q 2172 0 1784 0 
Q 1141 0 747 490 
Q 353 981 353 1791 
Q 353 2603 747 3093 
Q 1141 3584 1784 3584 
Q 2172 3584 2450 3431 
Q 2728 3278 2906 2969 
L 2906 3500 
L 3481 3500 
L 3481 434 
z
" transform="scale(0.015625)"/>
       <path id="DejaVuSans-20" transform="scale(0.015625)"/>
       <path id="DejaVuSans-73" d="M 2834 3397 
L 2834 2853 
Q 2591 2978 2328 3040 
Q 2066 3103 1784 3103 
Q 1356 3103 1142 2972 
Q 928 2841 928 2578 
Q 928 2378 1081 2264 
Q 1234 2150 1697 2047 
L 1894 2003 
Q 2506 1872 2764 1633 
Q 3022 1394 3022 966 
Q 3022 478 2636 193 
Q 2250 -91 1575 -91 
Q 1294 -91 989 -36 
Q 684 19 347 128 
L 347 722 
Q 666 556 975 473 
Q 1284 391 1588 391 
Q 1994 391 2212 530 
Q 2431 669 2431 922 
Q 2431 1156 2273 1281 
Q 2116 1406 1581 1522 
L 1381 1569 
Q 847 1681 609 1914 
Q 372 2147 372 2553 
Q 372 3047 722 3315 
Q 1072 3584 1716 3584 
Q 2034 3584 2315 3537 
Q 2597 3491 2834 3397 
z
" transform="scale(0.015625)"/>
       <path id="DejaVuSans-74" d="M 1172 4494 
L 1172 3500 
L 2356 3500 
L 2356 3053 
L 1172 3053 
L 1172 1153 
Q 1172 725 1289 603 
Q 1406 481 1766 481 
L 2356 481 
L 2356 0 
L 1766 0 
Q 1100 0 847 248 
Q 594 497 594 1153 
L 594 3053 
L 172 3053 
L 172 3500 
L 594 3500 
L 594 4494 
L 1172 4494 
z
" transform="scale(0.015625)"/>
       <path id="DejaVuSans-65" d="M 3597 1894 
L 3597 1613 
L 953 1613 
Q 991 1019 1311 708 
Q 1631 397 2203 397 
Q 2534 397 2845 478 
Q 3156 559 3463 722 
L 3463 178 
Q 3153 47 2828 -22 
Q 2503 -91 2169 -91 
Q 1331 -91 842 396 
Q 353 884 353 1716 
Q 353 2575 817 3079 
Q 1281 3584 2069 3584 
Q 2775 3584 3186 3129 
Q 3597 2675 3597 1894 
z
M 3022 2063 
Q 3016 2534 2758 2815 
Q 2500 3097 2075 3097 
Q 1594 3097 1305 2825 
Q 1016 2553 972 2059 
L 3022 2063 
z
" transform="scale(0.015625)"/>
       <path id="DejaVuSans-70" d="M 1159 525 
L 1159 -1331 
L 581 -1331 
L 581 3500 
L 1159 3500 
L 1159 2969 
Q 1341 3281 1617 3432 
Q 1894 3584 2278 3584 
Q 2916 3584 3314 3078 
Q 3713 2572 3713 1747 
Q 3713 922 3314 415 
Q 2916 -91 2278 -91 
Q 1894 -91 1617 61 
Q 1341 213 1159 525 
z
M 3116 1747 
Q 3116 2381 2855 2742 
Q 2594 3103 2138 3103 
Q 1681 3103 1420 2742 
Q 1159 2381 1159 1747 
Q 1159 1113 1420 752 
Q 1681 391 2138 391 
Q 2594 391 2855 752 
Q 3116 1113 3116 1747 
z
" transform="scale(0.015625)"/>
      </defs>
      <use xlink:href="#DejaVuSans-54"/>
      <use xlink:href="#DejaVuSans-72" transform="translate(46.333984 0)"/>
      <use xlink:href="#DejaVuSans-61" transform="translate(87.447266 0)"/>
      <use xlink:href="#DejaVuSans-69" transform="translate(148.726562 0)"/>
      <use xlink:href="#DejaVuSans-6e" transform="translate(176.509766 0)"/>
      <use xlink:href="#DejaVuSans-69" transform="translate(239.888672 0)"/>
      <use xlink:href="#DejaVuSans-6e" transform="translate(267.671875 0)"/>
      <use xlink:href="#DejaVuSans-67" transform="translate(331.050781 0)"/>
      <use xlink:href="#DejaVuSans-20" transform="translate(394.527344 0)"/>
      <use xlink:href="#DejaVuSans-73" transform="translate(426.314453 0)"/>
      <use xlink:href="#DejaVuSans-74" transform="translate(478.414062 0)"/>
      <use xlink:href="#DejaVuSans-65" transform="translate(517.623047 0)"/>
      <use xlink:href="#DejaVuSans-70" transform="translate(579.146484 0)"/>
      <use xlink:href="#DejaVuSans-73" transform="translate(642.623047 0)"/>
     </g>
    </g>
   </g>
   <g id="matplotlib.axis_2">
    <g id="ytick_1">
     <g id="line2d_6">
      <defs>
       <path id="mfa03b6398a" d="M 0 0 
L -3.5 0 
" style="stroke: #000000; stroke-width: 0.8"/>
      </defs>
      <g>
       <use xlink:href="#mfa03b6398a" x="72" y="311.795244" style="stroke: #000000; stroke-width: 0.8"/>
      </g>
     </g>
     <g id="text_7">
      <!-- 0.4 -->
      <g transform="translate(49.096875 315.594463) scale(0.1 -0.1)">
       <defs>
        <path id="DejaVuSans-2e" d="M 684 794 
L 1344 794 
L 1344 0 
L 684 0 
L 684 794 
z
" transform="scale(0.015625)"/>
       </defs>
       <use xlink:href="#DejaVuSans-30"/>
       <use xlink:href="#DejaVuSans-2e" transform="translate(63.623047 0)"/>
       <use xlink:href="#DejaVuSans-34" transform="translate(95.410156 0)"/>
      </g>
     </g>
    </g>
    <g id="ytick_2">
     <g id="line2d_7">
      <g>
       <use xlink:href="#mfa03b6398a" x="72" y="261.854697" style="stroke: #000000; stroke-width: 0.8"/>
      </g>
     </g>
     <g id="text_8">
      <!-- 0.5 -->
      <g transform="translate(49.096875 265.653916) scale(0.1 -0.1)">
       <defs>
        <path id="DejaVuSans-35" d="M 691 4666 
L 3169 4666 
L 3169 4134 
L 1269 4134 
L 1269 2991 
Q 1406 3038 1543 3061 
Q 1681 3084 1819 3084 
Q 2600 3084 3056 2656 
Q 3513 2228 3513 1497 
Q 3513 744 3044 326 
Q 2575 -91 1722 -91 
Q 1428 -91 1123 -41 
Q 819 9 494 109 
L 494 744 
Q 775 591 1075 516 
Q 1375 441 1709 441 
Q 2250 441 2565 725 
Q 2881 1009 2881 1497 
Q 2881 1984 2565 2268 
Q 2250 2553 1709 2553 
Q 1456 2553 1204 2497 
Q 953 2441 691 2322 
L 691 4666 
z
" transform="scale(0.015625)"/>
       </defs>
       <use xlink:href="#DejaVuSans-30"/>
       <use xlink:href="#DejaVuSans-2e" transform="translate(63.623047 0)"/>
       <use xlink:href="#DejaVuSans-35" transform="translate(95.410156 0)"/>
      </g>
     </g>
    </g>
    <g id="ytick_3">
     <g id="line2d_8">
      <g>
       <use xlink:href="#mfa03b6398a" x="72" y="211.91415" style="stroke: #000000; stroke-width: 0.8"/>
      </g>
     </g>
     <g id="text_9">
      <!-- 0.6 -->
      <g transform="translate(49.096875 215.713369) scale(0.1 -0.1)">
       <use xlink:href="#DejaVuSans-30"/>
       <use xlink:href="#DejaVuSans-2e" transform="translate(63.623047 0)"/>
       <use xlink:href="#DejaVuSans-36" transform="translate(95.410156 0)"/>
      </g>
     </g>
    </g>
    <g id="ytick_4">
     <g id="line2d_9">
      <g>
       <use xlink:href="#mfa03b6398a" x="72" y="161.973603" style="stroke: #000000; stroke-width: 0.8"/>
      </g>
     </g>
     <g id="text_10">
      <!-- 0.7 -->
      <g transform="translate(49.096875 165.772822) scale(0.1 -0.1)">
       <defs>
        <path id="DejaVuSans-37" d="M 525 4666 
L 3525 4666 
L 3525 4397 
L 1831 0 
L 1172 0 
L 2766 4134 
L 525 4134 
L 525 4666 
z
" transform="scale(0.015625)"/>
       </defs>
       <use xlink:href="#DejaVuSans-30"/>
       <use xlink:href="#DejaVuSans-2e" transform="translate(63.623047 0)"/>
       <use xlink:href="#DejaVuSans-37" transform="translate(95.410156 0)"/>
      </g>
     </g>
    </g>
    <g id="ytick_5">
     <g id="line2d_10">
      <g>
       <use xlink:href="#mfa03b6398a" x="72" y="112.033056" style="stroke: #000000; stroke-width: 0.8"/>
      </g>
     </g>
     <g id="text_11">
      <!-- 0.8 -->
      <g transform="translate(49.096875 115.832275) scale(0.1 -0.1)">
       <use xlink:href="#DejaVuSans-30"/>
       <use xlink:href="#DejaVuSans-2e" transform="translate(63.623047 0)"/>
       <use xlink:href="#DejaVuSans-38" transform="translate(95.410156 0)"/>
      </g>
     </g>
    </g>
    <g id="ytick_6">
     <g id="line2d_11">
      <g>
       <use xlink:href="#mfa03b6398a" x="72" y="62.092509" style="stroke: #000000; stroke-width: 0.8"/>
      </g>
     </g>
     <g id="text_12">
      <!-- 0.9 -->
      <g transform="translate(49.096875 65.891728) scale(0.1 -0.1)">
       <defs>
        <path id="DejaVuSans-39" d="M 703 97 
L 703 672 
Q 941 559 1184 500 
Q 1428 441 1663 441 
Q 2288 441 2617 861 
Q 2947 1281 2994 2138 
Q 2813 1869 2534 1725 
Q 2256 1581 1919 1581 
Q 1219 1581 811 2004 
Q 403 2428 403 3163 
Q 403 3881 828 4315 
Q 1253 4750 1959 4750 
Q 2769 4750 3195 4129 
Q 3622 3509 3622 2328 
Q 3622 1225 3098 567 
Q 2575 -91 1691 -91 
Q 1453 -91 1209 -44 
Q 966 3 703 97 
z
M 1959 2075 
Q 2384 2075 2632 2365 
Q 2881 2656 2881 3163 
Q 2881 3666 2632 3958 
Q 2384 4250 1959 4250 
Q 1534 4250 1286 3958 
Q 1038 3666 1038 3163 
Q 1038 2656 1286 2365 
Q 1534 2075 1959 2075 
z
" transform="scale(0.015625)"/>
       </defs>
       <use xlink:href="#DejaVuSans-30"/>
       <use xlink:href="#DejaVuSans-2e" transform="translate(63.623047 0)"/>
       <use xlink:href="#DejaVuSans-39" transform="translate(95.410156 0)"/>
      </g>
     </g>
    </g>
    <g id="text_13">
     <!-- Loss -->
     <g transform="translate(43.017187 192.767187) rotate(-90) scale(0.1 -0.1)">
      <defs>
       <path id="DejaVuSans-4c" d="M 628 4666 
L 1259 4666 
L 1259 531 
L 3531 531 
L 3531 0 
L 628 0 
L 628 4666 
z
" transform="scale(0.015625)"/>
       <path id="DejaVuSans-6f" d="M 1959 3097 
Q 1497 3097 1228 2736 
Q 959 2375 959 1747 
Q 959 1119 1226 758 
Q 1494 397 1959 397 
Q 2419 397 2687 759 
Q 2956 1122 2956 1747 
Q 2956 2369 2687 2733 
Q 2419 3097 1959 3097 
z
M 1959 3584 
Q 2709 3584 3137 3096 
Q 3566 2609 3566 1747 
Q 3566 888 3137 398 
Q 2709 -91 1959 -91 
Q 1206 -91 779 398 
Q 353 888 353 1747 
Q 353 2609 779 3096 
Q 1206 3584 1959 3584 
z
" transform="scale(0.015625)"/>
      </defs>
      <use xlink:href="#DejaVuSans-4c"/>
      <use xlink:href="#DejaVuSans-6f" transform="translate(53.962891 0)"/>
      <use xlink:href="#DejaVuSans-73" transform="translate(115.144531 0)"/>
      <use xlink:href="#DejaVuSans-73" transform="translate(167.244141 0)"/>
     </g>
    </g>
   </g>
   <g id="line2d_12">
    <path d="M 72 128.713199 
L 76.509091 150.187634 
L 81.018182 155.830916 
L 85.527273 166.967658 
L 90.036364 157.628775 
L 94.545455 173.859453 
L 99.054545 175.307729 
L 103.563636 164.520571 
L 108.072727 175.257788 
L 112.581818 173.260166 
L 117.090909 177.105589 
L 121.6 179.652556 
L 126.109091 182.149584 
L 130.618182 162.273246 
L 135.127273 167.017598 
L 139.636364 171.76195 
L 144.145455 181.400476 
L 148.654545 172.061593 
L 153.163636 183.997384 
L 157.672727 190.539596 
L 162.181818 172.311296 
L 166.690909 167.966468 
L 171.2 179.552675 
L 175.709091 178.15434 
L 180.218182 185.845184 
L 184.727273 185.295838 
L 189.236364 182.69893 
L 193.745455 180.90107 
L 198.254545 177.954578 
L 202.763636 183.947444 
L 207.272727 189.440904 
L 211.781818 185.845184 
L 216.290909 185.645422 
L 220.8 194.984304 
L 225.309091 177.804756 
L 229.818182 186.843995 
L 234.327273 207.069917 
L 238.836364 182.74887 
L 243.345455 195.034245 
L 247.854545 186.744114 
L 252.363636 192.337455 
L 256.872727 192.836861 
L 261.381818 191.488466 
L 265.890909 194.385018 
L 270.4 191.987872 
L 274.909091 196.43258 
L 279.418182 185.345779 
L 283.927273 194.884423 
L 288.436364 199.379073 
L 292.945455 193.386207 
L 297.454545 196.732224 
L 301.963636 201.027111 
L 306.472727 184.996195 
L 310.981818 192.137693 
L 315.490909 191.88799 
L 320 192.037812 
L 324.509091 202.425446 
L 329.018182 206.47063 
L 333.527273 198.28038 
L 338.036364 188.342212 
L 342.545455 196.632342 
L 347.054545 195.383829 
L 351.563636 188.991439 
L 356.072727 197.830916 
L 360.581818 189.241141 
L 365.090909 187.24352 
L 369.6 191.138882 
L 374.109091 206.021165 
L 378.618182 206.320809 
L 383.127273 201.826159 
L 387.636364 192.587158 
L 392.145455 203.224495 
L 396.654545 208.218549 
L 401.163636 207.269679 
L 405.672727 216.808323 
L 410.181818 199.12937 
L 414.690909 216.958145 
L 419.2 191.538407 
L 423.709091 197.481332 
L 428.218182 205.072295 
L 432.727273 217.357669 
L 437.236364 219.005707 
L 441.745455 198.879667 
L 446.254545 194.684661 
L 450.763636 209.017598 
L 455.272727 202.525327 
L 459.781818 207.269679 
L 464.290909 197.181688 
L 468.8 199.528894 
L 473.309091 201.476576 
L 477.818182 198.330321 
L 482.327273 213.312485 
L 486.836364 206.170987 
L 491.345455 204.123424 
L 495.854545 206.071106 
L 500.363636 200.97717 
L 504.872727 220.703686 
L 509.381818 213.562188 
L 513.890909 209.816647 
L 518.4 213.212604 
" clip-path="url(#pa0446c11c0)" style="fill: none; stroke: #1f77b4; stroke-width: 1.5; stroke-linecap: square"/>
   </g>
   <g id="line2d_13">
    <path d="M 72 55.8 
L 76.509091 141.847562 
L 81.018182 143.845184 
L 85.527273 157.17931 
L 90.036364 152.285137 
L 94.545455 157.628775 
L 99.054545 165.619263 
L 103.563636 143.895125 
L 108.072727 156.080618 
L 112.581818 162.772652 
L 117.090909 156.130559 
L 121.6 156.530083 
L 126.109091 161.7239 
L 130.618182 144.594293 
L 135.127273 154.38264 
L 139.636364 159.426635 
L 144.145455 151.086564 
L 148.654545 153.833294 
L 153.163636 167.367182 
L 157.672727 171.961712 
L 162.181818 141.697741 
L 166.690909 160.375505 
L 171.2 172.960523 
L 175.709091 166.118668 
L 180.218182 175.207848 
L 184.727273 167.21736 
L 189.236364 169.165042 
L 193.745455 160.275624 
L 198.254545 178.204281 
L 202.763636 175.807134 
L 207.272727 184.596671 
L 211.781818 170.912961 
L 216.290909 183.298216 
L 220.8 168.965279 
L 225.309091 174.308918 
L 229.818182 185.945065 
L 234.327273 197.531272 
L 238.836364 179.402854 
L 243.345455 178.903448 
L 247.854545 183.847562 
L 252.363636 159.526516 
L 256.872727 182.299405 
L 261.381818 164.220927 
L 265.890909 170.763139 
L 270.4 183.6478 
L 274.909091 174.209037 
L 279.418182 184.197146 
L 283.927273 161.624019 
L 288.436364 176.556243 
L 292.945455 184.297027 
L 297.454545 179.203092 
L 301.963636 181.100832 
L 306.472727 164.370749 
L 310.981818 194.934364 
L 315.490909 181.8 
L 320 182.099643 
L 324.509091 172.461118 
L 329.018182 198.330321 
L 333.527273 186.744114 
L 338.036364 179.452794 
L 342.545455 190.439715 
L 347.054545 181.849941 
L 351.563636 182.299405 
L 356.072727 186.39453 
L 360.581818 179.203092 
L 365.090909 190.289893 
L 369.6 178.354102 
L 374.109091 184.097265 
L 378.618182 194.834483 
L 383.127273 186.744114 
L 387.636364 178.553864 
L 392.145455 191.388585 
L 396.654545 193.086564 
L 401.163636 194.484899 
L 405.672727 202.874911 
L 410.181818 183.248276 
L 414.690909 190.689417 
L 419.2 185.745303 
L 423.709091 193.885612 
L 428.218182 196.582402 
L 432.727273 203.823781 
L 437.236364 203.424257 
L 441.745455 201.326754 
L 446.254545 190.93912 
L 450.763636 206.370749 
L 455.272727 198.030678 
L 459.781818 210.016409 
L 464.290909 198.030678 
L 468.8 198.679905 
L 473.309091 204.872533 
L 477.818182 193.036623 
L 482.327273 199.578835 
L 486.836364 198.080618 
L 491.345455 208.218549 
L 495.854545 212.363615 
L 500.363636 202.025922 
L 504.872727 216.009275 
L 509.381818 206.220927 
L 513.890909 217.40761 
L 518.4 207.219738 
" clip-path="url(#pa0446c11c0)" style="fill: none; stroke: #ff7f0e; stroke-width: 1.5; stroke-linecap: square"/>
   </g>
   <g id="line2d_14">
    <path d="M 72 169.214982 
L 76.509091 182.099643 
L 81.018182 217.207848 
L 85.527273 213.662069 
L 90.036364 222.85113 
L 94.545455 225.847562 
L 99.054545 219.455172 
L 103.563636 202.425446 
L 108.072727 246.373127 
L 112.581818 227.4956 
L 117.090909 228.594293 
L 121.6 225.348157 
L 126.109091 244.575268 
L 130.618182 222.052081 
L 135.127273 231.740547 
L 139.636364 233.688228 
L 144.145455 241.229251 
L 148.654545 225.747681 
L 153.163636 225.797622 
L 157.672727 245.624019 
L 162.181818 240.380262 
L 166.690909 237.683472 
L 171.2 213.76195 
L 175.709091 226.596671 
L 180.218182 254.413555 
L 184.727273 235.985493 
L 189.236364 246.073484 
L 193.745455 231.590725 
L 198.254545 223.550297 
L 202.763636 237.833294 
L 207.272727 250.468252 
L 211.781818 238.232818 
L 216.290909 238.033056 
L 220.8 224.998573 
L 225.309091 233.088942 
L 229.818182 245.823781 
L 234.327273 232.339834 
L 238.836364 233.588347 
L 243.345455 245.923662 
L 247.854545 225.59786 
L 252.363636 232.589536 
L 256.872727 245.773841 
L 261.381818 244.575268 
L 265.890909 241.778597 
L 270.4 264.301784 
L 274.909091 233.488466 
L 279.418182 249.36956 
L 283.927273 254.563377 
L 288.436364 255.662069 
L 292.945455 244.82497 
L 297.454545 261.854697 
L 301.963636 243.626397 
L 306.472727 237.034245 
L 310.981818 244.225684 
L 315.490909 240.929608 
L 320 259.207848 
L 324.509091 252.815458 
L 329.018182 270.544352 
L 333.527273 253.564566 
L 338.036364 248.570511 
L 342.545455 234.886801 
L 347.054545 257.909394 
L 351.563636 244.325565 
L 356.072727 260.30654 
L 360.581818 238.931986 
L 365.090909 256.511058 
L 369.6 246.073484 
L 374.109091 248.121046 
L 378.618182 271.393341 
L 383.127273 259.107967 
L 387.636364 240.480143 
L 392.145455 268.147206 
L 396.654545 265.750059 
L 401.163636 262.404043 
L 405.672727 274.439715 
L 410.181818 259.857075 
L 414.690909 258.858264 
L 419.2 257.60975 
L 423.709091 264.801189 
L 428.218182 264.951011 
L 432.727273 272.691795 
L 437.236364 266.149584 
L 441.745455 250.917717 
L 446.254545 248.670392 
L 450.763636 269.695363 
L 455.272727 263.802378 
L 459.781818 273.790488 
L 464.290909 269.795244 
L 468.8 265.849941 
L 473.309091 259.657313 
L 477.818182 261.305351 
L 482.327273 266.149584 
L 486.836364 251.21736 
L 491.345455 273.14126 
L 495.854545 280.682283 
L 500.363636 260.905826 
L 504.872727 276.237574 
L 509.381818 257.659691 
L 513.890909 280.981926 
L 518.4 268.596671 
" clip-path="url(#pa0446c11c0)" style="fill: none; stroke: #2ca02c; stroke-width: 1.5; stroke-linecap: square"/>
   </g>
   <g id="line2d_15">
    <path d="M 72 109.286326 
L 76.509091 168.266112 
L 81.018182 182.848751 
L 85.527273 192.187634 
L 90.036364 205.272057 
L 94.545455 183.448038 
L 99.054545 194.085375 
L 103.563636 157.528894 
L 108.072727 211.364804 
L 112.581818 170.912961 
L 117.090909 210.216171 
L 121.6 190.639477 
L 126.109091 204.672771 
L 130.618182 193.436147 
L 135.127273 206.320809 
L 139.636364 182.049703 
L 144.145455 208.817836 
L 148.654545 196.38264 
L 153.163636 169.464685 
L 157.672727 200.777408 
L 162.181818 208.31843 
L 166.690909 195.084185 
L 171.2 202.924851 
L 175.709091 205.5717 
L 180.218182 207.769084 
L 184.727273 203.7239 
L 189.236364 215.409988 
L 193.745455 194.884423 
L 198.254545 207.36956 
L 202.763636 214.161474 
L 207.272727 216.50868 
L 211.781818 198.929608 
L 216.290909 203.324376 
L 220.8 199.928419 
L 225.309091 203.324376 
L 229.818182 212.213793 
L 234.327273 221.253032 
L 238.836364 204.62283 
L 243.345455 224.499168 
L 247.854545 195.583591 
L 252.363636 199.678716 
L 256.872727 218.456361 
L 261.381818 226.896314 
L 265.890909 195.184067 
L 270.4 222.551486 
L 274.909091 199.029489 
L 279.418182 203.274435 
L 283.927273 214.361237 
L 288.436364 217.40761 
L 292.945455 213.012842 
L 297.454545 224.399287 
L 301.963636 223.250654 
L 306.472727 200.128181 
L 310.981818 207.219738 
L 315.490909 223.000951 
L 320 224.149584 
L 324.509091 225.448038 
L 329.018182 248.320809 
L 333.527273 222.551486 
L 338.036364 227.195957 
L 342.545455 221.502735 
L 347.054545 217.107967 
L 351.563636 222.501546 
L 356.072727 227.595482 
L 360.581818 215.759572 
L 365.090909 219.25541 
L 369.6 227.4956 
L 374.109091 231.341023 
L 378.618182 233.488466 
L 383.127273 234.087753 
L 387.636364 212.014031 
L 392.145455 236.235196 
L 396.654545 229.992628 
L 401.163636 242.97717 
L 405.672727 247.671581 
L 410.181818 225.947444 
L 414.690909 249.868966 
L 419.2 228.044946 
L 423.709091 236.385018 
L 428.218182 236.235196 
L 432.727273 241.17931 
L 437.236364 243.726278 
L 441.745455 229.193579 
L 446.254545 220.054459 
L 450.763636 231.291082 
L 455.272727 242.07824 
L 459.781818 249.419501 
L 464.290909 251.067539 
L 468.8 240.829727 
L 473.309091 245.124614 
L 477.818182 231.09132 
L 482.327273 249.219738 
L 486.836364 233.438526 
L 491.345455 259.307729 
L 495.854545 252.915339 
L 500.363636 243.326754 
L 504.872727 262.703686 
L 509.381818 239.33151 
L 513.890909 255.312485 
L 518.4 251.966468 
" clip-path="url(#pa0446c11c0)" style="fill: none; stroke: #d62728; stroke-width: 1.5; stroke-linecap: square"/>
   </g>
   <g id="line2d_16">
    <path d="M 72 169.664447 
L 76.509091 189.740547 
L 81.018182 211.614507 
L 85.527273 213.612128 
L 90.036364 221.502735 
L 94.545455 218.006897 
L 99.054545 230.442093 
L 103.563636 217.157907 
L 108.072727 242.577646 
L 112.581818 227.146017 
L 117.090909 233.438526 
L 121.6 229.393341 
L 126.109091 239.431391 
L 130.618182 235.386207 
L 135.127273 229.343401 
L 139.636364 228.993817 
L 144.145455 257.310107 
L 148.654545 235.236385 
L 153.163636 230.442093 
L 157.672727 237.184067 
L 162.181818 253.414744 
L 166.690909 244.075862 
L 171.2 232.989061 
L 175.709091 234.187634 
L 180.218182 240.430202 
L 184.727273 244.375505 
L 189.236364 250.967658 
L 193.745455 236.434958 
L 198.254545 237.084185 
L 202.763636 242.577646 
L 207.272727 245.024732 
L 211.781818 248.270868 
L 216.290909 238.43258 
L 220.8 246.722711 
L 225.309091 246.023543 
L 229.818182 254.263734 
L 234.327273 259.707253 
L 238.836364 269.645422 
L 243.345455 258.858264 
L 247.854545 234.487277 
L 252.363636 250.767895 
L 256.872727 262.803567 
L 261.381818 260.955767 
L 265.890909 256.71082 
L 270.4 267.897503 
L 274.909091 254.413555 
L 279.418182 263.352913 
L 283.927273 272.392152 
L 288.436364 262.404043 
L 292.945455 258.258977 
L 297.454545 275.488466 
L 301.963636 252.11629 
L 306.472727 251.966468 
L 310.981818 254.313674 
L 315.490909 254.912961 
L 320 266.74887 
L 324.509091 264.301784 
L 329.018182 289.321998 
L 333.527273 274.239952 
L 338.036364 265.000951 
L 342.545455 253.364804 
L 347.054545 263.802378 
L 351.563636 256.161474 
L 356.072727 268.946254 
L 360.581818 252.365993 
L 365.090909 258.758383 
L 369.6 263.402854 
L 374.109091 269.695363 
L 378.618182 284.827348 
L 383.127273 279.683472 
L 387.636364 251.467063 
L 392.145455 283.17931 
L 396.654545 286.375505 
L 401.163636 289.022354 
L 405.672727 298.261356 
L 410.181818 297.162663 
L 414.690909 281.431391 
L 419.2 283.17931 
L 423.709091 297.662069 
L 428.218182 288.073484 
L 432.727273 299.859453 
L 437.236364 291.918906 
L 441.745455 287.174554 
L 446.254545 266.549108 
L 450.763636 295.115101 
L 455.272727 284.627586 
L 459.781818 294.965279 
L 464.290909 293.317241 
L 468.8 277.735791 
L 473.309091 301.657313 
L 477.818182 286.425446 
L 482.327273 292.118668 
L 486.836364 274.639477 
L 491.345455 305.253032 
L 495.854545 302.256599 
L 500.363636 293.666825 
L 504.872727 303.604994 
L 509.381818 281.631153 
L 513.890909 307.8 
L 518.4 305.602616 
" clip-path="url(#pa0446c11c0)" style="fill: none; stroke: #9467bd; stroke-width: 1.5; stroke-linecap: square"/>
   </g>
   <g id="line2d_17">
    <path d="M 72 156.480143 
L 76.509091 184.197146 
L 81.018182 198.530083 
L 85.527273 211.314863 
L 90.036364 217.207848 
L 94.545455 221.302973 
L 99.054545 220.953389 
L 103.563636 216.708442 
L 108.072727 237.48371 
L 112.581818 227.795244 
L 117.090909 234.387396 
L 121.6 232.140071 
L 126.109091 237.084185 
L 130.618182 223.100832 
L 135.127273 234.687039 
L 139.636364 227.096076 
L 144.145455 248.570511 
L 148.654545 227.945065 
L 153.163636 232.289893 
L 157.672727 222.251843 
L 162.181818 258.059215 
L 166.690909 233.638288 
L 171.2 224.049703 
L 175.709091 235.985493 
L 180.218182 241.478954 
L 184.727273 244.475386 
L 189.236364 251.117479 
L 193.745455 236.484899 
L 198.254545 229.493222 
L 202.763636 239.481332 
L 207.272727 249.819025 
L 211.781818 230.741736 
L 216.290909 239.231629 
L 220.8 239.081807 
L 225.309091 241.578835 
L 229.818182 245.624019 
L 234.327273 252.815458 
L 238.836364 244.874911 
L 243.345455 256.411177 
L 247.854545 225.248276 
L 252.363636 243.526516 
L 256.872727 254.962901 
L 261.381818 252.266112 
L 265.890909 245.474197 
L 270.4 265.400476 
L 274.909091 255.76195 
L 279.418182 258.708442 
L 283.927273 267.847562 
L 288.436364 259.657313 
L 292.945455 253.664447 
L 297.454545 269.295838 
L 301.963636 247.671581 
L 306.472727 236.934364 
L 310.981818 242.07824 
L 315.490909 252.166231 
L 320 267.148395 
L 324.509091 256.910583 
L 329.018182 278.984304 
L 333.527273 263.253032 
L 338.036364 260.905826 
L 342.545455 244.675149 
L 347.054545 257.55981 
L 351.563636 254.413555 
L 356.072727 265.150773 
L 360.581818 242.377883 
L 365.090909 254.513436 
L 369.6 252.715577 
L 374.109091 253.01522 
L 378.618182 282.679905 
L 383.127273 270.544352 
L 387.636364 253.314863 
L 392.145455 277.336266 
L 396.654545 274.04019 
L 401.163636 278.085375 
L 405.672727 278.385018 
L 410.181818 277.286326 
L 414.690909 277.436147 
L 419.2 264.90107 
L 423.709091 281.980737 
L 428.218182 268.247087 
L 432.727273 274.989061 
L 437.236364 281.780975 
L 441.745455 271.043757 
L 446.254545 257.959334 
L 450.763636 273.99025 
L 455.272727 277.63591 
L 459.781818 276.187634 
L 464.290909 279.48371 
L 468.8 270.044946 
L 473.309091 280.082996 
L 477.818182 269.595482 
L 482.327273 272.641855 
L 486.836364 262.004518 
L 491.345455 287.973603 
L 495.854545 282.180499 
L 500.363636 265.750059 
L 504.872727 298.610939 
L 509.381818 267.148395 
L 513.890909 294.515815 
L 518.4 283.429013 
" clip-path="url(#pa0446c11c0)" style="fill: none; stroke: #8c564b; stroke-width: 1.5; stroke-linecap: square"/>
   </g>
   <g id="line2d_18">
    <path d="M 72 108.78692 
L 76.509091 158.327943 
L 81.018182 188.19239 
L 85.527273 205.022354 
L 90.036364 199.828537 
L 94.545455 208.568133 
L 99.054545 207.419501 
L 103.563636 170.213793 
L 108.072727 171.861831 
L 112.581818 204.223306 
L 117.090909 220.15434 
L 121.6 191.688228 
L 126.109091 213.811891 
L 130.618182 205.022354 
L 135.127273 214.610939 
L 139.636364 209.367182 
L 144.145455 230.442093 
L 148.654545 204.223306 
L 153.163636 194.035434 
L 157.672727 186.494411 
L 162.181818 217.40761 
L 166.690909 198.679905 
L 171.2 209.117479 
L 175.709091 209.067539 
L 180.218182 217.857075 
L 184.727273 225.048514 
L 189.236364 234.73698 
L 193.745455 216.958145 
L 198.254545 198.530083 
L 202.763636 217.557432 
L 207.272727 217.857075 
L 211.781818 209.467063 
L 216.290909 212.713199 
L 220.8 224.599049 
L 225.309091 216.159096 
L 229.818182 229.692985 
L 234.327273 224.049703 
L 238.836364 210.965279 
L 243.345455 230.242331 
L 247.854545 215.959334 
L 252.363636 226.896314 
L 256.872727 233.388585 
L 261.381818 243.326754 
L 265.890909 216.009275 
L 270.4 240.580024 
L 274.909091 212.363615 
L 279.418182 228.644233 
L 283.927273 243.077051 
L 288.436364 234.037812 
L 292.945455 219.604994 
L 297.454545 244.425446 
L 301.963636 233.188823 
L 306.472727 210.815458 
L 310.981818 224.199524 
L 315.490909 227.395719 
L 320 238.532461 
L 324.509091 237.633532 
L 329.018182 252.266112 
L 333.527273 228.644233 
L 338.036364 232.04019 
L 342.545455 239.33151 
L 347.054545 225.997384 
L 351.563636 229.24352 
L 356.072727 227.245898 
L 360.581818 222.301784 
L 365.090909 231.191201 
L 369.6 231.740547 
L 374.109091 237.234007 
L 378.618182 263.203092 
L 383.127273 241.478954 
L 387.636364 231.14126 
L 392.145455 248.570511 
L 396.654545 241.279191 
L 401.163636 257.659691 
L 405.672727 265.450416 
L 410.181818 249.918906 
L 414.690909 256.111534 
L 419.2 246.073484 
L 423.709091 267.098454 
L 428.218182 243.426635 
L 432.727273 269.345779 
L 437.236364 261.954578 
L 441.745455 247.421879 
L 446.254545 232.639477 
L 450.763636 255.462307 
L 455.272727 259.157907 
L 459.781818 253.814269 
L 464.290909 258.308918 
L 468.8 250.817836 
L 473.309091 264.501546 
L 477.818182 244.82497 
L 482.327273 264.801189 
L 486.836364 249.769084 
L 491.345455 275.588347 
L 495.854545 273.440904 
L 500.363636 257.60975 
L 504.872727 281.081807 
L 509.381818 248.970036 
L 513.890909 277.086564 
L 518.4 270.594293 
" clip-path="url(#pa0446c11c0)" style="fill: none; stroke: #e377c2; stroke-width: 1.5; stroke-linecap: square"/>
   </g>
   <g id="line2d_19">
    <path d="M 72 151.486088 
L 76.509091 179.05327 
L 81.018182 204.672771 
L 85.527273 216.858264 
L 90.036364 229.143639 
L 94.545455 225.547919 
L 99.054545 223.050892 
L 103.563636 221.253032 
L 108.072727 227.795244 
L 112.581818 229.792866 
L 117.090909 205.122235 
L 121.6 168.865398 
L 126.109091 189.99025 
L 130.618182 163.222117 
L 135.127273 185.895125 
L 139.636364 218.106778 
L 144.145455 208.817836 
L 148.654545 214.161474 
L 153.163636 211.314863 
L 157.672727 215.160285 
L 162.181818 230.492033 
L 166.690909 197.681094 
L 171.2 176.706064 
L 175.709091 195.53365 
L 180.218182 185.545541 
L 184.727273 187.742925 
L 189.236364 212.86302 
L 193.745455 210.765517 
L 198.254545 204.073484 
L 202.763636 227.4956 
L 207.272727 232.04019 
L 211.781818 212.014031 
L 216.290909 202.425446 
L 220.8 214.011653 
L 225.309091 212.763139 
L 229.818182 209.866587 
L 234.327273 221.852319 
L 238.836364 226.097265 
L 243.345455 236.484899 
L 247.854545 221.203092 
L 252.363636 220.354102 
L 256.872727 237.084185 
L 261.381818 241.279191 
L 265.890909 230.691795 
L 270.4 239.581213 
L 274.909091 236.235196 
L 279.418182 245.923662 
L 283.927273 241.978359 
L 288.436364 245.524138 
L 292.945455 248.220927 
L 297.454545 257.759572 
L 301.963636 242.377883 
L 306.472727 236.734602 
L 310.981818 251.067539 
L 315.490909 253.264923 
L 320 260.606183 
L 324.509091 259.907015 
L 329.018182 276.237574 
L 333.527273 262.004518 
L 338.036364 253.264923 
L 342.545455 247.272057 
L 347.054545 256.610939 
L 351.563636 244.075862 
L 356.072727 263.9522 
L 360.581818 242.377883 
L 365.090909 251.816647 
L 369.6 256.061593 
L 374.109091 258.45874 
L 378.618182 285.077051 
L 383.127273 266.898692 
L 387.636364 244.675149 
L 392.145455 273.041379 
L 396.654545 283.329132 
L 401.163636 279.933175 
L 405.672727 279.333888 
L 410.181818 280.232818 
L 414.690909 273.99025 
L 419.2 275.588347 
L 423.709091 278.884423 
L 428.218182 270.34459 
L 432.727273 277.486088 
L 437.236364 277.835672 
L 441.745455 271.593103 
L 446.254545 254.313674 
L 450.763636 280.482521 
L 455.272727 276.886801 
L 459.781818 284.577646 
L 464.290909 276.337455 
L 468.8 270.893936 
L 473.309091 283.329132 
L 477.818182 271.343401 
L 482.327273 288.522949 
L 486.836364 271.443282 
L 491.345455 297.612128 
L 495.854545 288.972414 
L 500.363636 278.385018 
L 504.872727 297.512247 
L 509.381818 267.098454 
L 513.890909 297.362426 
L 518.4 292.018787 
" clip-path="url(#pa0446c11c0)" style="fill: none; stroke: #7f7f7f; stroke-width: 1.5; stroke-linecap: square"/>
   </g>
   <g id="patch_3">
    <path d="M 72 320.4 
L 72 43.2 
" style="fill: none; stroke: #000000; stroke-width: 0.8; stroke-linejoin: miter; stroke-linecap: square"/>
   </g>
   <g id="patch_4">
    <path d="M 518.4 320.4 
L 518.4 43.2 
" style="fill: none; stroke: #000000; stroke-width: 0.8; stroke-linejoin: miter; stroke-linecap: square"/>
   </g>
   <g id="patch_5">
    <path d="M 72 320.4 
L 518.4 320.4 
" style="fill: none; stroke: #000000; stroke-width: 0.8; stroke-linejoin: miter; stroke-linecap: square"/>
   </g>
   <g id="patch_6">
    <path d="M 72 43.2 
L 518.4 43.2 
" style="fill: none; stroke: #000000; stroke-width: 0.8; stroke-linejoin: miter; stroke-linecap: square"/>
   </g>
   <g id="text_14">
    <!-- H3K27ac -->
    <g transform="translate(268.324687 37.2) scale(0.12 -0.12)">
     <defs>
      <path id="DejaVuSans-48" d="M 628 4666 
L 1259 4666 
L 1259 2753 
L 3553 2753 
L 3553 4666 
L 4184 4666 
L 4184 0 
L 3553 0 
L 3553 2222 
L 1259 2222 
L 1259 0 
L 628 0 
L 628 4666 
z
" transform="scale(0.015625)"/>
      <path id="DejaVuSans-33" d="M 2597 2516 
Q 3050 2419 3304 2112 
Q 3559 1806 3559 1356 
Q 3559 666 3084 287 
Q 2609 -91 1734 -91 
Q 1441 -91 1130 -33 
Q 819 25 488 141 
L 488 750 
Q 750 597 1062 519 
Q 1375 441 1716 441 
Q 2309 441 2620 675 
Q 2931 909 2931 1356 
Q 2931 1769 2642 2001 
Q 2353 2234 1838 2234 
L 1294 2234 
L 1294 2753 
L 1863 2753 
Q 2328 2753 2575 2939 
Q 2822 3125 2822 3475 
Q 2822 3834 2567 4026 
Q 2313 4219 1838 4219 
Q 1578 4219 1281 4162 
Q 984 4106 628 3988 
L 628 4550 
Q 988 4650 1302 4700 
Q 1616 4750 1894 4750 
Q 2613 4750 3031 4423 
Q 3450 4097 3450 3541 
Q 3450 3153 3228 2886 
Q 3006 2619 2597 2516 
z
" transform="scale(0.015625)"/>
      <path id="DejaVuSans-4b" d="M 628 4666 
L 1259 4666 
L 1259 2694 
L 3353 4666 
L 4166 4666 
L 1850 2491 
L 4331 0 
L 3500 0 
L 1259 2247 
L 1259 0 
L 628 0 
L 628 4666 
z
" transform="scale(0.015625)"/>
      <path id="DejaVuSans-63" d="M 3122 3366 
L 3122 2828 
Q 2878 2963 2633 3030 
Q 2388 3097 2138 3097 
Q 1578 3097 1268 2742 
Q 959 2388 959 1747 
Q 959 1106 1268 751 
Q 1578 397 2138 397 
Q 2388 397 2633 464 
Q 2878 531 3122 666 
L 3122 134 
Q 2881 22 2623 -34 
Q 2366 -91 2075 -91 
Q 1284 -91 818 406 
Q 353 903 353 1747 
Q 353 2603 823 3093 
Q 1294 3584 2113 3584 
Q 2378 3584 2631 3529 
Q 2884 3475 3122 3366 
z
" transform="scale(0.015625)"/>
     </defs>
     <use xlink:href="#DejaVuSans-48"/>
     <use xlink:href="#DejaVuSans-33" transform="translate(75.195312 0)"/>
     <use xlink:href="#DejaVuSans-4b" transform="translate(138.818359 0)"/>
     <use xlink:href="#DejaVuSans-32" transform="translate(204.394531 0)"/>
     <use xlink:href="#DejaVuSans-37" transform="translate(268.017578 0)"/>
     <use xlink:href="#DejaVuSans-61" transform="translate(331.640625 0)"/>
     <use xlink:href="#DejaVuSans-63" transform="translate(392.919922 0)"/>
    </g>
   </g>
   <g id="legend_1">
    <g id="patch_7">
     <path d="M 334.210684 147.679025 
L 512.569 147.679025 
Q 514.235 147.679025 514.235 146.013025 
L 514.235 49.031 
Q 514.235 47.365 512.569 47.365 
L 334.210684 47.365 
Q 332.544684 47.365 332.544684 49.031 
L 332.544684 146.013025 
Q 332.544684 147.679025 334.210684 147.679025 
z
" style="fill: #ffffff; opacity: 0.8; stroke: #cccccc; stroke-linejoin: miter"/>
    </g>
    <g id="line2d_20">
     <path d="M 335.876684 54.110998 
L 344.206684 54.110998 
L 352.536684 54.110998 
" style="fill: none; stroke: #1f77b4; stroke-width: 1.5; stroke-linecap: square"/>
    </g>
    <g id="text_15">
     <!-- NT-MS V2 (50M) with rand. weights -->
     <g transform="translate(359.200684 57.026498) scale(0.0833 -0.0833)">
      <defs>
       <path id="DejaVuSans-4e" d="M 628 4666 
L 1478 4666 
L 3547 763 
L 3547 4666 
L 4159 4666 
L 4159 0 
L 3309 0 
L 1241 3903 
L 1241 0 
L 628 0 
L 628 4666 
z
" transform="scale(0.015625)"/>
       <path id="DejaVuSans-2d" d="M 313 2009 
L 1997 2009 
L 1997 1497 
L 313 1497 
L 313 2009 
z
" transform="scale(0.015625)"/>
       <path id="DejaVuSans-4d" d="M 628 4666 
L 1569 4666 
L 2759 1491 
L 3956 4666 
L 4897 4666 
L 4897 0 
L 4281 0 
L 4281 4097 
L 3078 897 
L 2444 897 
L 1241 4097 
L 1241 0 
L 628 0 
L 628 4666 
z
" transform="scale(0.015625)"/>
       <path id="DejaVuSans-53" d="M 3425 4513 
L 3425 3897 
Q 3066 4069 2747 4153 
Q 2428 4238 2131 4238 
Q 1616 4238 1336 4038 
Q 1056 3838 1056 3469 
Q 1056 3159 1242 3001 
Q 1428 2844 1947 2747 
L 2328 2669 
Q 3034 2534 3370 2195 
Q 3706 1856 3706 1288 
Q 3706 609 3251 259 
Q 2797 -91 1919 -91 
Q 1588 -91 1214 -16 
Q 841 59 441 206 
L 441 856 
Q 825 641 1194 531 
Q 1563 422 1919 422 
Q 2459 422 2753 634 
Q 3047 847 3047 1241 
Q 3047 1584 2836 1778 
Q 2625 1972 2144 2069 
L 1759 2144 
Q 1053 2284 737 2584 
Q 422 2884 422 3419 
Q 422 4038 858 4394 
Q 1294 4750 2059 4750 
Q 2388 4750 2728 4690 
Q 3069 4631 3425 4513 
z
" transform="scale(0.015625)"/>
       <path id="DejaVuSans-56" d="M 1831 0 
L 50 4666 
L 709 4666 
L 2188 738 
L 3669 4666 
L 4325 4666 
L 2547 0 
L 1831 0 
z
" transform="scale(0.015625)"/>
       <path id="DejaVuSans-28" d="M 1984 4856 
Q 1566 4138 1362 3434 
Q 1159 2731 1159 2009 
Q 1159 1288 1364 580 
Q 1569 -128 1984 -844 
L 1484 -844 
Q 1016 -109 783 600 
Q 550 1309 550 2009 
Q 550 2706 781 3412 
Q 1013 4119 1484 4856 
L 1984 4856 
z
" transform="scale(0.015625)"/>
       <path id="DejaVuSans-29" d="M 513 4856 
L 1013 4856 
Q 1481 4119 1714 3412 
Q 1947 2706 1947 2009 
Q 1947 1309 1714 600 
Q 1481 -109 1013 -844 
L 513 -844 
Q 928 -128 1133 580 
Q 1338 1288 1338 2009 
Q 1338 2731 1133 3434 
Q 928 4138 513 4856 
z
" transform="scale(0.015625)"/>
       <path id="DejaVuSans-77" d="M 269 3500 
L 844 3500 
L 1563 769 
L 2278 3500 
L 2956 3500 
L 3675 769 
L 4391 3500 
L 4966 3500 
L 4050 0 
L 3372 0 
L 2619 2869 
L 1863 0 
L 1184 0 
L 269 3500 
z
" transform="scale(0.015625)"/>
       <path id="DejaVuSans-68" d="M 3513 2113 
L 3513 0 
L 2938 0 
L 2938 2094 
Q 2938 2591 2744 2837 
Q 2550 3084 2163 3084 
Q 1697 3084 1428 2787 
Q 1159 2491 1159 1978 
L 1159 0 
L 581 0 
L 581 4863 
L 1159 4863 
L 1159 2956 
Q 1366 3272 1645 3428 
Q 1925 3584 2291 3584 
Q 2894 3584 3203 3211 
Q 3513 2838 3513 2113 
z
" transform="scale(0.015625)"/>
       <path id="DejaVuSans-64" d="M 2906 2969 
L 2906 4863 
L 3481 4863 
L 3481 0 
L 2906 0 
L 2906 525 
Q 2725 213 2448 61 
Q 2172 -91 1784 -91 
Q 1150 -91 751 415 
Q 353 922 353 1747 
Q 353 2572 751 3078 
Q 1150 3584 1784 3584 
Q 2172 3584 2448 3432 
Q 2725 3281 2906 2969 
z
M 947 1747 
Q 947 1113 1208 752 
Q 1469 391 1925 391 
Q 2381 391 2643 752 
Q 2906 1113 2906 1747 
Q 2906 2381 2643 2742 
Q 2381 3103 1925 3103 
Q 1469 3103 1208 2742 
Q 947 2381 947 1747 
z
" transform="scale(0.015625)"/>
      </defs>
      <use xlink:href="#DejaVuSans-4e"/>
      <use xlink:href="#DejaVuSans-54" transform="translate(74.804688 0)"/>
      <use xlink:href="#DejaVuSans-2d" transform="translate(126.763672 0)"/>
      <use xlink:href="#DejaVuSans-4d" transform="translate(162.847656 0)"/>
      <use xlink:href="#DejaVuSans-53" transform="translate(249.126953 0)"/>
      <use xlink:href="#DejaVuSans-20" transform="translate(312.603516 0)"/>
      <use xlink:href="#DejaVuSans-56" transform="translate(344.390625 0)"/>
      <use xlink:href="#DejaVuSans-32" transform="translate(412.798828 0)"/>
      <use xlink:href="#DejaVuSans-20" transform="translate(476.421875 0)"/>
      <use xlink:href="#DejaVuSans-28" transform="translate(508.208984 0)"/>
      <use xlink:href="#DejaVuSans-35" transform="translate(547.222656 0)"/>
      <use xlink:href="#DejaVuSans-30" transform="translate(610.845703 0)"/>
      <use xlink:href="#DejaVuSans-4d" transform="translate(674.46875 0)"/>
      <use xlink:href="#DejaVuSans-29" transform="translate(760.748047 0)"/>
      <use xlink:href="#DejaVuSans-20" transform="translate(799.761719 0)"/>
      <use xlink:href="#DejaVuSans-77" transform="translate(831.548828 0)"/>
      <use xlink:href="#DejaVuSans-69" transform="translate(913.335938 0)"/>
      <use xlink:href="#DejaVuSans-74" transform="translate(941.119141 0)"/>
      <use xlink:href="#DejaVuSans-68" transform="translate(980.328125 0)"/>
      <use xlink:href="#DejaVuSans-20" transform="translate(1043.707031 0)"/>
      <use xlink:href="#DejaVuSans-72" transform="translate(1075.494141 0)"/>
      <use xlink:href="#DejaVuSans-61" transform="translate(1116.607422 0)"/>
      <use xlink:href="#DejaVuSans-6e" transform="translate(1177.886719 0)"/>
      <use xlink:href="#DejaVuSans-64" transform="translate(1241.265625 0)"/>
      <use xlink:href="#DejaVuSans-2e" transform="translate(1304.742188 0)"/>
      <use xlink:href="#DejaVuSans-20" transform="translate(1336.529297 0)"/>
      <use xlink:href="#DejaVuSans-77" transform="translate(1368.316406 0)"/>
      <use xlink:href="#DejaVuSans-65" transform="translate(1450.103516 0)"/>
      <use xlink:href="#DejaVuSans-69" transform="translate(1511.626953 0)"/>
      <use xlink:href="#DejaVuSans-67" transform="translate(1539.410156 0)"/>
      <use xlink:href="#DejaVuSans-68" transform="translate(1602.886719 0)"/>
      <use xlink:href="#DejaVuSans-74" transform="translate(1666.265625 0)"/>
      <use xlink:href="#DejaVuSans-73" transform="translate(1705.474609 0)"/>
     </g>
    </g>
    <g id="line2d_21">
     <path d="M 335.876684 66.337877 
L 344.206684 66.337877 
L 352.536684 66.337877 
" style="fill: none; stroke: #ff7f0e; stroke-width: 1.5; stroke-linecap: square"/>
    </g>
    <g id="text_16">
     <!-- NT-MS V2 (500M) with rand. weights -->
     <g transform="translate(359.200684 69.253377) scale(0.0833 -0.0833)">
      <use xlink:href="#DejaVuSans-4e"/>
      <use xlink:href="#DejaVuSans-54" transform="translate(74.804688 0)"/>
      <use xlink:href="#DejaVuSans-2d" transform="translate(126.763672 0)"/>
      <use xlink:href="#DejaVuSans-4d" transform="translate(162.847656 0)"/>
      <use xlink:href="#DejaVuSans-53" transform="translate(249.126953 0)"/>
      <use xlink:href="#DejaVuSans-20" transform="translate(312.603516 0)"/>
      <use xlink:href="#DejaVuSans-56" transform="translate(344.390625 0)"/>
      <use xlink:href="#DejaVuSans-32" transform="translate(412.798828 0)"/>
      <use xlink:href="#DejaVuSans-20" transform="translate(476.421875 0)"/>
      <use xlink:href="#DejaVuSans-28" transform="translate(508.208984 0)"/>
      <use xlink:href="#DejaVuSans-35" transform="translate(547.222656 0)"/>
      <use xlink:href="#DejaVuSans-30" transform="translate(610.845703 0)"/>
      <use xlink:href="#DejaVuSans-30" transform="translate(674.46875 0)"/>
      <use xlink:href="#DejaVuSans-4d" transform="translate(738.091797 0)"/>
      <use xlink:href="#DejaVuSans-29" transform="translate(824.371094 0)"/>
      <use xlink:href="#DejaVuSans-20" transform="translate(863.384766 0)"/>
      <use xlink:href="#DejaVuSans-77" transform="translate(895.171875 0)"/>
      <use xlink:href="#DejaVuSans-69" transform="translate(976.958984 0)"/>
      <use xlink:href="#DejaVuSans-74" transform="translate(1004.742188 0)"/>
      <use xlink:href="#DejaVuSans-68" transform="translate(1043.951172 0)"/>
      <use xlink:href="#DejaVuSans-20" transform="translate(1107.330078 0)"/>
      <use xlink:href="#DejaVuSans-72" transform="translate(1139.117188 0)"/>
      <use xlink:href="#DejaVuSans-61" transform="translate(1180.230469 0)"/>
      <use xlink:href="#DejaVuSans-6e" transform="translate(1241.509766 0)"/>
      <use xlink:href="#DejaVuSans-64" transform="translate(1304.888672 0)"/>
      <use xlink:href="#DejaVuSans-2e" transform="translate(1368.365234 0)"/>
      <use xlink:href="#DejaVuSans-20" transform="translate(1400.152344 0)"/>
      <use xlink:href="#DejaVuSans-77" transform="translate(1431.939453 0)"/>
      <use xlink:href="#DejaVuSans-65" transform="translate(1513.726562 0)"/>
      <use xlink:href="#DejaVuSans-69" transform="translate(1575.25 0)"/>
      <use xlink:href="#DejaVuSans-67" transform="translate(1603.033203 0)"/>
      <use xlink:href="#DejaVuSans-68" transform="translate(1666.509766 0)"/>
      <use xlink:href="#DejaVuSans-74" transform="translate(1729.888672 0)"/>
      <use xlink:href="#DejaVuSans-73" transform="translate(1769.097656 0)"/>
     </g>
    </g>
    <g id="line2d_22">
     <path d="M 335.876684 78.564755 
L 344.206684 78.564755 
L 352.536684 78.564755 
" style="fill: none; stroke: #2ca02c; stroke-width: 1.5; stroke-linecap: square"/>
    </g>
    <g id="text_17">
     <!-- NT-MS V2 (50M) -->
     <g transform="translate(359.200684 81.480255) scale(0.0833 -0.0833)">
      <use xlink:href="#DejaVuSans-4e"/>
      <use xlink:href="#DejaVuSans-54" transform="translate(74.804688 0)"/>
      <use xlink:href="#DejaVuSans-2d" transform="translate(126.763672 0)"/>
      <use xlink:href="#DejaVuSans-4d" transform="translate(162.847656 0)"/>
      <use xlink:href="#DejaVuSans-53" transform="translate(249.126953 0)"/>
      <use xlink:href="#DejaVuSans-20" transform="translate(312.603516 0)"/>
      <use xlink:href="#DejaVuSans-56" transform="translate(344.390625 0)"/>
      <use xlink:href="#DejaVuSans-32" transform="translate(412.798828 0)"/>
      <use xlink:href="#DejaVuSans-20" transform="translate(476.421875 0)"/>
      <use xlink:href="#DejaVuSans-28" transform="translate(508.208984 0)"/>
      <use xlink:href="#DejaVuSans-35" transform="translate(547.222656 0)"/>
      <use xlink:href="#DejaVuSans-30" transform="translate(610.845703 0)"/>
      <use xlink:href="#DejaVuSans-4d" transform="translate(674.46875 0)"/>
      <use xlink:href="#DejaVuSans-29" transform="translate(760.748047 0)"/>
     </g>
    </g>
    <g id="line2d_23">
     <path d="M 335.876684 90.791633 
L 344.206684 90.791633 
L 352.536684 90.791633 
" style="fill: none; stroke: #d62728; stroke-width: 1.5; stroke-linecap: square"/>
    </g>
    <g id="text_18">
     <!-- NT-1000g (500M) -->
     <g transform="translate(359.200684 93.707133) scale(0.0833 -0.0833)">
      <use xlink:href="#DejaVuSans-4e"/>
      <use xlink:href="#DejaVuSans-54" transform="translate(74.804688 0)"/>
      <use xlink:href="#DejaVuSans-2d" transform="translate(126.763672 0)"/>
      <use xlink:href="#DejaVuSans-31" transform="translate(162.847656 0)"/>
      <use xlink:href="#DejaVuSans-30" transform="translate(226.470703 0)"/>
      <use xlink:href="#DejaVuSans-30" transform="translate(290.09375 0)"/>
      <use xlink:href="#DejaVuSans-30" transform="translate(353.716797 0)"/>
      <use xlink:href="#DejaVuSans-67" transform="translate(417.339844 0)"/>
      <use xlink:href="#DejaVuSans-20" transform="translate(480.816406 0)"/>
      <use xlink:href="#DejaVuSans-28" transform="translate(512.603516 0)"/>
      <use xlink:href="#DejaVuSans-35" transform="translate(551.617188 0)"/>
      <use xlink:href="#DejaVuSans-30" transform="translate(615.240234 0)"/>
      <use xlink:href="#DejaVuSans-30" transform="translate(678.863281 0)"/>
      <use xlink:href="#DejaVuSans-4d" transform="translate(742.486328 0)"/>
      <use xlink:href="#DejaVuSans-29" transform="translate(828.765625 0)"/>
     </g>
    </g>
    <g id="line2d_24">
     <path d="M 335.876684 103.018511 
L 344.206684 103.018511 
L 352.536684 103.018511 
" style="fill: none; stroke: #9467bd; stroke-width: 1.5; stroke-linecap: square"/>
    </g>
    <g id="text_19">
     <!-- NT-MS V2 (250M) -->
     <g transform="translate(359.200684 105.934011) scale(0.0833 -0.0833)">
      <use xlink:href="#DejaVuSans-4e"/>
      <use xlink:href="#DejaVuSans-54" transform="translate(74.804688 0)"/>
      <use xlink:href="#DejaVuSans-2d" transform="translate(126.763672 0)"/>
      <use xlink:href="#DejaVuSans-4d" transform="translate(162.847656 0)"/>
      <use xlink:href="#DejaVuSans-53" transform="translate(249.126953 0)"/>
      <use xlink:href="#DejaVuSans-20" transform="translate(312.603516 0)"/>
      <use xlink:href="#DejaVuSans-56" transform="translate(344.390625 0)"/>
      <use xlink:href="#DejaVuSans-32" transform="translate(412.798828 0)"/>
      <use xlink:href="#DejaVuSans-20" transform="translate(476.421875 0)"/>
      <use xlink:href="#DejaVuSans-28" transform="translate(508.208984 0)"/>
      <use xlink:href="#DejaVuSans-32" transform="translate(547.222656 0)"/>
      <use xlink:href="#DejaVuSans-35" transform="translate(610.845703 0)"/>
      <use xlink:href="#DejaVuSans-30" transform="translate(674.46875 0)"/>
      <use xlink:href="#DejaVuSans-4d" transform="translate(738.091797 0)"/>
      <use xlink:href="#DejaVuSans-29" transform="translate(824.371094 0)"/>
     </g>
    </g>
    <g id="line2d_25">
     <path d="M 335.876684 115.245389 
L 344.206684 115.245389 
L 352.536684 115.245389 
" style="fill: none; stroke: #8c564b; stroke-width: 1.5; stroke-linecap: square"/>
    </g>
    <g id="text_20">
     <!-- NT-MS V2 (100M) -->
     <g transform="translate(359.200684 118.160889) scale(0.0833 -0.0833)">
      <use xlink:href="#DejaVuSans-4e"/>
      <use xlink:href="#DejaVuSans-54" transform="translate(74.804688 0)"/>
      <use xlink:href="#DejaVuSans-2d" transform="translate(126.763672 0)"/>
      <use xlink:href="#DejaVuSans-4d" transform="translate(162.847656 0)"/>
      <use xlink:href="#DejaVuSans-53" transform="translate(249.126953 0)"/>
      <use xlink:href="#DejaVuSans-20" transform="translate(312.603516 0)"/>
      <use xlink:href="#DejaVuSans-56" transform="translate(344.390625 0)"/>
      <use xlink:href="#DejaVuSans-32" transform="translate(412.798828 0)"/>
      <use xlink:href="#DejaVuSans-20" transform="translate(476.421875 0)"/>
      <use xlink:href="#DejaVuSans-28" transform="translate(508.208984 0)"/>
      <use xlink:href="#DejaVuSans-31" transform="translate(547.222656 0)"/>
      <use xlink:href="#DejaVuSans-30" transform="translate(610.845703 0)"/>
      <use xlink:href="#DejaVuSans-30" transform="translate(674.46875 0)"/>
      <use xlink:href="#DejaVuSans-4d" transform="translate(738.091797 0)"/>
      <use xlink:href="#DejaVuSans-29" transform="translate(824.371094 0)"/>
     </g>
    </g>
    <g id="line2d_26">
     <path d="M 335.876684 127.472267 
L 344.206684 127.472267 
L 352.536684 127.472267 
" style="fill: none; stroke: #e377c2; stroke-width: 1.5; stroke-linecap: square"/>
    </g>
    <g id="text_21">
     <!-- NT-Human-Ref. (500M) -->
     <g transform="translate(359.200684 130.387767) scale(0.0833 -0.0833)">
      <defs>
       <path id="DejaVuSans-75" d="M 544 1381 
L 544 3500 
L 1119 3500 
L 1119 1403 
Q 1119 906 1312 657 
Q 1506 409 1894 409 
Q 2359 409 2629 706 
Q 2900 1003 2900 1516 
L 2900 3500 
L 3475 3500 
L 3475 0 
L 2900 0 
L 2900 538 
Q 2691 219 2414 64 
Q 2138 -91 1772 -91 
Q 1169 -91 856 284 
Q 544 659 544 1381 
z
M 1991 3584 
L 1991 3584 
z
" transform="scale(0.015625)"/>
       <path id="DejaVuSans-6d" d="M 3328 2828 
Q 3544 3216 3844 3400 
Q 4144 3584 4550 3584 
Q 5097 3584 5394 3201 
Q 5691 2819 5691 2113 
L 5691 0 
L 5113 0 
L 5113 2094 
Q 5113 2597 4934 2840 
Q 4756 3084 4391 3084 
Q 3944 3084 3684 2787 
Q 3425 2491 3425 1978 
L 3425 0 
L 2847 0 
L 2847 2094 
Q 2847 2600 2669 2842 
Q 2491 3084 2119 3084 
Q 1678 3084 1418 2786 
Q 1159 2488 1159 1978 
L 1159 0 
L 581 0 
L 581 3500 
L 1159 3500 
L 1159 2956 
Q 1356 3278 1631 3431 
Q 1906 3584 2284 3584 
Q 2666 3584 2933 3390 
Q 3200 3197 3328 2828 
z
" transform="scale(0.015625)"/>
       <path id="DejaVuSans-52" d="M 2841 2188 
Q 3044 2119 3236 1894 
Q 3428 1669 3622 1275 
L 4263 0 
L 3584 0 
L 2988 1197 
Q 2756 1666 2539 1819 
Q 2322 1972 1947 1972 
L 1259 1972 
L 1259 0 
L 628 0 
L 628 4666 
L 2053 4666 
Q 2853 4666 3247 4331 
Q 3641 3997 3641 3322 
Q 3641 2881 3436 2590 
Q 3231 2300 2841 2188 
z
M 1259 4147 
L 1259 2491 
L 2053 2491 
Q 2509 2491 2742 2702 
Q 2975 2913 2975 3322 
Q 2975 3731 2742 3939 
Q 2509 4147 2053 4147 
L 1259 4147 
z
" transform="scale(0.015625)"/>
       <path id="DejaVuSans-66" d="M 2375 4863 
L 2375 4384 
L 1825 4384 
Q 1516 4384 1395 4259 
Q 1275 4134 1275 3809 
L 1275 3500 
L 2222 3500 
L 2222 3053 
L 1275 3053 
L 1275 0 
L 697 0 
L 697 3053 
L 147 3053 
L 147 3500 
L 697 3500 
L 697 3744 
Q 697 4328 969 4595 
Q 1241 4863 1831 4863 
L 2375 4863 
z
" transform="scale(0.015625)"/>
      </defs>
      <use xlink:href="#DejaVuSans-4e"/>
      <use xlink:href="#DejaVuSans-54" transform="translate(74.804688 0)"/>
      <use xlink:href="#DejaVuSans-2d" transform="translate(126.763672 0)"/>
      <use xlink:href="#DejaVuSans-48" transform="translate(162.847656 0)"/>
      <use xlink:href="#DejaVuSans-75" transform="translate(238.042969 0)"/>
      <use xlink:href="#DejaVuSans-6d" transform="translate(301.421875 0)"/>
      <use xlink:href="#DejaVuSans-61" transform="translate(398.833984 0)"/>
      <use xlink:href="#DejaVuSans-6e" transform="translate(460.113281 0)"/>
      <use xlink:href="#DejaVuSans-2d" transform="translate(523.492188 0)"/>
      <use xlink:href="#DejaVuSans-52" transform="translate(559.576172 0)"/>
      <use xlink:href="#DejaVuSans-65" transform="translate(624.558594 0)"/>
      <use xlink:href="#DejaVuSans-66" transform="translate(686.082031 0)"/>
      <use xlink:href="#DejaVuSans-2e" transform="translate(714.037109 0)"/>
      <use xlink:href="#DejaVuSans-20" transform="translate(745.824219 0)"/>
      <use xlink:href="#DejaVuSans-28" transform="translate(777.611328 0)"/>
      <use xlink:href="#DejaVuSans-35" transform="translate(816.625 0)"/>
      <use xlink:href="#DejaVuSans-30" transform="translate(880.248047 0)"/>
      <use xlink:href="#DejaVuSans-30" transform="translate(943.871094 0)"/>
      <use xlink:href="#DejaVuSans-4d" transform="translate(1007.494141 0)"/>
      <use xlink:href="#DejaVuSans-29" transform="translate(1093.773438 0)"/>
     </g>
    </g>
    <g id="line2d_27">
     <path d="M 335.876684 139.699145 
L 344.206684 139.699145 
L 352.536684 139.699145 
" style="fill: none; stroke: #7f7f7f; stroke-width: 1.5; stroke-linecap: square"/>
    </g>
    <g id="text_22">
     <!-- NT-MS V2 (500M) -->
     <g transform="translate(359.200684 142.614645) scale(0.0833 -0.0833)">
      <use xlink:href="#DejaVuSans-4e"/>
      <use xlink:href="#DejaVuSans-54" transform="translate(74.804688 0)"/>
      <use xlink:href="#DejaVuSans-2d" transform="translate(126.763672 0)"/>
      <use xlink:href="#DejaVuSans-4d" transform="translate(162.847656 0)"/>
      <use xlink:href="#DejaVuSans-53" transform="translate(249.126953 0)"/>
      <use xlink:href="#DejaVuSans-20" transform="translate(312.603516 0)"/>
      <use xlink:href="#DejaVuSans-56" transform="translate(344.390625 0)"/>
      <use xlink:href="#DejaVuSans-32" transform="translate(412.798828 0)"/>
      <use xlink:href="#DejaVuSans-20" transform="translate(476.421875 0)"/>
      <use xlink:href="#DejaVuSans-28" transform="translate(508.208984 0)"/>
      <use xlink:href="#DejaVuSans-35" transform="translate(547.222656 0)"/>
      <use xlink:href="#DejaVuSans-30" transform="translate(610.845703 0)"/>
      <use xlink:href="#DejaVuSans-30" transform="translate(674.46875 0)"/>
      <use xlink:href="#DejaVuSans-4d" transform="translate(738.091797 0)"/>
      <use xlink:href="#DejaVuSans-29" transform="translate(824.371094 0)"/>
     </g>
    </g>
   </g>
  </g>
 </g>
 <defs>
  <clipPath id="pa0446c11c0">
   <rect x="72" y="43.2" width="446.4" height="277.2"/>
  </clipPath>
 </defs>
</svg>
