<?xml version="1.0" encoding="utf-8" standalone="no"?>
<!DOCTYPE svg PUBLIC "-//W3C//DTD SVG 1.1//EN"
  "http://www.w3.org/Graphics/SVG/1.1/DTD/svg11.dtd">
<svg xmlns:xlink="http://www.w3.org/1999/xlink" width="576pt" height="360pt" viewBox="0 0 576 360" xmlns="http://www.w3.org/2000/svg" version="1.1">
 <metadata>
  <rdf:RDF xmlns:dc="http://purl.org/dc/elements/1.1/" xmlns:cc="http://creativecommons.org/ns#" xmlns:rdf="http://www.w3.org/1999/02/22-rdf-syntax-ns#">
   <cc:Work>
    <dc:type rdf:resource="http://purl.org/dc/dcmitype/StillImage"/>
    <dc:date>2025-01-07T03:55:01.822627</dc:date>
    <dc:format>image/svg+xml</dc:format>
    <dc:creator>
     <cc:Agent>
      <dc:title>Matplotlib v3.10.0, https://matplotlib.org/</dc:title>
     </cc:Agent>
    </dc:creator>
   </cc:Work>
  </rdf:RDF>
 </metadata>
 <defs>
  <style type="text/css">*{stroke-linejoin: round; stroke-linecap: butt}</style>
 </defs>
 <g id="figure_1">
  <g id="patch_1">
   <path d="M 0 360 
L 576 360 
L 576 0 
L 0 0 
z
" style="fill: #ffffff"/>
  </g>
  <g id="axes_1">
   <g id="patch_2">
    <path d="M 72 320.4 
L 518.4 320.4 
L 518.4 43.2 
L 72 43.2 
z
" style="fill: #ffffff"/>
   </g>
   <g id="matplotlib.axis_1">
    <g id="xtick_1">
     <g id="line2d_1">
      <defs>
       <path id="m921bca2084" d="M 0 0 
L 0 3.5 
" style="stroke: #000000; stroke-width: 0.8"/>
      </defs>
      <g>
       <use xlink:href="#m921bca2084" x="157.672727" y="320.4" style="stroke: #000000; stroke-width: 0.8"/>
      </g>
     </g>
     <g id="text_1">
      <!-- 2000 -->
      <g transform="translate(144.947727 334.998438) scale(0.1 -0.1)">
       <defs>
        <path id="DejaVuSans-32" d="M 1228 531 
L 3431 531 
L 3431 0 
L 469 0 
L 469 531 
Q 828 903 1448 1529 
Q 2069 2156 2228 2338 
Q 2531 2678 2651 2914 
Q 2772 3150 2772 3378 
Q 2772 3750 2511 3984 
Q 2250 4219 1831 4219 
Q 1534 4219 1204 4116 
Q 875 4013 500 3803 
L 500 4441 
Q 881 4594 1212 4672 
Q 1544 4750 1819 4750 
Q 2544 4750 2975 4387 
Q 3406 4025 3406 3419 
Q 3406 3131 3298 2873 
Q 3191 2616 2906 2266 
Q 2828 2175 2409 1742 
Q 1991 1309 1228 531 
z
" transform="scale(0.015625)"/>
        <path id="DejaVuSans-30" d="M 2034 4250 
Q 1547 4250 1301 3770 
Q 1056 3291 1056 2328 
Q 1056 1369 1301 889 
Q 1547 409 2034 409 
Q 2525 409 2770 889 
Q 3016 1369 3016 2328 
Q 3016 3291 2770 3770 
Q 2525 4250 2034 4250 
z
M 2034 4750 
Q 2819 4750 3233 4129 
Q 3647 3509 3647 2328 
Q 3647 1150 3233 529 
Q 2819 -91 2034 -91 
Q 1250 -91 836 529 
Q 422 1150 422 2328 
Q 422 3509 836 4129 
Q 1250 4750 2034 4750 
z
" transform="scale(0.015625)"/>
       </defs>
       <use xlink:href="#DejaVuSans-32"/>
       <use xlink:href="#DejaVuSans-30" transform="translate(63.623047 0)"/>
       <use xlink:href="#DejaVuSans-30" transform="translate(127.246094 0)"/>
       <use xlink:href="#DejaVuSans-30" transform="translate(190.869141 0)"/>
      </g>
     </g>
    </g>
    <g id="xtick_2">
     <g id="line2d_2">
      <g>
       <use xlink:href="#m921bca2084" x="247.854545" y="320.4" style="stroke: #000000; stroke-width: 0.8"/>
      </g>
     </g>
     <g id="text_2">
      <!-- 4000 -->
      <g transform="translate(235.129545 334.998438) scale(0.1 -0.1)">
       <defs>
        <path id="DejaVuSans-34" d="M 2419 4116 
L 825 1625 
L 2419 1625 
L 2419 4116 
z
M 2253 4666 
L 3047 4666 
L 3047 1625 
L 3713 1625 
L 3713 1100 
L 3047 1100 
L 3047 0 
L 2419 0 
L 2419 1100 
L 313 1100 
L 313 1709 
L 2253 4666 
z
" transform="scale(0.015625)"/>
       </defs>
       <use xlink:href="#DejaVuSans-34"/>
       <use xlink:href="#DejaVuSans-30" transform="translate(63.623047 0)"/>
       <use xlink:href="#DejaVuSans-30" transform="translate(127.246094 0)"/>
       <use xlink:href="#DejaVuSans-30" transform="translate(190.869141 0)"/>
      </g>
     </g>
    </g>
    <g id="xtick_3">
     <g id="line2d_3">
      <g>
       <use xlink:href="#m921bca2084" x="338.036364" y="320.4" style="stroke: #000000; stroke-width: 0.8"/>
      </g>
     </g>
     <g id="text_3">
      <!-- 6000 -->
      <g transform="translate(325.311364 334.998438) scale(0.1 -0.1)">
       <defs>
        <path id="DejaVuSans-36" d="M 2113 2584 
Q 1688 2584 1439 2293 
Q 1191 2003 1191 1497 
Q 1191 994 1439 701 
Q 1688 409 2113 409 
Q 2538 409 2786 701 
Q 3034 994 3034 1497 
Q 3034 2003 2786 2293 
Q 2538 2584 2113 2584 
z
M 3366 4563 
L 3366 3988 
Q 3128 4100 2886 4159 
Q 2644 4219 2406 4219 
Q 1781 4219 1451 3797 
Q 1122 3375 1075 2522 
Q 1259 2794 1537 2939 
Q 1816 3084 2150 3084 
Q 2853 3084 3261 2657 
Q 3669 2231 3669 1497 
Q 3669 778 3244 343 
Q 2819 -91 2113 -91 
Q 1303 -91 875 529 
Q 447 1150 447 2328 
Q 447 3434 972 4092 
Q 1497 4750 2381 4750 
Q 2619 4750 2861 4703 
Q 3103 4656 3366 4563 
z
" transform="scale(0.015625)"/>
       </defs>
       <use xlink:href="#DejaVuSans-36"/>
       <use xlink:href="#DejaVuSans-30" transform="translate(63.623047 0)"/>
       <use xlink:href="#DejaVuSans-30" transform="translate(127.246094 0)"/>
       <use xlink:href="#DejaVuSans-30" transform="translate(190.869141 0)"/>
      </g>
     </g>
    </g>
    <g id="xtick_4">
     <g id="line2d_4">
      <g>
       <use xlink:href="#m921bca2084" x="428.218182" y="320.4" style="stroke: #000000; stroke-width: 0.8"/>
      </g>
     </g>
     <g id="text_4">
      <!-- 8000 -->
      <g transform="translate(415.493182 334.998438) scale(0.1 -0.1)">
       <defs>
        <path id="DejaVuSans-38" d="M 2034 2216 
Q 1584 2216 1326 1975 
Q 1069 1734 1069 1313 
Q 1069 891 1326 650 
Q 1584 409 2034 409 
Q 2484 409 2743 651 
Q 3003 894 3003 1313 
Q 3003 1734 2745 1975 
Q 2488 2216 2034 2216 
z
M 1403 2484 
Q 997 2584 770 2862 
Q 544 3141 544 3541 
Q 544 4100 942 4425 
Q 1341 4750 2034 4750 
Q 2731 4750 3128 4425 
Q 3525 4100 3525 3541 
Q 3525 3141 3298 2862 
Q 3072 2584 2669 2484 
Q 3125 2378 3379 2068 
Q 3634 1759 3634 1313 
Q 3634 634 3220 271 
Q 2806 -91 2034 -91 
Q 1263 -91 848 271 
Q 434 634 434 1313 
Q 434 1759 690 2068 
Q 947 2378 1403 2484 
z
M 1172 3481 
Q 1172 3119 1398 2916 
Q 1625 2713 2034 2713 
Q 2441 2713 2670 2916 
Q 2900 3119 2900 3481 
Q 2900 3844 2670 4047 
Q 2441 4250 2034 4250 
Q 1625 4250 1398 4047 
Q 1172 3844 1172 3481 
z
" transform="scale(0.015625)"/>
       </defs>
       <use xlink:href="#DejaVuSans-38"/>
       <use xlink:href="#DejaVuSans-30" transform="translate(63.623047 0)"/>
       <use xlink:href="#DejaVuSans-30" transform="translate(127.246094 0)"/>
       <use xlink:href="#DejaVuSans-30" transform="translate(190.869141 0)"/>
      </g>
     </g>
    </g>
    <g id="xtick_5">
     <g id="line2d_5">
      <g>
       <use xlink:href="#m921bca2084" x="518.4" y="320.4" style="stroke: #000000; stroke-width: 0.8"/>
      </g>
     </g>
     <g id="text_5">
      <!-- 10000 -->
      <g transform="translate(502.49375 334.998438) scale(0.1 -0.1)">
       <defs>
        <path id="DejaVuSans-31" d="M 794 531 
L 1825 531 
L 1825 4091 
L 703 3866 
L 703 4441 
L 1819 4666 
L 2450 4666 
L 2450 531 
L 3481 531 
L 3481 0 
L 794 0 
L 794 531 
z
" transform="scale(0.015625)"/>
       </defs>
       <use xlink:href="#DejaVuSans-31"/>
       <use xlink:href="#DejaVuSans-30" transform="translate(63.623047 0)"/>
       <use xlink:href="#DejaVuSans-30" transform="translate(127.246094 0)"/>
       <use xlink:href="#DejaVuSans-30" transform="translate(190.869141 0)"/>
       <use xlink:href="#DejaVuSans-30" transform="translate(254.492188 0)"/>
      </g>
     </g>
    </g>
    <g id="text_6">
     <!-- Training steps -->
     <g transform="translate(260.464844 348.676562) scale(0.1 -0.1)">
      <defs>
       <path id="DejaVuSans-54" d="M -19 4666 
L 3928 4666 
L 3928 4134 
L 2272 4134 
L 2272 0 
L 1638 0 
L 1638 4134 
L -19 4134 
L -19 4666 
z
" transform="scale(0.015625)"/>
       <path id="DejaVuSans-72" d="M 2631 2963 
Q 2534 3019 2420 3045 
Q 2306 3072 2169 3072 
Q 1681 3072 1420 2755 
Q 1159 2438 1159 1844 
L 1159 0 
L 581 0 
L 581 3500 
L 1159 3500 
L 1159 2956 
Q 1341 3275 1631 3429 
Q 1922 3584 2338 3584 
Q 2397 3584 2469 3576 
Q 2541 3569 2628 3553 
L 2631 2963 
z
" transform="scale(0.015625)"/>
       <path id="DejaVuSans-61" d="M 2194 1759 
Q 1497 1759 1228 1600 
Q 959 1441 959 1056 
Q 959 750 1161 570 
Q 1363 391 1709 391 
Q 2188 391 2477 730 
Q 2766 1069 2766 1631 
L 2766 1759 
L 2194 1759 
z
M 3341 1997 
L 3341 0 
L 2766 0 
L 2766 531 
Q 2569 213 2275 61 
Q 1981 -91 1556 -91 
Q 1019 -91 701 211 
Q 384 513 384 1019 
Q 384 1609 779 1909 
Q 1175 2209 1959 2209 
L 2766 2209 
L 2766 2266 
Q 2766 2663 2505 2880 
Q 2244 3097 1772 3097 
Q 1472 3097 1187 3025 
Q 903 2953 641 2809 
L 641 3341 
Q 956 3463 1253 3523 
Q 1550 3584 1831 3584 
Q 2591 3584 2966 3190 
Q 3341 2797 3341 1997 
z
" transform="scale(0.015625)"/>
       <path id="DejaVuSans-69" d="M 603 3500 
L 1178 3500 
L 1178 0 
L 603 0 
L 603 3500 
z
M 603 4863 
L 1178 4863 
L 1178 4134 
L 603 4134 
L 603 4863 
z
" transform="scale(0.015625)"/>
       <path id="DejaVuSans-6e" d="M 3513 2113 
L 3513 0 
L 2938 0 
L 2938 2094 
Q 2938 2591 2744 2837 
Q 2550 3084 2163 3084 
Q 1697 3084 1428 2787 
Q 1159 2491 1159 1978 
L 1159 0 
L 581 0 
L 581 3500 
L 1159 3500 
L 1159 2956 
Q 1366 3272 1645 3428 
Q 1925 3584 2291 3584 
Q 2894 3584 3203 3211 
Q 3513 2838 3513 2113 
z
" transform="scale(0.015625)"/>
       <path id="DejaVuSans-67" d="M 2906 1791 
Q 2906 2416 2648 2759 
Q 2391 3103 1925 3103 
Q 1463 3103 1205 2759 
Q 947 2416 947 1791 
Q 947 1169 1205 825 
Q 1463 481 1925 481 
Q 2391 481 2648 825 
Q 2906 1169 2906 1791 
z
M 3481 434 
Q 3481 -459 3084 -895 
Q 2688 -1331 1869 -1331 
Q 1566 -1331 1297 -1286 
Q 1028 -1241 775 -1147 
L 775 -588 
Q 1028 -725 1275 -790 
Q 1522 -856 1778 -856 
Q 2344 -856 2625 -561 
Q 2906 -266 2906 331 
L 2906 616 
Q 2728 306 2450 153 
Q 2172 0 1784 0 
Q 1141 0 747 490 
Q 353 981 353 1791 
Q 353 2603 747 3093 
Q 1141 3584 1784 3584 
Q 2172 3584 2450 3431 
Q 2728 3278 2906 2969 
L 2906 3500 
L 3481 3500 
L 3481 434 
z
" transform="scale(0.015625)"/>
       <path id="DejaVuSans-20" transform="scale(0.015625)"/>
       <path id="DejaVuSans-73" d="M 2834 3397 
L 2834 2853 
Q 2591 2978 2328 3040 
Q 2066 3103 1784 3103 
Q 1356 3103 1142 2972 
Q 928 2841 928 2578 
Q 928 2378 1081 2264 
Q 1234 2150 1697 2047 
L 1894 2003 
Q 2506 1872 2764 1633 
Q 3022 1394 3022 966 
Q 3022 478 2636 193 
Q 2250 -91 1575 -91 
Q 1294 -91 989 -36 
Q 684 19 347 128 
L 347 722 
Q 666 556 975 473 
Q 1284 391 1588 391 
Q 1994 391 2212 530 
Q 2431 669 2431 922 
Q 2431 1156 2273 1281 
Q 2116 1406 1581 1522 
L 1381 1569 
Q 847 1681 609 1914 
Q 372 2147 372 2553 
Q 372 3047 722 3315 
Q 1072 3584 1716 3584 
Q 2034 3584 2315 3537 
Q 2597 3491 2834 3397 
z
" transform="scale(0.015625)"/>
       <path id="DejaVuSans-74" d="M 1172 4494 
L 1172 3500 
L 2356 3500 
L 2356 3053 
L 1172 3053 
L 1172 1153 
Q 1172 725 1289 603 
Q 1406 481 1766 481 
L 2356 481 
L 2356 0 
L 1766 0 
Q 1100 0 847 248 
Q 594 497 594 1153 
L 594 3053 
L 172 3053 
L 172 3500 
L 594 3500 
L 594 4494 
L 1172 4494 
z
" transform="scale(0.015625)"/>
       <path id="DejaVuSans-65" d="M 3597 1894 
L 3597 1613 
L 953 1613 
Q 991 1019 1311 708 
Q 1631 397 2203 397 
Q 2534 397 2845 478 
Q 3156 559 3463 722 
L 3463 178 
Q 3153 47 2828 -22 
Q 2503 -91 2169 -91 
Q 1331 -91 842 396 
Q 353 884 353 1716 
Q 353 2575 817 3079 
Q 1281 3584 2069 3584 
Q 2775 3584 3186 3129 
Q 3597 2675 3597 1894 
z
M 3022 2063 
Q 3016 2534 2758 2815 
Q 2500 3097 2075 3097 
Q 1594 3097 1305 2825 
Q 1016 2553 972 2059 
L 3022 2063 
z
" transform="scale(0.015625)"/>
       <path id="DejaVuSans-70" d="M 1159 525 
L 1159 -1331 
L 581 -1331 
L 581 3500 
L 1159 3500 
L 1159 2969 
Q 1341 3281 1617 3432 
Q 1894 3584 2278 3584 
Q 2916 3584 3314 3078 
Q 3713 2572 3713 1747 
Q 3713 922 3314 415 
Q 2916 -91 2278 -91 
Q 1894 -91 1617 61 
Q 1341 213 1159 525 
z
M 3116 1747 
Q 3116 2381 2855 2742 
Q 2594 3103 2138 3103 
Q 1681 3103 1420 2742 
Q 1159 2381 1159 1747 
Q 1159 1113 1420 752 
Q 1681 391 2138 391 
Q 2594 391 2855 752 
Q 3116 1113 3116 1747 
z
" transform="scale(0.015625)"/>
      </defs>
      <use xlink:href="#DejaVuSans-54"/>
      <use xlink:href="#DejaVuSans-72" transform="translate(46.333984 0)"/>
      <use xlink:href="#DejaVuSans-61" transform="translate(87.447266 0)"/>
      <use xlink:href="#DejaVuSans-69" transform="translate(148.726562 0)"/>
      <use xlink:href="#DejaVuSans-6e" transform="translate(176.509766 0)"/>
      <use xlink:href="#DejaVuSans-69" transform="translate(239.888672 0)"/>
      <use xlink:href="#DejaVuSans-6e" transform="translate(267.671875 0)"/>
      <use xlink:href="#DejaVuSans-67" transform="translate(331.050781 0)"/>
      <use xlink:href="#DejaVuSans-20" transform="translate(394.527344 0)"/>
      <use xlink:href="#DejaVuSans-73" transform="translate(426.314453 0)"/>
      <use xlink:href="#DejaVuSans-74" transform="translate(478.414062 0)"/>
      <use xlink:href="#DejaVuSans-65" transform="translate(517.623047 0)"/>
      <use xlink:href="#DejaVuSans-70" transform="translate(579.146484 0)"/>
      <use xlink:href="#DejaVuSans-73" transform="translate(642.623047 0)"/>
     </g>
    </g>
   </g>
   <g id="matplotlib.axis_2">
    <g id="ytick_1">
     <g id="line2d_6">
      <defs>
       <path id="m07e024bf4e" d="M 0 0 
L -3.5 0 
" style="stroke: #000000; stroke-width: 0.8"/>
      </defs>
      <g>
       <use xlink:href="#m07e024bf4e" x="72" y="303.689273" style="stroke: #000000; stroke-width: 0.8"/>
      </g>
     </g>
     <g id="text_7">
      <!-- 0.3 -->
      <g transform="translate(49.096875 307.488492) scale(0.1 -0.1)">
       <defs>
        <path id="DejaVuSans-2e" d="M 684 794 
L 1344 794 
L 1344 0 
L 684 0 
L 684 794 
z
" transform="scale(0.015625)"/>
        <path id="DejaVuSans-33" d="M 2597 2516 
Q 3050 2419 3304 2112 
Q 3559 1806 3559 1356 
Q 3559 666 3084 287 
Q 2609 -91 1734 -91 
Q 1441 -91 1130 -33 
Q 819 25 488 141 
L 488 750 
Q 750 597 1062 519 
Q 1375 441 1716 441 
Q 2309 441 2620 675 
Q 2931 909 2931 1356 
Q 2931 1769 2642 2001 
Q 2353 2234 1838 2234 
L 1294 2234 
L 1294 2753 
L 1863 2753 
Q 2328 2753 2575 2939 
Q 2822 3125 2822 3475 
Q 2822 3834 2567 4026 
Q 2313 4219 1838 4219 
Q 1578 4219 1281 4162 
Q 984 4106 628 3988 
L 628 4550 
Q 988 4650 1302 4700 
Q 1616 4750 1894 4750 
Q 2613 4750 3031 4423 
Q 3450 4097 3450 3541 
Q 3450 3153 3228 2886 
Q 3006 2619 2597 2516 
z
" transform="scale(0.015625)"/>
       </defs>
       <use xlink:href="#DejaVuSans-30"/>
       <use xlink:href="#DejaVuSans-2e" transform="translate(63.623047 0)"/>
       <use xlink:href="#DejaVuSans-33" transform="translate(95.410156 0)"/>
      </g>
     </g>
    </g>
    <g id="ytick_2">
     <g id="line2d_7">
      <g>
       <use xlink:href="#m07e024bf4e" x="72" y="262.166782" style="stroke: #000000; stroke-width: 0.8"/>
      </g>
     </g>
     <g id="text_8">
      <!-- 0.4 -->
      <g transform="translate(49.096875 265.966001) scale(0.1 -0.1)">
       <use xlink:href="#DejaVuSans-30"/>
       <use xlink:href="#DejaVuSans-2e" transform="translate(63.623047 0)"/>
       <use xlink:href="#DejaVuSans-34" transform="translate(95.410156 0)"/>
      </g>
     </g>
    </g>
    <g id="ytick_3">
     <g id="line2d_8">
      <g>
       <use xlink:href="#m07e024bf4e" x="72" y="220.644291" style="stroke: #000000; stroke-width: 0.8"/>
      </g>
     </g>
     <g id="text_9">
      <!-- 0.5 -->
      <g transform="translate(49.096875 224.443509) scale(0.1 -0.1)">
       <defs>
        <path id="DejaVuSans-35" d="M 691 4666 
L 3169 4666 
L 3169 4134 
L 1269 4134 
L 1269 2991 
Q 1406 3038 1543 3061 
Q 1681 3084 1819 3084 
Q 2600 3084 3056 2656 
Q 3513 2228 3513 1497 
Q 3513 744 3044 326 
Q 2575 -91 1722 -91 
Q 1428 -91 1123 -41 
Q 819 9 494 109 
L 494 744 
Q 775 591 1075 516 
Q 1375 441 1709 441 
Q 2250 441 2565 725 
Q 2881 1009 2881 1497 
Q 2881 1984 2565 2268 
Q 2250 2553 1709 2553 
Q 1456 2553 1204 2497 
Q 953 2441 691 2322 
L 691 4666 
z
" transform="scale(0.015625)"/>
       </defs>
       <use xlink:href="#DejaVuSans-30"/>
       <use xlink:href="#DejaVuSans-2e" transform="translate(63.623047 0)"/>
       <use xlink:href="#DejaVuSans-35" transform="translate(95.410156 0)"/>
      </g>
     </g>
    </g>
    <g id="ytick_4">
     <g id="line2d_9">
      <g>
       <use xlink:href="#m07e024bf4e" x="72" y="179.121799" style="stroke: #000000; stroke-width: 0.8"/>
      </g>
     </g>
     <g id="text_10">
      <!-- 0.6 -->
      <g transform="translate(49.096875 182.921018) scale(0.1 -0.1)">
       <use xlink:href="#DejaVuSans-30"/>
       <use xlink:href="#DejaVuSans-2e" transform="translate(63.623047 0)"/>
       <use xlink:href="#DejaVuSans-36" transform="translate(95.410156 0)"/>
      </g>
     </g>
    </g>
    <g id="ytick_5">
     <g id="line2d_10">
      <g>
       <use xlink:href="#m07e024bf4e" x="72" y="137.599308" style="stroke: #000000; stroke-width: 0.8"/>
      </g>
     </g>
     <g id="text_11">
      <!-- 0.7 -->
      <g transform="translate(49.096875 141.398527) scale(0.1 -0.1)">
       <defs>
        <path id="DejaVuSans-37" d="M 525 4666 
L 3525 4666 
L 3525 4397 
L 1831 0 
L 1172 0 
L 2766 4134 
L 525 4134 
L 525 4666 
z
" transform="scale(0.015625)"/>
       </defs>
       <use xlink:href="#DejaVuSans-30"/>
       <use xlink:href="#DejaVuSans-2e" transform="translate(63.623047 0)"/>
       <use xlink:href="#DejaVuSans-37" transform="translate(95.410156 0)"/>
      </g>
     </g>
    </g>
    <g id="ytick_6">
     <g id="line2d_11">
      <g>
       <use xlink:href="#m07e024bf4e" x="72" y="96.076817" style="stroke: #000000; stroke-width: 0.8"/>
      </g>
     </g>
     <g id="text_12">
      <!-- 0.8 -->
      <g transform="translate(49.096875 99.876035) scale(0.1 -0.1)">
       <use xlink:href="#DejaVuSans-30"/>
       <use xlink:href="#DejaVuSans-2e" transform="translate(63.623047 0)"/>
       <use xlink:href="#DejaVuSans-38" transform="translate(95.410156 0)"/>
      </g>
     </g>
    </g>
    <g id="ytick_7">
     <g id="line2d_12">
      <g>
       <use xlink:href="#m07e024bf4e" x="72" y="54.554325" style="stroke: #000000; stroke-width: 0.8"/>
      </g>
     </g>
     <g id="text_13">
      <!-- 0.9 -->
      <g transform="translate(49.096875 58.353544) scale(0.1 -0.1)">
       <defs>
        <path id="DejaVuSans-39" d="M 703 97 
L 703 672 
Q 941 559 1184 500 
Q 1428 441 1663 441 
Q 2288 441 2617 861 
Q 2947 1281 2994 2138 
Q 2813 1869 2534 1725 
Q 2256 1581 1919 1581 
Q 1219 1581 811 2004 
Q 403 2428 403 3163 
Q 403 3881 828 4315 
Q 1253 4750 1959 4750 
Q 2769 4750 3195 4129 
Q 3622 3509 3622 2328 
Q 3622 1225 3098 567 
Q 2575 -91 1691 -91 
Q 1453 -91 1209 -44 
Q 966 3 703 97 
z
M 1959 2075 
Q 2384 2075 2632 2365 
Q 2881 2656 2881 3163 
Q 2881 3666 2632 3958 
Q 2384 4250 1959 4250 
Q 1534 4250 1286 3958 
Q 1038 3666 1038 3163 
Q 1038 2656 1286 2365 
Q 1534 2075 1959 2075 
z
" transform="scale(0.015625)"/>
       </defs>
       <use xlink:href="#DejaVuSans-30"/>
       <use xlink:href="#DejaVuSans-2e" transform="translate(63.623047 0)"/>
       <use xlink:href="#DejaVuSans-39" transform="translate(95.410156 0)"/>
      </g>
     </g>
    </g>
    <g id="text_14">
     <!-- Loss -->
     <g transform="translate(43.017187 192.767187) rotate(-90) scale(0.1 -0.1)">
      <defs>
       <path id="DejaVuSans-4c" d="M 628 4666 
L 1259 4666 
L 1259 531 
L 3531 531 
L 3531 0 
L 628 0 
L 628 4666 
z
" transform="scale(0.015625)"/>
       <path id="DejaVuSans-6f" d="M 1959 3097 
Q 1497 3097 1228 2736 
Q 959 2375 959 1747 
Q 959 1119 1226 758 
Q 1494 397 1959 397 
Q 2419 397 2687 759 
Q 2956 1122 2956 1747 
Q 2956 2369 2687 2733 
Q 2419 3097 1959 3097 
z
M 1959 3584 
Q 2709 3584 3137 3096 
Q 3566 2609 3566 1747 
Q 3566 888 3137 398 
Q 2709 -91 1959 -91 
Q 1206 -91 779 398 
Q 353 888 353 1747 
Q 353 2609 779 3096 
Q 1206 3584 1959 3584 
z
" transform="scale(0.015625)"/>
      </defs>
      <use xlink:href="#DejaVuSans-4c"/>
      <use xlink:href="#DejaVuSans-6f" transform="translate(53.962891 0)"/>
      <use xlink:href="#DejaVuSans-73" transform="translate(115.144531 0)"/>
      <use xlink:href="#DejaVuSans-73" transform="translate(167.244141 0)"/>
     </g>
    </g>
   </g>
   <g id="line2d_13">
    <path d="M 72 114.429758 
L 76.509091 135.896886 
L 81.018182 139.13564 
L 85.527273 159.107958 
L 90.036364 163.094118 
L 94.545455 154.748097 
L 99.054545 149.308651 
L 103.563636 157.447059 
L 108.072727 161.142561 
L 112.581818 165.004152 
L 117.090909 159.357093 
L 121.6 159.191003 
L 126.109091 163.343253 
L 130.618182 167.453979 
L 135.127273 172.187543 
L 139.636364 159.730796 
L 144.145455 169.613149 
L 148.654545 162.1391 
L 153.163636 166.208304 
L 157.672727 165.211765 
L 162.181818 164.838062 
L 166.690909 157.322491 
L 171.2 163.177163 
L 175.709091 172.312111 
L 180.218182 178.914187 
L 184.727273 155.661592 
L 189.236364 174.388235 
L 193.745455 162.014533 
L 198.254545 172.478201 
L 202.763636 175.63391 
L 207.272727 160.893426 
L 211.781818 165.29481 
L 216.290909 161.391696 
L 220.8 179.910727 
L 225.309091 173.101038 
L 229.818182 183.938408 
L 234.327273 180.824221 
L 238.836364 181.239446 
L 243.345455 172.478201 
L 247.854545 173.225606 
L 252.363636 172.187543 
L 256.872727 172.062976 
L 261.381818 183.440138 
L 265.890909 174.014533 
L 270.4 174.512803 
L 274.909091 187.13564 
L 279.418182 170.360554 
L 283.927273 173.433218 
L 288.436364 184.187543 
L 292.945455 179.952249 
L 297.454545 180.201384 
L 301.963636 175.924567 
L 306.472727 173.64083 
L 310.981818 170.069896 
L 315.490909 184.727336 
L 320 178.706574 
L 324.509091 184.436678 
L 329.018182 179.620069 
L 333.527273 184.436678 
L 338.036364 176.713495 
L 342.545455 190.000692 
L 347.054545 173.101038 
L 351.563636 179.038754 
L 356.072727 174.678893 
L 360.581818 183.481661 
L 365.090909 180.492042 
L 369.6 192.201384 
L 374.109091 177.917647 
L 378.618182 181.613149 
L 383.127273 174.720415 
L 387.636364 182.152941 
L 392.145455 186.678893 
L 396.654545 179.246367 
L 401.163636 193.447059 
L 405.672727 176.713495 
L 410.181818 187.177163 
L 414.690909 193.613149 
L 419.2 197.017993 
L 423.709091 183.440138 
L 428.218182 187.343253 
L 432.727273 187.260208 
L 437.236364 182.775779 
L 441.745455 205.571626 
L 446.254545 181.986851 
L 450.763636 185.350173 
L 455.272727 176.79654 
L 459.781818 178.083737 
L 464.290909 187.63391 
L 468.8 199.924567 
L 473.309091 184.353633 
L 477.818182 181.488581 
L 482.327273 188.879585 
L 486.836364 184.602768 
L 491.345455 199.46782 
L 495.854545 209.391696 
L 500.363636 183.564706 
L 504.872727 180.865744 
L 509.381818 188.422837 
L 513.890909 192.658131 
L 518.4 194.775779 
" clip-path="url(#p6cd084355c)" style="fill: none; stroke: #1f77b4; stroke-width: 1.5; stroke-linecap: square"/>
   </g>
   <g id="line2d_14">
    <path d="M 72 55.8 
L 76.509091 117.876125 
L 81.018182 126.844983 
L 85.527273 140.96263 
L 90.036364 149.889965 
L 94.545455 139.841522 
L 99.054545 129.170242 
L 103.563636 147.647751 
L 108.072727 154.665052 
L 112.581818 153.79308 
L 117.090909 148.976471 
L 121.6 167.620069 
L 126.109091 156.990311 
L 130.618182 165.211765 
L 135.127273 154.208304 
L 139.636364 139.343253 
L 144.145455 148.353633 
L 148.654545 141.4609 
L 153.163636 154.000692 
L 157.672727 161.184083 
L 162.181818 158.485121 
L 166.690909 152.46436 
L 171.2 150.097578 
L 175.709091 152.79654 
L 180.218182 166.457439 
L 184.727273 145.820761 
L 189.236364 156.907266 
L 193.745455 142.665052 
L 198.254545 154.000692 
L 202.763636 167.537024 
L 207.272727 163.758478 
L 211.781818 163.550865 
L 216.290909 143.620069 
L 220.8 154.208304 
L 225.309091 173.391696 
L 229.818182 170.443599 
L 234.327273 148.021453 
L 238.836364 175.716955 
L 243.345455 158.817301 
L 247.854545 149.225606 
L 252.363636 159.398616 
L 256.872727 153.917647 
L 261.381818 162.886505 
L 265.890909 167.910727 
L 270.4 169.903806 
L 274.909091 175.094118 
L 279.418182 164.173702 
L 283.927273 152.79654 
L 288.436364 178.042215 
L 292.945455 170.277509 
L 297.454545 163.094118 
L 301.963636 179.370934 
L 306.472727 166.249827 
L 310.981818 158.360554 
L 315.490909 183.232526 
L 320 164.29827 
L 324.509091 172.353633 
L 329.018182 170.568166 
L 333.527273 178.831142 
L 338.036364 174.47128 
L 342.545455 179.620069 
L 347.054545 162.346713 
L 351.563636 176.381315 
L 356.072727 175.052595 
L 360.581818 176.879585 
L 365.090909 178.083737 
L 369.6 189.585467 
L 374.109091 173.97301 
L 378.618182 173.97301 
L 383.127273 171.315571 
L 387.636364 173.391696 
L 392.145455 172.644291 
L 396.654545 168.367474 
L 401.163636 170.028374 
L 405.672727 170.111419 
L 410.181818 176.46436 
L 414.690909 186.056055 
L 419.2 179.661592 
L 423.709091 172.395156 
L 428.218182 179.952249 
L 432.727273 189.502422 
L 437.236364 182.235986 
L 441.745455 199.675433 
L 446.254545 183.024913 
L 450.763636 187.924567 
L 455.272727 180.824221 
L 459.781818 176.879585 
L 464.290909 182.028374 
L 468.8 181.862284 
L 473.309091 186.014533 
L 477.818182 179.786159 
L 482.327273 187.758478 
L 486.836364 178.955709 
L 491.345455 189.79308 
L 495.854545 202.166782 
L 500.363636 185.433218 
L 504.872727 192.159862 
L 509.381818 190.332872 
L 513.890909 195.896886 
L 518.4 187.592388 
" clip-path="url(#p6cd084355c)" style="fill: none; stroke: #ff7f0e; stroke-width: 1.5; stroke-linecap: square"/>
   </g>
   <g id="line2d_15">
    <path d="M 72 176.713495 
L 76.509091 209.889965 
L 81.018182 205.447059 
L 85.527273 210.844983 
L 90.036364 222.388235 
L 94.545455 221.682353 
L 99.054545 210.263668 
L 103.563636 243.066436 
L 108.072727 236.422837 
L 112.581818 237.045675 
L 117.090909 240.367474 
L 121.6 232.229066 
L 126.109091 238.914187 
L 130.618182 235.924567 
L 135.127273 249.29481 
L 139.636364 224.96263 
L 144.145455 237.502422 
L 148.654545 233.931488 
L 153.163636 231.938408 
L 157.672727 245.516263 
L 162.181818 254.651211 
L 166.690909 220.478201 
L 171.2 237.045675 
L 175.709091 236.29827 
L 180.218182 230.568166 
L 184.727273 235.841522 
L 189.236364 230.941869 
L 193.745455 236.381315 
L 198.254545 246.80346 
L 202.763636 246.429758 
L 207.272727 237.543945 
L 211.781818 245.47474 
L 216.290909 240.118339 
L 220.8 239.993772 
L 225.309091 249.419377 
L 229.818182 263.744637 
L 234.327273 247.13564 
L 238.836364 260.049135 
L 243.345455 256.810381 
L 247.854545 250.914187 
L 252.363636 253.696194 
L 256.872727 245.142561 
L 261.381818 256.851903 
L 265.890909 249.751557 
L 270.4 263.993772 
L 274.909091 259.8 
L 279.418182 257.723875 
L 283.927273 249.876125 
L 288.436364 255.315571 
L 292.945455 256.768858 
L 297.454545 252.616609 
L 301.963636 272.049135 
L 306.472727 254.858824 
L 310.981818 259.758478 
L 315.490909 258.014533 
L 320 259.841522 
L 324.509091 270.30519 
L 329.018182 260.713495 
L 333.527273 251.121799 
L 338.036364 257.308651 
L 342.545455 265.156401 
L 347.054545 260.838062 
L 351.563636 278.692734 
L 356.072727 253.156401 
L 360.581818 275.453979 
L 365.090909 252.948789 
L 369.6 261.087197 
L 374.109091 249.29481 
L 378.618182 275.703114 
L 383.127273 258.346713 
L 387.636364 261.4609 
L 392.145455 282.47128 
L 396.654545 263.869204 
L 401.163636 288.367474 
L 405.672727 274.000692 
L 410.181818 277.862284 
L 414.690909 280.146021 
L 419.2 271.841522 
L 423.709091 281.723875 
L 428.218182 273.4609 
L 432.727273 273.543945 
L 437.236364 271.094118 
L 441.745455 287.038754 
L 446.254545 275.578547 
L 450.763636 278.152941 
L 455.272727 273.12872 
L 459.781818 276.865744 
L 464.290909 273.211765 
L 468.8 277.405536 
L 473.309091 279.481661 
L 477.818182 279.024913 
L 482.327273 271.177163 
L 486.836364 272.256747 
L 491.345455 281.350173 
L 495.854545 294.47128 
L 500.363636 275.952249 
L 504.872727 270.47128 
L 509.381818 276.035294 
L 513.890909 278.152941 
L 518.4 273.95917 
" clip-path="url(#p6cd084355c)" style="fill: none; stroke: #2ca02c; stroke-width: 1.5; stroke-linecap: square"/>
   </g>
   <g id="line2d_16">
    <path d="M 72 104.381315 
L 76.509091 167.993772 
L 81.018182 181.779239 
L 85.527273 184.062976 
L 90.036364 196.644291 
L 94.545455 197.142561 
L 99.054545 190.208304 
L 103.563636 217.571626 
L 108.072727 204.284429 
L 112.581818 197.017993 
L 117.090909 177.004152 
L 121.6 197.184083 
L 126.109091 206.900346 
L 130.618182 206.526644 
L 135.127273 218.402076 
L 139.636364 199.343253 
L 144.145455 216.408997 
L 148.654545 204.118339 
L 153.163636 201.876125 
L 157.672727 212.547405 
L 162.181818 208.312111 
L 166.690909 183.647751 
L 171.2 206.443599 
L 175.709091 210.720415 
L 180.218182 191.038754 
L 184.727273 205.114879 
L 189.236364 202.374394 
L 193.745455 187.011073 
L 198.254545 222.014533 
L 202.763636 224.13218 
L 207.272727 209.848443 
L 211.781818 207.066436 
L 216.290909 204.450519 
L 220.8 226.000692 
L 225.309091 207.606228 
L 229.818182 245.391696 
L 234.327273 209.433218 
L 238.836364 231.523183 
L 243.345455 224.46436 
L 247.854545 221.80692 
L 252.363636 218.692734 
L 256.872727 216.824221 
L 261.381818 230.402076 
L 265.890909 218.277509 
L 270.4 206.485121 
L 274.909091 215.495502 
L 279.418182 221.889965 
L 283.927273 209.308651 
L 288.436364 219.979931 
L 292.945455 219.647751 
L 297.454545 220.893426 
L 301.963636 247.96609 
L 306.472727 221.391696 
L 310.981818 219.564706 
L 315.490909 218.651211 
L 320 221.101038 
L 324.509091 233.682353 
L 329.018182 239.869204 
L 333.527273 220.312111 
L 338.036364 214.955709 
L 342.545455 233.433218 
L 347.054545 211.094118 
L 351.563636 227.910727 
L 356.072727 231.855363 
L 360.581818 231.938408 
L 365.090909 220.934948 
L 369.6 234.429758 
L 374.109091 232.976471 
L 378.618182 238.872664 
L 383.127273 229.571626 
L 387.636364 245.142561 
L 392.145455 245.391696 
L 396.654545 241.073356 
L 401.163636 252.284429 
L 405.672727 242.983391 
L 410.181818 237.419377 
L 414.690909 248.007612 
L 419.2 249.087197 
L 423.709091 259.758478 
L 428.218182 245.101038 
L 432.727273 244.727336 
L 437.236364 246.014533 
L 441.745455 263.453979 
L 446.254545 234.263668 
L 450.763636 257.889965 
L 455.272727 237.79308 
L 459.781818 235.011073 
L 464.290909 256.893426 
L 468.8 252.658131 
L 473.309091 247.924567 
L 477.818182 256.478201 
L 482.327273 255.481661 
L 486.836364 240.492042 
L 491.345455 263.329412 
L 495.854545 265.530104 
L 500.363636 247.675433 
L 504.872727 248.049135 
L 509.381818 239.993772 
L 513.890909 256.436678 
L 518.4 265.114879 
" clip-path="url(#p6cd084355c)" style="fill: none; stroke: #d62728; stroke-width: 1.5; stroke-linecap: square"/>
   </g>
   <g id="line2d_17">
    <path d="M 72 156.492042 
L 76.509091 196.934948 
L 81.018182 197.516263 
L 85.527273 208.561246 
L 90.036364 219.398616 
L 94.545455 222.63737 
L 99.054545 225.79308 
L 103.563636 249.668512 
L 108.072727 243.855363 
L 112.581818 245.308651 
L 117.090909 238.789619 
L 121.6 241.156401 
L 126.109091 256.768858 
L 130.618182 236.79654 
L 135.127273 247.8 
L 139.636364 225.710035 
L 144.145455 254.277509 
L 148.654545 244.021453 
L 153.163636 238.457439 
L 157.672727 249.045675 
L 162.181818 257.889965 
L 166.690909 236.879585 
L 171.2 240.159862 
L 175.709091 244.104498 
L 180.218182 243.606228 
L 184.727273 242.152941 
L 189.236364 231.938408 
L 193.745455 239.661592 
L 198.254545 260.505882 
L 202.763636 259.63391 
L 207.272727 254.152941 
L 211.781818 252.948789 
L 216.290909 242.900346 
L 220.8 256.519723 
L 225.309091 263.869204 
L 229.818182 267.024913 
L 234.327273 260.755017 
L 238.836364 261.543945 
L 243.345455 264.242907 
L 247.854545 258.222145 
L 252.363636 261.876125 
L 256.872727 260.547405 
L 261.381818 271.675433 
L 265.890909 265.737716 
L 270.4 273.336332 
L 274.909091 278.651211 
L 279.418182 267.689273 
L 283.927273 267.357093 
L 288.436364 264.575087 
L 292.945455 258.30519 
L 297.454545 273.710035 
L 301.963636 279.813841 
L 306.472727 253.737716 
L 310.981818 264.284429 
L 315.490909 270.761938 
L 320 265.945329 
L 324.509091 274.540484 
L 329.018182 259.343253 
L 333.527273 265.364014 
L 338.036364 262.540484 
L 342.545455 267.232526 
L 347.054545 265.986851 
L 351.563636 289.322491 
L 356.072727 263.827682 
L 360.581818 286.12526 
L 365.090909 271.343253 
L 369.6 270.63737 
L 374.109091 267.107958 
L 378.618182 290.319031 
L 383.127273 263.869204 
L 387.636364 274.706574 
L 392.145455 286.540484 
L 396.654545 270.222145 
L 401.163636 296.173702 
L 405.672727 299.869204 
L 410.181818 285.087197 
L 414.690909 288.201384 
L 419.2 293.225606 
L 423.709091 297.751557 
L 428.218182 276.824221 
L 432.727273 287.370934 
L 437.236364 279.440138 
L 441.745455 303.066436 
L 446.254545 274.914187 
L 450.763636 285.751557 
L 455.272727 277.571626 
L 459.781818 281.682353 
L 464.290909 289.364014 
L 468.8 294.429758 
L 473.309091 297.336332 
L 477.818182 294.346713 
L 482.327273 295.384775 
L 486.836364 275.121799 
L 491.345455 292.685813 
L 495.854545 307.8 
L 500.363636 293.267128 
L 504.872727 267.689273 
L 509.381818 283.550865 
L 513.890909 301.613149 
L 518.4 280.893426 
" clip-path="url(#p6cd084355c)" style="fill: none; stroke: #9467bd; stroke-width: 1.5; stroke-linecap: square"/>
   </g>
   <g id="line2d_18">
    <path d="M 72 175.384775 
L 76.509091 206.360554 
L 81.018182 217.737716 
L 85.527273 217.654671 
L 90.036364 224.256747 
L 94.545455 232.312111 
L 99.054545 227.703114 
L 103.563636 239.495502 
L 108.072727 240.907266 
L 112.581818 238.665052 
L 117.090909 237.336332 
L 121.6 236.422837 
L 126.109091 251.578547 
L 130.618182 237.585467 
L 135.127273 244.727336 
L 139.636364 219.149481 
L 144.145455 250.374394 
L 148.654545 217.820761 
L 153.163636 238.706574 
L 157.672727 242.900346 
L 162.181818 261.95917 
L 166.690909 233.267128 
L 171.2 242.609689 
L 175.709091 236.090657 
L 180.218182 245.848443 
L 184.727273 247.177163 
L 189.236364 236.79654 
L 193.745455 231.481661 
L 198.254545 255.191003 
L 202.763636 245.97301 
L 207.272727 241.322491 
L 211.781818 253.696194 
L 216.290909 241.530104 
L 220.8 256.312111 
L 225.309091 256.934948 
L 229.818182 269.184083 
L 234.327273 247.550865 
L 238.836364 257.64083 
L 243.345455 256.602768 
L 247.854545 259.011073 
L 252.363636 253.903806 
L 256.872727 253.696194 
L 261.381818 262.582007 
L 265.890909 260.547405 
L 270.4 271.052595 
L 274.909091 259.343253 
L 279.418182 262.540484 
L 283.927273 255.315571 
L 288.436364 262.665052 
L 292.945455 253.613149 
L 297.454545 268.976471 
L 301.963636 280.519723 
L 306.472727 254.402076 
L 310.981818 255.398616 
L 315.490909 268.602768 
L 320 261.751557 
L 324.509091 266.194464 
L 329.018182 258.097578 
L 333.527273 261.917647 
L 338.036364 261.79308 
L 342.545455 266.069896 
L 347.054545 254.152941 
L 351.563636 279.689273 
L 356.072727 264.741176 
L 360.581818 277.197924 
L 365.090909 262.955709 
L 369.6 266.360554 
L 374.109091 263.952249 
L 378.618182 279.149481 
L 383.127273 261.710035 
L 387.636364 271.46782 
L 392.145455 289.737716 
L 396.654545 260.13218 
L 401.163636 295.30173 
L 405.672727 281.848443 
L 410.181818 276.990311 
L 414.690909 267.606228 
L 419.2 286.291349 
L 423.709091 286.291349 
L 428.218182 258.720415 
L 432.727273 283.758478 
L 437.236364 268.851903 
L 441.745455 292.685813 
L 446.254545 279.730796 
L 450.763636 286.374394 
L 455.272727 274.249827 
L 459.781818 274.042215 
L 464.290909 281.723875 
L 468.8 293.267128 
L 473.309091 277.737716 
L 477.818182 285.79308 
L 482.327273 276.408997 
L 486.836364 275.495502 
L 491.345455 295.924567 
L 495.854545 292.021453 
L 500.363636 284.339792 
L 504.872727 260.173702 
L 509.381818 273.12872 
L 513.890909 284.921107 
L 518.4 285.336332 
" clip-path="url(#p6cd084355c)" style="fill: none; stroke: #8c564b; stroke-width: 1.5; stroke-linecap: square"/>
   </g>
   <g id="line2d_19">
    <path d="M 72 121.447059 
L 76.509091 194.941869 
L 81.018182 190.042215 
L 85.527273 201.29481 
L 90.036364 210.928028 
L 94.545455 194.983391 
L 99.054545 207.274048 
L 103.563636 214.706574 
L 108.072727 214.498962 
L 112.581818 200.13218 
L 117.090909 207.315571 
L 121.6 193.986851 
L 126.109091 216.408997 
L 130.618182 211.177163 
L 135.127273 219.938408 
L 139.636364 196.270588 
L 144.145455 222.96955 
L 148.654545 217.613149 
L 153.163636 208.810381 
L 157.672727 226.457439 
L 162.181818 219.315571 
L 166.690909 186.63737 
L 171.2 209.184083 
L 175.709091 222.388235 
L 180.218182 188.588927 
L 184.727273 209.308651 
L 189.236364 205.114879 
L 193.745455 211.716955 
L 198.254545 218.277509 
L 202.763636 222.097578 
L 207.272727 212.79654 
L 211.781818 204.575087 
L 216.290909 219.481661 
L 220.8 211.675433 
L 225.309091 216.159862 
L 229.818182 246.554325 
L 234.327273 217.862284 
L 238.836364 240.035294 
L 243.345455 220.146021 
L 247.854545 226.955709 
L 252.363636 218.443599 
L 256.872727 208.685813 
L 261.381818 233.765398 
L 265.890909 207.647751 
L 270.4 217.654671 
L 274.909091 221.64083 
L 279.418182 228.575087 
L 283.927273 214.374394 
L 288.436364 222.80346 
L 292.945455 228.575087 
L 297.454545 228.699654 
L 301.963636 241.156401 
L 306.472727 223.883045 
L 310.981818 228.367474 
L 315.490909 232.229066 
L 320 233.765398 
L 324.509091 234.844983 
L 329.018182 240.616609 
L 333.527273 218.900346 
L 338.036364 228.741176 
L 342.545455 235.8 
L 347.054545 232.146021 
L 351.563636 240.367474 
L 356.072727 241.156401 
L 360.581818 247.675433 
L 365.090909 232.602768 
L 369.6 239.827682 
L 374.109091 242.568166 
L 378.618182 256.602768 
L 383.127273 237.710035 
L 387.636364 247.63391 
L 392.145455 256.851903 
L 396.654545 246.554325 
L 401.163636 268.229066 
L 405.672727 252.865744 
L 410.181818 249.419377 
L 414.690909 264.741176 
L 419.2 274.955709 
L 423.709091 261.62699 
L 428.218182 250.540484 
L 432.727273 268.644291 
L 437.236364 255.689273 
L 441.745455 270.263668 
L 446.254545 250.291349 
L 450.763636 272.838062 
L 455.272727 250.498962 
L 459.781818 257.516263 
L 464.290909 262.291349 
L 468.8 275.204844 
L 473.309091 262.540484 
L 477.818182 267.440138 
L 482.327273 254.775779 
L 486.836364 259.924567 
L 491.345455 279.564706 
L 495.854545 278.235986 
L 500.363636 267.274048 
L 504.872727 246.96955 
L 509.381818 258.678893 
L 513.890909 279.647751 
L 518.4 270.222145 
" clip-path="url(#p6cd084355c)" style="fill: none; stroke: #e377c2; stroke-width: 1.5; stroke-linecap: square"/>
   </g>
   <g id="line2d_20">
    <path d="M 72 160.312111 
L 76.509091 199.63391 
L 81.018182 213.668512 
L 85.527273 202.332872 
L 90.036364 217.820761 
L 94.545455 226.706574 
L 99.054545 231.896886 
L 103.563636 240.284429 
L 108.072727 237.751557 
L 112.581818 241.696194 
L 117.090909 235.426298 
L 121.6 237.585467 
L 126.109091 258.96955 
L 130.618182 224.13218 
L 135.127273 252.118339 
L 139.636364 233.350173 
L 144.145455 252.450519 
L 148.654545 236.713495 
L 153.163636 246.80346 
L 157.672727 235.343253 
L 162.181818 241.031834 
L 166.690909 237.004152 
L 171.2 239.495502 
L 175.709091 245.47474 
L 180.218182 243.481661 
L 184.727273 254.734256 
L 189.236364 240.948789 
L 193.745455 228.575087 
L 198.254545 232.976471 
L 202.763636 242.526644 
L 207.272727 221.101038 
L 211.781818 207.481661 
L 216.290909 232.270588 
L 220.8 230.609689 
L 225.309091 252.575087 
L 229.818182 240.367474 
L 234.327273 240.284429 
L 238.836364 258.886505 
L 243.345455 252.907266 
L 247.854545 263.495502 
L 252.363636 248.63045 
L 256.872727 251.287889 
L 261.381818 260.671972 
L 265.890909 255.855363 
L 270.4 277.447059 
L 274.909091 269.557785 
L 279.418182 269.101038 
L 283.927273 265.488581 
L 288.436364 252.699654 
L 292.945455 259.384775 
L 297.454545 270.180623 
L 301.963636 280.851903 
L 306.472727 260.838062 
L 310.981818 265.737716 
L 315.490909 269.682353 
L 320 263.537024 
L 324.509091 275.370934 
L 329.018182 270.1391 
L 333.527273 258.761938 
L 338.036364 261.045675 
L 342.545455 265.447059 
L 347.054545 269.889965 
L 351.563636 288.242907 
L 356.072727 265.447059 
L 360.581818 277.986851 
L 365.090909 272.007612 
L 369.6 272.505882 
L 374.109091 265.447059 
L 378.618182 288.741176 
L 383.127273 267.647751 
L 387.636364 268.146021 
L 392.145455 288.575087 
L 396.654545 257.931488 
L 401.163636 301.530104 
L 405.672727 289.696194 
L 410.181818 284.588927 
L 414.690909 283.841522 
L 419.2 291.564706 
L 423.709091 286.789619 
L 428.218182 278.734256 
L 432.727273 291.730796 
L 437.236364 282.512803 
L 441.745455 306.346713 
L 446.254545 287.495502 
L 450.763636 290.775779 
L 455.272727 277.031834 
L 459.781818 273.95917 
L 464.290909 295.592388 
L 468.8 293.101038 
L 473.309091 299.827682 
L 477.818182 283.716955 
L 482.327273 282.512803 
L 486.836364 288.367474 
L 491.345455 290.983391 
L 495.854545 299.744637 
L 500.363636 299.703114 
L 504.872727 273.79308 
L 509.381818 260.29827 
L 513.890909 300.284429 
L 518.4 289.488581 
" clip-path="url(#p6cd084355c)" style="fill: none; stroke: #7f7f7f; stroke-width: 1.5; stroke-linecap: square"/>
   </g>
   <g id="patch_3">
    <path d="M 72 320.4 
L 72 43.2 
" style="fill: none; stroke: #000000; stroke-width: 0.8; stroke-linejoin: miter; stroke-linecap: square"/>
   </g>
   <g id="patch_4">
    <path d="M 518.4 320.4 
L 518.4 43.2 
" style="fill: none; stroke: #000000; stroke-width: 0.8; stroke-linejoin: miter; stroke-linecap: square"/>
   </g>
   <g id="patch_5">
    <path d="M 72 320.4 
L 518.4 320.4 
" style="fill: none; stroke: #000000; stroke-width: 0.8; stroke-linejoin: miter; stroke-linecap: square"/>
   </g>
   <g id="patch_6">
    <path d="M 72 43.2 
L 518.4 43.2 
" style="fill: none; stroke: #000000; stroke-width: 0.8; stroke-linejoin: miter; stroke-linecap: square"/>
   </g>
   <g id="text_15">
    <!-- H3K36me3 -->
    <g transform="translate(261.946875 37.2) scale(0.12 -0.12)">
     <defs>
      <path id="DejaVuSans-48" d="M 628 4666 
L 1259 4666 
L 1259 2753 
L 3553 2753 
L 3553 4666 
L 4184 4666 
L 4184 0 
L 3553 0 
L 3553 2222 
L 1259 2222 
L 1259 0 
L 628 0 
L 628 4666 
z
" transform="scale(0.015625)"/>
      <path id="DejaVuSans-4b" d="M 628 4666 
L 1259 4666 
L 1259 2694 
L 3353 4666 
L 4166 4666 
L 1850 2491 
L 4331 0 
L 3500 0 
L 1259 2247 
L 1259 0 
L 628 0 
L 628 4666 
z
" transform="scale(0.015625)"/>
      <path id="DejaVuSans-6d" d="M 3328 2828 
Q 3544 3216 3844 3400 
Q 4144 3584 4550 3584 
Q 5097 3584 5394 3201 
Q 5691 2819 5691 2113 
L 5691 0 
L 5113 0 
L 5113 2094 
Q 5113 2597 4934 2840 
Q 4756 3084 4391 3084 
Q 3944 3084 3684 2787 
Q 3425 2491 3425 1978 
L 3425 0 
L 2847 0 
L 2847 2094 
Q 2847 2600 2669 2842 
Q 2491 3084 2119 3084 
Q 1678 3084 1418 2786 
Q 1159 2488 1159 1978 
L 1159 0 
L 581 0 
L 581 3500 
L 1159 3500 
L 1159 2956 
Q 1356 3278 1631 3431 
Q 1906 3584 2284 3584 
Q 2666 3584 2933 3390 
Q 3200 3197 3328 2828 
z
" transform="scale(0.015625)"/>
     </defs>
     <use xlink:href="#DejaVuSans-48"/>
     <use xlink:href="#DejaVuSans-33" transform="translate(75.195312 0)"/>
     <use xlink:href="#DejaVuSans-4b" transform="translate(138.818359 0)"/>
     <use xlink:href="#DejaVuSans-33" transform="translate(204.394531 0)"/>
     <use xlink:href="#DejaVuSans-36" transform="translate(268.017578 0)"/>
     <use xlink:href="#DejaVuSans-6d" transform="translate(331.640625 0)"/>
     <use xlink:href="#DejaVuSans-65" transform="translate(429.052734 0)"/>
     <use xlink:href="#DejaVuSans-33" transform="translate(490.576172 0)"/>
    </g>
   </g>
   <g id="legend_1">
    <g id="patch_7">
     <path d="M 334.210684 147.679025 
L 512.569 147.679025 
Q 514.235 147.679025 514.235 146.013025 
L 514.235 49.031 
Q 514.235 47.365 512.569 47.365 
L 334.210684 47.365 
Q 332.544684 47.365 332.544684 49.031 
L 332.544684 146.013025 
Q 332.544684 147.679025 334.210684 147.679025 
z
" style="fill: #ffffff; opacity: 0.8; stroke: #cccccc; stroke-linejoin: miter"/>
    </g>
    <g id="line2d_21">
     <path d="M 335.876684 54.110998 
L 344.206684 54.110998 
L 352.536684 54.110998 
" style="fill: none; stroke: #1f77b4; stroke-width: 1.5; stroke-linecap: square"/>
    </g>
    <g id="text_16">
     <!-- NT-MS V2 (50M) with rand. weights -->
     <g transform="translate(359.200684 57.026498) scale(0.0833 -0.0833)">
      <defs>
       <path id="DejaVuSans-4e" d="M 628 4666 
L 1478 4666 
L 3547 763 
L 3547 4666 
L 4159 4666 
L 4159 0 
L 3309 0 
L 1241 3903 
L 1241 0 
L 628 0 
L 628 4666 
z
" transform="scale(0.015625)"/>
       <path id="DejaVuSans-2d" d="M 313 2009 
L 1997 2009 
L 1997 1497 
L 313 1497 
L 313 2009 
z
" transform="scale(0.015625)"/>
       <path id="DejaVuSans-4d" d="M 628 4666 
L 1569 4666 
L 2759 1491 
L 3956 4666 
L 4897 4666 
L 4897 0 
L 4281 0 
L 4281 4097 
L 3078 897 
L 2444 897 
L 1241 4097 
L 1241 0 
L 628 0 
L 628 4666 
z
" transform="scale(0.015625)"/>
       <path id="DejaVuSans-53" d="M 3425 4513 
L 3425 3897 
Q 3066 4069 2747 4153 
Q 2428 4238 2131 4238 
Q 1616 4238 1336 4038 
Q 1056 3838 1056 3469 
Q 1056 3159 1242 3001 
Q 1428 2844 1947 2747 
L 2328 2669 
Q 3034 2534 3370 2195 
Q 3706 1856 3706 1288 
Q 3706 609 3251 259 
Q 2797 -91 1919 -91 
Q 1588 -91 1214 -16 
Q 841 59 441 206 
L 441 856 
Q 825 641 1194 531 
Q 1563 422 1919 422 
Q 2459 422 2753 634 
Q 3047 847 3047 1241 
Q 3047 1584 2836 1778 
Q 2625 1972 2144 2069 
L 1759 2144 
Q 1053 2284 737 2584 
Q 422 2884 422 3419 
Q 422 4038 858 4394 
Q 1294 4750 2059 4750 
Q 2388 4750 2728 4690 
Q 3069 4631 3425 4513 
z
" transform="scale(0.015625)"/>
       <path id="DejaVuSans-56" d="M 1831 0 
L 50 4666 
L 709 4666 
L 2188 738 
L 3669 4666 
L 4325 4666 
L 2547 0 
L 1831 0 
z
" transform="scale(0.015625)"/>
       <path id="DejaVuSans-28" d="M 1984 4856 
Q 1566 4138 1362 3434 
Q 1159 2731 1159 2009 
Q 1159 1288 1364 580 
Q 1569 -128 1984 -844 
L 1484 -844 
Q 1016 -109 783 600 
Q 550 1309 550 2009 
Q 550 2706 781 3412 
Q 1013 4119 1484 4856 
L 1984 4856 
z
" transform="scale(0.015625)"/>
       <path id="DejaVuSans-29" d="M 513 4856 
L 1013 4856 
Q 1481 4119 1714 3412 
Q 1947 2706 1947 2009 
Q 1947 1309 1714 600 
Q 1481 -109 1013 -844 
L 513 -844 
Q 928 -128 1133 580 
Q 1338 1288 1338 2009 
Q 1338 2731 1133 3434 
Q 928 4138 513 4856 
z
" transform="scale(0.015625)"/>
       <path id="DejaVuSans-77" d="M 269 3500 
L 844 3500 
L 1563 769 
L 2278 3500 
L 2956 3500 
L 3675 769 
L 4391 3500 
L 4966 3500 
L 4050 0 
L 3372 0 
L 2619 2869 
L 1863 0 
L 1184 0 
L 269 3500 
z
" transform="scale(0.015625)"/>
       <path id="DejaVuSans-68" d="M 3513 2113 
L 3513 0 
L 2938 0 
L 2938 2094 
Q 2938 2591 2744 2837 
Q 2550 3084 2163 3084 
Q 1697 3084 1428 2787 
Q 1159 2491 1159 1978 
L 1159 0 
L 581 0 
L 581 4863 
L 1159 4863 
L 1159 2956 
Q 1366 3272 1645 3428 
Q 1925 3584 2291 3584 
Q 2894 3584 3203 3211 
Q 3513 2838 3513 2113 
z
" transform="scale(0.015625)"/>
       <path id="DejaVuSans-64" d="M 2906 2969 
L 2906 4863 
L 3481 4863 
L 3481 0 
L 2906 0 
L 2906 525 
Q 2725 213 2448 61 
Q 2172 -91 1784 -91 
Q 1150 -91 751 415 
Q 353 922 353 1747 
Q 353 2572 751 3078 
Q 1150 3584 1784 3584 
Q 2172 3584 2448 3432 
Q 2725 3281 2906 2969 
z
M 947 1747 
Q 947 1113 1208 752 
Q 1469 391 1925 391 
Q 2381 391 2643 752 
Q 2906 1113 2906 1747 
Q 2906 2381 2643 2742 
Q 2381 3103 1925 3103 
Q 1469 3103 1208 2742 
Q 947 2381 947 1747 
z
" transform="scale(0.015625)"/>
      </defs>
      <use xlink:href="#DejaVuSans-4e"/>
      <use xlink:href="#DejaVuSans-54" transform="translate(74.804688 0)"/>
      <use xlink:href="#DejaVuSans-2d" transform="translate(126.763672 0)"/>
      <use xlink:href="#DejaVuSans-4d" transform="translate(162.847656 0)"/>
      <use xlink:href="#DejaVuSans-53" transform="translate(249.126953 0)"/>
      <use xlink:href="#DejaVuSans-20" transform="translate(312.603516 0)"/>
      <use xlink:href="#DejaVuSans-56" transform="translate(344.390625 0)"/>
      <use xlink:href="#DejaVuSans-32" transform="translate(412.798828 0)"/>
      <use xlink:href="#DejaVuSans-20" transform="translate(476.421875 0)"/>
      <use xlink:href="#DejaVuSans-28" transform="translate(508.208984 0)"/>
      <use xlink:href="#DejaVuSans-35" transform="translate(547.222656 0)"/>
      <use xlink:href="#DejaVuSans-30" transform="translate(610.845703 0)"/>
      <use xlink:href="#DejaVuSans-4d" transform="translate(674.46875 0)"/>
      <use xlink:href="#DejaVuSans-29" transform="translate(760.748047 0)"/>
      <use xlink:href="#DejaVuSans-20" transform="translate(799.761719 0)"/>
      <use xlink:href="#DejaVuSans-77" transform="translate(831.548828 0)"/>
      <use xlink:href="#DejaVuSans-69" transform="translate(913.335938 0)"/>
      <use xlink:href="#DejaVuSans-74" transform="translate(941.119141 0)"/>
      <use xlink:href="#DejaVuSans-68" transform="translate(980.328125 0)"/>
      <use xlink:href="#DejaVuSans-20" transform="translate(1043.707031 0)"/>
      <use xlink:href="#DejaVuSans-72" transform="translate(1075.494141 0)"/>
      <use xlink:href="#DejaVuSans-61" transform="translate(1116.607422 0)"/>
      <use xlink:href="#DejaVuSans-6e" transform="translate(1177.886719 0)"/>
      <use xlink:href="#DejaVuSans-64" transform="translate(1241.265625 0)"/>
      <use xlink:href="#DejaVuSans-2e" transform="translate(1304.742188 0)"/>
      <use xlink:href="#DejaVuSans-20" transform="translate(1336.529297 0)"/>
      <use xlink:href="#DejaVuSans-77" transform="translate(1368.316406 0)"/>
      <use xlink:href="#DejaVuSans-65" transform="translate(1450.103516 0)"/>
      <use xlink:href="#DejaVuSans-69" transform="translate(1511.626953 0)"/>
      <use xlink:href="#DejaVuSans-67" transform="translate(1539.410156 0)"/>
      <use xlink:href="#DejaVuSans-68" transform="translate(1602.886719 0)"/>
      <use xlink:href="#DejaVuSans-74" transform="translate(1666.265625 0)"/>
      <use xlink:href="#DejaVuSans-73" transform="translate(1705.474609 0)"/>
     </g>
    </g>
    <g id="line2d_22">
     <path d="M 335.876684 66.337877 
L 344.206684 66.337877 
L 352.536684 66.337877 
" style="fill: none; stroke: #ff7f0e; stroke-width: 1.5; stroke-linecap: square"/>
    </g>
    <g id="text_17">
     <!-- NT-MS V2 (500M) with rand. weights -->
     <g transform="translate(359.200684 69.253377) scale(0.0833 -0.0833)">
      <use xlink:href="#DejaVuSans-4e"/>
      <use xlink:href="#DejaVuSans-54" transform="translate(74.804688 0)"/>
      <use xlink:href="#DejaVuSans-2d" transform="translate(126.763672 0)"/>
      <use xlink:href="#DejaVuSans-4d" transform="translate(162.847656 0)"/>
      <use xlink:href="#DejaVuSans-53" transform="translate(249.126953 0)"/>
      <use xlink:href="#DejaVuSans-20" transform="translate(312.603516 0)"/>
      <use xlink:href="#DejaVuSans-56" transform="translate(344.390625 0)"/>
      <use xlink:href="#DejaVuSans-32" transform="translate(412.798828 0)"/>
      <use xlink:href="#DejaVuSans-20" transform="translate(476.421875 0)"/>
      <use xlink:href="#DejaVuSans-28" transform="translate(508.208984 0)"/>
      <use xlink:href="#DejaVuSans-35" transform="translate(547.222656 0)"/>
      <use xlink:href="#DejaVuSans-30" transform="translate(610.845703 0)"/>
      <use xlink:href="#DejaVuSans-30" transform="translate(674.46875 0)"/>
      <use xlink:href="#DejaVuSans-4d" transform="translate(738.091797 0)"/>
      <use xlink:href="#DejaVuSans-29" transform="translate(824.371094 0)"/>
      <use xlink:href="#DejaVuSans-20" transform="translate(863.384766 0)"/>
      <use xlink:href="#DejaVuSans-77" transform="translate(895.171875 0)"/>
      <use xlink:href="#DejaVuSans-69" transform="translate(976.958984 0)"/>
      <use xlink:href="#DejaVuSans-74" transform="translate(1004.742188 0)"/>
      <use xlink:href="#DejaVuSans-68" transform="translate(1043.951172 0)"/>
      <use xlink:href="#DejaVuSans-20" transform="translate(1107.330078 0)"/>
      <use xlink:href="#DejaVuSans-72" transform="translate(1139.117188 0)"/>
      <use xlink:href="#DejaVuSans-61" transform="translate(1180.230469 0)"/>
      <use xlink:href="#DejaVuSans-6e" transform="translate(1241.509766 0)"/>
      <use xlink:href="#DejaVuSans-64" transform="translate(1304.888672 0)"/>
      <use xlink:href="#DejaVuSans-2e" transform="translate(1368.365234 0)"/>
      <use xlink:href="#DejaVuSans-20" transform="translate(1400.152344 0)"/>
      <use xlink:href="#DejaVuSans-77" transform="translate(1431.939453 0)"/>
      <use xlink:href="#DejaVuSans-65" transform="translate(1513.726562 0)"/>
      <use xlink:href="#DejaVuSans-69" transform="translate(1575.25 0)"/>
      <use xlink:href="#DejaVuSans-67" transform="translate(1603.033203 0)"/>
      <use xlink:href="#DejaVuSans-68" transform="translate(1666.509766 0)"/>
      <use xlink:href="#DejaVuSans-74" transform="translate(1729.888672 0)"/>
      <use xlink:href="#DejaVuSans-73" transform="translate(1769.097656 0)"/>
     </g>
    </g>
    <g id="line2d_23">
     <path d="M 335.876684 78.564755 
L 344.206684 78.564755 
L 352.536684 78.564755 
" style="fill: none; stroke: #2ca02c; stroke-width: 1.5; stroke-linecap: square"/>
    </g>
    <g id="text_18">
     <!-- NT-MS V2 (50M) -->
     <g transform="translate(359.200684 81.480255) scale(0.0833 -0.0833)">
      <use xlink:href="#DejaVuSans-4e"/>
      <use xlink:href="#DejaVuSans-54" transform="translate(74.804688 0)"/>
      <use xlink:href="#DejaVuSans-2d" transform="translate(126.763672 0)"/>
      <use xlink:href="#DejaVuSans-4d" transform="translate(162.847656 0)"/>
      <use xlink:href="#DejaVuSans-53" transform="translate(249.126953 0)"/>
      <use xlink:href="#DejaVuSans-20" transform="translate(312.603516 0)"/>
      <use xlink:href="#DejaVuSans-56" transform="translate(344.390625 0)"/>
      <use xlink:href="#DejaVuSans-32" transform="translate(412.798828 0)"/>
      <use xlink:href="#DejaVuSans-20" transform="translate(476.421875 0)"/>
      <use xlink:href="#DejaVuSans-28" transform="translate(508.208984 0)"/>
      <use xlink:href="#DejaVuSans-35" transform="translate(547.222656 0)"/>
      <use xlink:href="#DejaVuSans-30" transform="translate(610.845703 0)"/>
      <use xlink:href="#DejaVuSans-4d" transform="translate(674.46875 0)"/>
      <use xlink:href="#DejaVuSans-29" transform="translate(760.748047 0)"/>
     </g>
    </g>
    <g id="line2d_24">
     <path d="M 335.876684 90.791633 
L 344.206684 90.791633 
L 352.536684 90.791633 
" style="fill: none; stroke: #d62728; stroke-width: 1.5; stroke-linecap: square"/>
    </g>
    <g id="text_19">
     <!-- NT-1000g (500M) -->
     <g transform="translate(359.200684 93.707133) scale(0.0833 -0.0833)">
      <use xlink:href="#DejaVuSans-4e"/>
      <use xlink:href="#DejaVuSans-54" transform="translate(74.804688 0)"/>
      <use xlink:href="#DejaVuSans-2d" transform="translate(126.763672 0)"/>
      <use xlink:href="#DejaVuSans-31" transform="translate(162.847656 0)"/>
      <use xlink:href="#DejaVuSans-30" transform="translate(226.470703 0)"/>
      <use xlink:href="#DejaVuSans-30" transform="translate(290.09375 0)"/>
      <use xlink:href="#DejaVuSans-30" transform="translate(353.716797 0)"/>
      <use xlink:href="#DejaVuSans-67" transform="translate(417.339844 0)"/>
      <use xlink:href="#DejaVuSans-20" transform="translate(480.816406 0)"/>
      <use xlink:href="#DejaVuSans-28" transform="translate(512.603516 0)"/>
      <use xlink:href="#DejaVuSans-35" transform="translate(551.617188 0)"/>
      <use xlink:href="#DejaVuSans-30" transform="translate(615.240234 0)"/>
      <use xlink:href="#DejaVuSans-30" transform="translate(678.863281 0)"/>
      <use xlink:href="#DejaVuSans-4d" transform="translate(742.486328 0)"/>
      <use xlink:href="#DejaVuSans-29" transform="translate(828.765625 0)"/>
     </g>
    </g>
    <g id="line2d_25">
     <path d="M 335.876684 103.018511 
L 344.206684 103.018511 
L 352.536684 103.018511 
" style="fill: none; stroke: #9467bd; stroke-width: 1.5; stroke-linecap: square"/>
    </g>
    <g id="text_20">
     <!-- NT-MS V2 (250M) -->
     <g transform="translate(359.200684 105.934011) scale(0.0833 -0.0833)">
      <use xlink:href="#DejaVuSans-4e"/>
      <use xlink:href="#DejaVuSans-54" transform="translate(74.804688 0)"/>
      <use xlink:href="#DejaVuSans-2d" transform="translate(126.763672 0)"/>
      <use xlink:href="#DejaVuSans-4d" transform="translate(162.847656 0)"/>
      <use xlink:href="#DejaVuSans-53" transform="translate(249.126953 0)"/>
      <use xlink:href="#DejaVuSans-20" transform="translate(312.603516 0)"/>
      <use xlink:href="#DejaVuSans-56" transform="translate(344.390625 0)"/>
      <use xlink:href="#DejaVuSans-32" transform="translate(412.798828 0)"/>
      <use xlink:href="#DejaVuSans-20" transform="translate(476.421875 0)"/>
      <use xlink:href="#DejaVuSans-28" transform="translate(508.208984 0)"/>
      <use xlink:href="#DejaVuSans-32" transform="translate(547.222656 0)"/>
      <use xlink:href="#DejaVuSans-35" transform="translate(610.845703 0)"/>
      <use xlink:href="#DejaVuSans-30" transform="translate(674.46875 0)"/>
      <use xlink:href="#DejaVuSans-4d" transform="translate(738.091797 0)"/>
      <use xlink:href="#DejaVuSans-29" transform="translate(824.371094 0)"/>
     </g>
    </g>
    <g id="line2d_26">
     <path d="M 335.876684 115.245389 
L 344.206684 115.245389 
L 352.536684 115.245389 
" style="fill: none; stroke: #8c564b; stroke-width: 1.5; stroke-linecap: square"/>
    </g>
    <g id="text_21">
     <!-- NT-MS V2 (100M) -->
     <g transform="translate(359.200684 118.160889) scale(0.0833 -0.0833)">
      <use xlink:href="#DejaVuSans-4e"/>
      <use xlink:href="#DejaVuSans-54" transform="translate(74.804688 0)"/>
      <use xlink:href="#DejaVuSans-2d" transform="translate(126.763672 0)"/>
      <use xlink:href="#DejaVuSans-4d" transform="translate(162.847656 0)"/>
      <use xlink:href="#DejaVuSans-53" transform="translate(249.126953 0)"/>
      <use xlink:href="#DejaVuSans-20" transform="translate(312.603516 0)"/>
      <use xlink:href="#DejaVuSans-56" transform="translate(344.390625 0)"/>
      <use xlink:href="#DejaVuSans-32" transform="translate(412.798828 0)"/>
      <use xlink:href="#DejaVuSans-20" transform="translate(476.421875 0)"/>
      <use xlink:href="#DejaVuSans-28" transform="translate(508.208984 0)"/>
      <use xlink:href="#DejaVuSans-31" transform="translate(547.222656 0)"/>
      <use xlink:href="#DejaVuSans-30" transform="translate(610.845703 0)"/>
      <use xlink:href="#DejaVuSans-30" transform="translate(674.46875 0)"/>
      <use xlink:href="#DejaVuSans-4d" transform="translate(738.091797 0)"/>
      <use xlink:href="#DejaVuSans-29" transform="translate(824.371094 0)"/>
     </g>
    </g>
    <g id="line2d_27">
     <path d="M 335.876684 127.472267 
L 344.206684 127.472267 
L 352.536684 127.472267 
" style="fill: none; stroke: #e377c2; stroke-width: 1.5; stroke-linecap: square"/>
    </g>
    <g id="text_22">
     <!-- NT-Human-Ref. (500M) -->
     <g transform="translate(359.200684 130.387767) scale(0.0833 -0.0833)">
      <defs>
       <path id="DejaVuSans-75" d="M 544 1381 
L 544 3500 
L 1119 3500 
L 1119 1403 
Q 1119 906 1312 657 
Q 1506 409 1894 409 
Q 2359 409 2629 706 
Q 2900 1003 2900 1516 
L 2900 3500 
L 3475 3500 
L 3475 0 
L 2900 0 
L 2900 538 
Q 2691 219 2414 64 
Q 2138 -91 1772 -91 
Q 1169 -91 856 284 
Q 544 659 544 1381 
z
M 1991 3584 
L 1991 3584 
z
" transform="scale(0.015625)"/>
       <path id="DejaVuSans-52" d="M 2841 2188 
Q 3044 2119 3236 1894 
Q 3428 1669 3622 1275 
L 4263 0 
L 3584 0 
L 2988 1197 
Q 2756 1666 2539 1819 
Q 2322 1972 1947 1972 
L 1259 1972 
L 1259 0 
L 628 0 
L 628 4666 
L 2053 4666 
Q 2853 4666 3247 4331 
Q 3641 3997 3641 3322 
Q 3641 2881 3436 2590 
Q 3231 2300 2841 2188 
z
M 1259 4147 
L 1259 2491 
L 2053 2491 
Q 2509 2491 2742 2702 
Q 2975 2913 2975 3322 
Q 2975 3731 2742 3939 
Q 2509 4147 2053 4147 
L 1259 4147 
z
" transform="scale(0.015625)"/>
       <path id="DejaVuSans-66" d="M 2375 4863 
L 2375 4384 
L 1825 4384 
Q 1516 4384 1395 4259 
Q 1275 4134 1275 3809 
L 1275 3500 
L 2222 3500 
L 2222 3053 
L 1275 3053 
L 1275 0 
L 697 0 
L 697 3053 
L 147 3053 
L 147 3500 
L 697 3500 
L 697 3744 
Q 697 4328 969 4595 
Q 1241 4863 1831 4863 
L 2375 4863 
z
" transform="scale(0.015625)"/>
      </defs>
      <use xlink:href="#DejaVuSans-4e"/>
      <use xlink:href="#DejaVuSans-54" transform="translate(74.804688 0)"/>
      <use xlink:href="#DejaVuSans-2d" transform="translate(126.763672 0)"/>
      <use xlink:href="#DejaVuSans-48" transform="translate(162.847656 0)"/>
      <use xlink:href="#DejaVuSans-75" transform="translate(238.042969 0)"/>
      <use xlink:href="#DejaVuSans-6d" transform="translate(301.421875 0)"/>
      <use xlink:href="#DejaVuSans-61" transform="translate(398.833984 0)"/>
      <use xlink:href="#DejaVuSans-6e" transform="translate(460.113281 0)"/>
      <use xlink:href="#DejaVuSans-2d" transform="translate(523.492188 0)"/>
      <use xlink:href="#DejaVuSans-52" transform="translate(559.576172 0)"/>
      <use xlink:href="#DejaVuSans-65" transform="translate(624.558594 0)"/>
      <use xlink:href="#DejaVuSans-66" transform="translate(686.082031 0)"/>
      <use xlink:href="#DejaVuSans-2e" transform="translate(714.037109 0)"/>
      <use xlink:href="#DejaVuSans-20" transform="translate(745.824219 0)"/>
      <use xlink:href="#DejaVuSans-28" transform="translate(777.611328 0)"/>
      <use xlink:href="#DejaVuSans-35" transform="translate(816.625 0)"/>
      <use xlink:href="#DejaVuSans-30" transform="translate(880.248047 0)"/>
      <use xlink:href="#DejaVuSans-30" transform="translate(943.871094 0)"/>
      <use xlink:href="#DejaVuSans-4d" transform="translate(1007.494141 0)"/>
      <use xlink:href="#DejaVuSans-29" transform="translate(1093.773438 0)"/>
     </g>
    </g>
    <g id="line2d_28">
     <path d="M 335.876684 139.699145 
L 344.206684 139.699145 
L 352.536684 139.699145 
" style="fill: none; stroke: #7f7f7f; stroke-width: 1.5; stroke-linecap: square"/>
    </g>
    <g id="text_23">
     <!-- NT-MS V2 (500M) -->
     <g transform="translate(359.200684 142.614645) scale(0.0833 -0.0833)">
      <use xlink:href="#DejaVuSans-4e"/>
      <use xlink:href="#DejaVuSans-54" transform="translate(74.804688 0)"/>
      <use xlink:href="#DejaVuSans-2d" transform="translate(126.763672 0)"/>
      <use xlink:href="#DejaVuSans-4d" transform="translate(162.847656 0)"/>
      <use xlink:href="#DejaVuSans-53" transform="translate(249.126953 0)"/>
      <use xlink:href="#DejaVuSans-20" transform="translate(312.603516 0)"/>
      <use xlink:href="#DejaVuSans-56" transform="translate(344.390625 0)"/>
      <use xlink:href="#DejaVuSans-32" transform="translate(412.798828 0)"/>
      <use xlink:href="#DejaVuSans-20" transform="translate(476.421875 0)"/>
      <use xlink:href="#DejaVuSans-28" transform="translate(508.208984 0)"/>
      <use xlink:href="#DejaVuSans-35" transform="translate(547.222656 0)"/>
      <use xlink:href="#DejaVuSans-30" transform="translate(610.845703 0)"/>
      <use xlink:href="#DejaVuSans-30" transform="translate(674.46875 0)"/>
      <use xlink:href="#DejaVuSans-4d" transform="translate(738.091797 0)"/>
      <use xlink:href="#DejaVuSans-29" transform="translate(824.371094 0)"/>
     </g>
    </g>
   </g>
  </g>
 </g>
 <defs>
  <clipPath id="p6cd084355c">
   <rect x="72" y="43.2" width="446.4" height="277.2"/>
  </clipPath>
 </defs>
</svg>
