<?xml version="1.0" encoding="utf-8" standalone="no"?>
<!DOCTYPE svg PUBLIC "-//W3C//DTD SVG 1.1//EN"
  "http://www.w3.org/Graphics/SVG/1.1/DTD/svg11.dtd">
<svg xmlns:xlink="http://www.w3.org/1999/xlink" width="576pt" height="360pt" viewBox="0 0 576 360" xmlns="http://www.w3.org/2000/svg" version="1.1">
 <metadata>
  <rdf:RDF xmlns:dc="http://purl.org/dc/elements/1.1/" xmlns:cc="http://creativecommons.org/ns#" xmlns:rdf="http://www.w3.org/1999/02/22-rdf-syntax-ns#">
   <cc:Work>
    <dc:type rdf:resource="http://purl.org/dc/dcmitype/StillImage"/>
    <dc:date>2025-01-07T03:55:00.881293</dc:date>
    <dc:format>image/svg+xml</dc:format>
    <dc:creator>
     <cc:Agent>
      <dc:title>Matplotlib v3.10.0, https://matplotlib.org/</dc:title>
     </cc:Agent>
    </dc:creator>
   </cc:Work>
  </rdf:RDF>
 </metadata>
 <defs>
  <style type="text/css">*{stroke-linejoin: round; stroke-linecap: butt}</style>
 </defs>
 <g id="figure_1">
  <g id="patch_1">
   <path d="M 0 360 
L 576 360 
L 576 0 
L 0 0 
z
" style="fill: #ffffff"/>
  </g>
  <g id="axes_1">
   <g id="patch_2">
    <path d="M 72 320.4 
L 518.4 320.4 
L 518.4 43.2 
L 72 43.2 
z
" style="fill: #ffffff"/>
   </g>
   <g id="matplotlib.axis_1">
    <g id="xtick_1">
     <g id="line2d_1">
      <defs>
       <path id="m575f5c45c8" d="M 0 0 
L 0 3.5 
" style="stroke: #000000; stroke-width: 0.8"/>
      </defs>
      <g>
       <use xlink:href="#m575f5c45c8" x="157.672727" y="320.4" style="stroke: #000000; stroke-width: 0.8"/>
      </g>
     </g>
     <g id="text_1">
      <!-- 2000 -->
      <g transform="translate(144.947727 334.998438) scale(0.1 -0.1)">
       <defs>
        <path id="DejaVuSans-32" d="M 1228 531 
L 3431 531 
L 3431 0 
L 469 0 
L 469 531 
Q 828 903 1448 1529 
Q 2069 2156 2228 2338 
Q 2531 2678 2651 2914 
Q 2772 3150 2772 3378 
Q 2772 3750 2511 3984 
Q 2250 4219 1831 4219 
Q 1534 4219 1204 4116 
Q 875 4013 500 3803 
L 500 4441 
Q 881 4594 1212 4672 
Q 1544 4750 1819 4750 
Q 2544 4750 2975 4387 
Q 3406 4025 3406 3419 
Q 3406 3131 3298 2873 
Q 3191 2616 2906 2266 
Q 2828 2175 2409 1742 
Q 1991 1309 1228 531 
z
" transform="scale(0.015625)"/>
        <path id="DejaVuSans-30" d="M 2034 4250 
Q 1547 4250 1301 3770 
Q 1056 3291 1056 2328 
Q 1056 1369 1301 889 
Q 1547 409 2034 409 
Q 2525 409 2770 889 
Q 3016 1369 3016 2328 
Q 3016 3291 2770 3770 
Q 2525 4250 2034 4250 
z
M 2034 4750 
Q 2819 4750 3233 4129 
Q 3647 3509 3647 2328 
Q 3647 1150 3233 529 
Q 2819 -91 2034 -91 
Q 1250 -91 836 529 
Q 422 1150 422 2328 
Q 422 3509 836 4129 
Q 1250 4750 2034 4750 
z
" transform="scale(0.015625)"/>
       </defs>
       <use xlink:href="#DejaVuSans-32"/>
       <use xlink:href="#DejaVuSans-30" transform="translate(63.623047 0)"/>
       <use xlink:href="#DejaVuSans-30" transform="translate(127.246094 0)"/>
       <use xlink:href="#DejaVuSans-30" transform="translate(190.869141 0)"/>
      </g>
     </g>
    </g>
    <g id="xtick_2">
     <g id="line2d_2">
      <g>
       <use xlink:href="#m575f5c45c8" x="247.854545" y="320.4" style="stroke: #000000; stroke-width: 0.8"/>
      </g>
     </g>
     <g id="text_2">
      <!-- 4000 -->
      <g transform="translate(235.129545 334.998438) scale(0.1 -0.1)">
       <defs>
        <path id="DejaVuSans-34" d="M 2419 4116 
L 825 1625 
L 2419 1625 
L 2419 4116 
z
M 2253 4666 
L 3047 4666 
L 3047 1625 
L 3713 1625 
L 3713 1100 
L 3047 1100 
L 3047 0 
L 2419 0 
L 2419 1100 
L 313 1100 
L 313 1709 
L 2253 4666 
z
" transform="scale(0.015625)"/>
       </defs>
       <use xlink:href="#DejaVuSans-34"/>
       <use xlink:href="#DejaVuSans-30" transform="translate(63.623047 0)"/>
       <use xlink:href="#DejaVuSans-30" transform="translate(127.246094 0)"/>
       <use xlink:href="#DejaVuSans-30" transform="translate(190.869141 0)"/>
      </g>
     </g>
    </g>
    <g id="xtick_3">
     <g id="line2d_3">
      <g>
       <use xlink:href="#m575f5c45c8" x="338.036364" y="320.4" style="stroke: #000000; stroke-width: 0.8"/>
      </g>
     </g>
     <g id="text_3">
      <!-- 6000 -->
      <g transform="translate(325.311364 334.998438) scale(0.1 -0.1)">
       <defs>
        <path id="DejaVuSans-36" d="M 2113 2584 
Q 1688 2584 1439 2293 
Q 1191 2003 1191 1497 
Q 1191 994 1439 701 
Q 1688 409 2113 409 
Q 2538 409 2786 701 
Q 3034 994 3034 1497 
Q 3034 2003 2786 2293 
Q 2538 2584 2113 2584 
z
M 3366 4563 
L 3366 3988 
Q 3128 4100 2886 4159 
Q 2644 4219 2406 4219 
Q 1781 4219 1451 3797 
Q 1122 3375 1075 2522 
Q 1259 2794 1537 2939 
Q 1816 3084 2150 3084 
Q 2853 3084 3261 2657 
Q 3669 2231 3669 1497 
Q 3669 778 3244 343 
Q 2819 -91 2113 -91 
Q 1303 -91 875 529 
Q 447 1150 447 2328 
Q 447 3434 972 4092 
Q 1497 4750 2381 4750 
Q 2619 4750 2861 4703 
Q 3103 4656 3366 4563 
z
" transform="scale(0.015625)"/>
       </defs>
       <use xlink:href="#DejaVuSans-36"/>
       <use xlink:href="#DejaVuSans-30" transform="translate(63.623047 0)"/>
       <use xlink:href="#DejaVuSans-30" transform="translate(127.246094 0)"/>
       <use xlink:href="#DejaVuSans-30" transform="translate(190.869141 0)"/>
      </g>
     </g>
    </g>
    <g id="xtick_4">
     <g id="line2d_4">
      <g>
       <use xlink:href="#m575f5c45c8" x="428.218182" y="320.4" style="stroke: #000000; stroke-width: 0.8"/>
      </g>
     </g>
     <g id="text_4">
      <!-- 8000 -->
      <g transform="translate(415.493182 334.998438) scale(0.1 -0.1)">
       <defs>
        <path id="DejaVuSans-38" d="M 2034 2216 
Q 1584 2216 1326 1975 
Q 1069 1734 1069 1313 
Q 1069 891 1326 650 
Q 1584 409 2034 409 
Q 2484 409 2743 651 
Q 3003 894 3003 1313 
Q 3003 1734 2745 1975 
Q 2488 2216 2034 2216 
z
M 1403 2484 
Q 997 2584 770 2862 
Q 544 3141 544 3541 
Q 544 4100 942 4425 
Q 1341 4750 2034 4750 
Q 2731 4750 3128 4425 
Q 3525 4100 3525 3541 
Q 3525 3141 3298 2862 
Q 3072 2584 2669 2484 
Q 3125 2378 3379 2068 
Q 3634 1759 3634 1313 
Q 3634 634 3220 271 
Q 2806 -91 2034 -91 
Q 1263 -91 848 271 
Q 434 634 434 1313 
Q 434 1759 690 2068 
Q 947 2378 1403 2484 
z
M 1172 3481 
Q 1172 3119 1398 2916 
Q 1625 2713 2034 2713 
Q 2441 2713 2670 2916 
Q 2900 3119 2900 3481 
Q 2900 3844 2670 4047 
Q 2441 4250 2034 4250 
Q 1625 4250 1398 4047 
Q 1172 3844 1172 3481 
z
" transform="scale(0.015625)"/>
       </defs>
       <use xlink:href="#DejaVuSans-38"/>
       <use xlink:href="#DejaVuSans-30" transform="translate(63.623047 0)"/>
       <use xlink:href="#DejaVuSans-30" transform="translate(127.246094 0)"/>
       <use xlink:href="#DejaVuSans-30" transform="translate(190.869141 0)"/>
      </g>
     </g>
    </g>
    <g id="xtick_5">
     <g id="line2d_5">
      <g>
       <use xlink:href="#m575f5c45c8" x="518.4" y="320.4" style="stroke: #000000; stroke-width: 0.8"/>
      </g>
     </g>
     <g id="text_5">
      <!-- 10000 -->
      <g transform="translate(502.49375 334.998438) scale(0.1 -0.1)">
       <defs>
        <path id="DejaVuSans-31" d="M 794 531 
L 1825 531 
L 1825 4091 
L 703 3866 
L 703 4441 
L 1819 4666 
L 2450 4666 
L 2450 531 
L 3481 531 
L 3481 0 
L 794 0 
L 794 531 
z
" transform="scale(0.015625)"/>
       </defs>
       <use xlink:href="#DejaVuSans-31"/>
       <use xlink:href="#DejaVuSans-30" transform="translate(63.623047 0)"/>
       <use xlink:href="#DejaVuSans-30" transform="translate(127.246094 0)"/>
       <use xlink:href="#DejaVuSans-30" transform="translate(190.869141 0)"/>
       <use xlink:href="#DejaVuSans-30" transform="translate(254.492188 0)"/>
      </g>
     </g>
    </g>
    <g id="text_6">
     <!-- Training steps -->
     <g transform="translate(260.464844 348.676562) scale(0.1 -0.1)">
      <defs>
       <path id="DejaVuSans-54" d="M -19 4666 
L 3928 4666 
L 3928 4134 
L 2272 4134 
L 2272 0 
L 1638 0 
L 1638 4134 
L -19 4134 
L -19 4666 
z
" transform="scale(0.015625)"/>
       <path id="DejaVuSans-72" d="M 2631 2963 
Q 2534 3019 2420 3045 
Q 2306 3072 2169 3072 
Q 1681 3072 1420 2755 
Q 1159 2438 1159 1844 
L 1159 0 
L 581 0 
L 581 3500 
L 1159 3500 
L 1159 2956 
Q 1341 3275 1631 3429 
Q 1922 3584 2338 3584 
Q 2397 3584 2469 3576 
Q 2541 3569 2628 3553 
L 2631 2963 
z
" transform="scale(0.015625)"/>
       <path id="DejaVuSans-61" d="M 2194 1759 
Q 1497 1759 1228 1600 
Q 959 1441 959 1056 
Q 959 750 1161 570 
Q 1363 391 1709 391 
Q 2188 391 2477 730 
Q 2766 1069 2766 1631 
L 2766 1759 
L 2194 1759 
z
M 3341 1997 
L 3341 0 
L 2766 0 
L 2766 531 
Q 2569 213 2275 61 
Q 1981 -91 1556 -91 
Q 1019 -91 701 211 
Q 384 513 384 1019 
Q 384 1609 779 1909 
Q 1175 2209 1959 2209 
L 2766 2209 
L 2766 2266 
Q 2766 2663 2505 2880 
Q 2244 3097 1772 3097 
Q 1472 3097 1187 3025 
Q 903 2953 641 2809 
L 641 3341 
Q 956 3463 1253 3523 
Q 1550 3584 1831 3584 
Q 2591 3584 2966 3190 
Q 3341 2797 3341 1997 
z
" transform="scale(0.015625)"/>
       <path id="DejaVuSans-69" d="M 603 3500 
L 1178 3500 
L 1178 0 
L 603 0 
L 603 3500 
z
M 603 4863 
L 1178 4863 
L 1178 4134 
L 603 4134 
L 603 4863 
z
" transform="scale(0.015625)"/>
       <path id="DejaVuSans-6e" d="M 3513 2113 
L 3513 0 
L 2938 0 
L 2938 2094 
Q 2938 2591 2744 2837 
Q 2550 3084 2163 3084 
Q 1697 3084 1428 2787 
Q 1159 2491 1159 1978 
L 1159 0 
L 581 0 
L 581 3500 
L 1159 3500 
L 1159 2956 
Q 1366 3272 1645 3428 
Q 1925 3584 2291 3584 
Q 2894 3584 3203 3211 
Q 3513 2838 3513 2113 
z
" transform="scale(0.015625)"/>
       <path id="DejaVuSans-67" d="M 2906 1791 
Q 2906 2416 2648 2759 
Q 2391 3103 1925 3103 
Q 1463 3103 1205 2759 
Q 947 2416 947 1791 
Q 947 1169 1205 825 
Q 1463 481 1925 481 
Q 2391 481 2648 825 
Q 2906 1169 2906 1791 
z
M 3481 434 
Q 3481 -459 3084 -895 
Q 2688 -1331 1869 -1331 
Q 1566 -1331 1297 -1286 
Q 1028 -1241 775 -1147 
L 775 -588 
Q 1028 -725 1275 -790 
Q 1522 -856 1778 -856 
Q 2344 -856 2625 -561 
Q 2906 -266 2906 331 
L 2906 616 
Q 2728 306 2450 153 
Q 2172 0 1784 0 
Q 1141 0 747 490 
Q 353 981 353 1791 
Q 353 2603 747 3093 
Q 1141 3584 1784 3584 
Q 2172 3584 2450 3431 
Q 2728 3278 2906 2969 
L 2906 3500 
L 3481 3500 
L 3481 434 
z
" transform="scale(0.015625)"/>
       <path id="DejaVuSans-20" transform="scale(0.015625)"/>
       <path id="DejaVuSans-73" d="M 2834 3397 
L 2834 2853 
Q 2591 2978 2328 3040 
Q 2066 3103 1784 3103 
Q 1356 3103 1142 2972 
Q 928 2841 928 2578 
Q 928 2378 1081 2264 
Q 1234 2150 1697 2047 
L 1894 2003 
Q 2506 1872 2764 1633 
Q 3022 1394 3022 966 
Q 3022 478 2636 193 
Q 2250 -91 1575 -91 
Q 1294 -91 989 -36 
Q 684 19 347 128 
L 347 722 
Q 666 556 975 473 
Q 1284 391 1588 391 
Q 1994 391 2212 530 
Q 2431 669 2431 922 
Q 2431 1156 2273 1281 
Q 2116 1406 1581 1522 
L 1381 1569 
Q 847 1681 609 1914 
Q 372 2147 372 2553 
Q 372 3047 722 3315 
Q 1072 3584 1716 3584 
Q 2034 3584 2315 3537 
Q 2597 3491 2834 3397 
z
" transform="scale(0.015625)"/>
       <path id="DejaVuSans-74" d="M 1172 4494 
L 1172 3500 
L 2356 3500 
L 2356 3053 
L 1172 3053 
L 1172 1153 
Q 1172 725 1289 603 
Q 1406 481 1766 481 
L 2356 481 
L 2356 0 
L 1766 0 
Q 1100 0 847 248 
Q 594 497 594 1153 
L 594 3053 
L 172 3053 
L 172 3500 
L 594 3500 
L 594 4494 
L 1172 4494 
z
" transform="scale(0.015625)"/>
       <path id="DejaVuSans-65" d="M 3597 1894 
L 3597 1613 
L 953 1613 
Q 991 1019 1311 708 
Q 1631 397 2203 397 
Q 2534 397 2845 478 
Q 3156 559 3463 722 
L 3463 178 
Q 3153 47 2828 -22 
Q 2503 -91 2169 -91 
Q 1331 -91 842 396 
Q 353 884 353 1716 
Q 353 2575 817 3079 
Q 1281 3584 2069 3584 
Q 2775 3584 3186 3129 
Q 3597 2675 3597 1894 
z
M 3022 2063 
Q 3016 2534 2758 2815 
Q 2500 3097 2075 3097 
Q 1594 3097 1305 2825 
Q 1016 2553 972 2059 
L 3022 2063 
z
" transform="scale(0.015625)"/>
       <path id="DejaVuSans-70" d="M 1159 525 
L 1159 -1331 
L 581 -1331 
L 581 3500 
L 1159 3500 
L 1159 2969 
Q 1341 3281 1617 3432 
Q 1894 3584 2278 3584 
Q 2916 3584 3314 3078 
Q 3713 2572 3713 1747 
Q 3713 922 3314 415 
Q 2916 -91 2278 -91 
Q 1894 -91 1617 61 
Q 1341 213 1159 525 
z
M 3116 1747 
Q 3116 2381 2855 2742 
Q 2594 3103 2138 3103 
Q 1681 3103 1420 2742 
Q 1159 2381 1159 1747 
Q 1159 1113 1420 752 
Q 1681 391 2138 391 
Q 2594 391 2855 752 
Q 3116 1113 3116 1747 
z
" transform="scale(0.015625)"/>
      </defs>
      <use xlink:href="#DejaVuSans-54"/>
      <use xlink:href="#DejaVuSans-72" transform="translate(46.333984 0)"/>
      <use xlink:href="#DejaVuSans-61" transform="translate(87.447266 0)"/>
      <use xlink:href="#DejaVuSans-69" transform="translate(148.726562 0)"/>
      <use xlink:href="#DejaVuSans-6e" transform="translate(176.509766 0)"/>
      <use xlink:href="#DejaVuSans-69" transform="translate(239.888672 0)"/>
      <use xlink:href="#DejaVuSans-6e" transform="translate(267.671875 0)"/>
      <use xlink:href="#DejaVuSans-67" transform="translate(331.050781 0)"/>
      <use xlink:href="#DejaVuSans-20" transform="translate(394.527344 0)"/>
      <use xlink:href="#DejaVuSans-73" transform="translate(426.314453 0)"/>
      <use xlink:href="#DejaVuSans-74" transform="translate(478.414062 0)"/>
      <use xlink:href="#DejaVuSans-65" transform="translate(517.623047 0)"/>
      <use xlink:href="#DejaVuSans-70" transform="translate(579.146484 0)"/>
      <use xlink:href="#DejaVuSans-73" transform="translate(642.623047 0)"/>
     </g>
    </g>
   </g>
   <g id="matplotlib.axis_2">
    <g id="ytick_1">
     <g id="line2d_6">
      <defs>
       <path id="ma4d286e780" d="M 0 0 
L -3.5 0 
" style="stroke: #000000; stroke-width: 0.8"/>
      </defs>
      <g>
       <use xlink:href="#ma4d286e780" x="72" y="315.011842" style="stroke: #000000; stroke-width: 0.8"/>
      </g>
     </g>
     <g id="text_7">
      <!-- 0.2 -->
      <g transform="translate(49.096875 318.811061) scale(0.1 -0.1)">
       <defs>
        <path id="DejaVuSans-2e" d="M 684 794 
L 1344 794 
L 1344 0 
L 684 0 
L 684 794 
z
" transform="scale(0.015625)"/>
       </defs>
       <use xlink:href="#DejaVuSans-30"/>
       <use xlink:href="#DejaVuSans-2e" transform="translate(63.623047 0)"/>
       <use xlink:href="#DejaVuSans-32" transform="translate(95.410156 0)"/>
      </g>
     </g>
    </g>
    <g id="ytick_2">
     <g id="line2d_7">
      <g>
       <use xlink:href="#ma4d286e780" x="72" y="273.564474" style="stroke: #000000; stroke-width: 0.8"/>
      </g>
     </g>
     <g id="text_8">
      <!-- 0.3 -->
      <g transform="translate(49.096875 277.363692) scale(0.1 -0.1)">
       <defs>
        <path id="DejaVuSans-33" d="M 2597 2516 
Q 3050 2419 3304 2112 
Q 3559 1806 3559 1356 
Q 3559 666 3084 287 
Q 2609 -91 1734 -91 
Q 1441 -91 1130 -33 
Q 819 25 488 141 
L 488 750 
Q 750 597 1062 519 
Q 1375 441 1716 441 
Q 2309 441 2620 675 
Q 2931 909 2931 1356 
Q 2931 1769 2642 2001 
Q 2353 2234 1838 2234 
L 1294 2234 
L 1294 2753 
L 1863 2753 
Q 2328 2753 2575 2939 
Q 2822 3125 2822 3475 
Q 2822 3834 2567 4026 
Q 2313 4219 1838 4219 
Q 1578 4219 1281 4162 
Q 984 4106 628 3988 
L 628 4550 
Q 988 4650 1302 4700 
Q 1616 4750 1894 4750 
Q 2613 4750 3031 4423 
Q 3450 4097 3450 3541 
Q 3450 3153 3228 2886 
Q 3006 2619 2597 2516 
z
" transform="scale(0.015625)"/>
       </defs>
       <use xlink:href="#DejaVuSans-30"/>
       <use xlink:href="#DejaVuSans-2e" transform="translate(63.623047 0)"/>
       <use xlink:href="#DejaVuSans-33" transform="translate(95.410156 0)"/>
      </g>
     </g>
    </g>
    <g id="ytick_3">
     <g id="line2d_8">
      <g>
       <use xlink:href="#ma4d286e780" x="72" y="232.117105" style="stroke: #000000; stroke-width: 0.8"/>
      </g>
     </g>
     <g id="text_9">
      <!-- 0.4 -->
      <g transform="translate(49.096875 235.916324) scale(0.1 -0.1)">
       <use xlink:href="#DejaVuSans-30"/>
       <use xlink:href="#DejaVuSans-2e" transform="translate(63.623047 0)"/>
       <use xlink:href="#DejaVuSans-34" transform="translate(95.410156 0)"/>
      </g>
     </g>
    </g>
    <g id="ytick_4">
     <g id="line2d_9">
      <g>
       <use xlink:href="#ma4d286e780" x="72" y="190.669737" style="stroke: #000000; stroke-width: 0.8"/>
      </g>
     </g>
     <g id="text_10">
      <!-- 0.5 -->
      <g transform="translate(49.096875 194.468956) scale(0.1 -0.1)">
       <defs>
        <path id="DejaVuSans-35" d="M 691 4666 
L 3169 4666 
L 3169 4134 
L 1269 4134 
L 1269 2991 
Q 1406 3038 1543 3061 
Q 1681 3084 1819 3084 
Q 2600 3084 3056 2656 
Q 3513 2228 3513 1497 
Q 3513 744 3044 326 
Q 2575 -91 1722 -91 
Q 1428 -91 1123 -41 
Q 819 9 494 109 
L 494 744 
Q 775 591 1075 516 
Q 1375 441 1709 441 
Q 2250 441 2565 725 
Q 2881 1009 2881 1497 
Q 2881 1984 2565 2268 
Q 2250 2553 1709 2553 
Q 1456 2553 1204 2497 
Q 953 2441 691 2322 
L 691 4666 
z
" transform="scale(0.015625)"/>
       </defs>
       <use xlink:href="#DejaVuSans-30"/>
       <use xlink:href="#DejaVuSans-2e" transform="translate(63.623047 0)"/>
       <use xlink:href="#DejaVuSans-35" transform="translate(95.410156 0)"/>
      </g>
     </g>
    </g>
    <g id="ytick_5">
     <g id="line2d_10">
      <g>
       <use xlink:href="#ma4d286e780" x="72" y="149.222368" style="stroke: #000000; stroke-width: 0.8"/>
      </g>
     </g>
     <g id="text_11">
      <!-- 0.6 -->
      <g transform="translate(49.096875 153.021587) scale(0.1 -0.1)">
       <use xlink:href="#DejaVuSans-30"/>
       <use xlink:href="#DejaVuSans-2e" transform="translate(63.623047 0)"/>
       <use xlink:href="#DejaVuSans-36" transform="translate(95.410156 0)"/>
      </g>
     </g>
    </g>
    <g id="ytick_6">
     <g id="line2d_11">
      <g>
       <use xlink:href="#ma4d286e780" x="72" y="107.775" style="stroke: #000000; stroke-width: 0.8"/>
      </g>
     </g>
     <g id="text_12">
      <!-- 0.7 -->
      <g transform="translate(49.096875 111.574219) scale(0.1 -0.1)">
       <defs>
        <path id="DejaVuSans-37" d="M 525 4666 
L 3525 4666 
L 3525 4397 
L 1831 0 
L 1172 0 
L 2766 4134 
L 525 4134 
L 525 4666 
z
" transform="scale(0.015625)"/>
       </defs>
       <use xlink:href="#DejaVuSans-30"/>
       <use xlink:href="#DejaVuSans-2e" transform="translate(63.623047 0)"/>
       <use xlink:href="#DejaVuSans-37" transform="translate(95.410156 0)"/>
      </g>
     </g>
    </g>
    <g id="ytick_7">
     <g id="line2d_12">
      <g>
       <use xlink:href="#ma4d286e780" x="72" y="66.327632" style="stroke: #000000; stroke-width: 0.8"/>
      </g>
     </g>
     <g id="text_13">
      <!-- 0.8 -->
      <g transform="translate(49.096875 70.12685) scale(0.1 -0.1)">
       <use xlink:href="#DejaVuSans-30"/>
       <use xlink:href="#DejaVuSans-2e" transform="translate(63.623047 0)"/>
       <use xlink:href="#DejaVuSans-38" transform="translate(95.410156 0)"/>
      </g>
     </g>
    </g>
    <g id="text_14">
     <!-- Loss -->
     <g transform="translate(43.017187 192.767187) rotate(-90) scale(0.1 -0.1)">
      <defs>
       <path id="DejaVuSans-4c" d="M 628 4666 
L 1259 4666 
L 1259 531 
L 3531 531 
L 3531 0 
L 628 0 
L 628 4666 
z
" transform="scale(0.015625)"/>
       <path id="DejaVuSans-6f" d="M 1959 3097 
Q 1497 3097 1228 2736 
Q 959 2375 959 1747 
Q 959 1119 1226 758 
Q 1494 397 1959 397 
Q 2419 397 2687 759 
Q 2956 1122 2956 1747 
Q 2956 2369 2687 2733 
Q 2419 3097 1959 3097 
z
M 1959 3584 
Q 2709 3584 3137 3096 
Q 3566 2609 3566 1747 
Q 3566 888 3137 398 
Q 2709 -91 1959 -91 
Q 1206 -91 779 398 
Q 353 888 353 1747 
Q 353 2609 779 3096 
Q 1206 3584 1959 3584 
z
" transform="scale(0.015625)"/>
      </defs>
      <use xlink:href="#DejaVuSans-4c"/>
      <use xlink:href="#DejaVuSans-6f" transform="translate(53.962891 0)"/>
      <use xlink:href="#DejaVuSans-73" transform="translate(115.144531 0)"/>
      <use xlink:href="#DejaVuSans-73" transform="translate(167.244141 0)"/>
     </g>
    </g>
   </g>
   <g id="line2d_13">
    <path d="M 72 108.148026 
L 76.509091 123.525 
L 81.018182 145.740789 
L 85.527273 136.000658 
L 90.036364 141.264474 
L 94.545455 140.642763 
L 99.054545 154.030263 
L 103.563636 162.734211 
L 108.072727 160.744737 
L 112.581818 158.921053 
L 117.090909 147.605921 
L 121.6 162.029605 
L 126.109091 153.823026 
L 130.618182 153.532895 
L 135.127273 161.615132 
L 139.636364 180.100658 
L 144.145455 160.496053 
L 148.654545 156.144079 
L 153.163636 168.578289 
L 157.672727 160.288816 
L 162.181818 166.05 
L 166.690909 185.364474 
L 171.2 177.282237 
L 175.709091 175.582895 
L 180.218182 179.396053 
L 184.727273 165.138158 
L 189.236364 168.951316 
L 193.745455 179.147368 
L 198.254545 166.671711 
L 202.763636 170.484868 
L 207.272727 178.484211 
L 211.781818 177.572368 
L 216.290909 182.628947 
L 220.8 181.178289 
L 225.309091 188.514474 
L 229.818182 184.742763 
L 234.327273 177.282237 
L 238.836364 162.982895 
L 243.345455 171.5625 
L 247.854545 176.246053 
L 252.363636 176.867763 
L 256.872727 170.070395 
L 261.381818 194.482895 
L 265.890909 196.348026 
L 270.4 191.332895 
L 274.909091 188.721711 
L 279.418182 186.317763 
L 283.927273 191.498684 
L 288.436364 182.421711 
L 292.945455 192.783553 
L 297.454545 194.565789 
L 301.963636 197.923026 
L 306.472727 173.842105 
L 310.981818 191.457237 
L 315.490909 196.513816 
L 320 191.457237 
L 324.509091 191.954605 
L 329.018182 182.255921 
L 333.527273 190.172368 
L 338.036364 185.115789 
L 342.545455 192.949342 
L 347.054545 189.260526 
L 351.563636 200.202632 
L 356.072727 196.348026 
L 360.581818 205.673684 
L 365.090909 211.393421 
L 369.6 205.176316 
L 374.109091 195.1875 
L 378.618182 203.311184 
L 383.127273 189.923684 
L 387.636364 222.957237 
L 392.145455 205.051974 
L 396.654545 217.071711 
L 401.163636 202.482237 
L 405.672727 218.688158 
L 410.181818 205.756579 
L 414.690909 215.330921 
L 419.2 209.403947 
L 423.709091 204.223026 
L 428.218182 206.709868 
L 432.727273 198.420395 
L 437.236364 196.182237 
L 441.745455 205.093421 
L 446.254545 235.723026 
L 450.763636 211.393421 
L 455.272727 228.842763 
L 459.781818 222.045395 
L 464.290909 227.267763 
L 468.8 229.754605 
L 473.309091 238.251316 
L 477.818182 229.381579 
L 482.327273 212.056579 
L 486.836364 217.196053 
L 491.345455 215.413816 
L 495.854545 217.444737 
L 500.363636 226.065789 
L 504.872727 222.294079 
L 509.381818 224.034868 
L 513.890909 232.117105 
L 518.4 214.709211 
" clip-path="url(#pbe69e8423e)" style="fill: none; stroke: #1f77b4; stroke-width: 1.5; stroke-linecap: square"/>
   </g>
   <g id="line2d_14">
    <path d="M 72 55.8 
L 76.509091 91.776316 
L 81.018182 141.264474 
L 85.527273 129.990789 
L 90.036364 150.134211 
L 94.545455 140.394079 
L 99.054545 148.766447 
L 103.563636 157.3875 
L 108.072727 156.268421 
L 112.581818 148.103289 
L 117.090909 142.176316 
L 121.6 144.165789 
L 126.109091 146.694079 
L 130.618182 145.740789 
L 135.127273 150.880263 
L 139.636364 154.071711 
L 144.145455 163.273026 
L 148.654545 145.906579 
L 153.163636 164.392105 
L 157.672727 149.719737 
L 162.181818 152.538158 
L 166.690909 177.033553 
L 171.2 176.992105 
L 175.709091 174.505263 
L 180.218182 183.913816 
L 184.727273 163.107237 
L 189.236364 171.976974 
L 193.745455 166.671711 
L 198.254545 166.340132 
L 202.763636 161.159211 
L 207.272727 169.241447 
L 211.781818 180.349342 
L 216.290909 174.671053 
L 220.8 190.628289 
L 225.309091 188.017105 
L 229.818182 177.489474 
L 234.327273 159.915789 
L 238.836364 166.340132 
L 243.345455 170.277632 
L 247.854545 176.121711 
L 252.363636 151.709211 
L 256.872727 165.469737 
L 261.381818 198.586184 
L 265.890909 187.892763 
L 270.4 172.681579 
L 274.909091 180.307895 
L 279.418182 183.250658 
L 283.927273 186.607895 
L 288.436364 177.199342 
L 292.945455 176.2875 
L 297.454545 184.203947 
L 301.963636 185.986184 
L 306.472727 171.355263 
L 310.981818 182.504605 
L 315.490909 191.996053 
L 320 189.011842 
L 324.509091 171.438158 
L 329.018182 181.841447 
L 333.527273 191.540132 
L 338.036364 186.690789 
L 342.545455 187.768421 
L 347.054545 192.949342 
L 351.563636 196.513816 
L 356.072727 192.369079 
L 360.581818 186.980921 
L 365.090909 199.166447 
L 369.6 192.617763 
L 374.109091 193.363816 
L 378.618182 190.172368 
L 383.127273 181.219737 
L 387.636364 188.680263 
L 392.145455 193.156579 
L 396.654545 209.403947 
L 401.163636 180.142105 
L 405.672727 203.311184 
L 410.181818 193.819737 
L 414.690909 217.527632 
L 419.2 198.959211 
L 423.709091 189.592105 
L 428.218182 193.736842 
L 432.727273 194.151316 
L 437.236364 195.270395 
L 441.745455 196.7625 
L 446.254545 223.993421 
L 450.763636 200.7 
L 455.272727 206.792763 
L 459.781818 211.807895 
L 464.290909 199.953947 
L 468.8 219.807237 
L 473.309091 216.532895 
L 477.818182 213.838816 
L 482.327273 203.684211 
L 486.836364 211.476316 
L 491.345455 191.705921 
L 495.854545 200.119737 
L 500.363636 214.957895 
L 504.872727 202.730921 
L 509.381818 197.218421 
L 513.890909 206.958553 
L 518.4 201.736184 
" clip-path="url(#pbe69e8423e)" style="fill: none; stroke: #ff7f0e; stroke-width: 1.5; stroke-linecap: square"/>
   </g>
   <g id="line2d_15">
    <path d="M 72 177.116447 
L 76.509091 193.156579 
L 81.018182 214.792105 
L 85.527273 228.884211 
L 90.036364 216.781579 
L 94.545455 219.226974 
L 99.054545 230.003289 
L 103.563636 226.728947 
L 108.072727 216.159868 
L 112.581818 213.3 
L 117.090909 214.957895 
L 121.6 233.816447 
L 126.109091 204.927632 
L 130.618182 221.796711 
L 135.127273 229.132895 
L 139.636364 238.955921 
L 144.145455 232.614474 
L 148.654545 230.666447 
L 153.163636 241.152632 
L 157.672727 229.547368 
L 162.181818 222.169737 
L 166.690909 229.423026 
L 171.2 245.090132 
L 175.709091 233.650658 
L 180.218182 238.707237 
L 184.727273 223.330263 
L 189.236364 240.116447 
L 193.745455 243.225 
L 198.254545 230.500658 
L 202.763636 239.163158 
L 207.272727 241.152632 
L 211.781818 242.686184 
L 216.290909 250.809868 
L 220.8 242.105921 
L 225.309091 221.299342 
L 229.818182 230.127632 
L 234.327273 231.992763 
L 238.836364 231.578289 
L 243.345455 243.390789 
L 247.854545 236.427632 
L 252.363636 237.463816 
L 256.872727 237.049342 
L 261.381818 254.996053 
L 265.890909 251.182895 
L 270.4 253.4625 
L 274.909091 245.670395 
L 279.418182 239.411842 
L 283.927273 256.944079 
L 288.436364 246.250658 
L 292.945455 244.095395 
L 297.454545 246.706579 
L 301.963636 247.784211 
L 306.472727 241.235526 
L 310.981818 258.892105 
L 315.490909 258.063158 
L 320 248.323026 
L 324.509091 243.307895 
L 329.018182 246.001974 
L 333.527273 229.630263 
L 338.036364 259.348026 
L 342.545455 250.726974 
L 347.054545 251.680263 
L 351.563636 270.621711 
L 356.072727 267.223026 
L 360.581818 273.357237 
L 365.090909 261.005921 
L 369.6 261.876316 
L 374.109091 261.296053 
L 378.618182 249.069079 
L 383.127273 226.977632 
L 387.636364 273.688816 
L 392.145455 256.529605 
L 396.654545 253.545395 
L 401.163636 260.632895 
L 405.672727 269.088158 
L 410.181818 259.969737 
L 414.690909 281.315132 
L 419.2 262.953947 
L 423.709091 245.173026 
L 428.218182 253.628289 
L 432.727273 254.747368 
L 437.236364 269.917105 
L 441.745455 277.833553 
L 446.254545 278.703947 
L 450.763636 273.232895 
L 455.272727 288.982895 
L 459.781818 291.635526 
L 464.290909 270.497368 
L 468.8 298.35 
L 473.309091 258.104605 
L 477.818182 277.957895 
L 482.327273 276.175658 
L 486.836364 252.716447 
L 491.345455 281.149342 
L 495.854545 288.402632 
L 500.363636 285.459868 
L 504.872727 282.434211 
L 509.381818 286.744737 
L 513.890909 254.167105 
L 518.4 238.458553 
" clip-path="url(#pbe69e8423e)" style="fill: none; stroke: #2ca02c; stroke-width: 1.5; stroke-linecap: square"/>
   </g>
   <g id="line2d_16">
    <path d="M 72 88.419079 
L 76.509091 155.978289 
L 81.018182 188.182895 
L 85.527273 187.271053 
L 90.036364 176.950658 
L 94.545455 192.700658 
L 99.054545 188.1 
L 103.563636 191.996053 
L 108.072727 181.882895 
L 112.581818 195.684868 
L 117.090909 185.903289 
L 121.6 185.571711 
L 126.109091 167.790789 
L 130.618182 193.819737 
L 135.127273 200.741447 
L 139.636364 203.435526 
L 144.145455 206.171053 
L 148.654545 199.953947 
L 153.163636 199.000658 
L 157.672727 199.415132 
L 162.181818 196.7625 
L 166.690909 206.295395 
L 171.2 227.226316 
L 175.709091 205.507895 
L 180.218182 206.834211 
L 184.727273 182.877632 
L 189.236364 213.341447 
L 193.745455 208.326316 
L 198.254545 177.696711 
L 202.763636 198.669079 
L 207.272727 210.440132 
L 211.781818 195.1875 
L 216.290909 221.175 
L 220.8 211.973684 
L 225.309091 190.296711 
L 229.818182 201.570395 
L 234.327273 170.857895 
L 238.836364 176.536184 
L 243.345455 213.051316 
L 247.854545 198.420395 
L 252.363636 194.151316 
L 256.872727 212.056579 
L 261.381818 226.107237 
L 265.890909 223.578947 
L 270.4 212.305263 
L 274.909091 221.589474 
L 279.418182 214.584868 
L 283.927273 222.625658 
L 288.436364 197.176974 
L 292.945455 211.559211 
L 297.454545 208.865132 
L 301.963636 217.734868 
L 306.472727 211.559211 
L 310.981818 222.003947 
L 315.490909 227.309211 
L 320 227.350658 
L 324.509091 213.631579 
L 329.018182 204.388816 
L 333.527273 198.378947 
L 338.036364 218.853947 
L 342.545455 237.463816 
L 347.054545 230.707895 
L 351.563636 213.755921 
L 356.072727 224.159211 
L 360.581818 224.200658 
L 365.090909 229.174342 
L 369.6 237.007895 
L 374.109091 233.153289 
L 378.618182 227.557895 
L 383.127273 213.175658 
L 387.636364 239.660526 
L 392.145455 215.952632 
L 396.654545 239.660526 
L 401.163636 216.367105 
L 405.672727 250.436842 
L 410.181818 207.165789 
L 414.690909 250.892763 
L 419.2 245.919079 
L 423.709091 215.579605 
L 428.218182 236.013158 
L 432.727273 228.552632 
L 437.236364 229.464474 
L 441.745455 229.588816 
L 446.254545 253.213816 
L 450.763636 234.438158 
L 455.272727 250.353947 
L 459.781818 242.561842 
L 464.290909 229.588816 
L 468.8 252.882237 
L 473.309091 243.680921 
L 477.818182 243.142105 
L 482.327273 252.011842 
L 486.836364 236.303289 
L 491.345455 248.157237 
L 495.854545 258.933553 
L 500.363636 260.715789 
L 504.872727 239.536184 
L 509.381818 245.048684 
L 513.890909 233.857895 
L 518.4 226.438816 
" clip-path="url(#pbe69e8423e)" style="fill: none; stroke: #d62728; stroke-width: 1.5; stroke-linecap: square"/>
   </g>
   <g id="line2d_17">
    <path d="M 72 175.873026 
L 76.509091 195.767763 
L 81.018182 220.967763 
L 85.527273 225.236842 
L 90.036364 211.725 
L 94.545455 220.180263 
L 99.054545 217.154605 
L 103.563636 221.382237 
L 108.072727 212.761184 
L 112.581818 218.853947 
L 117.090909 208.243421 
L 121.6 226.397368 
L 126.109091 203.103947 
L 130.618182 226.397368 
L 135.127273 222.211184 
L 139.636364 239.328947 
L 144.145455 231.744079 
L 148.654545 239.701974 
L 153.163636 235.723026 
L 157.672727 222.418421 
L 162.181818 220.594737 
L 166.690909 233.111842 
L 171.2 249.525 
L 175.709091 226.190132 
L 180.218182 228.469737 
L 184.727273 233.153289 
L 189.236364 238.292763 
L 193.745455 241.235526 
L 198.254545 231.826974 
L 202.763636 233.111842 
L 207.272727 226.977632 
L 211.781818 234.603947 
L 216.290909 251.431579 
L 220.8 239.536184 
L 225.309091 224.076316 
L 229.818182 234.686842 
L 234.327273 232.531579 
L 238.836364 226.646053 
L 243.345455 222.459868 
L 247.854545 239.619079 
L 252.363636 225.692763 
L 256.872727 226.231579 
L 261.381818 248.654605 
L 265.890909 238.748684 
L 270.4 244.509868 
L 274.909091 233.484868 
L 279.418182 238.665789 
L 283.927273 256.032237 
L 288.436364 237.463816 
L 292.945455 250.3125 
L 297.454545 238.375658 
L 301.963636 252.384868 
L 306.472727 223.993421 
L 310.981818 246.001974 
L 315.490909 256.073684 
L 320 254.167105 
L 324.509091 242.686184 
L 329.018182 247.245395 
L 333.527273 234.230921 
L 338.036364 258.892105 
L 342.545455 254.871711 
L 347.054545 246.872368 
L 351.563636 265.233553 
L 356.072727 254.125658 
L 360.581818 259.265132 
L 365.090909 272.818421 
L 369.6 261.751974 
L 374.109091 253.586842 
L 378.618182 258.767763 
L 383.127273 240.738158 
L 387.636364 274.973684 
L 392.145455 257.441447 
L 396.654545 263.7 
L 401.163636 244.965789 
L 405.672727 265.482237 
L 410.181818 268.798026 
L 414.690909 281.025 
L 419.2 272.238158 
L 423.709091 260.923026 
L 428.218182 267.057237 
L 432.727273 269.585526 
L 437.236364 261.213158 
L 441.745455 263.244079 
L 446.254545 282.765789 
L 450.763636 265.896711 
L 455.272727 302.246053 
L 459.781818 307.8 
L 464.290909 272.694079 
L 468.8 297.728289 
L 473.309091 285.832895 
L 477.818182 293.293421 
L 482.327273 273.647368 
L 486.836364 275.305263 
L 491.345455 277.377632 
L 495.854545 294.122368 
L 500.363636 299.717763 
L 504.872727 279.408553 
L 509.381818 281.232237 
L 513.890909 282.268421 
L 518.4 252.260526 
" clip-path="url(#pbe69e8423e)" style="fill: none; stroke: #9467bd; stroke-width: 1.5; stroke-linecap: square"/>
   </g>
   <g id="line2d_18">
    <path d="M 72 185.115789 
L 76.509091 201.777632 
L 81.018182 223.413158 
L 85.527273 231.578289 
L 90.036364 217.154605 
L 94.545455 225.071053 
L 99.054545 223.247368 
L 103.563636 214.667763 
L 108.072727 217.196053 
L 112.581818 213.590132 
L 117.090909 204.305921 
L 121.6 231.329605 
L 126.109091 202.606579 
L 130.618182 223.288816 
L 135.127273 231.122368 
L 139.636364 240.365132 
L 144.145455 241.484211 
L 148.654545 241.359868 
L 153.163636 236.593421 
L 157.672727 224.325 
L 162.181818 223.827632 
L 166.690909 227.765132 
L 171.2 250.561184 
L 175.709091 225.775658 
L 180.218182 243.225 
L 184.727273 230.127632 
L 189.236364 239.784868 
L 193.745455 241.401316 
L 198.254545 243.432237 
L 202.763636 225.153947 
L 207.272727 240.075 
L 211.781818 236.344737 
L 216.290909 244.053947 
L 220.8 239.328947 
L 225.309091 225.775658 
L 229.818182 234.811184 
L 234.327273 238.955921 
L 238.836364 231.205263 
L 243.345455 242.4375 
L 247.854545 242.188816 
L 252.363636 233.567763 
L 256.872727 231.246711 
L 261.381818 256.695395 
L 265.890909 242.105921 
L 270.4 253.794079 
L 274.909091 247.1625 
L 279.418182 244.426974 
L 283.927273 251.597368 
L 288.436364 243.515132 
L 292.945455 249.110526 
L 297.454545 244.634211 
L 301.963636 255.949342 
L 306.472727 225.278289 
L 310.981818 251.928947 
L 315.490909 259.928289 
L 320 252.136184 
L 324.509091 249.151974 
L 329.018182 246.582237 
L 333.527273 232.2 
L 338.036364 253.089474 
L 342.545455 258.270395 
L 347.054545 255.286184 
L 351.563636 263.078289 
L 356.072727 263.990132 
L 360.581818 264.901974 
L 365.090909 265.772368 
L 369.6 261.420395 
L 374.109091 264.197368 
L 378.618182 250.188158 
L 383.127273 245.670395 
L 387.636364 270.994737 
L 392.145455 253.503947 
L 396.654545 254.125658 
L 401.163636 255.203289 
L 405.672727 271.409211 
L 410.181818 252.923684 
L 414.690909 273.274342 
L 419.2 258.809211 
L 423.709091 247.245395 
L 428.218182 260.798684 
L 432.727273 261.544737 
L 437.236364 257.275658 
L 441.745455 273.15 
L 446.254545 284.465132 
L 450.763636 265.689474 
L 455.272727 280.278947 
L 459.781818 294.702632 
L 464.290909 275.553947 
L 468.8 286.413158 
L 473.309091 278.579605 
L 477.818182 288.775658 
L 482.327273 266.642763 
L 486.836364 262.9125 
L 491.345455 267.471711 
L 495.854545 275.719737 
L 500.363636 292.05 
L 504.872727 278.496711 
L 509.381818 283.263158 
L 513.890909 270.497368 
L 518.4 242.064474 
" clip-path="url(#pbe69e8423e)" style="fill: none; stroke: #8c564b; stroke-width: 1.5; stroke-linecap: square"/>
   </g>
   <g id="line2d_19">
    <path d="M 72 135.917763 
L 76.509091 168.080921 
L 81.018182 211.186184 
L 85.527273 210.232895 
L 90.036364 193.363816 
L 94.545455 185.488816 
L 99.054545 206.046711 
L 103.563636 202.026316 
L 108.072727 191.830263 
L 112.581818 201.736184 
L 117.090909 194.814474 
L 121.6 191.415789 
L 126.109091 186.317763 
L 130.618182 207.704605 
L 135.127273 196.016447 
L 139.636364 206.378289 
L 144.145455 204.430263 
L 148.654545 205.134868 
L 153.163636 224.863816 
L 157.672727 210.108553 
L 162.181818 201.570395 
L 166.690909 211.103289 
L 171.2 221.092105 
L 175.709091 214.543421 
L 180.218182 216.615789 
L 184.727273 181.053947 
L 189.236364 216.823026 
L 193.745455 216.201316 
L 198.254545 213.838816 
L 202.763636 186.690789 
L 207.272727 219.765789 
L 211.781818 213.838816 
L 216.290909 219.144079 
L 220.8 212.678289 
L 225.309091 197.342763 
L 229.818182 217.776316 
L 234.327273 204.678947 
L 238.836364 220.636184 
L 243.345455 216.905921 
L 247.854545 213.880263 
L 252.363636 217.361842 
L 256.872727 208.657895 
L 261.381818 237.505263 
L 265.890909 240.199342 
L 270.4 231.992763 
L 274.909091 232.614474 
L 279.418182 215.994079 
L 283.927273 230.459211 
L 288.436364 213.797368 
L 292.945455 213.258553 
L 297.454545 212.222368 
L 301.963636 229.505921 
L 306.472727 209.238158 
L 310.981818 230.210526 
L 315.490909 238.831579 
L 320 236.261842 
L 324.509091 224.407895 
L 329.018182 222.045395 
L 333.527273 228.759868 
L 338.036364 238.582895 
L 342.545455 244.261184 
L 347.054545 233.236184 
L 351.563636 245.670395 
L 356.072727 235.723026 
L 360.581818 254.332895 
L 365.090909 249.069079 
L 369.6 244.882895 
L 374.109091 257.109868 
L 378.618182 252.343421 
L 383.127273 224.242105 
L 387.636364 259.348026 
L 392.145455 242.934868 
L 396.654545 252.094737 
L 401.163636 240.157895 
L 405.672727 257.565789 
L 410.181818 241.981579 
L 414.690909 265.565132 
L 419.2 256.529605 
L 423.709091 227.930921 
L 428.218182 256.322368 
L 432.727273 249.400658 
L 437.236364 226.811842 
L 441.745455 251.265789 
L 446.254545 273.523026 
L 450.763636 259.555263 
L 455.272727 278.206579 
L 459.781818 253.959868 
L 464.290909 248.198684 
L 468.8 276.507237 
L 473.309091 270.497368 
L 477.818182 282.268421 
L 482.327273 272.901316 
L 486.836364 258.975 
L 491.345455 268.134868 
L 495.854545 271.119079 
L 500.363636 281.025 
L 504.872727 255.990789 
L 509.381818 263.990132 
L 513.890909 259.845395 
L 518.4 246.250658 
" clip-path="url(#pbe69e8423e)" style="fill: none; stroke: #e377c2; stroke-width: 1.5; stroke-linecap: square"/>
   </g>
   <g id="line2d_20">
    <path d="M 72 157.055921 
L 76.509091 182.877632 
L 81.018182 200.409868 
L 85.527273 105.951316 
L 90.036364 192.825 
L 94.545455 187.644079 
L 99.054545 193.944079 
L 103.563636 207.455921 
L 108.072727 209.569737 
L 112.581818 209.238158 
L 117.090909 203.435526 
L 121.6 207.911842 
L 126.109091 180.349342 
L 130.618182 193.6125 
L 135.127273 220.677632 
L 139.636364 233.070395 
L 144.145455 238.665789 
L 148.654545 230.044737 
L 153.163636 222.791447 
L 157.672727 207.331579 
L 162.181818 212.553947 
L 166.690909 221.713816 
L 171.2 239.328947 
L 175.709091 211.725 
L 180.218182 221.092105 
L 184.727273 219.102632 
L 189.236364 229.464474 
L 193.745455 236.469079 
L 198.254545 215.703947 
L 202.763636 189.550658 
L 207.272727 201.528947 
L 211.781818 228.013816 
L 216.290909 235.225658 
L 220.8 226.770395 
L 225.309091 216.781579 
L 229.818182 225.609868 
L 234.327273 229.713158 
L 238.836364 223.620395 
L 243.345455 227.392105 
L 247.854545 232.780263 
L 252.363636 234.148026 
L 256.872727 226.190132 
L 261.381818 251.473026 
L 265.890909 233.360526 
L 270.4 250.436842 
L 274.909091 251.390132 
L 279.418182 226.6875 
L 283.927273 255.203289 
L 288.436364 233.028947 
L 292.945455 237.380921 
L 297.454545 240.116447 
L 301.963636 248.654605 
L 306.472727 230.956579 
L 310.981818 231.495395 
L 315.490909 253.089474 
L 320 247.286842 
L 324.509091 245.131579 
L 329.018182 238.251316 
L 333.527273 235.391447 
L 338.036364 248.032895 
L 342.545455 254.125658 
L 347.054545 244.344079 
L 351.563636 263.741447 
L 356.072727 267.264474 
L 360.581818 265.482237 
L 365.090909 264.114474 
L 369.6 266.974342 
L 374.109091 256.198026 
L 378.618182 249.193421 
L 383.127273 242.769079 
L 387.636364 269.046711 
L 392.145455 253.296711 
L 396.654545 265.565132 
L 401.163636 242.023026 
L 405.672727 268.798026 
L 410.181818 272.818421 
L 414.690909 281.936842 
L 419.2 267.6375 
L 423.709091 252.757895 
L 428.218182 259.845395 
L 432.727273 256.571053 
L 437.236364 274.476316 
L 441.745455 269.088158 
L 446.254545 299.220395 
L 450.763636 269.419737 
L 455.272727 294.080921 
L 459.781818 287.615132 
L 464.290909 280.196053 
L 468.8 289.894737 
L 473.309091 295.614474 
L 477.818182 295.407237 
L 482.327273 289.770395 
L 486.836364 267.513158 
L 491.345455 277.128947 
L 495.854545 277.253289 
L 500.363636 305.769079 
L 504.872727 288.526974 
L 509.381818 298.971711 
L 513.890909 276.134211 
L 518.4 267.430263 
" clip-path="url(#pbe69e8423e)" style="fill: none; stroke: #7f7f7f; stroke-width: 1.5; stroke-linecap: square"/>
   </g>
   <g id="patch_3">
    <path d="M 72 320.4 
L 72 43.2 
" style="fill: none; stroke: #000000; stroke-width: 0.8; stroke-linejoin: miter; stroke-linecap: square"/>
   </g>
   <g id="patch_4">
    <path d="M 518.4 320.4 
L 518.4 43.2 
" style="fill: none; stroke: #000000; stroke-width: 0.8; stroke-linejoin: miter; stroke-linecap: square"/>
   </g>
   <g id="patch_5">
    <path d="M 72 320.4 
L 518.4 320.4 
" style="fill: none; stroke: #000000; stroke-width: 0.8; stroke-linejoin: miter; stroke-linecap: square"/>
   </g>
   <g id="patch_6">
    <path d="M 72 43.2 
L 518.4 43.2 
" style="fill: none; stroke: #000000; stroke-width: 0.8; stroke-linejoin: miter; stroke-linecap: square"/>
   </g>
   <g id="text_15">
    <!-- H3K4me3 -->
    <g transform="translate(265.764375 37.2) scale(0.12 -0.12)">
     <defs>
      <path id="DejaVuSans-48" d="M 628 4666 
L 1259 4666 
L 1259 2753 
L 3553 2753 
L 3553 4666 
L 4184 4666 
L 4184 0 
L 3553 0 
L 3553 2222 
L 1259 2222 
L 1259 0 
L 628 0 
L 628 4666 
z
" transform="scale(0.015625)"/>
      <path id="DejaVuSans-4b" d="M 628 4666 
L 1259 4666 
L 1259 2694 
L 3353 4666 
L 4166 4666 
L 1850 2491 
L 4331 0 
L 3500 0 
L 1259 2247 
L 1259 0 
L 628 0 
L 628 4666 
z
" transform="scale(0.015625)"/>
      <path id="DejaVuSans-6d" d="M 3328 2828 
Q 3544 3216 3844 3400 
Q 4144 3584 4550 3584 
Q 5097 3584 5394 3201 
Q 5691 2819 5691 2113 
L 5691 0 
L 5113 0 
L 5113 2094 
Q 5113 2597 4934 2840 
Q 4756 3084 4391 3084 
Q 3944 3084 3684 2787 
Q 3425 2491 3425 1978 
L 3425 0 
L 2847 0 
L 2847 2094 
Q 2847 2600 2669 2842 
Q 2491 3084 2119 3084 
Q 1678 3084 1418 2786 
Q 1159 2488 1159 1978 
L 1159 0 
L 581 0 
L 581 3500 
L 1159 3500 
L 1159 2956 
Q 1356 3278 1631 3431 
Q 1906 3584 2284 3584 
Q 2666 3584 2933 3390 
Q 3200 3197 3328 2828 
z
" transform="scale(0.015625)"/>
     </defs>
     <use xlink:href="#DejaVuSans-48"/>
     <use xlink:href="#DejaVuSans-33" transform="translate(75.195312 0)"/>
     <use xlink:href="#DejaVuSans-4b" transform="translate(138.818359 0)"/>
     <use xlink:href="#DejaVuSans-34" transform="translate(204.394531 0)"/>
     <use xlink:href="#DejaVuSans-6d" transform="translate(268.017578 0)"/>
     <use xlink:href="#DejaVuSans-65" transform="translate(365.429688 0)"/>
     <use xlink:href="#DejaVuSans-33" transform="translate(426.953125 0)"/>
    </g>
   </g>
   <g id="legend_1">
    <g id="patch_7">
     <path d="M 334.210684 147.679025 
L 512.569 147.679025 
Q 514.235 147.679025 514.235 146.013025 
L 514.235 49.031 
Q 514.235 47.365 512.569 47.365 
L 334.210684 47.365 
Q 332.544684 47.365 332.544684 49.031 
L 332.544684 146.013025 
Q 332.544684 147.679025 334.210684 147.679025 
z
" style="fill: #ffffff; opacity: 0.8; stroke: #cccccc; stroke-linejoin: miter"/>
    </g>
    <g id="line2d_21">
     <path d="M 335.876684 54.110998 
L 344.206684 54.110998 
L 352.536684 54.110998 
" style="fill: none; stroke: #1f77b4; stroke-width: 1.5; stroke-linecap: square"/>
    </g>
    <g id="text_16">
     <!-- NT-MS V2 (50M) with rand. weights -->
     <g transform="translate(359.200684 57.026498) scale(0.0833 -0.0833)">
      <defs>
       <path id="DejaVuSans-4e" d="M 628 4666 
L 1478 4666 
L 3547 763 
L 3547 4666 
L 4159 4666 
L 4159 0 
L 3309 0 
L 1241 3903 
L 1241 0 
L 628 0 
L 628 4666 
z
" transform="scale(0.015625)"/>
       <path id="DejaVuSans-2d" d="M 313 2009 
L 1997 2009 
L 1997 1497 
L 313 1497 
L 313 2009 
z
" transform="scale(0.015625)"/>
       <path id="DejaVuSans-4d" d="M 628 4666 
L 1569 4666 
L 2759 1491 
L 3956 4666 
L 4897 4666 
L 4897 0 
L 4281 0 
L 4281 4097 
L 3078 897 
L 2444 897 
L 1241 4097 
L 1241 0 
L 628 0 
L 628 4666 
z
" transform="scale(0.015625)"/>
       <path id="DejaVuSans-53" d="M 3425 4513 
L 3425 3897 
Q 3066 4069 2747 4153 
Q 2428 4238 2131 4238 
Q 1616 4238 1336 4038 
Q 1056 3838 1056 3469 
Q 1056 3159 1242 3001 
Q 1428 2844 1947 2747 
L 2328 2669 
Q 3034 2534 3370 2195 
Q 3706 1856 3706 1288 
Q 3706 609 3251 259 
Q 2797 -91 1919 -91 
Q 1588 -91 1214 -16 
Q 841 59 441 206 
L 441 856 
Q 825 641 1194 531 
Q 1563 422 1919 422 
Q 2459 422 2753 634 
Q 3047 847 3047 1241 
Q 3047 1584 2836 1778 
Q 2625 1972 2144 2069 
L 1759 2144 
Q 1053 2284 737 2584 
Q 422 2884 422 3419 
Q 422 4038 858 4394 
Q 1294 4750 2059 4750 
Q 2388 4750 2728 4690 
Q 3069 4631 3425 4513 
z
" transform="scale(0.015625)"/>
       <path id="DejaVuSans-56" d="M 1831 0 
L 50 4666 
L 709 4666 
L 2188 738 
L 3669 4666 
L 4325 4666 
L 2547 0 
L 1831 0 
z
" transform="scale(0.015625)"/>
       <path id="DejaVuSans-28" d="M 1984 4856 
Q 1566 4138 1362 3434 
Q 1159 2731 1159 2009 
Q 1159 1288 1364 580 
Q 1569 -128 1984 -844 
L 1484 -844 
Q 1016 -109 783 600 
Q 550 1309 550 2009 
Q 550 2706 781 3412 
Q 1013 4119 1484 4856 
L 1984 4856 
z
" transform="scale(0.015625)"/>
       <path id="DejaVuSans-29" d="M 513 4856 
L 1013 4856 
Q 1481 4119 1714 3412 
Q 1947 2706 1947 2009 
Q 1947 1309 1714 600 
Q 1481 -109 1013 -844 
L 513 -844 
Q 928 -128 1133 580 
Q 1338 1288 1338 2009 
Q 1338 2731 1133 3434 
Q 928 4138 513 4856 
z
" transform="scale(0.015625)"/>
       <path id="DejaVuSans-77" d="M 269 3500 
L 844 3500 
L 1563 769 
L 2278 3500 
L 2956 3500 
L 3675 769 
L 4391 3500 
L 4966 3500 
L 4050 0 
L 3372 0 
L 2619 2869 
L 1863 0 
L 1184 0 
L 269 3500 
z
" transform="scale(0.015625)"/>
       <path id="DejaVuSans-68" d="M 3513 2113 
L 3513 0 
L 2938 0 
L 2938 2094 
Q 2938 2591 2744 2837 
Q 2550 3084 2163 3084 
Q 1697 3084 1428 2787 
Q 1159 2491 1159 1978 
L 1159 0 
L 581 0 
L 581 4863 
L 1159 4863 
L 1159 2956 
Q 1366 3272 1645 3428 
Q 1925 3584 2291 3584 
Q 2894 3584 3203 3211 
Q 3513 2838 3513 2113 
z
" transform="scale(0.015625)"/>
       <path id="DejaVuSans-64" d="M 2906 2969 
L 2906 4863 
L 3481 4863 
L 3481 0 
L 2906 0 
L 2906 525 
Q 2725 213 2448 61 
Q 2172 -91 1784 -91 
Q 1150 -91 751 415 
Q 353 922 353 1747 
Q 353 2572 751 3078 
Q 1150 3584 1784 3584 
Q 2172 3584 2448 3432 
Q 2725 3281 2906 2969 
z
M 947 1747 
Q 947 1113 1208 752 
Q 1469 391 1925 391 
Q 2381 391 2643 752 
Q 2906 1113 2906 1747 
Q 2906 2381 2643 2742 
Q 2381 3103 1925 3103 
Q 1469 3103 1208 2742 
Q 947 2381 947 1747 
z
" transform="scale(0.015625)"/>
      </defs>
      <use xlink:href="#DejaVuSans-4e"/>
      <use xlink:href="#DejaVuSans-54" transform="translate(74.804688 0)"/>
      <use xlink:href="#DejaVuSans-2d" transform="translate(126.763672 0)"/>
      <use xlink:href="#DejaVuSans-4d" transform="translate(162.847656 0)"/>
      <use xlink:href="#DejaVuSans-53" transform="translate(249.126953 0)"/>
      <use xlink:href="#DejaVuSans-20" transform="translate(312.603516 0)"/>
      <use xlink:href="#DejaVuSans-56" transform="translate(344.390625 0)"/>
      <use xlink:href="#DejaVuSans-32" transform="translate(412.798828 0)"/>
      <use xlink:href="#DejaVuSans-20" transform="translate(476.421875 0)"/>
      <use xlink:href="#DejaVuSans-28" transform="translate(508.208984 0)"/>
      <use xlink:href="#DejaVuSans-35" transform="translate(547.222656 0)"/>
      <use xlink:href="#DejaVuSans-30" transform="translate(610.845703 0)"/>
      <use xlink:href="#DejaVuSans-4d" transform="translate(674.46875 0)"/>
      <use xlink:href="#DejaVuSans-29" transform="translate(760.748047 0)"/>
      <use xlink:href="#DejaVuSans-20" transform="translate(799.761719 0)"/>
      <use xlink:href="#DejaVuSans-77" transform="translate(831.548828 0)"/>
      <use xlink:href="#DejaVuSans-69" transform="translate(913.335938 0)"/>
      <use xlink:href="#DejaVuSans-74" transform="translate(941.119141 0)"/>
      <use xlink:href="#DejaVuSans-68" transform="translate(980.328125 0)"/>
      <use xlink:href="#DejaVuSans-20" transform="translate(1043.707031 0)"/>
      <use xlink:href="#DejaVuSans-72" transform="translate(1075.494141 0)"/>
      <use xlink:href="#DejaVuSans-61" transform="translate(1116.607422 0)"/>
      <use xlink:href="#DejaVuSans-6e" transform="translate(1177.886719 0)"/>
      <use xlink:href="#DejaVuSans-64" transform="translate(1241.265625 0)"/>
      <use xlink:href="#DejaVuSans-2e" transform="translate(1304.742188 0)"/>
      <use xlink:href="#DejaVuSans-20" transform="translate(1336.529297 0)"/>
      <use xlink:href="#DejaVuSans-77" transform="translate(1368.316406 0)"/>
      <use xlink:href="#DejaVuSans-65" transform="translate(1450.103516 0)"/>
      <use xlink:href="#DejaVuSans-69" transform="translate(1511.626953 0)"/>
      <use xlink:href="#DejaVuSans-67" transform="translate(1539.410156 0)"/>
      <use xlink:href="#DejaVuSans-68" transform="translate(1602.886719 0)"/>
      <use xlink:href="#DejaVuSans-74" transform="translate(1666.265625 0)"/>
      <use xlink:href="#DejaVuSans-73" transform="translate(1705.474609 0)"/>
     </g>
    </g>
    <g id="line2d_22">
     <path d="M 335.876684 66.337877 
L 344.206684 66.337877 
L 352.536684 66.337877 
" style="fill: none; stroke: #ff7f0e; stroke-width: 1.5; stroke-linecap: square"/>
    </g>
    <g id="text_17">
     <!-- NT-MS V2 (500M) with rand. weights -->
     <g transform="translate(359.200684 69.253377) scale(0.0833 -0.0833)">
      <use xlink:href="#DejaVuSans-4e"/>
      <use xlink:href="#DejaVuSans-54" transform="translate(74.804688 0)"/>
      <use xlink:href="#DejaVuSans-2d" transform="translate(126.763672 0)"/>
      <use xlink:href="#DejaVuSans-4d" transform="translate(162.847656 0)"/>
      <use xlink:href="#DejaVuSans-53" transform="translate(249.126953 0)"/>
      <use xlink:href="#DejaVuSans-20" transform="translate(312.603516 0)"/>
      <use xlink:href="#DejaVuSans-56" transform="translate(344.390625 0)"/>
      <use xlink:href="#DejaVuSans-32" transform="translate(412.798828 0)"/>
      <use xlink:href="#DejaVuSans-20" transform="translate(476.421875 0)"/>
      <use xlink:href="#DejaVuSans-28" transform="translate(508.208984 0)"/>
      <use xlink:href="#DejaVuSans-35" transform="translate(547.222656 0)"/>
      <use xlink:href="#DejaVuSans-30" transform="translate(610.845703 0)"/>
      <use xlink:href="#DejaVuSans-30" transform="translate(674.46875 0)"/>
      <use xlink:href="#DejaVuSans-4d" transform="translate(738.091797 0)"/>
      <use xlink:href="#DejaVuSans-29" transform="translate(824.371094 0)"/>
      <use xlink:href="#DejaVuSans-20" transform="translate(863.384766 0)"/>
      <use xlink:href="#DejaVuSans-77" transform="translate(895.171875 0)"/>
      <use xlink:href="#DejaVuSans-69" transform="translate(976.958984 0)"/>
      <use xlink:href="#DejaVuSans-74" transform="translate(1004.742188 0)"/>
      <use xlink:href="#DejaVuSans-68" transform="translate(1043.951172 0)"/>
      <use xlink:href="#DejaVuSans-20" transform="translate(1107.330078 0)"/>
      <use xlink:href="#DejaVuSans-72" transform="translate(1139.117188 0)"/>
      <use xlink:href="#DejaVuSans-61" transform="translate(1180.230469 0)"/>
      <use xlink:href="#DejaVuSans-6e" transform="translate(1241.509766 0)"/>
      <use xlink:href="#DejaVuSans-64" transform="translate(1304.888672 0)"/>
      <use xlink:href="#DejaVuSans-2e" transform="translate(1368.365234 0)"/>
      <use xlink:href="#DejaVuSans-20" transform="translate(1400.152344 0)"/>
      <use xlink:href="#DejaVuSans-77" transform="translate(1431.939453 0)"/>
      <use xlink:href="#DejaVuSans-65" transform="translate(1513.726562 0)"/>
      <use xlink:href="#DejaVuSans-69" transform="translate(1575.25 0)"/>
      <use xlink:href="#DejaVuSans-67" transform="translate(1603.033203 0)"/>
      <use xlink:href="#DejaVuSans-68" transform="translate(1666.509766 0)"/>
      <use xlink:href="#DejaVuSans-74" transform="translate(1729.888672 0)"/>
      <use xlink:href="#DejaVuSans-73" transform="translate(1769.097656 0)"/>
     </g>
    </g>
    <g id="line2d_23">
     <path d="M 335.876684 78.564755 
L 344.206684 78.564755 
L 352.536684 78.564755 
" style="fill: none; stroke: #2ca02c; stroke-width: 1.5; stroke-linecap: square"/>
    </g>
    <g id="text_18">
     <!-- NT-MS V2 (50M) -->
     <g transform="translate(359.200684 81.480255) scale(0.0833 -0.0833)">
      <use xlink:href="#DejaVuSans-4e"/>
      <use xlink:href="#DejaVuSans-54" transform="translate(74.804688 0)"/>
      <use xlink:href="#DejaVuSans-2d" transform="translate(126.763672 0)"/>
      <use xlink:href="#DejaVuSans-4d" transform="translate(162.847656 0)"/>
      <use xlink:href="#DejaVuSans-53" transform="translate(249.126953 0)"/>
      <use xlink:href="#DejaVuSans-20" transform="translate(312.603516 0)"/>
      <use xlink:href="#DejaVuSans-56" transform="translate(344.390625 0)"/>
      <use xlink:href="#DejaVuSans-32" transform="translate(412.798828 0)"/>
      <use xlink:href="#DejaVuSans-20" transform="translate(476.421875 0)"/>
      <use xlink:href="#DejaVuSans-28" transform="translate(508.208984 0)"/>
      <use xlink:href="#DejaVuSans-35" transform="translate(547.222656 0)"/>
      <use xlink:href="#DejaVuSans-30" transform="translate(610.845703 0)"/>
      <use xlink:href="#DejaVuSans-4d" transform="translate(674.46875 0)"/>
      <use xlink:href="#DejaVuSans-29" transform="translate(760.748047 0)"/>
     </g>
    </g>
    <g id="line2d_24">
     <path d="M 335.876684 90.791633 
L 344.206684 90.791633 
L 352.536684 90.791633 
" style="fill: none; stroke: #d62728; stroke-width: 1.5; stroke-linecap: square"/>
    </g>
    <g id="text_19">
     <!-- NT-1000g (500M) -->
     <g transform="translate(359.200684 93.707133) scale(0.0833 -0.0833)">
      <use xlink:href="#DejaVuSans-4e"/>
      <use xlink:href="#DejaVuSans-54" transform="translate(74.804688 0)"/>
      <use xlink:href="#DejaVuSans-2d" transform="translate(126.763672 0)"/>
      <use xlink:href="#DejaVuSans-31" transform="translate(162.847656 0)"/>
      <use xlink:href="#DejaVuSans-30" transform="translate(226.470703 0)"/>
      <use xlink:href="#DejaVuSans-30" transform="translate(290.09375 0)"/>
      <use xlink:href="#DejaVuSans-30" transform="translate(353.716797 0)"/>
      <use xlink:href="#DejaVuSans-67" transform="translate(417.339844 0)"/>
      <use xlink:href="#DejaVuSans-20" transform="translate(480.816406 0)"/>
      <use xlink:href="#DejaVuSans-28" transform="translate(512.603516 0)"/>
      <use xlink:href="#DejaVuSans-35" transform="translate(551.617188 0)"/>
      <use xlink:href="#DejaVuSans-30" transform="translate(615.240234 0)"/>
      <use xlink:href="#DejaVuSans-30" transform="translate(678.863281 0)"/>
      <use xlink:href="#DejaVuSans-4d" transform="translate(742.486328 0)"/>
      <use xlink:href="#DejaVuSans-29" transform="translate(828.765625 0)"/>
     </g>
    </g>
    <g id="line2d_25">
     <path d="M 335.876684 103.018511 
L 344.206684 103.018511 
L 352.536684 103.018511 
" style="fill: none; stroke: #9467bd; stroke-width: 1.5; stroke-linecap: square"/>
    </g>
    <g id="text_20">
     <!-- NT-MS V2 (250M) -->
     <g transform="translate(359.200684 105.934011) scale(0.0833 -0.0833)">
      <use xlink:href="#DejaVuSans-4e"/>
      <use xlink:href="#DejaVuSans-54" transform="translate(74.804688 0)"/>
      <use xlink:href="#DejaVuSans-2d" transform="translate(126.763672 0)"/>
      <use xlink:href="#DejaVuSans-4d" transform="translate(162.847656 0)"/>
      <use xlink:href="#DejaVuSans-53" transform="translate(249.126953 0)"/>
      <use xlink:href="#DejaVuSans-20" transform="translate(312.603516 0)"/>
      <use xlink:href="#DejaVuSans-56" transform="translate(344.390625 0)"/>
      <use xlink:href="#DejaVuSans-32" transform="translate(412.798828 0)"/>
      <use xlink:href="#DejaVuSans-20" transform="translate(476.421875 0)"/>
      <use xlink:href="#DejaVuSans-28" transform="translate(508.208984 0)"/>
      <use xlink:href="#DejaVuSans-32" transform="translate(547.222656 0)"/>
      <use xlink:href="#DejaVuSans-35" transform="translate(610.845703 0)"/>
      <use xlink:href="#DejaVuSans-30" transform="translate(674.46875 0)"/>
      <use xlink:href="#DejaVuSans-4d" transform="translate(738.091797 0)"/>
      <use xlink:href="#DejaVuSans-29" transform="translate(824.371094 0)"/>
     </g>
    </g>
    <g id="line2d_26">
     <path d="M 335.876684 115.245389 
L 344.206684 115.245389 
L 352.536684 115.245389 
" style="fill: none; stroke: #8c564b; stroke-width: 1.5; stroke-linecap: square"/>
    </g>
    <g id="text_21">
     <!-- NT-MS V2 (100M) -->
     <g transform="translate(359.200684 118.160889) scale(0.0833 -0.0833)">
      <use xlink:href="#DejaVuSans-4e"/>
      <use xlink:href="#DejaVuSans-54" transform="translate(74.804688 0)"/>
      <use xlink:href="#DejaVuSans-2d" transform="translate(126.763672 0)"/>
      <use xlink:href="#DejaVuSans-4d" transform="translate(162.847656 0)"/>
      <use xlink:href="#DejaVuSans-53" transform="translate(249.126953 0)"/>
      <use xlink:href="#DejaVuSans-20" transform="translate(312.603516 0)"/>
      <use xlink:href="#DejaVuSans-56" transform="translate(344.390625 0)"/>
      <use xlink:href="#DejaVuSans-32" transform="translate(412.798828 0)"/>
      <use xlink:href="#DejaVuSans-20" transform="translate(476.421875 0)"/>
      <use xlink:href="#DejaVuSans-28" transform="translate(508.208984 0)"/>
      <use xlink:href="#DejaVuSans-31" transform="translate(547.222656 0)"/>
      <use xlink:href="#DejaVuSans-30" transform="translate(610.845703 0)"/>
      <use xlink:href="#DejaVuSans-30" transform="translate(674.46875 0)"/>
      <use xlink:href="#DejaVuSans-4d" transform="translate(738.091797 0)"/>
      <use xlink:href="#DejaVuSans-29" transform="translate(824.371094 0)"/>
     </g>
    </g>
    <g id="line2d_27">
     <path d="M 335.876684 127.472267 
L 344.206684 127.472267 
L 352.536684 127.472267 
" style="fill: none; stroke: #e377c2; stroke-width: 1.5; stroke-linecap: square"/>
    </g>
    <g id="text_22">
     <!-- NT-Human-Ref. (500M) -->
     <g transform="translate(359.200684 130.387767) scale(0.0833 -0.0833)">
      <defs>
       <path id="DejaVuSans-75" d="M 544 1381 
L 544 3500 
L 1119 3500 
L 1119 1403 
Q 1119 906 1312 657 
Q 1506 409 1894 409 
Q 2359 409 2629 706 
Q 2900 1003 2900 1516 
L 2900 3500 
L 3475 3500 
L 3475 0 
L 2900 0 
L 2900 538 
Q 2691 219 2414 64 
Q 2138 -91 1772 -91 
Q 1169 -91 856 284 
Q 544 659 544 1381 
z
M 1991 3584 
L 1991 3584 
z
" transform="scale(0.015625)"/>
       <path id="DejaVuSans-52" d="M 2841 2188 
Q 3044 2119 3236 1894 
Q 3428 1669 3622 1275 
L 4263 0 
L 3584 0 
L 2988 1197 
Q 2756 1666 2539 1819 
Q 2322 1972 1947 1972 
L 1259 1972 
L 1259 0 
L 628 0 
L 628 4666 
L 2053 4666 
Q 2853 4666 3247 4331 
Q 3641 3997 3641 3322 
Q 3641 2881 3436 2590 
Q 3231 2300 2841 2188 
z
M 1259 4147 
L 1259 2491 
L 2053 2491 
Q 2509 2491 2742 2702 
Q 2975 2913 2975 3322 
Q 2975 3731 2742 3939 
Q 2509 4147 2053 4147 
L 1259 4147 
z
" transform="scale(0.015625)"/>
       <path id="DejaVuSans-66" d="M 2375 4863 
L 2375 4384 
L 1825 4384 
Q 1516 4384 1395 4259 
Q 1275 4134 1275 3809 
L 1275 3500 
L 2222 3500 
L 2222 3053 
L 1275 3053 
L 1275 0 
L 697 0 
L 697 3053 
L 147 3053 
L 147 3500 
L 697 3500 
L 697 3744 
Q 697 4328 969 4595 
Q 1241 4863 1831 4863 
L 2375 4863 
z
" transform="scale(0.015625)"/>
      </defs>
      <use xlink:href="#DejaVuSans-4e"/>
      <use xlink:href="#DejaVuSans-54" transform="translate(74.804688 0)"/>
      <use xlink:href="#DejaVuSans-2d" transform="translate(126.763672 0)"/>
      <use xlink:href="#DejaVuSans-48" transform="translate(162.847656 0)"/>
      <use xlink:href="#DejaVuSans-75" transform="translate(238.042969 0)"/>
      <use xlink:href="#DejaVuSans-6d" transform="translate(301.421875 0)"/>
      <use xlink:href="#DejaVuSans-61" transform="translate(398.833984 0)"/>
      <use xlink:href="#DejaVuSans-6e" transform="translate(460.113281 0)"/>
      <use xlink:href="#DejaVuSans-2d" transform="translate(523.492188 0)"/>
      <use xlink:href="#DejaVuSans-52" transform="translate(559.576172 0)"/>
      <use xlink:href="#DejaVuSans-65" transform="translate(624.558594 0)"/>
      <use xlink:href="#DejaVuSans-66" transform="translate(686.082031 0)"/>
      <use xlink:href="#DejaVuSans-2e" transform="translate(714.037109 0)"/>
      <use xlink:href="#DejaVuSans-20" transform="translate(745.824219 0)"/>
      <use xlink:href="#DejaVuSans-28" transform="translate(777.611328 0)"/>
      <use xlink:href="#DejaVuSans-35" transform="translate(816.625 0)"/>
      <use xlink:href="#DejaVuSans-30" transform="translate(880.248047 0)"/>
      <use xlink:href="#DejaVuSans-30" transform="translate(943.871094 0)"/>
      <use xlink:href="#DejaVuSans-4d" transform="translate(1007.494141 0)"/>
      <use xlink:href="#DejaVuSans-29" transform="translate(1093.773438 0)"/>
     </g>
    </g>
    <g id="line2d_28">
     <path d="M 335.876684 139.699145 
L 344.206684 139.699145 
L 352.536684 139.699145 
" style="fill: none; stroke: #7f7f7f; stroke-width: 1.5; stroke-linecap: square"/>
    </g>
    <g id="text_23">
     <!-- NT-MS V2 (500M) -->
     <g transform="translate(359.200684 142.614645) scale(0.0833 -0.0833)">
      <use xlink:href="#DejaVuSans-4e"/>
      <use xlink:href="#DejaVuSans-54" transform="translate(74.804688 0)"/>
      <use xlink:href="#DejaVuSans-2d" transform="translate(126.763672 0)"/>
      <use xlink:href="#DejaVuSans-4d" transform="translate(162.847656 0)"/>
      <use xlink:href="#DejaVuSans-53" transform="translate(249.126953 0)"/>
      <use xlink:href="#DejaVuSans-20" transform="translate(312.603516 0)"/>
      <use xlink:href="#DejaVuSans-56" transform="translate(344.390625 0)"/>
      <use xlink:href="#DejaVuSans-32" transform="translate(412.798828 0)"/>
      <use xlink:href="#DejaVuSans-20" transform="translate(476.421875 0)"/>
      <use xlink:href="#DejaVuSans-28" transform="translate(508.208984 0)"/>
      <use xlink:href="#DejaVuSans-35" transform="translate(547.222656 0)"/>
      <use xlink:href="#DejaVuSans-30" transform="translate(610.845703 0)"/>
      <use xlink:href="#DejaVuSans-30" transform="translate(674.46875 0)"/>
      <use xlink:href="#DejaVuSans-4d" transform="translate(738.091797 0)"/>
      <use xlink:href="#DejaVuSans-29" transform="translate(824.371094 0)"/>
     </g>
    </g>
   </g>
  </g>
 </g>
 <defs>
  <clipPath id="pbe69e8423e">
   <rect x="72" y="43.2" width="446.4" height="277.2"/>
  </clipPath>
 </defs>
</svg>
