<?xml version="1.0" encoding="utf-8" standalone="no"?>
<!DOCTYPE svg PUBLIC "-//W3C//DTD SVG 1.1//EN"
  "http://www.w3.org/Graphics/SVG/1.1/DTD/svg11.dtd">
<svg xmlns:xlink="http://www.w3.org/1999/xlink" width="576pt" height="360pt" viewBox="0 0 576 360" xmlns="http://www.w3.org/2000/svg" version="1.1">
 <metadata>
  <rdf:RDF xmlns:dc="http://purl.org/dc/elements/1.1/" xmlns:cc="http://creativecommons.org/ns#" xmlns:rdf="http://www.w3.org/1999/02/22-rdf-syntax-ns#">
   <cc:Work>
    <dc:type rdf:resource="http://purl.org/dc/dcmitype/StillImage"/>
    <dc:date>2025-01-07T03:55:02.679909</dc:date>
    <dc:format>image/svg+xml</dc:format>
    <dc:creator>
     <cc:Agent>
      <dc:title>Matplotlib v3.10.0, https://matplotlib.org/</dc:title>
     </cc:Agent>
    </dc:creator>
   </cc:Work>
  </rdf:RDF>
 </metadata>
 <defs>
  <style type="text/css">*{stroke-linejoin: round; stroke-linecap: butt}</style>
 </defs>
 <g id="figure_1">
  <g id="patch_1">
   <path d="M 0 360 
L 576 360 
L 576 0 
L 0 0 
z
" style="fill: #ffffff"/>
  </g>
  <g id="axes_1">
   <g id="patch_2">
    <path d="M 72 320.4 
L 518.4 320.4 
L 518.4 43.2 
L 72 43.2 
z
" style="fill: #ffffff"/>
   </g>
   <g id="matplotlib.axis_1">
    <g id="xtick_1">
     <g id="line2d_1">
      <defs>
       <path id="m9a1e5c3b4d" d="M 0 0 
L 0 3.5 
" style="stroke: #000000; stroke-width: 0.8"/>
      </defs>
      <g>
       <use xlink:href="#m9a1e5c3b4d" x="157.672727" y="320.4" style="stroke: #000000; stroke-width: 0.8"/>
      </g>
     </g>
     <g id="text_1">
      <!-- 2000 -->
      <g transform="translate(144.947727 334.998438) scale(0.1 -0.1)">
       <defs>
        <path id="DejaVuSans-32" d="M 1228 531 
L 3431 531 
L 3431 0 
L 469 0 
L 469 531 
Q 828 903 1448 1529 
Q 2069 2156 2228 2338 
Q 2531 2678 2651 2914 
Q 2772 3150 2772 3378 
Q 2772 3750 2511 3984 
Q 2250 4219 1831 4219 
Q 1534 4219 1204 4116 
Q 875 4013 500 3803 
L 500 4441 
Q 881 4594 1212 4672 
Q 1544 4750 1819 4750 
Q 2544 4750 2975 4387 
Q 3406 4025 3406 3419 
Q 3406 3131 3298 2873 
Q 3191 2616 2906 2266 
Q 2828 2175 2409 1742 
Q 1991 1309 1228 531 
z
" transform="scale(0.015625)"/>
        <path id="DejaVuSans-30" d="M 2034 4250 
Q 1547 4250 1301 3770 
Q 1056 3291 1056 2328 
Q 1056 1369 1301 889 
Q 1547 409 2034 409 
Q 2525 409 2770 889 
Q 3016 1369 3016 2328 
Q 3016 3291 2770 3770 
Q 2525 4250 2034 4250 
z
M 2034 4750 
Q 2819 4750 3233 4129 
Q 3647 3509 3647 2328 
Q 3647 1150 3233 529 
Q 2819 -91 2034 -91 
Q 1250 -91 836 529 
Q 422 1150 422 2328 
Q 422 3509 836 4129 
Q 1250 4750 2034 4750 
z
" transform="scale(0.015625)"/>
       </defs>
       <use xlink:href="#DejaVuSans-32"/>
       <use xlink:href="#DejaVuSans-30" transform="translate(63.623047 0)"/>
       <use xlink:href="#DejaVuSans-30" transform="translate(127.246094 0)"/>
       <use xlink:href="#DejaVuSans-30" transform="translate(190.869141 0)"/>
      </g>
     </g>
    </g>
    <g id="xtick_2">
     <g id="line2d_2">
      <g>
       <use xlink:href="#m9a1e5c3b4d" x="247.854545" y="320.4" style="stroke: #000000; stroke-width: 0.8"/>
      </g>
     </g>
     <g id="text_2">
      <!-- 4000 -->
      <g transform="translate(235.129545 334.998438) scale(0.1 -0.1)">
       <defs>
        <path id="DejaVuSans-34" d="M 2419 4116 
L 825 1625 
L 2419 1625 
L 2419 4116 
z
M 2253 4666 
L 3047 4666 
L 3047 1625 
L 3713 1625 
L 3713 1100 
L 3047 1100 
L 3047 0 
L 2419 0 
L 2419 1100 
L 313 1100 
L 313 1709 
L 2253 4666 
z
" transform="scale(0.015625)"/>
       </defs>
       <use xlink:href="#DejaVuSans-34"/>
       <use xlink:href="#DejaVuSans-30" transform="translate(63.623047 0)"/>
       <use xlink:href="#DejaVuSans-30" transform="translate(127.246094 0)"/>
       <use xlink:href="#DejaVuSans-30" transform="translate(190.869141 0)"/>
      </g>
     </g>
    </g>
    <g id="xtick_3">
     <g id="line2d_3">
      <g>
       <use xlink:href="#m9a1e5c3b4d" x="338.036364" y="320.4" style="stroke: #000000; stroke-width: 0.8"/>
      </g>
     </g>
     <g id="text_3">
      <!-- 6000 -->
      <g transform="translate(325.311364 334.998438) scale(0.1 -0.1)">
       <defs>
        <path id="DejaVuSans-36" d="M 2113 2584 
Q 1688 2584 1439 2293 
Q 1191 2003 1191 1497 
Q 1191 994 1439 701 
Q 1688 409 2113 409 
Q 2538 409 2786 701 
Q 3034 994 3034 1497 
Q 3034 2003 2786 2293 
Q 2538 2584 2113 2584 
z
M 3366 4563 
L 3366 3988 
Q 3128 4100 2886 4159 
Q 2644 4219 2406 4219 
Q 1781 4219 1451 3797 
Q 1122 3375 1075 2522 
Q 1259 2794 1537 2939 
Q 1816 3084 2150 3084 
Q 2853 3084 3261 2657 
Q 3669 2231 3669 1497 
Q 3669 778 3244 343 
Q 2819 -91 2113 -91 
Q 1303 -91 875 529 
Q 447 1150 447 2328 
Q 447 3434 972 4092 
Q 1497 4750 2381 4750 
Q 2619 4750 2861 4703 
Q 3103 4656 3366 4563 
z
" transform="scale(0.015625)"/>
       </defs>
       <use xlink:href="#DejaVuSans-36"/>
       <use xlink:href="#DejaVuSans-30" transform="translate(63.623047 0)"/>
       <use xlink:href="#DejaVuSans-30" transform="translate(127.246094 0)"/>
       <use xlink:href="#DejaVuSans-30" transform="translate(190.869141 0)"/>
      </g>
     </g>
    </g>
    <g id="xtick_4">
     <g id="line2d_4">
      <g>
       <use xlink:href="#m9a1e5c3b4d" x="428.218182" y="320.4" style="stroke: #000000; stroke-width: 0.8"/>
      </g>
     </g>
     <g id="text_4">
      <!-- 8000 -->
      <g transform="translate(415.493182 334.998438) scale(0.1 -0.1)">
       <defs>
        <path id="DejaVuSans-38" d="M 2034 2216 
Q 1584 2216 1326 1975 
Q 1069 1734 1069 1313 
Q 1069 891 1326 650 
Q 1584 409 2034 409 
Q 2484 409 2743 651 
Q 3003 894 3003 1313 
Q 3003 1734 2745 1975 
Q 2488 2216 2034 2216 
z
M 1403 2484 
Q 997 2584 770 2862 
Q 544 3141 544 3541 
Q 544 4100 942 4425 
Q 1341 4750 2034 4750 
Q 2731 4750 3128 4425 
Q 3525 4100 3525 3541 
Q 3525 3141 3298 2862 
Q 3072 2584 2669 2484 
Q 3125 2378 3379 2068 
Q 3634 1759 3634 1313 
Q 3634 634 3220 271 
Q 2806 -91 2034 -91 
Q 1263 -91 848 271 
Q 434 634 434 1313 
Q 434 1759 690 2068 
Q 947 2378 1403 2484 
z
M 1172 3481 
Q 1172 3119 1398 2916 
Q 1625 2713 2034 2713 
Q 2441 2713 2670 2916 
Q 2900 3119 2900 3481 
Q 2900 3844 2670 4047 
Q 2441 4250 2034 4250 
Q 1625 4250 1398 4047 
Q 1172 3844 1172 3481 
z
" transform="scale(0.015625)"/>
       </defs>
       <use xlink:href="#DejaVuSans-38"/>
       <use xlink:href="#DejaVuSans-30" transform="translate(63.623047 0)"/>
       <use xlink:href="#DejaVuSans-30" transform="translate(127.246094 0)"/>
       <use xlink:href="#DejaVuSans-30" transform="translate(190.869141 0)"/>
      </g>
     </g>
    </g>
    <g id="xtick_5">
     <g id="line2d_5">
      <g>
       <use xlink:href="#m9a1e5c3b4d" x="518.4" y="320.4" style="stroke: #000000; stroke-width: 0.8"/>
      </g>
     </g>
     <g id="text_5">
      <!-- 10000 -->
      <g transform="translate(502.49375 334.998438) scale(0.1 -0.1)">
       <defs>
        <path id="DejaVuSans-31" d="M 794 531 
L 1825 531 
L 1825 4091 
L 703 3866 
L 703 4441 
L 1819 4666 
L 2450 4666 
L 2450 531 
L 3481 531 
L 3481 0 
L 794 0 
L 794 531 
z
" transform="scale(0.015625)"/>
       </defs>
       <use xlink:href="#DejaVuSans-31"/>
       <use xlink:href="#DejaVuSans-30" transform="translate(63.623047 0)"/>
       <use xlink:href="#DejaVuSans-30" transform="translate(127.246094 0)"/>
       <use xlink:href="#DejaVuSans-30" transform="translate(190.869141 0)"/>
       <use xlink:href="#DejaVuSans-30" transform="translate(254.492188 0)"/>
      </g>
     </g>
    </g>
    <g id="text_6">
     <!-- Training steps -->
     <g transform="translate(260.464844 348.676562) scale(0.1 -0.1)">
      <defs>
       <path id="DejaVuSans-54" d="M -19 4666 
L 3928 4666 
L 3928 4134 
L 2272 4134 
L 2272 0 
L 1638 0 
L 1638 4134 
L -19 4134 
L -19 4666 
z
" transform="scale(0.015625)"/>
       <path id="DejaVuSans-72" d="M 2631 2963 
Q 2534 3019 2420 3045 
Q 2306 3072 2169 3072 
Q 1681 3072 1420 2755 
Q 1159 2438 1159 1844 
L 1159 0 
L 581 0 
L 581 3500 
L 1159 3500 
L 1159 2956 
Q 1341 3275 1631 3429 
Q 1922 3584 2338 3584 
Q 2397 3584 2469 3576 
Q 2541 3569 2628 3553 
L 2631 2963 
z
" transform="scale(0.015625)"/>
       <path id="DejaVuSans-61" d="M 2194 1759 
Q 1497 1759 1228 1600 
Q 959 1441 959 1056 
Q 959 750 1161 570 
Q 1363 391 1709 391 
Q 2188 391 2477 730 
Q 2766 1069 2766 1631 
L 2766 1759 
L 2194 1759 
z
M 3341 1997 
L 3341 0 
L 2766 0 
L 2766 531 
Q 2569 213 2275 61 
Q 1981 -91 1556 -91 
Q 1019 -91 701 211 
Q 384 513 384 1019 
Q 384 1609 779 1909 
Q 1175 2209 1959 2209 
L 2766 2209 
L 2766 2266 
Q 2766 2663 2505 2880 
Q 2244 3097 1772 3097 
Q 1472 3097 1187 3025 
Q 903 2953 641 2809 
L 641 3341 
Q 956 3463 1253 3523 
Q 1550 3584 1831 3584 
Q 2591 3584 2966 3190 
Q 3341 2797 3341 1997 
z
" transform="scale(0.015625)"/>
       <path id="DejaVuSans-69" d="M 603 3500 
L 1178 3500 
L 1178 0 
L 603 0 
L 603 3500 
z
M 603 4863 
L 1178 4863 
L 1178 4134 
L 603 4134 
L 603 4863 
z
" transform="scale(0.015625)"/>
       <path id="DejaVuSans-6e" d="M 3513 2113 
L 3513 0 
L 2938 0 
L 2938 2094 
Q 2938 2591 2744 2837 
Q 2550 3084 2163 3084 
Q 1697 3084 1428 2787 
Q 1159 2491 1159 1978 
L 1159 0 
L 581 0 
L 581 3500 
L 1159 3500 
L 1159 2956 
Q 1366 3272 1645 3428 
Q 1925 3584 2291 3584 
Q 2894 3584 3203 3211 
Q 3513 2838 3513 2113 
z
" transform="scale(0.015625)"/>
       <path id="DejaVuSans-67" d="M 2906 1791 
Q 2906 2416 2648 2759 
Q 2391 3103 1925 3103 
Q 1463 3103 1205 2759 
Q 947 2416 947 1791 
Q 947 1169 1205 825 
Q 1463 481 1925 481 
Q 2391 481 2648 825 
Q 2906 1169 2906 1791 
z
M 3481 434 
Q 3481 -459 3084 -895 
Q 2688 -1331 1869 -1331 
Q 1566 -1331 1297 -1286 
Q 1028 -1241 775 -1147 
L 775 -588 
Q 1028 -725 1275 -790 
Q 1522 -856 1778 -856 
Q 2344 -856 2625 -561 
Q 2906 -266 2906 331 
L 2906 616 
Q 2728 306 2450 153 
Q 2172 0 1784 0 
Q 1141 0 747 490 
Q 353 981 353 1791 
Q 353 2603 747 3093 
Q 1141 3584 1784 3584 
Q 2172 3584 2450 3431 
Q 2728 3278 2906 2969 
L 2906 3500 
L 3481 3500 
L 3481 434 
z
" transform="scale(0.015625)"/>
       <path id="DejaVuSans-20" transform="scale(0.015625)"/>
       <path id="DejaVuSans-73" d="M 2834 3397 
L 2834 2853 
Q 2591 2978 2328 3040 
Q 2066 3103 1784 3103 
Q 1356 3103 1142 2972 
Q 928 2841 928 2578 
Q 928 2378 1081 2264 
Q 1234 2150 1697 2047 
L 1894 2003 
Q 2506 1872 2764 1633 
Q 3022 1394 3022 966 
Q 3022 478 2636 193 
Q 2250 -91 1575 -91 
Q 1294 -91 989 -36 
Q 684 19 347 128 
L 347 722 
Q 666 556 975 473 
Q 1284 391 1588 391 
Q 1994 391 2212 530 
Q 2431 669 2431 922 
Q 2431 1156 2273 1281 
Q 2116 1406 1581 1522 
L 1381 1569 
Q 847 1681 609 1914 
Q 372 2147 372 2553 
Q 372 3047 722 3315 
Q 1072 3584 1716 3584 
Q 2034 3584 2315 3537 
Q 2597 3491 2834 3397 
z
" transform="scale(0.015625)"/>
       <path id="DejaVuSans-74" d="M 1172 4494 
L 1172 3500 
L 2356 3500 
L 2356 3053 
L 1172 3053 
L 1172 1153 
Q 1172 725 1289 603 
Q 1406 481 1766 481 
L 2356 481 
L 2356 0 
L 1766 0 
Q 1100 0 847 248 
Q 594 497 594 1153 
L 594 3053 
L 172 3053 
L 172 3500 
L 594 3500 
L 594 4494 
L 1172 4494 
z
" transform="scale(0.015625)"/>
       <path id="DejaVuSans-65" d="M 3597 1894 
L 3597 1613 
L 953 1613 
Q 991 1019 1311 708 
Q 1631 397 2203 397 
Q 2534 397 2845 478 
Q 3156 559 3463 722 
L 3463 178 
Q 3153 47 2828 -22 
Q 2503 -91 2169 -91 
Q 1331 -91 842 396 
Q 353 884 353 1716 
Q 353 2575 817 3079 
Q 1281 3584 2069 3584 
Q 2775 3584 3186 3129 
Q 3597 2675 3597 1894 
z
M 3022 2063 
Q 3016 2534 2758 2815 
Q 2500 3097 2075 3097 
Q 1594 3097 1305 2825 
Q 1016 2553 972 2059 
L 3022 2063 
z
" transform="scale(0.015625)"/>
       <path id="DejaVuSans-70" d="M 1159 525 
L 1159 -1331 
L 581 -1331 
L 581 3500 
L 1159 3500 
L 1159 2969 
Q 1341 3281 1617 3432 
Q 1894 3584 2278 3584 
Q 2916 3584 3314 3078 
Q 3713 2572 3713 1747 
Q 3713 922 3314 415 
Q 2916 -91 2278 -91 
Q 1894 -91 1617 61 
Q 1341 213 1159 525 
z
M 3116 1747 
Q 3116 2381 2855 2742 
Q 2594 3103 2138 3103 
Q 1681 3103 1420 2742 
Q 1159 2381 1159 1747 
Q 1159 1113 1420 752 
Q 1681 391 2138 391 
Q 2594 391 2855 752 
Q 3116 1113 3116 1747 
z
" transform="scale(0.015625)"/>
      </defs>
      <use xlink:href="#DejaVuSans-54"/>
      <use xlink:href="#DejaVuSans-72" transform="translate(46.333984 0)"/>
      <use xlink:href="#DejaVuSans-61" transform="translate(87.447266 0)"/>
      <use xlink:href="#DejaVuSans-69" transform="translate(148.726562 0)"/>
      <use xlink:href="#DejaVuSans-6e" transform="translate(176.509766 0)"/>
      <use xlink:href="#DejaVuSans-69" transform="translate(239.888672 0)"/>
      <use xlink:href="#DejaVuSans-6e" transform="translate(267.671875 0)"/>
      <use xlink:href="#DejaVuSans-67" transform="translate(331.050781 0)"/>
      <use xlink:href="#DejaVuSans-20" transform="translate(394.527344 0)"/>
      <use xlink:href="#DejaVuSans-73" transform="translate(426.314453 0)"/>
      <use xlink:href="#DejaVuSans-74" transform="translate(478.414062 0)"/>
      <use xlink:href="#DejaVuSans-65" transform="translate(517.623047 0)"/>
      <use xlink:href="#DejaVuSans-70" transform="translate(579.146484 0)"/>
      <use xlink:href="#DejaVuSans-73" transform="translate(642.623047 0)"/>
     </g>
    </g>
   </g>
   <g id="matplotlib.axis_2">
    <g id="ytick_1">
     <g id="line2d_6">
      <defs>
       <path id="madc53dc84f" d="M 0 0 
L -3.5 0 
" style="stroke: #000000; stroke-width: 0.8"/>
      </defs>
      <g>
       <use xlink:href="#madc53dc84f" x="72" y="298.80357" style="stroke: #000000; stroke-width: 0.8"/>
      </g>
     </g>
     <g id="text_7">
      <!-- 0.4 -->
      <g transform="translate(49.096875 302.602789) scale(0.1 -0.1)">
       <defs>
        <path id="DejaVuSans-2e" d="M 684 794 
L 1344 794 
L 1344 0 
L 684 0 
L 684 794 
z
" transform="scale(0.015625)"/>
       </defs>
       <use xlink:href="#DejaVuSans-30"/>
       <use xlink:href="#DejaVuSans-2e" transform="translate(63.623047 0)"/>
       <use xlink:href="#DejaVuSans-34" transform="translate(95.410156 0)"/>
      </g>
     </g>
    </g>
    <g id="ytick_2">
     <g id="line2d_7">
      <g>
       <use xlink:href="#madc53dc84f" x="72" y="248.823403" style="stroke: #000000; stroke-width: 0.8"/>
      </g>
     </g>
     <g id="text_8">
      <!-- 0.5 -->
      <g transform="translate(49.096875 252.622622) scale(0.1 -0.1)">
       <defs>
        <path id="DejaVuSans-35" d="M 691 4666 
L 3169 4666 
L 3169 4134 
L 1269 4134 
L 1269 2991 
Q 1406 3038 1543 3061 
Q 1681 3084 1819 3084 
Q 2600 3084 3056 2656 
Q 3513 2228 3513 1497 
Q 3513 744 3044 326 
Q 2575 -91 1722 -91 
Q 1428 -91 1123 -41 
Q 819 9 494 109 
L 494 744 
Q 775 591 1075 516 
Q 1375 441 1709 441 
Q 2250 441 2565 725 
Q 2881 1009 2881 1497 
Q 2881 1984 2565 2268 
Q 2250 2553 1709 2553 
Q 1456 2553 1204 2497 
Q 953 2441 691 2322 
L 691 4666 
z
" transform="scale(0.015625)"/>
       </defs>
       <use xlink:href="#DejaVuSans-30"/>
       <use xlink:href="#DejaVuSans-2e" transform="translate(63.623047 0)"/>
       <use xlink:href="#DejaVuSans-35" transform="translate(95.410156 0)"/>
      </g>
     </g>
    </g>
    <g id="ytick_3">
     <g id="line2d_8">
      <g>
       <use xlink:href="#madc53dc84f" x="72" y="198.843237" style="stroke: #000000; stroke-width: 0.8"/>
      </g>
     </g>
     <g id="text_9">
      <!-- 0.6 -->
      <g transform="translate(49.096875 202.642456) scale(0.1 -0.1)">
       <use xlink:href="#DejaVuSans-30"/>
       <use xlink:href="#DejaVuSans-2e" transform="translate(63.623047 0)"/>
       <use xlink:href="#DejaVuSans-36" transform="translate(95.410156 0)"/>
      </g>
     </g>
    </g>
    <g id="ytick_4">
     <g id="line2d_9">
      <g>
       <use xlink:href="#madc53dc84f" x="72" y="148.86307" style="stroke: #000000; stroke-width: 0.8"/>
      </g>
     </g>
     <g id="text_10">
      <!-- 0.7 -->
      <g transform="translate(49.096875 152.662289) scale(0.1 -0.1)">
       <defs>
        <path id="DejaVuSans-37" d="M 525 4666 
L 3525 4666 
L 3525 4397 
L 1831 0 
L 1172 0 
L 2766 4134 
L 525 4134 
L 525 4666 
z
" transform="scale(0.015625)"/>
       </defs>
       <use xlink:href="#DejaVuSans-30"/>
       <use xlink:href="#DejaVuSans-2e" transform="translate(63.623047 0)"/>
       <use xlink:href="#DejaVuSans-37" transform="translate(95.410156 0)"/>
      </g>
     </g>
    </g>
    <g id="ytick_5">
     <g id="line2d_10">
      <g>
       <use xlink:href="#madc53dc84f" x="72" y="98.882904" style="stroke: #000000; stroke-width: 0.8"/>
      </g>
     </g>
     <g id="text_11">
      <!-- 0.8 -->
      <g transform="translate(49.096875 102.682122) scale(0.1 -0.1)">
       <use xlink:href="#DejaVuSans-30"/>
       <use xlink:href="#DejaVuSans-2e" transform="translate(63.623047 0)"/>
       <use xlink:href="#DejaVuSans-38" transform="translate(95.410156 0)"/>
      </g>
     </g>
    </g>
    <g id="ytick_6">
     <g id="line2d_11">
      <g>
       <use xlink:href="#madc53dc84f" x="72" y="48.902737" style="stroke: #000000; stroke-width: 0.8"/>
      </g>
     </g>
     <g id="text_12">
      <!-- 0.9 -->
      <g transform="translate(49.096875 52.701956) scale(0.1 -0.1)">
       <defs>
        <path id="DejaVuSans-39" d="M 703 97 
L 703 672 
Q 941 559 1184 500 
Q 1428 441 1663 441 
Q 2288 441 2617 861 
Q 2947 1281 2994 2138 
Q 2813 1869 2534 1725 
Q 2256 1581 1919 1581 
Q 1219 1581 811 2004 
Q 403 2428 403 3163 
Q 403 3881 828 4315 
Q 1253 4750 1959 4750 
Q 2769 4750 3195 4129 
Q 3622 3509 3622 2328 
Q 3622 1225 3098 567 
Q 2575 -91 1691 -91 
Q 1453 -91 1209 -44 
Q 966 3 703 97 
z
M 1959 2075 
Q 2384 2075 2632 2365 
Q 2881 2656 2881 3163 
Q 2881 3666 2632 3958 
Q 2384 4250 1959 4250 
Q 1534 4250 1286 3958 
Q 1038 3666 1038 3163 
Q 1038 2656 1286 2365 
Q 1534 2075 1959 2075 
z
" transform="scale(0.015625)"/>
       </defs>
       <use xlink:href="#DejaVuSans-30"/>
       <use xlink:href="#DejaVuSans-2e" transform="translate(63.623047 0)"/>
       <use xlink:href="#DejaVuSans-39" transform="translate(95.410156 0)"/>
      </g>
     </g>
    </g>
    <g id="text_13">
     <!-- Loss -->
     <g transform="translate(43.017187 192.767187) rotate(-90) scale(0.1 -0.1)">
      <defs>
       <path id="DejaVuSans-4c" d="M 628 4666 
L 1259 4666 
L 1259 531 
L 3531 531 
L 3531 0 
L 628 0 
L 628 4666 
z
" transform="scale(0.015625)"/>
       <path id="DejaVuSans-6f" d="M 1959 3097 
Q 1497 3097 1228 2736 
Q 959 2375 959 1747 
Q 959 1119 1226 758 
Q 1494 397 1959 397 
Q 2419 397 2687 759 
Q 2956 1122 2956 1747 
Q 2956 2369 2687 2733 
Q 2419 3097 1959 3097 
z
M 1959 3584 
Q 2709 3584 3137 3096 
Q 3566 2609 3566 1747 
Q 3566 888 3137 398 
Q 2709 -91 1959 -91 
Q 1206 -91 779 398 
Q 353 888 353 1747 
Q 353 2609 779 3096 
Q 1206 3584 1959 3584 
z
" transform="scale(0.015625)"/>
      </defs>
      <use xlink:href="#DejaVuSans-4c"/>
      <use xlink:href="#DejaVuSans-6f" transform="translate(53.962891 0)"/>
      <use xlink:href="#DejaVuSans-73" transform="translate(115.144531 0)"/>
      <use xlink:href="#DejaVuSans-73" transform="translate(167.244141 0)"/>
     </g>
    </g>
   </g>
   <g id="line2d_12">
    <path d="M 72 117.375565 
L 76.509091 145.464419 
L 81.018182 150.062594 
L 85.527273 154.960651 
L 90.036364 157.70956 
L 94.545455 174.502896 
L 99.054545 162.007854 
L 103.563636 154.210948 
L 108.072727 161.707973 
L 112.581818 171.354145 
L 117.090909 179.350972 
L 121.6 165.956287 
L 126.109091 171.254185 
L 130.618182 168.705196 
L 135.127273 174.952717 
L 139.636364 180.400555 
L 144.145455 160.408489 
L 148.654545 169.404919 
L 153.163636 178.251408 
L 157.672727 172.65363 
L 162.181818 190.546529 
L 166.690909 187.8476 
L 171.2 188.197461 
L 175.709091 184.548909 
L 180.218182 186.448155 
L 184.727273 187.347798 
L 189.236364 190.296628 
L 193.745455 170.354542 
L 198.254545 179.300992 
L 202.763636 182.799603 
L 207.272727 193.295438 
L 211.781818 191.696073 
L 216.290909 189.996747 
L 220.8 189.646886 
L 225.309091 188.197461 
L 229.818182 188.947164 
L 234.327273 193.79524 
L 238.836364 198.793257 
L 243.345455 195.294645 
L 247.854545 186.198255 
L 252.363636 199.542959 
L 256.872727 195.844427 
L 261.381818 191.496152 
L 265.890909 200.792463 
L 270.4 199.542959 
L 274.909091 206.940024 
L 279.418182 194.644903 
L 283.927273 189.247045 
L 288.436364 187.497739 
L 292.945455 192.645696 
L 297.454545 199.293058 
L 301.963636 216.186355 
L 306.472727 212.887664 
L 310.981818 180.650456 
L 315.490909 192.495756 
L 320 193.245458 
L 324.509091 201.292265 
L 329.018182 190.496549 
L 333.527273 198.043554 
L 338.036364 205.89044 
L 342.545455 198.643316 
L 347.054545 185.348592 
L 351.563636 205.69052 
L 356.072727 200.142721 
L 360.581818 200.392622 
L 365.090909 182.449742 
L 369.6 202.991591 
L 374.109091 209.489012 
L 378.618182 207.539786 
L 383.127273 196.144308 
L 387.636364 189.746846 
L 392.145455 221.884094 
L 396.654545 218.835303 
L 401.163636 219.984847 
L 405.672727 197.343832 
L 410.181818 224.133201 
L 414.690909 221.084411 
L 419.2 213.137564 
L 423.709091 200.992384 
L 428.218182 200.392622 
L 432.727273 231.880127 
L 437.236364 208.73931 
L 441.745455 213.787307 
L 446.254545 209.289092 
L 450.763636 220.434669 
L 455.272727 216.236335 
L 459.781818 214.337088 
L 464.290909 215.636573 
L 468.8 209.788893 
L 473.309091 224.383102 
L 477.818182 218.735343 
L 482.327273 217.78572 
L 486.836364 205.240698 
L 491.345455 215.286712 
L 495.854545 216.186355 
L 500.363636 230.730583 
L 504.872727 221.934074 
L 509.381818 211.438239 
L 513.890909 209.489012 
L 518.4 235.178818 
" clip-path="url(#pab04f9238c)" style="fill: none; stroke: #1f77b4; stroke-width: 1.5; stroke-linecap: square"/>
   </g>
   <g id="line2d_13">
    <path d="M 72 55.8 
L 76.509091 115.076478 
L 81.018182 135.268465 
L 85.527273 159.258945 
L 90.036364 147.713526 
L 94.545455 148.113368 
L 99.054545 157.509639 
L 103.563636 162.957477 
L 108.072727 158.609203 
L 112.581818 129.970567 
L 117.090909 158.509242 
L 121.6 173.303372 
L 126.109091 155.410472 
L 130.618182 186.348195 
L 135.127273 171.204205 
L 139.636364 162.357715 
L 144.145455 150.212535 
L 148.654545 155.210551 
L 153.163636 148.563189 
L 157.672727 165.056644 
L 162.181818 172.403729 
L 166.690909 175.70242 
L 171.2 173.703213 
L 175.709091 166.106228 
L 180.218182 171.803967 
L 184.727273 171.953907 
L 189.236364 189.347005 
L 193.745455 171.454106 
L 198.254545 172.65363 
L 202.763636 177.751607 
L 207.272727 193.395399 
L 211.781818 167.305752 
L 216.290909 183.849187 
L 220.8 169.954701 
L 225.309091 183.899167 
L 229.818182 182.349782 
L 234.327273 171.604046 
L 238.836364 197.243871 
L 243.345455 182.699643 
L 247.854545 186.248235 
L 252.363636 186.897977 
L 256.872727 212.737723 
L 261.381818 187.347798 
L 265.890909 204.740896 
L 270.4 185.448552 
L 274.909091 188.047521 
L 279.418182 189.047124 
L 283.927273 183.749226 
L 288.436364 185.598493 
L 292.945455 180.250615 
L 297.454545 201.892027 
L 301.963636 192.245855 
L 306.472727 197.393812 
L 310.981818 188.647283 
L 315.490909 190.246648 
L 320 187.89758 
L 324.509091 185.398572 
L 329.018182 178.80119 
L 333.527273 196.044347 
L 338.036364 202.84165 
L 342.545455 203.191511 
L 347.054545 189.197065 
L 351.563636 198.293455 
L 356.072727 197.143911 
L 360.581818 189.746846 
L 365.090909 185.798413 
L 369.6 204.241095 
L 374.109091 206.340262 
L 378.618182 199.143118 
L 383.127273 183.399365 
L 387.636364 191.046331 
L 392.145455 210.188735 
L 396.654545 221.534232 
L 401.163636 212.337882 
L 405.672727 197.043951 
L 410.181818 211.038397 
L 414.690909 212.937644 
L 419.2 191.596113 
L 423.709091 203.341452 
L 428.218182 206.440222 
L 432.727273 193.645299 
L 437.236364 208.189528 
L 441.745455 212.537802 
L 446.254545 192.695676 
L 450.763636 217.535819 
L 455.272727 214.337088 
L 459.781818 215.136771 
L 464.290909 213.187545 
L 468.8 214.287108 
L 473.309091 200.442602 
L 477.818182 212.187941 
L 482.327273 210.638556 
L 486.836364 209.489012 
L 491.345455 199.293058 
L 495.854545 209.788893 
L 500.363636 234.329155 
L 504.872727 208.589369 
L 509.381818 223.433479 
L 513.890909 201.842047 
L 518.4 227.581833 
" clip-path="url(#pab04f9238c)" style="fill: none; stroke: #ff7f0e; stroke-width: 1.5; stroke-linecap: square"/>
   </g>
   <g id="line2d_14">
    <path d="M 72 179.051091 
L 76.509091 199.84284 
L 81.018182 203.491392 
L 85.527273 214.83689 
L 90.036364 218.235541 
L 94.545455 239.177231 
L 99.054545 226.582229 
L 103.563636 218.785323 
L 108.072727 223.83332 
L 112.581818 226.132408 
L 117.090909 251.922174 
L 121.6 250.222848 
L 126.109091 248.623483 
L 130.618182 249.673066 
L 135.127273 257.120111 
L 139.636364 235.578659 
L 144.145455 233.779373 
L 148.654545 217.435859 
L 153.163636 246.974137 
L 157.672727 234.978897 
L 162.181818 250.372789 
L 166.690909 255.270845 
L 171.2 264.817057 
L 175.709091 240.426735 
L 180.218182 252.821817 
L 184.727273 249.623086 
L 189.236364 265.116938 
L 193.745455 245.724633 
L 198.254545 242.825783 
L 202.763636 265.416819 
L 207.272727 267.116144 
L 211.781818 266.516382 
L 216.290909 256.67029 
L 220.8 242.126061 
L 225.309091 263.467592 
L 229.818182 253.321618 
L 234.327273 279.711146 
L 238.836364 259.919 
L 243.345455 269.665133 
L 247.854545 281.060611 
L 252.363636 274.013407 
L 256.872727 272.314082 
L 261.381818 264.117334 
L 265.890909 272.064181 
L 270.4 264.267275 
L 274.909091 263.467592 
L 279.418182 265.316858 
L 283.927273 257.719873 
L 288.436364 265.7167 
L 292.945455 252.172075 
L 297.454545 274.163348 
L 301.963636 276.162555 
L 306.472727 258.869417 
L 310.981818 249.373185 
L 315.490909 268.515589 
L 320 252.222055 
L 324.509091 257.719873 
L 329.018182 250.67267 
L 333.527273 254.171281 
L 338.036364 269.115351 
L 342.545455 274.513209 
L 347.054545 261.618326 
L 351.563636 263.467592 
L 356.072727 267.066164 
L 360.581818 269.215311 
L 365.090909 263.817453 
L 369.6 273.263705 
L 374.109091 289.307338 
L 378.618182 274.113368 
L 383.127273 255.120904 
L 387.636364 263.317652 
L 392.145455 289.007457 
L 396.654545 294.155415 
L 401.163636 282.759937 
L 405.672727 274.71313 
L 410.181818 288.107814 
L 414.690909 284.209361 
L 419.2 267.366045 
L 423.709091 269.165331 
L 428.218182 287.108211 
L 432.727273 286.308528 
L 437.236364 295.954701 
L 441.745455 280.81071 
L 446.254545 271.464419 
L 450.763636 293.455692 
L 455.272727 275.912654 
L 459.781818 298.70361 
L 464.290909 276.712336 
L 468.8 288.807537 
L 473.309091 295.604839 
L 477.818182 288.157795 
L 482.327273 276.112574 
L 486.836364 268.86545 
L 491.345455 270.814677 
L 495.854545 281.010631 
L 500.363636 285.858707 
L 504.872727 267.316065 
L 509.381818 299.203411 
L 513.890909 281.610393 
L 518.4 289.607219 
" clip-path="url(#pab04f9238c)" style="fill: none; stroke: #2ca02c; stroke-width: 1.5; stroke-linecap: square"/>
   </g>
   <g id="line2d_15">
    <path d="M 72 61.397779 
L 76.509091 160.008647 
L 81.018182 176.002301 
L 85.527273 191.596113 
L 90.036364 197.343832 
L 94.545455 200.592543 
L 99.054545 199.592939 
L 103.563636 188.297422 
L 108.072727 203.341452 
L 112.581818 175.85236 
L 117.090909 208.639349 
L 121.6 210.538596 
L 126.109091 205.89044 
L 130.618182 236.978104 
L 135.127273 207.089964 
L 139.636364 206.040381 
L 144.145455 202.491789 
L 148.654545 209.339072 
L 153.163636 195.144704 
L 157.672727 212.038001 
L 162.181818 194.894804 
L 166.690909 226.032447 
L 171.2 234.529076 
L 175.709091 205.94042 
L 180.218182 230.730583 
L 184.727273 202.441809 
L 189.236364 240.226815 
L 193.745455 211.93804 
L 198.254545 232.180008 
L 202.763636 229.581039 
L 207.272727 237.427925 
L 211.781818 236.528282 
L 216.290909 214.087188 
L 220.8 229.980881 
L 225.309091 244.92495 
L 229.818182 232.379929 
L 234.327273 239.177231 
L 238.836364 216.736136 
L 243.345455 225.432685 
L 247.854545 233.779373 
L 252.363636 242.575883 
L 256.872727 240.576676 
L 261.381818 241.426339 
L 265.890909 234.728996 
L 270.4 243.125664 
L 274.909091 226.082428 
L 279.418182 236.528282 
L 283.927273 226.93209 
L 288.436364 231.780167 
L 292.945455 222.983657 
L 297.454545 238.477509 
L 301.963636 247.074098 
L 306.472727 234.629036 
L 310.981818 225.632606 
L 315.490909 252.322015 
L 320 222.583816 
L 324.509091 226.93209 
L 329.018182 241.576279 
L 333.527273 232.180008 
L 338.036364 245.824593 
L 342.545455 253.071718 
L 347.054545 232.92971 
L 351.563636 239.627053 
L 356.072727 246.274415 
L 360.581818 251.022531 
L 365.090909 244.475129 
L 369.6 247.274018 
L 374.109091 265.416819 
L 378.618182 254.571123 
L 383.127273 236.878144 
L 387.636364 234.279175 
L 392.145455 267.066164 
L 396.654545 266.766283 
L 401.163636 249.023324 
L 405.672727 241.126458 
L 410.181818 265.616739 
L 414.690909 267.615946 
L 419.2 247.67386 
L 423.709091 249.523126 
L 428.218182 259.119318 
L 432.727273 253.371599 
L 437.236364 268.965411 
L 441.745455 268.065768 
L 446.254545 245.874574 
L 450.763636 281.710353 
L 455.272727 263.917414 
L 459.781818 268.115748 
L 464.290909 266.466402 
L 468.8 269.765093 
L 473.309091 272.913844 
L 477.818182 275.212931 
L 482.327273 251.722253 
L 486.836364 252.521936 
L 491.345455 255.070924 
L 495.854545 267.915827 
L 500.363636 269.265292 
L 504.872727 270.064974 
L 509.381818 283.959461 
L 513.890909 258.169695 
L 518.4 283.459659 
" clip-path="url(#pab04f9238c)" style="fill: none; stroke: #d62728; stroke-width: 1.5; stroke-linecap: square"/>
   </g>
   <g id="line2d_16">
    <path d="M 72 156.859897 
L 76.509091 170.704403 
L 81.018182 210.488616 
L 85.527273 218.885284 
L 90.036364 225.282745 
L 94.545455 250.022927 
L 99.054545 213.737326 
L 103.563636 216.036414 
L 108.072727 224.433082 
L 112.581818 228.131614 
L 117.090909 246.274415 
L 121.6 254.071321 
L 126.109091 238.527489 
L 130.618182 226.482269 
L 135.127273 238.277588 
L 139.636364 232.130028 
L 144.145455 237.877747 
L 148.654545 217.88568 
L 153.163636 239.976914 
L 157.672727 228.831337 
L 162.181818 254.771043 
L 166.690909 243.325585 
L 171.2 253.071718 
L 175.709091 234.479096 
L 180.218182 252.671876 
L 184.727273 237.877747 
L 189.236364 251.122491 
L 193.745455 240.576676 
L 198.254545 247.473939 
L 202.763636 267.366045 
L 207.272727 251.572313 
L 211.781818 260.868624 
L 216.290909 244.72503 
L 220.8 237.577866 
L 225.309091 260.068941 
L 229.818182 241.82618 
L 234.327273 271.464419 
L 238.836364 256.020547 
L 243.345455 260.868624 
L 247.854545 267.615946 
L 252.363636 274.363269 
L 256.872727 268.315668 
L 261.381818 261.718286 
L 265.890909 263.967394 
L 270.4 265.116938 
L 274.909091 263.517572 
L 279.418182 254.521142 
L 283.927273 262.368029 
L 288.436364 263.367632 
L 292.945455 244.325188 
L 297.454545 259.119318 
L 301.963636 271.964221 
L 306.472727 254.371202 
L 310.981818 250.072908 
L 315.490909 269.915034 
L 320 234.029274 
L 324.509091 246.524316 
L 329.018182 255.620706 
L 333.527273 257.270052 
L 338.036364 266.116541 
L 342.545455 272.613963 
L 347.054545 272.214121 
L 351.563636 256.020547 
L 356.072727 267.366045 
L 360.581818 266.116541 
L 365.090909 265.416819 
L 369.6 274.213328 
L 374.109091 289.607219 
L 378.618182 268.515589 
L 383.127273 256.470369 
L 387.636364 252.671876 
L 392.145455 284.959064 
L 396.654545 292.156208 
L 401.163636 286.85831 
L 405.672727 259.86902 
L 410.181818 286.90829 
L 414.690909 300.302975 
L 419.2 277.262118 
L 423.709091 274.513209 
L 428.218182 285.958667 
L 432.727273 290.756763 
L 437.236364 294.055454 
L 441.745455 291.206585 
L 446.254545 276.012614 
L 450.763636 301.152638 
L 455.272727 275.612773 
L 459.781818 290.057041 
L 464.290909 284.759143 
L 468.8 292.90591 
L 473.309091 295.75478 
L 477.818182 288.307735 
L 482.327273 279.061404 
L 486.836364 271.964221 
L 491.345455 279.011424 
L 495.854545 277.91186 
L 500.363636 290.706783 
L 504.872727 281.610393 
L 509.381818 297.404125 
L 513.890909 279.211345 
L 518.4 303.651646 
" clip-path="url(#pab04f9238c)" style="fill: none; stroke: #9467bd; stroke-width: 1.5; stroke-linecap: square"/>
   </g>
   <g id="line2d_17">
    <path d="M 72 174.552876 
L 76.509091 188.597303 
L 81.018182 201.392225 
L 85.527273 219.285125 
L 90.036364 219.285125 
L 94.545455 243.375565 
L 99.054545 224.233161 
L 103.563636 220.93447 
L 108.072727 229.431099 
L 112.581818 219.734946 
L 117.090909 243.475526 
L 121.6 253.221658 
L 126.109091 243.925347 
L 130.618182 237.577866 
L 135.127273 245.324792 
L 139.636364 242.775803 
L 144.145455 240.976517 
L 148.654545 226.532249 
L 153.163636 249.972947 
L 157.672727 230.180801 
L 162.181818 249.023324 
L 166.690909 262.068148 
L 171.2 267.515986 
L 175.709091 243.075684 
L 180.218182 263.517572 
L 184.727273 242.625863 
L 189.236364 266.516382 
L 193.745455 243.275605 
L 198.254545 258.819437 
L 202.763636 263.167711 
L 207.272727 270.614756 
L 211.781818 254.970964 
L 216.290909 256.220468 
L 220.8 244.275208 
L 225.309091 259.319238 
L 229.818182 248.123681 
L 234.327273 272.214121 
L 238.836364 252.921777 
L 243.345455 262.068148 
L 247.854545 269.115351 
L 252.363636 271.114558 
L 256.872727 261.868227 
L 261.381818 272.763903 
L 265.890909 270.214915 
L 270.4 270.264895 
L 274.909091 263.417612 
L 279.418182 266.566363 
L 283.927273 256.67029 
L 288.436364 262.368029 
L 292.945455 253.421579 
L 297.454545 263.017771 
L 301.963636 281.910274 
L 306.472727 251.322412 
L 310.981818 254.171281 
L 315.490909 269.715113 
L 320 242.975724 
L 324.509091 253.321618 
L 329.018182 256.82023 
L 333.527273 253.971361 
L 338.036364 260.618723 
L 342.545455 275.512812 
L 347.054545 271.314478 
L 351.563636 257.819833 
L 356.072727 269.665133 
L 360.581818 270.914637 
L 365.090909 262.86783 
L 369.6 267.715906 
L 374.109091 288.657596 
L 378.618182 268.415629 
L 383.127273 261.018564 
L 387.636364 263.667513 
L 392.145455 294.605236 
L 396.654545 298.053868 
L 401.163636 283.309718 
L 405.672727 268.415629 
L 410.181818 286.208568 
L 414.690909 279.211345 
L 419.2 279.211345 
L 423.709091 269.665133 
L 428.218182 279.261325 
L 432.727273 286.008647 
L 437.236364 292.056248 
L 441.745455 278.861484 
L 446.254545 271.66434 
L 450.763636 296.804363 
L 455.272727 272.514002 
L 459.781818 302.652043 
L 464.290909 282.510036 
L 468.8 287.807933 
L 473.309091 303.701626 
L 477.818182 277.462039 
L 482.327273 277.561999 
L 486.836364 266.816263 
L 491.345455 273.763507 
L 495.854545 282.310115 
L 500.363636 287.008251 
L 504.872727 271.71432 
L 509.381818 293.555653 
L 513.890909 277.362079 
L 518.4 290.356922 
" clip-path="url(#pab04f9238c)" style="fill: none; stroke: #8c564b; stroke-width: 1.5; stroke-linecap: square"/>
   </g>
   <g id="line2d_18">
    <path d="M 72 112.027687 
L 76.509091 175.302578 
L 81.018182 189.396985 
L 85.527273 201.692106 
L 90.036364 200.142721 
L 94.545455 232.529869 
L 99.054545 196.494169 
L 103.563636 194.594923 
L 108.072727 215.786513 
L 112.581818 213.937247 
L 117.090909 230.380722 
L 121.6 220.034827 
L 126.109091 226.632209 
L 130.618182 234.229195 
L 135.127273 218.035621 
L 139.636364 208.989211 
L 144.145455 217.285918 
L 148.654545 207.889647 
L 153.163636 212.887664 
L 157.672727 230.230781 
L 162.181818 229.78096 
L 166.690909 215.736533 
L 171.2 225.582626 
L 175.709091 201.342245 
L 180.218182 236.728203 
L 184.727273 196.89401 
L 189.236364 231.580246 
L 193.745455 225.432685 
L 198.254545 241.226418 
L 202.763636 235.628639 
L 207.272727 245.374772 
L 211.781818 240.676636 
L 216.290909 235.978501 
L 220.8 238.67743 
L 225.309091 237.377945 
L 229.818182 230.880524 
L 234.327273 246.774217 
L 238.836364 243.575486 
L 243.345455 244.325188 
L 247.854545 238.67743 
L 252.363636 251.622293 
L 256.872727 250.77263 
L 261.381818 249.623086 
L 265.890909 246.524316 
L 270.4 245.074891 
L 274.909091 240.726616 
L 279.418182 233.929314 
L 283.927273 237.677826 
L 288.436364 230.630623 
L 292.945455 230.730583 
L 297.454545 255.270845 
L 301.963636 264.467196 
L 306.472727 251.322412 
L 310.981818 230.530662 
L 315.490909 260.418802 
L 320 222.233955 
L 324.509091 242.825783 
L 329.018182 242.325982 
L 333.527273 231.980087 
L 338.036364 243.925347 
L 342.545455 259.069338 
L 347.054545 244.075288 
L 351.563636 248.023721 
L 356.072727 247.423959 
L 360.581818 252.371995 
L 365.090909 254.171281 
L 369.6 253.521539 
L 374.109091 276.012614 
L 378.618182 253.67148 
L 383.127273 239.177231 
L 387.636364 238.227608 
L 392.145455 268.315668 
L 396.654545 288.657596 
L 401.163636 269.865054 
L 405.672727 266.616343 
L 410.181818 276.612376 
L 414.690909 290.906704 
L 419.2 264.317255 
L 423.709091 264.817057 
L 428.218182 267.016184 
L 432.727273 264.917017 
L 437.236364 279.811107 
L 441.745455 284.009441 
L 446.254545 263.067751 
L 450.763636 297.204205 
L 455.272727 272.364062 
L 459.781818 294.805157 
L 464.290909 276.762317 
L 468.8 275.812693 
L 473.309091 289.407299 
L 477.818182 280.66077 
L 482.327273 269.965014 
L 486.836364 267.266085 
L 491.345455 263.617533 
L 495.854545 279.161365 
L 500.363636 288.357715 
L 504.872727 276.312495 
L 509.381818 291.256565 
L 513.890909 274.013407 
L 518.4 286.058628 
" clip-path="url(#pab04f9238c)" style="fill: none; stroke: #e377c2; stroke-width: 1.5; stroke-linecap: square"/>
   </g>
   <g id="line2d_19">
    <path d="M 72 142.965411 
L 76.509091 172.103848 
L 81.018182 171.404125 
L 85.527273 214.237128 
L 90.036364 213.187545 
L 94.545455 235.77858 
L 99.054545 225.332725 
L 103.563636 218.785323 
L 108.072727 222.683776 
L 112.581818 230.130821 
L 117.090909 256.520349 
L 121.6 235.978501 
L 126.109091 237.927727 
L 130.618182 223.333518 
L 135.127273 242.276002 
L 139.636364 234.479096 
L 144.145455 177.901547 
L 148.654545 188.897184 
L 153.163636 244.425149 
L 157.672727 222.483856 
L 162.181818 240.926537 
L 166.690909 250.972551 
L 171.2 258.469576 
L 175.709091 239.327172 
L 180.218182 256.370409 
L 184.727273 244.025307 
L 189.236364 254.371202 
L 193.745455 246.724236 
L 198.254545 237.128044 
L 202.763636 247.973741 
L 207.272727 266.416422 
L 211.781818 243.925347 
L 216.290909 247.423959 
L 220.8 233.929314 
L 225.309091 259.569139 
L 229.818182 246.374375 
L 234.327273 263.267672 
L 238.836364 232.130028 
L 243.345455 250.222848 
L 247.854545 263.317652 
L 252.363636 267.765887 
L 256.872727 260.568743 
L 261.381818 268.015787 
L 265.890909 269.665133 
L 270.4 268.215708 
L 274.909091 257.619913 
L 279.418182 265.7167 
L 283.927273 254.871004 
L 288.436364 264.167315 
L 292.945455 245.474732 
L 297.454545 260.718683 
L 301.963636 279.011424 
L 306.472727 255.220865 
L 310.981818 252.421975 
L 315.490909 267.416025 
L 320 249.673066 
L 324.509091 255.270845 
L 329.018182 257.120111 
L 333.527273 257.869814 
L 338.036364 259.86902 
L 342.545455 276.662356 
L 347.054545 270.814677 
L 351.563636 264.867037 
L 356.072727 274.963031 
L 360.581818 265.066958 
L 365.090909 275.013011 
L 369.6 267.216105 
L 374.109091 287.707973 
L 378.618182 275.712733 
L 383.127273 261.618326 
L 387.636364 262.81785 
L 392.145455 289.607219 
L 396.654545 300.203015 
L 401.163636 289.507259 
L 405.672727 276.312495 
L 410.181818 292.506069 
L 414.690909 301.202618 
L 419.2 281.210551 
L 423.709091 277.561999 
L 428.218182 281.510432 
L 432.727273 287.608013 
L 437.236364 299.003491 
L 441.745455 290.007061 
L 446.254545 280.310908 
L 450.763636 302.202221 
L 455.272727 279.011424 
L 459.781818 303.001904 
L 464.290909 285.758747 
L 468.8 295.65482 
L 473.309091 307.8 
L 477.818182 283.159778 
L 482.327273 282.859897 
L 486.836364 275.112971 
L 491.345455 282.110194 
L 495.854545 287.907894 
L 500.363636 297.803967 
L 504.872727 276.212535 
L 509.381818 301.502499 
L 513.890909 294.355335 
L 518.4 295.85474 
" clip-path="url(#pab04f9238c)" style="fill: none; stroke: #7f7f7f; stroke-width: 1.5; stroke-linecap: square"/>
   </g>
   <g id="patch_3">
    <path d="M 72 320.4 
L 72 43.2 
" style="fill: none; stroke: #000000; stroke-width: 0.8; stroke-linejoin: miter; stroke-linecap: square"/>
   </g>
   <g id="patch_4">
    <path d="M 518.4 320.4 
L 518.4 43.2 
" style="fill: none; stroke: #000000; stroke-width: 0.8; stroke-linejoin: miter; stroke-linecap: square"/>
   </g>
   <g id="patch_5">
    <path d="M 72 320.4 
L 518.4 320.4 
" style="fill: none; stroke: #000000; stroke-width: 0.8; stroke-linejoin: miter; stroke-linecap: square"/>
   </g>
   <g id="patch_6">
    <path d="M 72 43.2 
L 518.4 43.2 
" style="fill: none; stroke: #000000; stroke-width: 0.8; stroke-linejoin: miter; stroke-linecap: square"/>
   </g>
   <g id="text_14">
    <!-- H3K4me2 -->
    <g transform="translate(265.764375 37.2) scale(0.12 -0.12)">
     <defs>
      <path id="DejaVuSans-48" d="M 628 4666 
L 1259 4666 
L 1259 2753 
L 3553 2753 
L 3553 4666 
L 4184 4666 
L 4184 0 
L 3553 0 
L 3553 2222 
L 1259 2222 
L 1259 0 
L 628 0 
L 628 4666 
z
" transform="scale(0.015625)"/>
      <path id="DejaVuSans-33" d="M 2597 2516 
Q 3050 2419 3304 2112 
Q 3559 1806 3559 1356 
Q 3559 666 3084 287 
Q 2609 -91 1734 -91 
Q 1441 -91 1130 -33 
Q 819 25 488 141 
L 488 750 
Q 750 597 1062 519 
Q 1375 441 1716 441 
Q 2309 441 2620 675 
Q 2931 909 2931 1356 
Q 2931 1769 2642 2001 
Q 2353 2234 1838 2234 
L 1294 2234 
L 1294 2753 
L 1863 2753 
Q 2328 2753 2575 2939 
Q 2822 3125 2822 3475 
Q 2822 3834 2567 4026 
Q 2313 4219 1838 4219 
Q 1578 4219 1281 4162 
Q 984 4106 628 3988 
L 628 4550 
Q 988 4650 1302 4700 
Q 1616 4750 1894 4750 
Q 2613 4750 3031 4423 
Q 3450 4097 3450 3541 
Q 3450 3153 3228 2886 
Q 3006 2619 2597 2516 
z
" transform="scale(0.015625)"/>
      <path id="DejaVuSans-4b" d="M 628 4666 
L 1259 4666 
L 1259 2694 
L 3353 4666 
L 4166 4666 
L 1850 2491 
L 4331 0 
L 3500 0 
L 1259 2247 
L 1259 0 
L 628 0 
L 628 4666 
z
" transform="scale(0.015625)"/>
      <path id="DejaVuSans-6d" d="M 3328 2828 
Q 3544 3216 3844 3400 
Q 4144 3584 4550 3584 
Q 5097 3584 5394 3201 
Q 5691 2819 5691 2113 
L 5691 0 
L 5113 0 
L 5113 2094 
Q 5113 2597 4934 2840 
Q 4756 3084 4391 3084 
Q 3944 3084 3684 2787 
Q 3425 2491 3425 1978 
L 3425 0 
L 2847 0 
L 2847 2094 
Q 2847 2600 2669 2842 
Q 2491 3084 2119 3084 
Q 1678 3084 1418 2786 
Q 1159 2488 1159 1978 
L 1159 0 
L 581 0 
L 581 3500 
L 1159 3500 
L 1159 2956 
Q 1356 3278 1631 3431 
Q 1906 3584 2284 3584 
Q 2666 3584 2933 3390 
Q 3200 3197 3328 2828 
z
" transform="scale(0.015625)"/>
     </defs>
     <use xlink:href="#DejaVuSans-48"/>
     <use xlink:href="#DejaVuSans-33" transform="translate(75.195312 0)"/>
     <use xlink:href="#DejaVuSans-4b" transform="translate(138.818359 0)"/>
     <use xlink:href="#DejaVuSans-34" transform="translate(204.394531 0)"/>
     <use xlink:href="#DejaVuSans-6d" transform="translate(268.017578 0)"/>
     <use xlink:href="#DejaVuSans-65" transform="translate(365.429688 0)"/>
     <use xlink:href="#DejaVuSans-32" transform="translate(426.953125 0)"/>
    </g>
   </g>
   <g id="legend_1">
    <g id="patch_7">
     <path d="M 334.210684 147.679025 
L 512.569 147.679025 
Q 514.235 147.679025 514.235 146.013025 
L 514.235 49.031 
Q 514.235 47.365 512.569 47.365 
L 334.210684 47.365 
Q 332.544684 47.365 332.544684 49.031 
L 332.544684 146.013025 
Q 332.544684 147.679025 334.210684 147.679025 
z
" style="fill: #ffffff; opacity: 0.8; stroke: #cccccc; stroke-linejoin: miter"/>
    </g>
    <g id="line2d_20">
     <path d="M 335.876684 54.110998 
L 344.206684 54.110998 
L 352.536684 54.110998 
" style="fill: none; stroke: #1f77b4; stroke-width: 1.5; stroke-linecap: square"/>
    </g>
    <g id="text_15">
     <!-- NT-MS V2 (50M) with rand. weights -->
     <g transform="translate(359.200684 57.026498) scale(0.0833 -0.0833)">
      <defs>
       <path id="DejaVuSans-4e" d="M 628 4666 
L 1478 4666 
L 3547 763 
L 3547 4666 
L 4159 4666 
L 4159 0 
L 3309 0 
L 1241 3903 
L 1241 0 
L 628 0 
L 628 4666 
z
" transform="scale(0.015625)"/>
       <path id="DejaVuSans-2d" d="M 313 2009 
L 1997 2009 
L 1997 1497 
L 313 1497 
L 313 2009 
z
" transform="scale(0.015625)"/>
       <path id="DejaVuSans-4d" d="M 628 4666 
L 1569 4666 
L 2759 1491 
L 3956 4666 
L 4897 4666 
L 4897 0 
L 4281 0 
L 4281 4097 
L 3078 897 
L 2444 897 
L 1241 4097 
L 1241 0 
L 628 0 
L 628 4666 
z
" transform="scale(0.015625)"/>
       <path id="DejaVuSans-53" d="M 3425 4513 
L 3425 3897 
Q 3066 4069 2747 4153 
Q 2428 4238 2131 4238 
Q 1616 4238 1336 4038 
Q 1056 3838 1056 3469 
Q 1056 3159 1242 3001 
Q 1428 2844 1947 2747 
L 2328 2669 
Q 3034 2534 3370 2195 
Q 3706 1856 3706 1288 
Q 3706 609 3251 259 
Q 2797 -91 1919 -91 
Q 1588 -91 1214 -16 
Q 841 59 441 206 
L 441 856 
Q 825 641 1194 531 
Q 1563 422 1919 422 
Q 2459 422 2753 634 
Q 3047 847 3047 1241 
Q 3047 1584 2836 1778 
Q 2625 1972 2144 2069 
L 1759 2144 
Q 1053 2284 737 2584 
Q 422 2884 422 3419 
Q 422 4038 858 4394 
Q 1294 4750 2059 4750 
Q 2388 4750 2728 4690 
Q 3069 4631 3425 4513 
z
" transform="scale(0.015625)"/>
       <path id="DejaVuSans-56" d="M 1831 0 
L 50 4666 
L 709 4666 
L 2188 738 
L 3669 4666 
L 4325 4666 
L 2547 0 
L 1831 0 
z
" transform="scale(0.015625)"/>
       <path id="DejaVuSans-28" d="M 1984 4856 
Q 1566 4138 1362 3434 
Q 1159 2731 1159 2009 
Q 1159 1288 1364 580 
Q 1569 -128 1984 -844 
L 1484 -844 
Q 1016 -109 783 600 
Q 550 1309 550 2009 
Q 550 2706 781 3412 
Q 1013 4119 1484 4856 
L 1984 4856 
z
" transform="scale(0.015625)"/>
       <path id="DejaVuSans-29" d="M 513 4856 
L 1013 4856 
Q 1481 4119 1714 3412 
Q 1947 2706 1947 2009 
Q 1947 1309 1714 600 
Q 1481 -109 1013 -844 
L 513 -844 
Q 928 -128 1133 580 
Q 1338 1288 1338 2009 
Q 1338 2731 1133 3434 
Q 928 4138 513 4856 
z
" transform="scale(0.015625)"/>
       <path id="DejaVuSans-77" d="M 269 3500 
L 844 3500 
L 1563 769 
L 2278 3500 
L 2956 3500 
L 3675 769 
L 4391 3500 
L 4966 3500 
L 4050 0 
L 3372 0 
L 2619 2869 
L 1863 0 
L 1184 0 
L 269 3500 
z
" transform="scale(0.015625)"/>
       <path id="DejaVuSans-68" d="M 3513 2113 
L 3513 0 
L 2938 0 
L 2938 2094 
Q 2938 2591 2744 2837 
Q 2550 3084 2163 3084 
Q 1697 3084 1428 2787 
Q 1159 2491 1159 1978 
L 1159 0 
L 581 0 
L 581 4863 
L 1159 4863 
L 1159 2956 
Q 1366 3272 1645 3428 
Q 1925 3584 2291 3584 
Q 2894 3584 3203 3211 
Q 3513 2838 3513 2113 
z
" transform="scale(0.015625)"/>
       <path id="DejaVuSans-64" d="M 2906 2969 
L 2906 4863 
L 3481 4863 
L 3481 0 
L 2906 0 
L 2906 525 
Q 2725 213 2448 61 
Q 2172 -91 1784 -91 
Q 1150 -91 751 415 
Q 353 922 353 1747 
Q 353 2572 751 3078 
Q 1150 3584 1784 3584 
Q 2172 3584 2448 3432 
Q 2725 3281 2906 2969 
z
M 947 1747 
Q 947 1113 1208 752 
Q 1469 391 1925 391 
Q 2381 391 2643 752 
Q 2906 1113 2906 1747 
Q 2906 2381 2643 2742 
Q 2381 3103 1925 3103 
Q 1469 3103 1208 2742 
Q 947 2381 947 1747 
z
" transform="scale(0.015625)"/>
      </defs>
      <use xlink:href="#DejaVuSans-4e"/>
      <use xlink:href="#DejaVuSans-54" transform="translate(74.804688 0)"/>
      <use xlink:href="#DejaVuSans-2d" transform="translate(126.763672 0)"/>
      <use xlink:href="#DejaVuSans-4d" transform="translate(162.847656 0)"/>
      <use xlink:href="#DejaVuSans-53" transform="translate(249.126953 0)"/>
      <use xlink:href="#DejaVuSans-20" transform="translate(312.603516 0)"/>
      <use xlink:href="#DejaVuSans-56" transform="translate(344.390625 0)"/>
      <use xlink:href="#DejaVuSans-32" transform="translate(412.798828 0)"/>
      <use xlink:href="#DejaVuSans-20" transform="translate(476.421875 0)"/>
      <use xlink:href="#DejaVuSans-28" transform="translate(508.208984 0)"/>
      <use xlink:href="#DejaVuSans-35" transform="translate(547.222656 0)"/>
      <use xlink:href="#DejaVuSans-30" transform="translate(610.845703 0)"/>
      <use xlink:href="#DejaVuSans-4d" transform="translate(674.46875 0)"/>
      <use xlink:href="#DejaVuSans-29" transform="translate(760.748047 0)"/>
      <use xlink:href="#DejaVuSans-20" transform="translate(799.761719 0)"/>
      <use xlink:href="#DejaVuSans-77" transform="translate(831.548828 0)"/>
      <use xlink:href="#DejaVuSans-69" transform="translate(913.335938 0)"/>
      <use xlink:href="#DejaVuSans-74" transform="translate(941.119141 0)"/>
      <use xlink:href="#DejaVuSans-68" transform="translate(980.328125 0)"/>
      <use xlink:href="#DejaVuSans-20" transform="translate(1043.707031 0)"/>
      <use xlink:href="#DejaVuSans-72" transform="translate(1075.494141 0)"/>
      <use xlink:href="#DejaVuSans-61" transform="translate(1116.607422 0)"/>
      <use xlink:href="#DejaVuSans-6e" transform="translate(1177.886719 0)"/>
      <use xlink:href="#DejaVuSans-64" transform="translate(1241.265625 0)"/>
      <use xlink:href="#DejaVuSans-2e" transform="translate(1304.742188 0)"/>
      <use xlink:href="#DejaVuSans-20" transform="translate(1336.529297 0)"/>
      <use xlink:href="#DejaVuSans-77" transform="translate(1368.316406 0)"/>
      <use xlink:href="#DejaVuSans-65" transform="translate(1450.103516 0)"/>
      <use xlink:href="#DejaVuSans-69" transform="translate(1511.626953 0)"/>
      <use xlink:href="#DejaVuSans-67" transform="translate(1539.410156 0)"/>
      <use xlink:href="#DejaVuSans-68" transform="translate(1602.886719 0)"/>
      <use xlink:href="#DejaVuSans-74" transform="translate(1666.265625 0)"/>
      <use xlink:href="#DejaVuSans-73" transform="translate(1705.474609 0)"/>
     </g>
    </g>
    <g id="line2d_21">
     <path d="M 335.876684 66.337877 
L 344.206684 66.337877 
L 352.536684 66.337877 
" style="fill: none; stroke: #ff7f0e; stroke-width: 1.5; stroke-linecap: square"/>
    </g>
    <g id="text_16">
     <!-- NT-MS V2 (500M) with rand. weights -->
     <g transform="translate(359.200684 69.253377) scale(0.0833 -0.0833)">
      <use xlink:href="#DejaVuSans-4e"/>
      <use xlink:href="#DejaVuSans-54" transform="translate(74.804688 0)"/>
      <use xlink:href="#DejaVuSans-2d" transform="translate(126.763672 0)"/>
      <use xlink:href="#DejaVuSans-4d" transform="translate(162.847656 0)"/>
      <use xlink:href="#DejaVuSans-53" transform="translate(249.126953 0)"/>
      <use xlink:href="#DejaVuSans-20" transform="translate(312.603516 0)"/>
      <use xlink:href="#DejaVuSans-56" transform="translate(344.390625 0)"/>
      <use xlink:href="#DejaVuSans-32" transform="translate(412.798828 0)"/>
      <use xlink:href="#DejaVuSans-20" transform="translate(476.421875 0)"/>
      <use xlink:href="#DejaVuSans-28" transform="translate(508.208984 0)"/>
      <use xlink:href="#DejaVuSans-35" transform="translate(547.222656 0)"/>
      <use xlink:href="#DejaVuSans-30" transform="translate(610.845703 0)"/>
      <use xlink:href="#DejaVuSans-30" transform="translate(674.46875 0)"/>
      <use xlink:href="#DejaVuSans-4d" transform="translate(738.091797 0)"/>
      <use xlink:href="#DejaVuSans-29" transform="translate(824.371094 0)"/>
      <use xlink:href="#DejaVuSans-20" transform="translate(863.384766 0)"/>
      <use xlink:href="#DejaVuSans-77" transform="translate(895.171875 0)"/>
      <use xlink:href="#DejaVuSans-69" transform="translate(976.958984 0)"/>
      <use xlink:href="#DejaVuSans-74" transform="translate(1004.742188 0)"/>
      <use xlink:href="#DejaVuSans-68" transform="translate(1043.951172 0)"/>
      <use xlink:href="#DejaVuSans-20" transform="translate(1107.330078 0)"/>
      <use xlink:href="#DejaVuSans-72" transform="translate(1139.117188 0)"/>
      <use xlink:href="#DejaVuSans-61" transform="translate(1180.230469 0)"/>
      <use xlink:href="#DejaVuSans-6e" transform="translate(1241.509766 0)"/>
      <use xlink:href="#DejaVuSans-64" transform="translate(1304.888672 0)"/>
      <use xlink:href="#DejaVuSans-2e" transform="translate(1368.365234 0)"/>
      <use xlink:href="#DejaVuSans-20" transform="translate(1400.152344 0)"/>
      <use xlink:href="#DejaVuSans-77" transform="translate(1431.939453 0)"/>
      <use xlink:href="#DejaVuSans-65" transform="translate(1513.726562 0)"/>
      <use xlink:href="#DejaVuSans-69" transform="translate(1575.25 0)"/>
      <use xlink:href="#DejaVuSans-67" transform="translate(1603.033203 0)"/>
      <use xlink:href="#DejaVuSans-68" transform="translate(1666.509766 0)"/>
      <use xlink:href="#DejaVuSans-74" transform="translate(1729.888672 0)"/>
      <use xlink:href="#DejaVuSans-73" transform="translate(1769.097656 0)"/>
     </g>
    </g>
    <g id="line2d_22">
     <path d="M 335.876684 78.564755 
L 344.206684 78.564755 
L 352.536684 78.564755 
" style="fill: none; stroke: #2ca02c; stroke-width: 1.5; stroke-linecap: square"/>
    </g>
    <g id="text_17">
     <!-- NT-MS V2 (50M) -->
     <g transform="translate(359.200684 81.480255) scale(0.0833 -0.0833)">
      <use xlink:href="#DejaVuSans-4e"/>
      <use xlink:href="#DejaVuSans-54" transform="translate(74.804688 0)"/>
      <use xlink:href="#DejaVuSans-2d" transform="translate(126.763672 0)"/>
      <use xlink:href="#DejaVuSans-4d" transform="translate(162.847656 0)"/>
      <use xlink:href="#DejaVuSans-53" transform="translate(249.126953 0)"/>
      <use xlink:href="#DejaVuSans-20" transform="translate(312.603516 0)"/>
      <use xlink:href="#DejaVuSans-56" transform="translate(344.390625 0)"/>
      <use xlink:href="#DejaVuSans-32" transform="translate(412.798828 0)"/>
      <use xlink:href="#DejaVuSans-20" transform="translate(476.421875 0)"/>
      <use xlink:href="#DejaVuSans-28" transform="translate(508.208984 0)"/>
      <use xlink:href="#DejaVuSans-35" transform="translate(547.222656 0)"/>
      <use xlink:href="#DejaVuSans-30" transform="translate(610.845703 0)"/>
      <use xlink:href="#DejaVuSans-4d" transform="translate(674.46875 0)"/>
      <use xlink:href="#DejaVuSans-29" transform="translate(760.748047 0)"/>
     </g>
    </g>
    <g id="line2d_23">
     <path d="M 335.876684 90.791633 
L 344.206684 90.791633 
L 352.536684 90.791633 
" style="fill: none; stroke: #d62728; stroke-width: 1.5; stroke-linecap: square"/>
    </g>
    <g id="text_18">
     <!-- NT-1000g (500M) -->
     <g transform="translate(359.200684 93.707133) scale(0.0833 -0.0833)">
      <use xlink:href="#DejaVuSans-4e"/>
      <use xlink:href="#DejaVuSans-54" transform="translate(74.804688 0)"/>
      <use xlink:href="#DejaVuSans-2d" transform="translate(126.763672 0)"/>
      <use xlink:href="#DejaVuSans-31" transform="translate(162.847656 0)"/>
      <use xlink:href="#DejaVuSans-30" transform="translate(226.470703 0)"/>
      <use xlink:href="#DejaVuSans-30" transform="translate(290.09375 0)"/>
      <use xlink:href="#DejaVuSans-30" transform="translate(353.716797 0)"/>
      <use xlink:href="#DejaVuSans-67" transform="translate(417.339844 0)"/>
      <use xlink:href="#DejaVuSans-20" transform="translate(480.816406 0)"/>
      <use xlink:href="#DejaVuSans-28" transform="translate(512.603516 0)"/>
      <use xlink:href="#DejaVuSans-35" transform="translate(551.617188 0)"/>
      <use xlink:href="#DejaVuSans-30" transform="translate(615.240234 0)"/>
      <use xlink:href="#DejaVuSans-30" transform="translate(678.863281 0)"/>
      <use xlink:href="#DejaVuSans-4d" transform="translate(742.486328 0)"/>
      <use xlink:href="#DejaVuSans-29" transform="translate(828.765625 0)"/>
     </g>
    </g>
    <g id="line2d_24">
     <path d="M 335.876684 103.018511 
L 344.206684 103.018511 
L 352.536684 103.018511 
" style="fill: none; stroke: #9467bd; stroke-width: 1.5; stroke-linecap: square"/>
    </g>
    <g id="text_19">
     <!-- NT-MS V2 (250M) -->
     <g transform="translate(359.200684 105.934011) scale(0.0833 -0.0833)">
      <use xlink:href="#DejaVuSans-4e"/>
      <use xlink:href="#DejaVuSans-54" transform="translate(74.804688 0)"/>
      <use xlink:href="#DejaVuSans-2d" transform="translate(126.763672 0)"/>
      <use xlink:href="#DejaVuSans-4d" transform="translate(162.847656 0)"/>
      <use xlink:href="#DejaVuSans-53" transform="translate(249.126953 0)"/>
      <use xlink:href="#DejaVuSans-20" transform="translate(312.603516 0)"/>
      <use xlink:href="#DejaVuSans-56" transform="translate(344.390625 0)"/>
      <use xlink:href="#DejaVuSans-32" transform="translate(412.798828 0)"/>
      <use xlink:href="#DejaVuSans-20" transform="translate(476.421875 0)"/>
      <use xlink:href="#DejaVuSans-28" transform="translate(508.208984 0)"/>
      <use xlink:href="#DejaVuSans-32" transform="translate(547.222656 0)"/>
      <use xlink:href="#DejaVuSans-35" transform="translate(610.845703 0)"/>
      <use xlink:href="#DejaVuSans-30" transform="translate(674.46875 0)"/>
      <use xlink:href="#DejaVuSans-4d" transform="translate(738.091797 0)"/>
      <use xlink:href="#DejaVuSans-29" transform="translate(824.371094 0)"/>
     </g>
    </g>
    <g id="line2d_25">
     <path d="M 335.876684 115.245389 
L 344.206684 115.245389 
L 352.536684 115.245389 
" style="fill: none; stroke: #8c564b; stroke-width: 1.5; stroke-linecap: square"/>
    </g>
    <g id="text_20">
     <!-- NT-MS V2 (100M) -->
     <g transform="translate(359.200684 118.160889) scale(0.0833 -0.0833)">
      <use xlink:href="#DejaVuSans-4e"/>
      <use xlink:href="#DejaVuSans-54" transform="translate(74.804688 0)"/>
      <use xlink:href="#DejaVuSans-2d" transform="translate(126.763672 0)"/>
      <use xlink:href="#DejaVuSans-4d" transform="translate(162.847656 0)"/>
      <use xlink:href="#DejaVuSans-53" transform="translate(249.126953 0)"/>
      <use xlink:href="#DejaVuSans-20" transform="translate(312.603516 0)"/>
      <use xlink:href="#DejaVuSans-56" transform="translate(344.390625 0)"/>
      <use xlink:href="#DejaVuSans-32" transform="translate(412.798828 0)"/>
      <use xlink:href="#DejaVuSans-20" transform="translate(476.421875 0)"/>
      <use xlink:href="#DejaVuSans-28" transform="translate(508.208984 0)"/>
      <use xlink:href="#DejaVuSans-31" transform="translate(547.222656 0)"/>
      <use xlink:href="#DejaVuSans-30" transform="translate(610.845703 0)"/>
      <use xlink:href="#DejaVuSans-30" transform="translate(674.46875 0)"/>
      <use xlink:href="#DejaVuSans-4d" transform="translate(738.091797 0)"/>
      <use xlink:href="#DejaVuSans-29" transform="translate(824.371094 0)"/>
     </g>
    </g>
    <g id="line2d_26">
     <path d="M 335.876684 127.472267 
L 344.206684 127.472267 
L 352.536684 127.472267 
" style="fill: none; stroke: #e377c2; stroke-width: 1.5; stroke-linecap: square"/>
    </g>
    <g id="text_21">
     <!-- NT-Human-Ref. (500M) -->
     <g transform="translate(359.200684 130.387767) scale(0.0833 -0.0833)">
      <defs>
       <path id="DejaVuSans-75" d="M 544 1381 
L 544 3500 
L 1119 3500 
L 1119 1403 
Q 1119 906 1312 657 
Q 1506 409 1894 409 
Q 2359 409 2629 706 
Q 2900 1003 2900 1516 
L 2900 3500 
L 3475 3500 
L 3475 0 
L 2900 0 
L 2900 538 
Q 2691 219 2414 64 
Q 2138 -91 1772 -91 
Q 1169 -91 856 284 
Q 544 659 544 1381 
z
M 1991 3584 
L 1991 3584 
z
" transform="scale(0.015625)"/>
       <path id="DejaVuSans-52" d="M 2841 2188 
Q 3044 2119 3236 1894 
Q 3428 1669 3622 1275 
L 4263 0 
L 3584 0 
L 2988 1197 
Q 2756 1666 2539 1819 
Q 2322 1972 1947 1972 
L 1259 1972 
L 1259 0 
L 628 0 
L 628 4666 
L 2053 4666 
Q 2853 4666 3247 4331 
Q 3641 3997 3641 3322 
Q 3641 2881 3436 2590 
Q 3231 2300 2841 2188 
z
M 1259 4147 
L 1259 2491 
L 2053 2491 
Q 2509 2491 2742 2702 
Q 2975 2913 2975 3322 
Q 2975 3731 2742 3939 
Q 2509 4147 2053 4147 
L 1259 4147 
z
" transform="scale(0.015625)"/>
       <path id="DejaVuSans-66" d="M 2375 4863 
L 2375 4384 
L 1825 4384 
Q 1516 4384 1395 4259 
Q 1275 4134 1275 3809 
L 1275 3500 
L 2222 3500 
L 2222 3053 
L 1275 3053 
L 1275 0 
L 697 0 
L 697 3053 
L 147 3053 
L 147 3500 
L 697 3500 
L 697 3744 
Q 697 4328 969 4595 
Q 1241 4863 1831 4863 
L 2375 4863 
z
" transform="scale(0.015625)"/>
      </defs>
      <use xlink:href="#DejaVuSans-4e"/>
      <use xlink:href="#DejaVuSans-54" transform="translate(74.804688 0)"/>
      <use xlink:href="#DejaVuSans-2d" transform="translate(126.763672 0)"/>
      <use xlink:href="#DejaVuSans-48" transform="translate(162.847656 0)"/>
      <use xlink:href="#DejaVuSans-75" transform="translate(238.042969 0)"/>
      <use xlink:href="#DejaVuSans-6d" transform="translate(301.421875 0)"/>
      <use xlink:href="#DejaVuSans-61" transform="translate(398.833984 0)"/>
      <use xlink:href="#DejaVuSans-6e" transform="translate(460.113281 0)"/>
      <use xlink:href="#DejaVuSans-2d" transform="translate(523.492188 0)"/>
      <use xlink:href="#DejaVuSans-52" transform="translate(559.576172 0)"/>
      <use xlink:href="#DejaVuSans-65" transform="translate(624.558594 0)"/>
      <use xlink:href="#DejaVuSans-66" transform="translate(686.082031 0)"/>
      <use xlink:href="#DejaVuSans-2e" transform="translate(714.037109 0)"/>
      <use xlink:href="#DejaVuSans-20" transform="translate(745.824219 0)"/>
      <use xlink:href="#DejaVuSans-28" transform="translate(777.611328 0)"/>
      <use xlink:href="#DejaVuSans-35" transform="translate(816.625 0)"/>
      <use xlink:href="#DejaVuSans-30" transform="translate(880.248047 0)"/>
      <use xlink:href="#DejaVuSans-30" transform="translate(943.871094 0)"/>
      <use xlink:href="#DejaVuSans-4d" transform="translate(1007.494141 0)"/>
      <use xlink:href="#DejaVuSans-29" transform="translate(1093.773438 0)"/>
     </g>
    </g>
    <g id="line2d_27">
     <path d="M 335.876684 139.699145 
L 344.206684 139.699145 
L 352.536684 139.699145 
" style="fill: none; stroke: #7f7f7f; stroke-width: 1.5; stroke-linecap: square"/>
    </g>
    <g id="text_22">
     <!-- NT-MS V2 (500M) -->
     <g transform="translate(359.200684 142.614645) scale(0.0833 -0.0833)">
      <use xlink:href="#DejaVuSans-4e"/>
      <use xlink:href="#DejaVuSans-54" transform="translate(74.804688 0)"/>
      <use xlink:href="#DejaVuSans-2d" transform="translate(126.763672 0)"/>
      <use xlink:href="#DejaVuSans-4d" transform="translate(162.847656 0)"/>
      <use xlink:href="#DejaVuSans-53" transform="translate(249.126953 0)"/>
      <use xlink:href="#DejaVuSans-20" transform="translate(312.603516 0)"/>
      <use xlink:href="#DejaVuSans-56" transform="translate(344.390625 0)"/>
      <use xlink:href="#DejaVuSans-32" transform="translate(412.798828 0)"/>
      <use xlink:href="#DejaVuSans-20" transform="translate(476.421875 0)"/>
      <use xlink:href="#DejaVuSans-28" transform="translate(508.208984 0)"/>
      <use xlink:href="#DejaVuSans-35" transform="translate(547.222656 0)"/>
      <use xlink:href="#DejaVuSans-30" transform="translate(610.845703 0)"/>
      <use xlink:href="#DejaVuSans-30" transform="translate(674.46875 0)"/>
      <use xlink:href="#DejaVuSans-4d" transform="translate(738.091797 0)"/>
      <use xlink:href="#DejaVuSans-29" transform="translate(824.371094 0)"/>
     </g>
    </g>
   </g>
  </g>
 </g>
 <defs>
  <clipPath id="pab04f9238c">
   <rect x="72" y="43.2" width="446.4" height="277.2"/>
  </clipPath>
 </defs>
</svg>
