<?xml version="1.0" encoding="utf-8" standalone="no"?>
<!DOCTYPE svg PUBLIC "-//W3C//DTD SVG 1.1//EN"
  "http://www.w3.org/Graphics/SVG/1.1/DTD/svg11.dtd">
<svg xmlns:xlink="http://www.w3.org/1999/xlink" width="576pt" height="360pt" viewBox="0 0 576 360" xmlns="http://www.w3.org/2000/svg" version="1.1">
 <metadata>
  <rdf:RDF xmlns:dc="http://purl.org/dc/elements/1.1/" xmlns:cc="http://creativecommons.org/ns#" xmlns:rdf="http://www.w3.org/1999/02/22-rdf-syntax-ns#">
   <cc:Work>
    <dc:type rdf:resource="http://purl.org/dc/dcmitype/StillImage"/>
    <dc:date>2025-01-07T03:55:00.012926</dc:date>
    <dc:format>image/svg+xml</dc:format>
    <dc:creator>
     <cc:Agent>
      <dc:title>Matplotlib v3.10.0, https://matplotlib.org/</dc:title>
     </cc:Agent>
    </dc:creator>
   </cc:Work>
  </rdf:RDF>
 </metadata>
 <defs>
  <style type="text/css">*{stroke-linejoin: round; stroke-linecap: butt}</style>
 </defs>
 <g id="figure_1">
  <g id="patch_1">
   <path d="M 0 360 
L 576 360 
L 576 0 
L 0 0 
z
" style="fill: #ffffff"/>
  </g>
  <g id="axes_1">
   <g id="patch_2">
    <path d="M 72 320.4 
L 518.4 320.4 
L 518.4 43.2 
L 72 43.2 
z
" style="fill: #ffffff"/>
   </g>
   <g id="matplotlib.axis_1">
    <g id="xtick_1">
     <g id="line2d_1">
      <defs>
       <path id="m59b3a719ae" d="M 0 0 
L 0 3.5 
" style="stroke: #000000; stroke-width: 0.8"/>
      </defs>
      <g>
       <use xlink:href="#m59b3a719ae" x="157.672727" y="320.4" style="stroke: #000000; stroke-width: 0.8"/>
      </g>
     </g>
     <g id="text_1">
      <!-- 2000 -->
      <g transform="translate(144.947727 334.998438) scale(0.1 -0.1)">
       <defs>
        <path id="DejaVuSans-32" d="M 1228 531 
L 3431 531 
L 3431 0 
L 469 0 
L 469 531 
Q 828 903 1448 1529 
Q 2069 2156 2228 2338 
Q 2531 2678 2651 2914 
Q 2772 3150 2772 3378 
Q 2772 3750 2511 3984 
Q 2250 4219 1831 4219 
Q 1534 4219 1204 4116 
Q 875 4013 500 3803 
L 500 4441 
Q 881 4594 1212 4672 
Q 1544 4750 1819 4750 
Q 2544 4750 2975 4387 
Q 3406 4025 3406 3419 
Q 3406 3131 3298 2873 
Q 3191 2616 2906 2266 
Q 2828 2175 2409 1742 
Q 1991 1309 1228 531 
z
" transform="scale(0.015625)"/>
        <path id="DejaVuSans-30" d="M 2034 4250 
Q 1547 4250 1301 3770 
Q 1056 3291 1056 2328 
Q 1056 1369 1301 889 
Q 1547 409 2034 409 
Q 2525 409 2770 889 
Q 3016 1369 3016 2328 
Q 3016 3291 2770 3770 
Q 2525 4250 2034 4250 
z
M 2034 4750 
Q 2819 4750 3233 4129 
Q 3647 3509 3647 2328 
Q 3647 1150 3233 529 
Q 2819 -91 2034 -91 
Q 1250 -91 836 529 
Q 422 1150 422 2328 
Q 422 3509 836 4129 
Q 1250 4750 2034 4750 
z
" transform="scale(0.015625)"/>
       </defs>
       <use xlink:href="#DejaVuSans-32"/>
       <use xlink:href="#DejaVuSans-30" transform="translate(63.623047 0)"/>
       <use xlink:href="#DejaVuSans-30" transform="translate(127.246094 0)"/>
       <use xlink:href="#DejaVuSans-30" transform="translate(190.869141 0)"/>
      </g>
     </g>
    </g>
    <g id="xtick_2">
     <g id="line2d_2">
      <g>
       <use xlink:href="#m59b3a719ae" x="247.854545" y="320.4" style="stroke: #000000; stroke-width: 0.8"/>
      </g>
     </g>
     <g id="text_2">
      <!-- 4000 -->
      <g transform="translate(235.129545 334.998438) scale(0.1 -0.1)">
       <defs>
        <path id="DejaVuSans-34" d="M 2419 4116 
L 825 1625 
L 2419 1625 
L 2419 4116 
z
M 2253 4666 
L 3047 4666 
L 3047 1625 
L 3713 1625 
L 3713 1100 
L 3047 1100 
L 3047 0 
L 2419 0 
L 2419 1100 
L 313 1100 
L 313 1709 
L 2253 4666 
z
" transform="scale(0.015625)"/>
       </defs>
       <use xlink:href="#DejaVuSans-34"/>
       <use xlink:href="#DejaVuSans-30" transform="translate(63.623047 0)"/>
       <use xlink:href="#DejaVuSans-30" transform="translate(127.246094 0)"/>
       <use xlink:href="#DejaVuSans-30" transform="translate(190.869141 0)"/>
      </g>
     </g>
    </g>
    <g id="xtick_3">
     <g id="line2d_3">
      <g>
       <use xlink:href="#m59b3a719ae" x="338.036364" y="320.4" style="stroke: #000000; stroke-width: 0.8"/>
      </g>
     </g>
     <g id="text_3">
      <!-- 6000 -->
      <g transform="translate(325.311364 334.998438) scale(0.1 -0.1)">
       <defs>
        <path id="DejaVuSans-36" d="M 2113 2584 
Q 1688 2584 1439 2293 
Q 1191 2003 1191 1497 
Q 1191 994 1439 701 
Q 1688 409 2113 409 
Q 2538 409 2786 701 
Q 3034 994 3034 1497 
Q 3034 2003 2786 2293 
Q 2538 2584 2113 2584 
z
M 3366 4563 
L 3366 3988 
Q 3128 4100 2886 4159 
Q 2644 4219 2406 4219 
Q 1781 4219 1451 3797 
Q 1122 3375 1075 2522 
Q 1259 2794 1537 2939 
Q 1816 3084 2150 3084 
Q 2853 3084 3261 2657 
Q 3669 2231 3669 1497 
Q 3669 778 3244 343 
Q 2819 -91 2113 -91 
Q 1303 -91 875 529 
Q 447 1150 447 2328 
Q 447 3434 972 4092 
Q 1497 4750 2381 4750 
Q 2619 4750 2861 4703 
Q 3103 4656 3366 4563 
z
" transform="scale(0.015625)"/>
       </defs>
       <use xlink:href="#DejaVuSans-36"/>
       <use xlink:href="#DejaVuSans-30" transform="translate(63.623047 0)"/>
       <use xlink:href="#DejaVuSans-30" transform="translate(127.246094 0)"/>
       <use xlink:href="#DejaVuSans-30" transform="translate(190.869141 0)"/>
      </g>
     </g>
    </g>
    <g id="xtick_4">
     <g id="line2d_4">
      <g>
       <use xlink:href="#m59b3a719ae" x="428.218182" y="320.4" style="stroke: #000000; stroke-width: 0.8"/>
      </g>
     </g>
     <g id="text_4">
      <!-- 8000 -->
      <g transform="translate(415.493182 334.998438) scale(0.1 -0.1)">
       <defs>
        <path id="DejaVuSans-38" d="M 2034 2216 
Q 1584 2216 1326 1975 
Q 1069 1734 1069 1313 
Q 1069 891 1326 650 
Q 1584 409 2034 409 
Q 2484 409 2743 651 
Q 3003 894 3003 1313 
Q 3003 1734 2745 1975 
Q 2488 2216 2034 2216 
z
M 1403 2484 
Q 997 2584 770 2862 
Q 544 3141 544 3541 
Q 544 4100 942 4425 
Q 1341 4750 2034 4750 
Q 2731 4750 3128 4425 
Q 3525 4100 3525 3541 
Q 3525 3141 3298 2862 
Q 3072 2584 2669 2484 
Q 3125 2378 3379 2068 
Q 3634 1759 3634 1313 
Q 3634 634 3220 271 
Q 2806 -91 2034 -91 
Q 1263 -91 848 271 
Q 434 634 434 1313 
Q 434 1759 690 2068 
Q 947 2378 1403 2484 
z
M 1172 3481 
Q 1172 3119 1398 2916 
Q 1625 2713 2034 2713 
Q 2441 2713 2670 2916 
Q 2900 3119 2900 3481 
Q 2900 3844 2670 4047 
Q 2441 4250 2034 4250 
Q 1625 4250 1398 4047 
Q 1172 3844 1172 3481 
z
" transform="scale(0.015625)"/>
       </defs>
       <use xlink:href="#DejaVuSans-38"/>
       <use xlink:href="#DejaVuSans-30" transform="translate(63.623047 0)"/>
       <use xlink:href="#DejaVuSans-30" transform="translate(127.246094 0)"/>
       <use xlink:href="#DejaVuSans-30" transform="translate(190.869141 0)"/>
      </g>
     </g>
    </g>
    <g id="xtick_5">
     <g id="line2d_5">
      <g>
       <use xlink:href="#m59b3a719ae" x="518.4" y="320.4" style="stroke: #000000; stroke-width: 0.8"/>
      </g>
     </g>
     <g id="text_5">
      <!-- 10000 -->
      <g transform="translate(502.49375 334.998438) scale(0.1 -0.1)">
       <defs>
        <path id="DejaVuSans-31" d="M 794 531 
L 1825 531 
L 1825 4091 
L 703 3866 
L 703 4441 
L 1819 4666 
L 2450 4666 
L 2450 531 
L 3481 531 
L 3481 0 
L 794 0 
L 794 531 
z
" transform="scale(0.015625)"/>
       </defs>
       <use xlink:href="#DejaVuSans-31"/>
       <use xlink:href="#DejaVuSans-30" transform="translate(63.623047 0)"/>
       <use xlink:href="#DejaVuSans-30" transform="translate(127.246094 0)"/>
       <use xlink:href="#DejaVuSans-30" transform="translate(190.869141 0)"/>
       <use xlink:href="#DejaVuSans-30" transform="translate(254.492188 0)"/>
      </g>
     </g>
    </g>
    <g id="text_6">
     <!-- Training steps -->
     <g transform="translate(260.464844 348.676562) scale(0.1 -0.1)">
      <defs>
       <path id="DejaVuSans-54" d="M -19 4666 
L 3928 4666 
L 3928 4134 
L 2272 4134 
L 2272 0 
L 1638 0 
L 1638 4134 
L -19 4134 
L -19 4666 
z
" transform="scale(0.015625)"/>
       <path id="DejaVuSans-72" d="M 2631 2963 
Q 2534 3019 2420 3045 
Q 2306 3072 2169 3072 
Q 1681 3072 1420 2755 
Q 1159 2438 1159 1844 
L 1159 0 
L 581 0 
L 581 3500 
L 1159 3500 
L 1159 2956 
Q 1341 3275 1631 3429 
Q 1922 3584 2338 3584 
Q 2397 3584 2469 3576 
Q 2541 3569 2628 3553 
L 2631 2963 
z
" transform="scale(0.015625)"/>
       <path id="DejaVuSans-61" d="M 2194 1759 
Q 1497 1759 1228 1600 
Q 959 1441 959 1056 
Q 959 750 1161 570 
Q 1363 391 1709 391 
Q 2188 391 2477 730 
Q 2766 1069 2766 1631 
L 2766 1759 
L 2194 1759 
z
M 3341 1997 
L 3341 0 
L 2766 0 
L 2766 531 
Q 2569 213 2275 61 
Q 1981 -91 1556 -91 
Q 1019 -91 701 211 
Q 384 513 384 1019 
Q 384 1609 779 1909 
Q 1175 2209 1959 2209 
L 2766 2209 
L 2766 2266 
Q 2766 2663 2505 2880 
Q 2244 3097 1772 3097 
Q 1472 3097 1187 3025 
Q 903 2953 641 2809 
L 641 3341 
Q 956 3463 1253 3523 
Q 1550 3584 1831 3584 
Q 2591 3584 2966 3190 
Q 3341 2797 3341 1997 
z
" transform="scale(0.015625)"/>
       <path id="DejaVuSans-69" d="M 603 3500 
L 1178 3500 
L 1178 0 
L 603 0 
L 603 3500 
z
M 603 4863 
L 1178 4863 
L 1178 4134 
L 603 4134 
L 603 4863 
z
" transform="scale(0.015625)"/>
       <path id="DejaVuSans-6e" d="M 3513 2113 
L 3513 0 
L 2938 0 
L 2938 2094 
Q 2938 2591 2744 2837 
Q 2550 3084 2163 3084 
Q 1697 3084 1428 2787 
Q 1159 2491 1159 1978 
L 1159 0 
L 581 0 
L 581 3500 
L 1159 3500 
L 1159 2956 
Q 1366 3272 1645 3428 
Q 1925 3584 2291 3584 
Q 2894 3584 3203 3211 
Q 3513 2838 3513 2113 
z
" transform="scale(0.015625)"/>
       <path id="DejaVuSans-67" d="M 2906 1791 
Q 2906 2416 2648 2759 
Q 2391 3103 1925 3103 
Q 1463 3103 1205 2759 
Q 947 2416 947 1791 
Q 947 1169 1205 825 
Q 1463 481 1925 481 
Q 2391 481 2648 825 
Q 2906 1169 2906 1791 
z
M 3481 434 
Q 3481 -459 3084 -895 
Q 2688 -1331 1869 -1331 
Q 1566 -1331 1297 -1286 
Q 1028 -1241 775 -1147 
L 775 -588 
Q 1028 -725 1275 -790 
Q 1522 -856 1778 -856 
Q 2344 -856 2625 -561 
Q 2906 -266 2906 331 
L 2906 616 
Q 2728 306 2450 153 
Q 2172 0 1784 0 
Q 1141 0 747 490 
Q 353 981 353 1791 
Q 353 2603 747 3093 
Q 1141 3584 1784 3584 
Q 2172 3584 2450 3431 
Q 2728 3278 2906 2969 
L 2906 3500 
L 3481 3500 
L 3481 434 
z
" transform="scale(0.015625)"/>
       <path id="DejaVuSans-20" transform="scale(0.015625)"/>
       <path id="DejaVuSans-73" d="M 2834 3397 
L 2834 2853 
Q 2591 2978 2328 3040 
Q 2066 3103 1784 3103 
Q 1356 3103 1142 2972 
Q 928 2841 928 2578 
Q 928 2378 1081 2264 
Q 1234 2150 1697 2047 
L 1894 2003 
Q 2506 1872 2764 1633 
Q 3022 1394 3022 966 
Q 3022 478 2636 193 
Q 2250 -91 1575 -91 
Q 1294 -91 989 -36 
Q 684 19 347 128 
L 347 722 
Q 666 556 975 473 
Q 1284 391 1588 391 
Q 1994 391 2212 530 
Q 2431 669 2431 922 
Q 2431 1156 2273 1281 
Q 2116 1406 1581 1522 
L 1381 1569 
Q 847 1681 609 1914 
Q 372 2147 372 2553 
Q 372 3047 722 3315 
Q 1072 3584 1716 3584 
Q 2034 3584 2315 3537 
Q 2597 3491 2834 3397 
z
" transform="scale(0.015625)"/>
       <path id="DejaVuSans-74" d="M 1172 4494 
L 1172 3500 
L 2356 3500 
L 2356 3053 
L 1172 3053 
L 1172 1153 
Q 1172 725 1289 603 
Q 1406 481 1766 481 
L 2356 481 
L 2356 0 
L 1766 0 
Q 1100 0 847 248 
Q 594 497 594 1153 
L 594 3053 
L 172 3053 
L 172 3500 
L 594 3500 
L 594 4494 
L 1172 4494 
z
" transform="scale(0.015625)"/>
       <path id="DejaVuSans-65" d="M 3597 1894 
L 3597 1613 
L 953 1613 
Q 991 1019 1311 708 
Q 1631 397 2203 397 
Q 2534 397 2845 478 
Q 3156 559 3463 722 
L 3463 178 
Q 3153 47 2828 -22 
Q 2503 -91 2169 -91 
Q 1331 -91 842 396 
Q 353 884 353 1716 
Q 353 2575 817 3079 
Q 1281 3584 2069 3584 
Q 2775 3584 3186 3129 
Q 3597 2675 3597 1894 
z
M 3022 2063 
Q 3016 2534 2758 2815 
Q 2500 3097 2075 3097 
Q 1594 3097 1305 2825 
Q 1016 2553 972 2059 
L 3022 2063 
z
" transform="scale(0.015625)"/>
       <path id="DejaVuSans-70" d="M 1159 525 
L 1159 -1331 
L 581 -1331 
L 581 3500 
L 1159 3500 
L 1159 2969 
Q 1341 3281 1617 3432 
Q 1894 3584 2278 3584 
Q 2916 3584 3314 3078 
Q 3713 2572 3713 1747 
Q 3713 922 3314 415 
Q 2916 -91 2278 -91 
Q 1894 -91 1617 61 
Q 1341 213 1159 525 
z
M 3116 1747 
Q 3116 2381 2855 2742 
Q 2594 3103 2138 3103 
Q 1681 3103 1420 2742 
Q 1159 2381 1159 1747 
Q 1159 1113 1420 752 
Q 1681 391 2138 391 
Q 2594 391 2855 752 
Q 3116 1113 3116 1747 
z
" transform="scale(0.015625)"/>
      </defs>
      <use xlink:href="#DejaVuSans-54"/>
      <use xlink:href="#DejaVuSans-72" transform="translate(46.333984 0)"/>
      <use xlink:href="#DejaVuSans-61" transform="translate(87.447266 0)"/>
      <use xlink:href="#DejaVuSans-69" transform="translate(148.726562 0)"/>
      <use xlink:href="#DejaVuSans-6e" transform="translate(176.509766 0)"/>
      <use xlink:href="#DejaVuSans-69" transform="translate(239.888672 0)"/>
      <use xlink:href="#DejaVuSans-6e" transform="translate(267.671875 0)"/>
      <use xlink:href="#DejaVuSans-67" transform="translate(331.050781 0)"/>
      <use xlink:href="#DejaVuSans-20" transform="translate(394.527344 0)"/>
      <use xlink:href="#DejaVuSans-73" transform="translate(426.314453 0)"/>
      <use xlink:href="#DejaVuSans-74" transform="translate(478.414062 0)"/>
      <use xlink:href="#DejaVuSans-65" transform="translate(517.623047 0)"/>
      <use xlink:href="#DejaVuSans-70" transform="translate(579.146484 0)"/>
      <use xlink:href="#DejaVuSans-73" transform="translate(642.623047 0)"/>
     </g>
    </g>
   </g>
   <g id="matplotlib.axis_2">
    <g id="ytick_1">
     <g id="line2d_6">
      <defs>
       <path id="m74f84e9bf2" d="M 0 0 
L -3.5 0 
" style="stroke: #000000; stroke-width: 0.8"/>
      </defs>
      <g>
       <use xlink:href="#m74f84e9bf2" x="72" y="277.362443" style="stroke: #000000; stroke-width: 0.8"/>
      </g>
     </g>
     <g id="text_7">
      <!-- 0.5 -->
      <g transform="translate(49.096875 281.161662) scale(0.1 -0.1)">
       <defs>
        <path id="DejaVuSans-2e" d="M 684 794 
L 1344 794 
L 1344 0 
L 684 0 
L 684 794 
z
" transform="scale(0.015625)"/>
        <path id="DejaVuSans-35" d="M 691 4666 
L 3169 4666 
L 3169 4134 
L 1269 4134 
L 1269 2991 
Q 1406 3038 1543 3061 
Q 1681 3084 1819 3084 
Q 2600 3084 3056 2656 
Q 3513 2228 3513 1497 
Q 3513 744 3044 326 
Q 2575 -91 1722 -91 
Q 1428 -91 1123 -41 
Q 819 9 494 109 
L 494 744 
Q 775 591 1075 516 
Q 1375 441 1709 441 
Q 2250 441 2565 725 
Q 2881 1009 2881 1497 
Q 2881 1984 2565 2268 
Q 2250 2553 1709 2553 
Q 1456 2553 1204 2497 
Q 953 2441 691 2322 
L 691 4666 
z
" transform="scale(0.015625)"/>
       </defs>
       <use xlink:href="#DejaVuSans-30"/>
       <use xlink:href="#DejaVuSans-2e" transform="translate(63.623047 0)"/>
       <use xlink:href="#DejaVuSans-35" transform="translate(95.410156 0)"/>
      </g>
     </g>
    </g>
    <g id="ytick_2">
     <g id="line2d_7">
      <g>
       <use xlink:href="#m74f84e9bf2" x="72" y="219.93309" style="stroke: #000000; stroke-width: 0.8"/>
      </g>
     </g>
     <g id="text_8">
      <!-- 0.6 -->
      <g transform="translate(49.096875 223.732309) scale(0.1 -0.1)">
       <use xlink:href="#DejaVuSans-30"/>
       <use xlink:href="#DejaVuSans-2e" transform="translate(63.623047 0)"/>
       <use xlink:href="#DejaVuSans-36" transform="translate(95.410156 0)"/>
      </g>
     </g>
    </g>
    <g id="ytick_3">
     <g id="line2d_8">
      <g>
       <use xlink:href="#m74f84e9bf2" x="72" y="162.503737" style="stroke: #000000; stroke-width: 0.8"/>
      </g>
     </g>
     <g id="text_9">
      <!-- 0.7 -->
      <g transform="translate(49.096875 166.302956) scale(0.1 -0.1)">
       <defs>
        <path id="DejaVuSans-37" d="M 525 4666 
L 3525 4666 
L 3525 4397 
L 1831 0 
L 1172 0 
L 2766 4134 
L 525 4134 
L 525 4666 
z
" transform="scale(0.015625)"/>
       </defs>
       <use xlink:href="#DejaVuSans-30"/>
       <use xlink:href="#DejaVuSans-2e" transform="translate(63.623047 0)"/>
       <use xlink:href="#DejaVuSans-37" transform="translate(95.410156 0)"/>
      </g>
     </g>
    </g>
    <g id="ytick_4">
     <g id="line2d_9">
      <g>
       <use xlink:href="#m74f84e9bf2" x="72" y="105.074385" style="stroke: #000000; stroke-width: 0.8"/>
      </g>
     </g>
     <g id="text_10">
      <!-- 0.8 -->
      <g transform="translate(49.096875 108.873603) scale(0.1 -0.1)">
       <use xlink:href="#DejaVuSans-30"/>
       <use xlink:href="#DejaVuSans-2e" transform="translate(63.623047 0)"/>
       <use xlink:href="#DejaVuSans-38" transform="translate(95.410156 0)"/>
      </g>
     </g>
    </g>
    <g id="ytick_5">
     <g id="line2d_10">
      <g>
       <use xlink:href="#m74f84e9bf2" x="72" y="47.645032" style="stroke: #000000; stroke-width: 0.8"/>
      </g>
     </g>
     <g id="text_11">
      <!-- 0.9 -->
      <g transform="translate(49.096875 51.444251) scale(0.1 -0.1)">
       <defs>
        <path id="DejaVuSans-39" d="M 703 97 
L 703 672 
Q 941 559 1184 500 
Q 1428 441 1663 441 
Q 2288 441 2617 861 
Q 2947 1281 2994 2138 
Q 2813 1869 2534 1725 
Q 2256 1581 1919 1581 
Q 1219 1581 811 2004 
Q 403 2428 403 3163 
Q 403 3881 828 4315 
Q 1253 4750 1959 4750 
Q 2769 4750 3195 4129 
Q 3622 3509 3622 2328 
Q 3622 1225 3098 567 
Q 2575 -91 1691 -91 
Q 1453 -91 1209 -44 
Q 966 3 703 97 
z
M 1959 2075 
Q 2384 2075 2632 2365 
Q 2881 2656 2881 3163 
Q 2881 3666 2632 3958 
Q 2384 4250 1959 4250 
Q 1534 4250 1286 3958 
Q 1038 3666 1038 3163 
Q 1038 2656 1286 2365 
Q 1534 2075 1959 2075 
z
" transform="scale(0.015625)"/>
       </defs>
       <use xlink:href="#DejaVuSans-30"/>
       <use xlink:href="#DejaVuSans-2e" transform="translate(63.623047 0)"/>
       <use xlink:href="#DejaVuSans-39" transform="translate(95.410156 0)"/>
      </g>
     </g>
    </g>
    <g id="text_12">
     <!-- Loss -->
     <g transform="translate(43.017187 192.767187) rotate(-90) scale(0.1 -0.1)">
      <defs>
       <path id="DejaVuSans-4c" d="M 628 4666 
L 1259 4666 
L 1259 531 
L 3531 531 
L 3531 0 
L 628 0 
L 628 4666 
z
" transform="scale(0.015625)"/>
       <path id="DejaVuSans-6f" d="M 1959 3097 
Q 1497 3097 1228 2736 
Q 959 2375 959 1747 
Q 959 1119 1226 758 
Q 1494 397 1959 397 
Q 2419 397 2687 759 
Q 2956 1122 2956 1747 
Q 2956 2369 2687 2733 
Q 2419 3097 1959 3097 
z
M 1959 3584 
Q 2709 3584 3137 3096 
Q 3566 2609 3566 1747 
Q 3566 888 3137 398 
Q 2709 -91 1959 -91 
Q 1206 -91 779 398 
Q 353 888 353 1747 
Q 353 2609 779 3096 
Q 1206 3584 1959 3584 
z
" transform="scale(0.015625)"/>
      </defs>
      <use xlink:href="#DejaVuSans-4c"/>
      <use xlink:href="#DejaVuSans-6f" transform="translate(53.962891 0)"/>
      <use xlink:href="#DejaVuSans-73" transform="translate(115.144531 0)"/>
      <use xlink:href="#DejaVuSans-73" transform="translate(167.244141 0)"/>
     </g>
    </g>
   </g>
   <g id="line2d_11">
    <path d="M 72 127.069827 
L 76.509091 144.470921 
L 81.018182 152.568459 
L 85.527273 149.122698 
L 90.036364 165.375205 
L 94.545455 163.020602 
L 99.054545 173.874749 
L 103.563636 168.935825 
L 108.072727 176.631358 
L 112.581818 172.094439 
L 117.090909 165.145488 
L 121.6 177.665087 
L 126.109091 172.611304 
L 130.618182 177.722516 
L 135.127273 189.610392 
L 139.636364 184.384321 
L 144.145455 190.931267 
L 148.654545 180.708842 
L 153.163636 193.860164 
L 157.672727 180.364266 
L 162.181818 177.033364 
L 166.690909 179.10082 
L 171.2 170.888423 
L 175.709091 175.540201 
L 180.218182 193.113582 
L 184.727273 171.979581 
L 189.236364 184.154603 
L 193.745455 173.759891 
L 198.254545 190.242115 
L 202.763636 191.333273 
L 207.272727 187.887511 
L 211.781818 188.806381 
L 216.290909 188.232088 
L 220.8 182.833728 
L 225.309091 191.218414 
L 229.818182 189.725251 
L 234.327273 198.741659 
L 238.836364 199.775387 
L 243.345455 202.934002 
L 247.854545 190.414403 
L 252.363636 194.434458 
L 256.872727 191.103555 
L 261.381818 186.681495 
L 265.890909 194.377028 
L 270.4 194.491887 
L 274.909091 194.491887 
L 279.418182 206.66691 
L 283.927273 181.570283 
L 288.436364 192.194713 
L 292.945455 178.641386 
L 297.454545 190.242115 
L 301.963636 203.278578 
L 306.472727 188.691522 
L 310.981818 193.860164 
L 315.490909 196.157338 
L 320 199.603099 
L 324.509091 205.058888 
L 329.018182 197.305925 
L 333.527273 189.667821 
L 338.036364 207.987785 
L 342.545455 201.613127 
L 347.054545 187.600365 
L 351.563636 203.795442 
L 356.072727 206.66691 
L 360.581818 197.937648 
L 365.090909 198.6268 
L 369.6 191.850137 
L 374.109091 193.228441 
L 378.618182 198.339654 
L 383.127273 195.640474 
L 387.636364 200.177393 
L 392.145455 205.231176 
L 396.654545 199.660529 
L 401.163636 198.569371 
L 405.672727 207.356062 
L 410.181818 208.964084 
L 414.690909 200.005105 
L 419.2 199.54567 
L 423.709091 205.231176 
L 428.218182 205.460893 
L 432.727273 209.251231 
L 437.236364 193.285871 
L 441.745455 195.181039 
L 446.254545 214.936737 
L 450.763636 217.29134 
L 455.272727 206.724339 
L 459.781818 200.579398 
L 464.290909 195.238469 
L 468.8 202.876572 
L 473.309091 204.197448 
L 477.818182 213.903008 
L 482.327273 202.24485 
L 486.836364 205.346035 
L 491.345455 199.603099 
L 495.854545 208.906655 
L 500.363636 203.508295 
L 504.872727 197.650501 
L 509.381818 205.058888 
L 513.890909 203.910301 
L 518.4 207.011486 
" clip-path="url(#p9a10dc9309)" style="fill: none; stroke: #1f77b4; stroke-width: 1.5; stroke-linecap: square"/>
   </g>
   <g id="line2d_12">
    <path d="M 72 55.8 
L 76.509091 129.711577 
L 81.018182 117.708842 
L 85.527273 111.73619 
L 90.036364 148.892981 
L 94.545455 154.119052 
L 99.054545 155.669644 
L 103.563636 166.69608 
L 108.072727 160.091705 
L 112.581818 148.892981 
L 117.090909 137.46454 
L 121.6 174.047037 
L 126.109091 166.925798 
L 130.618182 173.243026 
L 135.127273 168.878396 
L 139.636364 163.652325 
L 144.145455 155.21021 
L 148.654545 162.733455 
L 153.163636 142.633181 
L 157.672727 166.179216 
L 162.181818 180.421696 
L 166.690909 160.206563 
L 171.2 145.045214 
L 175.709091 165.719781 
L 180.218182 163.939471 
L 184.727273 153.717046 
L 189.236364 173.932179 
L 193.745455 175.310483 
L 198.254545 182.604011 
L 202.763636 187.887511 
L 207.272727 177.894804 
L 211.781818 146.021513 
L 216.290909 170.601276 
L 220.8 169.682407 
L 225.309091 177.779945 
L 229.818182 185.073473 
L 234.327273 187.370647 
L 238.836364 186.624066 
L 243.345455 192.42443 
L 247.854545 177.263081 
L 252.363636 176.401641 
L 256.872727 183.408022 
L 261.381818 182.604011 
L 265.890909 188.634093 
L 270.4 178.23938 
L 274.909091 172.89845 
L 279.418182 183.465451 
L 283.927273 169.854695 
L 288.436364 178.813674 
L 292.945455 173.185597 
L 297.454545 186.509207 
L 301.963636 192.252142 
L 306.472727 184.49918 
L 310.981818 196.387056 
L 315.490909 194.836463 
L 320 184.269462 
L 324.509091 195.295898 
L 329.018182 194.319599 
L 333.527273 190.184686 
L 338.036364 212.754421 
L 342.545455 198.282224 
L 347.054545 186.738924 
L 351.563636 188.059799 
L 356.072727 193.400729 
L 360.581818 195.870191 
L 365.090909 199.775387 
L 369.6 190.816408 
L 374.109091 186.968642 
L 378.618182 193.515588 
L 383.127273 196.90392 
L 387.636364 190.356974 
L 392.145455 197.937648 
L 396.654545 198.799088 
L 401.163636 185.705196 
L 405.672727 200.694257 
L 410.181818 217.176481 
L 414.690909 194.20474 
L 419.2 193.745305 
L 423.709091 203.221149 
L 428.218182 202.819143 
L 432.727273 207.930356 
L 437.236364 192.309572 
L 441.745455 195.525615 
L 446.254545 205.805469 
L 450.763636 203.450866 
L 455.272727 211.08897 
L 459.781818 203.623154 
L 464.290909 195.525615 
L 468.8 203.565725 
L 473.309091 199.603099 
L 477.818182 224.41258 
L 482.327273 206.839198 
L 486.836364 211.261258 
L 491.345455 199.660529 
L 495.854545 217.061623 
L 500.363636 211.318687 
L 504.872727 200.923974 
L 509.381818 211.663263 
L 513.890909 201.613127 
L 518.4 208.160073 
" clip-path="url(#p9a10dc9309)" style="fill: none; stroke: #ff7f0e; stroke-width: 1.5; stroke-linecap: square"/>
   </g>
   <g id="line2d_13">
    <path d="M 72 179.387967 
L 76.509091 178.756244 
L 81.018182 204.82917 
L 85.527273 198.971376 
L 90.036364 212.524704 
L 94.545455 212.696992 
L 99.054545 197.133637 
L 103.563636 213.443573 
L 108.072727 175.023336 
L 112.581818 177.837375 
L 117.090909 202.704284 
L 121.6 207.126345 
L 126.109091 210.055242 
L 130.618182 216.889335 
L 135.127273 207.470921 
L 139.636364 198.6268 
L 144.145455 211.031541 
L 148.654545 212.352416 
L 153.163636 226.824613 
L 157.672727 183.120875 
L 162.181818 218.841933 
L 166.690909 221.655971 
L 171.2 214.017867 
L 175.709091 211.203829 
L 180.218182 235.726162 
L 184.727273 226.939471 
L 189.236364 224.182862 
L 193.745455 238.310483 
L 198.254545 225.905743 
L 202.763636 239.344211 
L 207.272727 233.601276 
L 211.781818 237.851048 
L 216.290909 234.060711 
L 220.8 234.864722 
L 225.309091 251.232088 
L 229.818182 241.411668 
L 234.327273 243.01969 
L 238.836364 233.199271 
L 243.345455 237.276755 
L 247.854545 216.257612 
L 252.363636 255.654148 
L 256.872727 247.843756 
L 261.381818 257.893892 
L 265.890909 244.168277 
L 270.4 252.093528 
L 274.909091 232.567548 
L 279.418182 230.442662 
L 283.927273 239.344211 
L 288.436364 235.439015 
L 292.945455 244.914859 
L 297.454545 241.928532 
L 301.963636 261.971376 
L 306.472727 242.445397 
L 310.981818 246.408022 
L 315.490909 253.299544 
L 320 257.20474 
L 324.509091 255.654148 
L 329.018182 264.440839 
L 333.527273 253.127256 
L 338.036364 280.061623 
L 342.545455 262.488241 
L 347.054545 260.133637 
L 351.563636 251.289517 
L 356.072727 254.333273 
L 360.581818 260.363355 
L 365.090909 262.890246 
L 369.6 244.627712 
L 374.109091 245.144576 
L 378.618182 265.474567 
L 383.127273 243.306837 
L 387.636364 253.242115 
L 392.145455 262.086235 
L 396.654545 271.504649 
L 401.163636 257.893892 
L 405.672727 253.529262 
L 410.181818 274.08897 
L 414.690909 275.639562 
L 419.2 260.363355 
L 423.709091 266.738013 
L 428.218182 260.593072 
L 432.727273 275.180128 
L 437.236364 251.117229 
L 441.745455 261.109936 
L 446.254545 278.453601 
L 450.763636 283.794531 
L 455.272727 276.213856 
L 459.781818 276.041568 
L 464.290909 264.613127 
L 468.8 273.1701 
L 473.309091 262.54567 
L 477.818182 283.622242 
L 482.327273 268.346035 
L 486.836364 263.062534 
L 491.345455 274.892981 
L 495.854545 278.683318 
L 500.363636 270.241203 
L 504.872727 264.32598 
L 509.381818 290.456335 
L 513.890909 256.860164 
L 518.4 262.143665 
" clip-path="url(#p9a10dc9309)" style="fill: none; stroke: #2ca02c; stroke-width: 1.5; stroke-linecap: square"/>
   </g>
   <g id="line2d_14">
    <path d="M 72 76.474567 
L 76.509091 143.954057 
L 81.018182 176.229353 
L 85.527273 171.749863 
L 90.036364 183.235734 
L 94.545455 210.859253 
L 99.054545 204.254877 
L 103.563636 196.329626 
L 108.072727 202.18742 
L 112.581818 183.982315 
L 117.090909 208.38979 
L 121.6 188.92124 
L 126.109091 189.150957 
L 130.618182 215.625889 
L 135.127273 214.305014 
L 139.636364 199.660529 
L 144.145455 203.278578 
L 148.654545 220.277666 
L 153.163636 216.487329 
L 157.672727 200.866545 
L 162.181818 219.014221 
L 166.690909 191.275843 
L 171.2 197.420784 
L 175.709091 184.786326 
L 180.218182 184.269462 
L 184.727273 165.547493 
L 189.236364 197.995077 
L 193.745455 207.700638 
L 198.254545 208.44722 
L 202.763636 225.905743 
L 207.272727 206.896627 
L 211.781818 210.284959 
L 216.290909 223.263993 
L 220.8 209.366089 
L 225.309091 220.622242 
L 229.818182 196.674202 
L 234.327273 227.91577 
L 238.836364 200.694257 
L 243.345455 208.160073 
L 247.854545 217.693345 
L 252.363636 219.818232 
L 256.872727 226.996901 
L 261.381818 223.263993 
L 265.890909 223.149134 
L 270.4 216.774476 
L 274.909091 204.140018 
L 279.418182 209.251231 
L 283.927273 204.771741 
L 288.436364 217.463628 
L 292.945455 212.811851 
L 297.454545 206.60948 
L 301.963636 229.581222 
L 306.472727 210.572106 
L 310.981818 219.186509 
L 315.490909 223.378851 
L 320 226.19289 
L 324.509091 230.212944 
L 329.018182 220.392525 
L 333.527273 235.439015 
L 338.036364 244.570283 
L 342.545455 235.266727 
L 347.054545 221.081677 
L 351.563636 230.040656 
L 356.072727 231.074385 
L 360.581818 241.698815 
L 365.090909 246.58031 
L 369.6 226.020602 
L 374.109091 219.416226 
L 378.618182 234.405287 
L 383.127273 223.091705 
L 387.636364 233.2567 
L 392.145455 231.591249 
L 396.654545 234.003282 
L 401.163636 234.749863 
L 405.672727 248.532908 
L 410.181818 229.581222 
L 414.690909 244.455424 
L 419.2 242.560255 
L 423.709091 238.367912 
L 428.218182 241.756244 
L 432.727273 244.627712 
L 437.236364 223.091705 
L 441.745455 229.466363 
L 446.254545 252.897539 
L 450.763636 253.356974 
L 455.272727 248.877484 
L 459.781818 253.816408 
L 464.290909 257.664175 
L 468.8 242.675114 
L 473.309091 237.047037 
L 477.818182 261.454512 
L 482.327273 247.671468 
L 486.836364 250.485506 
L 491.345455 261.511942 
L 495.854545 251.346946 
L 500.363636 254.448131 
L 504.872727 244.053418 
L 509.381818 268.575752 
L 513.890909 241.009663 
L 518.4 240.435369 
" clip-path="url(#p9a10dc9309)" style="fill: none; stroke: #d62728; stroke-width: 1.5; stroke-linecap: square"/>
   </g>
   <g id="line2d_15">
    <path d="M 72 164.686053 
L 76.509091 164.513765 
L 81.018182 193.515588 
L 85.527273 158.139107 
L 90.036364 209.825524 
L 94.545455 222.115406 
L 99.054545 210.801823 
L 103.563636 213.73072 
L 108.072727 226.537466 
L 112.581818 214.879307 
L 117.090909 222.976846 
L 121.6 229.351504 
L 126.109091 223.206563 
L 130.618182 222.057976 
L 135.127273 194.319599 
L 139.636364 192.42443 
L 144.145455 226.767183 
L 148.654545 226.13546 
L 153.163636 238.999635 
L 157.672727 205.518323 
L 162.181818 210.284959 
L 166.690909 212.237557 
L 171.2 205.805469 
L 175.709091 223.723428 
L 180.218182 217.119052 
L 184.727273 230.557521 
L 189.236364 227.91577 
L 193.745455 220.162808 
L 198.254545 241.411668 
L 202.763636 244.283136 
L 207.272727 224.41258 
L 211.781818 239.45907 
L 216.290909 235.726162 
L 220.8 234.347858 
L 225.309091 251.86381 
L 229.818182 235.209298 
L 234.327273 253.242115 
L 238.836364 243.191978 
L 243.345455 236.243026 
L 247.854545 232.969553 
L 252.363636 251.461805 
L 256.872727 259.674202 
L 261.381818 256.917593 
L 265.890909 240.779945 
L 270.4 237.047037 
L 274.909091 236.530173 
L 279.418182 238.195624 
L 283.927273 235.439015 
L 288.436364 240.090793 
L 292.945455 234.922151 
L 297.454545 199.143665 
L 301.963636 249.796354 
L 306.472727 242.502826 
L 310.981818 237.506472 
L 315.490909 254.333273 
L 320 243.479125 
L 324.509091 260.478213 
L 329.018182 271.619508 
L 333.527273 266.910301 
L 338.036364 282.473655 
L 342.545455 265.18742 
L 347.054545 262.258523 
L 351.563636 251.634093 
L 356.072727 257.836463 
L 360.581818 269.322334 
L 365.090909 267.8866 
L 369.6 252.840109 
L 374.109091 246.006016 
L 378.618182 273.112671 
L 383.127273 260.076208 
L 387.636364 257.032452 
L 392.145455 272.193801 
L 396.654545 281.439927 
L 401.163636 266.163719 
L 405.672727 273.686964 
L 410.181818 278.109025 
L 414.690909 285.115406 
L 419.2 274.95041 
L 423.709091 275.467274 
L 428.218182 270.987785 
L 432.727273 275.811851 
L 437.236364 260.937648 
L 441.745455 264.900273 
L 446.254545 286.206563 
L 450.763636 291.317776 
L 455.272727 282.99052 
L 459.781818 270.241203 
L 464.290909 287.642297 
L 468.8 275.294986 
L 473.309091 268.116317 
L 477.818182 288.561167 
L 482.327273 274.835552 
L 486.836364 281.267639 
L 491.345455 300.449043 
L 495.854545 287.929444 
L 500.363636 280.406199 
L 504.872727 276.098997 
L 509.381818 300.104467 
L 513.890909 274.892981 
L 518.4 264.670556 
" clip-path="url(#p9a10dc9309)" style="fill: none; stroke: #9467bd; stroke-width: 1.5; stroke-linecap: square"/>
   </g>
   <g id="line2d_16">
    <path d="M 72 171.232999 
L 76.509091 190.184686 
L 81.018182 220.622242 
L 85.527273 215.051595 
L 90.036364 236.472744 
L 94.545455 238.367912 
L 99.054545 245.71887 
L 103.563636 247.728897 
L 108.072727 230.500091 
L 112.581818 239.229353 
L 117.090909 234.462716 
L 121.6 222.345123 
L 126.109091 227.800912 
L 130.618182 244.455424 
L 135.127273 252.265816 
L 139.636364 232.222972 
L 144.145455 255.137284 
L 148.654545 231.648678 
L 153.163636 256.228441 
L 157.672727 224.010574 
L 162.181818 238.884777 
L 166.690909 227.05433 
L 171.2 235.209298 
L 175.709091 237.67876 
L 180.218182 237.621331 
L 184.727273 248.820055 
L 189.236364 249.853783 
L 193.745455 247.958614 
L 198.254545 248.992343 
L 202.763636 260.937648 
L 207.272727 244.455424 
L 211.781818 241.23938 
L 216.290909 251.00237 
L 220.8 246.637739 
L 225.309091 260.995077 
L 229.818182 251.117229 
L 234.327273 273.457247 
L 238.836364 253.184686 
L 243.345455 248.992343 
L 247.854545 239.861076 
L 252.363636 257.721604 
L 256.872727 275.237557 
L 261.381818 262.488241 
L 265.890909 256.056153 
L 270.4 257.032452 
L 274.909091 253.184686 
L 279.418182 243.479125 
L 283.927273 257.319599 
L 288.436364 250.944941 
L 292.945455 249.624066 
L 297.454545 258.06618 
L 301.963636 275.467274 
L 306.472727 250.542935 
L 310.981818 263.062534 
L 315.490909 268.518323 
L 320 268.862899 
L 324.509091 261.913947 
L 329.018182 280.980492 
L 333.527273 271.38979 
L 338.036364 287.986873 
L 342.545455 263.981404 
L 347.054545 271.274932 
L 351.563636 254.964995 
L 356.072727 275.352416 
L 360.581818 266.221149 
L 365.090909 272.366089 
L 369.6 251.748952 
L 374.109091 259.272197 
L 378.618182 274.146399 
L 383.127273 262.54567 
L 387.636364 257.20474 
L 392.145455 279.200182 
L 396.654545 296.141841 
L 401.163636 273.744394 
L 405.672727 281.15278 
L 410.181818 294.418961 
L 414.690909 287.240292 
L 419.2 272.193801 
L 423.709091 284.368824 
L 428.218182 277.534731 
L 432.727273 287.41258 
L 437.236364 270.356062 
L 441.745455 286.723428 
L 446.254545 294.935825 
L 450.763636 303.435369 
L 455.272727 292.294075 
L 459.781818 289.996901 
L 464.290909 291.604923 
L 468.8 282.703373 
L 473.309091 281.841933 
L 477.818182 296.2567 
L 482.327273 276.156427 
L 486.836364 289.537466 
L 491.345455 297.003282 
L 495.854545 298.381586 
L 500.363636 296.888423 
L 504.872727 283.277666 
L 509.381818 307.8 
L 513.890909 275.352416 
L 518.4 274.490975 
" clip-path="url(#p9a10dc9309)" style="fill: none; stroke: #8c564b; stroke-width: 1.5; stroke-linecap: square"/>
   </g>
   <g id="line2d_17">
    <path d="M 72 93.588514 
L 76.509091 184.671468 
L 81.018182 193.056153 
L 85.527273 182.776299 
L 90.036364 204.484594 
L 94.545455 205.805469 
L 99.054545 214.362443 
L 103.563636 217.865634 
L 108.072727 212.86928 
L 112.581818 198.856518 
L 117.090909 211.031541 
L 121.6 201.038833 
L 126.109091 196.731632 
L 130.618182 222.459982 
L 135.127273 220.220237 
L 139.636364 212.352416 
L 144.145455 217.808204 
L 148.654545 217.29134 
L 153.163636 220.277666 
L 157.672727 208.619508 
L 162.181818 225.618596 
L 166.690909 188.404376 
L 171.2 205.231176 
L 175.709091 204.02516 
L 180.218182 195.181039 
L 184.727273 197.076208 
L 189.236364 210.514676 
L 193.745455 196.272197 
L 198.254545 224.297721 
L 202.763636 238.138195 
L 207.272727 218.612215 
L 211.781818 223.091705 
L 216.290909 221.7134 
L 220.8 226.365178 
L 225.309091 224.642297 
L 229.818182 220.737101 
L 234.327273 238.138195 
L 238.836364 201.842844 
L 243.345455 217.578487 
L 247.854545 221.828259 
L 252.363636 234.060711 
L 256.872727 236.587603 
L 261.381818 236.874749 
L 265.890909 229.638651 
L 270.4 240.492799 
L 274.909091 216.142753 
L 279.418182 222.804558 
L 283.927273 225.676026 
L 288.436364 236.128168 
L 292.945455 232.624977 
L 297.454545 219.760802 
L 301.963636 252.150957 
L 306.472727 233.888423 
L 310.981818 232.739836 
L 315.490909 247.671468 
L 320 236.415314 
L 324.509091 243.88113 
L 329.018182 255.711577 
L 333.527273 253.184686 
L 338.036364 262.947675 
L 342.545455 252.265816 
L 347.054545 241.23938 
L 351.563636 243.766272 
L 356.072727 259.329626 
L 360.581818 258.755333 
L 365.090909 262.832817 
L 369.6 250.14093 
L 374.109091 232.452689 
L 378.618182 252.438104 
L 383.127273 249.968642 
L 387.636364 238.367912 
L 392.145455 258.640474 
L 396.654545 275.582133 
L 401.163636 268.403464 
L 405.672727 270.872926 
L 410.181818 272.825524 
L 414.690909 269.724339 
L 419.2 263.234822 
L 423.709091 276.386144 
L 428.218182 271.734366 
L 432.727273 282.703373 
L 437.236364 247.212033 
L 441.745455 268.403464 
L 446.254545 284.139107 
L 450.763636 293.385232 
L 455.272727 281.554786 
L 459.781818 274.433546 
L 464.290909 289.709754 
L 468.8 269.724339 
L 473.309091 256.802735 
L 477.818182 280.808204 
L 482.327273 271.964084 
L 486.836364 276.615861 
L 491.345455 290.571194 
L 495.854545 291.662352 
L 500.363636 281.325068 
L 504.872727 284.196536 
L 509.381818 299.759891 
L 513.890909 269.322334 
L 518.4 279.142753 
" clip-path="url(#p9a10dc9309)" style="fill: none; stroke: #e377c2; stroke-width: 1.5; stroke-linecap: square"/>
   </g>
   <g id="line2d_18">
    <path d="M 72 145.964084 
L 76.509091 162.503737 
L 81.018182 183.924886 
L 85.527273 178.756244 
L 90.036364 212.409845 
L 94.545455 224.527438 
L 99.054545 224.240292 
L 103.563636 200.005105 
L 108.072727 201.32598 
L 112.581818 185.820055 
L 117.090909 215.396171 
L 121.6 224.872015 
L 126.109091 212.467274 
L 130.618182 213.271285 
L 135.127273 227.398906 
L 139.636364 224.297721 
L 144.145455 233.026983 
L 148.654545 228.662352 
L 153.163636 244.742571 
L 157.672727 216.027894 
L 162.181818 214.132726 
L 166.690909 209.078943 
L 171.2 215.396171 
L 175.709091 204.542024 
L 180.218182 221.77083 
L 184.727273 240.665087 
L 189.236364 219.531085 
L 193.745455 208.906655 
L 198.254545 225.905743 
L 202.763636 241.354239 
L 207.272727 233.084412 
L 211.781818 234.864722 
L 216.290909 228.604923 
L 220.8 227.743482 
L 225.309091 250.0835 
L 229.818182 223.149134 
L 234.327273 253.184686 
L 238.836364 230.61495 
L 243.345455 238.138195 
L 247.854545 220.679672 
L 252.363636 239.401641 
L 256.872727 233.371559 
L 261.381818 257.549316 
L 265.890909 238.310483 
L 270.4 233.199271 
L 274.909091 240.37794 
L 279.418182 225.676026 
L 283.927273 231.993254 
L 288.436364 228.83464 
L 292.945455 231.648678 
L 297.454545 246.408022 
L 301.963636 256.285871 
L 306.472727 230.270374 
L 310.981818 239.114494 
L 315.490909 241.756244 
L 320 251.059799 
L 324.509091 255.596718 
L 329.018182 261.511942 
L 333.527273 246.695169 
L 338.036364 277.994166 
L 342.545455 249.624066 
L 347.054545 245.546582 
L 351.563636 249.049772 
L 356.072727 234.864722 
L 360.581818 249.394348 
L 365.090909 262.488241 
L 369.6 241.296809 
L 374.109091 241.698815 
L 378.618182 258.583045 
L 383.127273 246.235734 
L 387.636364 253.299544 
L 392.145455 263.177393 
L 396.654545 257.606746 
L 401.163636 241.641386 
L 405.672727 247.901185 
L 410.181818 277.132726 
L 414.690909 270.126345 
L 419.2 255.079854 
L 423.709091 253.356974 
L 428.218182 250.198359 
L 432.727273 268.862899 
L 437.236364 242.560255 
L 441.745455 253.931267 
L 446.254545 276.098997 
L 450.763636 269.092616 
L 455.272727 274.720693 
L 459.781818 262.373382 
L 464.290909 264.555697 
L 468.8 259.042479 
L 473.309091 264.900273 
L 477.818182 278.396171 
L 482.327273 258.697903 
L 486.836364 266.96773 
L 491.345455 265.015132 
L 495.854545 282.07165 
L 500.363636 269.437192 
L 504.872727 256.228441 
L 509.381818 283.507384 
L 513.890909 265.934002 
L 518.4 248.877484 
" clip-path="url(#p9a10dc9309)" style="fill: none; stroke: #7f7f7f; stroke-width: 1.5; stroke-linecap: square"/>
   </g>
   <g id="patch_3">
    <path d="M 72 320.4 
L 72 43.2 
" style="fill: none; stroke: #000000; stroke-width: 0.8; stroke-linejoin: miter; stroke-linecap: square"/>
   </g>
   <g id="patch_4">
    <path d="M 518.4 320.4 
L 518.4 43.2 
" style="fill: none; stroke: #000000; stroke-width: 0.8; stroke-linejoin: miter; stroke-linecap: square"/>
   </g>
   <g id="patch_5">
    <path d="M 72 320.4 
L 518.4 320.4 
" style="fill: none; stroke: #000000; stroke-width: 0.8; stroke-linejoin: miter; stroke-linecap: square"/>
   </g>
   <g id="patch_6">
    <path d="M 72 43.2 
L 518.4 43.2 
" style="fill: none; stroke: #000000; stroke-width: 0.8; stroke-linejoin: miter; stroke-linecap: square"/>
   </g>
   <g id="text_13">
    <!-- H3K4me1 -->
    <g transform="translate(265.764375 37.2) scale(0.12 -0.12)">
     <defs>
      <path id="DejaVuSans-48" d="M 628 4666 
L 1259 4666 
L 1259 2753 
L 3553 2753 
L 3553 4666 
L 4184 4666 
L 4184 0 
L 3553 0 
L 3553 2222 
L 1259 2222 
L 1259 0 
L 628 0 
L 628 4666 
z
" transform="scale(0.015625)"/>
      <path id="DejaVuSans-33" d="M 2597 2516 
Q 3050 2419 3304 2112 
Q 3559 1806 3559 1356 
Q 3559 666 3084 287 
Q 2609 -91 1734 -91 
Q 1441 -91 1130 -33 
Q 819 25 488 141 
L 488 750 
Q 750 597 1062 519 
Q 1375 441 1716 441 
Q 2309 441 2620 675 
Q 2931 909 2931 1356 
Q 2931 1769 2642 2001 
Q 2353 2234 1838 2234 
L 1294 2234 
L 1294 2753 
L 1863 2753 
Q 2328 2753 2575 2939 
Q 2822 3125 2822 3475 
Q 2822 3834 2567 4026 
Q 2313 4219 1838 4219 
Q 1578 4219 1281 4162 
Q 984 4106 628 3988 
L 628 4550 
Q 988 4650 1302 4700 
Q 1616 4750 1894 4750 
Q 2613 4750 3031 4423 
Q 3450 4097 3450 3541 
Q 3450 3153 3228 2886 
Q 3006 2619 2597 2516 
z
" transform="scale(0.015625)"/>
      <path id="DejaVuSans-4b" d="M 628 4666 
L 1259 4666 
L 1259 2694 
L 3353 4666 
L 4166 4666 
L 1850 2491 
L 4331 0 
L 3500 0 
L 1259 2247 
L 1259 0 
L 628 0 
L 628 4666 
z
" transform="scale(0.015625)"/>
      <path id="DejaVuSans-6d" d="M 3328 2828 
Q 3544 3216 3844 3400 
Q 4144 3584 4550 3584 
Q 5097 3584 5394 3201 
Q 5691 2819 5691 2113 
L 5691 0 
L 5113 0 
L 5113 2094 
Q 5113 2597 4934 2840 
Q 4756 3084 4391 3084 
Q 3944 3084 3684 2787 
Q 3425 2491 3425 1978 
L 3425 0 
L 2847 0 
L 2847 2094 
Q 2847 2600 2669 2842 
Q 2491 3084 2119 3084 
Q 1678 3084 1418 2786 
Q 1159 2488 1159 1978 
L 1159 0 
L 581 0 
L 581 3500 
L 1159 3500 
L 1159 2956 
Q 1356 3278 1631 3431 
Q 1906 3584 2284 3584 
Q 2666 3584 2933 3390 
Q 3200 3197 3328 2828 
z
" transform="scale(0.015625)"/>
     </defs>
     <use xlink:href="#DejaVuSans-48"/>
     <use xlink:href="#DejaVuSans-33" transform="translate(75.195312 0)"/>
     <use xlink:href="#DejaVuSans-4b" transform="translate(138.818359 0)"/>
     <use xlink:href="#DejaVuSans-34" transform="translate(204.394531 0)"/>
     <use xlink:href="#DejaVuSans-6d" transform="translate(268.017578 0)"/>
     <use xlink:href="#DejaVuSans-65" transform="translate(365.429688 0)"/>
     <use xlink:href="#DejaVuSans-31" transform="translate(426.953125 0)"/>
    </g>
   </g>
   <g id="legend_1">
    <g id="patch_7">
     <path d="M 334.210684 147.679025 
L 512.569 147.679025 
Q 514.235 147.679025 514.235 146.013025 
L 514.235 49.031 
Q 514.235 47.365 512.569 47.365 
L 334.210684 47.365 
Q 332.544684 47.365 332.544684 49.031 
L 332.544684 146.013025 
Q 332.544684 147.679025 334.210684 147.679025 
z
" style="fill: #ffffff; opacity: 0.8; stroke: #cccccc; stroke-linejoin: miter"/>
    </g>
    <g id="line2d_19">
     <path d="M 335.876684 54.110998 
L 344.206684 54.110998 
L 352.536684 54.110998 
" style="fill: none; stroke: #1f77b4; stroke-width: 1.5; stroke-linecap: square"/>
    </g>
    <g id="text_14">
     <!-- NT-MS V2 (50M) with rand. weights -->
     <g transform="translate(359.200684 57.026498) scale(0.0833 -0.0833)">
      <defs>
       <path id="DejaVuSans-4e" d="M 628 4666 
L 1478 4666 
L 3547 763 
L 3547 4666 
L 4159 4666 
L 4159 0 
L 3309 0 
L 1241 3903 
L 1241 0 
L 628 0 
L 628 4666 
z
" transform="scale(0.015625)"/>
       <path id="DejaVuSans-2d" d="M 313 2009 
L 1997 2009 
L 1997 1497 
L 313 1497 
L 313 2009 
z
" transform="scale(0.015625)"/>
       <path id="DejaVuSans-4d" d="M 628 4666 
L 1569 4666 
L 2759 1491 
L 3956 4666 
L 4897 4666 
L 4897 0 
L 4281 0 
L 4281 4097 
L 3078 897 
L 2444 897 
L 1241 4097 
L 1241 0 
L 628 0 
L 628 4666 
z
" transform="scale(0.015625)"/>
       <path id="DejaVuSans-53" d="M 3425 4513 
L 3425 3897 
Q 3066 4069 2747 4153 
Q 2428 4238 2131 4238 
Q 1616 4238 1336 4038 
Q 1056 3838 1056 3469 
Q 1056 3159 1242 3001 
Q 1428 2844 1947 2747 
L 2328 2669 
Q 3034 2534 3370 2195 
Q 3706 1856 3706 1288 
Q 3706 609 3251 259 
Q 2797 -91 1919 -91 
Q 1588 -91 1214 -16 
Q 841 59 441 206 
L 441 856 
Q 825 641 1194 531 
Q 1563 422 1919 422 
Q 2459 422 2753 634 
Q 3047 847 3047 1241 
Q 3047 1584 2836 1778 
Q 2625 1972 2144 2069 
L 1759 2144 
Q 1053 2284 737 2584 
Q 422 2884 422 3419 
Q 422 4038 858 4394 
Q 1294 4750 2059 4750 
Q 2388 4750 2728 4690 
Q 3069 4631 3425 4513 
z
" transform="scale(0.015625)"/>
       <path id="DejaVuSans-56" d="M 1831 0 
L 50 4666 
L 709 4666 
L 2188 738 
L 3669 4666 
L 4325 4666 
L 2547 0 
L 1831 0 
z
" transform="scale(0.015625)"/>
       <path id="DejaVuSans-28" d="M 1984 4856 
Q 1566 4138 1362 3434 
Q 1159 2731 1159 2009 
Q 1159 1288 1364 580 
Q 1569 -128 1984 -844 
L 1484 -844 
Q 1016 -109 783 600 
Q 550 1309 550 2009 
Q 550 2706 781 3412 
Q 1013 4119 1484 4856 
L 1984 4856 
z
" transform="scale(0.015625)"/>
       <path id="DejaVuSans-29" d="M 513 4856 
L 1013 4856 
Q 1481 4119 1714 3412 
Q 1947 2706 1947 2009 
Q 1947 1309 1714 600 
Q 1481 -109 1013 -844 
L 513 -844 
Q 928 -128 1133 580 
Q 1338 1288 1338 2009 
Q 1338 2731 1133 3434 
Q 928 4138 513 4856 
z
" transform="scale(0.015625)"/>
       <path id="DejaVuSans-77" d="M 269 3500 
L 844 3500 
L 1563 769 
L 2278 3500 
L 2956 3500 
L 3675 769 
L 4391 3500 
L 4966 3500 
L 4050 0 
L 3372 0 
L 2619 2869 
L 1863 0 
L 1184 0 
L 269 3500 
z
" transform="scale(0.015625)"/>
       <path id="DejaVuSans-68" d="M 3513 2113 
L 3513 0 
L 2938 0 
L 2938 2094 
Q 2938 2591 2744 2837 
Q 2550 3084 2163 3084 
Q 1697 3084 1428 2787 
Q 1159 2491 1159 1978 
L 1159 0 
L 581 0 
L 581 4863 
L 1159 4863 
L 1159 2956 
Q 1366 3272 1645 3428 
Q 1925 3584 2291 3584 
Q 2894 3584 3203 3211 
Q 3513 2838 3513 2113 
z
" transform="scale(0.015625)"/>
       <path id="DejaVuSans-64" d="M 2906 2969 
L 2906 4863 
L 3481 4863 
L 3481 0 
L 2906 0 
L 2906 525 
Q 2725 213 2448 61 
Q 2172 -91 1784 -91 
Q 1150 -91 751 415 
Q 353 922 353 1747 
Q 353 2572 751 3078 
Q 1150 3584 1784 3584 
Q 2172 3584 2448 3432 
Q 2725 3281 2906 2969 
z
M 947 1747 
Q 947 1113 1208 752 
Q 1469 391 1925 391 
Q 2381 391 2643 752 
Q 2906 1113 2906 1747 
Q 2906 2381 2643 2742 
Q 2381 3103 1925 3103 
Q 1469 3103 1208 2742 
Q 947 2381 947 1747 
z
" transform="scale(0.015625)"/>
      </defs>
      <use xlink:href="#DejaVuSans-4e"/>
      <use xlink:href="#DejaVuSans-54" transform="translate(74.804688 0)"/>
      <use xlink:href="#DejaVuSans-2d" transform="translate(126.763672 0)"/>
      <use xlink:href="#DejaVuSans-4d" transform="translate(162.847656 0)"/>
      <use xlink:href="#DejaVuSans-53" transform="translate(249.126953 0)"/>
      <use xlink:href="#DejaVuSans-20" transform="translate(312.603516 0)"/>
      <use xlink:href="#DejaVuSans-56" transform="translate(344.390625 0)"/>
      <use xlink:href="#DejaVuSans-32" transform="translate(412.798828 0)"/>
      <use xlink:href="#DejaVuSans-20" transform="translate(476.421875 0)"/>
      <use xlink:href="#DejaVuSans-28" transform="translate(508.208984 0)"/>
      <use xlink:href="#DejaVuSans-35" transform="translate(547.222656 0)"/>
      <use xlink:href="#DejaVuSans-30" transform="translate(610.845703 0)"/>
      <use xlink:href="#DejaVuSans-4d" transform="translate(674.46875 0)"/>
      <use xlink:href="#DejaVuSans-29" transform="translate(760.748047 0)"/>
      <use xlink:href="#DejaVuSans-20" transform="translate(799.761719 0)"/>
      <use xlink:href="#DejaVuSans-77" transform="translate(831.548828 0)"/>
      <use xlink:href="#DejaVuSans-69" transform="translate(913.335938 0)"/>
      <use xlink:href="#DejaVuSans-74" transform="translate(941.119141 0)"/>
      <use xlink:href="#DejaVuSans-68" transform="translate(980.328125 0)"/>
      <use xlink:href="#DejaVuSans-20" transform="translate(1043.707031 0)"/>
      <use xlink:href="#DejaVuSans-72" transform="translate(1075.494141 0)"/>
      <use xlink:href="#DejaVuSans-61" transform="translate(1116.607422 0)"/>
      <use xlink:href="#DejaVuSans-6e" transform="translate(1177.886719 0)"/>
      <use xlink:href="#DejaVuSans-64" transform="translate(1241.265625 0)"/>
      <use xlink:href="#DejaVuSans-2e" transform="translate(1304.742188 0)"/>
      <use xlink:href="#DejaVuSans-20" transform="translate(1336.529297 0)"/>
      <use xlink:href="#DejaVuSans-77" transform="translate(1368.316406 0)"/>
      <use xlink:href="#DejaVuSans-65" transform="translate(1450.103516 0)"/>
      <use xlink:href="#DejaVuSans-69" transform="translate(1511.626953 0)"/>
      <use xlink:href="#DejaVuSans-67" transform="translate(1539.410156 0)"/>
      <use xlink:href="#DejaVuSans-68" transform="translate(1602.886719 0)"/>
      <use xlink:href="#DejaVuSans-74" transform="translate(1666.265625 0)"/>
      <use xlink:href="#DejaVuSans-73" transform="translate(1705.474609 0)"/>
     </g>
    </g>
    <g id="line2d_20">
     <path d="M 335.876684 66.337877 
L 344.206684 66.337877 
L 352.536684 66.337877 
" style="fill: none; stroke: #ff7f0e; stroke-width: 1.5; stroke-linecap: square"/>
    </g>
    <g id="text_15">
     <!-- NT-MS V2 (500M) with rand. weights -->
     <g transform="translate(359.200684 69.253377) scale(0.0833 -0.0833)">
      <use xlink:href="#DejaVuSans-4e"/>
      <use xlink:href="#DejaVuSans-54" transform="translate(74.804688 0)"/>
      <use xlink:href="#DejaVuSans-2d" transform="translate(126.763672 0)"/>
      <use xlink:href="#DejaVuSans-4d" transform="translate(162.847656 0)"/>
      <use xlink:href="#DejaVuSans-53" transform="translate(249.126953 0)"/>
      <use xlink:href="#DejaVuSans-20" transform="translate(312.603516 0)"/>
      <use xlink:href="#DejaVuSans-56" transform="translate(344.390625 0)"/>
      <use xlink:href="#DejaVuSans-32" transform="translate(412.798828 0)"/>
      <use xlink:href="#DejaVuSans-20" transform="translate(476.421875 0)"/>
      <use xlink:href="#DejaVuSans-28" transform="translate(508.208984 0)"/>
      <use xlink:href="#DejaVuSans-35" transform="translate(547.222656 0)"/>
      <use xlink:href="#DejaVuSans-30" transform="translate(610.845703 0)"/>
      <use xlink:href="#DejaVuSans-30" transform="translate(674.46875 0)"/>
      <use xlink:href="#DejaVuSans-4d" transform="translate(738.091797 0)"/>
      <use xlink:href="#DejaVuSans-29" transform="translate(824.371094 0)"/>
      <use xlink:href="#DejaVuSans-20" transform="translate(863.384766 0)"/>
      <use xlink:href="#DejaVuSans-77" transform="translate(895.171875 0)"/>
      <use xlink:href="#DejaVuSans-69" transform="translate(976.958984 0)"/>
      <use xlink:href="#DejaVuSans-74" transform="translate(1004.742188 0)"/>
      <use xlink:href="#DejaVuSans-68" transform="translate(1043.951172 0)"/>
      <use xlink:href="#DejaVuSans-20" transform="translate(1107.330078 0)"/>
      <use xlink:href="#DejaVuSans-72" transform="translate(1139.117188 0)"/>
      <use xlink:href="#DejaVuSans-61" transform="translate(1180.230469 0)"/>
      <use xlink:href="#DejaVuSans-6e" transform="translate(1241.509766 0)"/>
      <use xlink:href="#DejaVuSans-64" transform="translate(1304.888672 0)"/>
      <use xlink:href="#DejaVuSans-2e" transform="translate(1368.365234 0)"/>
      <use xlink:href="#DejaVuSans-20" transform="translate(1400.152344 0)"/>
      <use xlink:href="#DejaVuSans-77" transform="translate(1431.939453 0)"/>
      <use xlink:href="#DejaVuSans-65" transform="translate(1513.726562 0)"/>
      <use xlink:href="#DejaVuSans-69" transform="translate(1575.25 0)"/>
      <use xlink:href="#DejaVuSans-67" transform="translate(1603.033203 0)"/>
      <use xlink:href="#DejaVuSans-68" transform="translate(1666.509766 0)"/>
      <use xlink:href="#DejaVuSans-74" transform="translate(1729.888672 0)"/>
      <use xlink:href="#DejaVuSans-73" transform="translate(1769.097656 0)"/>
     </g>
    </g>
    <g id="line2d_21">
     <path d="M 335.876684 78.564755 
L 344.206684 78.564755 
L 352.536684 78.564755 
" style="fill: none; stroke: #2ca02c; stroke-width: 1.5; stroke-linecap: square"/>
    </g>
    <g id="text_16">
     <!-- NT-MS V2 (50M) -->
     <g transform="translate(359.200684 81.480255) scale(0.0833 -0.0833)">
      <use xlink:href="#DejaVuSans-4e"/>
      <use xlink:href="#DejaVuSans-54" transform="translate(74.804688 0)"/>
      <use xlink:href="#DejaVuSans-2d" transform="translate(126.763672 0)"/>
      <use xlink:href="#DejaVuSans-4d" transform="translate(162.847656 0)"/>
      <use xlink:href="#DejaVuSans-53" transform="translate(249.126953 0)"/>
      <use xlink:href="#DejaVuSans-20" transform="translate(312.603516 0)"/>
      <use xlink:href="#DejaVuSans-56" transform="translate(344.390625 0)"/>
      <use xlink:href="#DejaVuSans-32" transform="translate(412.798828 0)"/>
      <use xlink:href="#DejaVuSans-20" transform="translate(476.421875 0)"/>
      <use xlink:href="#DejaVuSans-28" transform="translate(508.208984 0)"/>
      <use xlink:href="#DejaVuSans-35" transform="translate(547.222656 0)"/>
      <use xlink:href="#DejaVuSans-30" transform="translate(610.845703 0)"/>
      <use xlink:href="#DejaVuSans-4d" transform="translate(674.46875 0)"/>
      <use xlink:href="#DejaVuSans-29" transform="translate(760.748047 0)"/>
     </g>
    </g>
    <g id="line2d_22">
     <path d="M 335.876684 90.791633 
L 344.206684 90.791633 
L 352.536684 90.791633 
" style="fill: none; stroke: #d62728; stroke-width: 1.5; stroke-linecap: square"/>
    </g>
    <g id="text_17">
     <!-- NT-1000g (500M) -->
     <g transform="translate(359.200684 93.707133) scale(0.0833 -0.0833)">
      <use xlink:href="#DejaVuSans-4e"/>
      <use xlink:href="#DejaVuSans-54" transform="translate(74.804688 0)"/>
      <use xlink:href="#DejaVuSans-2d" transform="translate(126.763672 0)"/>
      <use xlink:href="#DejaVuSans-31" transform="translate(162.847656 0)"/>
      <use xlink:href="#DejaVuSans-30" transform="translate(226.470703 0)"/>
      <use xlink:href="#DejaVuSans-30" transform="translate(290.09375 0)"/>
      <use xlink:href="#DejaVuSans-30" transform="translate(353.716797 0)"/>
      <use xlink:href="#DejaVuSans-67" transform="translate(417.339844 0)"/>
      <use xlink:href="#DejaVuSans-20" transform="translate(480.816406 0)"/>
      <use xlink:href="#DejaVuSans-28" transform="translate(512.603516 0)"/>
      <use xlink:href="#DejaVuSans-35" transform="translate(551.617188 0)"/>
      <use xlink:href="#DejaVuSans-30" transform="translate(615.240234 0)"/>
      <use xlink:href="#DejaVuSans-30" transform="translate(678.863281 0)"/>
      <use xlink:href="#DejaVuSans-4d" transform="translate(742.486328 0)"/>
      <use xlink:href="#DejaVuSans-29" transform="translate(828.765625 0)"/>
     </g>
    </g>
    <g id="line2d_23">
     <path d="M 335.876684 103.018511 
L 344.206684 103.018511 
L 352.536684 103.018511 
" style="fill: none; stroke: #9467bd; stroke-width: 1.5; stroke-linecap: square"/>
    </g>
    <g id="text_18">
     <!-- NT-MS V2 (250M) -->
     <g transform="translate(359.200684 105.934011) scale(0.0833 -0.0833)">
      <use xlink:href="#DejaVuSans-4e"/>
      <use xlink:href="#DejaVuSans-54" transform="translate(74.804688 0)"/>
      <use xlink:href="#DejaVuSans-2d" transform="translate(126.763672 0)"/>
      <use xlink:href="#DejaVuSans-4d" transform="translate(162.847656 0)"/>
      <use xlink:href="#DejaVuSans-53" transform="translate(249.126953 0)"/>
      <use xlink:href="#DejaVuSans-20" transform="translate(312.603516 0)"/>
      <use xlink:href="#DejaVuSans-56" transform="translate(344.390625 0)"/>
      <use xlink:href="#DejaVuSans-32" transform="translate(412.798828 0)"/>
      <use xlink:href="#DejaVuSans-20" transform="translate(476.421875 0)"/>
      <use xlink:href="#DejaVuSans-28" transform="translate(508.208984 0)"/>
      <use xlink:href="#DejaVuSans-32" transform="translate(547.222656 0)"/>
      <use xlink:href="#DejaVuSans-35" transform="translate(610.845703 0)"/>
      <use xlink:href="#DejaVuSans-30" transform="translate(674.46875 0)"/>
      <use xlink:href="#DejaVuSans-4d" transform="translate(738.091797 0)"/>
      <use xlink:href="#DejaVuSans-29" transform="translate(824.371094 0)"/>
     </g>
    </g>
    <g id="line2d_24">
     <path d="M 335.876684 115.245389 
L 344.206684 115.245389 
L 352.536684 115.245389 
" style="fill: none; stroke: #8c564b; stroke-width: 1.5; stroke-linecap: square"/>
    </g>
    <g id="text_19">
     <!-- NT-MS V2 (100M) -->
     <g transform="translate(359.200684 118.160889) scale(0.0833 -0.0833)">
      <use xlink:href="#DejaVuSans-4e"/>
      <use xlink:href="#DejaVuSans-54" transform="translate(74.804688 0)"/>
      <use xlink:href="#DejaVuSans-2d" transform="translate(126.763672 0)"/>
      <use xlink:href="#DejaVuSans-4d" transform="translate(162.847656 0)"/>
      <use xlink:href="#DejaVuSans-53" transform="translate(249.126953 0)"/>
      <use xlink:href="#DejaVuSans-20" transform="translate(312.603516 0)"/>
      <use xlink:href="#DejaVuSans-56" transform="translate(344.390625 0)"/>
      <use xlink:href="#DejaVuSans-32" transform="translate(412.798828 0)"/>
      <use xlink:href="#DejaVuSans-20" transform="translate(476.421875 0)"/>
      <use xlink:href="#DejaVuSans-28" transform="translate(508.208984 0)"/>
      <use xlink:href="#DejaVuSans-31" transform="translate(547.222656 0)"/>
      <use xlink:href="#DejaVuSans-30" transform="translate(610.845703 0)"/>
      <use xlink:href="#DejaVuSans-30" transform="translate(674.46875 0)"/>
      <use xlink:href="#DejaVuSans-4d" transform="translate(738.091797 0)"/>
      <use xlink:href="#DejaVuSans-29" transform="translate(824.371094 0)"/>
     </g>
    </g>
    <g id="line2d_25">
     <path d="M 335.876684 127.472267 
L 344.206684 127.472267 
L 352.536684 127.472267 
" style="fill: none; stroke: #e377c2; stroke-width: 1.5; stroke-linecap: square"/>
    </g>
    <g id="text_20">
     <!-- NT-Human-Ref. (500M) -->
     <g transform="translate(359.200684 130.387767) scale(0.0833 -0.0833)">
      <defs>
       <path id="DejaVuSans-75" d="M 544 1381 
L 544 3500 
L 1119 3500 
L 1119 1403 
Q 1119 906 1312 657 
Q 1506 409 1894 409 
Q 2359 409 2629 706 
Q 2900 1003 2900 1516 
L 2900 3500 
L 3475 3500 
L 3475 0 
L 2900 0 
L 2900 538 
Q 2691 219 2414 64 
Q 2138 -91 1772 -91 
Q 1169 -91 856 284 
Q 544 659 544 1381 
z
M 1991 3584 
L 1991 3584 
z
" transform="scale(0.015625)"/>
       <path id="DejaVuSans-52" d="M 2841 2188 
Q 3044 2119 3236 1894 
Q 3428 1669 3622 1275 
L 4263 0 
L 3584 0 
L 2988 1197 
Q 2756 1666 2539 1819 
Q 2322 1972 1947 1972 
L 1259 1972 
L 1259 0 
L 628 0 
L 628 4666 
L 2053 4666 
Q 2853 4666 3247 4331 
Q 3641 3997 3641 3322 
Q 3641 2881 3436 2590 
Q 3231 2300 2841 2188 
z
M 1259 4147 
L 1259 2491 
L 2053 2491 
Q 2509 2491 2742 2702 
Q 2975 2913 2975 3322 
Q 2975 3731 2742 3939 
Q 2509 4147 2053 4147 
L 1259 4147 
z
" transform="scale(0.015625)"/>
       <path id="DejaVuSans-66" d="M 2375 4863 
L 2375 4384 
L 1825 4384 
Q 1516 4384 1395 4259 
Q 1275 4134 1275 3809 
L 1275 3500 
L 2222 3500 
L 2222 3053 
L 1275 3053 
L 1275 0 
L 697 0 
L 697 3053 
L 147 3053 
L 147 3500 
L 697 3500 
L 697 3744 
Q 697 4328 969 4595 
Q 1241 4863 1831 4863 
L 2375 4863 
z
" transform="scale(0.015625)"/>
      </defs>
      <use xlink:href="#DejaVuSans-4e"/>
      <use xlink:href="#DejaVuSans-54" transform="translate(74.804688 0)"/>
      <use xlink:href="#DejaVuSans-2d" transform="translate(126.763672 0)"/>
      <use xlink:href="#DejaVuSans-48" transform="translate(162.847656 0)"/>
      <use xlink:href="#DejaVuSans-75" transform="translate(238.042969 0)"/>
      <use xlink:href="#DejaVuSans-6d" transform="translate(301.421875 0)"/>
      <use xlink:href="#DejaVuSans-61" transform="translate(398.833984 0)"/>
      <use xlink:href="#DejaVuSans-6e" transform="translate(460.113281 0)"/>
      <use xlink:href="#DejaVuSans-2d" transform="translate(523.492188 0)"/>
      <use xlink:href="#DejaVuSans-52" transform="translate(559.576172 0)"/>
      <use xlink:href="#DejaVuSans-65" transform="translate(624.558594 0)"/>
      <use xlink:href="#DejaVuSans-66" transform="translate(686.082031 0)"/>
      <use xlink:href="#DejaVuSans-2e" transform="translate(714.037109 0)"/>
      <use xlink:href="#DejaVuSans-20" transform="translate(745.824219 0)"/>
      <use xlink:href="#DejaVuSans-28" transform="translate(777.611328 0)"/>
      <use xlink:href="#DejaVuSans-35" transform="translate(816.625 0)"/>
      <use xlink:href="#DejaVuSans-30" transform="translate(880.248047 0)"/>
      <use xlink:href="#DejaVuSans-30" transform="translate(943.871094 0)"/>
      <use xlink:href="#DejaVuSans-4d" transform="translate(1007.494141 0)"/>
      <use xlink:href="#DejaVuSans-29" transform="translate(1093.773438 0)"/>
     </g>
    </g>
    <g id="line2d_26">
     <path d="M 335.876684 139.699145 
L 344.206684 139.699145 
L 352.536684 139.699145 
" style="fill: none; stroke: #7f7f7f; stroke-width: 1.5; stroke-linecap: square"/>
    </g>
    <g id="text_21">
     <!-- NT-MS V2 (500M) -->
     <g transform="translate(359.200684 142.614645) scale(0.0833 -0.0833)">
      <use xlink:href="#DejaVuSans-4e"/>
      <use xlink:href="#DejaVuSans-54" transform="translate(74.804688 0)"/>
      <use xlink:href="#DejaVuSans-2d" transform="translate(126.763672 0)"/>
      <use xlink:href="#DejaVuSans-4d" transform="translate(162.847656 0)"/>
      <use xlink:href="#DejaVuSans-53" transform="translate(249.126953 0)"/>
      <use xlink:href="#DejaVuSans-20" transform="translate(312.603516 0)"/>
      <use xlink:href="#DejaVuSans-56" transform="translate(344.390625 0)"/>
      <use xlink:href="#DejaVuSans-32" transform="translate(412.798828 0)"/>
      <use xlink:href="#DejaVuSans-20" transform="translate(476.421875 0)"/>
      <use xlink:href="#DejaVuSans-28" transform="translate(508.208984 0)"/>
      <use xlink:href="#DejaVuSans-35" transform="translate(547.222656 0)"/>
      <use xlink:href="#DejaVuSans-30" transform="translate(610.845703 0)"/>
      <use xlink:href="#DejaVuSans-30" transform="translate(674.46875 0)"/>
      <use xlink:href="#DejaVuSans-4d" transform="translate(738.091797 0)"/>
      <use xlink:href="#DejaVuSans-29" transform="translate(824.371094 0)"/>
     </g>
    </g>
   </g>
  </g>
 </g>
 <defs>
  <clipPath id="p9a10dc9309">
   <rect x="72" y="43.2" width="446.4" height="277.2"/>
  </clipPath>
 </defs>
</svg>
