<?xml version="1.0" encoding="utf-8" standalone="no"?>
<!DOCTYPE svg PUBLIC "-//W3C//DTD SVG 1.1//EN"
  "http://www.w3.org/Graphics/SVG/1.1/DTD/svg11.dtd">
<svg xmlns:xlink="http://www.w3.org/1999/xlink" width="576pt" height="360pt" viewBox="0 0 576 360" xmlns="http://www.w3.org/2000/svg" version="1.1">
 <metadata>
  <rdf:RDF xmlns:dc="http://purl.org/dc/elements/1.1/" xmlns:cc="http://creativecommons.org/ns#" xmlns:rdf="http://www.w3.org/1999/02/22-rdf-syntax-ns#">
   <cc:Work>
    <dc:type rdf:resource="http://purl.org/dc/dcmitype/StillImage"/>
    <dc:date>2025-01-07T03:55:02.928465</dc:date>
    <dc:format>image/svg+xml</dc:format>
    <dc:creator>
     <cc:Agent>
      <dc:title>Matplotlib v3.10.0, https://matplotlib.org/</dc:title>
     </cc:Agent>
    </dc:creator>
   </cc:Work>
  </rdf:RDF>
 </metadata>
 <defs>
  <style type="text/css">*{stroke-linejoin: round; stroke-linecap: butt}</style>
 </defs>
 <g id="figure_1">
  <g id="patch_1">
   <path d="M 0 360 
L 576 360 
L 576 0 
L 0 0 
z
" style="fill: #ffffff"/>
  </g>
  <g id="axes_1">
   <g id="patch_2">
    <path d="M 72 320.4 
L 518.4 320.4 
L 518.4 43.2 
L 72 43.2 
z
" style="fill: #ffffff"/>
   </g>
   <g id="matplotlib.axis_1">
    <g id="xtick_1">
     <g id="line2d_1">
      <defs>
       <path id="m0faf011f9b" d="M 0 0 
L 0 3.5 
" style="stroke: #000000; stroke-width: 0.8"/>
      </defs>
      <g>
       <use xlink:href="#m0faf011f9b" x="157.672727" y="320.4" style="stroke: #000000; stroke-width: 0.8"/>
      </g>
     </g>
     <g id="text_1">
      <!-- 2000 -->
      <g transform="translate(144.947727 334.998438) scale(0.1 -0.1)">
       <defs>
        <path id="DejaVuSans-32" d="M 1228 531 
L 3431 531 
L 3431 0 
L 469 0 
L 469 531 
Q 828 903 1448 1529 
Q 2069 2156 2228 2338 
Q 2531 2678 2651 2914 
Q 2772 3150 2772 3378 
Q 2772 3750 2511 3984 
Q 2250 4219 1831 4219 
Q 1534 4219 1204 4116 
Q 875 4013 500 3803 
L 500 4441 
Q 881 4594 1212 4672 
Q 1544 4750 1819 4750 
Q 2544 4750 2975 4387 
Q 3406 4025 3406 3419 
Q 3406 3131 3298 2873 
Q 3191 2616 2906 2266 
Q 2828 2175 2409 1742 
Q 1991 1309 1228 531 
z
" transform="scale(0.015625)"/>
        <path id="DejaVuSans-30" d="M 2034 4250 
Q 1547 4250 1301 3770 
Q 1056 3291 1056 2328 
Q 1056 1369 1301 889 
Q 1547 409 2034 409 
Q 2525 409 2770 889 
Q 3016 1369 3016 2328 
Q 3016 3291 2770 3770 
Q 2525 4250 2034 4250 
z
M 2034 4750 
Q 2819 4750 3233 4129 
Q 3647 3509 3647 2328 
Q 3647 1150 3233 529 
Q 2819 -91 2034 -91 
Q 1250 -91 836 529 
Q 422 1150 422 2328 
Q 422 3509 836 4129 
Q 1250 4750 2034 4750 
z
" transform="scale(0.015625)"/>
       </defs>
       <use xlink:href="#DejaVuSans-32"/>
       <use xlink:href="#DejaVuSans-30" transform="translate(63.623047 0)"/>
       <use xlink:href="#DejaVuSans-30" transform="translate(127.246094 0)"/>
       <use xlink:href="#DejaVuSans-30" transform="translate(190.869141 0)"/>
      </g>
     </g>
    </g>
    <g id="xtick_2">
     <g id="line2d_2">
      <g>
       <use xlink:href="#m0faf011f9b" x="247.854545" y="320.4" style="stroke: #000000; stroke-width: 0.8"/>
      </g>
     </g>
     <g id="text_2">
      <!-- 4000 -->
      <g transform="translate(235.129545 334.998438) scale(0.1 -0.1)">
       <defs>
        <path id="DejaVuSans-34" d="M 2419 4116 
L 825 1625 
L 2419 1625 
L 2419 4116 
z
M 2253 4666 
L 3047 4666 
L 3047 1625 
L 3713 1625 
L 3713 1100 
L 3047 1100 
L 3047 0 
L 2419 0 
L 2419 1100 
L 313 1100 
L 313 1709 
L 2253 4666 
z
" transform="scale(0.015625)"/>
       </defs>
       <use xlink:href="#DejaVuSans-34"/>
       <use xlink:href="#DejaVuSans-30" transform="translate(63.623047 0)"/>
       <use xlink:href="#DejaVuSans-30" transform="translate(127.246094 0)"/>
       <use xlink:href="#DejaVuSans-30" transform="translate(190.869141 0)"/>
      </g>
     </g>
    </g>
    <g id="xtick_3">
     <g id="line2d_3">
      <g>
       <use xlink:href="#m0faf011f9b" x="338.036364" y="320.4" style="stroke: #000000; stroke-width: 0.8"/>
      </g>
     </g>
     <g id="text_3">
      <!-- 6000 -->
      <g transform="translate(325.311364 334.998438) scale(0.1 -0.1)">
       <defs>
        <path id="DejaVuSans-36" d="M 2113 2584 
Q 1688 2584 1439 2293 
Q 1191 2003 1191 1497 
Q 1191 994 1439 701 
Q 1688 409 2113 409 
Q 2538 409 2786 701 
Q 3034 994 3034 1497 
Q 3034 2003 2786 2293 
Q 2538 2584 2113 2584 
z
M 3366 4563 
L 3366 3988 
Q 3128 4100 2886 4159 
Q 2644 4219 2406 4219 
Q 1781 4219 1451 3797 
Q 1122 3375 1075 2522 
Q 1259 2794 1537 2939 
Q 1816 3084 2150 3084 
Q 2853 3084 3261 2657 
Q 3669 2231 3669 1497 
Q 3669 778 3244 343 
Q 2819 -91 2113 -91 
Q 1303 -91 875 529 
Q 447 1150 447 2328 
Q 447 3434 972 4092 
Q 1497 4750 2381 4750 
Q 2619 4750 2861 4703 
Q 3103 4656 3366 4563 
z
" transform="scale(0.015625)"/>
       </defs>
       <use xlink:href="#DejaVuSans-36"/>
       <use xlink:href="#DejaVuSans-30" transform="translate(63.623047 0)"/>
       <use xlink:href="#DejaVuSans-30" transform="translate(127.246094 0)"/>
       <use xlink:href="#DejaVuSans-30" transform="translate(190.869141 0)"/>
      </g>
     </g>
    </g>
    <g id="xtick_4">
     <g id="line2d_4">
      <g>
       <use xlink:href="#m0faf011f9b" x="428.218182" y="320.4" style="stroke: #000000; stroke-width: 0.8"/>
      </g>
     </g>
     <g id="text_4">
      <!-- 8000 -->
      <g transform="translate(415.493182 334.998438) scale(0.1 -0.1)">
       <defs>
        <path id="DejaVuSans-38" d="M 2034 2216 
Q 1584 2216 1326 1975 
Q 1069 1734 1069 1313 
Q 1069 891 1326 650 
Q 1584 409 2034 409 
Q 2484 409 2743 651 
Q 3003 894 3003 1313 
Q 3003 1734 2745 1975 
Q 2488 2216 2034 2216 
z
M 1403 2484 
Q 997 2584 770 2862 
Q 544 3141 544 3541 
Q 544 4100 942 4425 
Q 1341 4750 2034 4750 
Q 2731 4750 3128 4425 
Q 3525 4100 3525 3541 
Q 3525 3141 3298 2862 
Q 3072 2584 2669 2484 
Q 3125 2378 3379 2068 
Q 3634 1759 3634 1313 
Q 3634 634 3220 271 
Q 2806 -91 2034 -91 
Q 1263 -91 848 271 
Q 434 634 434 1313 
Q 434 1759 690 2068 
Q 947 2378 1403 2484 
z
M 1172 3481 
Q 1172 3119 1398 2916 
Q 1625 2713 2034 2713 
Q 2441 2713 2670 2916 
Q 2900 3119 2900 3481 
Q 2900 3844 2670 4047 
Q 2441 4250 2034 4250 
Q 1625 4250 1398 4047 
Q 1172 3844 1172 3481 
z
" transform="scale(0.015625)"/>
       </defs>
       <use xlink:href="#DejaVuSans-38"/>
       <use xlink:href="#DejaVuSans-30" transform="translate(63.623047 0)"/>
       <use xlink:href="#DejaVuSans-30" transform="translate(127.246094 0)"/>
       <use xlink:href="#DejaVuSans-30" transform="translate(190.869141 0)"/>
      </g>
     </g>
    </g>
    <g id="xtick_5">
     <g id="line2d_5">
      <g>
       <use xlink:href="#m0faf011f9b" x="518.4" y="320.4" style="stroke: #000000; stroke-width: 0.8"/>
      </g>
     </g>
     <g id="text_5">
      <!-- 10000 -->
      <g transform="translate(502.49375 334.998438) scale(0.1 -0.1)">
       <defs>
        <path id="DejaVuSans-31" d="M 794 531 
L 1825 531 
L 1825 4091 
L 703 3866 
L 703 4441 
L 1819 4666 
L 2450 4666 
L 2450 531 
L 3481 531 
L 3481 0 
L 794 0 
L 794 531 
z
" transform="scale(0.015625)"/>
       </defs>
       <use xlink:href="#DejaVuSans-31"/>
       <use xlink:href="#DejaVuSans-30" transform="translate(63.623047 0)"/>
       <use xlink:href="#DejaVuSans-30" transform="translate(127.246094 0)"/>
       <use xlink:href="#DejaVuSans-30" transform="translate(190.869141 0)"/>
       <use xlink:href="#DejaVuSans-30" transform="translate(254.492188 0)"/>
      </g>
     </g>
    </g>
    <g id="text_6">
     <!-- Training steps -->
     <g transform="translate(260.464844 348.676562) scale(0.1 -0.1)">
      <defs>
       <path id="DejaVuSans-54" d="M -19 4666 
L 3928 4666 
L 3928 4134 
L 2272 4134 
L 2272 0 
L 1638 0 
L 1638 4134 
L -19 4134 
L -19 4666 
z
" transform="scale(0.015625)"/>
       <path id="DejaVuSans-72" d="M 2631 2963 
Q 2534 3019 2420 3045 
Q 2306 3072 2169 3072 
Q 1681 3072 1420 2755 
Q 1159 2438 1159 1844 
L 1159 0 
L 581 0 
L 581 3500 
L 1159 3500 
L 1159 2956 
Q 1341 3275 1631 3429 
Q 1922 3584 2338 3584 
Q 2397 3584 2469 3576 
Q 2541 3569 2628 3553 
L 2631 2963 
z
" transform="scale(0.015625)"/>
       <path id="DejaVuSans-61" d="M 2194 1759 
Q 1497 1759 1228 1600 
Q 959 1441 959 1056 
Q 959 750 1161 570 
Q 1363 391 1709 391 
Q 2188 391 2477 730 
Q 2766 1069 2766 1631 
L 2766 1759 
L 2194 1759 
z
M 3341 1997 
L 3341 0 
L 2766 0 
L 2766 531 
Q 2569 213 2275 61 
Q 1981 -91 1556 -91 
Q 1019 -91 701 211 
Q 384 513 384 1019 
Q 384 1609 779 1909 
Q 1175 2209 1959 2209 
L 2766 2209 
L 2766 2266 
Q 2766 2663 2505 2880 
Q 2244 3097 1772 3097 
Q 1472 3097 1187 3025 
Q 903 2953 641 2809 
L 641 3341 
Q 956 3463 1253 3523 
Q 1550 3584 1831 3584 
Q 2591 3584 2966 3190 
Q 3341 2797 3341 1997 
z
" transform="scale(0.015625)"/>
       <path id="DejaVuSans-69" d="M 603 3500 
L 1178 3500 
L 1178 0 
L 603 0 
L 603 3500 
z
M 603 4863 
L 1178 4863 
L 1178 4134 
L 603 4134 
L 603 4863 
z
" transform="scale(0.015625)"/>
       <path id="DejaVuSans-6e" d="M 3513 2113 
L 3513 0 
L 2938 0 
L 2938 2094 
Q 2938 2591 2744 2837 
Q 2550 3084 2163 3084 
Q 1697 3084 1428 2787 
Q 1159 2491 1159 1978 
L 1159 0 
L 581 0 
L 581 3500 
L 1159 3500 
L 1159 2956 
Q 1366 3272 1645 3428 
Q 1925 3584 2291 3584 
Q 2894 3584 3203 3211 
Q 3513 2838 3513 2113 
z
" transform="scale(0.015625)"/>
       <path id="DejaVuSans-67" d="M 2906 1791 
Q 2906 2416 2648 2759 
Q 2391 3103 1925 3103 
Q 1463 3103 1205 2759 
Q 947 2416 947 1791 
Q 947 1169 1205 825 
Q 1463 481 1925 481 
Q 2391 481 2648 825 
Q 2906 1169 2906 1791 
z
M 3481 434 
Q 3481 -459 3084 -895 
Q 2688 -1331 1869 -1331 
Q 1566 -1331 1297 -1286 
Q 1028 -1241 775 -1147 
L 775 -588 
Q 1028 -725 1275 -790 
Q 1522 -856 1778 -856 
Q 2344 -856 2625 -561 
Q 2906 -266 2906 331 
L 2906 616 
Q 2728 306 2450 153 
Q 2172 0 1784 0 
Q 1141 0 747 490 
Q 353 981 353 1791 
Q 353 2603 747 3093 
Q 1141 3584 1784 3584 
Q 2172 3584 2450 3431 
Q 2728 3278 2906 2969 
L 2906 3500 
L 3481 3500 
L 3481 434 
z
" transform="scale(0.015625)"/>
       <path id="DejaVuSans-20" transform="scale(0.015625)"/>
       <path id="DejaVuSans-73" d="M 2834 3397 
L 2834 2853 
Q 2591 2978 2328 3040 
Q 2066 3103 1784 3103 
Q 1356 3103 1142 2972 
Q 928 2841 928 2578 
Q 928 2378 1081 2264 
Q 1234 2150 1697 2047 
L 1894 2003 
Q 2506 1872 2764 1633 
Q 3022 1394 3022 966 
Q 3022 478 2636 193 
Q 2250 -91 1575 -91 
Q 1294 -91 989 -36 
Q 684 19 347 128 
L 347 722 
Q 666 556 975 473 
Q 1284 391 1588 391 
Q 1994 391 2212 530 
Q 2431 669 2431 922 
Q 2431 1156 2273 1281 
Q 2116 1406 1581 1522 
L 1381 1569 
Q 847 1681 609 1914 
Q 372 2147 372 2553 
Q 372 3047 722 3315 
Q 1072 3584 1716 3584 
Q 2034 3584 2315 3537 
Q 2597 3491 2834 3397 
z
" transform="scale(0.015625)"/>
       <path id="DejaVuSans-74" d="M 1172 4494 
L 1172 3500 
L 2356 3500 
L 2356 3053 
L 1172 3053 
L 1172 1153 
Q 1172 725 1289 603 
Q 1406 481 1766 481 
L 2356 481 
L 2356 0 
L 1766 0 
Q 1100 0 847 248 
Q 594 497 594 1153 
L 594 3053 
L 172 3053 
L 172 3500 
L 594 3500 
L 594 4494 
L 1172 4494 
z
" transform="scale(0.015625)"/>
       <path id="DejaVuSans-65" d="M 3597 1894 
L 3597 1613 
L 953 1613 
Q 991 1019 1311 708 
Q 1631 397 2203 397 
Q 2534 397 2845 478 
Q 3156 559 3463 722 
L 3463 178 
Q 3153 47 2828 -22 
Q 2503 -91 2169 -91 
Q 1331 -91 842 396 
Q 353 884 353 1716 
Q 353 2575 817 3079 
Q 1281 3584 2069 3584 
Q 2775 3584 3186 3129 
Q 3597 2675 3597 1894 
z
M 3022 2063 
Q 3016 2534 2758 2815 
Q 2500 3097 2075 3097 
Q 1594 3097 1305 2825 
Q 1016 2553 972 2059 
L 3022 2063 
z
" transform="scale(0.015625)"/>
       <path id="DejaVuSans-70" d="M 1159 525 
L 1159 -1331 
L 581 -1331 
L 581 3500 
L 1159 3500 
L 1159 2969 
Q 1341 3281 1617 3432 
Q 1894 3584 2278 3584 
Q 2916 3584 3314 3078 
Q 3713 2572 3713 1747 
Q 3713 922 3314 415 
Q 2916 -91 2278 -91 
Q 1894 -91 1617 61 
Q 1341 213 1159 525 
z
M 3116 1747 
Q 3116 2381 2855 2742 
Q 2594 3103 2138 3103 
Q 1681 3103 1420 2742 
Q 1159 2381 1159 1747 
Q 1159 1113 1420 752 
Q 1681 391 2138 391 
Q 2594 391 2855 752 
Q 3116 1113 3116 1747 
z
" transform="scale(0.015625)"/>
      </defs>
      <use xlink:href="#DejaVuSans-54"/>
      <use xlink:href="#DejaVuSans-72" transform="translate(46.333984 0)"/>
      <use xlink:href="#DejaVuSans-61" transform="translate(87.447266 0)"/>
      <use xlink:href="#DejaVuSans-69" transform="translate(148.726562 0)"/>
      <use xlink:href="#DejaVuSans-6e" transform="translate(176.509766 0)"/>
      <use xlink:href="#DejaVuSans-69" transform="translate(239.888672 0)"/>
      <use xlink:href="#DejaVuSans-6e" transform="translate(267.671875 0)"/>
      <use xlink:href="#DejaVuSans-67" transform="translate(331.050781 0)"/>
      <use xlink:href="#DejaVuSans-20" transform="translate(394.527344 0)"/>
      <use xlink:href="#DejaVuSans-73" transform="translate(426.314453 0)"/>
      <use xlink:href="#DejaVuSans-74" transform="translate(478.414062 0)"/>
      <use xlink:href="#DejaVuSans-65" transform="translate(517.623047 0)"/>
      <use xlink:href="#DejaVuSans-70" transform="translate(579.146484 0)"/>
      <use xlink:href="#DejaVuSans-73" transform="translate(642.623047 0)"/>
     </g>
    </g>
   </g>
   <g id="matplotlib.axis_2">
    <g id="ytick_1">
     <g id="line2d_6">
      <defs>
       <path id="m0dc1a26314" d="M 0 0 
L -3.5 0 
" style="stroke: #000000; stroke-width: 0.8"/>
      </defs>
      <g>
       <use xlink:href="#m0dc1a26314" x="72" y="287.006202" style="stroke: #000000; stroke-width: 0.8"/>
      </g>
     </g>
     <g id="text_7">
      <!-- 0.4 -->
      <g transform="translate(49.096875 290.80542) scale(0.1 -0.1)">
       <defs>
        <path id="DejaVuSans-2e" d="M 684 794 
L 1344 794 
L 1344 0 
L 684 0 
L 684 794 
z
" transform="scale(0.015625)"/>
       </defs>
       <use xlink:href="#DejaVuSans-30"/>
       <use xlink:href="#DejaVuSans-2e" transform="translate(63.623047 0)"/>
       <use xlink:href="#DejaVuSans-34" transform="translate(95.410156 0)"/>
      </g>
     </g>
    </g>
    <g id="ytick_2">
     <g id="line2d_7">
      <g>
       <use xlink:href="#m0dc1a26314" x="72" y="243.595349" style="stroke: #000000; stroke-width: 0.8"/>
      </g>
     </g>
     <g id="text_8">
      <!-- 0.5 -->
      <g transform="translate(49.096875 247.394568) scale(0.1 -0.1)">
       <defs>
        <path id="DejaVuSans-35" d="M 691 4666 
L 3169 4666 
L 3169 4134 
L 1269 4134 
L 1269 2991 
Q 1406 3038 1543 3061 
Q 1681 3084 1819 3084 
Q 2600 3084 3056 2656 
Q 3513 2228 3513 1497 
Q 3513 744 3044 326 
Q 2575 -91 1722 -91 
Q 1428 -91 1123 -41 
Q 819 9 494 109 
L 494 744 
Q 775 591 1075 516 
Q 1375 441 1709 441 
Q 2250 441 2565 725 
Q 2881 1009 2881 1497 
Q 2881 1984 2565 2268 
Q 2250 2553 1709 2553 
Q 1456 2553 1204 2497 
Q 953 2441 691 2322 
L 691 4666 
z
" transform="scale(0.015625)"/>
       </defs>
       <use xlink:href="#DejaVuSans-30"/>
       <use xlink:href="#DejaVuSans-2e" transform="translate(63.623047 0)"/>
       <use xlink:href="#DejaVuSans-35" transform="translate(95.410156 0)"/>
      </g>
     </g>
    </g>
    <g id="ytick_3">
     <g id="line2d_8">
      <g>
       <use xlink:href="#m0dc1a26314" x="72" y="200.184496" style="stroke: #000000; stroke-width: 0.8"/>
      </g>
     </g>
     <g id="text_9">
      <!-- 0.6 -->
      <g transform="translate(49.096875 203.983715) scale(0.1 -0.1)">
       <use xlink:href="#DejaVuSans-30"/>
       <use xlink:href="#DejaVuSans-2e" transform="translate(63.623047 0)"/>
       <use xlink:href="#DejaVuSans-36" transform="translate(95.410156 0)"/>
      </g>
     </g>
    </g>
    <g id="ytick_4">
     <g id="line2d_9">
      <g>
       <use xlink:href="#m0dc1a26314" x="72" y="156.773643" style="stroke: #000000; stroke-width: 0.8"/>
      </g>
     </g>
     <g id="text_10">
      <!-- 0.7 -->
      <g transform="translate(49.096875 160.572862) scale(0.1 -0.1)">
       <defs>
        <path id="DejaVuSans-37" d="M 525 4666 
L 3525 4666 
L 3525 4397 
L 1831 0 
L 1172 0 
L 2766 4134 
L 525 4134 
L 525 4666 
z
" transform="scale(0.015625)"/>
       </defs>
       <use xlink:href="#DejaVuSans-30"/>
       <use xlink:href="#DejaVuSans-2e" transform="translate(63.623047 0)"/>
       <use xlink:href="#DejaVuSans-37" transform="translate(95.410156 0)"/>
      </g>
     </g>
    </g>
    <g id="ytick_5">
     <g id="line2d_10">
      <g>
       <use xlink:href="#m0dc1a26314" x="72" y="113.362791" style="stroke: #000000; stroke-width: 0.8"/>
      </g>
     </g>
     <g id="text_11">
      <!-- 0.8 -->
      <g transform="translate(49.096875 117.162009) scale(0.1 -0.1)">
       <use xlink:href="#DejaVuSans-30"/>
       <use xlink:href="#DejaVuSans-2e" transform="translate(63.623047 0)"/>
       <use xlink:href="#DejaVuSans-38" transform="translate(95.410156 0)"/>
      </g>
     </g>
    </g>
    <g id="ytick_6">
     <g id="line2d_11">
      <g>
       <use xlink:href="#m0dc1a26314" x="72" y="69.951938" style="stroke: #000000; stroke-width: 0.8"/>
      </g>
     </g>
     <g id="text_12">
      <!-- 0.9 -->
      <g transform="translate(49.096875 73.751157) scale(0.1 -0.1)">
       <defs>
        <path id="DejaVuSans-39" d="M 703 97 
L 703 672 
Q 941 559 1184 500 
Q 1428 441 1663 441 
Q 2288 441 2617 861 
Q 2947 1281 2994 2138 
Q 2813 1869 2534 1725 
Q 2256 1581 1919 1581 
Q 1219 1581 811 2004 
Q 403 2428 403 3163 
Q 403 3881 828 4315 
Q 1253 4750 1959 4750 
Q 2769 4750 3195 4129 
Q 3622 3509 3622 2328 
Q 3622 1225 3098 567 
Q 2575 -91 1691 -91 
Q 1453 -91 1209 -44 
Q 966 3 703 97 
z
M 1959 2075 
Q 2384 2075 2632 2365 
Q 2881 2656 2881 3163 
Q 2881 3666 2632 3958 
Q 2384 4250 1959 4250 
Q 1534 4250 1286 3958 
Q 1038 3666 1038 3163 
Q 1038 2656 1286 2365 
Q 1534 2075 1959 2075 
z
" transform="scale(0.015625)"/>
       </defs>
       <use xlink:href="#DejaVuSans-30"/>
       <use xlink:href="#DejaVuSans-2e" transform="translate(63.623047 0)"/>
       <use xlink:href="#DejaVuSans-39" transform="translate(95.410156 0)"/>
      </g>
     </g>
    </g>
    <g id="text_13">
     <!-- Loss -->
     <g transform="translate(43.017187 192.767187) rotate(-90) scale(0.1 -0.1)">
      <defs>
       <path id="DejaVuSans-4c" d="M 628 4666 
L 1259 4666 
L 1259 531 
L 3531 531 
L 3531 0 
L 628 0 
L 628 4666 
z
" transform="scale(0.015625)"/>
       <path id="DejaVuSans-6f" d="M 1959 3097 
Q 1497 3097 1228 2736 
Q 959 2375 959 1747 
Q 959 1119 1226 758 
Q 1494 397 1959 397 
Q 2419 397 2687 759 
Q 2956 1122 2956 1747 
Q 2956 2369 2687 2733 
Q 2419 3097 1959 3097 
z
M 1959 3584 
Q 2709 3584 3137 3096 
Q 3566 2609 3566 1747 
Q 3566 888 3137 398 
Q 2709 -91 1959 -91 
Q 1206 -91 779 398 
Q 353 888 353 1747 
Q 353 2609 779 3096 
Q 1206 3584 1959 3584 
z
" transform="scale(0.015625)"/>
      </defs>
      <use xlink:href="#DejaVuSans-4c"/>
      <use xlink:href="#DejaVuSans-6f" transform="translate(53.962891 0)"/>
      <use xlink:href="#DejaVuSans-73" transform="translate(115.144531 0)"/>
      <use xlink:href="#DejaVuSans-73" transform="translate(167.244141 0)"/>
     </g>
    </g>
   </g>
   <g id="line2d_12">
    <path d="M 72 133.114729 
L 76.509091 155.514729 
L 81.018182 178.131783 
L 85.527273 172.227907 
L 90.036364 173.052713 
L 94.545455 170.968992 
L 99.054545 176.221705 
L 103.563636 190.286822 
L 108.072727 186.075969 
L 112.581818 179.390698 
L 117.090909 175.787597 
L 121.6 192.413953 
L 126.109091 166.237209 
L 130.618182 169.058915 
L 135.127273 182.776744 
L 139.636364 186.64031 
L 144.145455 172.662016 
L 148.654545 183.341085 
L 153.163636 186.162791 
L 157.672727 182.168992 
L 162.181818 180.996899 
L 166.690909 179.434109 
L 171.2 186.162791 
L 175.709091 192.153488 
L 180.218182 190.243411 
L 184.727273 177.046512 
L 189.236364 189.244961 
L 193.745455 183.124031 
L 198.254545 181.257364 
L 202.763636 199.489922 
L 207.272727 190.72093 
L 211.781818 194.020155 
L 216.290909 196.234109 
L 220.8 193.499225 
L 225.309091 191.632558 
L 229.818182 193.542636 
L 234.327273 198.83876 
L 238.836364 192.76124 
L 243.345455 193.195349 
L 247.854545 210.993798 
L 252.363636 200.40155 
L 256.872727 200.748837 
L 261.381818 198.231008 
L 265.890909 191.068217 
L 270.4 188.15969 
L 274.909091 187.334884 
L 279.418182 207 
L 283.927273 195.8 
L 288.436364 191.024806 
L 292.945455 198.144186 
L 297.454545 191.24186 
L 301.963636 189.982946 
L 306.472727 207.564341 
L 310.981818 204.742636 
L 315.490909 200.922481 
L 320 196.928682 
L 324.509091 207.955039 
L 329.018182 208.302326 
L 333.527273 197.232558 
L 338.036364 211.254264 
L 342.545455 214.249612 
L 347.054545 207.911628 
L 351.563636 206.218605 
L 356.072727 207.043411 
L 360.581818 193.933333 
L 365.090909 201.052713 
L 369.6 213.555039 
L 374.109091 207.173643 
L 378.618182 218.547287 
L 383.127273 215.986047 
L 387.636364 205.133333 
L 392.145455 207.173643 
L 396.654545 209.257364 
L 401.163636 211.297674 
L 405.672727 214.727132 
L 410.181818 209.474419 
L 414.690909 207.694574 
L 419.2 214.423256 
L 423.709091 198.968992 
L 428.218182 207.607752 
L 432.727273 216.15969 
L 437.236364 198.665116 
L 441.745455 213.381395 
L 446.254545 206.869767 
L 450.763636 207.99845 
L 455.272727 220.110078 
L 459.781818 220.717829 
L 464.290909 223.062016 
L 468.8 222.020155 
L 473.309091 231.657364 
L 477.818182 235.52093 
L 482.327273 214.683721 
L 486.836364 222.931783 
L 491.345455 229.486822 
L 495.854545 212.817054 
L 500.363636 230.094574 
L 504.872727 228.705426 
L 509.381818 224.234109 
L 513.890909 205.784496 
L 518.4 211.775194 
" clip-path="url(#p71d5a8b2ee)" style="fill: none; stroke: #1f77b4; stroke-width: 1.5; stroke-linecap: square"/>
   </g>
   <g id="line2d_13">
    <path d="M 72 55.8 
L 76.509091 153.648062 
L 81.018182 166.28062 
L 85.527273 161.027907 
L 90.036364 171.88062 
L 94.545455 156.339535 
L 99.054545 171.35969 
L 103.563636 169.970543 
L 108.072727 161.67907 
L 112.581818 178.131783 
L 117.090909 175.831008 
L 121.6 177.393798 
L 126.109091 169.449612 
L 130.618182 162.373643 
L 135.127273 177.263566 
L 139.636364 164.500775 
L 144.145455 166.324031 
L 148.654545 158.900775 
L 153.163636 181.170543 
L 157.672727 171.663566 
L 162.181818 176.048062 
L 166.690909 186.944186 
L 171.2 180.389147 
L 175.709091 174.355039 
L 180.218182 176.655814 
L 184.727273 175.136434 
L 189.236364 173.226357 
L 193.745455 176.525581 
L 198.254545 162.243411 
L 202.763636 202.268217 
L 207.272727 183.037209 
L 211.781818 184.165891 
L 216.290909 186.596899 
L 220.8 190.069767 
L 225.309091 196.755039 
L 229.818182 178.348837 
L 234.327273 192.283721 
L 238.836364 198.057364 
L 243.345455 188.072868 
L 247.854545 188.116279 
L 252.363636 191.24186 
L 256.872727 190.373643 
L 261.381818 177.610853 
L 265.890909 188.333333 
L 270.4 188.810853 
L 274.909091 173.269767 
L 279.418182 186.64031 
L 283.927273 192.283721 
L 288.436364 195.843411 
L 292.945455 197.623256 
L 297.454545 189.939535 
L 301.963636 190.460465 
L 306.472727 189.852713 
L 310.981818 201.096124 
L 315.490909 187.291473 
L 320 181.213953 
L 324.509091 195.8 
L 329.018182 206.435659 
L 333.527273 200.271318 
L 338.036364 204.308527 
L 342.545455 207.737984 
L 347.054545 200.705426 
L 351.563636 201.617054 
L 356.072727 189.027907 
L 360.581818 185.728682 
L 365.090909 191.502326 
L 369.6 197.406202 
L 374.109091 206.869767 
L 378.618182 205.524031 
L 383.127273 216.029457 
L 387.636364 199.967442 
L 392.145455 193.412403 
L 396.654545 204.221705 
L 401.163636 210.342636 
L 405.672727 211.341085 
L 410.181818 191.762791 
L 414.690909 208.910078 
L 419.2 209.213953 
L 423.709091 192.891473 
L 428.218182 217.071318 
L 432.727273 206.522481 
L 437.236364 200.054264 
L 441.745455 208.302326 
L 446.254545 201.269767 
L 450.763636 206.696124 
L 455.272727 207.173643 
L 459.781818 207.086822 
L 464.290909 209.300775 
L 468.8 214.596899 
L 473.309091 221.108527 
L 477.818182 211.037209 
L 482.327273 223.496124 
L 486.836364 212.382946 
L 491.345455 220.631008 
L 495.854545 201.226357 
L 500.363636 217.375194 
L 504.872727 229.660465 
L 509.381818 214.249612 
L 513.890909 196.624806 
L 518.4 211.60155 
" clip-path="url(#p71d5a8b2ee)" style="fill: none; stroke: #ff7f0e; stroke-width: 1.5; stroke-linecap: square"/>
   </g>
   <g id="line2d_14">
    <path d="M 72 191.849612 
L 76.509091 219.502326 
L 81.018182 215.899225 
L 85.527273 228.271318 
L 90.036364 234.522481 
L 94.545455 219.111628 
L 99.054545 234.826357 
L 103.563636 230.702326 
L 108.072727 234.088372 
L 112.581818 225.015504 
L 117.090909 244.854264 
L 121.6 250.28062 
L 126.109091 224.537984 
L 130.618182 225.145736 
L 135.127273 238.646512 
L 139.636364 246.851163 
L 144.145455 241.294574 
L 148.654545 237.778295 
L 153.163636 236.866667 
L 157.672727 240.513178 
L 162.181818 229.617054 
L 166.690909 239.297674 
L 171.2 246.156589 
L 175.709091 246.330233 
L 180.218182 241.077519 
L 184.727273 239.775194 
L 189.236364 226.404651 
L 193.745455 239.08062 
L 198.254545 225.536434 
L 202.763636 262.782946 
L 207.272727 237.604651 
L 211.781818 247.502326 
L 216.290909 248.196899 
L 220.8 253.883721 
L 225.309091 266.03876 
L 229.818182 255.229457 
L 234.327273 245.809302 
L 238.836364 237.387597 
L 243.345455 257.486822 
L 247.854545 259.266667 
L 252.363636 258.44186 
L 256.872727 247.893023 
L 261.381818 239.731783 
L 265.890909 249.542636 
L 270.4 248.023256 
L 274.909091 246.417054 
L 279.418182 248.717829 
L 283.927273 249.021705 
L 288.436364 248.934884 
L 292.945455 259.396899 
L 297.454545 249.065116 
L 301.963636 252.84186 
L 306.472727 255.620155 
L 310.981818 267.948837 
L 315.490909 255.446512 
L 320 262.392248 
L 324.509091 258.832558 
L 329.018182 273.765891 
L 333.527273 261.089922 
L 338.036364 268.773643 
L 342.545455 284.618605 
L 347.054545 259.917829 
L 351.563636 269.381395 
L 356.072727 245.288372 
L 360.581818 257.052713 
L 365.090909 259.657364 
L 369.6 260.525581 
L 374.109091 270.683721 
L 378.618182 268.252713 
L 383.127273 275.155039 
L 387.636364 263.955039 
L 392.145455 270.510078 
L 396.654545 272.203101 
L 401.163636 274.460465 
L 405.672727 261.089922 
L 410.181818 262.522481 
L 414.690909 263.52093 
L 419.2 251.843411 
L 423.709091 268.513178 
L 428.218182 258.962791 
L 432.727273 269.64186 
L 437.236364 260.43876 
L 441.745455 261.089922 
L 446.254545 269.64186 
L 450.763636 273.635659 
L 455.272727 285.269767 
L 459.781818 281.232558 
L 464.290909 283.099225 
L 468.8 269.034109 
L 473.309091 292.172093 
L 477.818182 282.448062 
L 482.327273 287.310078 
L 486.836364 279.626357 
L 491.345455 286.745736 
L 495.854545 271.465116 
L 500.363636 296.122481 
L 504.872727 280.711628 
L 509.381818 275.762791 
L 513.890909 274.026357 
L 518.4 271.204651 
" clip-path="url(#p71d5a8b2ee)" style="fill: none; stroke: #2ca02c; stroke-width: 1.5; stroke-linecap: square"/>
   </g>
   <g id="line2d_15">
    <path d="M 72 92.786047 
L 76.509091 169.31938 
L 81.018182 185.034109 
L 85.527273 191.415504 
L 90.036364 203.483721 
L 94.545455 191.675969 
L 99.054545 186.944186 
L 103.563636 209.04031 
L 108.072727 193.368992 
L 112.581818 194.410853 
L 117.090909 207.911628 
L 121.6 224.147287 
L 126.109091 198.751938 
L 130.618182 209.691473 
L 135.127273 206.305426 
L 139.636364 203.744186 
L 144.145455 184.07907 
L 148.654545 211.514729 
L 153.163636 203.223256 
L 157.672727 211.08062 
L 162.181818 202.745736 
L 166.690909 208.085271 
L 171.2 203.831008 
L 175.709091 213.251163 
L 180.218182 210.689922 
L 184.727273 202.137984 
L 189.236364 194.844961 
L 193.745455 216.637209 
L 198.254545 196.32093 
L 202.763636 205.306977 
L 207.272727 205.089922 
L 211.781818 208.172093 
L 216.290909 219.589147 
L 220.8 200.35814 
L 225.309091 225.449612 
L 229.818182 209.604651 
L 234.327273 209.127132 
L 238.836364 210.906977 
L 243.345455 220.978295 
L 247.854545 216.506977 
L 252.363636 221.151938 
L 256.872727 225.579845 
L 261.381818 203.613953 
L 265.890909 193.542636 
L 270.4 204.134884 
L 274.909091 198.968992 
L 279.418182 216.246512 
L 283.927273 207.651163 
L 288.436364 211.167442 
L 292.945455 229.009302 
L 297.454545 212.773643 
L 301.963636 218.72093 
L 306.472727 231.266667 
L 310.981818 231.266667 
L 315.490909 223.105426 
L 320 226.491473 
L 324.509091 224.972093 
L 329.018182 232.178295 
L 333.527273 214.162791 
L 338.036364 226.144186 
L 342.545455 248.24031 
L 347.054545 230.094574 
L 351.563636 228.010853 
L 356.072727 223.365891 
L 360.581818 219.589147 
L 365.090909 221.672868 
L 369.6 216.941085 
L 374.109091 233.610853 
L 378.618182 229.4 
L 383.127273 246.026357 
L 387.636364 233.133333 
L 392.145455 236.606202 
L 396.654545 234.262016 
L 401.163636 244.897674 
L 405.672727 240.6 
L 410.181818 232.872868 
L 414.690909 230.137984 
L 419.2 227.750388 
L 423.709091 231.917829 
L 428.218182 225.84031 
L 432.727273 240.339535 
L 437.236364 230.268217 
L 441.745455 241.945736 
L 446.254545 235.52093 
L 450.763636 234.565891 
L 455.272727 254.100775 
L 459.781818 252.060465 
L 464.290909 250.75814 
L 468.8 242.727132 
L 473.309091 254.665116 
L 477.818182 250.80155 
L 482.327273 259.527132 
L 486.836364 245.982946 
L 491.345455 255.837209 
L 495.854545 246.894574 
L 500.363636 253.406202 
L 504.872727 252.234109 
L 509.381818 247.675969 
L 513.890909 235.911628 
L 518.4 240.122481 
" clip-path="url(#p71d5a8b2ee)" style="fill: none; stroke: #d62728; stroke-width: 1.5; stroke-linecap: square"/>
   </g>
   <g id="line2d_16">
    <path d="M 72 164.24031 
L 76.509091 209.908527 
L 81.018182 218.72093 
L 85.527273 229.877519 
L 90.036364 228.965891 
L 94.545455 217.418605 
L 99.054545 239.254264 
L 103.563636 222.541085 
L 108.072727 236.128682 
L 112.581818 224.84186 
L 117.090909 242.813953 
L 121.6 254.274419 
L 126.109091 237.213953 
L 130.618182 223.365891 
L 135.127273 235.564341 
L 139.636364 233.697674 
L 144.145455 245.765891 
L 148.654545 237.170543 
L 153.163636 251.539535 
L 157.672727 240.209302 
L 162.181818 222.714729 
L 166.690909 245.852713 
L 171.2 242.727132 
L 175.709091 246.72093 
L 180.218182 239.731783 
L 184.727273 234.826357 
L 189.236364 239.341085 
L 193.745455 239.775194 
L 198.254545 229.009302 
L 202.763636 269.12093 
L 207.272727 241.294574 
L 211.781818 254.83876 
L 216.290909 245.592248 
L 220.8 260.048062 
L 225.309091 269.381395 
L 229.818182 253.406202 
L 234.327273 251.018605 
L 238.836364 243.508527 
L 243.345455 265.648062 
L 247.854545 260.004651 
L 252.363636 248.891473 
L 256.872727 250.888372 
L 261.381818 252.407752 
L 265.890909 248.544186 
L 270.4 251.626357 
L 274.909091 248.848062 
L 279.418182 254.534884 
L 283.927273 241.251163 
L 288.436364 256.618605 
L 292.945455 265.604651 
L 297.454545 261.827907 
L 301.963636 259.396899 
L 306.472727 260.872868 
L 310.981818 267.08062 
L 315.490909 257.486822 
L 320 271.465116 
L 324.509091 268.860465 
L 329.018182 276.76124 
L 333.527273 268.469767 
L 338.036364 263.911628 
L 342.545455 280.017054 
L 347.054545 269.207752 
L 351.563636 274.72093 
L 356.072727 254.317829 
L 360.581818 265.56124 
L 365.090909 267.992248 
L 369.6 261.220155 
L 374.109091 281.883721 
L 378.618182 284.87907 
L 383.127273 286.137984 
L 387.636364 270.11938 
L 392.145455 262.47907 
L 396.654545 270.64031 
L 401.163636 283.706977 
L 405.672727 273.244961 
L 410.181818 274.069767 
L 414.690909 270.770543 
L 419.2 266.950388 
L 423.709091 279.626357 
L 428.218182 264.432558 
L 432.727273 281.058915 
L 437.236364 278.063566 
L 441.745455 281.623256 
L 446.254545 270.64031 
L 450.763636 295.514729 
L 455.272727 300.506977 
L 459.781818 306.497674 
L 464.290909 291.477519 
L 468.8 291.477519 
L 473.309091 298.336434 
L 477.818182 291.217054 
L 482.327273 300.593798 
L 486.836364 286.572093 
L 491.345455 295.55814 
L 495.854545 287.266667 
L 500.363636 302.330233 
L 504.872727 307.8 
L 509.381818 279.886822 
L 513.890909 306.324031 
L 518.4 292.389147 
" clip-path="url(#p71d5a8b2ee)" style="fill: none; stroke: #9467bd; stroke-width: 1.5; stroke-linecap: square"/>
   </g>
   <g id="line2d_17">
    <path d="M 72 178.565891 
L 76.509091 206.175194 
L 81.018182 213.424806 
L 85.527273 218.894574 
L 90.036364 224.711628 
L 94.545455 211.167442 
L 99.054545 229.703876 
L 103.563636 229.139535 
L 108.072727 231.483721 
L 112.581818 223.930233 
L 117.090909 240.903876 
L 121.6 244.246512 
L 126.109091 229.660465 
L 130.618182 226.231008 
L 135.127273 236.172093 
L 139.636364 239.341085 
L 144.145455 246.373643 
L 148.654545 238.299225 
L 153.163636 232.265116 
L 157.672727 240.382946 
L 162.181818 224.711628 
L 166.690909 242.857364 
L 171.2 235.651163 
L 175.709091 244.15969 
L 180.218182 242.206202 
L 184.727273 238.125581 
L 189.236364 232.048062 
L 193.745455 241.511628 
L 198.254545 226.231008 
L 202.763636 257.486822 
L 207.272727 236.085271 
L 211.781818 251.105426 
L 216.290909 242.11938 
L 220.8 252.234109 
L 225.309091 259.093023 
L 229.818182 251.669767 
L 234.327273 239.037209 
L 238.836364 227.142636 
L 243.345455 247.71938 
L 247.854545 257.660465 
L 252.363636 263.694574 
L 256.872727 247.24186 
L 261.381818 242.206202 
L 265.890909 242.075969 
L 270.4 243.682171 
L 274.909091 240.382946 
L 279.418182 240.382946 
L 283.927273 229.834109 
L 288.436364 240.426357 
L 292.945455 250.324031 
L 297.454545 237.865116 
L 301.963636 244.463566 
L 306.472727 251.930233 
L 310.981818 254.534884 
L 315.490909 249.368992 
L 320 259.874419 
L 324.509091 254.144186 
L 329.018182 263.564341 
L 333.527273 250.28062 
L 338.036364 255.533333 
L 342.545455 264.953488 
L 347.054545 252.147287 
L 351.563636 259.006202 
L 356.072727 244.029457 
L 360.581818 249.23876 
L 365.090909 252.84186 
L 369.6 253.493023 
L 374.109091 263.086822 
L 378.618182 268.990698 
L 383.127273 271.942636 
L 387.636364 260.351938 
L 392.145455 257.617054 
L 396.654545 256.444961 
L 401.163636 273.027907 
L 405.672727 257.573643 
L 410.181818 260.091473 
L 414.690909 257.052713 
L 419.2 253.493023 
L 423.709091 261.306977 
L 428.218182 258.615504 
L 432.727273 261.610853 
L 437.236364 259.570543 
L 441.745455 257.530233 
L 446.254545 255.837209 
L 450.763636 268.903876 
L 455.272727 275.806202 
L 459.781818 282.231008 
L 464.290909 280.84186 
L 468.8 257.92093 
L 473.309091 278.150388 
L 477.818182 276.153488 
L 482.327273 270.857364 
L 486.836364 270.293023 
L 491.345455 273.331783 
L 495.854545 259.527132 
L 500.363636 277.499225 
L 504.872727 278.497674 
L 509.381818 264.779845 
L 513.890909 271.986047 
L 518.4 266.212403 
" clip-path="url(#p71d5a8b2ee)" style="fill: none; stroke: #8c564b; stroke-width: 1.5; stroke-linecap: square"/>
   </g>
   <g id="line2d_18">
    <path d="M 72 145.530233 
L 76.509091 185.294574 
L 81.018182 191.71938 
L 85.527273 215.986047 
L 90.036364 201.096124 
L 94.545455 194.193798 
L 99.054545 212.6 
L 103.563636 215.508527 
L 108.072727 203.787597 
L 112.581818 201.226357 
L 117.090909 218.113178 
L 121.6 222.410853 
L 126.109091 214.206202 
L 130.618182 211.471318 
L 135.127273 217.331783 
L 139.636364 213.12093 
L 144.145455 205.524031 
L 148.654545 219.71938 
L 153.163636 215.074419 
L 157.672727 208.910078 
L 162.181818 208.693023 
L 166.690909 221.108527 
L 171.2 211.514729 
L 175.709091 219.111628 
L 180.218182 220.196899 
L 184.727273 220.674419 
L 189.236364 209.648062 
L 193.745455 198.534884 
L 198.254545 213.902326 
L 202.763636 243.117829 
L 207.272727 217.548837 
L 211.781818 226.231008 
L 216.290909 231.483721 
L 220.8 228.662016 
L 225.309091 232.655814 
L 229.818182 236.475969 
L 234.327273 225.232558 
L 238.836364 217.635659 
L 243.345455 233.654264 
L 247.854545 243.899225 
L 252.363636 237.865116 
L 256.872727 232.742636 
L 261.381818 211.254264 
L 265.890909 229.269767 
L 270.4 214.683721 
L 274.909091 218.937984 
L 279.418182 238.299225 
L 283.927273 230.789147 
L 288.436364 225.710078 
L 292.945455 246.981395 
L 297.454545 231.483721 
L 301.963636 232.43876 
L 306.472727 248.934884 
L 310.981818 251.365891 
L 315.490909 236.04186 
L 320 255.967442 
L 324.509091 245.939535 
L 329.018182 255.663566 
L 333.527273 237.648062 
L 338.036364 249.325581 
L 342.545455 257.834109 
L 347.054545 250.80155 
L 351.563636 244.072868 
L 356.072727 242.813953 
L 360.581818 240.339535 
L 365.090909 235.737984 
L 369.6 241.858915 
L 374.109091 251.148837 
L 378.618182 252.928682 
L 383.127273 260.048062 
L 387.636364 253.493023 
L 392.145455 258.485271 
L 396.654545 244.15969 
L 401.163636 263.173643 
L 405.672727 250.410853 
L 410.181818 243.855814 
L 414.690909 241.164341 
L 419.2 246.156589 
L 423.709091 250.063566 
L 428.218182 241.858915 
L 432.727273 257.009302 
L 437.236364 236.345736 
L 441.745455 252.755039 
L 446.254545 257.486822 
L 450.763636 269.207752 
L 455.272727 272.333333 
L 459.781818 284.314729 
L 464.290909 285.096124 
L 468.8 261.437209 
L 473.309091 277.455814 
L 477.818182 272.897674 
L 482.327273 289.437209 
L 486.836364 268.860465 
L 491.345455 287.353488 
L 495.854545 263.824806 
L 500.363636 281.493023 
L 504.872727 282.665116 
L 509.381818 269.728682 
L 513.890909 272.984496 
L 518.4 269.772093 
" clip-path="url(#p71d5a8b2ee)" style="fill: none; stroke: #e377c2; stroke-width: 1.5; stroke-linecap: square"/>
   </g>
   <g id="line2d_19">
    <path d="M 72 157.034109 
L 76.509091 212.6 
L 81.018182 179.217054 
L 85.527273 189.20155 
L 90.036364 206.175194 
L 94.545455 195.713178 
L 99.054545 195.886822 
L 103.563636 211.60155 
L 108.072727 216.072868 
L 112.581818 207.651163 
L 117.090909 218.634109 
L 121.6 211.471318 
L 126.109091 220.891473 
L 130.618182 201.747287 
L 135.127273 217.809302 
L 139.636364 226.317829 
L 144.145455 219.24186 
L 148.654545 219.806202 
L 153.163636 213.207752 
L 157.672727 215.63876 
L 162.181818 215.942636 
L 166.690909 229.790698 
L 171.2 232.872868 
L 175.709091 232.43876 
L 180.218182 233.567442 
L 184.727273 233.567442 
L 189.236364 225.362791 
L 193.745455 230.268217 
L 198.254545 216.941085 
L 202.763636 246.156589 
L 207.272727 226.882171 
L 211.781818 237.865116 
L 216.290909 232.004651 
L 220.8 238.168992 
L 225.309091 251.235659 
L 229.818182 241.555039 
L 234.327273 232.612403 
L 238.836364 224.017054 
L 243.345455 242.249612 
L 247.854545 251.626357 
L 252.363636 251.409302 
L 256.872727 246.243411 
L 261.381818 225.189147 
L 265.890909 233.306977 
L 270.4 230.137984 
L 274.909091 241.989147 
L 279.418182 238.603101 
L 283.927273 235.694574 
L 288.436364 239.384496 
L 292.945455 250.410853 
L 297.454545 246.373643 
L 301.963636 245.331783 
L 306.472727 253.536434 
L 310.981818 261.567442 
L 315.490909 246.243411 
L 320 254.665116 
L 324.509091 253.275969 
L 329.018182 264.51938 
L 333.527273 256.488372 
L 338.036364 259.527132 
L 342.545455 268.6 
L 347.054545 252.407752 
L 351.563636 263.477519 
L 356.072727 240.035659 
L 360.581818 241.858915 
L 365.090909 248.413953 
L 369.6 262.088372 
L 374.109091 260.178295 
L 378.618182 264.910078 
L 383.127273 269.251163 
L 387.636364 257.269767 
L 392.145455 258.572093 
L 396.654545 259.483721 
L 401.163636 268.730233 
L 405.672727 251.062016 
L 410.181818 266.299225 
L 414.690909 259.006202 
L 419.2 256.141085 
L 423.709091 260.482171 
L 428.218182 253.362791 
L 432.727273 264.389147 
L 437.236364 255.446512 
L 441.745455 260.95969 
L 446.254545 266.082171 
L 450.763636 265.778295 
L 455.272727 275.936434 
L 459.781818 287.917829 
L 464.290909 276.066667 
L 468.8 259.44031 
L 473.309091 277.065116 
L 477.818182 283.924031 
L 482.327273 278.410853 
L 486.836364 275.415504 
L 491.345455 285.096124 
L 495.854545 269.468217 
L 500.363636 277.499225 
L 504.872727 288.568992 
L 509.381818 274.503876 
L 513.890909 267.905426 
L 518.4 276.674419 
" clip-path="url(#p71d5a8b2ee)" style="fill: none; stroke: #7f7f7f; stroke-width: 1.5; stroke-linecap: square"/>
   </g>
   <g id="patch_3">
    <path d="M 72 320.4 
L 72 43.2 
" style="fill: none; stroke: #000000; stroke-width: 0.8; stroke-linejoin: miter; stroke-linecap: square"/>
   </g>
   <g id="patch_4">
    <path d="M 518.4 320.4 
L 518.4 43.2 
" style="fill: none; stroke: #000000; stroke-width: 0.8; stroke-linejoin: miter; stroke-linecap: square"/>
   </g>
   <g id="patch_5">
    <path d="M 72 320.4 
L 518.4 320.4 
" style="fill: none; stroke: #000000; stroke-width: 0.8; stroke-linejoin: miter; stroke-linecap: square"/>
   </g>
   <g id="patch_6">
    <path d="M 72 43.2 
L 518.4 43.2 
" style="fill: none; stroke: #000000; stroke-width: 0.8; stroke-linejoin: miter; stroke-linecap: square"/>
   </g>
   <g id="text_14">
    <!-- H3K9ac -->
    <g transform="translate(272.142187 37.2) scale(0.12 -0.12)">
     <defs>
      <path id="DejaVuSans-48" d="M 628 4666 
L 1259 4666 
L 1259 2753 
L 3553 2753 
L 3553 4666 
L 4184 4666 
L 4184 0 
L 3553 0 
L 3553 2222 
L 1259 2222 
L 1259 0 
L 628 0 
L 628 4666 
z
" transform="scale(0.015625)"/>
      <path id="DejaVuSans-33" d="M 2597 2516 
Q 3050 2419 3304 2112 
Q 3559 1806 3559 1356 
Q 3559 666 3084 287 
Q 2609 -91 1734 -91 
Q 1441 -91 1130 -33 
Q 819 25 488 141 
L 488 750 
Q 750 597 1062 519 
Q 1375 441 1716 441 
Q 2309 441 2620 675 
Q 2931 909 2931 1356 
Q 2931 1769 2642 2001 
Q 2353 2234 1838 2234 
L 1294 2234 
L 1294 2753 
L 1863 2753 
Q 2328 2753 2575 2939 
Q 2822 3125 2822 3475 
Q 2822 3834 2567 4026 
Q 2313 4219 1838 4219 
Q 1578 4219 1281 4162 
Q 984 4106 628 3988 
L 628 4550 
Q 988 4650 1302 4700 
Q 1616 4750 1894 4750 
Q 2613 4750 3031 4423 
Q 3450 4097 3450 3541 
Q 3450 3153 3228 2886 
Q 3006 2619 2597 2516 
z
" transform="scale(0.015625)"/>
      <path id="DejaVuSans-4b" d="M 628 4666 
L 1259 4666 
L 1259 2694 
L 3353 4666 
L 4166 4666 
L 1850 2491 
L 4331 0 
L 3500 0 
L 1259 2247 
L 1259 0 
L 628 0 
L 628 4666 
z
" transform="scale(0.015625)"/>
      <path id="DejaVuSans-63" d="M 3122 3366 
L 3122 2828 
Q 2878 2963 2633 3030 
Q 2388 3097 2138 3097 
Q 1578 3097 1268 2742 
Q 959 2388 959 1747 
Q 959 1106 1268 751 
Q 1578 397 2138 397 
Q 2388 397 2633 464 
Q 2878 531 3122 666 
L 3122 134 
Q 2881 22 2623 -34 
Q 2366 -91 2075 -91 
Q 1284 -91 818 406 
Q 353 903 353 1747 
Q 353 2603 823 3093 
Q 1294 3584 2113 3584 
Q 2378 3584 2631 3529 
Q 2884 3475 3122 3366 
z
" transform="scale(0.015625)"/>
     </defs>
     <use xlink:href="#DejaVuSans-48"/>
     <use xlink:href="#DejaVuSans-33" transform="translate(75.195312 0)"/>
     <use xlink:href="#DejaVuSans-4b" transform="translate(138.818359 0)"/>
     <use xlink:href="#DejaVuSans-39" transform="translate(204.394531 0)"/>
     <use xlink:href="#DejaVuSans-61" transform="translate(268.017578 0)"/>
     <use xlink:href="#DejaVuSans-63" transform="translate(329.296875 0)"/>
    </g>
   </g>
   <g id="legend_1">
    <g id="patch_7">
     <path d="M 334.210684 147.679025 
L 512.569 147.679025 
Q 514.235 147.679025 514.235 146.013025 
L 514.235 49.031 
Q 514.235 47.365 512.569 47.365 
L 334.210684 47.365 
Q 332.544684 47.365 332.544684 49.031 
L 332.544684 146.013025 
Q 332.544684 147.679025 334.210684 147.679025 
z
" style="fill: #ffffff; opacity: 0.8; stroke: #cccccc; stroke-linejoin: miter"/>
    </g>
    <g id="line2d_20">
     <path d="M 335.876684 54.110998 
L 344.206684 54.110998 
L 352.536684 54.110998 
" style="fill: none; stroke: #1f77b4; stroke-width: 1.5; stroke-linecap: square"/>
    </g>
    <g id="text_15">
     <!-- NT-MS V2 (50M) with rand. weights -->
     <g transform="translate(359.200684 57.026498) scale(0.0833 -0.0833)">
      <defs>
       <path id="DejaVuSans-4e" d="M 628 4666 
L 1478 4666 
L 3547 763 
L 3547 4666 
L 4159 4666 
L 4159 0 
L 3309 0 
L 1241 3903 
L 1241 0 
L 628 0 
L 628 4666 
z
" transform="scale(0.015625)"/>
       <path id="DejaVuSans-2d" d="M 313 2009 
L 1997 2009 
L 1997 1497 
L 313 1497 
L 313 2009 
z
" transform="scale(0.015625)"/>
       <path id="DejaVuSans-4d" d="M 628 4666 
L 1569 4666 
L 2759 1491 
L 3956 4666 
L 4897 4666 
L 4897 0 
L 4281 0 
L 4281 4097 
L 3078 897 
L 2444 897 
L 1241 4097 
L 1241 0 
L 628 0 
L 628 4666 
z
" transform="scale(0.015625)"/>
       <path id="DejaVuSans-53" d="M 3425 4513 
L 3425 3897 
Q 3066 4069 2747 4153 
Q 2428 4238 2131 4238 
Q 1616 4238 1336 4038 
Q 1056 3838 1056 3469 
Q 1056 3159 1242 3001 
Q 1428 2844 1947 2747 
L 2328 2669 
Q 3034 2534 3370 2195 
Q 3706 1856 3706 1288 
Q 3706 609 3251 259 
Q 2797 -91 1919 -91 
Q 1588 -91 1214 -16 
Q 841 59 441 206 
L 441 856 
Q 825 641 1194 531 
Q 1563 422 1919 422 
Q 2459 422 2753 634 
Q 3047 847 3047 1241 
Q 3047 1584 2836 1778 
Q 2625 1972 2144 2069 
L 1759 2144 
Q 1053 2284 737 2584 
Q 422 2884 422 3419 
Q 422 4038 858 4394 
Q 1294 4750 2059 4750 
Q 2388 4750 2728 4690 
Q 3069 4631 3425 4513 
z
" transform="scale(0.015625)"/>
       <path id="DejaVuSans-56" d="M 1831 0 
L 50 4666 
L 709 4666 
L 2188 738 
L 3669 4666 
L 4325 4666 
L 2547 0 
L 1831 0 
z
" transform="scale(0.015625)"/>
       <path id="DejaVuSans-28" d="M 1984 4856 
Q 1566 4138 1362 3434 
Q 1159 2731 1159 2009 
Q 1159 1288 1364 580 
Q 1569 -128 1984 -844 
L 1484 -844 
Q 1016 -109 783 600 
Q 550 1309 550 2009 
Q 550 2706 781 3412 
Q 1013 4119 1484 4856 
L 1984 4856 
z
" transform="scale(0.015625)"/>
       <path id="DejaVuSans-29" d="M 513 4856 
L 1013 4856 
Q 1481 4119 1714 3412 
Q 1947 2706 1947 2009 
Q 1947 1309 1714 600 
Q 1481 -109 1013 -844 
L 513 -844 
Q 928 -128 1133 580 
Q 1338 1288 1338 2009 
Q 1338 2731 1133 3434 
Q 928 4138 513 4856 
z
" transform="scale(0.015625)"/>
       <path id="DejaVuSans-77" d="M 269 3500 
L 844 3500 
L 1563 769 
L 2278 3500 
L 2956 3500 
L 3675 769 
L 4391 3500 
L 4966 3500 
L 4050 0 
L 3372 0 
L 2619 2869 
L 1863 0 
L 1184 0 
L 269 3500 
z
" transform="scale(0.015625)"/>
       <path id="DejaVuSans-68" d="M 3513 2113 
L 3513 0 
L 2938 0 
L 2938 2094 
Q 2938 2591 2744 2837 
Q 2550 3084 2163 3084 
Q 1697 3084 1428 2787 
Q 1159 2491 1159 1978 
L 1159 0 
L 581 0 
L 581 4863 
L 1159 4863 
L 1159 2956 
Q 1366 3272 1645 3428 
Q 1925 3584 2291 3584 
Q 2894 3584 3203 3211 
Q 3513 2838 3513 2113 
z
" transform="scale(0.015625)"/>
       <path id="DejaVuSans-64" d="M 2906 2969 
L 2906 4863 
L 3481 4863 
L 3481 0 
L 2906 0 
L 2906 525 
Q 2725 213 2448 61 
Q 2172 -91 1784 -91 
Q 1150 -91 751 415 
Q 353 922 353 1747 
Q 353 2572 751 3078 
Q 1150 3584 1784 3584 
Q 2172 3584 2448 3432 
Q 2725 3281 2906 2969 
z
M 947 1747 
Q 947 1113 1208 752 
Q 1469 391 1925 391 
Q 2381 391 2643 752 
Q 2906 1113 2906 1747 
Q 2906 2381 2643 2742 
Q 2381 3103 1925 3103 
Q 1469 3103 1208 2742 
Q 947 2381 947 1747 
z
" transform="scale(0.015625)"/>
      </defs>
      <use xlink:href="#DejaVuSans-4e"/>
      <use xlink:href="#DejaVuSans-54" transform="translate(74.804688 0)"/>
      <use xlink:href="#DejaVuSans-2d" transform="translate(126.763672 0)"/>
      <use xlink:href="#DejaVuSans-4d" transform="translate(162.847656 0)"/>
      <use xlink:href="#DejaVuSans-53" transform="translate(249.126953 0)"/>
      <use xlink:href="#DejaVuSans-20" transform="translate(312.603516 0)"/>
      <use xlink:href="#DejaVuSans-56" transform="translate(344.390625 0)"/>
      <use xlink:href="#DejaVuSans-32" transform="translate(412.798828 0)"/>
      <use xlink:href="#DejaVuSans-20" transform="translate(476.421875 0)"/>
      <use xlink:href="#DejaVuSans-28" transform="translate(508.208984 0)"/>
      <use xlink:href="#DejaVuSans-35" transform="translate(547.222656 0)"/>
      <use xlink:href="#DejaVuSans-30" transform="translate(610.845703 0)"/>
      <use xlink:href="#DejaVuSans-4d" transform="translate(674.46875 0)"/>
      <use xlink:href="#DejaVuSans-29" transform="translate(760.748047 0)"/>
      <use xlink:href="#DejaVuSans-20" transform="translate(799.761719 0)"/>
      <use xlink:href="#DejaVuSans-77" transform="translate(831.548828 0)"/>
      <use xlink:href="#DejaVuSans-69" transform="translate(913.335938 0)"/>
      <use xlink:href="#DejaVuSans-74" transform="translate(941.119141 0)"/>
      <use xlink:href="#DejaVuSans-68" transform="translate(980.328125 0)"/>
      <use xlink:href="#DejaVuSans-20" transform="translate(1043.707031 0)"/>
      <use xlink:href="#DejaVuSans-72" transform="translate(1075.494141 0)"/>
      <use xlink:href="#DejaVuSans-61" transform="translate(1116.607422 0)"/>
      <use xlink:href="#DejaVuSans-6e" transform="translate(1177.886719 0)"/>
      <use xlink:href="#DejaVuSans-64" transform="translate(1241.265625 0)"/>
      <use xlink:href="#DejaVuSans-2e" transform="translate(1304.742188 0)"/>
      <use xlink:href="#DejaVuSans-20" transform="translate(1336.529297 0)"/>
      <use xlink:href="#DejaVuSans-77" transform="translate(1368.316406 0)"/>
      <use xlink:href="#DejaVuSans-65" transform="translate(1450.103516 0)"/>
      <use xlink:href="#DejaVuSans-69" transform="translate(1511.626953 0)"/>
      <use xlink:href="#DejaVuSans-67" transform="translate(1539.410156 0)"/>
      <use xlink:href="#DejaVuSans-68" transform="translate(1602.886719 0)"/>
      <use xlink:href="#DejaVuSans-74" transform="translate(1666.265625 0)"/>
      <use xlink:href="#DejaVuSans-73" transform="translate(1705.474609 0)"/>
     </g>
    </g>
    <g id="line2d_21">
     <path d="M 335.876684 66.337877 
L 344.206684 66.337877 
L 352.536684 66.337877 
" style="fill: none; stroke: #ff7f0e; stroke-width: 1.5; stroke-linecap: square"/>
    </g>
    <g id="text_16">
     <!-- NT-MS V2 (500M) with rand. weights -->
     <g transform="translate(359.200684 69.253377) scale(0.0833 -0.0833)">
      <use xlink:href="#DejaVuSans-4e"/>
      <use xlink:href="#DejaVuSans-54" transform="translate(74.804688 0)"/>
      <use xlink:href="#DejaVuSans-2d" transform="translate(126.763672 0)"/>
      <use xlink:href="#DejaVuSans-4d" transform="translate(162.847656 0)"/>
      <use xlink:href="#DejaVuSans-53" transform="translate(249.126953 0)"/>
      <use xlink:href="#DejaVuSans-20" transform="translate(312.603516 0)"/>
      <use xlink:href="#DejaVuSans-56" transform="translate(344.390625 0)"/>
      <use xlink:href="#DejaVuSans-32" transform="translate(412.798828 0)"/>
      <use xlink:href="#DejaVuSans-20" transform="translate(476.421875 0)"/>
      <use xlink:href="#DejaVuSans-28" transform="translate(508.208984 0)"/>
      <use xlink:href="#DejaVuSans-35" transform="translate(547.222656 0)"/>
      <use xlink:href="#DejaVuSans-30" transform="translate(610.845703 0)"/>
      <use xlink:href="#DejaVuSans-30" transform="translate(674.46875 0)"/>
      <use xlink:href="#DejaVuSans-4d" transform="translate(738.091797 0)"/>
      <use xlink:href="#DejaVuSans-29" transform="translate(824.371094 0)"/>
      <use xlink:href="#DejaVuSans-20" transform="translate(863.384766 0)"/>
      <use xlink:href="#DejaVuSans-77" transform="translate(895.171875 0)"/>
      <use xlink:href="#DejaVuSans-69" transform="translate(976.958984 0)"/>
      <use xlink:href="#DejaVuSans-74" transform="translate(1004.742188 0)"/>
      <use xlink:href="#DejaVuSans-68" transform="translate(1043.951172 0)"/>
      <use xlink:href="#DejaVuSans-20" transform="translate(1107.330078 0)"/>
      <use xlink:href="#DejaVuSans-72" transform="translate(1139.117188 0)"/>
      <use xlink:href="#DejaVuSans-61" transform="translate(1180.230469 0)"/>
      <use xlink:href="#DejaVuSans-6e" transform="translate(1241.509766 0)"/>
      <use xlink:href="#DejaVuSans-64" transform="translate(1304.888672 0)"/>
      <use xlink:href="#DejaVuSans-2e" transform="translate(1368.365234 0)"/>
      <use xlink:href="#DejaVuSans-20" transform="translate(1400.152344 0)"/>
      <use xlink:href="#DejaVuSans-77" transform="translate(1431.939453 0)"/>
      <use xlink:href="#DejaVuSans-65" transform="translate(1513.726562 0)"/>
      <use xlink:href="#DejaVuSans-69" transform="translate(1575.25 0)"/>
      <use xlink:href="#DejaVuSans-67" transform="translate(1603.033203 0)"/>
      <use xlink:href="#DejaVuSans-68" transform="translate(1666.509766 0)"/>
      <use xlink:href="#DejaVuSans-74" transform="translate(1729.888672 0)"/>
      <use xlink:href="#DejaVuSans-73" transform="translate(1769.097656 0)"/>
     </g>
    </g>
    <g id="line2d_22">
     <path d="M 335.876684 78.564755 
L 344.206684 78.564755 
L 352.536684 78.564755 
" style="fill: none; stroke: #2ca02c; stroke-width: 1.5; stroke-linecap: square"/>
    </g>
    <g id="text_17">
     <!-- NT-MS V2 (50M) -->
     <g transform="translate(359.200684 81.480255) scale(0.0833 -0.0833)">
      <use xlink:href="#DejaVuSans-4e"/>
      <use xlink:href="#DejaVuSans-54" transform="translate(74.804688 0)"/>
      <use xlink:href="#DejaVuSans-2d" transform="translate(126.763672 0)"/>
      <use xlink:href="#DejaVuSans-4d" transform="translate(162.847656 0)"/>
      <use xlink:href="#DejaVuSans-53" transform="translate(249.126953 0)"/>
      <use xlink:href="#DejaVuSans-20" transform="translate(312.603516 0)"/>
      <use xlink:href="#DejaVuSans-56" transform="translate(344.390625 0)"/>
      <use xlink:href="#DejaVuSans-32" transform="translate(412.798828 0)"/>
      <use xlink:href="#DejaVuSans-20" transform="translate(476.421875 0)"/>
      <use xlink:href="#DejaVuSans-28" transform="translate(508.208984 0)"/>
      <use xlink:href="#DejaVuSans-35" transform="translate(547.222656 0)"/>
      <use xlink:href="#DejaVuSans-30" transform="translate(610.845703 0)"/>
      <use xlink:href="#DejaVuSans-4d" transform="translate(674.46875 0)"/>
      <use xlink:href="#DejaVuSans-29" transform="translate(760.748047 0)"/>
     </g>
    </g>
    <g id="line2d_23">
     <path d="M 335.876684 90.791633 
L 344.206684 90.791633 
L 352.536684 90.791633 
" style="fill: none; stroke: #d62728; stroke-width: 1.5; stroke-linecap: square"/>
    </g>
    <g id="text_18">
     <!-- NT-1000g (500M) -->
     <g transform="translate(359.200684 93.707133) scale(0.0833 -0.0833)">
      <use xlink:href="#DejaVuSans-4e"/>
      <use xlink:href="#DejaVuSans-54" transform="translate(74.804688 0)"/>
      <use xlink:href="#DejaVuSans-2d" transform="translate(126.763672 0)"/>
      <use xlink:href="#DejaVuSans-31" transform="translate(162.847656 0)"/>
      <use xlink:href="#DejaVuSans-30" transform="translate(226.470703 0)"/>
      <use xlink:href="#DejaVuSans-30" transform="translate(290.09375 0)"/>
      <use xlink:href="#DejaVuSans-30" transform="translate(353.716797 0)"/>
      <use xlink:href="#DejaVuSans-67" transform="translate(417.339844 0)"/>
      <use xlink:href="#DejaVuSans-20" transform="translate(480.816406 0)"/>
      <use xlink:href="#DejaVuSans-28" transform="translate(512.603516 0)"/>
      <use xlink:href="#DejaVuSans-35" transform="translate(551.617188 0)"/>
      <use xlink:href="#DejaVuSans-30" transform="translate(615.240234 0)"/>
      <use xlink:href="#DejaVuSans-30" transform="translate(678.863281 0)"/>
      <use xlink:href="#DejaVuSans-4d" transform="translate(742.486328 0)"/>
      <use xlink:href="#DejaVuSans-29" transform="translate(828.765625 0)"/>
     </g>
    </g>
    <g id="line2d_24">
     <path d="M 335.876684 103.018511 
L 344.206684 103.018511 
L 352.536684 103.018511 
" style="fill: none; stroke: #9467bd; stroke-width: 1.5; stroke-linecap: square"/>
    </g>
    <g id="text_19">
     <!-- NT-MS V2 (250M) -->
     <g transform="translate(359.200684 105.934011) scale(0.0833 -0.0833)">
      <use xlink:href="#DejaVuSans-4e"/>
      <use xlink:href="#DejaVuSans-54" transform="translate(74.804688 0)"/>
      <use xlink:href="#DejaVuSans-2d" transform="translate(126.763672 0)"/>
      <use xlink:href="#DejaVuSans-4d" transform="translate(162.847656 0)"/>
      <use xlink:href="#DejaVuSans-53" transform="translate(249.126953 0)"/>
      <use xlink:href="#DejaVuSans-20" transform="translate(312.603516 0)"/>
      <use xlink:href="#DejaVuSans-56" transform="translate(344.390625 0)"/>
      <use xlink:href="#DejaVuSans-32" transform="translate(412.798828 0)"/>
      <use xlink:href="#DejaVuSans-20" transform="translate(476.421875 0)"/>
      <use xlink:href="#DejaVuSans-28" transform="translate(508.208984 0)"/>
      <use xlink:href="#DejaVuSans-32" transform="translate(547.222656 0)"/>
      <use xlink:href="#DejaVuSans-35" transform="translate(610.845703 0)"/>
      <use xlink:href="#DejaVuSans-30" transform="translate(674.46875 0)"/>
      <use xlink:href="#DejaVuSans-4d" transform="translate(738.091797 0)"/>
      <use xlink:href="#DejaVuSans-29" transform="translate(824.371094 0)"/>
     </g>
    </g>
    <g id="line2d_25">
     <path d="M 335.876684 115.245389 
L 344.206684 115.245389 
L 352.536684 115.245389 
" style="fill: none; stroke: #8c564b; stroke-width: 1.5; stroke-linecap: square"/>
    </g>
    <g id="text_20">
     <!-- NT-MS V2 (100M) -->
     <g transform="translate(359.200684 118.160889) scale(0.0833 -0.0833)">
      <use xlink:href="#DejaVuSans-4e"/>
      <use xlink:href="#DejaVuSans-54" transform="translate(74.804688 0)"/>
      <use xlink:href="#DejaVuSans-2d" transform="translate(126.763672 0)"/>
      <use xlink:href="#DejaVuSans-4d" transform="translate(162.847656 0)"/>
      <use xlink:href="#DejaVuSans-53" transform="translate(249.126953 0)"/>
      <use xlink:href="#DejaVuSans-20" transform="translate(312.603516 0)"/>
      <use xlink:href="#DejaVuSans-56" transform="translate(344.390625 0)"/>
      <use xlink:href="#DejaVuSans-32" transform="translate(412.798828 0)"/>
      <use xlink:href="#DejaVuSans-20" transform="translate(476.421875 0)"/>
      <use xlink:href="#DejaVuSans-28" transform="translate(508.208984 0)"/>
      <use xlink:href="#DejaVuSans-31" transform="translate(547.222656 0)"/>
      <use xlink:href="#DejaVuSans-30" transform="translate(610.845703 0)"/>
      <use xlink:href="#DejaVuSans-30" transform="translate(674.46875 0)"/>
      <use xlink:href="#DejaVuSans-4d" transform="translate(738.091797 0)"/>
      <use xlink:href="#DejaVuSans-29" transform="translate(824.371094 0)"/>
     </g>
    </g>
    <g id="line2d_26">
     <path d="M 335.876684 127.472267 
L 344.206684 127.472267 
L 352.536684 127.472267 
" style="fill: none; stroke: #e377c2; stroke-width: 1.5; stroke-linecap: square"/>
    </g>
    <g id="text_21">
     <!-- NT-Human-Ref. (500M) -->
     <g transform="translate(359.200684 130.387767) scale(0.0833 -0.0833)">
      <defs>
       <path id="DejaVuSans-75" d="M 544 1381 
L 544 3500 
L 1119 3500 
L 1119 1403 
Q 1119 906 1312 657 
Q 1506 409 1894 409 
Q 2359 409 2629 706 
Q 2900 1003 2900 1516 
L 2900 3500 
L 3475 3500 
L 3475 0 
L 2900 0 
L 2900 538 
Q 2691 219 2414 64 
Q 2138 -91 1772 -91 
Q 1169 -91 856 284 
Q 544 659 544 1381 
z
M 1991 3584 
L 1991 3584 
z
" transform="scale(0.015625)"/>
       <path id="DejaVuSans-6d" d="M 3328 2828 
Q 3544 3216 3844 3400 
Q 4144 3584 4550 3584 
Q 5097 3584 5394 3201 
Q 5691 2819 5691 2113 
L 5691 0 
L 5113 0 
L 5113 2094 
Q 5113 2597 4934 2840 
Q 4756 3084 4391 3084 
Q 3944 3084 3684 2787 
Q 3425 2491 3425 1978 
L 3425 0 
L 2847 0 
L 2847 2094 
Q 2847 2600 2669 2842 
Q 2491 3084 2119 3084 
Q 1678 3084 1418 2786 
Q 1159 2488 1159 1978 
L 1159 0 
L 581 0 
L 581 3500 
L 1159 3500 
L 1159 2956 
Q 1356 3278 1631 3431 
Q 1906 3584 2284 3584 
Q 2666 3584 2933 3390 
Q 3200 3197 3328 2828 
z
" transform="scale(0.015625)"/>
       <path id="DejaVuSans-52" d="M 2841 2188 
Q 3044 2119 3236 1894 
Q 3428 1669 3622 1275 
L 4263 0 
L 3584 0 
L 2988 1197 
Q 2756 1666 2539 1819 
Q 2322 1972 1947 1972 
L 1259 1972 
L 1259 0 
L 628 0 
L 628 4666 
L 2053 4666 
Q 2853 4666 3247 4331 
Q 3641 3997 3641 3322 
Q 3641 2881 3436 2590 
Q 3231 2300 2841 2188 
z
M 1259 4147 
L 1259 2491 
L 2053 2491 
Q 2509 2491 2742 2702 
Q 2975 2913 2975 3322 
Q 2975 3731 2742 3939 
Q 2509 4147 2053 4147 
L 1259 4147 
z
" transform="scale(0.015625)"/>
       <path id="DejaVuSans-66" d="M 2375 4863 
L 2375 4384 
L 1825 4384 
Q 1516 4384 1395 4259 
Q 1275 4134 1275 3809 
L 1275 3500 
L 2222 3500 
L 2222 3053 
L 1275 3053 
L 1275 0 
L 697 0 
L 697 3053 
L 147 3053 
L 147 3500 
L 697 3500 
L 697 3744 
Q 697 4328 969 4595 
Q 1241 4863 1831 4863 
L 2375 4863 
z
" transform="scale(0.015625)"/>
      </defs>
      <use xlink:href="#DejaVuSans-4e"/>
      <use xlink:href="#DejaVuSans-54" transform="translate(74.804688 0)"/>
      <use xlink:href="#DejaVuSans-2d" transform="translate(126.763672 0)"/>
      <use xlink:href="#DejaVuSans-48" transform="translate(162.847656 0)"/>
      <use xlink:href="#DejaVuSans-75" transform="translate(238.042969 0)"/>
      <use xlink:href="#DejaVuSans-6d" transform="translate(301.421875 0)"/>
      <use xlink:href="#DejaVuSans-61" transform="translate(398.833984 0)"/>
      <use xlink:href="#DejaVuSans-6e" transform="translate(460.113281 0)"/>
      <use xlink:href="#DejaVuSans-2d" transform="translate(523.492188 0)"/>
      <use xlink:href="#DejaVuSans-52" transform="translate(559.576172 0)"/>
      <use xlink:href="#DejaVuSans-65" transform="translate(624.558594 0)"/>
      <use xlink:href="#DejaVuSans-66" transform="translate(686.082031 0)"/>
      <use xlink:href="#DejaVuSans-2e" transform="translate(714.037109 0)"/>
      <use xlink:href="#DejaVuSans-20" transform="translate(745.824219 0)"/>
      <use xlink:href="#DejaVuSans-28" transform="translate(777.611328 0)"/>
      <use xlink:href="#DejaVuSans-35" transform="translate(816.625 0)"/>
      <use xlink:href="#DejaVuSans-30" transform="translate(880.248047 0)"/>
      <use xlink:href="#DejaVuSans-30" transform="translate(943.871094 0)"/>
      <use xlink:href="#DejaVuSans-4d" transform="translate(1007.494141 0)"/>
      <use xlink:href="#DejaVuSans-29" transform="translate(1093.773438 0)"/>
     </g>
    </g>
    <g id="line2d_27">
     <path d="M 335.876684 139.699145 
L 344.206684 139.699145 
L 352.536684 139.699145 
" style="fill: none; stroke: #7f7f7f; stroke-width: 1.5; stroke-linecap: square"/>
    </g>
    <g id="text_22">
     <!-- NT-MS V2 (500M) -->
     <g transform="translate(359.200684 142.614645) scale(0.0833 -0.0833)">
      <use xlink:href="#DejaVuSans-4e"/>
      <use xlink:href="#DejaVuSans-54" transform="translate(74.804688 0)"/>
      <use xlink:href="#DejaVuSans-2d" transform="translate(126.763672 0)"/>
      <use xlink:href="#DejaVuSans-4d" transform="translate(162.847656 0)"/>
      <use xlink:href="#DejaVuSans-53" transform="translate(249.126953 0)"/>
      <use xlink:href="#DejaVuSans-20" transform="translate(312.603516 0)"/>
      <use xlink:href="#DejaVuSans-56" transform="translate(344.390625 0)"/>
      <use xlink:href="#DejaVuSans-32" transform="translate(412.798828 0)"/>
      <use xlink:href="#DejaVuSans-20" transform="translate(476.421875 0)"/>
      <use xlink:href="#DejaVuSans-28" transform="translate(508.208984 0)"/>
      <use xlink:href="#DejaVuSans-35" transform="translate(547.222656 0)"/>
      <use xlink:href="#DejaVuSans-30" transform="translate(610.845703 0)"/>
      <use xlink:href="#DejaVuSans-30" transform="translate(674.46875 0)"/>
      <use xlink:href="#DejaVuSans-4d" transform="translate(738.091797 0)"/>
      <use xlink:href="#DejaVuSans-29" transform="translate(824.371094 0)"/>
     </g>
    </g>
   </g>
  </g>
 </g>
 <defs>
  <clipPath id="p71d5a8b2ee">
   <rect x="72" y="43.2" width="446.4" height="277.2"/>
  </clipPath>
 </defs>
</svg>
