<?xml version="1.0" encoding="utf-8" standalone="no"?>
<!DOCTYPE svg PUBLIC "-//W3C//DTD SVG 1.1//EN"
  "http://www.w3.org/Graphics/SVG/1.1/DTD/svg11.dtd">
<svg xmlns:xlink="http://www.w3.org/1999/xlink" width="576pt" height="360pt" viewBox="0 0 576 360" xmlns="http://www.w3.org/2000/svg" version="1.1">
 <metadata>
  <rdf:RDF xmlns:dc="http://purl.org/dc/elements/1.1/" xmlns:cc="http://creativecommons.org/ns#" xmlns:rdf="http://www.w3.org/1999/02/22-rdf-syntax-ns#">
   <cc:Work>
    <dc:type rdf:resource="http://purl.org/dc/dcmitype/StillImage"/>
    <dc:date>2025-01-07T03:55:01.136477</dc:date>
    <dc:format>image/svg+xml</dc:format>
    <dc:creator>
     <cc:Agent>
      <dc:title>Matplotlib v3.10.0, https://matplotlib.org/</dc:title>
     </cc:Agent>
    </dc:creator>
   </cc:Work>
  </rdf:RDF>
 </metadata>
 <defs>
  <style type="text/css">*{stroke-linejoin: round; stroke-linecap: butt}</style>
 </defs>
 <g id="figure_1">
  <g id="patch_1">
   <path d="M 0 360 
L 576 360 
L 576 0 
L 0 0 
z
" style="fill: #ffffff"/>
  </g>
  <g id="axes_1">
   <g id="patch_2">
    <path d="M 72 320.4 
L 518.4 320.4 
L 518.4 43.2 
L 72 43.2 
z
" style="fill: #ffffff"/>
   </g>
   <g id="matplotlib.axis_1">
    <g id="xtick_1">
     <g id="line2d_1">
      <defs>
       <path id="m2fcf7e0cd4" d="M 0 0 
L 0 3.5 
" style="stroke: #000000; stroke-width: 0.8"/>
      </defs>
      <g>
       <use xlink:href="#m2fcf7e0cd4" x="157.672727" y="320.4" style="stroke: #000000; stroke-width: 0.8"/>
      </g>
     </g>
     <g id="text_1">
      <!-- 2000 -->
      <g transform="translate(144.947727 334.998438) scale(0.1 -0.1)">
       <defs>
        <path id="DejaVuSans-32" d="M 1228 531 
L 3431 531 
L 3431 0 
L 469 0 
L 469 531 
Q 828 903 1448 1529 
Q 2069 2156 2228 2338 
Q 2531 2678 2651 2914 
Q 2772 3150 2772 3378 
Q 2772 3750 2511 3984 
Q 2250 4219 1831 4219 
Q 1534 4219 1204 4116 
Q 875 4013 500 3803 
L 500 4441 
Q 881 4594 1212 4672 
Q 1544 4750 1819 4750 
Q 2544 4750 2975 4387 
Q 3406 4025 3406 3419 
Q 3406 3131 3298 2873 
Q 3191 2616 2906 2266 
Q 2828 2175 2409 1742 
Q 1991 1309 1228 531 
z
" transform="scale(0.015625)"/>
        <path id="DejaVuSans-30" d="M 2034 4250 
Q 1547 4250 1301 3770 
Q 1056 3291 1056 2328 
Q 1056 1369 1301 889 
Q 1547 409 2034 409 
Q 2525 409 2770 889 
Q 3016 1369 3016 2328 
Q 3016 3291 2770 3770 
Q 2525 4250 2034 4250 
z
M 2034 4750 
Q 2819 4750 3233 4129 
Q 3647 3509 3647 2328 
Q 3647 1150 3233 529 
Q 2819 -91 2034 -91 
Q 1250 -91 836 529 
Q 422 1150 422 2328 
Q 422 3509 836 4129 
Q 1250 4750 2034 4750 
z
" transform="scale(0.015625)"/>
       </defs>
       <use xlink:href="#DejaVuSans-32"/>
       <use xlink:href="#DejaVuSans-30" transform="translate(63.623047 0)"/>
       <use xlink:href="#DejaVuSans-30" transform="translate(127.246094 0)"/>
       <use xlink:href="#DejaVuSans-30" transform="translate(190.869141 0)"/>
      </g>
     </g>
    </g>
    <g id="xtick_2">
     <g id="line2d_2">
      <g>
       <use xlink:href="#m2fcf7e0cd4" x="247.854545" y="320.4" style="stroke: #000000; stroke-width: 0.8"/>
      </g>
     </g>
     <g id="text_2">
      <!-- 4000 -->
      <g transform="translate(235.129545 334.998438) scale(0.1 -0.1)">
       <defs>
        <path id="DejaVuSans-34" d="M 2419 4116 
L 825 1625 
L 2419 1625 
L 2419 4116 
z
M 2253 4666 
L 3047 4666 
L 3047 1625 
L 3713 1625 
L 3713 1100 
L 3047 1100 
L 3047 0 
L 2419 0 
L 2419 1100 
L 313 1100 
L 313 1709 
L 2253 4666 
z
" transform="scale(0.015625)"/>
       </defs>
       <use xlink:href="#DejaVuSans-34"/>
       <use xlink:href="#DejaVuSans-30" transform="translate(63.623047 0)"/>
       <use xlink:href="#DejaVuSans-30" transform="translate(127.246094 0)"/>
       <use xlink:href="#DejaVuSans-30" transform="translate(190.869141 0)"/>
      </g>
     </g>
    </g>
    <g id="xtick_3">
     <g id="line2d_3">
      <g>
       <use xlink:href="#m2fcf7e0cd4" x="338.036364" y="320.4" style="stroke: #000000; stroke-width: 0.8"/>
      </g>
     </g>
     <g id="text_3">
      <!-- 6000 -->
      <g transform="translate(325.311364 334.998438) scale(0.1 -0.1)">
       <defs>
        <path id="DejaVuSans-36" d="M 2113 2584 
Q 1688 2584 1439 2293 
Q 1191 2003 1191 1497 
Q 1191 994 1439 701 
Q 1688 409 2113 409 
Q 2538 409 2786 701 
Q 3034 994 3034 1497 
Q 3034 2003 2786 2293 
Q 2538 2584 2113 2584 
z
M 3366 4563 
L 3366 3988 
Q 3128 4100 2886 4159 
Q 2644 4219 2406 4219 
Q 1781 4219 1451 3797 
Q 1122 3375 1075 2522 
Q 1259 2794 1537 2939 
Q 1816 3084 2150 3084 
Q 2853 3084 3261 2657 
Q 3669 2231 3669 1497 
Q 3669 778 3244 343 
Q 2819 -91 2113 -91 
Q 1303 -91 875 529 
Q 447 1150 447 2328 
Q 447 3434 972 4092 
Q 1497 4750 2381 4750 
Q 2619 4750 2861 4703 
Q 3103 4656 3366 4563 
z
" transform="scale(0.015625)"/>
       </defs>
       <use xlink:href="#DejaVuSans-36"/>
       <use xlink:href="#DejaVuSans-30" transform="translate(63.623047 0)"/>
       <use xlink:href="#DejaVuSans-30" transform="translate(127.246094 0)"/>
       <use xlink:href="#DejaVuSans-30" transform="translate(190.869141 0)"/>
      </g>
     </g>
    </g>
    <g id="xtick_4">
     <g id="line2d_4">
      <g>
       <use xlink:href="#m2fcf7e0cd4" x="428.218182" y="320.4" style="stroke: #000000; stroke-width: 0.8"/>
      </g>
     </g>
     <g id="text_4">
      <!-- 8000 -->
      <g transform="translate(415.493182 334.998438) scale(0.1 -0.1)">
       <defs>
        <path id="DejaVuSans-38" d="M 2034 2216 
Q 1584 2216 1326 1975 
Q 1069 1734 1069 1313 
Q 1069 891 1326 650 
Q 1584 409 2034 409 
Q 2484 409 2743 651 
Q 3003 894 3003 1313 
Q 3003 1734 2745 1975 
Q 2488 2216 2034 2216 
z
M 1403 2484 
Q 997 2584 770 2862 
Q 544 3141 544 3541 
Q 544 4100 942 4425 
Q 1341 4750 2034 4750 
Q 2731 4750 3128 4425 
Q 3525 4100 3525 3541 
Q 3525 3141 3298 2862 
Q 3072 2584 2669 2484 
Q 3125 2378 3379 2068 
Q 3634 1759 3634 1313 
Q 3634 634 3220 271 
Q 2806 -91 2034 -91 
Q 1263 -91 848 271 
Q 434 634 434 1313 
Q 434 1759 690 2068 
Q 947 2378 1403 2484 
z
M 1172 3481 
Q 1172 3119 1398 2916 
Q 1625 2713 2034 2713 
Q 2441 2713 2670 2916 
Q 2900 3119 2900 3481 
Q 2900 3844 2670 4047 
Q 2441 4250 2034 4250 
Q 1625 4250 1398 4047 
Q 1172 3844 1172 3481 
z
" transform="scale(0.015625)"/>
       </defs>
       <use xlink:href="#DejaVuSans-38"/>
       <use xlink:href="#DejaVuSans-30" transform="translate(63.623047 0)"/>
       <use xlink:href="#DejaVuSans-30" transform="translate(127.246094 0)"/>
       <use xlink:href="#DejaVuSans-30" transform="translate(190.869141 0)"/>
      </g>
     </g>
    </g>
    <g id="xtick_5">
     <g id="line2d_5">
      <g>
       <use xlink:href="#m2fcf7e0cd4" x="518.4" y="320.4" style="stroke: #000000; stroke-width: 0.8"/>
      </g>
     </g>
     <g id="text_5">
      <!-- 10000 -->
      <g transform="translate(502.49375 334.998438) scale(0.1 -0.1)">
       <defs>
        <path id="DejaVuSans-31" d="M 794 531 
L 1825 531 
L 1825 4091 
L 703 3866 
L 703 4441 
L 1819 4666 
L 2450 4666 
L 2450 531 
L 3481 531 
L 3481 0 
L 794 0 
L 794 531 
z
" transform="scale(0.015625)"/>
       </defs>
       <use xlink:href="#DejaVuSans-31"/>
       <use xlink:href="#DejaVuSans-30" transform="translate(63.623047 0)"/>
       <use xlink:href="#DejaVuSans-30" transform="translate(127.246094 0)"/>
       <use xlink:href="#DejaVuSans-30" transform="translate(190.869141 0)"/>
       <use xlink:href="#DejaVuSans-30" transform="translate(254.492188 0)"/>
      </g>
     </g>
    </g>
    <g id="text_6">
     <!-- Training steps -->
     <g transform="translate(260.464844 348.676562) scale(0.1 -0.1)">
      <defs>
       <path id="DejaVuSans-54" d="M -19 4666 
L 3928 4666 
L 3928 4134 
L 2272 4134 
L 2272 0 
L 1638 0 
L 1638 4134 
L -19 4134 
L -19 4666 
z
" transform="scale(0.015625)"/>
       <path id="DejaVuSans-72" d="M 2631 2963 
Q 2534 3019 2420 3045 
Q 2306 3072 2169 3072 
Q 1681 3072 1420 2755 
Q 1159 2438 1159 1844 
L 1159 0 
L 581 0 
L 581 3500 
L 1159 3500 
L 1159 2956 
Q 1341 3275 1631 3429 
Q 1922 3584 2338 3584 
Q 2397 3584 2469 3576 
Q 2541 3569 2628 3553 
L 2631 2963 
z
" transform="scale(0.015625)"/>
       <path id="DejaVuSans-61" d="M 2194 1759 
Q 1497 1759 1228 1600 
Q 959 1441 959 1056 
Q 959 750 1161 570 
Q 1363 391 1709 391 
Q 2188 391 2477 730 
Q 2766 1069 2766 1631 
L 2766 1759 
L 2194 1759 
z
M 3341 1997 
L 3341 0 
L 2766 0 
L 2766 531 
Q 2569 213 2275 61 
Q 1981 -91 1556 -91 
Q 1019 -91 701 211 
Q 384 513 384 1019 
Q 384 1609 779 1909 
Q 1175 2209 1959 2209 
L 2766 2209 
L 2766 2266 
Q 2766 2663 2505 2880 
Q 2244 3097 1772 3097 
Q 1472 3097 1187 3025 
Q 903 2953 641 2809 
L 641 3341 
Q 956 3463 1253 3523 
Q 1550 3584 1831 3584 
Q 2591 3584 2966 3190 
Q 3341 2797 3341 1997 
z
" transform="scale(0.015625)"/>
       <path id="DejaVuSans-69" d="M 603 3500 
L 1178 3500 
L 1178 0 
L 603 0 
L 603 3500 
z
M 603 4863 
L 1178 4863 
L 1178 4134 
L 603 4134 
L 603 4863 
z
" transform="scale(0.015625)"/>
       <path id="DejaVuSans-6e" d="M 3513 2113 
L 3513 0 
L 2938 0 
L 2938 2094 
Q 2938 2591 2744 2837 
Q 2550 3084 2163 3084 
Q 1697 3084 1428 2787 
Q 1159 2491 1159 1978 
L 1159 0 
L 581 0 
L 581 3500 
L 1159 3500 
L 1159 2956 
Q 1366 3272 1645 3428 
Q 1925 3584 2291 3584 
Q 2894 3584 3203 3211 
Q 3513 2838 3513 2113 
z
" transform="scale(0.015625)"/>
       <path id="DejaVuSans-67" d="M 2906 1791 
Q 2906 2416 2648 2759 
Q 2391 3103 1925 3103 
Q 1463 3103 1205 2759 
Q 947 2416 947 1791 
Q 947 1169 1205 825 
Q 1463 481 1925 481 
Q 2391 481 2648 825 
Q 2906 1169 2906 1791 
z
M 3481 434 
Q 3481 -459 3084 -895 
Q 2688 -1331 1869 -1331 
Q 1566 -1331 1297 -1286 
Q 1028 -1241 775 -1147 
L 775 -588 
Q 1028 -725 1275 -790 
Q 1522 -856 1778 -856 
Q 2344 -856 2625 -561 
Q 2906 -266 2906 331 
L 2906 616 
Q 2728 306 2450 153 
Q 2172 0 1784 0 
Q 1141 0 747 490 
Q 353 981 353 1791 
Q 353 2603 747 3093 
Q 1141 3584 1784 3584 
Q 2172 3584 2450 3431 
Q 2728 3278 2906 2969 
L 2906 3500 
L 3481 3500 
L 3481 434 
z
" transform="scale(0.015625)"/>
       <path id="DejaVuSans-20" transform="scale(0.015625)"/>
       <path id="DejaVuSans-73" d="M 2834 3397 
L 2834 2853 
Q 2591 2978 2328 3040 
Q 2066 3103 1784 3103 
Q 1356 3103 1142 2972 
Q 928 2841 928 2578 
Q 928 2378 1081 2264 
Q 1234 2150 1697 2047 
L 1894 2003 
Q 2506 1872 2764 1633 
Q 3022 1394 3022 966 
Q 3022 478 2636 193 
Q 2250 -91 1575 -91 
Q 1294 -91 989 -36 
Q 684 19 347 128 
L 347 722 
Q 666 556 975 473 
Q 1284 391 1588 391 
Q 1994 391 2212 530 
Q 2431 669 2431 922 
Q 2431 1156 2273 1281 
Q 2116 1406 1581 1522 
L 1381 1569 
Q 847 1681 609 1914 
Q 372 2147 372 2553 
Q 372 3047 722 3315 
Q 1072 3584 1716 3584 
Q 2034 3584 2315 3537 
Q 2597 3491 2834 3397 
z
" transform="scale(0.015625)"/>
       <path id="DejaVuSans-74" d="M 1172 4494 
L 1172 3500 
L 2356 3500 
L 2356 3053 
L 1172 3053 
L 1172 1153 
Q 1172 725 1289 603 
Q 1406 481 1766 481 
L 2356 481 
L 2356 0 
L 1766 0 
Q 1100 0 847 248 
Q 594 497 594 1153 
L 594 3053 
L 172 3053 
L 172 3500 
L 594 3500 
L 594 4494 
L 1172 4494 
z
" transform="scale(0.015625)"/>
       <path id="DejaVuSans-65" d="M 3597 1894 
L 3597 1613 
L 953 1613 
Q 991 1019 1311 708 
Q 1631 397 2203 397 
Q 2534 397 2845 478 
Q 3156 559 3463 722 
L 3463 178 
Q 3153 47 2828 -22 
Q 2503 -91 2169 -91 
Q 1331 -91 842 396 
Q 353 884 353 1716 
Q 353 2575 817 3079 
Q 1281 3584 2069 3584 
Q 2775 3584 3186 3129 
Q 3597 2675 3597 1894 
z
M 3022 2063 
Q 3016 2534 2758 2815 
Q 2500 3097 2075 3097 
Q 1594 3097 1305 2825 
Q 1016 2553 972 2059 
L 3022 2063 
z
" transform="scale(0.015625)"/>
       <path id="DejaVuSans-70" d="M 1159 525 
L 1159 -1331 
L 581 -1331 
L 581 3500 
L 1159 3500 
L 1159 2969 
Q 1341 3281 1617 3432 
Q 1894 3584 2278 3584 
Q 2916 3584 3314 3078 
Q 3713 2572 3713 1747 
Q 3713 922 3314 415 
Q 2916 -91 2278 -91 
Q 1894 -91 1617 61 
Q 1341 213 1159 525 
z
M 3116 1747 
Q 3116 2381 2855 2742 
Q 2594 3103 2138 3103 
Q 1681 3103 1420 2742 
Q 1159 2381 1159 1747 
Q 1159 1113 1420 752 
Q 1681 391 2138 391 
Q 2594 391 2855 752 
Q 3116 1113 3116 1747 
z
" transform="scale(0.015625)"/>
      </defs>
      <use xlink:href="#DejaVuSans-54"/>
      <use xlink:href="#DejaVuSans-72" transform="translate(46.333984 0)"/>
      <use xlink:href="#DejaVuSans-61" transform="translate(87.447266 0)"/>
      <use xlink:href="#DejaVuSans-69" transform="translate(148.726562 0)"/>
      <use xlink:href="#DejaVuSans-6e" transform="translate(176.509766 0)"/>
      <use xlink:href="#DejaVuSans-69" transform="translate(239.888672 0)"/>
      <use xlink:href="#DejaVuSans-6e" transform="translate(267.671875 0)"/>
      <use xlink:href="#DejaVuSans-67" transform="translate(331.050781 0)"/>
      <use xlink:href="#DejaVuSans-20" transform="translate(394.527344 0)"/>
      <use xlink:href="#DejaVuSans-73" transform="translate(426.314453 0)"/>
      <use xlink:href="#DejaVuSans-74" transform="translate(478.414062 0)"/>
      <use xlink:href="#DejaVuSans-65" transform="translate(517.623047 0)"/>
      <use xlink:href="#DejaVuSans-70" transform="translate(579.146484 0)"/>
      <use xlink:href="#DejaVuSans-73" transform="translate(642.623047 0)"/>
     </g>
    </g>
   </g>
   <g id="matplotlib.axis_2">
    <g id="ytick_1">
     <g id="line2d_6">
      <defs>
       <path id="mbe33c0fc65" d="M 0 0 
L -3.5 0 
" style="stroke: #000000; stroke-width: 0.8"/>
      </defs>
      <g>
       <use xlink:href="#mbe33c0fc65" x="72" y="313.910956" style="stroke: #000000; stroke-width: 0.8"/>
      </g>
     </g>
     <g id="text_7">
      <!-- 0.4 -->
      <g transform="translate(49.096875 317.710175) scale(0.1 -0.1)">
       <defs>
        <path id="DejaVuSans-2e" d="M 684 794 
L 1344 794 
L 1344 0 
L 684 0 
L 684 794 
z
" transform="scale(0.015625)"/>
       </defs>
       <use xlink:href="#DejaVuSans-30"/>
       <use xlink:href="#DejaVuSans-2e" transform="translate(63.623047 0)"/>
       <use xlink:href="#DejaVuSans-34" transform="translate(95.410156 0)"/>
      </g>
     </g>
    </g>
    <g id="ytick_2">
     <g id="line2d_7">
      <g>
       <use xlink:href="#mbe33c0fc65" x="72" y="269.947244" style="stroke: #000000; stroke-width: 0.8"/>
      </g>
     </g>
     <g id="text_8">
      <!-- 0.5 -->
      <g transform="translate(49.096875 273.746462) scale(0.1 -0.1)">
       <defs>
        <path id="DejaVuSans-35" d="M 691 4666 
L 3169 4666 
L 3169 4134 
L 1269 4134 
L 1269 2991 
Q 1406 3038 1543 3061 
Q 1681 3084 1819 3084 
Q 2600 3084 3056 2656 
Q 3513 2228 3513 1497 
Q 3513 744 3044 326 
Q 2575 -91 1722 -91 
Q 1428 -91 1123 -41 
Q 819 9 494 109 
L 494 744 
Q 775 591 1075 516 
Q 1375 441 1709 441 
Q 2250 441 2565 725 
Q 2881 1009 2881 1497 
Q 2881 1984 2565 2268 
Q 2250 2553 1709 2553 
Q 1456 2553 1204 2497 
Q 953 2441 691 2322 
L 691 4666 
z
" transform="scale(0.015625)"/>
       </defs>
       <use xlink:href="#DejaVuSans-30"/>
       <use xlink:href="#DejaVuSans-2e" transform="translate(63.623047 0)"/>
       <use xlink:href="#DejaVuSans-35" transform="translate(95.410156 0)"/>
      </g>
     </g>
    </g>
    <g id="ytick_3">
     <g id="line2d_8">
      <g>
       <use xlink:href="#mbe33c0fc65" x="72" y="225.983531" style="stroke: #000000; stroke-width: 0.8"/>
      </g>
     </g>
     <g id="text_9">
      <!-- 0.6 -->
      <g transform="translate(49.096875 229.78275) scale(0.1 -0.1)">
       <use xlink:href="#DejaVuSans-30"/>
       <use xlink:href="#DejaVuSans-2e" transform="translate(63.623047 0)"/>
       <use xlink:href="#DejaVuSans-36" transform="translate(95.410156 0)"/>
      </g>
     </g>
    </g>
    <g id="ytick_4">
     <g id="line2d_9">
      <g>
       <use xlink:href="#mbe33c0fc65" x="72" y="182.019819" style="stroke: #000000; stroke-width: 0.8"/>
      </g>
     </g>
     <g id="text_10">
      <!-- 0.7 -->
      <g transform="translate(49.096875 185.819037) scale(0.1 -0.1)">
       <defs>
        <path id="DejaVuSans-37" d="M 525 4666 
L 3525 4666 
L 3525 4397 
L 1831 0 
L 1172 0 
L 2766 4134 
L 525 4134 
L 525 4666 
z
" transform="scale(0.015625)"/>
       </defs>
       <use xlink:href="#DejaVuSans-30"/>
       <use xlink:href="#DejaVuSans-2e" transform="translate(63.623047 0)"/>
       <use xlink:href="#DejaVuSans-37" transform="translate(95.410156 0)"/>
      </g>
     </g>
    </g>
    <g id="ytick_5">
     <g id="line2d_10">
      <g>
       <use xlink:href="#mbe33c0fc65" x="72" y="138.056106" style="stroke: #000000; stroke-width: 0.8"/>
      </g>
     </g>
     <g id="text_11">
      <!-- 0.8 -->
      <g transform="translate(49.096875 141.855325) scale(0.1 -0.1)">
       <use xlink:href="#DejaVuSans-30"/>
       <use xlink:href="#DejaVuSans-2e" transform="translate(63.623047 0)"/>
       <use xlink:href="#DejaVuSans-38" transform="translate(95.410156 0)"/>
      </g>
     </g>
    </g>
    <g id="ytick_6">
     <g id="line2d_11">
      <g>
       <use xlink:href="#mbe33c0fc65" x="72" y="94.092394" style="stroke: #000000; stroke-width: 0.8"/>
      </g>
     </g>
     <g id="text_12">
      <!-- 0.9 -->
      <g transform="translate(49.096875 97.891612) scale(0.1 -0.1)">
       <defs>
        <path id="DejaVuSans-39" d="M 703 97 
L 703 672 
Q 941 559 1184 500 
Q 1428 441 1663 441 
Q 2288 441 2617 861 
Q 2947 1281 2994 2138 
Q 2813 1869 2534 1725 
Q 2256 1581 1919 1581 
Q 1219 1581 811 2004 
Q 403 2428 403 3163 
Q 403 3881 828 4315 
Q 1253 4750 1959 4750 
Q 2769 4750 3195 4129 
Q 3622 3509 3622 2328 
Q 3622 1225 3098 567 
Q 2575 -91 1691 -91 
Q 1453 -91 1209 -44 
Q 966 3 703 97 
z
M 1959 2075 
Q 2384 2075 2632 2365 
Q 2881 2656 2881 3163 
Q 2881 3666 2632 3958 
Q 2384 4250 1959 4250 
Q 1534 4250 1286 3958 
Q 1038 3666 1038 3163 
Q 1038 2656 1286 2365 
Q 1534 2075 1959 2075 
z
" transform="scale(0.015625)"/>
       </defs>
       <use xlink:href="#DejaVuSans-30"/>
       <use xlink:href="#DejaVuSans-2e" transform="translate(63.623047 0)"/>
       <use xlink:href="#DejaVuSans-39" transform="translate(95.410156 0)"/>
      </g>
     </g>
    </g>
    <g id="ytick_7">
     <g id="line2d_12">
      <g>
       <use xlink:href="#mbe33c0fc65" x="72" y="50.128681" style="stroke: #000000; stroke-width: 0.8"/>
      </g>
     </g>
     <g id="text_13">
      <!-- 1.0 -->
      <g transform="translate(49.096875 53.9279) scale(0.1 -0.1)">
       <use xlink:href="#DejaVuSans-31"/>
       <use xlink:href="#DejaVuSans-2e" transform="translate(63.623047 0)"/>
       <use xlink:href="#DejaVuSans-30" transform="translate(95.410156 0)"/>
      </g>
     </g>
    </g>
    <g id="text_14">
     <!-- Loss -->
     <g transform="translate(43.017187 192.767187) rotate(-90) scale(0.1 -0.1)">
      <defs>
       <path id="DejaVuSans-4c" d="M 628 4666 
L 1259 4666 
L 1259 531 
L 3531 531 
L 3531 0 
L 628 0 
L 628 4666 
z
" transform="scale(0.015625)"/>
       <path id="DejaVuSans-6f" d="M 1959 3097 
Q 1497 3097 1228 2736 
Q 959 2375 959 1747 
Q 959 1119 1226 758 
Q 1494 397 1959 397 
Q 2419 397 2687 759 
Q 2956 1122 2956 1747 
Q 2956 2369 2687 2733 
Q 2419 3097 1959 3097 
z
M 1959 3584 
Q 2709 3584 3137 3096 
Q 3566 2609 3566 1747 
Q 3566 888 3137 398 
Q 2709 -91 1959 -91 
Q 1206 -91 779 398 
Q 353 888 353 1747 
Q 353 2609 779 3096 
Q 1206 3584 1959 3584 
z
" transform="scale(0.015625)"/>
      </defs>
      <use xlink:href="#DejaVuSans-4c"/>
      <use xlink:href="#DejaVuSans-6f" transform="translate(53.962891 0)"/>
      <use xlink:href="#DejaVuSans-73" transform="translate(115.144531 0)"/>
      <use xlink:href="#DejaVuSans-73" transform="translate(167.244141 0)"/>
     </g>
    </g>
   </g>
   <g id="line2d_13">
    <path d="M 72 139.726727 
L 76.509091 169.050523 
L 81.018182 168.742777 
L 85.527273 177.53552 
L 90.036364 172.08402 
L 94.545455 180.393161 
L 99.054545 177.447592 
L 103.563636 175.381298 
L 108.072727 178.238939 
L 112.581818 179.865597 
L 117.090909 177.667411 
L 121.6 180.525052 
L 126.109091 181.184508 
L 130.618182 180.173343 
L 135.127273 181.404327 
L 139.636364 182.591347 
L 144.145455 181.668109 
L 148.654545 177.403629 
L 153.163636 181.140544 
L 157.672727 179.733706 
L 162.181818 181.8 
L 166.690909 182.239637 
L 171.2 181.096581 
L 175.709091 182.371528 
L 180.218182 182.811165 
L 184.727273 183.602512 
L 189.236364 187.647174 
L 193.745455 184.305932 
L 198.254545 184.965387 
L 202.763636 181.580181 
L 207.272727 181.096581 
L 211.781818 183.514585 
L 216.290909 184.52575 
L 220.8 183.294766 
L 225.309091 181.052617 
L 229.818182 185.756734 
L 234.327273 183.382694 
L 238.836364 184.87746 
L 243.345455 183.470621 
L 247.854545 185.317097 
L 252.363636 185.492952 
L 256.872727 185.141242 
L 261.381818 189.669505 
L 265.890909 183.514585 
L 270.4 184.921424 
L 274.909091 185.844662 
L 279.418182 183.558548 
L 283.927273 183.910258 
L 288.436364 184.833496 
L 292.945455 183.514585 
L 297.454545 185.053315 
L 301.963636 184.218004 
L 306.472727 184.965387 
L 310.981818 188.174738 
L 315.490909 183.382694 
L 320 190.504815 
L 324.509091 185.71277 
L 329.018182 188.394557 
L 333.527273 187.295464 
L 338.036364 183.118911 
L 342.545455 185.71277 
L 347.054545 184.17404 
L 351.563636 185.71277 
L 356.072727 185.844662 
L 360.581818 190.900488 
L 365.090909 187.207537 
L 369.6 184.130077 
L 374.109091 186.328262 
L 378.618182 189.361759 
L 383.127273 188.042847 
L 387.636364 192.790928 
L 392.145455 185.492952 
L 396.654545 184.393859 
L 401.163636 188.878158 
L 405.672727 190.944452 
L 410.181818 188.834194 
L 414.690909 188.966085 
L 419.2 187.647174 
L 423.709091 189.010049 
L 428.218182 191.03238 
L 432.727273 189.757432 
L 437.236364 187.559246 
L 441.745455 187.647174 
L 446.254545 187.339428 
L 450.763636 190.109142 
L 455.272727 189.317795 
L 459.781818 192.659037 
L 464.290909 189.581577 
L 468.8 189.669505 
L 473.309091 188.834194 
L 477.818182 188.218702 
L 482.327273 191.51598 
L 486.836364 191.823726 
L 491.345455 187.735101 
L 495.854545 190.768597 
L 500.363636 191.296162 
L 504.872727 189.185904 
L 509.381818 191.559944 
L 513.890909 194.725331 
L 518.4 196.044243 
" clip-path="url(#p41f8b3152a)" style="fill: none; stroke: #1f77b4; stroke-width: 1.5; stroke-linecap: square"/>
   </g>
   <g id="line2d_14">
    <path d="M 72 79.36455 
L 76.509091 147.860014 
L 81.018182 172.391766 
L 85.527273 166.192882 
L 90.036364 168.478995 
L 94.545455 168.391068 
L 99.054545 162.280112 
L 103.563636 143.771389 
L 108.072727 171.468528 
L 112.581818 163.642987 
L 117.090909 166.368737 
L 121.6 173.358967 
L 126.109091 176.084717 
L 130.618182 173.666713 
L 135.127273 158.103559 
L 139.636364 172.259874 
L 144.145455 177.139846 
L 148.654545 154.014934 
L 153.163636 163.027495 
L 157.672727 145.354082 
L 162.181818 169.753943 
L 166.690909 168.259177 
L 171.2 162.719749 
L 175.709091 157.04843 
L 180.218182 159.598325 
L 184.727273 162.983531 
L 189.236364 174.502024 
L 193.745455 176.3485 
L 198.254545 161.093091 
L 202.763636 176.963992 
L 207.272727 166.808374 
L 211.781818 173.27104 
L 216.290909 167.379902 
L 220.8 159.818144 
L 225.309091 177.007955 
L 229.818182 171.116818 
L 234.327273 167.775576 
L 238.836364 163.950733 
L 243.345455 175.557153 
L 247.854545 178.282903 
L 252.363636 164.654152 
L 256.872727 179.07425 
L 261.381818 161.049128 
L 265.890909 173.534822 
L 270.4 178.546685 
L 274.909091 178.854431 
L 279.418182 177.975157 
L 283.927273 169.709979 
L 288.436364 174.985625 
L 292.945455 176.436427 
L 297.454545 180.481089 
L 301.963636 177.447592 
L 306.472727 167.379902 
L 310.981818 180.393161 
L 315.490909 178.810468 
L 320 177.843266 
L 324.509091 178.458758 
L 329.018182 179.469923 
L 333.527273 180.481089 
L 338.036364 175.820935 
L 342.545455 175.029588 
L 347.054545 176.392463 
L 351.563636 173.798604 
L 356.072727 178.194976 
L 360.581818 174.238241 
L 365.090909 181.404327 
L 369.6 179.601814 
L 374.109091 175.908863 
L 378.618182 183.33873 
L 383.127273 175.029588 
L 387.636364 174.194278 
L 392.145455 182.459456 
L 396.654545 181.316399 
L 401.163636 182.415492 
L 405.672727 176.568318 
L 410.181818 184.52575 
L 414.690909 182.723238 
L 419.2 183.778367 
L 423.709091 179.469923 
L 428.218182 181.887927 
L 432.727273 184.042149 
L 437.236364 182.767202 
L 441.745455 185.273133 
L 446.254545 188.526448 
L 450.763636 183.734403 
L 455.272727 188.746267 
L 459.781818 186.328262 
L 464.290909 185.361061 
L 468.8 189.449686 
L 473.309091 189.229867 
L 477.818182 189.14194 
L 482.327273 188.350593 
L 486.836364 192.834892 
L 491.345455 187.031682 
L 495.854545 188.218702 
L 500.363636 188.922121 
L 504.872727 191.296162 
L 509.381818 196.176134 
L 513.890909 200.044941 
L 518.4 199.253594 
" clip-path="url(#p41f8b3152a)" style="fill: none; stroke: #ff7f0e; stroke-width: 1.5; stroke-linecap: square"/>
   </g>
   <g id="line2d_15">
    <path d="M 72 184.042149 
L 76.509091 190.021214 
L 81.018182 183.69044 
L 85.527273 176.392463 
L 90.036364 177.711375 
L 94.545455 187.866992 
L 99.054545 202.858618 
L 103.563636 205.01284 
L 108.072727 204.309421 
L 112.581818 213.5418 
L 117.090909 210.991905 
L 121.6 203.649965 
L 126.109091 210.81605 
L 130.618182 209.145429 
L 135.127273 224.66462 
L 139.636364 215.476204 
L 144.145455 219.828611 
L 148.654545 206.90328 
L 153.163636 216.047732 
L 157.672727 212.618562 
L 162.181818 224.66462 
L 166.690909 222.598325 
L 171.2 214.24522 
L 175.709091 223.609491 
L 180.218182 215.696022 
L 184.727273 223.257781 
L 189.236364 237.326169 
L 193.745455 222.818144 
L 198.254545 221.499232 
L 202.763636 214.772784 
L 207.272727 224.356874 
L 211.781818 209.365248 
L 216.290909 230.248011 
L 220.8 211.695324 
L 225.309091 220.839777 
L 229.818182 228.753245 
L 234.327273 225.368039 
L 238.836364 236.930495 
L 243.345455 233.369435 
L 247.854545 247.789532 
L 252.363636 227.478297 
L 256.872727 237.10635 
L 261.381818 230.46783 
L 265.890909 210.244522 
L 270.4 231.435031 
L 274.909091 215.388276 
L 279.418182 222.290579 
L 283.927273 237.282205 
L 288.436364 234.644382 
L 292.945455 219.520865 
L 297.454545 227.566225 
L 301.963636 233.633217 
L 306.472727 218.86141 
L 310.981818 227.39037 
L 315.490909 246.954222 
L 320 237.677879 
L 324.509091 244.052617 
L 329.018182 246.294766 
L 333.527273 226.511096 
L 338.036364 237.45806 
L 342.545455 234.204745 
L 347.054545 249.196371 
L 351.563636 228.181717 
L 356.072727 234.864201 
L 360.581818 248.492952 
L 365.090909 251.218702 
L 369.6 241.678576 
L 374.109091 246.602512 
L 378.618182 250.95492 
L 383.127273 246.250803 
L 387.636364 257.59344 
L 392.145455 242.90956 
L 396.654545 258.604606 
L 401.163636 249.548081 
L 405.672727 237.80977 
L 410.181818 251.086811 
L 414.690909 241.986322 
L 419.2 261.418283 
L 423.709091 254.86769 
L 428.218182 248.361061 
L 432.727273 241.590649 
L 437.236364 246.162875 
L 441.745455 252.405722 
L 446.254545 247.349895 
L 450.763636 244.096581 
L 455.272727 251.878158 
L 459.781818 251.482484 
L 464.290909 250.427355 
L 468.8 250.691137 
L 473.309091 253.109142 
L 477.818182 234.952128 
L 482.327273 251.130775 
L 486.836364 265.418981 
L 491.345455 249.06448 
L 495.854545 253.900488 
L 500.363636 264.583671 
L 504.872727 266.518074 
L 509.381818 248.668807 
L 513.890909 268.848151 
L 518.4 269.859316 
" clip-path="url(#p41f8b3152a)" style="fill: none; stroke: #2ca02c; stroke-width: 1.5; stroke-linecap: square"/>
   </g>
   <g id="line2d_16">
    <path d="M 72 114.227774 
L 76.509091 155.026099 
L 81.018182 172.875366 
L 85.527273 174.941661 
L 90.036364 185.71277 
L 94.545455 188.570412 
L 99.054545 187.779065 
L 103.563636 200.132868 
L 108.072727 197.495045 
L 112.581818 206.024006 
L 117.090909 193.582275 
L 121.6 196.088207 
L 126.109091 182.899093 
L 130.618182 198.02261 
L 135.127273 196.747662 
L 139.636364 208.793719 
L 144.145455 200.924215 
L 148.654545 199.297558 
L 153.163636 193.186602 
L 157.672727 178.854431 
L 162.181818 200.660433 
L 166.690909 203.562038 
L 171.2 188.834194 
L 175.709091 193.977948 
L 180.218182 193.977948 
L 184.727273 204.66113 
L 189.236364 213.937474 
L 193.745455 209.585066 
L 198.254545 203.957711 
L 202.763636 205.408514 
L 207.272727 204.705094 
L 211.781818 209.585066 
L 216.290909 218.421773 
L 220.8 193.538311 
L 225.309091 213.937474 
L 229.818182 204.617167 
L 234.327273 210.244522 
L 238.836364 216.311514 
L 243.345455 223.917237 
L 247.854545 219.960502 
L 252.363636 200.264759 
L 256.872727 224.444801 
L 261.381818 210.728123 
L 265.890909 198.594138 
L 270.4 214.59693 
L 274.909091 193.890021 
L 279.418182 205.760223 
L 283.927273 201.539707 
L 288.436364 212.134962 
L 292.945455 212.310816 
L 297.454545 210.728123 
L 301.963636 217.718353 
L 306.472727 215.959805 
L 310.981818 204.309421 
L 315.490909 231.259177 
L 320 221.543196 
L 324.509091 224.708583 
L 329.018182 231.786741 
L 333.527273 215.696022 
L 338.036364 212.970272 
L 342.545455 210.684159 
L 347.054545 231.083322 
L 351.563636 220.444103 
L 356.072727 215.168458 
L 360.581818 235.611584 
L 365.090909 215.871877 
L 369.6 218.817446 
L 374.109091 219.916539 
L 378.618182 231.347104 
L 383.127273 224.532729 
L 387.636364 229.324773 
L 392.145455 223.12589 
L 396.654545 235.08402 
L 401.163636 241.634613 
L 405.672727 221.279414 
L 410.181818 232.753943 
L 414.690909 235.787439 
L 419.2 232.666015 
L 423.709091 244.44829 
L 428.218182 226.68695 
L 432.727273 223.741382 
L 437.236364 232.666015 
L 441.745455 234.644382 
L 446.254545 226.247313 
L 450.763636 218.421773 
L 455.272727 239.084717 
L 459.781818 242.733706 
L 464.290909 240.711375 
L 468.8 237.545987 
L 473.309091 247.437823 
L 477.818182 228.621354 
L 482.327273 240.579484 
L 486.836364 248.361061 
L 491.345455 235.91933 
L 495.854545 247.305932 
L 500.363636 251.174738 
L 504.872727 250.075645 
L 509.381818 242.381996 
L 513.890909 254.428053 
L 518.4 253.592742 
" clip-path="url(#p41f8b3152a)" style="fill: none; stroke: #d62728; stroke-width: 1.5; stroke-linecap: square"/>
   </g>
   <g id="line2d_17">
    <path d="M 72 157.04843 
L 76.509091 181.712073 
L 81.018182 179.821633 
L 85.527273 198.813957 
L 90.036364 208.793719 
L 94.545455 214.113329 
L 99.054545 227.830007 
L 103.563636 218.773482 
L 108.072727 197.319191 
L 112.581818 226.20335 
L 117.090909 229.984229 
L 121.6 223.12589 
L 126.109091 224.752547 
L 130.618182 220.092394 
L 135.127273 236.139149 
L 139.636364 234.952128 
L 144.145455 241.854431 
L 148.654545 228.401535 
L 153.163636 230.731612 
L 157.672727 215.78395 
L 162.181818 237.545987 
L 166.690909 241.986322 
L 171.2 232.885834 
L 175.709091 236.666713 
L 180.218182 239.612282 
L 184.727273 236.842568 
L 189.236364 241.194976 
L 193.745455 241.151012 
L 198.254545 232.138451 
L 202.763636 234.600419 
L 207.272727 231.918632 
L 211.781818 229.544592 
L 216.290909 251.526448 
L 220.8 252.449686 
L 225.309091 246.470621 
L 229.818182 248.273133 
L 234.327273 254.252198 
L 238.836364 263.220796 
L 243.345455 253.416888 
L 247.854545 256.450384 
L 252.363636 252.097976 
L 256.872727 255.043545 
L 261.381818 263.088904 
L 265.890909 238.820935 
L 270.4 249.06448 
L 274.909091 247.130077 
L 279.418182 256.670202 
L 283.927273 251.174738 
L 288.436364 252.625541 
L 292.945455 246.074948 
L 297.454545 249.328262 
L 301.963636 255.746964 
L 306.472727 239.524355 
L 310.981818 252.273831 
L 315.490909 269.947244 
L 320 258.868388 
L 324.509091 258.956315 
L 329.018182 261.945848 
L 333.527273 244.975855 
L 338.036364 261.198465 
L 342.545455 263.440614 
L 347.054545 262.20963 
L 351.563636 257.725331 
L 356.072727 248.932589 
L 360.581818 272.716957 
L 365.090909 274.959107 
L 369.6 262.693231 
L 374.109091 276.5418 
L 378.618182 273.640195 
L 383.127273 267.133566 
L 387.636364 275.266853 
L 392.145455 264.803489 
L 396.654545 283.707886 
L 401.163636 272.936776 
L 405.672727 263.39665 
L 410.181818 275.574599 
L 414.690909 263.660433 
L 419.2 281.641591 
L 423.709091 294.083322 
L 428.218182 273.024703 
L 432.727273 272.365248 
L 437.236364 275.00307 
L 441.745455 285.158688 
L 446.254545 270.650663 
L 450.763636 283.88374 
L 455.272727 281.729518 
L 459.781818 280.542498 
L 464.290909 269.991207 
L 468.8 262.781158 
L 473.309091 290.39037 
L 477.818182 251.702303 
L 482.327273 280.454571 
L 486.836364 301.205443 
L 491.345455 272.585066 
L 495.854545 275.618562 
L 500.363636 287.884438 
L 504.872727 295.182415 
L 509.381818 270.342917 
L 513.890909 307.8 
L 518.4 295.709979 
" clip-path="url(#p41f8b3152a)" style="fill: none; stroke: #9467bd; stroke-width: 1.5; stroke-linecap: square"/>
   </g>
   <g id="line2d_18">
    <path d="M 72 176.216609 
L 76.509091 186.284299 
L 81.018182 183.514585 
L 85.527273 192.131472 
L 90.036364 205.672296 
L 94.545455 214.113329 
L 99.054545 212.442708 
L 103.563636 222.378507 
L 108.072727 221.455269 
L 112.581818 223.389672 
L 117.090909 232.00656 
L 121.6 214.992603 
L 126.109091 218.114027 
L 130.618182 226.291277 
L 135.127273 224.400837 
L 139.636364 215.212421 
L 144.145455 236.842568 
L 148.654545 227.961898 
L 153.163636 238.513189 
L 157.672727 235.963294 
L 162.181818 235.171947 
L 166.690909 228.005862 
L 171.2 235.171947 
L 175.709091 234.424564 
L 180.218182 229.412701 
L 184.727273 225.85164 
L 189.236364 244.272435 
L 193.745455 236.886532 
L 198.254545 224.796511 
L 202.763636 227.917934 
L 207.272727 233.149616 
L 211.781818 231.435031 
L 216.290909 250.339428 
L 220.8 241.810468 
L 225.309091 241.414794 
L 229.818182 249.723936 
L 234.327273 246.514585 
L 238.836364 252.405722 
L 243.345455 237.062387 
L 247.854545 250.998883 
L 252.363636 238.161479 
L 256.872727 244.712073 
L 261.381818 246.998186 
L 265.890909 234.688346 
L 270.4 240.799302 
L 274.909091 245.635311 
L 279.418182 247.87746 
L 283.927273 248.536916 
L 288.436364 244.316399 
L 292.945455 236.183112 
L 297.454545 245.371528 
L 301.963636 250.295464 
L 306.472727 236.315003 
L 310.981818 243.876762 
L 315.490909 263.352687 
L 320 252.889323 
L 324.509091 252.537613 
L 329.018182 259.659735 
L 333.527273 241.107048 
L 338.036364 262.253594 
L 342.545455 252.625541 
L 347.054545 264.847453 
L 351.563636 250.95492 
L 356.072727 251.130775 
L 360.581818 263.132868 
L 365.090909 267.045639 
L 369.6 256.318493 
L 374.109091 265.814655 
L 378.618182 264.891417 
L 383.127273 276.849546 
L 387.636364 260.802791 
L 392.145455 258.121005 
L 396.654545 273.684159 
L 401.163636 268.584368 
L 405.672727 257.153803 
L 410.181818 268.848151 
L 414.690909 260.363154 
L 419.2 269.287788 
L 423.709091 277.333147 
L 428.218182 260.187299 
L 432.727273 260.363154 
L 437.236364 261.769993 
L 441.745455 276.0582 
L 446.254545 265.902582 
L 450.763636 260.231263 
L 455.272727 278.739986 
L 459.781818 270.167062 
L 464.290909 262.20963 
L 468.8 257.153803 
L 473.309091 283.88374 
L 477.818182 251.482484 
L 482.327273 269.463643 
L 486.836364 285.77418 
L 491.345455 264.451779 
L 495.854545 274.255687 
L 500.363636 281.289881 
L 504.872727 275.662526 
L 509.381818 263.484578 
L 513.890909 286.213817 
L 518.4 283.268248 
" clip-path="url(#p41f8b3152a)" style="fill: none; stroke: #8c564b; stroke-width: 1.5; stroke-linecap: square"/>
   </g>
   <g id="line2d_19">
    <path d="M 72 55.8 
L 76.509091 181.272435 
L 81.018182 179.645778 
L 85.527273 182.723238 
L 90.036364 182.459456 
L 94.545455 190.021214 
L 99.054545 200.440614 
L 103.563636 216.443405 
L 108.072727 212.486671 
L 112.581818 210.947941 
L 117.090909 206.375715 
L 121.6 172.259874 
L 126.109091 197.890719 
L 130.618182 201.539707 
L 135.127273 209.101465 
L 139.636364 214.24522 
L 144.145455 216.179623 
L 148.654545 206.463643 
L 153.163636 210.420377 
L 157.672727 202.155199 
L 162.181818 217.190789 
L 166.690909 204.793022 
L 171.2 208.837683 
L 175.709091 202.199163 
L 180.218182 200.704396 
L 184.727273 217.850244 
L 189.236364 213.497837 
L 193.745455 206.463643 
L 198.254545 210.947941 
L 202.763636 192.746964 
L 207.272727 197.714864 
L 211.781818 202.814655 
L 216.290909 218.070063 
L 220.8 214.552966 
L 225.309091 226.555059 
L 229.818182 228.269644 
L 234.327273 226.20335 
L 238.836364 234.468528 
L 243.345455 236.095185 
L 247.854545 229.676483 
L 252.363636 216.223587 
L 256.872727 228.357572 
L 261.381818 228.885136 
L 265.890909 227.03866 
L 270.4 239.744173 
L 274.909091 206.463643 
L 279.418182 224.400837 
L 283.927273 223.653454 
L 288.436364 221.806978 
L 292.945455 232.358269 
L 297.454545 223.653454 
L 301.963636 229.456664 
L 306.472727 217.454571 
L 310.981818 226.774878 
L 315.490909 231.215213 
L 320 228.049826 
L 324.509091 239.480391 
L 329.018182 239.172645 
L 333.527273 224.181019 
L 338.036364 237.194278 
L 342.545455 237.502024 
L 347.054545 232.226378 
L 351.563636 230.511793 
L 356.072727 237.985625 
L 360.581818 255.615073 
L 365.090909 257.901186 
L 369.6 246.910258 
L 374.109091 250.60321 
L 378.618182 262.253594 
L 383.127273 254.955618 
L 387.636364 243.876762 
L 392.145455 252.49365 
L 396.654545 261.989812 
L 401.163636 259.044243 
L 405.672727 240.007955 
L 410.181818 267.17753 
L 414.690909 242.513887 
L 419.2 263.352687 
L 423.709091 262.297558 
L 428.218182 251.218702 
L 432.727273 249.855827 
L 437.236364 266.034473 
L 441.745455 259.308025 
L 446.254545 255.790928 
L 450.763636 250.515283 
L 455.272727 272.365248 
L 459.781818 255.746964 
L 464.290909 264.10007 
L 468.8 251.966085 
L 473.309091 271.354082 
L 477.818182 239.392463 
L 482.327273 264.144033 
L 486.836364 275.838381 
L 491.345455 266.913747 
L 495.854545 261.02261 
L 500.363636 281.817446 
L 504.872727 274.211724 
L 509.381818 261.506211 
L 513.890909 292.104955 
L 518.4 282.916539 
" clip-path="url(#p41f8b3152a)" style="fill: none; stroke: #e377c2; stroke-width: 1.5; stroke-linecap: square"/>
   </g>
   <g id="line2d_20">
    <path d="M 72 165.489463 
L 76.509091 174.150314 
L 81.018182 183.954222 
L 85.527273 178.898395 
L 90.036364 189.669505 
L 94.545455 203.693929 
L 99.054545 210.81605 
L 103.563636 222.42247 
L 108.072727 213.102163 
L 112.581818 205.408514 
L 117.090909 176.744173 
L 121.6 176.040754 
L 126.109091 175.249407 
L 130.618182 180.173343 
L 135.127273 179.162177 
L 139.636364 183.294766 
L 144.145455 184.87746 
L 148.654545 176.963992 
L 153.163636 169.929798 
L 157.672727 181.140544 
L 162.181818 183.470621 
L 166.690909 181.184508 
L 171.2 180.437125 
L 175.709091 168.127285 
L 180.218182 181.140544 
L 184.727273 183.426657 
L 189.236364 182.767202 
L 193.745455 184.305932 
L 198.254545 184.086113 
L 202.763636 183.734403 
L 207.272727 181.975855 
L 211.781818 179.42596 
L 216.290909 182.547383 
L 220.8 184.657641 
L 225.309091 184.569714 
L 229.818182 182.591347 
L 234.327273 184.87746 
L 238.836364 184.833496 
L 243.345455 184.921424 
L 247.854545 184.349895 
L 252.363636 184.569714 
L 256.872727 185.097278 
L 261.381818 184.833496 
L 265.890909 183.778367 
L 270.4 182.635311 
L 274.909091 184.745569 
L 279.418182 183.558548 
L 283.927273 184.701605 
L 288.436364 184.657641 
L 292.945455 184.701605 
L 297.454545 184.218004 
L 301.963636 184.87746 
L 306.472727 185.141242 
L 310.981818 184.789532 
L 315.490909 184.87746 
L 320 184.613678 
L 324.509091 185.185206 
L 329.018182 184.437823 
L 333.527273 184.481786 
L 338.036364 184.52575 
L 342.545455 184.52575 
L 347.054545 183.33873 
L 351.563636 184.87746 
L 356.072727 184.965387 
L 360.581818 185.009351 
L 365.090909 185.009351 
L 369.6 185.009351 
L 374.109091 185.009351 
L 378.618182 184.965387 
L 383.127273 184.921424 
L 387.636364 185.009351 
L 392.145455 185.009351 
L 396.654545 184.965387 
L 401.163636 184.745569 
L 405.672727 184.613678 
L 410.181818 184.87746 
L 414.690909 184.833496 
L 419.2 185.097278 
L 423.709091 184.833496 
L 428.218182 185.053315 
L 432.727273 185.009351 
L 437.236364 185.009351 
L 441.745455 185.009351 
L 446.254545 185.009351 
L 450.763636 185.009351 
L 455.272727 184.657641 
L 459.781818 185.009351 
L 464.290909 185.009351 
L 468.8 185.009351 
L 473.309091 185.009351 
L 477.818182 185.053315 
L 482.327273 185.053315 
L 486.836364 184.87746 
L 491.345455 185.053315 
L 495.854545 185.053315 
L 500.363636 185.053315 
L 504.872727 185.009351 
L 509.381818 185.053315 
L 513.890909 185.053315 
L 518.4 185.053315 
" clip-path="url(#p41f8b3152a)" style="fill: none; stroke: #7f7f7f; stroke-width: 1.5; stroke-linecap: square"/>
   </g>
   <g id="patch_3">
    <path d="M 72 320.4 
L 72 43.2 
" style="fill: none; stroke: #000000; stroke-width: 0.8; stroke-linejoin: miter; stroke-linecap: square"/>
   </g>
   <g id="patch_4">
    <path d="M 518.4 320.4 
L 518.4 43.2 
" style="fill: none; stroke: #000000; stroke-width: 0.8; stroke-linejoin: miter; stroke-linecap: square"/>
   </g>
   <g id="patch_5">
    <path d="M 72 320.4 
L 518.4 320.4 
" style="fill: none; stroke: #000000; stroke-width: 0.8; stroke-linejoin: miter; stroke-linecap: square"/>
   </g>
   <g id="patch_6">
    <path d="M 72 43.2 
L 518.4 43.2 
" style="fill: none; stroke: #000000; stroke-width: 0.8; stroke-linejoin: miter; stroke-linecap: square"/>
   </g>
   <g id="text_15">
    <!-- H3K9me3 -->
    <g transform="translate(265.764375 37.2) scale(0.12 -0.12)">
     <defs>
      <path id="DejaVuSans-48" d="M 628 4666 
L 1259 4666 
L 1259 2753 
L 3553 2753 
L 3553 4666 
L 4184 4666 
L 4184 0 
L 3553 0 
L 3553 2222 
L 1259 2222 
L 1259 0 
L 628 0 
L 628 4666 
z
" transform="scale(0.015625)"/>
      <path id="DejaVuSans-33" d="M 2597 2516 
Q 3050 2419 3304 2112 
Q 3559 1806 3559 1356 
Q 3559 666 3084 287 
Q 2609 -91 1734 -91 
Q 1441 -91 1130 -33 
Q 819 25 488 141 
L 488 750 
Q 750 597 1062 519 
Q 1375 441 1716 441 
Q 2309 441 2620 675 
Q 2931 909 2931 1356 
Q 2931 1769 2642 2001 
Q 2353 2234 1838 2234 
L 1294 2234 
L 1294 2753 
L 1863 2753 
Q 2328 2753 2575 2939 
Q 2822 3125 2822 3475 
Q 2822 3834 2567 4026 
Q 2313 4219 1838 4219 
Q 1578 4219 1281 4162 
Q 984 4106 628 3988 
L 628 4550 
Q 988 4650 1302 4700 
Q 1616 4750 1894 4750 
Q 2613 4750 3031 4423 
Q 3450 4097 3450 3541 
Q 3450 3153 3228 2886 
Q 3006 2619 2597 2516 
z
" transform="scale(0.015625)"/>
      <path id="DejaVuSans-4b" d="M 628 4666 
L 1259 4666 
L 1259 2694 
L 3353 4666 
L 4166 4666 
L 1850 2491 
L 4331 0 
L 3500 0 
L 1259 2247 
L 1259 0 
L 628 0 
L 628 4666 
z
" transform="scale(0.015625)"/>
      <path id="DejaVuSans-6d" d="M 3328 2828 
Q 3544 3216 3844 3400 
Q 4144 3584 4550 3584 
Q 5097 3584 5394 3201 
Q 5691 2819 5691 2113 
L 5691 0 
L 5113 0 
L 5113 2094 
Q 5113 2597 4934 2840 
Q 4756 3084 4391 3084 
Q 3944 3084 3684 2787 
Q 3425 2491 3425 1978 
L 3425 0 
L 2847 0 
L 2847 2094 
Q 2847 2600 2669 2842 
Q 2491 3084 2119 3084 
Q 1678 3084 1418 2786 
Q 1159 2488 1159 1978 
L 1159 0 
L 581 0 
L 581 3500 
L 1159 3500 
L 1159 2956 
Q 1356 3278 1631 3431 
Q 1906 3584 2284 3584 
Q 2666 3584 2933 3390 
Q 3200 3197 3328 2828 
z
" transform="scale(0.015625)"/>
     </defs>
     <use xlink:href="#DejaVuSans-48"/>
     <use xlink:href="#DejaVuSans-33" transform="translate(75.195312 0)"/>
     <use xlink:href="#DejaVuSans-4b" transform="translate(138.818359 0)"/>
     <use xlink:href="#DejaVuSans-39" transform="translate(204.394531 0)"/>
     <use xlink:href="#DejaVuSans-6d" transform="translate(268.017578 0)"/>
     <use xlink:href="#DejaVuSans-65" transform="translate(365.429688 0)"/>
     <use xlink:href="#DejaVuSans-33" transform="translate(426.953125 0)"/>
    </g>
   </g>
   <g id="legend_1">
    <g id="patch_7">
     <path d="M 334.210684 147.679025 
L 512.569 147.679025 
Q 514.235 147.679025 514.235 146.013025 
L 514.235 49.031 
Q 514.235 47.365 512.569 47.365 
L 334.210684 47.365 
Q 332.544684 47.365 332.544684 49.031 
L 332.544684 146.013025 
Q 332.544684 147.679025 334.210684 147.679025 
z
" style="fill: #ffffff; opacity: 0.8; stroke: #cccccc; stroke-linejoin: miter"/>
    </g>
    <g id="line2d_21">
     <path d="M 335.876684 54.110998 
L 344.206684 54.110998 
L 352.536684 54.110998 
" style="fill: none; stroke: #1f77b4; stroke-width: 1.5; stroke-linecap: square"/>
    </g>
    <g id="text_16">
     <!-- NT-MS V2 (50M) with rand. weights -->
     <g transform="translate(359.200684 57.026498) scale(0.0833 -0.0833)">
      <defs>
       <path id="DejaVuSans-4e" d="M 628 4666 
L 1478 4666 
L 3547 763 
L 3547 4666 
L 4159 4666 
L 4159 0 
L 3309 0 
L 1241 3903 
L 1241 0 
L 628 0 
L 628 4666 
z
" transform="scale(0.015625)"/>
       <path id="DejaVuSans-2d" d="M 313 2009 
L 1997 2009 
L 1997 1497 
L 313 1497 
L 313 2009 
z
" transform="scale(0.015625)"/>
       <path id="DejaVuSans-4d" d="M 628 4666 
L 1569 4666 
L 2759 1491 
L 3956 4666 
L 4897 4666 
L 4897 0 
L 4281 0 
L 4281 4097 
L 3078 897 
L 2444 897 
L 1241 4097 
L 1241 0 
L 628 0 
L 628 4666 
z
" transform="scale(0.015625)"/>
       <path id="DejaVuSans-53" d="M 3425 4513 
L 3425 3897 
Q 3066 4069 2747 4153 
Q 2428 4238 2131 4238 
Q 1616 4238 1336 4038 
Q 1056 3838 1056 3469 
Q 1056 3159 1242 3001 
Q 1428 2844 1947 2747 
L 2328 2669 
Q 3034 2534 3370 2195 
Q 3706 1856 3706 1288 
Q 3706 609 3251 259 
Q 2797 -91 1919 -91 
Q 1588 -91 1214 -16 
Q 841 59 441 206 
L 441 856 
Q 825 641 1194 531 
Q 1563 422 1919 422 
Q 2459 422 2753 634 
Q 3047 847 3047 1241 
Q 3047 1584 2836 1778 
Q 2625 1972 2144 2069 
L 1759 2144 
Q 1053 2284 737 2584 
Q 422 2884 422 3419 
Q 422 4038 858 4394 
Q 1294 4750 2059 4750 
Q 2388 4750 2728 4690 
Q 3069 4631 3425 4513 
z
" transform="scale(0.015625)"/>
       <path id="DejaVuSans-56" d="M 1831 0 
L 50 4666 
L 709 4666 
L 2188 738 
L 3669 4666 
L 4325 4666 
L 2547 0 
L 1831 0 
z
" transform="scale(0.015625)"/>
       <path id="DejaVuSans-28" d="M 1984 4856 
Q 1566 4138 1362 3434 
Q 1159 2731 1159 2009 
Q 1159 1288 1364 580 
Q 1569 -128 1984 -844 
L 1484 -844 
Q 1016 -109 783 600 
Q 550 1309 550 2009 
Q 550 2706 781 3412 
Q 1013 4119 1484 4856 
L 1984 4856 
z
" transform="scale(0.015625)"/>
       <path id="DejaVuSans-29" d="M 513 4856 
L 1013 4856 
Q 1481 4119 1714 3412 
Q 1947 2706 1947 2009 
Q 1947 1309 1714 600 
Q 1481 -109 1013 -844 
L 513 -844 
Q 928 -128 1133 580 
Q 1338 1288 1338 2009 
Q 1338 2731 1133 3434 
Q 928 4138 513 4856 
z
" transform="scale(0.015625)"/>
       <path id="DejaVuSans-77" d="M 269 3500 
L 844 3500 
L 1563 769 
L 2278 3500 
L 2956 3500 
L 3675 769 
L 4391 3500 
L 4966 3500 
L 4050 0 
L 3372 0 
L 2619 2869 
L 1863 0 
L 1184 0 
L 269 3500 
z
" transform="scale(0.015625)"/>
       <path id="DejaVuSans-68" d="M 3513 2113 
L 3513 0 
L 2938 0 
L 2938 2094 
Q 2938 2591 2744 2837 
Q 2550 3084 2163 3084 
Q 1697 3084 1428 2787 
Q 1159 2491 1159 1978 
L 1159 0 
L 581 0 
L 581 4863 
L 1159 4863 
L 1159 2956 
Q 1366 3272 1645 3428 
Q 1925 3584 2291 3584 
Q 2894 3584 3203 3211 
Q 3513 2838 3513 2113 
z
" transform="scale(0.015625)"/>
       <path id="DejaVuSans-64" d="M 2906 2969 
L 2906 4863 
L 3481 4863 
L 3481 0 
L 2906 0 
L 2906 525 
Q 2725 213 2448 61 
Q 2172 -91 1784 -91 
Q 1150 -91 751 415 
Q 353 922 353 1747 
Q 353 2572 751 3078 
Q 1150 3584 1784 3584 
Q 2172 3584 2448 3432 
Q 2725 3281 2906 2969 
z
M 947 1747 
Q 947 1113 1208 752 
Q 1469 391 1925 391 
Q 2381 391 2643 752 
Q 2906 1113 2906 1747 
Q 2906 2381 2643 2742 
Q 2381 3103 1925 3103 
Q 1469 3103 1208 2742 
Q 947 2381 947 1747 
z
" transform="scale(0.015625)"/>
      </defs>
      <use xlink:href="#DejaVuSans-4e"/>
      <use xlink:href="#DejaVuSans-54" transform="translate(74.804688 0)"/>
      <use xlink:href="#DejaVuSans-2d" transform="translate(126.763672 0)"/>
      <use xlink:href="#DejaVuSans-4d" transform="translate(162.847656 0)"/>
      <use xlink:href="#DejaVuSans-53" transform="translate(249.126953 0)"/>
      <use xlink:href="#DejaVuSans-20" transform="translate(312.603516 0)"/>
      <use xlink:href="#DejaVuSans-56" transform="translate(344.390625 0)"/>
      <use xlink:href="#DejaVuSans-32" transform="translate(412.798828 0)"/>
      <use xlink:href="#DejaVuSans-20" transform="translate(476.421875 0)"/>
      <use xlink:href="#DejaVuSans-28" transform="translate(508.208984 0)"/>
      <use xlink:href="#DejaVuSans-35" transform="translate(547.222656 0)"/>
      <use xlink:href="#DejaVuSans-30" transform="translate(610.845703 0)"/>
      <use xlink:href="#DejaVuSans-4d" transform="translate(674.46875 0)"/>
      <use xlink:href="#DejaVuSans-29" transform="translate(760.748047 0)"/>
      <use xlink:href="#DejaVuSans-20" transform="translate(799.761719 0)"/>
      <use xlink:href="#DejaVuSans-77" transform="translate(831.548828 0)"/>
      <use xlink:href="#DejaVuSans-69" transform="translate(913.335938 0)"/>
      <use xlink:href="#DejaVuSans-74" transform="translate(941.119141 0)"/>
      <use xlink:href="#DejaVuSans-68" transform="translate(980.328125 0)"/>
      <use xlink:href="#DejaVuSans-20" transform="translate(1043.707031 0)"/>
      <use xlink:href="#DejaVuSans-72" transform="translate(1075.494141 0)"/>
      <use xlink:href="#DejaVuSans-61" transform="translate(1116.607422 0)"/>
      <use xlink:href="#DejaVuSans-6e" transform="translate(1177.886719 0)"/>
      <use xlink:href="#DejaVuSans-64" transform="translate(1241.265625 0)"/>
      <use xlink:href="#DejaVuSans-2e" transform="translate(1304.742188 0)"/>
      <use xlink:href="#DejaVuSans-20" transform="translate(1336.529297 0)"/>
      <use xlink:href="#DejaVuSans-77" transform="translate(1368.316406 0)"/>
      <use xlink:href="#DejaVuSans-65" transform="translate(1450.103516 0)"/>
      <use xlink:href="#DejaVuSans-69" transform="translate(1511.626953 0)"/>
      <use xlink:href="#DejaVuSans-67" transform="translate(1539.410156 0)"/>
      <use xlink:href="#DejaVuSans-68" transform="translate(1602.886719 0)"/>
      <use xlink:href="#DejaVuSans-74" transform="translate(1666.265625 0)"/>
      <use xlink:href="#DejaVuSans-73" transform="translate(1705.474609 0)"/>
     </g>
    </g>
    <g id="line2d_22">
     <path d="M 335.876684 66.337877 
L 344.206684 66.337877 
L 352.536684 66.337877 
" style="fill: none; stroke: #ff7f0e; stroke-width: 1.5; stroke-linecap: square"/>
    </g>
    <g id="text_17">
     <!-- NT-MS V2 (500M) with rand. weights -->
     <g transform="translate(359.200684 69.253377) scale(0.0833 -0.0833)">
      <use xlink:href="#DejaVuSans-4e"/>
      <use xlink:href="#DejaVuSans-54" transform="translate(74.804688 0)"/>
      <use xlink:href="#DejaVuSans-2d" transform="translate(126.763672 0)"/>
      <use xlink:href="#DejaVuSans-4d" transform="translate(162.847656 0)"/>
      <use xlink:href="#DejaVuSans-53" transform="translate(249.126953 0)"/>
      <use xlink:href="#DejaVuSans-20" transform="translate(312.603516 0)"/>
      <use xlink:href="#DejaVuSans-56" transform="translate(344.390625 0)"/>
      <use xlink:href="#DejaVuSans-32" transform="translate(412.798828 0)"/>
      <use xlink:href="#DejaVuSans-20" transform="translate(476.421875 0)"/>
      <use xlink:href="#DejaVuSans-28" transform="translate(508.208984 0)"/>
      <use xlink:href="#DejaVuSans-35" transform="translate(547.222656 0)"/>
      <use xlink:href="#DejaVuSans-30" transform="translate(610.845703 0)"/>
      <use xlink:href="#DejaVuSans-30" transform="translate(674.46875 0)"/>
      <use xlink:href="#DejaVuSans-4d" transform="translate(738.091797 0)"/>
      <use xlink:href="#DejaVuSans-29" transform="translate(824.371094 0)"/>
      <use xlink:href="#DejaVuSans-20" transform="translate(863.384766 0)"/>
      <use xlink:href="#DejaVuSans-77" transform="translate(895.171875 0)"/>
      <use xlink:href="#DejaVuSans-69" transform="translate(976.958984 0)"/>
      <use xlink:href="#DejaVuSans-74" transform="translate(1004.742188 0)"/>
      <use xlink:href="#DejaVuSans-68" transform="translate(1043.951172 0)"/>
      <use xlink:href="#DejaVuSans-20" transform="translate(1107.330078 0)"/>
      <use xlink:href="#DejaVuSans-72" transform="translate(1139.117188 0)"/>
      <use xlink:href="#DejaVuSans-61" transform="translate(1180.230469 0)"/>
      <use xlink:href="#DejaVuSans-6e" transform="translate(1241.509766 0)"/>
      <use xlink:href="#DejaVuSans-64" transform="translate(1304.888672 0)"/>
      <use xlink:href="#DejaVuSans-2e" transform="translate(1368.365234 0)"/>
      <use xlink:href="#DejaVuSans-20" transform="translate(1400.152344 0)"/>
      <use xlink:href="#DejaVuSans-77" transform="translate(1431.939453 0)"/>
      <use xlink:href="#DejaVuSans-65" transform="translate(1513.726562 0)"/>
      <use xlink:href="#DejaVuSans-69" transform="translate(1575.25 0)"/>
      <use xlink:href="#DejaVuSans-67" transform="translate(1603.033203 0)"/>
      <use xlink:href="#DejaVuSans-68" transform="translate(1666.509766 0)"/>
      <use xlink:href="#DejaVuSans-74" transform="translate(1729.888672 0)"/>
      <use xlink:href="#DejaVuSans-73" transform="translate(1769.097656 0)"/>
     </g>
    </g>
    <g id="line2d_23">
     <path d="M 335.876684 78.564755 
L 344.206684 78.564755 
L 352.536684 78.564755 
" style="fill: none; stroke: #2ca02c; stroke-width: 1.5; stroke-linecap: square"/>
    </g>
    <g id="text_18">
     <!-- NT-MS V2 (50M) -->
     <g transform="translate(359.200684 81.480255) scale(0.0833 -0.0833)">
      <use xlink:href="#DejaVuSans-4e"/>
      <use xlink:href="#DejaVuSans-54" transform="translate(74.804688 0)"/>
      <use xlink:href="#DejaVuSans-2d" transform="translate(126.763672 0)"/>
      <use xlink:href="#DejaVuSans-4d" transform="translate(162.847656 0)"/>
      <use xlink:href="#DejaVuSans-53" transform="translate(249.126953 0)"/>
      <use xlink:href="#DejaVuSans-20" transform="translate(312.603516 0)"/>
      <use xlink:href="#DejaVuSans-56" transform="translate(344.390625 0)"/>
      <use xlink:href="#DejaVuSans-32" transform="translate(412.798828 0)"/>
      <use xlink:href="#DejaVuSans-20" transform="translate(476.421875 0)"/>
      <use xlink:href="#DejaVuSans-28" transform="translate(508.208984 0)"/>
      <use xlink:href="#DejaVuSans-35" transform="translate(547.222656 0)"/>
      <use xlink:href="#DejaVuSans-30" transform="translate(610.845703 0)"/>
      <use xlink:href="#DejaVuSans-4d" transform="translate(674.46875 0)"/>
      <use xlink:href="#DejaVuSans-29" transform="translate(760.748047 0)"/>
     </g>
    </g>
    <g id="line2d_24">
     <path d="M 335.876684 90.791633 
L 344.206684 90.791633 
L 352.536684 90.791633 
" style="fill: none; stroke: #d62728; stroke-width: 1.5; stroke-linecap: square"/>
    </g>
    <g id="text_19">
     <!-- NT-1000g (500M) -->
     <g transform="translate(359.200684 93.707133) scale(0.0833 -0.0833)">
      <use xlink:href="#DejaVuSans-4e"/>
      <use xlink:href="#DejaVuSans-54" transform="translate(74.804688 0)"/>
      <use xlink:href="#DejaVuSans-2d" transform="translate(126.763672 0)"/>
      <use xlink:href="#DejaVuSans-31" transform="translate(162.847656 0)"/>
      <use xlink:href="#DejaVuSans-30" transform="translate(226.470703 0)"/>
      <use xlink:href="#DejaVuSans-30" transform="translate(290.09375 0)"/>
      <use xlink:href="#DejaVuSans-30" transform="translate(353.716797 0)"/>
      <use xlink:href="#DejaVuSans-67" transform="translate(417.339844 0)"/>
      <use xlink:href="#DejaVuSans-20" transform="translate(480.816406 0)"/>
      <use xlink:href="#DejaVuSans-28" transform="translate(512.603516 0)"/>
      <use xlink:href="#DejaVuSans-35" transform="translate(551.617188 0)"/>
      <use xlink:href="#DejaVuSans-30" transform="translate(615.240234 0)"/>
      <use xlink:href="#DejaVuSans-30" transform="translate(678.863281 0)"/>
      <use xlink:href="#DejaVuSans-4d" transform="translate(742.486328 0)"/>
      <use xlink:href="#DejaVuSans-29" transform="translate(828.765625 0)"/>
     </g>
    </g>
    <g id="line2d_25">
     <path d="M 335.876684 103.018511 
L 344.206684 103.018511 
L 352.536684 103.018511 
" style="fill: none; stroke: #9467bd; stroke-width: 1.5; stroke-linecap: square"/>
    </g>
    <g id="text_20">
     <!-- NT-MS V2 (250M) -->
     <g transform="translate(359.200684 105.934011) scale(0.0833 -0.0833)">
      <use xlink:href="#DejaVuSans-4e"/>
      <use xlink:href="#DejaVuSans-54" transform="translate(74.804688 0)"/>
      <use xlink:href="#DejaVuSans-2d" transform="translate(126.763672 0)"/>
      <use xlink:href="#DejaVuSans-4d" transform="translate(162.847656 0)"/>
      <use xlink:href="#DejaVuSans-53" transform="translate(249.126953 0)"/>
      <use xlink:href="#DejaVuSans-20" transform="translate(312.603516 0)"/>
      <use xlink:href="#DejaVuSans-56" transform="translate(344.390625 0)"/>
      <use xlink:href="#DejaVuSans-32" transform="translate(412.798828 0)"/>
      <use xlink:href="#DejaVuSans-20" transform="translate(476.421875 0)"/>
      <use xlink:href="#DejaVuSans-28" transform="translate(508.208984 0)"/>
      <use xlink:href="#DejaVuSans-32" transform="translate(547.222656 0)"/>
      <use xlink:href="#DejaVuSans-35" transform="translate(610.845703 0)"/>
      <use xlink:href="#DejaVuSans-30" transform="translate(674.46875 0)"/>
      <use xlink:href="#DejaVuSans-4d" transform="translate(738.091797 0)"/>
      <use xlink:href="#DejaVuSans-29" transform="translate(824.371094 0)"/>
     </g>
    </g>
    <g id="line2d_26">
     <path d="M 335.876684 115.245389 
L 344.206684 115.245389 
L 352.536684 115.245389 
" style="fill: none; stroke: #8c564b; stroke-width: 1.5; stroke-linecap: square"/>
    </g>
    <g id="text_21">
     <!-- NT-MS V2 (100M) -->
     <g transform="translate(359.200684 118.160889) scale(0.0833 -0.0833)">
      <use xlink:href="#DejaVuSans-4e"/>
      <use xlink:href="#DejaVuSans-54" transform="translate(74.804688 0)"/>
      <use xlink:href="#DejaVuSans-2d" transform="translate(126.763672 0)"/>
      <use xlink:href="#DejaVuSans-4d" transform="translate(162.847656 0)"/>
      <use xlink:href="#DejaVuSans-53" transform="translate(249.126953 0)"/>
      <use xlink:href="#DejaVuSans-20" transform="translate(312.603516 0)"/>
      <use xlink:href="#DejaVuSans-56" transform="translate(344.390625 0)"/>
      <use xlink:href="#DejaVuSans-32" transform="translate(412.798828 0)"/>
      <use xlink:href="#DejaVuSans-20" transform="translate(476.421875 0)"/>
      <use xlink:href="#DejaVuSans-28" transform="translate(508.208984 0)"/>
      <use xlink:href="#DejaVuSans-31" transform="translate(547.222656 0)"/>
      <use xlink:href="#DejaVuSans-30" transform="translate(610.845703 0)"/>
      <use xlink:href="#DejaVuSans-30" transform="translate(674.46875 0)"/>
      <use xlink:href="#DejaVuSans-4d" transform="translate(738.091797 0)"/>
      <use xlink:href="#DejaVuSans-29" transform="translate(824.371094 0)"/>
     </g>
    </g>
    <g id="line2d_27">
     <path d="M 335.876684 127.472267 
L 344.206684 127.472267 
L 352.536684 127.472267 
" style="fill: none; stroke: #e377c2; stroke-width: 1.5; stroke-linecap: square"/>
    </g>
    <g id="text_22">
     <!-- NT-Human-Ref. (500M) -->
     <g transform="translate(359.200684 130.387767) scale(0.0833 -0.0833)">
      <defs>
       <path id="DejaVuSans-75" d="M 544 1381 
L 544 3500 
L 1119 3500 
L 1119 1403 
Q 1119 906 1312 657 
Q 1506 409 1894 409 
Q 2359 409 2629 706 
Q 2900 1003 2900 1516 
L 2900 3500 
L 3475 3500 
L 3475 0 
L 2900 0 
L 2900 538 
Q 2691 219 2414 64 
Q 2138 -91 1772 -91 
Q 1169 -91 856 284 
Q 544 659 544 1381 
z
M 1991 3584 
L 1991 3584 
z
" transform="scale(0.015625)"/>
       <path id="DejaVuSans-52" d="M 2841 2188 
Q 3044 2119 3236 1894 
Q 3428 1669 3622 1275 
L 4263 0 
L 3584 0 
L 2988 1197 
Q 2756 1666 2539 1819 
Q 2322 1972 1947 1972 
L 1259 1972 
L 1259 0 
L 628 0 
L 628 4666 
L 2053 4666 
Q 2853 4666 3247 4331 
Q 3641 3997 3641 3322 
Q 3641 2881 3436 2590 
Q 3231 2300 2841 2188 
z
M 1259 4147 
L 1259 2491 
L 2053 2491 
Q 2509 2491 2742 2702 
Q 2975 2913 2975 3322 
Q 2975 3731 2742 3939 
Q 2509 4147 2053 4147 
L 1259 4147 
z
" transform="scale(0.015625)"/>
       <path id="DejaVuSans-66" d="M 2375 4863 
L 2375 4384 
L 1825 4384 
Q 1516 4384 1395 4259 
Q 1275 4134 1275 3809 
L 1275 3500 
L 2222 3500 
L 2222 3053 
L 1275 3053 
L 1275 0 
L 697 0 
L 697 3053 
L 147 3053 
L 147 3500 
L 697 3500 
L 697 3744 
Q 697 4328 969 4595 
Q 1241 4863 1831 4863 
L 2375 4863 
z
" transform="scale(0.015625)"/>
      </defs>
      <use xlink:href="#DejaVuSans-4e"/>
      <use xlink:href="#DejaVuSans-54" transform="translate(74.804688 0)"/>
      <use xlink:href="#DejaVuSans-2d" transform="translate(126.763672 0)"/>
      <use xlink:href="#DejaVuSans-48" transform="translate(162.847656 0)"/>
      <use xlink:href="#DejaVuSans-75" transform="translate(238.042969 0)"/>
      <use xlink:href="#DejaVuSans-6d" transform="translate(301.421875 0)"/>
      <use xlink:href="#DejaVuSans-61" transform="translate(398.833984 0)"/>
      <use xlink:href="#DejaVuSans-6e" transform="translate(460.113281 0)"/>
      <use xlink:href="#DejaVuSans-2d" transform="translate(523.492188 0)"/>
      <use xlink:href="#DejaVuSans-52" transform="translate(559.576172 0)"/>
      <use xlink:href="#DejaVuSans-65" transform="translate(624.558594 0)"/>
      <use xlink:href="#DejaVuSans-66" transform="translate(686.082031 0)"/>
      <use xlink:href="#DejaVuSans-2e" transform="translate(714.037109 0)"/>
      <use xlink:href="#DejaVuSans-20" transform="translate(745.824219 0)"/>
      <use xlink:href="#DejaVuSans-28" transform="translate(777.611328 0)"/>
      <use xlink:href="#DejaVuSans-35" transform="translate(816.625 0)"/>
      <use xlink:href="#DejaVuSans-30" transform="translate(880.248047 0)"/>
      <use xlink:href="#DejaVuSans-30" transform="translate(943.871094 0)"/>
      <use xlink:href="#DejaVuSans-4d" transform="translate(1007.494141 0)"/>
      <use xlink:href="#DejaVuSans-29" transform="translate(1093.773438 0)"/>
     </g>
    </g>
    <g id="line2d_28">
     <path d="M 335.876684 139.699145 
L 344.206684 139.699145 
L 352.536684 139.699145 
" style="fill: none; stroke: #7f7f7f; stroke-width: 1.5; stroke-linecap: square"/>
    </g>
    <g id="text_23">
     <!-- NT-MS V2 (500M) -->
     <g transform="translate(359.200684 142.614645) scale(0.0833 -0.0833)">
      <use xlink:href="#DejaVuSans-4e"/>
      <use xlink:href="#DejaVuSans-54" transform="translate(74.804688 0)"/>
      <use xlink:href="#DejaVuSans-2d" transform="translate(126.763672 0)"/>
      <use xlink:href="#DejaVuSans-4d" transform="translate(162.847656 0)"/>
      <use xlink:href="#DejaVuSans-53" transform="translate(249.126953 0)"/>
      <use xlink:href="#DejaVuSans-20" transform="translate(312.603516 0)"/>
      <use xlink:href="#DejaVuSans-56" transform="translate(344.390625 0)"/>
      <use xlink:href="#DejaVuSans-32" transform="translate(412.798828 0)"/>
      <use xlink:href="#DejaVuSans-20" transform="translate(476.421875 0)"/>
      <use xlink:href="#DejaVuSans-28" transform="translate(508.208984 0)"/>
      <use xlink:href="#DejaVuSans-35" transform="translate(547.222656 0)"/>
      <use xlink:href="#DejaVuSans-30" transform="translate(610.845703 0)"/>
      <use xlink:href="#DejaVuSans-30" transform="translate(674.46875 0)"/>
      <use xlink:href="#DejaVuSans-4d" transform="translate(738.091797 0)"/>
      <use xlink:href="#DejaVuSans-29" transform="translate(824.371094 0)"/>
     </g>
    </g>
   </g>
  </g>
 </g>
 <defs>
  <clipPath id="p41f8b3152a">
   <rect x="72" y="43.2" width="446.4" height="277.2"/>
  </clipPath>
 </defs>
</svg>
