<?xml version="1.0" encoding="utf-8" standalone="no"?>
<!DOCTYPE svg PUBLIC "-//W3C//DTD SVG 1.1//EN"
  "http://www.w3.org/Graphics/SVG/1.1/DTD/svg11.dtd">
<svg xmlns:xlink="http://www.w3.org/1999/xlink" width="576pt" height="360pt" viewBox="0 0 576 360" xmlns="http://www.w3.org/2000/svg" version="1.1">
 <metadata>
  <rdf:RDF xmlns:dc="http://purl.org/dc/elements/1.1/" xmlns:cc="http://creativecommons.org/ns#" xmlns:rdf="http://www.w3.org/1999/02/22-rdf-syntax-ns#">
   <cc:Work>
    <dc:type rdf:resource="http://purl.org/dc/dcmitype/StillImage"/>
    <dc:date>2025-01-07T03:54:59.714953</dc:date>
    <dc:format>image/svg+xml</dc:format>
    <dc:creator>
     <cc:Agent>
      <dc:title>Matplotlib v3.10.0, https://matplotlib.org/</dc:title>
     </cc:Agent>
    </dc:creator>
   </cc:Work>
  </rdf:RDF>
 </metadata>
 <defs>
  <style type="text/css">*{stroke-linejoin: round; stroke-linecap: butt}</style>
 </defs>
 <g id="figure_1">
  <g id="patch_1">
   <path d="M 0 360 
L 576 360 
L 576 0 
L 0 0 
z
" style="fill: #ffffff"/>
  </g>
  <g id="axes_1">
   <g id="patch_2">
    <path d="M 72 320.4 
L 518.4 320.4 
L 518.4 43.2 
L 72 43.2 
z
" style="fill: #ffffff"/>
   </g>
   <g id="matplotlib.axis_1">
    <g id="xtick_1">
     <g id="line2d_1">
      <defs>
       <path id="m2aa294ae22" d="M 0 0 
L 0 3.5 
" style="stroke: #000000; stroke-width: 0.8"/>
      </defs>
      <g>
       <use xlink:href="#m2aa294ae22" x="157.672727" y="320.4" style="stroke: #000000; stroke-width: 0.8"/>
      </g>
     </g>
     <g id="text_1">
      <!-- 2000 -->
      <g transform="translate(144.947727 334.998438) scale(0.1 -0.1)">
       <defs>
        <path id="DejaVuSans-32" d="M 1228 531 
L 3431 531 
L 3431 0 
L 469 0 
L 469 531 
Q 828 903 1448 1529 
Q 2069 2156 2228 2338 
Q 2531 2678 2651 2914 
Q 2772 3150 2772 3378 
Q 2772 3750 2511 3984 
Q 2250 4219 1831 4219 
Q 1534 4219 1204 4116 
Q 875 4013 500 3803 
L 500 4441 
Q 881 4594 1212 4672 
Q 1544 4750 1819 4750 
Q 2544 4750 2975 4387 
Q 3406 4025 3406 3419 
Q 3406 3131 3298 2873 
Q 3191 2616 2906 2266 
Q 2828 2175 2409 1742 
Q 1991 1309 1228 531 
z
" transform="scale(0.015625)"/>
        <path id="DejaVuSans-30" d="M 2034 4250 
Q 1547 4250 1301 3770 
Q 1056 3291 1056 2328 
Q 1056 1369 1301 889 
Q 1547 409 2034 409 
Q 2525 409 2770 889 
Q 3016 1369 3016 2328 
Q 3016 3291 2770 3770 
Q 2525 4250 2034 4250 
z
M 2034 4750 
Q 2819 4750 3233 4129 
Q 3647 3509 3647 2328 
Q 3647 1150 3233 529 
Q 2819 -91 2034 -91 
Q 1250 -91 836 529 
Q 422 1150 422 2328 
Q 422 3509 836 4129 
Q 1250 4750 2034 4750 
z
" transform="scale(0.015625)"/>
       </defs>
       <use xlink:href="#DejaVuSans-32"/>
       <use xlink:href="#DejaVuSans-30" transform="translate(63.623047 0)"/>
       <use xlink:href="#DejaVuSans-30" transform="translate(127.246094 0)"/>
       <use xlink:href="#DejaVuSans-30" transform="translate(190.869141 0)"/>
      </g>
     </g>
    </g>
    <g id="xtick_2">
     <g id="line2d_2">
      <g>
       <use xlink:href="#m2aa294ae22" x="247.854545" y="320.4" style="stroke: #000000; stroke-width: 0.8"/>
      </g>
     </g>
     <g id="text_2">
      <!-- 4000 -->
      <g transform="translate(235.129545 334.998438) scale(0.1 -0.1)">
       <defs>
        <path id="DejaVuSans-34" d="M 2419 4116 
L 825 1625 
L 2419 1625 
L 2419 4116 
z
M 2253 4666 
L 3047 4666 
L 3047 1625 
L 3713 1625 
L 3713 1100 
L 3047 1100 
L 3047 0 
L 2419 0 
L 2419 1100 
L 313 1100 
L 313 1709 
L 2253 4666 
z
" transform="scale(0.015625)"/>
       </defs>
       <use xlink:href="#DejaVuSans-34"/>
       <use xlink:href="#DejaVuSans-30" transform="translate(63.623047 0)"/>
       <use xlink:href="#DejaVuSans-30" transform="translate(127.246094 0)"/>
       <use xlink:href="#DejaVuSans-30" transform="translate(190.869141 0)"/>
      </g>
     </g>
    </g>
    <g id="xtick_3">
     <g id="line2d_3">
      <g>
       <use xlink:href="#m2aa294ae22" x="338.036364" y="320.4" style="stroke: #000000; stroke-width: 0.8"/>
      </g>
     </g>
     <g id="text_3">
      <!-- 6000 -->
      <g transform="translate(325.311364 334.998438) scale(0.1 -0.1)">
       <defs>
        <path id="DejaVuSans-36" d="M 2113 2584 
Q 1688 2584 1439 2293 
Q 1191 2003 1191 1497 
Q 1191 994 1439 701 
Q 1688 409 2113 409 
Q 2538 409 2786 701 
Q 3034 994 3034 1497 
Q 3034 2003 2786 2293 
Q 2538 2584 2113 2584 
z
M 3366 4563 
L 3366 3988 
Q 3128 4100 2886 4159 
Q 2644 4219 2406 4219 
Q 1781 4219 1451 3797 
Q 1122 3375 1075 2522 
Q 1259 2794 1537 2939 
Q 1816 3084 2150 3084 
Q 2853 3084 3261 2657 
Q 3669 2231 3669 1497 
Q 3669 778 3244 343 
Q 2819 -91 2113 -91 
Q 1303 -91 875 529 
Q 447 1150 447 2328 
Q 447 3434 972 4092 
Q 1497 4750 2381 4750 
Q 2619 4750 2861 4703 
Q 3103 4656 3366 4563 
z
" transform="scale(0.015625)"/>
       </defs>
       <use xlink:href="#DejaVuSans-36"/>
       <use xlink:href="#DejaVuSans-30" transform="translate(63.623047 0)"/>
       <use xlink:href="#DejaVuSans-30" transform="translate(127.246094 0)"/>
       <use xlink:href="#DejaVuSans-30" transform="translate(190.869141 0)"/>
      </g>
     </g>
    </g>
    <g id="xtick_4">
     <g id="line2d_4">
      <g>
       <use xlink:href="#m2aa294ae22" x="428.218182" y="320.4" style="stroke: #000000; stroke-width: 0.8"/>
      </g>
     </g>
     <g id="text_4">
      <!-- 8000 -->
      <g transform="translate(415.493182 334.998438) scale(0.1 -0.1)">
       <defs>
        <path id="DejaVuSans-38" d="M 2034 2216 
Q 1584 2216 1326 1975 
Q 1069 1734 1069 1313 
Q 1069 891 1326 650 
Q 1584 409 2034 409 
Q 2484 409 2743 651 
Q 3003 894 3003 1313 
Q 3003 1734 2745 1975 
Q 2488 2216 2034 2216 
z
M 1403 2484 
Q 997 2584 770 2862 
Q 544 3141 544 3541 
Q 544 4100 942 4425 
Q 1341 4750 2034 4750 
Q 2731 4750 3128 4425 
Q 3525 4100 3525 3541 
Q 3525 3141 3298 2862 
Q 3072 2584 2669 2484 
Q 3125 2378 3379 2068 
Q 3634 1759 3634 1313 
Q 3634 634 3220 271 
Q 2806 -91 2034 -91 
Q 1263 -91 848 271 
Q 434 634 434 1313 
Q 434 1759 690 2068 
Q 947 2378 1403 2484 
z
M 1172 3481 
Q 1172 3119 1398 2916 
Q 1625 2713 2034 2713 
Q 2441 2713 2670 2916 
Q 2900 3119 2900 3481 
Q 2900 3844 2670 4047 
Q 2441 4250 2034 4250 
Q 1625 4250 1398 4047 
Q 1172 3844 1172 3481 
z
" transform="scale(0.015625)"/>
       </defs>
       <use xlink:href="#DejaVuSans-38"/>
       <use xlink:href="#DejaVuSans-30" transform="translate(63.623047 0)"/>
       <use xlink:href="#DejaVuSans-30" transform="translate(127.246094 0)"/>
       <use xlink:href="#DejaVuSans-30" transform="translate(190.869141 0)"/>
      </g>
     </g>
    </g>
    <g id="xtick_5">
     <g id="line2d_5">
      <g>
       <use xlink:href="#m2aa294ae22" x="518.4" y="320.4" style="stroke: #000000; stroke-width: 0.8"/>
      </g>
     </g>
     <g id="text_5">
      <!-- 10000 -->
      <g transform="translate(502.49375 334.998438) scale(0.1 -0.1)">
       <defs>
        <path id="DejaVuSans-31" d="M 794 531 
L 1825 531 
L 1825 4091 
L 703 3866 
L 703 4441 
L 1819 4666 
L 2450 4666 
L 2450 531 
L 3481 531 
L 3481 0 
L 794 0 
L 794 531 
z
" transform="scale(0.015625)"/>
       </defs>
       <use xlink:href="#DejaVuSans-31"/>
       <use xlink:href="#DejaVuSans-30" transform="translate(63.623047 0)"/>
       <use xlink:href="#DejaVuSans-30" transform="translate(127.246094 0)"/>
       <use xlink:href="#DejaVuSans-30" transform="translate(190.869141 0)"/>
       <use xlink:href="#DejaVuSans-30" transform="translate(254.492188 0)"/>
      </g>
     </g>
    </g>
    <g id="text_6">
     <!-- Training steps -->
     <g transform="translate(260.464844 348.676562) scale(0.1 -0.1)">
      <defs>
       <path id="DejaVuSans-54" d="M -19 4666 
L 3928 4666 
L 3928 4134 
L 2272 4134 
L 2272 0 
L 1638 0 
L 1638 4134 
L -19 4134 
L -19 4666 
z
" transform="scale(0.015625)"/>
       <path id="DejaVuSans-72" d="M 2631 2963 
Q 2534 3019 2420 3045 
Q 2306 3072 2169 3072 
Q 1681 3072 1420 2755 
Q 1159 2438 1159 1844 
L 1159 0 
L 581 0 
L 581 3500 
L 1159 3500 
L 1159 2956 
Q 1341 3275 1631 3429 
Q 1922 3584 2338 3584 
Q 2397 3584 2469 3576 
Q 2541 3569 2628 3553 
L 2631 2963 
z
" transform="scale(0.015625)"/>
       <path id="DejaVuSans-61" d="M 2194 1759 
Q 1497 1759 1228 1600 
Q 959 1441 959 1056 
Q 959 750 1161 570 
Q 1363 391 1709 391 
Q 2188 391 2477 730 
Q 2766 1069 2766 1631 
L 2766 1759 
L 2194 1759 
z
M 3341 1997 
L 3341 0 
L 2766 0 
L 2766 531 
Q 2569 213 2275 61 
Q 1981 -91 1556 -91 
Q 1019 -91 701 211 
Q 384 513 384 1019 
Q 384 1609 779 1909 
Q 1175 2209 1959 2209 
L 2766 2209 
L 2766 2266 
Q 2766 2663 2505 2880 
Q 2244 3097 1772 3097 
Q 1472 3097 1187 3025 
Q 903 2953 641 2809 
L 641 3341 
Q 956 3463 1253 3523 
Q 1550 3584 1831 3584 
Q 2591 3584 2966 3190 
Q 3341 2797 3341 1997 
z
" transform="scale(0.015625)"/>
       <path id="DejaVuSans-69" d="M 603 3500 
L 1178 3500 
L 1178 0 
L 603 0 
L 603 3500 
z
M 603 4863 
L 1178 4863 
L 1178 4134 
L 603 4134 
L 603 4863 
z
" transform="scale(0.015625)"/>
       <path id="DejaVuSans-6e" d="M 3513 2113 
L 3513 0 
L 2938 0 
L 2938 2094 
Q 2938 2591 2744 2837 
Q 2550 3084 2163 3084 
Q 1697 3084 1428 2787 
Q 1159 2491 1159 1978 
L 1159 0 
L 581 0 
L 581 3500 
L 1159 3500 
L 1159 2956 
Q 1366 3272 1645 3428 
Q 1925 3584 2291 3584 
Q 2894 3584 3203 3211 
Q 3513 2838 3513 2113 
z
" transform="scale(0.015625)"/>
       <path id="DejaVuSans-67" d="M 2906 1791 
Q 2906 2416 2648 2759 
Q 2391 3103 1925 3103 
Q 1463 3103 1205 2759 
Q 947 2416 947 1791 
Q 947 1169 1205 825 
Q 1463 481 1925 481 
Q 2391 481 2648 825 
Q 2906 1169 2906 1791 
z
M 3481 434 
Q 3481 -459 3084 -895 
Q 2688 -1331 1869 -1331 
Q 1566 -1331 1297 -1286 
Q 1028 -1241 775 -1147 
L 775 -588 
Q 1028 -725 1275 -790 
Q 1522 -856 1778 -856 
Q 2344 -856 2625 -561 
Q 2906 -266 2906 331 
L 2906 616 
Q 2728 306 2450 153 
Q 2172 0 1784 0 
Q 1141 0 747 490 
Q 353 981 353 1791 
Q 353 2603 747 3093 
Q 1141 3584 1784 3584 
Q 2172 3584 2450 3431 
Q 2728 3278 2906 2969 
L 2906 3500 
L 3481 3500 
L 3481 434 
z
" transform="scale(0.015625)"/>
       <path id="DejaVuSans-20" transform="scale(0.015625)"/>
       <path id="DejaVuSans-73" d="M 2834 3397 
L 2834 2853 
Q 2591 2978 2328 3040 
Q 2066 3103 1784 3103 
Q 1356 3103 1142 2972 
Q 928 2841 928 2578 
Q 928 2378 1081 2264 
Q 1234 2150 1697 2047 
L 1894 2003 
Q 2506 1872 2764 1633 
Q 3022 1394 3022 966 
Q 3022 478 2636 193 
Q 2250 -91 1575 -91 
Q 1294 -91 989 -36 
Q 684 19 347 128 
L 347 722 
Q 666 556 975 473 
Q 1284 391 1588 391 
Q 1994 391 2212 530 
Q 2431 669 2431 922 
Q 2431 1156 2273 1281 
Q 2116 1406 1581 1522 
L 1381 1569 
Q 847 1681 609 1914 
Q 372 2147 372 2553 
Q 372 3047 722 3315 
Q 1072 3584 1716 3584 
Q 2034 3584 2315 3537 
Q 2597 3491 2834 3397 
z
" transform="scale(0.015625)"/>
       <path id="DejaVuSans-74" d="M 1172 4494 
L 1172 3500 
L 2356 3500 
L 2356 3053 
L 1172 3053 
L 1172 1153 
Q 1172 725 1289 603 
Q 1406 481 1766 481 
L 2356 481 
L 2356 0 
L 1766 0 
Q 1100 0 847 248 
Q 594 497 594 1153 
L 594 3053 
L 172 3053 
L 172 3500 
L 594 3500 
L 594 4494 
L 1172 4494 
z
" transform="scale(0.015625)"/>
       <path id="DejaVuSans-65" d="M 3597 1894 
L 3597 1613 
L 953 1613 
Q 991 1019 1311 708 
Q 1631 397 2203 397 
Q 2534 397 2845 478 
Q 3156 559 3463 722 
L 3463 178 
Q 3153 47 2828 -22 
Q 2503 -91 2169 -91 
Q 1331 -91 842 396 
Q 353 884 353 1716 
Q 353 2575 817 3079 
Q 1281 3584 2069 3584 
Q 2775 3584 3186 3129 
Q 3597 2675 3597 1894 
z
M 3022 2063 
Q 3016 2534 2758 2815 
Q 2500 3097 2075 3097 
Q 1594 3097 1305 2825 
Q 1016 2553 972 2059 
L 3022 2063 
z
" transform="scale(0.015625)"/>
       <path id="DejaVuSans-70" d="M 1159 525 
L 1159 -1331 
L 581 -1331 
L 581 3500 
L 1159 3500 
L 1159 2969 
Q 1341 3281 1617 3432 
Q 1894 3584 2278 3584 
Q 2916 3584 3314 3078 
Q 3713 2572 3713 1747 
Q 3713 922 3314 415 
Q 2916 -91 2278 -91 
Q 1894 -91 1617 61 
Q 1341 213 1159 525 
z
M 3116 1747 
Q 3116 2381 2855 2742 
Q 2594 3103 2138 3103 
Q 1681 3103 1420 2742 
Q 1159 2381 1159 1747 
Q 1159 1113 1420 752 
Q 1681 391 2138 391 
Q 2594 391 2855 752 
Q 3116 1113 3116 1747 
z
" transform="scale(0.015625)"/>
      </defs>
      <use xlink:href="#DejaVuSans-54"/>
      <use xlink:href="#DejaVuSans-72" transform="translate(46.333984 0)"/>
      <use xlink:href="#DejaVuSans-61" transform="translate(87.447266 0)"/>
      <use xlink:href="#DejaVuSans-69" transform="translate(148.726562 0)"/>
      <use xlink:href="#DejaVuSans-6e" transform="translate(176.509766 0)"/>
      <use xlink:href="#DejaVuSans-69" transform="translate(239.888672 0)"/>
      <use xlink:href="#DejaVuSans-6e" transform="translate(267.671875 0)"/>
      <use xlink:href="#DejaVuSans-67" transform="translate(331.050781 0)"/>
      <use xlink:href="#DejaVuSans-20" transform="translate(394.527344 0)"/>
      <use xlink:href="#DejaVuSans-73" transform="translate(426.314453 0)"/>
      <use xlink:href="#DejaVuSans-74" transform="translate(478.414062 0)"/>
      <use xlink:href="#DejaVuSans-65" transform="translate(517.623047 0)"/>
      <use xlink:href="#DejaVuSans-70" transform="translate(579.146484 0)"/>
      <use xlink:href="#DejaVuSans-73" transform="translate(642.623047 0)"/>
     </g>
    </g>
   </g>
   <g id="matplotlib.axis_2">
    <g id="ytick_1">
     <g id="line2d_6">
      <defs>
       <path id="mfcabab9b3a" d="M 0 0 
L -3.5 0 
" style="stroke: #000000; stroke-width: 0.8"/>
      </defs>
      <g>
       <use xlink:href="#mfcabab9b3a" x="72" y="307.707827" style="stroke: #000000; stroke-width: 0.8"/>
      </g>
     </g>
     <g id="text_7">
      <!-- 0.3 -->
      <g transform="translate(49.096875 311.507046) scale(0.1 -0.1)">
       <defs>
        <path id="DejaVuSans-2e" d="M 684 794 
L 1344 794 
L 1344 0 
L 684 0 
L 684 794 
z
" transform="scale(0.015625)"/>
        <path id="DejaVuSans-33" d="M 2597 2516 
Q 3050 2419 3304 2112 
Q 3559 1806 3559 1356 
Q 3559 666 3084 287 
Q 2609 -91 1734 -91 
Q 1441 -91 1130 -33 
Q 819 25 488 141 
L 488 750 
Q 750 597 1062 519 
Q 1375 441 1716 441 
Q 2309 441 2620 675 
Q 2931 909 2931 1356 
Q 2931 1769 2642 2001 
Q 2353 2234 1838 2234 
L 1294 2234 
L 1294 2753 
L 1863 2753 
Q 2328 2753 2575 2939 
Q 2822 3125 2822 3475 
Q 2822 3834 2567 4026 
Q 2313 4219 1838 4219 
Q 1578 4219 1281 4162 
Q 984 4106 628 3988 
L 628 4550 
Q 988 4650 1302 4700 
Q 1616 4750 1894 4750 
Q 2613 4750 3031 4423 
Q 3450 4097 3450 3541 
Q 3450 3153 3228 2886 
Q 3006 2619 2597 2516 
z
" transform="scale(0.015625)"/>
       </defs>
       <use xlink:href="#DejaVuSans-30"/>
       <use xlink:href="#DejaVuSans-2e" transform="translate(63.623047 0)"/>
       <use xlink:href="#DejaVuSans-33" transform="translate(95.410156 0)"/>
      </g>
     </g>
    </g>
    <g id="ytick_2">
     <g id="line2d_7">
      <g>
       <use xlink:href="#mfcabab9b3a" x="72" y="261.621507" style="stroke: #000000; stroke-width: 0.8"/>
      </g>
     </g>
     <g id="text_8">
      <!-- 0.4 -->
      <g transform="translate(49.096875 265.420726) scale(0.1 -0.1)">
       <use xlink:href="#DejaVuSans-30"/>
       <use xlink:href="#DejaVuSans-2e" transform="translate(63.623047 0)"/>
       <use xlink:href="#DejaVuSans-34" transform="translate(95.410156 0)"/>
      </g>
     </g>
    </g>
    <g id="ytick_3">
     <g id="line2d_8">
      <g>
       <use xlink:href="#mfcabab9b3a" x="72" y="215.535187" style="stroke: #000000; stroke-width: 0.8"/>
      </g>
     </g>
     <g id="text_9">
      <!-- 0.5 -->
      <g transform="translate(49.096875 219.334405) scale(0.1 -0.1)">
       <defs>
        <path id="DejaVuSans-35" d="M 691 4666 
L 3169 4666 
L 3169 4134 
L 1269 4134 
L 1269 2991 
Q 1406 3038 1543 3061 
Q 1681 3084 1819 3084 
Q 2600 3084 3056 2656 
Q 3513 2228 3513 1497 
Q 3513 744 3044 326 
Q 2575 -91 1722 -91 
Q 1428 -91 1123 -41 
Q 819 9 494 109 
L 494 744 
Q 775 591 1075 516 
Q 1375 441 1709 441 
Q 2250 441 2565 725 
Q 2881 1009 2881 1497 
Q 2881 1984 2565 2268 
Q 2250 2553 1709 2553 
Q 1456 2553 1204 2497 
Q 953 2441 691 2322 
L 691 4666 
z
" transform="scale(0.015625)"/>
       </defs>
       <use xlink:href="#DejaVuSans-30"/>
       <use xlink:href="#DejaVuSans-2e" transform="translate(63.623047 0)"/>
       <use xlink:href="#DejaVuSans-35" transform="translate(95.410156 0)"/>
      </g>
     </g>
    </g>
    <g id="ytick_4">
     <g id="line2d_9">
      <g>
       <use xlink:href="#mfcabab9b3a" x="72" y="169.448866" style="stroke: #000000; stroke-width: 0.8"/>
      </g>
     </g>
     <g id="text_10">
      <!-- 0.6 -->
      <g transform="translate(49.096875 173.248085) scale(0.1 -0.1)">
       <use xlink:href="#DejaVuSans-30"/>
       <use xlink:href="#DejaVuSans-2e" transform="translate(63.623047 0)"/>
       <use xlink:href="#DejaVuSans-36" transform="translate(95.410156 0)"/>
      </g>
     </g>
    </g>
    <g id="ytick_5">
     <g id="line2d_10">
      <g>
       <use xlink:href="#mfcabab9b3a" x="72" y="123.362546" style="stroke: #000000; stroke-width: 0.8"/>
      </g>
     </g>
     <g id="text_11">
      <!-- 0.7 -->
      <g transform="translate(49.096875 127.161764) scale(0.1 -0.1)">
       <defs>
        <path id="DejaVuSans-37" d="M 525 4666 
L 3525 4666 
L 3525 4397 
L 1831 0 
L 1172 0 
L 2766 4134 
L 525 4134 
L 525 4666 
z
" transform="scale(0.015625)"/>
       </defs>
       <use xlink:href="#DejaVuSans-30"/>
       <use xlink:href="#DejaVuSans-2e" transform="translate(63.623047 0)"/>
       <use xlink:href="#DejaVuSans-37" transform="translate(95.410156 0)"/>
      </g>
     </g>
    </g>
    <g id="ytick_6">
     <g id="line2d_11">
      <g>
       <use xlink:href="#mfcabab9b3a" x="72" y="77.276225" style="stroke: #000000; stroke-width: 0.8"/>
      </g>
     </g>
     <g id="text_12">
      <!-- 0.8 -->
      <g transform="translate(49.096875 81.075444) scale(0.1 -0.1)">
       <use xlink:href="#DejaVuSans-30"/>
       <use xlink:href="#DejaVuSans-2e" transform="translate(63.623047 0)"/>
       <use xlink:href="#DejaVuSans-38" transform="translate(95.410156 0)"/>
      </g>
     </g>
    </g>
    <g id="text_13">
     <!-- Loss -->
     <g transform="translate(43.017187 192.767187) rotate(-90) scale(0.1 -0.1)">
      <defs>
       <path id="DejaVuSans-4c" d="M 628 4666 
L 1259 4666 
L 1259 531 
L 3531 531 
L 3531 0 
L 628 0 
L 628 4666 
z
" transform="scale(0.015625)"/>
       <path id="DejaVuSans-6f" d="M 1959 3097 
Q 1497 3097 1228 2736 
Q 959 2375 959 1747 
Q 959 1119 1226 758 
Q 1494 397 1959 397 
Q 2419 397 2687 759 
Q 2956 1122 2956 1747 
Q 2956 2369 2687 2733 
Q 2419 3097 1959 3097 
z
M 1959 3584 
Q 2709 3584 3137 3096 
Q 3566 2609 3566 1747 
Q 3566 888 3137 398 
Q 2709 -91 1959 -91 
Q 1206 -91 779 398 
Q 353 888 353 1747 
Q 353 2609 779 3096 
Q 1206 3584 1959 3584 
z
" transform="scale(0.015625)"/>
      </defs>
      <use xlink:href="#DejaVuSans-4c"/>
      <use xlink:href="#DejaVuSans-6f" transform="translate(53.962891 0)"/>
      <use xlink:href="#DejaVuSans-73" transform="translate(115.144531 0)"/>
      <use xlink:href="#DejaVuSans-73" transform="translate(167.244141 0)"/>
     </g>
    </g>
   </g>
   <g id="line2d_12">
    <path d="M 72 105.342794 
L 76.509091 136.174543 
L 81.018182 151.336942 
L 85.527273 149.723921 
L 90.036364 166.637601 
L 94.545455 174.65662 
L 99.054545 160.646379 
L 103.563636 165.39327 
L 108.072727 170.324506 
L 112.581818 181.523482 
L 117.090909 188.851207 
L 121.6 193.275494 
L 126.109091 190.786832 
L 130.618182 181.246964 
L 135.127273 176.177469 
L 139.636364 179.864375 
L 144.145455 194.105048 
L 148.654545 197.930212 
L 153.163636 183.689539 
L 157.672727 193.598098 
L 162.181818 173.550549 
L 166.690909 192.307681 
L 171.2 189.911192 
L 175.709091 196.778054 
L 180.218182 167.928018 
L 184.727273 183.366935 
L 189.236364 195.07286 
L 193.745455 185.026042 
L 198.254545 196.086759 
L 202.763636 192.630285 
L 207.272727 187.053841 
L 211.781818 202.815362 
L 216.290909 184.150402 
L 220.8 189.404243 
L 225.309091 202.861448 
L 229.818182 190.325969 
L 234.327273 196.132846 
L 238.836364 194.611997 
L 243.345455 204.797074 
L 247.854545 200.603219 
L 252.363636 211.295245 
L 256.872727 197.100658 
L 261.381818 190.279883 
L 265.890909 203.368398 
L 270.4 198.621507 
L 274.909091 206.271836 
L 279.418182 210.926554 
L 283.927273 196.870227 
L 288.436364 201.156255 
L 292.945455 194.796342 
L 297.454545 209.636138 
L 301.963636 201.985808 
L 306.472727 182.67564 
L 310.981818 205.995318 
L 315.490909 208.85267 
L 320 198.391075 
L 324.509091 219.222092 
L 329.018182 228.439356 
L 333.527273 196.870227 
L 338.036364 197.008486 
L 342.545455 216.456913 
L 347.054545 198.391075 
L 351.563636 195.764155 
L 356.072727 229.499342 
L 360.581818 207.97703 
L 365.090909 212.539576 
L 369.6 205.442282 
L 374.109091 214.521287 
L 378.618182 205.119678 
L 383.127273 218.991661 
L 387.636364 204.704901 
L 392.145455 214.521287 
L 396.654545 219.083833 
L 401.163636 220.051646 
L 405.672727 214.843892 
L 410.181818 215.396928 
L 414.690909 223.738552 
L 419.2 224.107242 
L 423.709091 225.904609 
L 428.218182 220.558595 
L 432.727273 224.153328 
L 437.236364 227.471544 
L 441.745455 225.443745 
L 446.254545 222.079444 
L 450.763636 218.853402 
L 455.272727 224.936796 
L 459.781818 223.047257 
L 464.290909 218.208193 
L 468.8 226.734162 
L 473.309091 210.834382 
L 477.818182 242.910461 
L 482.327273 217.102121 
L 486.836364 229.222824 
L 491.345455 212.216971 
L 495.854545 224.706364 
L 500.363636 234.246233 
L 504.872727 234.707096 
L 509.381818 228.024579 
L 513.890909 231.250622 
L 518.4 208.48398 
" clip-path="url(#p8c31891524)" style="fill: none; stroke: #1f77b4; stroke-width: 1.5; stroke-linecap: square"/>
   </g>
   <g id="line2d_13">
    <path d="M 72 55.8 
L 76.509091 131.980688 
L 81.018182 135.298903 
L 85.527273 136.681492 
L 90.036364 168.250622 
L 94.545455 172.121873 
L 99.054545 146.083102 
L 103.563636 164.425457 
L 108.072727 158.24989 
L 112.581818 184.334748 
L 117.090909 172.53665 
L 121.6 185.80951 
L 126.109091 172.674909 
L 130.618182 172.214045 
L 135.127273 162.305486 
L 139.636364 168.849744 
L 144.145455 197.469349 
L 148.654545 161.153328 
L 153.163636 167.467154 
L 157.672727 177.606145 
L 162.181818 165.208925 
L 166.690909 157.650768 
L 171.2 181.846086 
L 175.709091 174.979225 
L 180.218182 164.241112 
L 184.727273 177.836576 
L 189.236364 166.407169 
L 193.745455 179.265252 
L 198.254545 191.385955 
L 202.763636 191.985077 
L 207.272727 175.440088 
L 211.781818 192.538113 
L 216.290909 177.053109 
L 220.8 174.057498 
L 225.309091 182.721726 
L 229.818182 190.832919 
L 234.327273 179.587857 
L 238.836364 186.362546 
L 243.345455 183.643453 
L 247.854545 192.630285 
L 252.363636 205.949232 
L 256.872727 175.947037 
L 261.381818 187.376445 
L 265.890909 182.721726 
L 270.4 194.750256 
L 274.909091 204.981419 
L 279.418182 205.949232 
L 283.927273 184.749525 
L 288.436364 167.605413 
L 292.945455 182.767813 
L 297.454545 198.114557 
L 301.963636 196.225018 
L 306.472727 175.071397 
L 310.981818 191.385955 
L 315.490909 196.45545 
L 320 182.859985 
L 324.509091 201.571031 
L 329.018182 216.272568 
L 333.527273 197.285004 
L 338.036364 192.492026 
L 342.545455 196.040673 
L 347.054545 182.491295 
L 351.563636 194.750256 
L 356.072727 222.217703 
L 360.581818 201.663204 
L 365.090909 196.317191 
L 369.6 193.690271 
L 374.109091 204.428383 
L 378.618182 191.339868 
L 383.127273 209.451792 
L 387.636364 196.639795 
L 392.145455 196.547623 
L 396.654545 208.207462 
L 401.163636 209.405706 
L 405.672727 204.197952 
L 410.181818 205.810973 
L 414.690909 195.625896 
L 419.2 203.368398 
L 423.709091 204.244038 
L 428.218182 194.934601 
L 432.727273 206.041405 
L 437.236364 212.447403 
L 441.745455 211.525677 
L 446.254545 218.069934 
L 450.763636 232.126262 
L 455.272727 209.774396 
L 459.781818 216.687345 
L 464.290909 201.70929 
L 468.8 225.720263 
L 473.309091 208.069203 
L 477.818182 220.8812 
L 482.327273 214.014338 
L 486.836364 209.958742 
L 491.345455 214.982151 
L 495.854545 235.813168 
L 500.363636 225.213314 
L 504.872727 202.769276 
L 509.381818 214.567374 
L 513.890909 220.604682 
L 518.4 207.10139 
" clip-path="url(#p8c31891524)" style="fill: none; stroke: #ff7f0e; stroke-width: 1.5; stroke-linecap: square"/>
   </g>
   <g id="line2d_14">
    <path d="M 72 177.191368 
L 76.509091 190.925091 
L 81.018182 194.934601 
L 85.527273 210.189173 
L 90.036364 220.235991 
L 94.545455 225.996781 
L 99.054545 209.72831 
L 103.563636 229.729773 
L 108.072727 224.706364 
L 112.581818 240.560059 
L 117.090909 233.877542 
L 121.6 237.195757 
L 126.109091 226.042868 
L 130.618182 230.006291 
L 135.127273 234.292319 
L 139.636364 242.17308 
L 144.145455 257.611997 
L 148.654545 251.989466 
L 153.163636 233.140161 
L 157.672727 238.762692 
L 162.181818 235.398391 
L 166.690909 230.052377 
L 171.2 241.850475 
L 175.709091 245.168691 
L 180.218182 228.39327 
L 184.727273 238.347915 
L 189.236364 243.186979 
L 193.745455 241.850475 
L 198.254545 238.394001 
L 202.763636 241.481785 
L 207.272727 237.887052 
L 211.781818 258.9485 
L 216.290909 223.415947 
L 220.8 248.763424 
L 225.309091 245.952158 
L 229.818182 247.565179 
L 234.327273 248.855596 
L 238.836364 250.422531 
L 243.345455 265.953621 
L 247.854545 254.385955 
L 252.363636 263.096269 
L 256.872727 235.490563 
L 261.381818 246.827798 
L 265.890909 261.944111 
L 270.4 256.229407 
L 274.909091 248.717337 
L 279.418182 246.228676 
L 283.927273 237.195757 
L 288.436364 255.077249 
L 292.945455 233.232334 
L 297.454545 256.598098 
L 301.963636 256.690271 
L 306.472727 250.099927 
L 310.981818 265.077981 
L 315.490909 257.750256 
L 320 231.296708 
L 324.509091 250.837308 
L 329.018182 265.999707 
L 333.527273 254.017264 
L 338.036364 241.527871 
L 342.545455 247.519093 
L 347.054545 250.699049 
L 351.563636 265.677103 
L 356.072727 285.816825 
L 360.581818 247.380834 
L 365.090909 262.174543 
L 369.6 259.916313 
L 374.109091 268.211851 
L 378.618182 257.842429 
L 383.127273 271.530066 
L 387.636364 249.592977 
L 392.145455 261.621507 
L 396.654545 278.811704 
L 401.163636 260.561522 
L 405.672727 287.614192 
L 410.181818 255.261595 
L 414.690909 269.732699 
L 419.2 286.00117 
L 423.709091 278.396928 
L 428.218182 254.478127 
L 432.727273 285.309876 
L 437.236364 267.290124 
L 441.745455 277.843892 
L 446.254545 268.442282 
L 450.763636 288.305486 
L 455.272727 277.198683 
L 459.781818 263.971909 
L 464.290909 266.137966 
L 468.8 283.466423 
L 473.309091 265.584931 
L 477.818182 278.811704 
L 482.327273 273.465691 
L 486.836364 280.470812 
L 491.345455 268.211851 
L 495.854545 289.918508 
L 500.363636 283.235991 
L 504.872727 284.342063 
L 509.381818 278.857791 
L 513.890909 291.531529 
L 518.4 265.584931 
" clip-path="url(#p8c31891524)" style="fill: none; stroke: #2ca02c; stroke-width: 1.5; stroke-linecap: square"/>
   </g>
   <g id="line2d_15">
    <path d="M 72 86.401317 
L 76.509091 186.454718 
L 81.018182 189.127725 
L 85.527273 205.35011 
L 90.036364 192.95289 
L 94.545455 224.061156 
L 99.054545 201.847549 
L 103.563636 212.216971 
L 108.072727 212.124799 
L 112.581818 230.697586 
L 117.090909 196.178932 
L 121.6 215.811704 
L 126.109091 214.152597 
L 130.618182 209.35962 
L 135.127273 204.244038 
L 139.636364 207.331822 
L 144.145455 230.190636 
L 148.654545 213.783906 
L 153.163636 199.543233 
L 157.672727 206.410095 
L 162.181818 200.46496 
L 166.690909 208.944843 
L 171.2 204.981419 
L 175.709091 215.719532 
L 180.218182 179.54177 
L 184.727273 216.502999 
L 189.236364 204.428383 
L 193.745455 217.516898 
L 198.254545 220.37425 
L 202.763636 213.415216 
L 207.272727 221.572495 
L 211.781818 218.576884 
L 216.290909 196.086759 
L 220.8 231.481053 
L 225.309091 220.466423 
L 229.818182 225.167228 
L 234.327273 225.075055 
L 238.836364 238.670519 
L 243.345455 225.582004 
L 247.854545 226.918508 
L 252.363636 247.657352 
L 256.872727 191.155523 
L 261.381818 219.544696 
L 265.890909 232.494952 
L 270.4 229.176737 
L 274.909091 234.200146 
L 279.418182 222.908998 
L 283.927273 215.12041 
L 288.436364 230.421068 
L 292.945455 210.511778 
L 297.454545 232.587125 
L 301.963636 232.172348 
L 306.472727 218.807315 
L 310.981818 237.564448 
L 315.490909 232.863643 
L 320 205.119678 
L 324.509091 237.103584 
L 329.018182 255.123336 
L 333.527273 232.40278 
L 338.036364 223.876811 
L 342.545455 236.965326 
L 347.054545 222.955084 
L 351.563636 235.582736 
L 356.072727 268.580541 
L 360.581818 222.494221 
L 365.090909 258.856328 
L 369.6 225.121141 
L 374.109091 253.879005 
L 378.618182 236.41229 
L 383.127273 257.058961 
L 387.636364 232.863643 
L 392.145455 242.818288 
L 396.654545 254.708559 
L 401.163636 246.274762 
L 405.672727 258.994587 
L 410.181818 247.565179 
L 414.690909 251.205999 
L 419.2 270.009217 
L 423.709091 264.156255 
L 428.218182 243.878274 
L 432.727273 265.953621 
L 437.236364 265.631017 
L 441.745455 261.298903 
L 446.254545 242.680029 
L 450.763636 266.460571 
L 455.272727 261.391075 
L 459.781818 261.898025 
L 464.290909 259.962399 
L 468.8 269.870958 
L 473.309091 258.118947 
L 477.818182 270.10139 
L 482.327273 260.653694 
L 486.836364 258.856328 
L 491.345455 252.127725 
L 495.854545 269.686613 
L 500.363636 272.866569 
L 504.872727 278.535187 
L 509.381818 268.257937 
L 513.890909 293.789759 
L 518.4 258.165033 
" clip-path="url(#p8c31891524)" style="fill: none; stroke: #d62728; stroke-width: 1.5; stroke-linecap: square"/>
   </g>
   <g id="line2d_16">
    <path d="M 72 170.27842 
L 76.509091 200.879737 
L 81.018182 184.795611 
L 85.527273 216.917776 
L 90.036364 234.384492 
L 94.545455 235.075786 
L 99.054545 234.983614 
L 103.563636 152.028237 
L 108.072727 196.731968 
L 112.581818 215.12041 
L 117.090909 216.410827 
L 121.6 234.476664 
L 126.109091 218.62297 
L 130.618182 230.928018 
L 135.127273 208.806584 
L 139.636364 220.973372 
L 144.145455 232.126262 
L 148.654545 236.043599 
L 153.163636 211.433504 
L 157.672727 207.147476 
L 162.181818 214.797805 
L 166.690909 231.112363 
L 171.2 230.190636 
L 175.709091 228.715874 
L 180.218182 217.655157 
L 184.727273 223.369861 
L 189.236364 208.990929 
L 193.745455 230.605413 
L 198.254545 213.73782 
L 202.763636 215.903877 
L 207.272727 228.301097 
L 211.781818 225.121141 
L 216.290909 200.971909 
L 220.8 225.397659 
L 225.309091 224.982882 
L 229.818182 229.729773 
L 234.327273 232.356693 
L 238.836364 233.27842 
L 243.345455 226.64199 
L 247.854545 237.334016 
L 252.363636 248.947769 
L 256.872727 238.117484 
L 261.381818 238.301829 
L 265.890909 237.840966 
L 270.4 222.908998 
L 274.909091 233.923628 
L 279.418182 235.90534 
L 283.927273 226.411558 
L 288.436364 228.208925 
L 292.945455 216.779517 
L 297.454545 243.41741 
L 301.963636 238.53226 
L 306.472727 226.503731 
L 310.981818 247.749525 
L 315.490909 238.347915 
L 320 232.264521 
L 324.509091 230.697586 
L 329.018182 254.201609 
L 333.527273 238.716606 
L 338.036364 234.061887 
L 342.545455 237.057498 
L 347.054545 232.448866 
L 351.563636 246.919971 
L 356.072727 271.760497 
L 360.581818 243.647842 
L 365.090909 244.569568 
L 369.6 252.450329 
L 374.109091 249.1782 
L 378.618182 254.985077 
L 383.127273 258.671982 
L 387.636364 226.918508 
L 392.145455 245.67564 
L 396.654545 256.137235 
L 401.163636 251.482516 
L 405.672727 258.165033 
L 410.181818 250.099927 
L 414.690909 246.18259 
L 419.2 266.783175 
L 423.709091 249.500805 
L 428.218182 248.625165 
L 432.727273 254.616386 
L 437.236364 252.588588 
L 441.745455 255.860717 
L 446.254545 244.29305 
L 450.763636 275.124799 
L 455.272727 255.768544 
L 459.781818 247.841697 
L 464.290909 238.117484 
L 468.8 259.040673 
L 473.309091 246.090417 
L 477.818182 266.737089 
L 482.327273 250.975567 
L 486.836364 274.1109 
L 491.345455 242.54177 
L 495.854545 266.460571 
L 500.363636 257.565911 
L 504.872727 274.894367 
L 509.381818 256.275494 
L 513.890909 267.935333 
L 518.4 253.141624 
" clip-path="url(#p8c31891524)" style="fill: none; stroke: #9467bd; stroke-width: 1.5; stroke-linecap: square"/>
   </g>
   <g id="line2d_17">
    <path d="M 72 185.118215 
L 76.509091 203.368398 
L 81.018182 185.625165 
L 85.527273 208.437893 
L 90.036364 232.40278 
L 94.545455 226.64199 
L 99.054545 211.387418 
L 103.563636 217.056035 
L 108.072727 222.494221 
L 112.581818 228.301097 
L 117.090909 236.274031 
L 121.6 244.8 
L 126.109091 232.725384 
L 130.618182 239.361814 
L 135.127273 235.075786 
L 139.636364 234.983614 
L 144.145455 250.376445 
L 148.654545 248.947769 
L 153.163636 237.472275 
L 157.672727 245.30695 
L 162.181818 229.914119 
L 166.690909 238.53226 
L 171.2 244.707827 
L 175.709091 250.192099 
L 180.218182 240.145282 
L 184.727273 240.79049 
L 189.236364 244.108705 
L 193.745455 249.777323 
L 198.254545 238.947037 
L 202.763636 251.390344 
L 207.272727 244.431309 
L 211.781818 255.169422 
L 216.290909 225.628091 
L 220.8 248.993855 
L 225.309091 244.016533 
L 229.818182 235.306218 
L 234.327273 251.344257 
L 238.836364 254.201609 
L 243.345455 261.805852 
L 247.854545 242.126993 
L 252.363636 268.580541 
L 256.872727 235.075786 
L 261.381818 256.82853 
L 265.890909 264.755377 
L 270.4 250.468617 
L 274.909091 259.132846 
L 279.418182 254.293782 
L 283.927273 242.126993 
L 288.436364 259.086759 
L 292.945455 234.338405 
L 297.454545 252.173811 
L 301.963636 261.252816 
L 306.472727 250.146013 
L 310.981818 253.879005 
L 315.490909 260.33109 
L 320 235.859254 
L 324.509091 255.768544 
L 329.018182 274.571763 
L 333.527273 240.375713 
L 338.036364 246.505194 
L 342.545455 253.233797 
L 347.054545 252.865106 
L 351.563636 275.309144 
L 356.072727 278.535187 
L 360.581818 252.726847 
L 365.090909 257.888515 
L 369.6 273.465691 
L 374.109091 270.930944 
L 378.618182 257.058961 
L 383.127273 279.687345 
L 387.636364 247.519093 
L 392.145455 264.202341 
L 396.654545 280.470812 
L 401.163636 260.33109 
L 405.672727 281.069934 
L 410.181818 255.123336 
L 414.690909 270.331822 
L 419.2 280.24038 
L 423.709091 273.60395 
L 428.218182 261.483248 
L 432.727273 281.254279 
L 437.236364 271.944843 
L 441.745455 279.134309 
L 446.254545 251.620775 
L 450.763636 293.052377 
L 455.272727 277.475201 
L 459.781818 273.511778 
L 464.290909 273.972641 
L 468.8 279.502999 
L 473.309091 257.058961 
L 477.818182 290.333285 
L 482.327273 269.870958 
L 486.836364 266.875347 
L 491.345455 277.014338 
L 495.854545 287.752451 
L 500.363636 278.811704 
L 504.872727 289.780249 
L 509.381818 273.696123 
L 513.890909 284.849012 
L 518.4 278.258669 
" clip-path="url(#p8c31891524)" style="fill: none; stroke: #8c564b; stroke-width: 1.5; stroke-linecap: square"/>
   </g>
   <g id="line2d_18">
    <path d="M 72 127.233797 
L 76.509091 200.603219 
L 81.018182 191.708559 
L 85.527273 196.870227 
L 90.036364 197.377176 
L 94.545455 222.309876 
L 99.054545 204.704901 
L 103.563636 213.691734 
L 108.072727 210.650037 
L 112.581818 225.167228 
L 117.090909 158.342063 
L 121.6 235.260132 
L 126.109091 220.420337 
L 130.618182 197.561522 
L 135.127273 218.853402 
L 139.636364 222.402048 
L 144.145455 225.674177 
L 148.654545 221.710753 
L 153.163636 209.267447 
L 157.672727 227.241112 
L 162.181818 220.973372 
L 166.690909 212.401317 
L 171.2 219.913387 
L 175.709091 241.481785 
L 180.218182 206.456181 
L 184.727273 224.660278 
L 189.236364 231.158449 
L 193.745455 224.107242 
L 198.254545 224.89071 
L 202.763636 238.440088 
L 207.272727 227.701975 
L 211.781818 235.121873 
L 216.290909 202.170154 
L 220.8 235.997513 
L 225.309091 223.554206 
L 229.818182 238.301829 
L 234.327273 245.859985 
L 238.836364 234.568837 
L 243.345455 240.882663 
L 247.854545 237.702707 
L 252.363636 244.154792 
L 256.872727 219.083833 
L 261.381818 233.508851 
L 265.890909 256.32158 
L 270.4 245.030432 
L 274.909091 250.330358 
L 279.418182 219.222092 
L 283.927273 219.729042 
L 288.436364 250.514704 
L 292.945455 211.203072 
L 297.454545 249.039941 
L 301.963636 250.146013 
L 306.472727 238.53226 
L 310.981818 244.200878 
L 315.490909 242.219166 
L 320 209.083102 
L 324.509091 250.883394 
L 329.018182 268.119678 
L 333.527273 255.215508 
L 338.036364 240.606145 
L 342.545455 248.394733 
L 347.054545 244.385223 
L 351.563636 248.901683 
L 356.072727 270.746598 
L 360.581818 239.546159 
L 365.090909 254.662473 
L 369.6 242.080907 
L 374.109091 263.418873 
L 378.618182 245.122604 
L 383.127273 267.750988 
L 387.636364 254.478127 
L 392.145455 270.838771 
L 396.654545 271.714411 
L 401.163636 259.731968 
L 405.672727 282.49861 
L 410.181818 258.395465 
L 414.690909 266.506657 
L 419.2 273.419605 
L 423.709091 271.530066 
L 428.218182 251.989466 
L 432.727273 270.285735 
L 437.236364 274.710022 
L 441.745455 279.595172 
L 446.254545 257.611997 
L 450.763636 276.230871 
L 455.272727 263.511046 
L 459.781818 276.323043 
L 464.290909 277.521287 
L 468.8 286.600293 
L 473.309091 254.800732 
L 477.818182 286.50812 
L 482.327273 262.128456 
L 486.836364 281.346452 
L 491.345455 269.59444 
L 495.854545 283.235991 
L 500.363636 289.365472 
L 504.872727 290.471544 
L 509.381818 278.903877 
L 513.890909 292.361083 
L 518.4 276.922165 
" clip-path="url(#p8c31891524)" style="fill: none; stroke: #e377c2; stroke-width: 1.5; stroke-linecap: square"/>
   </g>
   <g id="line2d_19">
    <path d="M 72 160.139429 
L 76.509091 196.593709 
L 81.018182 196.363277 
L 85.527273 219.544696 
L 90.036364 228.208925 
L 94.545455 227.563716 
L 99.054545 218.023848 
L 103.563636 219.083833 
L 108.072727 233.047988 
L 112.581818 236.642721 
L 117.090909 221.618581 
L 121.6 249.500805 
L 126.109091 242.633943 
L 130.618182 238.117484 
L 135.127273 195.57981 
L 139.636364 239.776591 
L 144.145455 251.897293 
L 148.654545 252.035552 
L 153.163636 232.218435 
L 157.672727 248.118215 
L 162.181818 234.66101 
L 166.690909 236.596635 
L 171.2 248.855596 
L 175.709091 235.997513 
L 180.218182 223.277688 
L 184.727273 239.638332 
L 189.236364 248.164301 
L 193.745455 253.372056 
L 198.254545 236.320117 
L 202.763636 246.366935 
L 207.272727 250.468617 
L 211.781818 244.892173 
L 216.290909 215.304755 
L 220.8 255.814631 
L 225.309091 244.108705 
L 229.818182 250.284272 
L 234.327273 253.418142 
L 238.836364 259.225018 
L 243.345455 271.576152 
L 247.854545 245.583467 
L 252.363636 263.879737 
L 256.872727 249.362546 
L 261.381818 251.298171 
L 265.890909 260.054572 
L 270.4 253.18771 
L 274.909091 261.298903 
L 279.418182 260.561522 
L 283.927273 243.647842 
L 288.436364 259.317191 
L 292.945455 238.255743 
L 297.454545 267.520556 
L 301.963636 263.925823 
L 306.472727 249.592977 
L 310.981818 251.989466 
L 315.490909 271.48398 
L 320 238.347915 
L 324.509091 273.926554 
L 329.018182 274.295245 
L 333.527273 252.865106 
L 338.036364 261.252816 
L 342.545455 254.478127 
L 347.054545 261.298903 
L 351.563636 276.184784 
L 356.072727 285.724653 
L 360.581818 253.648574 
L 365.090909 270.930944 
L 369.6 266.737089 
L 374.109091 271.161375 
L 378.618182 266.644916 
L 383.127273 279.595172 
L 387.636364 260.192831 
L 392.145455 272.590051 
L 396.654545 296.508851 
L 401.163636 277.705633 
L 405.672727 299.504462 
L 410.181818 265.21624 
L 414.690909 269.410095 
L 419.2 295.264521 
L 423.709091 281.715143 
L 428.218182 269.502268 
L 432.727273 292.77586 
L 437.236364 289.734162 
L 441.745455 288.720263 
L 446.254545 263.741478 
L 450.763636 307.8 
L 455.272727 281.254279 
L 459.781818 287.522019 
L 464.290909 277.843892 
L 468.8 298.767081 
L 473.309091 284.203804 
L 477.818182 297.753182 
L 482.327273 281.438625 
L 486.836364 277.475201 
L 491.345455 283.650768 
L 495.854545 295.679298 
L 500.363636 285.540307 
L 504.872727 294.112363 
L 509.381818 290.333285 
L 513.890909 303.974835 
L 518.4 281.761229 
" clip-path="url(#p8c31891524)" style="fill: none; stroke: #7f7f7f; stroke-width: 1.5; stroke-linecap: square"/>
   </g>
   <g id="patch_3">
    <path d="M 72 320.4 
L 72 43.2 
" style="fill: none; stroke: #000000; stroke-width: 0.8; stroke-linejoin: miter; stroke-linecap: square"/>
   </g>
   <g id="patch_4">
    <path d="M 518.4 320.4 
L 518.4 43.2 
" style="fill: none; stroke: #000000; stroke-width: 0.8; stroke-linejoin: miter; stroke-linecap: square"/>
   </g>
   <g id="patch_5">
    <path d="M 72 320.4 
L 518.4 320.4 
" style="fill: none; stroke: #000000; stroke-width: 0.8; stroke-linejoin: miter; stroke-linecap: square"/>
   </g>
   <g id="patch_6">
    <path d="M 72 43.2 
L 518.4 43.2 
" style="fill: none; stroke: #000000; stroke-width: 0.8; stroke-linejoin: miter; stroke-linecap: square"/>
   </g>
   <g id="text_14">
    <!-- H4K20me1 -->
    <g transform="translate(261.946875 37.2) scale(0.12 -0.12)">
     <defs>
      <path id="DejaVuSans-48" d="M 628 4666 
L 1259 4666 
L 1259 2753 
L 3553 2753 
L 3553 4666 
L 4184 4666 
L 4184 0 
L 3553 0 
L 3553 2222 
L 1259 2222 
L 1259 0 
L 628 0 
L 628 4666 
z
" transform="scale(0.015625)"/>
      <path id="DejaVuSans-4b" d="M 628 4666 
L 1259 4666 
L 1259 2694 
L 3353 4666 
L 4166 4666 
L 1850 2491 
L 4331 0 
L 3500 0 
L 1259 2247 
L 1259 0 
L 628 0 
L 628 4666 
z
" transform="scale(0.015625)"/>
      <path id="DejaVuSans-6d" d="M 3328 2828 
Q 3544 3216 3844 3400 
Q 4144 3584 4550 3584 
Q 5097 3584 5394 3201 
Q 5691 2819 5691 2113 
L 5691 0 
L 5113 0 
L 5113 2094 
Q 5113 2597 4934 2840 
Q 4756 3084 4391 3084 
Q 3944 3084 3684 2787 
Q 3425 2491 3425 1978 
L 3425 0 
L 2847 0 
L 2847 2094 
Q 2847 2600 2669 2842 
Q 2491 3084 2119 3084 
Q 1678 3084 1418 2786 
Q 1159 2488 1159 1978 
L 1159 0 
L 581 0 
L 581 3500 
L 1159 3500 
L 1159 2956 
Q 1356 3278 1631 3431 
Q 1906 3584 2284 3584 
Q 2666 3584 2933 3390 
Q 3200 3197 3328 2828 
z
" transform="scale(0.015625)"/>
     </defs>
     <use xlink:href="#DejaVuSans-48"/>
     <use xlink:href="#DejaVuSans-34" transform="translate(75.195312 0)"/>
     <use xlink:href="#DejaVuSans-4b" transform="translate(138.818359 0)"/>
     <use xlink:href="#DejaVuSans-32" transform="translate(204.394531 0)"/>
     <use xlink:href="#DejaVuSans-30" transform="translate(268.017578 0)"/>
     <use xlink:href="#DejaVuSans-6d" transform="translate(331.640625 0)"/>
     <use xlink:href="#DejaVuSans-65" transform="translate(429.052734 0)"/>
     <use xlink:href="#DejaVuSans-31" transform="translate(490.576172 0)"/>
    </g>
   </g>
   <g id="legend_1">
    <g id="patch_7">
     <path d="M 334.210684 147.679025 
L 512.569 147.679025 
Q 514.235 147.679025 514.235 146.013025 
L 514.235 49.031 
Q 514.235 47.365 512.569 47.365 
L 334.210684 47.365 
Q 332.544684 47.365 332.544684 49.031 
L 332.544684 146.013025 
Q 332.544684 147.679025 334.210684 147.679025 
z
" style="fill: #ffffff; opacity: 0.8; stroke: #cccccc; stroke-linejoin: miter"/>
    </g>
    <g id="line2d_20">
     <path d="M 335.876684 54.110998 
L 344.206684 54.110998 
L 352.536684 54.110998 
" style="fill: none; stroke: #1f77b4; stroke-width: 1.5; stroke-linecap: square"/>
    </g>
    <g id="text_15">
     <!-- NT-MS V2 (50M) with rand. weights -->
     <g transform="translate(359.200684 57.026498) scale(0.0833 -0.0833)">
      <defs>
       <path id="DejaVuSans-4e" d="M 628 4666 
L 1478 4666 
L 3547 763 
L 3547 4666 
L 4159 4666 
L 4159 0 
L 3309 0 
L 1241 3903 
L 1241 0 
L 628 0 
L 628 4666 
z
" transform="scale(0.015625)"/>
       <path id="DejaVuSans-2d" d="M 313 2009 
L 1997 2009 
L 1997 1497 
L 313 1497 
L 313 2009 
z
" transform="scale(0.015625)"/>
       <path id="DejaVuSans-4d" d="M 628 4666 
L 1569 4666 
L 2759 1491 
L 3956 4666 
L 4897 4666 
L 4897 0 
L 4281 0 
L 4281 4097 
L 3078 897 
L 2444 897 
L 1241 4097 
L 1241 0 
L 628 0 
L 628 4666 
z
" transform="scale(0.015625)"/>
       <path id="DejaVuSans-53" d="M 3425 4513 
L 3425 3897 
Q 3066 4069 2747 4153 
Q 2428 4238 2131 4238 
Q 1616 4238 1336 4038 
Q 1056 3838 1056 3469 
Q 1056 3159 1242 3001 
Q 1428 2844 1947 2747 
L 2328 2669 
Q 3034 2534 3370 2195 
Q 3706 1856 3706 1288 
Q 3706 609 3251 259 
Q 2797 -91 1919 -91 
Q 1588 -91 1214 -16 
Q 841 59 441 206 
L 441 856 
Q 825 641 1194 531 
Q 1563 422 1919 422 
Q 2459 422 2753 634 
Q 3047 847 3047 1241 
Q 3047 1584 2836 1778 
Q 2625 1972 2144 2069 
L 1759 2144 
Q 1053 2284 737 2584 
Q 422 2884 422 3419 
Q 422 4038 858 4394 
Q 1294 4750 2059 4750 
Q 2388 4750 2728 4690 
Q 3069 4631 3425 4513 
z
" transform="scale(0.015625)"/>
       <path id="DejaVuSans-56" d="M 1831 0 
L 50 4666 
L 709 4666 
L 2188 738 
L 3669 4666 
L 4325 4666 
L 2547 0 
L 1831 0 
z
" transform="scale(0.015625)"/>
       <path id="DejaVuSans-28" d="M 1984 4856 
Q 1566 4138 1362 3434 
Q 1159 2731 1159 2009 
Q 1159 1288 1364 580 
Q 1569 -128 1984 -844 
L 1484 -844 
Q 1016 -109 783 600 
Q 550 1309 550 2009 
Q 550 2706 781 3412 
Q 1013 4119 1484 4856 
L 1984 4856 
z
" transform="scale(0.015625)"/>
       <path id="DejaVuSans-29" d="M 513 4856 
L 1013 4856 
Q 1481 4119 1714 3412 
Q 1947 2706 1947 2009 
Q 1947 1309 1714 600 
Q 1481 -109 1013 -844 
L 513 -844 
Q 928 -128 1133 580 
Q 1338 1288 1338 2009 
Q 1338 2731 1133 3434 
Q 928 4138 513 4856 
z
" transform="scale(0.015625)"/>
       <path id="DejaVuSans-77" d="M 269 3500 
L 844 3500 
L 1563 769 
L 2278 3500 
L 2956 3500 
L 3675 769 
L 4391 3500 
L 4966 3500 
L 4050 0 
L 3372 0 
L 2619 2869 
L 1863 0 
L 1184 0 
L 269 3500 
z
" transform="scale(0.015625)"/>
       <path id="DejaVuSans-68" d="M 3513 2113 
L 3513 0 
L 2938 0 
L 2938 2094 
Q 2938 2591 2744 2837 
Q 2550 3084 2163 3084 
Q 1697 3084 1428 2787 
Q 1159 2491 1159 1978 
L 1159 0 
L 581 0 
L 581 4863 
L 1159 4863 
L 1159 2956 
Q 1366 3272 1645 3428 
Q 1925 3584 2291 3584 
Q 2894 3584 3203 3211 
Q 3513 2838 3513 2113 
z
" transform="scale(0.015625)"/>
       <path id="DejaVuSans-64" d="M 2906 2969 
L 2906 4863 
L 3481 4863 
L 3481 0 
L 2906 0 
L 2906 525 
Q 2725 213 2448 61 
Q 2172 -91 1784 -91 
Q 1150 -91 751 415 
Q 353 922 353 1747 
Q 353 2572 751 3078 
Q 1150 3584 1784 3584 
Q 2172 3584 2448 3432 
Q 2725 3281 2906 2969 
z
M 947 1747 
Q 947 1113 1208 752 
Q 1469 391 1925 391 
Q 2381 391 2643 752 
Q 2906 1113 2906 1747 
Q 2906 2381 2643 2742 
Q 2381 3103 1925 3103 
Q 1469 3103 1208 2742 
Q 947 2381 947 1747 
z
" transform="scale(0.015625)"/>
      </defs>
      <use xlink:href="#DejaVuSans-4e"/>
      <use xlink:href="#DejaVuSans-54" transform="translate(74.804688 0)"/>
      <use xlink:href="#DejaVuSans-2d" transform="translate(126.763672 0)"/>
      <use xlink:href="#DejaVuSans-4d" transform="translate(162.847656 0)"/>
      <use xlink:href="#DejaVuSans-53" transform="translate(249.126953 0)"/>
      <use xlink:href="#DejaVuSans-20" transform="translate(312.603516 0)"/>
      <use xlink:href="#DejaVuSans-56" transform="translate(344.390625 0)"/>
      <use xlink:href="#DejaVuSans-32" transform="translate(412.798828 0)"/>
      <use xlink:href="#DejaVuSans-20" transform="translate(476.421875 0)"/>
      <use xlink:href="#DejaVuSans-28" transform="translate(508.208984 0)"/>
      <use xlink:href="#DejaVuSans-35" transform="translate(547.222656 0)"/>
      <use xlink:href="#DejaVuSans-30" transform="translate(610.845703 0)"/>
      <use xlink:href="#DejaVuSans-4d" transform="translate(674.46875 0)"/>
      <use xlink:href="#DejaVuSans-29" transform="translate(760.748047 0)"/>
      <use xlink:href="#DejaVuSans-20" transform="translate(799.761719 0)"/>
      <use xlink:href="#DejaVuSans-77" transform="translate(831.548828 0)"/>
      <use xlink:href="#DejaVuSans-69" transform="translate(913.335938 0)"/>
      <use xlink:href="#DejaVuSans-74" transform="translate(941.119141 0)"/>
      <use xlink:href="#DejaVuSans-68" transform="translate(980.328125 0)"/>
      <use xlink:href="#DejaVuSans-20" transform="translate(1043.707031 0)"/>
      <use xlink:href="#DejaVuSans-72" transform="translate(1075.494141 0)"/>
      <use xlink:href="#DejaVuSans-61" transform="translate(1116.607422 0)"/>
      <use xlink:href="#DejaVuSans-6e" transform="translate(1177.886719 0)"/>
      <use xlink:href="#DejaVuSans-64" transform="translate(1241.265625 0)"/>
      <use xlink:href="#DejaVuSans-2e" transform="translate(1304.742188 0)"/>
      <use xlink:href="#DejaVuSans-20" transform="translate(1336.529297 0)"/>
      <use xlink:href="#DejaVuSans-77" transform="translate(1368.316406 0)"/>
      <use xlink:href="#DejaVuSans-65" transform="translate(1450.103516 0)"/>
      <use xlink:href="#DejaVuSans-69" transform="translate(1511.626953 0)"/>
      <use xlink:href="#DejaVuSans-67" transform="translate(1539.410156 0)"/>
      <use xlink:href="#DejaVuSans-68" transform="translate(1602.886719 0)"/>
      <use xlink:href="#DejaVuSans-74" transform="translate(1666.265625 0)"/>
      <use xlink:href="#DejaVuSans-73" transform="translate(1705.474609 0)"/>
     </g>
    </g>
    <g id="line2d_21">
     <path d="M 335.876684 66.337877 
L 344.206684 66.337877 
L 352.536684 66.337877 
" style="fill: none; stroke: #ff7f0e; stroke-width: 1.5; stroke-linecap: square"/>
    </g>
    <g id="text_16">
     <!-- NT-MS V2 (500M) with rand. weights -->
     <g transform="translate(359.200684 69.253377) scale(0.0833 -0.0833)">
      <use xlink:href="#DejaVuSans-4e"/>
      <use xlink:href="#DejaVuSans-54" transform="translate(74.804688 0)"/>
      <use xlink:href="#DejaVuSans-2d" transform="translate(126.763672 0)"/>
      <use xlink:href="#DejaVuSans-4d" transform="translate(162.847656 0)"/>
      <use xlink:href="#DejaVuSans-53" transform="translate(249.126953 0)"/>
      <use xlink:href="#DejaVuSans-20" transform="translate(312.603516 0)"/>
      <use xlink:href="#DejaVuSans-56" transform="translate(344.390625 0)"/>
      <use xlink:href="#DejaVuSans-32" transform="translate(412.798828 0)"/>
      <use xlink:href="#DejaVuSans-20" transform="translate(476.421875 0)"/>
      <use xlink:href="#DejaVuSans-28" transform="translate(508.208984 0)"/>
      <use xlink:href="#DejaVuSans-35" transform="translate(547.222656 0)"/>
      <use xlink:href="#DejaVuSans-30" transform="translate(610.845703 0)"/>
      <use xlink:href="#DejaVuSans-30" transform="translate(674.46875 0)"/>
      <use xlink:href="#DejaVuSans-4d" transform="translate(738.091797 0)"/>
      <use xlink:href="#DejaVuSans-29" transform="translate(824.371094 0)"/>
      <use xlink:href="#DejaVuSans-20" transform="translate(863.384766 0)"/>
      <use xlink:href="#DejaVuSans-77" transform="translate(895.171875 0)"/>
      <use xlink:href="#DejaVuSans-69" transform="translate(976.958984 0)"/>
      <use xlink:href="#DejaVuSans-74" transform="translate(1004.742188 0)"/>
      <use xlink:href="#DejaVuSans-68" transform="translate(1043.951172 0)"/>
      <use xlink:href="#DejaVuSans-20" transform="translate(1107.330078 0)"/>
      <use xlink:href="#DejaVuSans-72" transform="translate(1139.117188 0)"/>
      <use xlink:href="#DejaVuSans-61" transform="translate(1180.230469 0)"/>
      <use xlink:href="#DejaVuSans-6e" transform="translate(1241.509766 0)"/>
      <use xlink:href="#DejaVuSans-64" transform="translate(1304.888672 0)"/>
      <use xlink:href="#DejaVuSans-2e" transform="translate(1368.365234 0)"/>
      <use xlink:href="#DejaVuSans-20" transform="translate(1400.152344 0)"/>
      <use xlink:href="#DejaVuSans-77" transform="translate(1431.939453 0)"/>
      <use xlink:href="#DejaVuSans-65" transform="translate(1513.726562 0)"/>
      <use xlink:href="#DejaVuSans-69" transform="translate(1575.25 0)"/>
      <use xlink:href="#DejaVuSans-67" transform="translate(1603.033203 0)"/>
      <use xlink:href="#DejaVuSans-68" transform="translate(1666.509766 0)"/>
      <use xlink:href="#DejaVuSans-74" transform="translate(1729.888672 0)"/>
      <use xlink:href="#DejaVuSans-73" transform="translate(1769.097656 0)"/>
     </g>
    </g>
    <g id="line2d_22">
     <path d="M 335.876684 78.564755 
L 344.206684 78.564755 
L 352.536684 78.564755 
" style="fill: none; stroke: #2ca02c; stroke-width: 1.5; stroke-linecap: square"/>
    </g>
    <g id="text_17">
     <!-- NT-MS V2 (50M) -->
     <g transform="translate(359.200684 81.480255) scale(0.0833 -0.0833)">
      <use xlink:href="#DejaVuSans-4e"/>
      <use xlink:href="#DejaVuSans-54" transform="translate(74.804688 0)"/>
      <use xlink:href="#DejaVuSans-2d" transform="translate(126.763672 0)"/>
      <use xlink:href="#DejaVuSans-4d" transform="translate(162.847656 0)"/>
      <use xlink:href="#DejaVuSans-53" transform="translate(249.126953 0)"/>
      <use xlink:href="#DejaVuSans-20" transform="translate(312.603516 0)"/>
      <use xlink:href="#DejaVuSans-56" transform="translate(344.390625 0)"/>
      <use xlink:href="#DejaVuSans-32" transform="translate(412.798828 0)"/>
      <use xlink:href="#DejaVuSans-20" transform="translate(476.421875 0)"/>
      <use xlink:href="#DejaVuSans-28" transform="translate(508.208984 0)"/>
      <use xlink:href="#DejaVuSans-35" transform="translate(547.222656 0)"/>
      <use xlink:href="#DejaVuSans-30" transform="translate(610.845703 0)"/>
      <use xlink:href="#DejaVuSans-4d" transform="translate(674.46875 0)"/>
      <use xlink:href="#DejaVuSans-29" transform="translate(760.748047 0)"/>
     </g>
    </g>
    <g id="line2d_23">
     <path d="M 335.876684 90.791633 
L 344.206684 90.791633 
L 352.536684 90.791633 
" style="fill: none; stroke: #d62728; stroke-width: 1.5; stroke-linecap: square"/>
    </g>
    <g id="text_18">
     <!-- NT-1000g (500M) -->
     <g transform="translate(359.200684 93.707133) scale(0.0833 -0.0833)">
      <use xlink:href="#DejaVuSans-4e"/>
      <use xlink:href="#DejaVuSans-54" transform="translate(74.804688 0)"/>
      <use xlink:href="#DejaVuSans-2d" transform="translate(126.763672 0)"/>
      <use xlink:href="#DejaVuSans-31" transform="translate(162.847656 0)"/>
      <use xlink:href="#DejaVuSans-30" transform="translate(226.470703 0)"/>
      <use xlink:href="#DejaVuSans-30" transform="translate(290.09375 0)"/>
      <use xlink:href="#DejaVuSans-30" transform="translate(353.716797 0)"/>
      <use xlink:href="#DejaVuSans-67" transform="translate(417.339844 0)"/>
      <use xlink:href="#DejaVuSans-20" transform="translate(480.816406 0)"/>
      <use xlink:href="#DejaVuSans-28" transform="translate(512.603516 0)"/>
      <use xlink:href="#DejaVuSans-35" transform="translate(551.617188 0)"/>
      <use xlink:href="#DejaVuSans-30" transform="translate(615.240234 0)"/>
      <use xlink:href="#DejaVuSans-30" transform="translate(678.863281 0)"/>
      <use xlink:href="#DejaVuSans-4d" transform="translate(742.486328 0)"/>
      <use xlink:href="#DejaVuSans-29" transform="translate(828.765625 0)"/>
     </g>
    </g>
    <g id="line2d_24">
     <path d="M 335.876684 103.018511 
L 344.206684 103.018511 
L 352.536684 103.018511 
" style="fill: none; stroke: #9467bd; stroke-width: 1.5; stroke-linecap: square"/>
    </g>
    <g id="text_19">
     <!-- NT-MS V2 (250M) -->
     <g transform="translate(359.200684 105.934011) scale(0.0833 -0.0833)">
      <use xlink:href="#DejaVuSans-4e"/>
      <use xlink:href="#DejaVuSans-54" transform="translate(74.804688 0)"/>
      <use xlink:href="#DejaVuSans-2d" transform="translate(126.763672 0)"/>
      <use xlink:href="#DejaVuSans-4d" transform="translate(162.847656 0)"/>
      <use xlink:href="#DejaVuSans-53" transform="translate(249.126953 0)"/>
      <use xlink:href="#DejaVuSans-20" transform="translate(312.603516 0)"/>
      <use xlink:href="#DejaVuSans-56" transform="translate(344.390625 0)"/>
      <use xlink:href="#DejaVuSans-32" transform="translate(412.798828 0)"/>
      <use xlink:href="#DejaVuSans-20" transform="translate(476.421875 0)"/>
      <use xlink:href="#DejaVuSans-28" transform="translate(508.208984 0)"/>
      <use xlink:href="#DejaVuSans-32" transform="translate(547.222656 0)"/>
      <use xlink:href="#DejaVuSans-35" transform="translate(610.845703 0)"/>
      <use xlink:href="#DejaVuSans-30" transform="translate(674.46875 0)"/>
      <use xlink:href="#DejaVuSans-4d" transform="translate(738.091797 0)"/>
      <use xlink:href="#DejaVuSans-29" transform="translate(824.371094 0)"/>
     </g>
    </g>
    <g id="line2d_25">
     <path d="M 335.876684 115.245389 
L 344.206684 115.245389 
L 352.536684 115.245389 
" style="fill: none; stroke: #8c564b; stroke-width: 1.5; stroke-linecap: square"/>
    </g>
    <g id="text_20">
     <!-- NT-MS V2 (100M) -->
     <g transform="translate(359.200684 118.160889) scale(0.0833 -0.0833)">
      <use xlink:href="#DejaVuSans-4e"/>
      <use xlink:href="#DejaVuSans-54" transform="translate(74.804688 0)"/>
      <use xlink:href="#DejaVuSans-2d" transform="translate(126.763672 0)"/>
      <use xlink:href="#DejaVuSans-4d" transform="translate(162.847656 0)"/>
      <use xlink:href="#DejaVuSans-53" transform="translate(249.126953 0)"/>
      <use xlink:href="#DejaVuSans-20" transform="translate(312.603516 0)"/>
      <use xlink:href="#DejaVuSans-56" transform="translate(344.390625 0)"/>
      <use xlink:href="#DejaVuSans-32" transform="translate(412.798828 0)"/>
      <use xlink:href="#DejaVuSans-20" transform="translate(476.421875 0)"/>
      <use xlink:href="#DejaVuSans-28" transform="translate(508.208984 0)"/>
      <use xlink:href="#DejaVuSans-31" transform="translate(547.222656 0)"/>
      <use xlink:href="#DejaVuSans-30" transform="translate(610.845703 0)"/>
      <use xlink:href="#DejaVuSans-30" transform="translate(674.46875 0)"/>
      <use xlink:href="#DejaVuSans-4d" transform="translate(738.091797 0)"/>
      <use xlink:href="#DejaVuSans-29" transform="translate(824.371094 0)"/>
     </g>
    </g>
    <g id="line2d_26">
     <path d="M 335.876684 127.472267 
L 344.206684 127.472267 
L 352.536684 127.472267 
" style="fill: none; stroke: #e377c2; stroke-width: 1.5; stroke-linecap: square"/>
    </g>
    <g id="text_21">
     <!-- NT-Human-Ref. (500M) -->
     <g transform="translate(359.200684 130.387767) scale(0.0833 -0.0833)">
      <defs>
       <path id="DejaVuSans-75" d="M 544 1381 
L 544 3500 
L 1119 3500 
L 1119 1403 
Q 1119 906 1312 657 
Q 1506 409 1894 409 
Q 2359 409 2629 706 
Q 2900 1003 2900 1516 
L 2900 3500 
L 3475 3500 
L 3475 0 
L 2900 0 
L 2900 538 
Q 2691 219 2414 64 
Q 2138 -91 1772 -91 
Q 1169 -91 856 284 
Q 544 659 544 1381 
z
M 1991 3584 
L 1991 3584 
z
" transform="scale(0.015625)"/>
       <path id="DejaVuSans-52" d="M 2841 2188 
Q 3044 2119 3236 1894 
Q 3428 1669 3622 1275 
L 4263 0 
L 3584 0 
L 2988 1197 
Q 2756 1666 2539 1819 
Q 2322 1972 1947 1972 
L 1259 1972 
L 1259 0 
L 628 0 
L 628 4666 
L 2053 4666 
Q 2853 4666 3247 4331 
Q 3641 3997 3641 3322 
Q 3641 2881 3436 2590 
Q 3231 2300 2841 2188 
z
M 1259 4147 
L 1259 2491 
L 2053 2491 
Q 2509 2491 2742 2702 
Q 2975 2913 2975 3322 
Q 2975 3731 2742 3939 
Q 2509 4147 2053 4147 
L 1259 4147 
z
" transform="scale(0.015625)"/>
       <path id="DejaVuSans-66" d="M 2375 4863 
L 2375 4384 
L 1825 4384 
Q 1516 4384 1395 4259 
Q 1275 4134 1275 3809 
L 1275 3500 
L 2222 3500 
L 2222 3053 
L 1275 3053 
L 1275 0 
L 697 0 
L 697 3053 
L 147 3053 
L 147 3500 
L 697 3500 
L 697 3744 
Q 697 4328 969 4595 
Q 1241 4863 1831 4863 
L 2375 4863 
z
" transform="scale(0.015625)"/>
      </defs>
      <use xlink:href="#DejaVuSans-4e"/>
      <use xlink:href="#DejaVuSans-54" transform="translate(74.804688 0)"/>
      <use xlink:href="#DejaVuSans-2d" transform="translate(126.763672 0)"/>
      <use xlink:href="#DejaVuSans-48" transform="translate(162.847656 0)"/>
      <use xlink:href="#DejaVuSans-75" transform="translate(238.042969 0)"/>
      <use xlink:href="#DejaVuSans-6d" transform="translate(301.421875 0)"/>
      <use xlink:href="#DejaVuSans-61" transform="translate(398.833984 0)"/>
      <use xlink:href="#DejaVuSans-6e" transform="translate(460.113281 0)"/>
      <use xlink:href="#DejaVuSans-2d" transform="translate(523.492188 0)"/>
      <use xlink:href="#DejaVuSans-52" transform="translate(559.576172 0)"/>
      <use xlink:href="#DejaVuSans-65" transform="translate(624.558594 0)"/>
      <use xlink:href="#DejaVuSans-66" transform="translate(686.082031 0)"/>
      <use xlink:href="#DejaVuSans-2e" transform="translate(714.037109 0)"/>
      <use xlink:href="#DejaVuSans-20" transform="translate(745.824219 0)"/>
      <use xlink:href="#DejaVuSans-28" transform="translate(777.611328 0)"/>
      <use xlink:href="#DejaVuSans-35" transform="translate(816.625 0)"/>
      <use xlink:href="#DejaVuSans-30" transform="translate(880.248047 0)"/>
      <use xlink:href="#DejaVuSans-30" transform="translate(943.871094 0)"/>
      <use xlink:href="#DejaVuSans-4d" transform="translate(1007.494141 0)"/>
      <use xlink:href="#DejaVuSans-29" transform="translate(1093.773438 0)"/>
     </g>
    </g>
    <g id="line2d_27">
     <path d="M 335.876684 139.699145 
L 344.206684 139.699145 
L 352.536684 139.699145 
" style="fill: none; stroke: #7f7f7f; stroke-width: 1.5; stroke-linecap: square"/>
    </g>
    <g id="text_22">
     <!-- NT-MS V2 (500M) -->
     <g transform="translate(359.200684 142.614645) scale(0.0833 -0.0833)">
      <use xlink:href="#DejaVuSans-4e"/>
      <use xlink:href="#DejaVuSans-54" transform="translate(74.804688 0)"/>
      <use xlink:href="#DejaVuSans-2d" transform="translate(126.763672 0)"/>
      <use xlink:href="#DejaVuSans-4d" transform="translate(162.847656 0)"/>
      <use xlink:href="#DejaVuSans-53" transform="translate(249.126953 0)"/>
      <use xlink:href="#DejaVuSans-20" transform="translate(312.603516 0)"/>
      <use xlink:href="#DejaVuSans-56" transform="translate(344.390625 0)"/>
      <use xlink:href="#DejaVuSans-32" transform="translate(412.798828 0)"/>
      <use xlink:href="#DejaVuSans-20" transform="translate(476.421875 0)"/>
      <use xlink:href="#DejaVuSans-28" transform="translate(508.208984 0)"/>
      <use xlink:href="#DejaVuSans-35" transform="translate(547.222656 0)"/>
      <use xlink:href="#DejaVuSans-30" transform="translate(610.845703 0)"/>
      <use xlink:href="#DejaVuSans-30" transform="translate(674.46875 0)"/>
      <use xlink:href="#DejaVuSans-4d" transform="translate(738.091797 0)"/>
      <use xlink:href="#DejaVuSans-29" transform="translate(824.371094 0)"/>
     </g>
    </g>
   </g>
  </g>
 </g>
 <defs>
  <clipPath id="p8c31891524">
   <rect x="72" y="43.2" width="446.4" height="277.2"/>
  </clipPath>
 </defs>
</svg>
