<?xml version="1.0" encoding="utf-8" standalone="no"?>
<!DOCTYPE svg PUBLIC "-//W3C//DTD SVG 1.1//EN"
  "http://www.w3.org/Graphics/SVG/1.1/DTD/svg11.dtd">
<svg xmlns:xlink="http://www.w3.org/1999/xlink" width="576pt" height="360pt" viewBox="0 0 576 360" xmlns="http://www.w3.org/2000/svg" version="1.1">
 <metadata>
  <rdf:RDF xmlns:dc="http://purl.org/dc/elements/1.1/" xmlns:cc="http://creativecommons.org/ns#" xmlns:rdf="http://www.w3.org/1999/02/22-rdf-syntax-ns#">
   <cc:Work>
    <dc:type rdf:resource="http://purl.org/dc/dcmitype/StillImage"/>
    <dc:date>2025-01-07T03:55:02.801857</dc:date>
    <dc:format>image/svg+xml</dc:format>
    <dc:creator>
     <cc:Agent>
      <dc:title>Matplotlib v3.10.0, https://matplotlib.org/</dc:title>
     </cc:Agent>
    </dc:creator>
   </cc:Work>
  </rdf:RDF>
 </metadata>
 <defs>
  <style type="text/css">*{stroke-linejoin: round; stroke-linecap: butt}</style>
 </defs>
 <g id="figure_1">
  <g id="patch_1">
   <path d="M 0 360 
L 576 360 
L 576 0 
L 0 0 
z
" style="fill: #ffffff"/>
  </g>
  <g id="axes_1">
   <g id="patch_2">
    <path d="M 72 320.4 
L 518.4 320.4 
L 518.4 43.2 
L 72 43.2 
z
" style="fill: #ffffff"/>
   </g>
   <g id="matplotlib.axis_1">
    <g id="xtick_1">
     <g id="line2d_1">
      <defs>
       <path id="m61d4ef799a" d="M 0 0 
L 0 3.5 
" style="stroke: #000000; stroke-width: 0.8"/>
      </defs>
      <g>
       <use xlink:href="#m61d4ef799a" x="157.672727" y="320.4" style="stroke: #000000; stroke-width: 0.8"/>
      </g>
     </g>
     <g id="text_1">
      <!-- 2000 -->
      <g transform="translate(144.947727 334.998438) scale(0.1 -0.1)">
       <defs>
        <path id="DejaVuSans-32" d="M 1228 531 
L 3431 531 
L 3431 0 
L 469 0 
L 469 531 
Q 828 903 1448 1529 
Q 2069 2156 2228 2338 
Q 2531 2678 2651 2914 
Q 2772 3150 2772 3378 
Q 2772 3750 2511 3984 
Q 2250 4219 1831 4219 
Q 1534 4219 1204 4116 
Q 875 4013 500 3803 
L 500 4441 
Q 881 4594 1212 4672 
Q 1544 4750 1819 4750 
Q 2544 4750 2975 4387 
Q 3406 4025 3406 3419 
Q 3406 3131 3298 2873 
Q 3191 2616 2906 2266 
Q 2828 2175 2409 1742 
Q 1991 1309 1228 531 
z
" transform="scale(0.015625)"/>
        <path id="DejaVuSans-30" d="M 2034 4250 
Q 1547 4250 1301 3770 
Q 1056 3291 1056 2328 
Q 1056 1369 1301 889 
Q 1547 409 2034 409 
Q 2525 409 2770 889 
Q 3016 1369 3016 2328 
Q 3016 3291 2770 3770 
Q 2525 4250 2034 4250 
z
M 2034 4750 
Q 2819 4750 3233 4129 
Q 3647 3509 3647 2328 
Q 3647 1150 3233 529 
Q 2819 -91 2034 -91 
Q 1250 -91 836 529 
Q 422 1150 422 2328 
Q 422 3509 836 4129 
Q 1250 4750 2034 4750 
z
" transform="scale(0.015625)"/>
       </defs>
       <use xlink:href="#DejaVuSans-32"/>
       <use xlink:href="#DejaVuSans-30" transform="translate(63.623047 0)"/>
       <use xlink:href="#DejaVuSans-30" transform="translate(127.246094 0)"/>
       <use xlink:href="#DejaVuSans-30" transform="translate(190.869141 0)"/>
      </g>
     </g>
    </g>
    <g id="xtick_2">
     <g id="line2d_2">
      <g>
       <use xlink:href="#m61d4ef799a" x="247.854545" y="320.4" style="stroke: #000000; stroke-width: 0.8"/>
      </g>
     </g>
     <g id="text_2">
      <!-- 4000 -->
      <g transform="translate(235.129545 334.998438) scale(0.1 -0.1)">
       <defs>
        <path id="DejaVuSans-34" d="M 2419 4116 
L 825 1625 
L 2419 1625 
L 2419 4116 
z
M 2253 4666 
L 3047 4666 
L 3047 1625 
L 3713 1625 
L 3713 1100 
L 3047 1100 
L 3047 0 
L 2419 0 
L 2419 1100 
L 313 1100 
L 313 1709 
L 2253 4666 
z
" transform="scale(0.015625)"/>
       </defs>
       <use xlink:href="#DejaVuSans-34"/>
       <use xlink:href="#DejaVuSans-30" transform="translate(63.623047 0)"/>
       <use xlink:href="#DejaVuSans-30" transform="translate(127.246094 0)"/>
       <use xlink:href="#DejaVuSans-30" transform="translate(190.869141 0)"/>
      </g>
     </g>
    </g>
    <g id="xtick_3">
     <g id="line2d_3">
      <g>
       <use xlink:href="#m61d4ef799a" x="338.036364" y="320.4" style="stroke: #000000; stroke-width: 0.8"/>
      </g>
     </g>
     <g id="text_3">
      <!-- 6000 -->
      <g transform="translate(325.311364 334.998438) scale(0.1 -0.1)">
       <defs>
        <path id="DejaVuSans-36" d="M 2113 2584 
Q 1688 2584 1439 2293 
Q 1191 2003 1191 1497 
Q 1191 994 1439 701 
Q 1688 409 2113 409 
Q 2538 409 2786 701 
Q 3034 994 3034 1497 
Q 3034 2003 2786 2293 
Q 2538 2584 2113 2584 
z
M 3366 4563 
L 3366 3988 
Q 3128 4100 2886 4159 
Q 2644 4219 2406 4219 
Q 1781 4219 1451 3797 
Q 1122 3375 1075 2522 
Q 1259 2794 1537 2939 
Q 1816 3084 2150 3084 
Q 2853 3084 3261 2657 
Q 3669 2231 3669 1497 
Q 3669 778 3244 343 
Q 2819 -91 2113 -91 
Q 1303 -91 875 529 
Q 447 1150 447 2328 
Q 447 3434 972 4092 
Q 1497 4750 2381 4750 
Q 2619 4750 2861 4703 
Q 3103 4656 3366 4563 
z
" transform="scale(0.015625)"/>
       </defs>
       <use xlink:href="#DejaVuSans-36"/>
       <use xlink:href="#DejaVuSans-30" transform="translate(63.623047 0)"/>
       <use xlink:href="#DejaVuSans-30" transform="translate(127.246094 0)"/>
       <use xlink:href="#DejaVuSans-30" transform="translate(190.869141 0)"/>
      </g>
     </g>
    </g>
    <g id="xtick_4">
     <g id="line2d_4">
      <g>
       <use xlink:href="#m61d4ef799a" x="428.218182" y="320.4" style="stroke: #000000; stroke-width: 0.8"/>
      </g>
     </g>
     <g id="text_4">
      <!-- 8000 -->
      <g transform="translate(415.493182 334.998438) scale(0.1 -0.1)">
       <defs>
        <path id="DejaVuSans-38" d="M 2034 2216 
Q 1584 2216 1326 1975 
Q 1069 1734 1069 1313 
Q 1069 891 1326 650 
Q 1584 409 2034 409 
Q 2484 409 2743 651 
Q 3003 894 3003 1313 
Q 3003 1734 2745 1975 
Q 2488 2216 2034 2216 
z
M 1403 2484 
Q 997 2584 770 2862 
Q 544 3141 544 3541 
Q 544 4100 942 4425 
Q 1341 4750 2034 4750 
Q 2731 4750 3128 4425 
Q 3525 4100 3525 3541 
Q 3525 3141 3298 2862 
Q 3072 2584 2669 2484 
Q 3125 2378 3379 2068 
Q 3634 1759 3634 1313 
Q 3634 634 3220 271 
Q 2806 -91 2034 -91 
Q 1263 -91 848 271 
Q 434 634 434 1313 
Q 434 1759 690 2068 
Q 947 2378 1403 2484 
z
M 1172 3481 
Q 1172 3119 1398 2916 
Q 1625 2713 2034 2713 
Q 2441 2713 2670 2916 
Q 2900 3119 2900 3481 
Q 2900 3844 2670 4047 
Q 2441 4250 2034 4250 
Q 1625 4250 1398 4047 
Q 1172 3844 1172 3481 
z
" transform="scale(0.015625)"/>
       </defs>
       <use xlink:href="#DejaVuSans-38"/>
       <use xlink:href="#DejaVuSans-30" transform="translate(63.623047 0)"/>
       <use xlink:href="#DejaVuSans-30" transform="translate(127.246094 0)"/>
       <use xlink:href="#DejaVuSans-30" transform="translate(190.869141 0)"/>
      </g>
     </g>
    </g>
    <g id="xtick_5">
     <g id="line2d_5">
      <g>
       <use xlink:href="#m61d4ef799a" x="518.4" y="320.4" style="stroke: #000000; stroke-width: 0.8"/>
      </g>
     </g>
     <g id="text_5">
      <!-- 10000 -->
      <g transform="translate(502.49375 334.998438) scale(0.1 -0.1)">
       <defs>
        <path id="DejaVuSans-31" d="M 794 531 
L 1825 531 
L 1825 4091 
L 703 3866 
L 703 4441 
L 1819 4666 
L 2450 4666 
L 2450 531 
L 3481 531 
L 3481 0 
L 794 0 
L 794 531 
z
" transform="scale(0.015625)"/>
       </defs>
       <use xlink:href="#DejaVuSans-31"/>
       <use xlink:href="#DejaVuSans-30" transform="translate(63.623047 0)"/>
       <use xlink:href="#DejaVuSans-30" transform="translate(127.246094 0)"/>
       <use xlink:href="#DejaVuSans-30" transform="translate(190.869141 0)"/>
       <use xlink:href="#DejaVuSans-30" transform="translate(254.492188 0)"/>
      </g>
     </g>
    </g>
    <g id="text_6">
     <!-- Training steps -->
     <g transform="translate(260.464844 348.676562) scale(0.1 -0.1)">
      <defs>
       <path id="DejaVuSans-54" d="M -19 4666 
L 3928 4666 
L 3928 4134 
L 2272 4134 
L 2272 0 
L 1638 0 
L 1638 4134 
L -19 4134 
L -19 4666 
z
" transform="scale(0.015625)"/>
       <path id="DejaVuSans-72" d="M 2631 2963 
Q 2534 3019 2420 3045 
Q 2306 3072 2169 3072 
Q 1681 3072 1420 2755 
Q 1159 2438 1159 1844 
L 1159 0 
L 581 0 
L 581 3500 
L 1159 3500 
L 1159 2956 
Q 1341 3275 1631 3429 
Q 1922 3584 2338 3584 
Q 2397 3584 2469 3576 
Q 2541 3569 2628 3553 
L 2631 2963 
z
" transform="scale(0.015625)"/>
       <path id="DejaVuSans-61" d="M 2194 1759 
Q 1497 1759 1228 1600 
Q 959 1441 959 1056 
Q 959 750 1161 570 
Q 1363 391 1709 391 
Q 2188 391 2477 730 
Q 2766 1069 2766 1631 
L 2766 1759 
L 2194 1759 
z
M 3341 1997 
L 3341 0 
L 2766 0 
L 2766 531 
Q 2569 213 2275 61 
Q 1981 -91 1556 -91 
Q 1019 -91 701 211 
Q 384 513 384 1019 
Q 384 1609 779 1909 
Q 1175 2209 1959 2209 
L 2766 2209 
L 2766 2266 
Q 2766 2663 2505 2880 
Q 2244 3097 1772 3097 
Q 1472 3097 1187 3025 
Q 903 2953 641 2809 
L 641 3341 
Q 956 3463 1253 3523 
Q 1550 3584 1831 3584 
Q 2591 3584 2966 3190 
Q 3341 2797 3341 1997 
z
" transform="scale(0.015625)"/>
       <path id="DejaVuSans-69" d="M 603 3500 
L 1178 3500 
L 1178 0 
L 603 0 
L 603 3500 
z
M 603 4863 
L 1178 4863 
L 1178 4134 
L 603 4134 
L 603 4863 
z
" transform="scale(0.015625)"/>
       <path id="DejaVuSans-6e" d="M 3513 2113 
L 3513 0 
L 2938 0 
L 2938 2094 
Q 2938 2591 2744 2837 
Q 2550 3084 2163 3084 
Q 1697 3084 1428 2787 
Q 1159 2491 1159 1978 
L 1159 0 
L 581 0 
L 581 3500 
L 1159 3500 
L 1159 2956 
Q 1366 3272 1645 3428 
Q 1925 3584 2291 3584 
Q 2894 3584 3203 3211 
Q 3513 2838 3513 2113 
z
" transform="scale(0.015625)"/>
       <path id="DejaVuSans-67" d="M 2906 1791 
Q 2906 2416 2648 2759 
Q 2391 3103 1925 3103 
Q 1463 3103 1205 2759 
Q 947 2416 947 1791 
Q 947 1169 1205 825 
Q 1463 481 1925 481 
Q 2391 481 2648 825 
Q 2906 1169 2906 1791 
z
M 3481 434 
Q 3481 -459 3084 -895 
Q 2688 -1331 1869 -1331 
Q 1566 -1331 1297 -1286 
Q 1028 -1241 775 -1147 
L 775 -588 
Q 1028 -725 1275 -790 
Q 1522 -856 1778 -856 
Q 2344 -856 2625 -561 
Q 2906 -266 2906 331 
L 2906 616 
Q 2728 306 2450 153 
Q 2172 0 1784 0 
Q 1141 0 747 490 
Q 353 981 353 1791 
Q 353 2603 747 3093 
Q 1141 3584 1784 3584 
Q 2172 3584 2450 3431 
Q 2728 3278 2906 2969 
L 2906 3500 
L 3481 3500 
L 3481 434 
z
" transform="scale(0.015625)"/>
       <path id="DejaVuSans-20" transform="scale(0.015625)"/>
       <path id="DejaVuSans-73" d="M 2834 3397 
L 2834 2853 
Q 2591 2978 2328 3040 
Q 2066 3103 1784 3103 
Q 1356 3103 1142 2972 
Q 928 2841 928 2578 
Q 928 2378 1081 2264 
Q 1234 2150 1697 2047 
L 1894 2003 
Q 2506 1872 2764 1633 
Q 3022 1394 3022 966 
Q 3022 478 2636 193 
Q 2250 -91 1575 -91 
Q 1294 -91 989 -36 
Q 684 19 347 128 
L 347 722 
Q 666 556 975 473 
Q 1284 391 1588 391 
Q 1994 391 2212 530 
Q 2431 669 2431 922 
Q 2431 1156 2273 1281 
Q 2116 1406 1581 1522 
L 1381 1569 
Q 847 1681 609 1914 
Q 372 2147 372 2553 
Q 372 3047 722 3315 
Q 1072 3584 1716 3584 
Q 2034 3584 2315 3537 
Q 2597 3491 2834 3397 
z
" transform="scale(0.015625)"/>
       <path id="DejaVuSans-74" d="M 1172 4494 
L 1172 3500 
L 2356 3500 
L 2356 3053 
L 1172 3053 
L 1172 1153 
Q 1172 725 1289 603 
Q 1406 481 1766 481 
L 2356 481 
L 2356 0 
L 1766 0 
Q 1100 0 847 248 
Q 594 497 594 1153 
L 594 3053 
L 172 3053 
L 172 3500 
L 594 3500 
L 594 4494 
L 1172 4494 
z
" transform="scale(0.015625)"/>
       <path id="DejaVuSans-65" d="M 3597 1894 
L 3597 1613 
L 953 1613 
Q 991 1019 1311 708 
Q 1631 397 2203 397 
Q 2534 397 2845 478 
Q 3156 559 3463 722 
L 3463 178 
Q 3153 47 2828 -22 
Q 2503 -91 2169 -91 
Q 1331 -91 842 396 
Q 353 884 353 1716 
Q 353 2575 817 3079 
Q 1281 3584 2069 3584 
Q 2775 3584 3186 3129 
Q 3597 2675 3597 1894 
z
M 3022 2063 
Q 3016 2534 2758 2815 
Q 2500 3097 2075 3097 
Q 1594 3097 1305 2825 
Q 1016 2553 972 2059 
L 3022 2063 
z
" transform="scale(0.015625)"/>
       <path id="DejaVuSans-70" d="M 1159 525 
L 1159 -1331 
L 581 -1331 
L 581 3500 
L 1159 3500 
L 1159 2969 
Q 1341 3281 1617 3432 
Q 1894 3584 2278 3584 
Q 2916 3584 3314 3078 
Q 3713 2572 3713 1747 
Q 3713 922 3314 415 
Q 2916 -91 2278 -91 
Q 1894 -91 1617 61 
Q 1341 213 1159 525 
z
M 3116 1747 
Q 3116 2381 2855 2742 
Q 2594 3103 2138 3103 
Q 1681 3103 1420 2742 
Q 1159 2381 1159 1747 
Q 1159 1113 1420 752 
Q 1681 391 2138 391 
Q 2594 391 2855 752 
Q 3116 1113 3116 1747 
z
" transform="scale(0.015625)"/>
      </defs>
      <use xlink:href="#DejaVuSans-54"/>
      <use xlink:href="#DejaVuSans-72" transform="translate(46.333984 0)"/>
      <use xlink:href="#DejaVuSans-61" transform="translate(87.447266 0)"/>
      <use xlink:href="#DejaVuSans-69" transform="translate(148.726562 0)"/>
      <use xlink:href="#DejaVuSans-6e" transform="translate(176.509766 0)"/>
      <use xlink:href="#DejaVuSans-69" transform="translate(239.888672 0)"/>
      <use xlink:href="#DejaVuSans-6e" transform="translate(267.671875 0)"/>
      <use xlink:href="#DejaVuSans-67" transform="translate(331.050781 0)"/>
      <use xlink:href="#DejaVuSans-20" transform="translate(394.527344 0)"/>
      <use xlink:href="#DejaVuSans-73" transform="translate(426.314453 0)"/>
      <use xlink:href="#DejaVuSans-74" transform="translate(478.414062 0)"/>
      <use xlink:href="#DejaVuSans-65" transform="translate(517.623047 0)"/>
      <use xlink:href="#DejaVuSans-70" transform="translate(579.146484 0)"/>
      <use xlink:href="#DejaVuSans-73" transform="translate(642.623047 0)"/>
     </g>
    </g>
   </g>
   <g id="matplotlib.axis_2">
    <g id="ytick_1">
     <g id="line2d_6">
      <defs>
       <path id="m5d9a2d549f" d="M 0 0 
L -3.5 0 
" style="stroke: #000000; stroke-width: 0.8"/>
      </defs>
      <g>
       <use xlink:href="#m5d9a2d549f" x="72" y="298.019414" style="stroke: #000000; stroke-width: 0.8"/>
      </g>
     </g>
     <g id="text_7">
      <!-- 0.2 -->
      <g transform="translate(49.096875 301.818633) scale(0.1 -0.1)">
       <defs>
        <path id="DejaVuSans-2e" d="M 684 794 
L 1344 794 
L 1344 0 
L 684 0 
L 684 794 
z
" transform="scale(0.015625)"/>
       </defs>
       <use xlink:href="#DejaVuSans-30"/>
       <use xlink:href="#DejaVuSans-2e" transform="translate(63.623047 0)"/>
       <use xlink:href="#DejaVuSans-32" transform="translate(95.410156 0)"/>
      </g>
     </g>
    </g>
    <g id="ytick_2">
     <g id="line2d_7">
      <g>
       <use xlink:href="#m5d9a2d549f" x="72" y="256.663871" style="stroke: #000000; stroke-width: 0.8"/>
      </g>
     </g>
     <g id="text_8">
      <!-- 0.4 -->
      <g transform="translate(49.096875 260.46309) scale(0.1 -0.1)">
       <use xlink:href="#DejaVuSans-30"/>
       <use xlink:href="#DejaVuSans-2e" transform="translate(63.623047 0)"/>
       <use xlink:href="#DejaVuSans-34" transform="translate(95.410156 0)"/>
      </g>
     </g>
    </g>
    <g id="ytick_3">
     <g id="line2d_8">
      <g>
       <use xlink:href="#m5d9a2d549f" x="72" y="215.308329" style="stroke: #000000; stroke-width: 0.8"/>
      </g>
     </g>
     <g id="text_9">
      <!-- 0.6 -->
      <g transform="translate(49.096875 219.107547) scale(0.1 -0.1)">
       <use xlink:href="#DejaVuSans-30"/>
       <use xlink:href="#DejaVuSans-2e" transform="translate(63.623047 0)"/>
       <use xlink:href="#DejaVuSans-36" transform="translate(95.410156 0)"/>
      </g>
     </g>
    </g>
    <g id="ytick_4">
     <g id="line2d_9">
      <g>
       <use xlink:href="#m5d9a2d549f" x="72" y="173.952786" style="stroke: #000000; stroke-width: 0.8"/>
      </g>
     </g>
     <g id="text_10">
      <!-- 0.8 -->
      <g transform="translate(49.096875 177.752005) scale(0.1 -0.1)">
       <use xlink:href="#DejaVuSans-30"/>
       <use xlink:href="#DejaVuSans-2e" transform="translate(63.623047 0)"/>
       <use xlink:href="#DejaVuSans-38" transform="translate(95.410156 0)"/>
      </g>
     </g>
    </g>
    <g id="ytick_5">
     <g id="line2d_10">
      <g>
       <use xlink:href="#m5d9a2d549f" x="72" y="132.597243" style="stroke: #000000; stroke-width: 0.8"/>
      </g>
     </g>
     <g id="text_11">
      <!-- 1.0 -->
      <g transform="translate(49.096875 136.396462) scale(0.1 -0.1)">
       <use xlink:href="#DejaVuSans-31"/>
       <use xlink:href="#DejaVuSans-2e" transform="translate(63.623047 0)"/>
       <use xlink:href="#DejaVuSans-30" transform="translate(95.410156 0)"/>
      </g>
     </g>
    </g>
    <g id="ytick_6">
     <g id="line2d_11">
      <g>
       <use xlink:href="#m5d9a2d549f" x="72" y="91.2417" style="stroke: #000000; stroke-width: 0.8"/>
      </g>
     </g>
     <g id="text_12">
      <!-- 1.2 -->
      <g transform="translate(49.096875 95.040919) scale(0.1 -0.1)">
       <use xlink:href="#DejaVuSans-31"/>
       <use xlink:href="#DejaVuSans-2e" transform="translate(63.623047 0)"/>
       <use xlink:href="#DejaVuSans-32" transform="translate(95.410156 0)"/>
      </g>
     </g>
    </g>
    <g id="ytick_7">
     <g id="line2d_12">
      <g>
       <use xlink:href="#m5d9a2d549f" x="72" y="49.886157" style="stroke: #000000; stroke-width: 0.8"/>
      </g>
     </g>
     <g id="text_13">
      <!-- 1.4 -->
      <g transform="translate(49.096875 53.685376) scale(0.1 -0.1)">
       <use xlink:href="#DejaVuSans-31"/>
       <use xlink:href="#DejaVuSans-2e" transform="translate(63.623047 0)"/>
       <use xlink:href="#DejaVuSans-34" transform="translate(95.410156 0)"/>
      </g>
     </g>
    </g>
    <g id="text_14">
     <!-- Loss -->
     <g transform="translate(43.017187 192.767187) rotate(-90) scale(0.1 -0.1)">
      <defs>
       <path id="DejaVuSans-4c" d="M 628 4666 
L 1259 4666 
L 1259 531 
L 3531 531 
L 3531 0 
L 628 0 
L 628 4666 
z
" transform="scale(0.015625)"/>
       <path id="DejaVuSans-6f" d="M 1959 3097 
Q 1497 3097 1228 2736 
Q 959 2375 959 1747 
Q 959 1119 1226 758 
Q 1494 397 1959 397 
Q 2419 397 2687 759 
Q 2956 1122 2956 1747 
Q 2956 2369 2687 2733 
Q 2419 3097 1959 3097 
z
M 1959 3584 
Q 2709 3584 3137 3096 
Q 3566 2609 3566 1747 
Q 3566 888 3137 398 
Q 2709 -91 1959 -91 
Q 1206 -91 779 398 
Q 353 888 353 1747 
Q 353 2609 779 3096 
Q 1206 3584 1959 3584 
z
" transform="scale(0.015625)"/>
      </defs>
      <use xlink:href="#DejaVuSans-4c"/>
      <use xlink:href="#DejaVuSans-6f" transform="translate(53.962891 0)"/>
      <use xlink:href="#DejaVuSans-73" transform="translate(115.144531 0)"/>
      <use xlink:href="#DejaVuSans-73" transform="translate(167.244141 0)"/>
     </g>
    </g>
   </g>
   <g id="line2d_13">
    <path d="M 72 97.899943 
L 76.509091 127.4278 
L 81.018182 159.43699 
L 85.527273 166.074555 
L 90.036364 196.987823 
L 94.545455 206.458242 
L 99.054545 222.917748 
L 103.563636 209.704652 
L 108.072727 208.960253 
L 112.581818 212.59954 
L 117.090909 220.746582 
L 121.6 218.161861 
L 126.109091 222.338771 
L 130.618182 217.89305 
L 135.127273 230.444457 
L 139.636364 225.957381 
L 144.145455 227.425503 
L 148.654545 225.233659 
L 153.163636 238.818955 
L 157.672727 229.720735 
L 162.181818 225.31637 
L 166.690909 233.628834 
L 171.2 232.843079 
L 175.709091 231.085468 
L 180.218182 239.253188 
L 184.727273 239.914877 
L 189.236364 237.991844 
L 193.745455 230.795979 
L 198.254545 235.903389 
L 202.763636 240.53521 
L 207.272727 241.651809 
L 211.781818 246.138886 
L 216.290909 236.606433 
L 220.8 241.73452 
L 225.309091 239.439288 
L 229.818182 247.152096 
L 234.327273 233.360023 
L 238.836364 247.152096 
L 243.345455 244.236531 
L 247.854545 244.029753 
L 252.363636 247.40023 
L 256.872727 239.273866 
L 261.381818 246.366341 
L 265.890909 245.683975 
L 270.4 247.007352 
L 274.909091 247.358874 
L 279.418182 238.177944 
L 283.927273 245.249742 
L 288.436364 258.06996 
L 292.945455 249.095807 
L 297.454545 246.46973 
L 301.963636 248.806318 
L 306.472727 263.839058 
L 310.981818 251.783917 
L 315.490909 258.44216 
L 320 248.041241 
L 324.509091 252.40425 
L 329.018182 272.151522 
L 333.527273 259.682826 
L 338.036364 258.607582 
L 342.545455 257.987249 
L 347.054545 259.021137 
L 351.563636 263.859736 
L 356.072727 257.201493 
L 360.581818 256.829294 
L 365.090909 254.947616 
L 369.6 266.423779 
L 374.109091 269.876967 
L 378.618182 263.528891 
L 383.127273 260.923492 
L 387.636364 260.861459 
L 392.145455 271.655256 
L 396.654545 267.829868 
L 401.163636 270.455945 
L 405.672727 275.356577 
L 410.181818 260.57197 
L 414.690909 270.952211 
L 419.2 267.333601 
L 423.709091 269.608156 
L 428.218182 274.260655 
L 432.727273 270.559334 
L 437.236364 263.115336 
L 441.745455 274.467433 
L 446.254545 272.006778 
L 450.763636 273.578288 
L 455.272727 265.369213 
L 459.781818 279.264675 
L 464.290909 266.961401 
L 468.8 261.150948 
L 473.309091 274.798277 
L 477.818182 280.195175 
L 482.327273 267.974612 
L 486.836364 266.258357 
L 491.345455 281.683975 
L 495.854545 282.056175 
L 500.363636 271.407122 
L 504.872727 273.971166 
L 509.381818 273.309477 
L 513.890909 285.674785 
L 518.4 268.326134 
" clip-path="url(#p09aa80e4cd)" style="fill: none; stroke: #1f77b4; stroke-width: 1.5; stroke-linecap: square"/>
   </g>
   <g id="line2d_14">
    <path d="M 72 55.8 
L 76.509091 128.503044 
L 81.018182 161.029179 
L 85.527273 187.269271 
L 90.036364 204.038943 
L 94.545455 206.561631 
L 99.054545 223.972315 
L 103.563636 205.879265 
L 108.072727 206.66502 
L 112.581818 218.099828 
L 117.090909 224.737392 
L 121.6 215.287651 
L 126.109091 229.183113 
L 130.618182 219.629983 
L 135.127273 234.249167 
L 139.636364 221.69776 
L 144.145455 224.489259 
L 148.654545 231.478346 
L 153.163636 241.217576 
L 157.672727 234.125101 
L 162.181818 232.781045 
L 166.690909 241.072832 
L 171.2 239.914877 
L 175.709091 239.708099 
L 180.218182 245.063642 
L 184.727273 236.027455 
L 189.236364 239.542677 
L 193.745455 233.504767 
L 198.254545 237.371511 
L 202.763636 251.080873 
L 207.272727 248.082596 
L 211.781818 248.537507 
L 216.290909 242.272142 
L 220.8 249.426651 
L 225.309091 247.58633 
L 229.818182 248.702929 
L 234.327273 243.243998 
L 238.836364 250.046984 
L 243.345455 248.951063 
L 247.854545 242.789087 
L 252.363636 240.431821 
L 256.872727 247.793107 
L 261.381818 253.810339 
L 265.890909 253.458817 
L 270.4 250.253762 
L 274.909091 253.272717 
L 279.418182 244.712119 
L 283.927273 257.222171 
L 288.436364 257.387593 
L 292.945455 252.900517 
L 297.454545 250.812062 
L 301.963636 244.174497 
L 306.472727 260.716715 
L 310.981818 253.417461 
L 315.490909 251.184262 
L 320 262.019414 
L 324.509091 267.312924 
L 329.018182 269.504767 
L 333.527273 255.278461 
L 338.036364 261.585181 
L 342.545455 256.519127 
L 347.054545 263.136014 
L 351.563636 261.626536 
L 356.072727 267.767835 
L 360.581818 265.803446 
L 365.090909 255.257783 
L 369.6 269.091212 
L 374.109091 271.8 
L 378.618182 254.306605 
L 383.127273 255.361172 
L 387.636364 261.419759 
L 392.145455 264.997013 
L 396.654545 266.05158 
L 401.163636 262.474325 
L 405.672727 271.737967 
L 410.181818 259.682826 
L 414.690909 268.18139 
L 419.2 260.447904 
L 423.709091 256.188283 
L 428.218182 272.523722 
L 432.727273 266.423779 
L 437.236364 266.320391 
L 441.745455 276.783343 
L 446.254545 270.021712 
L 450.763636 268.098679 
L 455.272727 263.81838 
L 459.781818 280.319242 
L 464.290909 259.786215 
L 468.8 260.034348 
L 473.309091 274.984377 
L 477.818182 274.67421 
L 482.327273 274.157266 
L 486.836364 259.434693 
L 491.345455 278.189431 
L 495.854545 274.343366 
L 500.363636 265.286502 
L 504.872727 281.332453 
L 509.381818 270.063067 
L 513.890909 283.58633 
L 518.4 267.829868 
" clip-path="url(#p09aa80e4cd)" style="fill: none; stroke: #ff7f0e; stroke-width: 1.5; stroke-linecap: square"/>
   </g>
   <g id="line2d_15">
    <path d="M 72 142.812062 
L 76.509091 164.813211 
L 81.018182 195.188857 
L 85.527273 223.041815 
L 90.036364 238.963699 
L 94.545455 250.563929 
L 99.054545 254.844227 
L 103.563636 247.276163 
L 108.072727 252.838484 
L 112.581818 254.596094 
L 117.090909 255.19575 
L 121.6 263.611603 
L 126.109091 267.499024 
L 130.618182 257.118782 
L 135.127273 268.346812 
L 139.636364 261.088914 
L 144.145455 258.566226 
L 148.654545 250.915451 
L 153.163636 268.574268 
L 157.672727 259.476048 
L 162.181818 270.807467 
L 166.690909 271.2417 
L 171.2 269.939001 
L 175.709091 269.587478 
L 180.218182 279.802298 
L 184.727273 265.555313 
L 189.236364 273.164733 
L 193.745455 276.679954 
L 198.254545 278.189431 
L 202.763636 278.251465 
L 207.272727 276.969443 
L 211.781818 282.366341 
L 216.290909 274.384721 
L 220.8 277.54842 
L 225.309091 277.093509 
L 229.818182 286.315796 
L 234.327273 273.019989 
L 238.836364 280.091786 
L 243.345455 281.559908 
L 247.854545 277.114187 
L 252.363636 278.065365 
L 256.872727 285.90224 
L 261.381818 288.797128 
L 265.890909 291.567949 
L 270.4 280.794831 
L 274.909091 279.347387 
L 279.418182 276.886732 
L 283.927273 283.069385 
L 288.436364 289.582883 
L 292.945455 293.077427 
L 297.454545 284.723607 
L 301.963636 282.035497 
L 306.472727 294.44216 
L 310.981818 290.472028 
L 315.490909 281.518553 
L 320 286.109018 
L 324.509091 292.705227 
L 329.018182 290.141183 
L 333.527273 287.556462 
L 338.036364 300.686847 
L 342.545455 281.497875 
L 347.054545 285.612751 
L 351.563636 289.438139 
L 356.072727 298.350258 
L 360.581818 293.490982 
L 365.090909 278.540953 
L 369.6 292.498449 
L 374.109091 294.318093 
L 378.618182 298.267547 
L 383.127273 292.188283 
L 387.636364 290.347961 
L 392.145455 297.150948 
L 396.654545 293.780471 
L 401.163636 295.579437 
L 405.672727 298.61907 
L 410.181818 292.312349 
L 414.690909 288.797128 
L 419.2 292.270994 
L 423.709091 282.65583 
L 428.218182 296.634003 
L 432.727273 292.808616 
L 437.236364 282.428374 
L 441.745455 299.44618 
L 446.254545 293.821827 
L 450.763636 292.746582 
L 455.272727 291.319816 
L 459.781818 301.389891 
L 464.290909 292.622516 
L 468.8 295.620793 
L 473.309091 289.955083 
L 477.818182 303.395635 
L 482.327273 292.725905 
L 486.836364 292.829294 
L 491.345455 292.684549 
L 495.854545 305.277312 
L 500.363636 293.387593 
L 504.872727 298.122803 
L 509.381818 298.102125 
L 513.890909 300.459391 
L 518.4 298.350258 
" clip-path="url(#p09aa80e4cd)" style="fill: none; stroke: #2ca02c; stroke-width: 1.5; stroke-linecap: square"/>
   </g>
   <g id="line2d_16">
    <path d="M 72 79.724182 
L 76.509091 162.331878 
L 81.018182 204.204365 
L 85.527273 238.053877 
L 90.036364 222.173349 
L 94.545455 242.85112 
L 99.054545 247.648363 
L 103.563636 239.067088 
L 108.072727 245.208386 
L 112.581818 243.140609 
L 117.090909 246.717863 
L 121.6 249.964273 
L 126.109091 253.70695 
L 130.618182 253.14865 
L 135.127273 262.577714 
L 139.636364 240.90741 
L 144.145455 250.625962 
L 148.654545 243.181964 
L 153.163636 251.659851 
L 157.672727 245.022286 
L 162.181818 257.863182 
L 166.690909 258.359449 
L 171.2 263.177369 
L 175.709091 259.041815 
L 180.218182 264.521424 
L 184.727273 243.450775 
L 189.236364 264.045836 
L 193.745455 261.233659 
L 198.254545 269.173923 
L 202.763636 271.737967 
L 207.272727 269.401379 
L 211.781818 275.749454 
L 216.290909 260.696037 
L 220.8 263.466858 
L 225.309091 260.799426 
L 229.818182 269.649512 
L 234.327273 260.716715 
L 238.836364 266.671913 
L 243.345455 263.487536 
L 247.854545 255.113038 
L 252.363636 268.594945 
L 256.872727 286.522573 
L 261.381818 277.217576 
L 265.890909 264.231936 
L 270.4 270.580011 
L 274.909091 270.166456 
L 279.418182 267.43699 
L 283.927273 271.6139 
L 288.436364 264.314647 
L 292.945455 268.264101 
L 297.454545 274.30201 
L 301.963636 273.826422 
L 306.472727 284.310052 
L 310.981818 277.279609 
L 315.490909 272.048133 
L 320 277.899943 
L 324.509091 275.459966 
L 329.018182 293.118782 
L 333.527273 280.112464 
L 338.036364 287.804595 
L 342.545455 270.931534 
L 347.054545 268.078001 
L 351.563636 278.313498 
L 356.072727 282.262952 
L 360.581818 279.657553 
L 365.090909 273.226766 
L 369.6 287.990695 
L 374.109091 281.208386 
L 378.618182 286.667318 
L 383.127273 274.405399 
L 387.636364 280.588053 
L 392.145455 288.176795 
L 396.654545 285.075129 
L 401.163636 281.808041 
L 405.672727 293.801149 
L 410.181818 279.926364 
L 414.690909 274.322688 
L 419.2 285.054451 
L 423.709091 279.760942 
L 428.218182 289.913728 
L 432.727273 280.670764 
L 437.236364 272.048133 
L 441.745455 288.941872 
L 446.254545 293.180816 
L 450.763636 294.359449 
L 455.272727 283.420908 
L 459.781818 293.904538 
L 464.290909 284.185985 
L 468.8 282.056175 
L 473.309091 285.013096 
L 477.818182 294.276738 
L 482.327273 287.329006 
L 486.836364 283.896496 
L 491.345455 284.392763 
L 495.854545 291.547272 
L 500.363636 288.755773 
L 504.872727 291.629983 
L 509.381818 295.64147 
L 513.890909 291.071683 
L 518.4 285.281907 
" clip-path="url(#p09aa80e4cd)" style="fill: none; stroke: #d62728; stroke-width: 1.5; stroke-linecap: square"/>
   </g>
   <g id="line2d_17">
    <path d="M 72 131.273866 
L 76.509091 194.87869 
L 81.018182 235.572545 
L 85.527273 245.890752 
L 90.036364 238.756921 
L 94.545455 249.964273 
L 99.054545 262.908558 
L 103.563636 239.170477 
L 108.072727 263.901091 
L 112.581818 255.257783 
L 117.090909 255.19575 
L 121.6 274.11591 
L 126.109091 263.611603 
L 130.618182 255.857438 
L 135.127273 275.335899 
L 139.636364 265.141758 
L 144.145455 262.991269 
L 148.654545 238.095233 
L 153.163636 270.476623 
L 157.672727 259.579437 
L 162.181818 272.027455 
L 166.690909 266.754624 
L 171.2 268.429523 
L 175.709091 273.061344 
L 180.218182 279.119931 
L 184.727273 276.287076 
L 189.236364 282.28363 
L 193.745455 259.64147 
L 198.254545 280.360597 
L 202.763636 280.815508 
L 207.272727 283.669041 
L 211.781818 280.898219 
L 216.290909 266.899368 
L 220.8 269.67019 
L 225.309091 280.484664 
L 229.818182 282.035497 
L 234.327273 276.100976 
L 238.836364 286.729351 
L 243.345455 287.659851 
L 247.854545 279.657553 
L 252.363636 280.236531 
L 256.872727 291.878116 
L 261.381818 283.855141 
L 265.890909 279.03722 
L 270.4 288.052728 
L 274.909091 271.8 
L 279.418182 274.839632 
L 283.927273 281.146353 
L 288.436364 279.740264 
L 292.945455 279.905686 
L 297.454545 287.246295 
L 301.963636 273.805744 
L 306.472727 294.297415 
L 310.981818 291.402527 
L 315.490909 287.039518 
L 320 285.654107 
L 324.509091 299.404825 
L 329.018182 293.304882 
L 333.527273 285.426651 
L 338.036364 295.889604 
L 342.545455 291.795405 
L 347.054545 283.441585 
L 351.563636 292.849971 
L 356.072727 289.851694 
L 360.581818 287.783917 
L 365.090909 290.554739 
L 369.6 302.775302 
L 374.109091 295.868926 
L 378.618182 301.803446 
L 383.127273 288.321539 
L 387.636364 288.259506 
L 392.145455 300.790235 
L 396.654545 296.75807 
L 401.163636 285.612751 
L 405.672727 299.901091 
L 410.181818 293.263527 
L 414.690909 285.509362 
L 419.2 294.152671 
L 423.709091 290.141183 
L 428.218182 301.844802 
L 432.727273 292.870649 
L 437.236364 279.96772 
L 441.745455 296.964848 
L 446.254545 295.889604 
L 450.763636 291.402527 
L 455.272727 299.963125 
L 459.781818 303.747157 
L 464.290909 289.851694 
L 468.8 294.566226 
L 473.309091 287.76324 
L 477.818182 304.202068 
L 482.327273 295.00046 
L 486.836364 287.142906 
L 491.345455 294.25606 
L 495.854545 302.444457 
L 500.363636 299.487536 
L 504.872727 293.987249 
L 509.381818 302.030902 
L 513.890909 303.602412 
L 518.4 299.136014 
" clip-path="url(#p09aa80e4cd)" style="fill: none; stroke: #9467bd; stroke-width: 1.5; stroke-linecap: square"/>
   </g>
   <g id="line2d_18">
    <path d="M 72 148.974038 
L 76.509091 216.755773 
L 81.018182 219.795405 
L 85.527273 242.47892 
L 90.036364 229.369213 
L 94.545455 245.373808 
L 99.054545 262.102125 
L 103.563636 249.964273 
L 108.072727 254.017117 
L 112.581818 253.024584 
L 117.090909 249.674785 
L 121.6 267.126824 
L 126.109091 267.933257 
L 130.618182 263.425503 
L 135.127273 273.536933 
L 139.636364 268.615623 
L 144.145455 268.55359 
L 148.654545 263.404825 
L 153.163636 265.30718 
L 157.672727 262.102125 
L 162.181818 279.760942 
L 166.690909 267.581735 
L 171.2 282.221597 
L 175.709091 271.965422 
L 180.218182 275.294543 
L 184.727273 270.745434 
L 189.236364 282.180241 
L 193.745455 264.107869 
L 198.254545 285.054451 
L 202.763636 278.10672 
L 207.272727 283.172774 
L 211.781818 286.026307 
L 216.290909 274.839632 
L 220.8 279.078576 
L 225.309091 280.381275 
L 229.818182 283.358874 
L 234.327273 279.450775 
L 238.836364 282.676508 
L 243.345455 282.759219 
L 247.854545 284.682252 
L 252.363636 278.210109 
L 256.872727 287.990695 
L 261.381818 293.408271 
L 265.890909 284.496152 
L 270.4 288.114762 
L 274.909091 285.219874 
L 279.418182 270.600689 
L 283.927273 289.169328 
L 288.436364 276.804021 
L 292.945455 286.27444 
L 297.454545 284.392763 
L 301.963636 283.896496 
L 306.472727 296.696037 
L 310.981818 295.083171 
L 315.490909 289.107295 
L 320 287.349684 
L 324.509091 301.513957 
L 329.018182 296.902814 
L 333.527273 291.19575 
L 338.036364 302.961401 
L 342.545455 292.064216 
L 347.054545 287.825273 
L 351.563636 291.19575 
L 356.072727 293.428949 
L 360.581818 290.554739 
L 365.090909 287.039518 
L 369.6 298.991269 
L 374.109091 297.791959 
L 378.618182 302.651235 
L 383.127273 285.860885 
L 387.636364 288.445606 
L 392.145455 300.00448 
L 396.654545 294.462837 
L 401.163636 291.878116 
L 405.672727 299.714991 
L 410.181818 288.631706 
L 414.690909 285.819529 
L 419.2 292.084894 
L 423.709091 293.677082 
L 428.218182 299.901091 
L 432.727273 294.731648 
L 437.236364 280.257209 
L 441.745455 300.107869 
L 446.254545 293.077427 
L 450.763636 294.81436 
L 455.272727 295.889604 
L 459.781818 303.147501 
L 464.290909 291.00965 
L 468.8 293.470304 
L 473.309091 295.744859 
L 477.818182 304.243423 
L 482.327273 296.261804 
L 486.836364 293.284204 
L 491.345455 298.743136 
L 495.854545 304.36749 
L 500.363636 299.694314 
L 504.872727 299.115336 
L 509.381818 301.886157 
L 513.890909 297.957381 
L 518.4 294.917748 
" clip-path="url(#p09aa80e4cd)" style="fill: none; stroke: #8c564b; stroke-width: 1.5; stroke-linecap: square"/>
   </g>
   <g id="line2d_19">
    <path d="M 72 108.611028 
L 76.509091 179.949339 
L 81.018182 201.723033 
L 85.527273 226.308903 
L 90.036364 205.693165 
L 94.545455 230.423779 
L 99.054545 246.697186 
L 103.563636 229.575991 
L 108.072727 239.852843 
L 112.581818 242.354854 
L 117.090909 247.110741 
L 121.6 243.719586 
L 126.109091 233.401379 
L 130.618182 245.435841 
L 135.127273 262.24687 
L 139.636364 237.433544 
L 144.145455 248.434118 
L 148.654545 241.052154 
L 153.163636 242.540953 
L 157.672727 238.157266 
L 162.181818 257.13946 
L 166.690909 249.116485 
L 171.2 257.180816 
L 175.709091 248.558185 
L 180.218182 269.029179 
L 184.727273 255.898794 
L 189.236364 250.605284 
L 193.745455 253.975761 
L 198.254545 264.624813 
L 202.763636 265.49328 
L 207.272727 263.63228 
L 211.781818 257.118782 
L 216.290909 257.615049 
L 220.8 263.280758 
L 225.309091 260.94417 
L 229.818182 257.821827 
L 234.327273 250.150373 
L 238.836364 265.782769 
L 243.345455 258.793682 
L 247.854545 256.76726 
L 252.363636 259.393337 
L 256.872727 275.997588 
L 261.381818 266.568524 
L 265.890909 263.673636 
L 270.4 261.233659 
L 274.909091 258.835037 
L 279.418182 249.488685 
L 283.927273 269.628834 
L 288.436364 264.56278 
L 292.945455 268.73969 
L 297.454545 270.580011 
L 301.963636 261.895348 
L 306.472727 267.374957 
L 310.981818 269.918323 
L 315.490909 262.24687 
L 320 265.141758 
L 324.509091 271.386445 
L 329.018182 282.552441 
L 333.527273 277.631132 
L 338.036364 284.806318 
L 342.545455 265.017691 
L 347.054545 272.689144 
L 351.563636 269.918323 
L 356.072727 273.536933 
L 360.581818 274.053877 
L 365.090909 264.831591 
L 369.6 285.385296 
L 374.109091 278.499598 
L 378.618182 278.29282 
L 383.127273 274.177944 
L 387.636364 276.100976 
L 392.145455 281.373808 
L 396.654545 271.551867 
L 401.163636 282.035497 
L 405.672727 291.133716 
L 410.181818 269.628834 
L 414.690909 275.294543 
L 419.2 277.651809 
L 423.709091 279.285353 
L 428.218182 283.544974 
L 432.727273 279.22332 
L 437.236364 269.029179 
L 441.745455 284.889029 
L 446.254545 282.697186 
L 450.763636 284.310052 
L 455.272727 271.510511 
L 459.781818 293.718438 
L 464.290909 269.173923 
L 468.8 281.932108 
L 473.309091 280.732797 
L 477.818182 288.900517 
L 482.327273 281.270419 
L 486.836364 274.157266 
L 491.345455 285.695462 
L 495.854545 290.554739 
L 500.363636 272.895922 
L 504.872727 283.875818 
L 509.381818 284.020563 
L 513.890909 289.14865 
L 518.4 280.753475 
" clip-path="url(#p09aa80e4cd)" style="fill: none; stroke: #e377c2; stroke-width: 1.5; stroke-linecap: square"/>
   </g>
   <g id="line2d_20">
    <path d="M 72 124.264101 
L 76.509091 150.731648 
L 81.018182 188.158415 
L 85.527273 237.144055 
L 90.036364 244.029753 
L 94.545455 254.244572 
L 99.054545 257.780471 
L 103.563636 248.826996 
L 108.072727 262.019414 
L 112.581818 253.831017 
L 117.090909 260.489259 
L 121.6 274.095233 
L 126.109091 265.327858 
L 130.618182 232.305457 
L 135.127273 274.239977 
L 139.636364 260.613326 
L 144.145455 267.333601 
L 148.654545 256.002183 
L 153.163636 248.330729 
L 157.672727 264.211258 
L 162.181818 272.585755 
L 166.690909 270.559334 
L 171.2 275.04641 
L 175.709091 270.249167 
L 180.218182 279.471453 
L 184.727273 270.476623 
L 189.236364 276.431821 
L 193.745455 267.540379 
L 198.254545 280.009075 
L 202.763636 278.789087 
L 207.272727 288.445606 
L 211.781818 288.838484 
L 216.290909 277.134865 
L 220.8 282.387019 
L 225.309091 280.898219 
L 229.818182 286.026307 
L 234.327273 274.591499 
L 238.836364 285.178518 
L 243.345455 282.552441 
L 247.854545 282.821252 
L 252.363636 270.414589 
L 256.872727 288.548995 
L 261.381818 286.191729 
L 265.890909 280.236531 
L 270.4 286.791384 
L 274.909091 281.270419 
L 279.418182 286.750029 
L 283.927273 282.076852 
L 288.436364 284.103274 
L 292.945455 292.250316 
L 297.454545 287.039518 
L 301.963636 283.40023 
L 306.472727 296.01367 
L 310.981818 287.866628 
L 315.490909 286.894773 
L 320 285.302585 
L 324.509091 288.011373 
L 329.018182 287.680528 
L 333.527273 285.798851 
L 338.036364 290.63745 
L 342.545455 286.563929 
L 347.054545 289.727628 
L 351.563636 290.844227 
L 356.072727 298.577714 
L 360.581818 287.535784 
L 365.090909 285.695462 
L 369.6 299.26008 
L 374.109091 293.387593 
L 378.618182 301.100402 
L 383.127273 290.203217 
L 387.636364 292.002183 
L 392.145455 303.168179 
L 396.654545 296.820103 
L 401.163636 293.449627 
L 405.672727 300.211258 
L 410.181818 291.319816 
L 414.690909 288.342217 
L 419.2 298.929236 
L 423.709091 297.150948 
L 428.218182 303.519701 
L 432.727273 296.055026 
L 437.236364 285.34394 
L 441.745455 302.465135 
L 446.254545 297.68857 
L 450.763636 297.667892 
L 455.272727 297.378403 
L 459.781818 306.166456 
L 464.290909 292.126249 
L 468.8 297.543825 
L 473.309091 294.25606 
L 477.818182 302.754624 
L 482.327273 297.295692 
L 486.836364 298.929236 
L 491.345455 296.778748 
L 495.854545 307.8 
L 500.363636 299.570247 
L 504.872727 299.404825 
L 509.381818 302.816657 
L 513.890909 299.901091 
L 518.4 303.374957 
" clip-path="url(#p09aa80e4cd)" style="fill: none; stroke: #7f7f7f; stroke-width: 1.5; stroke-linecap: square"/>
   </g>
   <g id="patch_3">
    <path d="M 72 320.4 
L 72 43.2 
" style="fill: none; stroke: #000000; stroke-width: 0.8; stroke-linejoin: miter; stroke-linecap: square"/>
   </g>
   <g id="patch_4">
    <path d="M 518.4 320.4 
L 518.4 43.2 
" style="fill: none; stroke: #000000; stroke-width: 0.8; stroke-linejoin: miter; stroke-linecap: square"/>
   </g>
   <g id="patch_5">
    <path d="M 72 320.4 
L 518.4 320.4 
" style="fill: none; stroke: #000000; stroke-width: 0.8; stroke-linejoin: miter; stroke-linecap: square"/>
   </g>
   <g id="patch_6">
    <path d="M 72 43.2 
L 518.4 43.2 
" style="fill: none; stroke: #000000; stroke-width: 0.8; stroke-linejoin: miter; stroke-linecap: square"/>
   </g>
   <g id="text_15">
    <!-- Human Ensemble (regulatory) -->
    <g transform="translate(204.6225 37.2) scale(0.12 -0.12)">
     <defs>
      <path id="DejaVuSans-48" d="M 628 4666 
L 1259 4666 
L 1259 2753 
L 3553 2753 
L 3553 4666 
L 4184 4666 
L 4184 0 
L 3553 0 
L 3553 2222 
L 1259 2222 
L 1259 0 
L 628 0 
L 628 4666 
z
" transform="scale(0.015625)"/>
      <path id="DejaVuSans-75" d="M 544 1381 
L 544 3500 
L 1119 3500 
L 1119 1403 
Q 1119 906 1312 657 
Q 1506 409 1894 409 
Q 2359 409 2629 706 
Q 2900 1003 2900 1516 
L 2900 3500 
L 3475 3500 
L 3475 0 
L 2900 0 
L 2900 538 
Q 2691 219 2414 64 
Q 2138 -91 1772 -91 
Q 1169 -91 856 284 
Q 544 659 544 1381 
z
M 1991 3584 
L 1991 3584 
z
" transform="scale(0.015625)"/>
      <path id="DejaVuSans-6d" d="M 3328 2828 
Q 3544 3216 3844 3400 
Q 4144 3584 4550 3584 
Q 5097 3584 5394 3201 
Q 5691 2819 5691 2113 
L 5691 0 
L 5113 0 
L 5113 2094 
Q 5113 2597 4934 2840 
Q 4756 3084 4391 3084 
Q 3944 3084 3684 2787 
Q 3425 2491 3425 1978 
L 3425 0 
L 2847 0 
L 2847 2094 
Q 2847 2600 2669 2842 
Q 2491 3084 2119 3084 
Q 1678 3084 1418 2786 
Q 1159 2488 1159 1978 
L 1159 0 
L 581 0 
L 581 3500 
L 1159 3500 
L 1159 2956 
Q 1356 3278 1631 3431 
Q 1906 3584 2284 3584 
Q 2666 3584 2933 3390 
Q 3200 3197 3328 2828 
z
" transform="scale(0.015625)"/>
      <path id="DejaVuSans-45" d="M 628 4666 
L 3578 4666 
L 3578 4134 
L 1259 4134 
L 1259 2753 
L 3481 2753 
L 3481 2222 
L 1259 2222 
L 1259 531 
L 3634 531 
L 3634 0 
L 628 0 
L 628 4666 
z
" transform="scale(0.015625)"/>
      <path id="DejaVuSans-62" d="M 3116 1747 
Q 3116 2381 2855 2742 
Q 2594 3103 2138 3103 
Q 1681 3103 1420 2742 
Q 1159 2381 1159 1747 
Q 1159 1113 1420 752 
Q 1681 391 2138 391 
Q 2594 391 2855 752 
Q 3116 1113 3116 1747 
z
M 1159 2969 
Q 1341 3281 1617 3432 
Q 1894 3584 2278 3584 
Q 2916 3584 3314 3078 
Q 3713 2572 3713 1747 
Q 3713 922 3314 415 
Q 2916 -91 2278 -91 
Q 1894 -91 1617 61 
Q 1341 213 1159 525 
L 1159 0 
L 581 0 
L 581 4863 
L 1159 4863 
L 1159 2969 
z
" transform="scale(0.015625)"/>
      <path id="DejaVuSans-6c" d="M 603 4863 
L 1178 4863 
L 1178 0 
L 603 0 
L 603 4863 
z
" transform="scale(0.015625)"/>
      <path id="DejaVuSans-28" d="M 1984 4856 
Q 1566 4138 1362 3434 
Q 1159 2731 1159 2009 
Q 1159 1288 1364 580 
Q 1569 -128 1984 -844 
L 1484 -844 
Q 1016 -109 783 600 
Q 550 1309 550 2009 
Q 550 2706 781 3412 
Q 1013 4119 1484 4856 
L 1984 4856 
z
" transform="scale(0.015625)"/>
      <path id="DejaVuSans-79" d="M 2059 -325 
Q 1816 -950 1584 -1140 
Q 1353 -1331 966 -1331 
L 506 -1331 
L 506 -850 
L 844 -850 
Q 1081 -850 1212 -737 
Q 1344 -625 1503 -206 
L 1606 56 
L 191 3500 
L 800 3500 
L 1894 763 
L 2988 3500 
L 3597 3500 
L 2059 -325 
z
" transform="scale(0.015625)"/>
      <path id="DejaVuSans-29" d="M 513 4856 
L 1013 4856 
Q 1481 4119 1714 3412 
Q 1947 2706 1947 2009 
Q 1947 1309 1714 600 
Q 1481 -109 1013 -844 
L 513 -844 
Q 928 -128 1133 580 
Q 1338 1288 1338 2009 
Q 1338 2731 1133 3434 
Q 928 4138 513 4856 
z
" transform="scale(0.015625)"/>
     </defs>
     <use xlink:href="#DejaVuSans-48"/>
     <use xlink:href="#DejaVuSans-75" transform="translate(75.195312 0)"/>
     <use xlink:href="#DejaVuSans-6d" transform="translate(138.574219 0)"/>
     <use xlink:href="#DejaVuSans-61" transform="translate(235.986328 0)"/>
     <use xlink:href="#DejaVuSans-6e" transform="translate(297.265625 0)"/>
     <use xlink:href="#DejaVuSans-20" transform="translate(360.644531 0)"/>
     <use xlink:href="#DejaVuSans-45" transform="translate(392.431641 0)"/>
     <use xlink:href="#DejaVuSans-6e" transform="translate(455.615234 0)"/>
     <use xlink:href="#DejaVuSans-73" transform="translate(518.994141 0)"/>
     <use xlink:href="#DejaVuSans-65" transform="translate(571.09375 0)"/>
     <use xlink:href="#DejaVuSans-6d" transform="translate(632.617188 0)"/>
     <use xlink:href="#DejaVuSans-62" transform="translate(730.029297 0)"/>
     <use xlink:href="#DejaVuSans-6c" transform="translate(793.505859 0)"/>
     <use xlink:href="#DejaVuSans-65" transform="translate(821.289062 0)"/>
     <use xlink:href="#DejaVuSans-20" transform="translate(882.8125 0)"/>
     <use xlink:href="#DejaVuSans-28" transform="translate(914.599609 0)"/>
     <use xlink:href="#DejaVuSans-72" transform="translate(953.613281 0)"/>
     <use xlink:href="#DejaVuSans-65" transform="translate(992.476562 0)"/>
     <use xlink:href="#DejaVuSans-67" transform="translate(1054 0)"/>
     <use xlink:href="#DejaVuSans-75" transform="translate(1117.476562 0)"/>
     <use xlink:href="#DejaVuSans-6c" transform="translate(1180.855469 0)"/>
     <use xlink:href="#DejaVuSans-61" transform="translate(1208.638672 0)"/>
     <use xlink:href="#DejaVuSans-74" transform="translate(1269.917969 0)"/>
     <use xlink:href="#DejaVuSans-6f" transform="translate(1309.126953 0)"/>
     <use xlink:href="#DejaVuSans-72" transform="translate(1370.308594 0)"/>
     <use xlink:href="#DejaVuSans-79" transform="translate(1411.421875 0)"/>
     <use xlink:href="#DejaVuSans-29" transform="translate(1470.601562 0)"/>
    </g>
   </g>
   <g id="legend_1">
    <g id="patch_7">
     <path d="M 334.210684 147.679025 
L 512.569 147.679025 
Q 514.235 147.679025 514.235 146.013025 
L 514.235 49.031 
Q 514.235 47.365 512.569 47.365 
L 334.210684 47.365 
Q 332.544684 47.365 332.544684 49.031 
L 332.544684 146.013025 
Q 332.544684 147.679025 334.210684 147.679025 
z
" style="fill: #ffffff; opacity: 0.8; stroke: #cccccc; stroke-linejoin: miter"/>
    </g>
    <g id="line2d_21">
     <path d="M 335.876684 54.110998 
L 344.206684 54.110998 
L 352.536684 54.110998 
" style="fill: none; stroke: #1f77b4; stroke-width: 1.5; stroke-linecap: square"/>
    </g>
    <g id="text_16">
     <!-- NT-MS V2 (50M) with rand. weights -->
     <g transform="translate(359.200684 57.026498) scale(0.0833 -0.0833)">
      <defs>
       <path id="DejaVuSans-4e" d="M 628 4666 
L 1478 4666 
L 3547 763 
L 3547 4666 
L 4159 4666 
L 4159 0 
L 3309 0 
L 1241 3903 
L 1241 0 
L 628 0 
L 628 4666 
z
" transform="scale(0.015625)"/>
       <path id="DejaVuSans-2d" d="M 313 2009 
L 1997 2009 
L 1997 1497 
L 313 1497 
L 313 2009 
z
" transform="scale(0.015625)"/>
       <path id="DejaVuSans-4d" d="M 628 4666 
L 1569 4666 
L 2759 1491 
L 3956 4666 
L 4897 4666 
L 4897 0 
L 4281 0 
L 4281 4097 
L 3078 897 
L 2444 897 
L 1241 4097 
L 1241 0 
L 628 0 
L 628 4666 
z
" transform="scale(0.015625)"/>
       <path id="DejaVuSans-53" d="M 3425 4513 
L 3425 3897 
Q 3066 4069 2747 4153 
Q 2428 4238 2131 4238 
Q 1616 4238 1336 4038 
Q 1056 3838 1056 3469 
Q 1056 3159 1242 3001 
Q 1428 2844 1947 2747 
L 2328 2669 
Q 3034 2534 3370 2195 
Q 3706 1856 3706 1288 
Q 3706 609 3251 259 
Q 2797 -91 1919 -91 
Q 1588 -91 1214 -16 
Q 841 59 441 206 
L 441 856 
Q 825 641 1194 531 
Q 1563 422 1919 422 
Q 2459 422 2753 634 
Q 3047 847 3047 1241 
Q 3047 1584 2836 1778 
Q 2625 1972 2144 2069 
L 1759 2144 
Q 1053 2284 737 2584 
Q 422 2884 422 3419 
Q 422 4038 858 4394 
Q 1294 4750 2059 4750 
Q 2388 4750 2728 4690 
Q 3069 4631 3425 4513 
z
" transform="scale(0.015625)"/>
       <path id="DejaVuSans-56" d="M 1831 0 
L 50 4666 
L 709 4666 
L 2188 738 
L 3669 4666 
L 4325 4666 
L 2547 0 
L 1831 0 
z
" transform="scale(0.015625)"/>
       <path id="DejaVuSans-35" d="M 691 4666 
L 3169 4666 
L 3169 4134 
L 1269 4134 
L 1269 2991 
Q 1406 3038 1543 3061 
Q 1681 3084 1819 3084 
Q 2600 3084 3056 2656 
Q 3513 2228 3513 1497 
Q 3513 744 3044 326 
Q 2575 -91 1722 -91 
Q 1428 -91 1123 -41 
Q 819 9 494 109 
L 494 744 
Q 775 591 1075 516 
Q 1375 441 1709 441 
Q 2250 441 2565 725 
Q 2881 1009 2881 1497 
Q 2881 1984 2565 2268 
Q 2250 2553 1709 2553 
Q 1456 2553 1204 2497 
Q 953 2441 691 2322 
L 691 4666 
z
" transform="scale(0.015625)"/>
       <path id="DejaVuSans-77" d="M 269 3500 
L 844 3500 
L 1563 769 
L 2278 3500 
L 2956 3500 
L 3675 769 
L 4391 3500 
L 4966 3500 
L 4050 0 
L 3372 0 
L 2619 2869 
L 1863 0 
L 1184 0 
L 269 3500 
z
" transform="scale(0.015625)"/>
       <path id="DejaVuSans-68" d="M 3513 2113 
L 3513 0 
L 2938 0 
L 2938 2094 
Q 2938 2591 2744 2837 
Q 2550 3084 2163 3084 
Q 1697 3084 1428 2787 
Q 1159 2491 1159 1978 
L 1159 0 
L 581 0 
L 581 4863 
L 1159 4863 
L 1159 2956 
Q 1366 3272 1645 3428 
Q 1925 3584 2291 3584 
Q 2894 3584 3203 3211 
Q 3513 2838 3513 2113 
z
" transform="scale(0.015625)"/>
       <path id="DejaVuSans-64" d="M 2906 2969 
L 2906 4863 
L 3481 4863 
L 3481 0 
L 2906 0 
L 2906 525 
Q 2725 213 2448 61 
Q 2172 -91 1784 -91 
Q 1150 -91 751 415 
Q 353 922 353 1747 
Q 353 2572 751 3078 
Q 1150 3584 1784 3584 
Q 2172 3584 2448 3432 
Q 2725 3281 2906 2969 
z
M 947 1747 
Q 947 1113 1208 752 
Q 1469 391 1925 391 
Q 2381 391 2643 752 
Q 2906 1113 2906 1747 
Q 2906 2381 2643 2742 
Q 2381 3103 1925 3103 
Q 1469 3103 1208 2742 
Q 947 2381 947 1747 
z
" transform="scale(0.015625)"/>
      </defs>
      <use xlink:href="#DejaVuSans-4e"/>
      <use xlink:href="#DejaVuSans-54" transform="translate(74.804688 0)"/>
      <use xlink:href="#DejaVuSans-2d" transform="translate(126.763672 0)"/>
      <use xlink:href="#DejaVuSans-4d" transform="translate(162.847656 0)"/>
      <use xlink:href="#DejaVuSans-53" transform="translate(249.126953 0)"/>
      <use xlink:href="#DejaVuSans-20" transform="translate(312.603516 0)"/>
      <use xlink:href="#DejaVuSans-56" transform="translate(344.390625 0)"/>
      <use xlink:href="#DejaVuSans-32" transform="translate(412.798828 0)"/>
      <use xlink:href="#DejaVuSans-20" transform="translate(476.421875 0)"/>
      <use xlink:href="#DejaVuSans-28" transform="translate(508.208984 0)"/>
      <use xlink:href="#DejaVuSans-35" transform="translate(547.222656 0)"/>
      <use xlink:href="#DejaVuSans-30" transform="translate(610.845703 0)"/>
      <use xlink:href="#DejaVuSans-4d" transform="translate(674.46875 0)"/>
      <use xlink:href="#DejaVuSans-29" transform="translate(760.748047 0)"/>
      <use xlink:href="#DejaVuSans-20" transform="translate(799.761719 0)"/>
      <use xlink:href="#DejaVuSans-77" transform="translate(831.548828 0)"/>
      <use xlink:href="#DejaVuSans-69" transform="translate(913.335938 0)"/>
      <use xlink:href="#DejaVuSans-74" transform="translate(941.119141 0)"/>
      <use xlink:href="#DejaVuSans-68" transform="translate(980.328125 0)"/>
      <use xlink:href="#DejaVuSans-20" transform="translate(1043.707031 0)"/>
      <use xlink:href="#DejaVuSans-72" transform="translate(1075.494141 0)"/>
      <use xlink:href="#DejaVuSans-61" transform="translate(1116.607422 0)"/>
      <use xlink:href="#DejaVuSans-6e" transform="translate(1177.886719 0)"/>
      <use xlink:href="#DejaVuSans-64" transform="translate(1241.265625 0)"/>
      <use xlink:href="#DejaVuSans-2e" transform="translate(1304.742188 0)"/>
      <use xlink:href="#DejaVuSans-20" transform="translate(1336.529297 0)"/>
      <use xlink:href="#DejaVuSans-77" transform="translate(1368.316406 0)"/>
      <use xlink:href="#DejaVuSans-65" transform="translate(1450.103516 0)"/>
      <use xlink:href="#DejaVuSans-69" transform="translate(1511.626953 0)"/>
      <use xlink:href="#DejaVuSans-67" transform="translate(1539.410156 0)"/>
      <use xlink:href="#DejaVuSans-68" transform="translate(1602.886719 0)"/>
      <use xlink:href="#DejaVuSans-74" transform="translate(1666.265625 0)"/>
      <use xlink:href="#DejaVuSans-73" transform="translate(1705.474609 0)"/>
     </g>
    </g>
    <g id="line2d_22">
     <path d="M 335.876684 66.337877 
L 344.206684 66.337877 
L 352.536684 66.337877 
" style="fill: none; stroke: #ff7f0e; stroke-width: 1.5; stroke-linecap: square"/>
    </g>
    <g id="text_17">
     <!-- NT-MS V2 (500M) with rand. weights -->
     <g transform="translate(359.200684 69.253377) scale(0.0833 -0.0833)">
      <use xlink:href="#DejaVuSans-4e"/>
      <use xlink:href="#DejaVuSans-54" transform="translate(74.804688 0)"/>
      <use xlink:href="#DejaVuSans-2d" transform="translate(126.763672 0)"/>
      <use xlink:href="#DejaVuSans-4d" transform="translate(162.847656 0)"/>
      <use xlink:href="#DejaVuSans-53" transform="translate(249.126953 0)"/>
      <use xlink:href="#DejaVuSans-20" transform="translate(312.603516 0)"/>
      <use xlink:href="#DejaVuSans-56" transform="translate(344.390625 0)"/>
      <use xlink:href="#DejaVuSans-32" transform="translate(412.798828 0)"/>
      <use xlink:href="#DejaVuSans-20" transform="translate(476.421875 0)"/>
      <use xlink:href="#DejaVuSans-28" transform="translate(508.208984 0)"/>
      <use xlink:href="#DejaVuSans-35" transform="translate(547.222656 0)"/>
      <use xlink:href="#DejaVuSans-30" transform="translate(610.845703 0)"/>
      <use xlink:href="#DejaVuSans-30" transform="translate(674.46875 0)"/>
      <use xlink:href="#DejaVuSans-4d" transform="translate(738.091797 0)"/>
      <use xlink:href="#DejaVuSans-29" transform="translate(824.371094 0)"/>
      <use xlink:href="#DejaVuSans-20" transform="translate(863.384766 0)"/>
      <use xlink:href="#DejaVuSans-77" transform="translate(895.171875 0)"/>
      <use xlink:href="#DejaVuSans-69" transform="translate(976.958984 0)"/>
      <use xlink:href="#DejaVuSans-74" transform="translate(1004.742188 0)"/>
      <use xlink:href="#DejaVuSans-68" transform="translate(1043.951172 0)"/>
      <use xlink:href="#DejaVuSans-20" transform="translate(1107.330078 0)"/>
      <use xlink:href="#DejaVuSans-72" transform="translate(1139.117188 0)"/>
      <use xlink:href="#DejaVuSans-61" transform="translate(1180.230469 0)"/>
      <use xlink:href="#DejaVuSans-6e" transform="translate(1241.509766 0)"/>
      <use xlink:href="#DejaVuSans-64" transform="translate(1304.888672 0)"/>
      <use xlink:href="#DejaVuSans-2e" transform="translate(1368.365234 0)"/>
      <use xlink:href="#DejaVuSans-20" transform="translate(1400.152344 0)"/>
      <use xlink:href="#DejaVuSans-77" transform="translate(1431.939453 0)"/>
      <use xlink:href="#DejaVuSans-65" transform="translate(1513.726562 0)"/>
      <use xlink:href="#DejaVuSans-69" transform="translate(1575.25 0)"/>
      <use xlink:href="#DejaVuSans-67" transform="translate(1603.033203 0)"/>
      <use xlink:href="#DejaVuSans-68" transform="translate(1666.509766 0)"/>
      <use xlink:href="#DejaVuSans-74" transform="translate(1729.888672 0)"/>
      <use xlink:href="#DejaVuSans-73" transform="translate(1769.097656 0)"/>
     </g>
    </g>
    <g id="line2d_23">
     <path d="M 335.876684 78.564755 
L 344.206684 78.564755 
L 352.536684 78.564755 
" style="fill: none; stroke: #2ca02c; stroke-width: 1.5; stroke-linecap: square"/>
    </g>
    <g id="text_18">
     <!-- NT-MS V2 (50M) -->
     <g transform="translate(359.200684 81.480255) scale(0.0833 -0.0833)">
      <use xlink:href="#DejaVuSans-4e"/>
      <use xlink:href="#DejaVuSans-54" transform="translate(74.804688 0)"/>
      <use xlink:href="#DejaVuSans-2d" transform="translate(126.763672 0)"/>
      <use xlink:href="#DejaVuSans-4d" transform="translate(162.847656 0)"/>
      <use xlink:href="#DejaVuSans-53" transform="translate(249.126953 0)"/>
      <use xlink:href="#DejaVuSans-20" transform="translate(312.603516 0)"/>
      <use xlink:href="#DejaVuSans-56" transform="translate(344.390625 0)"/>
      <use xlink:href="#DejaVuSans-32" transform="translate(412.798828 0)"/>
      <use xlink:href="#DejaVuSans-20" transform="translate(476.421875 0)"/>
      <use xlink:href="#DejaVuSans-28" transform="translate(508.208984 0)"/>
      <use xlink:href="#DejaVuSans-35" transform="translate(547.222656 0)"/>
      <use xlink:href="#DejaVuSans-30" transform="translate(610.845703 0)"/>
      <use xlink:href="#DejaVuSans-4d" transform="translate(674.46875 0)"/>
      <use xlink:href="#DejaVuSans-29" transform="translate(760.748047 0)"/>
     </g>
    </g>
    <g id="line2d_24">
     <path d="M 335.876684 90.791633 
L 344.206684 90.791633 
L 352.536684 90.791633 
" style="fill: none; stroke: #d62728; stroke-width: 1.5; stroke-linecap: square"/>
    </g>
    <g id="text_19">
     <!-- NT-1000g (500M) -->
     <g transform="translate(359.200684 93.707133) scale(0.0833 -0.0833)">
      <use xlink:href="#DejaVuSans-4e"/>
      <use xlink:href="#DejaVuSans-54" transform="translate(74.804688 0)"/>
      <use xlink:href="#DejaVuSans-2d" transform="translate(126.763672 0)"/>
      <use xlink:href="#DejaVuSans-31" transform="translate(162.847656 0)"/>
      <use xlink:href="#DejaVuSans-30" transform="translate(226.470703 0)"/>
      <use xlink:href="#DejaVuSans-30" transform="translate(290.09375 0)"/>
      <use xlink:href="#DejaVuSans-30" transform="translate(353.716797 0)"/>
      <use xlink:href="#DejaVuSans-67" transform="translate(417.339844 0)"/>
      <use xlink:href="#DejaVuSans-20" transform="translate(480.816406 0)"/>
      <use xlink:href="#DejaVuSans-28" transform="translate(512.603516 0)"/>
      <use xlink:href="#DejaVuSans-35" transform="translate(551.617188 0)"/>
      <use xlink:href="#DejaVuSans-30" transform="translate(615.240234 0)"/>
      <use xlink:href="#DejaVuSans-30" transform="translate(678.863281 0)"/>
      <use xlink:href="#DejaVuSans-4d" transform="translate(742.486328 0)"/>
      <use xlink:href="#DejaVuSans-29" transform="translate(828.765625 0)"/>
     </g>
    </g>
    <g id="line2d_25">
     <path d="M 335.876684 103.018511 
L 344.206684 103.018511 
L 352.536684 103.018511 
" style="fill: none; stroke: #9467bd; stroke-width: 1.5; stroke-linecap: square"/>
    </g>
    <g id="text_20">
     <!-- NT-MS V2 (250M) -->
     <g transform="translate(359.200684 105.934011) scale(0.0833 -0.0833)">
      <use xlink:href="#DejaVuSans-4e"/>
      <use xlink:href="#DejaVuSans-54" transform="translate(74.804688 0)"/>
      <use xlink:href="#DejaVuSans-2d" transform="translate(126.763672 0)"/>
      <use xlink:href="#DejaVuSans-4d" transform="translate(162.847656 0)"/>
      <use xlink:href="#DejaVuSans-53" transform="translate(249.126953 0)"/>
      <use xlink:href="#DejaVuSans-20" transform="translate(312.603516 0)"/>
      <use xlink:href="#DejaVuSans-56" transform="translate(344.390625 0)"/>
      <use xlink:href="#DejaVuSans-32" transform="translate(412.798828 0)"/>
      <use xlink:href="#DejaVuSans-20" transform="translate(476.421875 0)"/>
      <use xlink:href="#DejaVuSans-28" transform="translate(508.208984 0)"/>
      <use xlink:href="#DejaVuSans-32" transform="translate(547.222656 0)"/>
      <use xlink:href="#DejaVuSans-35" transform="translate(610.845703 0)"/>
      <use xlink:href="#DejaVuSans-30" transform="translate(674.46875 0)"/>
      <use xlink:href="#DejaVuSans-4d" transform="translate(738.091797 0)"/>
      <use xlink:href="#DejaVuSans-29" transform="translate(824.371094 0)"/>
     </g>
    </g>
    <g id="line2d_26">
     <path d="M 335.876684 115.245389 
L 344.206684 115.245389 
L 352.536684 115.245389 
" style="fill: none; stroke: #8c564b; stroke-width: 1.5; stroke-linecap: square"/>
    </g>
    <g id="text_21">
     <!-- NT-MS V2 (100M) -->
     <g transform="translate(359.200684 118.160889) scale(0.0833 -0.0833)">
      <use xlink:href="#DejaVuSans-4e"/>
      <use xlink:href="#DejaVuSans-54" transform="translate(74.804688 0)"/>
      <use xlink:href="#DejaVuSans-2d" transform="translate(126.763672 0)"/>
      <use xlink:href="#DejaVuSans-4d" transform="translate(162.847656 0)"/>
      <use xlink:href="#DejaVuSans-53" transform="translate(249.126953 0)"/>
      <use xlink:href="#DejaVuSans-20" transform="translate(312.603516 0)"/>
      <use xlink:href="#DejaVuSans-56" transform="translate(344.390625 0)"/>
      <use xlink:href="#DejaVuSans-32" transform="translate(412.798828 0)"/>
      <use xlink:href="#DejaVuSans-20" transform="translate(476.421875 0)"/>
      <use xlink:href="#DejaVuSans-28" transform="translate(508.208984 0)"/>
      <use xlink:href="#DejaVuSans-31" transform="translate(547.222656 0)"/>
      <use xlink:href="#DejaVuSans-30" transform="translate(610.845703 0)"/>
      <use xlink:href="#DejaVuSans-30" transform="translate(674.46875 0)"/>
      <use xlink:href="#DejaVuSans-4d" transform="translate(738.091797 0)"/>
      <use xlink:href="#DejaVuSans-29" transform="translate(824.371094 0)"/>
     </g>
    </g>
    <g id="line2d_27">
     <path d="M 335.876684 127.472267 
L 344.206684 127.472267 
L 352.536684 127.472267 
" style="fill: none; stroke: #e377c2; stroke-width: 1.5; stroke-linecap: square"/>
    </g>
    <g id="text_22">
     <!-- NT-Human-Ref. (500M) -->
     <g transform="translate(359.200684 130.387767) scale(0.0833 -0.0833)">
      <defs>
       <path id="DejaVuSans-52" d="M 2841 2188 
Q 3044 2119 3236 1894 
Q 3428 1669 3622 1275 
L 4263 0 
L 3584 0 
L 2988 1197 
Q 2756 1666 2539 1819 
Q 2322 1972 1947 1972 
L 1259 1972 
L 1259 0 
L 628 0 
L 628 4666 
L 2053 4666 
Q 2853 4666 3247 4331 
Q 3641 3997 3641 3322 
Q 3641 2881 3436 2590 
Q 3231 2300 2841 2188 
z
M 1259 4147 
L 1259 2491 
L 2053 2491 
Q 2509 2491 2742 2702 
Q 2975 2913 2975 3322 
Q 2975 3731 2742 3939 
Q 2509 4147 2053 4147 
L 1259 4147 
z
" transform="scale(0.015625)"/>
       <path id="DejaVuSans-66" d="M 2375 4863 
L 2375 4384 
L 1825 4384 
Q 1516 4384 1395 4259 
Q 1275 4134 1275 3809 
L 1275 3500 
L 2222 3500 
L 2222 3053 
L 1275 3053 
L 1275 0 
L 697 0 
L 697 3053 
L 147 3053 
L 147 3500 
L 697 3500 
L 697 3744 
Q 697 4328 969 4595 
Q 1241 4863 1831 4863 
L 2375 4863 
z
" transform="scale(0.015625)"/>
      </defs>
      <use xlink:href="#DejaVuSans-4e"/>
      <use xlink:href="#DejaVuSans-54" transform="translate(74.804688 0)"/>
      <use xlink:href="#DejaVuSans-2d" transform="translate(126.763672 0)"/>
      <use xlink:href="#DejaVuSans-48" transform="translate(162.847656 0)"/>
      <use xlink:href="#DejaVuSans-75" transform="translate(238.042969 0)"/>
      <use xlink:href="#DejaVuSans-6d" transform="translate(301.421875 0)"/>
      <use xlink:href="#DejaVuSans-61" transform="translate(398.833984 0)"/>
      <use xlink:href="#DejaVuSans-6e" transform="translate(460.113281 0)"/>
      <use xlink:href="#DejaVuSans-2d" transform="translate(523.492188 0)"/>
      <use xlink:href="#DejaVuSans-52" transform="translate(559.576172 0)"/>
      <use xlink:href="#DejaVuSans-65" transform="translate(624.558594 0)"/>
      <use xlink:href="#DejaVuSans-66" transform="translate(686.082031 0)"/>
      <use xlink:href="#DejaVuSans-2e" transform="translate(714.037109 0)"/>
      <use xlink:href="#DejaVuSans-20" transform="translate(745.824219 0)"/>
      <use xlink:href="#DejaVuSans-28" transform="translate(777.611328 0)"/>
      <use xlink:href="#DejaVuSans-35" transform="translate(816.625 0)"/>
      <use xlink:href="#DejaVuSans-30" transform="translate(880.248047 0)"/>
      <use xlink:href="#DejaVuSans-30" transform="translate(943.871094 0)"/>
      <use xlink:href="#DejaVuSans-4d" transform="translate(1007.494141 0)"/>
      <use xlink:href="#DejaVuSans-29" transform="translate(1093.773438 0)"/>
     </g>
    </g>
    <g id="line2d_28">
     <path d="M 335.876684 139.699145 
L 344.206684 139.699145 
L 352.536684 139.699145 
" style="fill: none; stroke: #7f7f7f; stroke-width: 1.5; stroke-linecap: square"/>
    </g>
    <g id="text_23">
     <!-- NT-MS V2 (500M) -->
     <g transform="translate(359.200684 142.614645) scale(0.0833 -0.0833)">
      <use xlink:href="#DejaVuSans-4e"/>
      <use xlink:href="#DejaVuSans-54" transform="translate(74.804688 0)"/>
      <use xlink:href="#DejaVuSans-2d" transform="translate(126.763672 0)"/>
      <use xlink:href="#DejaVuSans-4d" transform="translate(162.847656 0)"/>
      <use xlink:href="#DejaVuSans-53" transform="translate(249.126953 0)"/>
      <use xlink:href="#DejaVuSans-20" transform="translate(312.603516 0)"/>
      <use xlink:href="#DejaVuSans-56" transform="translate(344.390625 0)"/>
      <use xlink:href="#DejaVuSans-32" transform="translate(412.798828 0)"/>
      <use xlink:href="#DejaVuSans-20" transform="translate(476.421875 0)"/>
      <use xlink:href="#DejaVuSans-28" transform="translate(508.208984 0)"/>
      <use xlink:href="#DejaVuSans-35" transform="translate(547.222656 0)"/>
      <use xlink:href="#DejaVuSans-30" transform="translate(610.845703 0)"/>
      <use xlink:href="#DejaVuSans-30" transform="translate(674.46875 0)"/>
      <use xlink:href="#DejaVuSans-4d" transform="translate(738.091797 0)"/>
      <use xlink:href="#DejaVuSans-29" transform="translate(824.371094 0)"/>
     </g>
    </g>
   </g>
  </g>
 </g>
 <defs>
  <clipPath id="p09aa80e4cd">
   <rect x="72" y="43.2" width="446.4" height="277.2"/>
  </clipPath>
 </defs>
</svg>
