<?xml version="1.0" encoding="utf-8" standalone="no"?>
<!DOCTYPE svg PUBLIC "-//W3C//DTD SVG 1.1//EN"
  "http://www.w3.org/Graphics/SVG/1.1/DTD/svg11.dtd">
<svg xmlns:xlink="http://www.w3.org/1999/xlink" width="576pt" height="360pt" viewBox="0 0 576 360" xmlns="http://www.w3.org/2000/svg" version="1.1">
 <metadata>
  <rdf:RDF xmlns:dc="http://purl.org/dc/elements/1.1/" xmlns:cc="http://creativecommons.org/ns#" xmlns:rdf="http://www.w3.org/1999/02/22-rdf-syntax-ns#">
   <cc:Work>
    <dc:type rdf:resource="http://purl.org/dc/dcmitype/StillImage"/>
    <dc:date>2025-01-07T03:55:01.949267</dc:date>
    <dc:format>image/svg+xml</dc:format>
    <dc:creator>
     <cc:Agent>
      <dc:title>Matplotlib v3.10.0, https://matplotlib.org/</dc:title>
     </cc:Agent>
    </dc:creator>
   </cc:Work>
  </rdf:RDF>
 </metadata>
 <defs>
  <style type="text/css">*{stroke-linejoin: round; stroke-linecap: butt}</style>
 </defs>
 <g id="figure_1">
  <g id="patch_1">
   <path d="M 0 360 
L 576 360 
L 576 0 
L 0 0 
z
" style="fill: #ffffff"/>
  </g>
  <g id="axes_1">
   <g id="patch_2">
    <path d="M 72 320.4 
L 518.4 320.4 
L 518.4 43.2 
L 72 43.2 
z
" style="fill: #ffffff"/>
   </g>
   <g id="matplotlib.axis_1">
    <g id="xtick_1">
     <g id="line2d_1">
      <defs>
       <path id="m2c0ea09da5" d="M 0 0 
L 0 3.5 
" style="stroke: #000000; stroke-width: 0.8"/>
      </defs>
      <g>
       <use xlink:href="#m2c0ea09da5" x="157.672727" y="320.4" style="stroke: #000000; stroke-width: 0.8"/>
      </g>
     </g>
     <g id="text_1">
      <!-- 2000 -->
      <g transform="translate(144.947727 334.998438) scale(0.1 -0.1)">
       <defs>
        <path id="DejaVuSans-32" d="M 1228 531 
L 3431 531 
L 3431 0 
L 469 0 
L 469 531 
Q 828 903 1448 1529 
Q 2069 2156 2228 2338 
Q 2531 2678 2651 2914 
Q 2772 3150 2772 3378 
Q 2772 3750 2511 3984 
Q 2250 4219 1831 4219 
Q 1534 4219 1204 4116 
Q 875 4013 500 3803 
L 500 4441 
Q 881 4594 1212 4672 
Q 1544 4750 1819 4750 
Q 2544 4750 2975 4387 
Q 3406 4025 3406 3419 
Q 3406 3131 3298 2873 
Q 3191 2616 2906 2266 
Q 2828 2175 2409 1742 
Q 1991 1309 1228 531 
z
" transform="scale(0.015625)"/>
        <path id="DejaVuSans-30" d="M 2034 4250 
Q 1547 4250 1301 3770 
Q 1056 3291 1056 2328 
Q 1056 1369 1301 889 
Q 1547 409 2034 409 
Q 2525 409 2770 889 
Q 3016 1369 3016 2328 
Q 3016 3291 2770 3770 
Q 2525 4250 2034 4250 
z
M 2034 4750 
Q 2819 4750 3233 4129 
Q 3647 3509 3647 2328 
Q 3647 1150 3233 529 
Q 2819 -91 2034 -91 
Q 1250 -91 836 529 
Q 422 1150 422 2328 
Q 422 3509 836 4129 
Q 1250 4750 2034 4750 
z
" transform="scale(0.015625)"/>
       </defs>
       <use xlink:href="#DejaVuSans-32"/>
       <use xlink:href="#DejaVuSans-30" transform="translate(63.623047 0)"/>
       <use xlink:href="#DejaVuSans-30" transform="translate(127.246094 0)"/>
       <use xlink:href="#DejaVuSans-30" transform="translate(190.869141 0)"/>
      </g>
     </g>
    </g>
    <g id="xtick_2">
     <g id="line2d_2">
      <g>
       <use xlink:href="#m2c0ea09da5" x="247.854545" y="320.4" style="stroke: #000000; stroke-width: 0.8"/>
      </g>
     </g>
     <g id="text_2">
      <!-- 4000 -->
      <g transform="translate(235.129545 334.998438) scale(0.1 -0.1)">
       <defs>
        <path id="DejaVuSans-34" d="M 2419 4116 
L 825 1625 
L 2419 1625 
L 2419 4116 
z
M 2253 4666 
L 3047 4666 
L 3047 1625 
L 3713 1625 
L 3713 1100 
L 3047 1100 
L 3047 0 
L 2419 0 
L 2419 1100 
L 313 1100 
L 313 1709 
L 2253 4666 
z
" transform="scale(0.015625)"/>
       </defs>
       <use xlink:href="#DejaVuSans-34"/>
       <use xlink:href="#DejaVuSans-30" transform="translate(63.623047 0)"/>
       <use xlink:href="#DejaVuSans-30" transform="translate(127.246094 0)"/>
       <use xlink:href="#DejaVuSans-30" transform="translate(190.869141 0)"/>
      </g>
     </g>
    </g>
    <g id="xtick_3">
     <g id="line2d_3">
      <g>
       <use xlink:href="#m2c0ea09da5" x="338.036364" y="320.4" style="stroke: #000000; stroke-width: 0.8"/>
      </g>
     </g>
     <g id="text_3">
      <!-- 6000 -->
      <g transform="translate(325.311364 334.998438) scale(0.1 -0.1)">
       <defs>
        <path id="DejaVuSans-36" d="M 2113 2584 
Q 1688 2584 1439 2293 
Q 1191 2003 1191 1497 
Q 1191 994 1439 701 
Q 1688 409 2113 409 
Q 2538 409 2786 701 
Q 3034 994 3034 1497 
Q 3034 2003 2786 2293 
Q 2538 2584 2113 2584 
z
M 3366 4563 
L 3366 3988 
Q 3128 4100 2886 4159 
Q 2644 4219 2406 4219 
Q 1781 4219 1451 3797 
Q 1122 3375 1075 2522 
Q 1259 2794 1537 2939 
Q 1816 3084 2150 3084 
Q 2853 3084 3261 2657 
Q 3669 2231 3669 1497 
Q 3669 778 3244 343 
Q 2819 -91 2113 -91 
Q 1303 -91 875 529 
Q 447 1150 447 2328 
Q 447 3434 972 4092 
Q 1497 4750 2381 4750 
Q 2619 4750 2861 4703 
Q 3103 4656 3366 4563 
z
" transform="scale(0.015625)"/>
       </defs>
       <use xlink:href="#DejaVuSans-36"/>
       <use xlink:href="#DejaVuSans-30" transform="translate(63.623047 0)"/>
       <use xlink:href="#DejaVuSans-30" transform="translate(127.246094 0)"/>
       <use xlink:href="#DejaVuSans-30" transform="translate(190.869141 0)"/>
      </g>
     </g>
    </g>
    <g id="xtick_4">
     <g id="line2d_4">
      <g>
       <use xlink:href="#m2c0ea09da5" x="428.218182" y="320.4" style="stroke: #000000; stroke-width: 0.8"/>
      </g>
     </g>
     <g id="text_4">
      <!-- 8000 -->
      <g transform="translate(415.493182 334.998438) scale(0.1 -0.1)">
       <defs>
        <path id="DejaVuSans-38" d="M 2034 2216 
Q 1584 2216 1326 1975 
Q 1069 1734 1069 1313 
Q 1069 891 1326 650 
Q 1584 409 2034 409 
Q 2484 409 2743 651 
Q 3003 894 3003 1313 
Q 3003 1734 2745 1975 
Q 2488 2216 2034 2216 
z
M 1403 2484 
Q 997 2584 770 2862 
Q 544 3141 544 3541 
Q 544 4100 942 4425 
Q 1341 4750 2034 4750 
Q 2731 4750 3128 4425 
Q 3525 4100 3525 3541 
Q 3525 3141 3298 2862 
Q 3072 2584 2669 2484 
Q 3125 2378 3379 2068 
Q 3634 1759 3634 1313 
Q 3634 634 3220 271 
Q 2806 -91 2034 -91 
Q 1263 -91 848 271 
Q 434 634 434 1313 
Q 434 1759 690 2068 
Q 947 2378 1403 2484 
z
M 1172 3481 
Q 1172 3119 1398 2916 
Q 1625 2713 2034 2713 
Q 2441 2713 2670 2916 
Q 2900 3119 2900 3481 
Q 2900 3844 2670 4047 
Q 2441 4250 2034 4250 
Q 1625 4250 1398 4047 
Q 1172 3844 1172 3481 
z
" transform="scale(0.015625)"/>
       </defs>
       <use xlink:href="#DejaVuSans-38"/>
       <use xlink:href="#DejaVuSans-30" transform="translate(63.623047 0)"/>
       <use xlink:href="#DejaVuSans-30" transform="translate(127.246094 0)"/>
       <use xlink:href="#DejaVuSans-30" transform="translate(190.869141 0)"/>
      </g>
     </g>
    </g>
    <g id="xtick_5">
     <g id="line2d_5">
      <g>
       <use xlink:href="#m2c0ea09da5" x="518.4" y="320.4" style="stroke: #000000; stroke-width: 0.8"/>
      </g>
     </g>
     <g id="text_5">
      <!-- 10000 -->
      <g transform="translate(502.49375 334.998438) scale(0.1 -0.1)">
       <defs>
        <path id="DejaVuSans-31" d="M 794 531 
L 1825 531 
L 1825 4091 
L 703 3866 
L 703 4441 
L 1819 4666 
L 2450 4666 
L 2450 531 
L 3481 531 
L 3481 0 
L 794 0 
L 794 531 
z
" transform="scale(0.015625)"/>
       </defs>
       <use xlink:href="#DejaVuSans-31"/>
       <use xlink:href="#DejaVuSans-30" transform="translate(63.623047 0)"/>
       <use xlink:href="#DejaVuSans-30" transform="translate(127.246094 0)"/>
       <use xlink:href="#DejaVuSans-30" transform="translate(190.869141 0)"/>
       <use xlink:href="#DejaVuSans-30" transform="translate(254.492188 0)"/>
      </g>
     </g>
    </g>
    <g id="text_6">
     <!-- Training steps -->
     <g transform="translate(260.464844 348.676562) scale(0.1 -0.1)">
      <defs>
       <path id="DejaVuSans-54" d="M -19 4666 
L 3928 4666 
L 3928 4134 
L 2272 4134 
L 2272 0 
L 1638 0 
L 1638 4134 
L -19 4134 
L -19 4666 
z
" transform="scale(0.015625)"/>
       <path id="DejaVuSans-72" d="M 2631 2963 
Q 2534 3019 2420 3045 
Q 2306 3072 2169 3072 
Q 1681 3072 1420 2755 
Q 1159 2438 1159 1844 
L 1159 0 
L 581 0 
L 581 3500 
L 1159 3500 
L 1159 2956 
Q 1341 3275 1631 3429 
Q 1922 3584 2338 3584 
Q 2397 3584 2469 3576 
Q 2541 3569 2628 3553 
L 2631 2963 
z
" transform="scale(0.015625)"/>
       <path id="DejaVuSans-61" d="M 2194 1759 
Q 1497 1759 1228 1600 
Q 959 1441 959 1056 
Q 959 750 1161 570 
Q 1363 391 1709 391 
Q 2188 391 2477 730 
Q 2766 1069 2766 1631 
L 2766 1759 
L 2194 1759 
z
M 3341 1997 
L 3341 0 
L 2766 0 
L 2766 531 
Q 2569 213 2275 61 
Q 1981 -91 1556 -91 
Q 1019 -91 701 211 
Q 384 513 384 1019 
Q 384 1609 779 1909 
Q 1175 2209 1959 2209 
L 2766 2209 
L 2766 2266 
Q 2766 2663 2505 2880 
Q 2244 3097 1772 3097 
Q 1472 3097 1187 3025 
Q 903 2953 641 2809 
L 641 3341 
Q 956 3463 1253 3523 
Q 1550 3584 1831 3584 
Q 2591 3584 2966 3190 
Q 3341 2797 3341 1997 
z
" transform="scale(0.015625)"/>
       <path id="DejaVuSans-69" d="M 603 3500 
L 1178 3500 
L 1178 0 
L 603 0 
L 603 3500 
z
M 603 4863 
L 1178 4863 
L 1178 4134 
L 603 4134 
L 603 4863 
z
" transform="scale(0.015625)"/>
       <path id="DejaVuSans-6e" d="M 3513 2113 
L 3513 0 
L 2938 0 
L 2938 2094 
Q 2938 2591 2744 2837 
Q 2550 3084 2163 3084 
Q 1697 3084 1428 2787 
Q 1159 2491 1159 1978 
L 1159 0 
L 581 0 
L 581 3500 
L 1159 3500 
L 1159 2956 
Q 1366 3272 1645 3428 
Q 1925 3584 2291 3584 
Q 2894 3584 3203 3211 
Q 3513 2838 3513 2113 
z
" transform="scale(0.015625)"/>
       <path id="DejaVuSans-67" d="M 2906 1791 
Q 2906 2416 2648 2759 
Q 2391 3103 1925 3103 
Q 1463 3103 1205 2759 
Q 947 2416 947 1791 
Q 947 1169 1205 825 
Q 1463 481 1925 481 
Q 2391 481 2648 825 
Q 2906 1169 2906 1791 
z
M 3481 434 
Q 3481 -459 3084 -895 
Q 2688 -1331 1869 -1331 
Q 1566 -1331 1297 -1286 
Q 1028 -1241 775 -1147 
L 775 -588 
Q 1028 -725 1275 -790 
Q 1522 -856 1778 -856 
Q 2344 -856 2625 -561 
Q 2906 -266 2906 331 
L 2906 616 
Q 2728 306 2450 153 
Q 2172 0 1784 0 
Q 1141 0 747 490 
Q 353 981 353 1791 
Q 353 2603 747 3093 
Q 1141 3584 1784 3584 
Q 2172 3584 2450 3431 
Q 2728 3278 2906 2969 
L 2906 3500 
L 3481 3500 
L 3481 434 
z
" transform="scale(0.015625)"/>
       <path id="DejaVuSans-20" transform="scale(0.015625)"/>
       <path id="DejaVuSans-73" d="M 2834 3397 
L 2834 2853 
Q 2591 2978 2328 3040 
Q 2066 3103 1784 3103 
Q 1356 3103 1142 2972 
Q 928 2841 928 2578 
Q 928 2378 1081 2264 
Q 1234 2150 1697 2047 
L 1894 2003 
Q 2506 1872 2764 1633 
Q 3022 1394 3022 966 
Q 3022 478 2636 193 
Q 2250 -91 1575 -91 
Q 1294 -91 989 -36 
Q 684 19 347 128 
L 347 722 
Q 666 556 975 473 
Q 1284 391 1588 391 
Q 1994 391 2212 530 
Q 2431 669 2431 922 
Q 2431 1156 2273 1281 
Q 2116 1406 1581 1522 
L 1381 1569 
Q 847 1681 609 1914 
Q 372 2147 372 2553 
Q 372 3047 722 3315 
Q 1072 3584 1716 3584 
Q 2034 3584 2315 3537 
Q 2597 3491 2834 3397 
z
" transform="scale(0.015625)"/>
       <path id="DejaVuSans-74" d="M 1172 4494 
L 1172 3500 
L 2356 3500 
L 2356 3053 
L 1172 3053 
L 1172 1153 
Q 1172 725 1289 603 
Q 1406 481 1766 481 
L 2356 481 
L 2356 0 
L 1766 0 
Q 1100 0 847 248 
Q 594 497 594 1153 
L 594 3053 
L 172 3053 
L 172 3500 
L 594 3500 
L 594 4494 
L 1172 4494 
z
" transform="scale(0.015625)"/>
       <path id="DejaVuSans-65" d="M 3597 1894 
L 3597 1613 
L 953 1613 
Q 991 1019 1311 708 
Q 1631 397 2203 397 
Q 2534 397 2845 478 
Q 3156 559 3463 722 
L 3463 178 
Q 3153 47 2828 -22 
Q 2503 -91 2169 -91 
Q 1331 -91 842 396 
Q 353 884 353 1716 
Q 353 2575 817 3079 
Q 1281 3584 2069 3584 
Q 2775 3584 3186 3129 
Q 3597 2675 3597 1894 
z
M 3022 2063 
Q 3016 2534 2758 2815 
Q 2500 3097 2075 3097 
Q 1594 3097 1305 2825 
Q 1016 2553 972 2059 
L 3022 2063 
z
" transform="scale(0.015625)"/>
       <path id="DejaVuSans-70" d="M 1159 525 
L 1159 -1331 
L 581 -1331 
L 581 3500 
L 1159 3500 
L 1159 2969 
Q 1341 3281 1617 3432 
Q 1894 3584 2278 3584 
Q 2916 3584 3314 3078 
Q 3713 2572 3713 1747 
Q 3713 922 3314 415 
Q 2916 -91 2278 -91 
Q 1894 -91 1617 61 
Q 1341 213 1159 525 
z
M 3116 1747 
Q 3116 2381 2855 2742 
Q 2594 3103 2138 3103 
Q 1681 3103 1420 2742 
Q 1159 2381 1159 1747 
Q 1159 1113 1420 752 
Q 1681 391 2138 391 
Q 2594 391 2855 752 
Q 3116 1113 3116 1747 
z
" transform="scale(0.015625)"/>
      </defs>
      <use xlink:href="#DejaVuSans-54"/>
      <use xlink:href="#DejaVuSans-72" transform="translate(46.333984 0)"/>
      <use xlink:href="#DejaVuSans-61" transform="translate(87.447266 0)"/>
      <use xlink:href="#DejaVuSans-69" transform="translate(148.726562 0)"/>
      <use xlink:href="#DejaVuSans-6e" transform="translate(176.509766 0)"/>
      <use xlink:href="#DejaVuSans-69" transform="translate(239.888672 0)"/>
      <use xlink:href="#DejaVuSans-6e" transform="translate(267.671875 0)"/>
      <use xlink:href="#DejaVuSans-67" transform="translate(331.050781 0)"/>
      <use xlink:href="#DejaVuSans-20" transform="translate(394.527344 0)"/>
      <use xlink:href="#DejaVuSans-73" transform="translate(426.314453 0)"/>
      <use xlink:href="#DejaVuSans-74" transform="translate(478.414062 0)"/>
      <use xlink:href="#DejaVuSans-65" transform="translate(517.623047 0)"/>
      <use xlink:href="#DejaVuSans-70" transform="translate(579.146484 0)"/>
      <use xlink:href="#DejaVuSans-73" transform="translate(642.623047 0)"/>
     </g>
    </g>
   </g>
   <g id="matplotlib.axis_2">
    <g id="ytick_1">
     <g id="line2d_6">
      <defs>
       <path id="m70b18c4aae" d="M 0 0 
L -3.5 0 
" style="stroke: #000000; stroke-width: 0.8"/>
      </defs>
      <g>
       <use xlink:href="#m70b18c4aae" x="72" y="266.647262" style="stroke: #000000; stroke-width: 0.8"/>
      </g>
     </g>
     <g id="text_7">
      <!-- 0.2 -->
      <g transform="translate(49.096875 270.446481) scale(0.1 -0.1)">
       <defs>
        <path id="DejaVuSans-2e" d="M 684 794 
L 1344 794 
L 1344 0 
L 684 0 
L 684 794 
z
" transform="scale(0.015625)"/>
       </defs>
       <use xlink:href="#DejaVuSans-30"/>
       <use xlink:href="#DejaVuSans-2e" transform="translate(63.623047 0)"/>
       <use xlink:href="#DejaVuSans-32" transform="translate(95.410156 0)"/>
      </g>
     </g>
    </g>
    <g id="ytick_2">
     <g id="line2d_7">
      <g>
       <use xlink:href="#m70b18c4aae" x="72" y="206.12853" style="stroke: #000000; stroke-width: 0.8"/>
      </g>
     </g>
     <g id="text_8">
      <!-- 0.4 -->
      <g transform="translate(49.096875 209.927749) scale(0.1 -0.1)">
       <use xlink:href="#DejaVuSans-30"/>
       <use xlink:href="#DejaVuSans-2e" transform="translate(63.623047 0)"/>
       <use xlink:href="#DejaVuSans-34" transform="translate(95.410156 0)"/>
      </g>
     </g>
    </g>
    <g id="ytick_3">
     <g id="line2d_8">
      <g>
       <use xlink:href="#m70b18c4aae" x="72" y="145.609798" style="stroke: #000000; stroke-width: 0.8"/>
      </g>
     </g>
     <g id="text_9">
      <!-- 0.6 -->
      <g transform="translate(49.096875 149.409017) scale(0.1 -0.1)">
       <use xlink:href="#DejaVuSans-30"/>
       <use xlink:href="#DejaVuSans-2e" transform="translate(63.623047 0)"/>
       <use xlink:href="#DejaVuSans-36" transform="translate(95.410156 0)"/>
      </g>
     </g>
    </g>
    <g id="ytick_4">
     <g id="line2d_9">
      <g>
       <use xlink:href="#m70b18c4aae" x="72" y="85.091066" style="stroke: #000000; stroke-width: 0.8"/>
      </g>
     </g>
     <g id="text_10">
      <!-- 0.8 -->
      <g transform="translate(49.096875 88.890285) scale(0.1 -0.1)">
       <use xlink:href="#DejaVuSans-30"/>
       <use xlink:href="#DejaVuSans-2e" transform="translate(63.623047 0)"/>
       <use xlink:href="#DejaVuSans-38" transform="translate(95.410156 0)"/>
      </g>
     </g>
    </g>
    <g id="text_11">
     <!-- Loss -->
     <g transform="translate(43.017187 192.767187) rotate(-90) scale(0.1 -0.1)">
      <defs>
       <path id="DejaVuSans-4c" d="M 628 4666 
L 1259 4666 
L 1259 531 
L 3531 531 
L 3531 0 
L 628 0 
L 628 4666 
z
" transform="scale(0.015625)"/>
       <path id="DejaVuSans-6f" d="M 1959 3097 
Q 1497 3097 1228 2736 
Q 959 2375 959 1747 
Q 959 1119 1226 758 
Q 1494 397 1959 397 
Q 2419 397 2687 759 
Q 2956 1122 2956 1747 
Q 2956 2369 2687 2733 
Q 2419 3097 1959 3097 
z
M 1959 3584 
Q 2709 3584 3137 3096 
Q 3566 2609 3566 1747 
Q 3566 888 3137 398 
Q 2709 -91 1959 -91 
Q 1206 -91 779 398 
Q 353 888 353 1747 
Q 353 2609 779 3096 
Q 1206 3584 1959 3584 
z
" transform="scale(0.015625)"/>
      </defs>
      <use xlink:href="#DejaVuSans-4c"/>
      <use xlink:href="#DejaVuSans-6f" transform="translate(53.962891 0)"/>
      <use xlink:href="#DejaVuSans-73" transform="translate(115.144531 0)"/>
      <use xlink:href="#DejaVuSans-73" transform="translate(167.244141 0)"/>
     </g>
    </g>
   </g>
   <g id="line2d_10">
    <path d="M 72 106.000288 
L 76.509091 108.693372 
L 81.018182 126.970029 
L 85.527273 125.820173 
L 90.036364 136.743804 
L 94.545455 136.562248 
L 99.054545 139.921037 
L 103.563636 141.978674 
L 108.072727 141.555043 
L 112.581818 142.311527 
L 117.090909 149.725072 
L 121.6 147.637176 
L 126.109091 144.702017 
L 130.618182 151.812968 
L 135.127273 155.776945 
L 139.636364 161.314409 
L 144.145455 158.167435 
L 148.654545 162.040634 
L 153.163636 155.595389 
L 157.672727 158.227954 
L 162.181818 157.380692 
L 166.690909 157.804323 
L 171.2 156.230836 
L 175.709091 163.916715 
L 180.218182 171.178963 
L 184.727273 161.859078 
L 189.236364 158.318732 
L 193.745455 158.167435 
L 198.254545 166.942651 
L 202.763636 162.494524 
L 207.272727 170.785591 
L 211.781818 158.772622 
L 216.290909 170.089625 
L 220.8 165.702017 
L 225.309091 161.405187 
L 229.818182 169.212104 
L 234.327273 160.164553 
L 238.836364 164.885014 
L 243.345455 166.488761 
L 247.854545 175.475793 
L 252.363636 176.837464 
L 256.872727 170.785591 
L 261.381818 177.291354 
L 265.890909 183.101153 
L 270.4 173.539193 
L 274.909091 175.778386 
L 279.418182 184.432565 
L 283.927273 170.967147 
L 288.436364 177.866282 
L 292.945455 182.102594 
L 297.454545 175.324496 
L 301.963636 184.977233 
L 306.472727 172.72219 
L 310.981818 177.745245 
L 315.490909 187.640058 
L 320 180.589625 
L 324.509091 181.255331 
L 329.018182 175.173199 
L 333.527273 171.088184 
L 338.036364 181.527666 
L 342.545455 184.160231 
L 347.054545 177.745245 
L 351.563636 185.521902 
L 356.072727 176.05072 
L 360.581818 189.879251 
L 365.090909 175.566571 
L 369.6 180.559366 
L 374.109091 185.400865 
L 378.618182 182.223631 
L 383.127273 189.637176 
L 387.636364 193.056484 
L 392.145455 174.17464 
L 396.654545 193.934006 
L 401.163636 176.595389 
L 405.672727 187.821614 
L 410.181818 188.063689 
L 414.690909 195.14438 
L 419.2 184.341787 
L 423.709091 191.664553 
L 428.218182 192.118444 
L 432.727273 188.426801 
L 437.236364 190.908069 
L 441.745455 202.8 
L 446.254545 188.820173 
L 450.763636 197.323055 
L 455.272727 184.311527 
L 459.781818 192.75389 
L 464.290909 185.15879 
L 468.8 187.730836 
L 473.309091 201.589625 
L 477.818182 200.137176 
L 482.327273 193.812968 
L 486.836364 205.372046 
L 491.345455 196.052161 
L 495.854545 203.73804 
L 500.363636 203.859078 
L 504.872727 194.932565 
L 509.381818 208.095389 
L 513.890909 192.390778 
L 518.4 194.811527 
" clip-path="url(#p33ca49267e)" style="fill: none; stroke: #1f77b4; stroke-width: 1.5; stroke-linecap: square"/>
   </g>
   <g id="line2d_11">
    <path d="M 72 55.8 
L 76.509091 110.781268 
L 81.018182 127.302882 
L 85.527273 136.017579 
L 90.036364 122.582421 
L 94.545455 142.129971 
L 99.054545 147.939769 
L 103.563636 136.985879 
L 108.072727 137.89366 
L 112.581818 151.873487 
L 117.090909 155.232277 
L 121.6 156.109798 
L 126.109091 153.416715 
L 130.618182 152.478674 
L 135.127273 164.824496 
L 139.636364 162.797118 
L 144.145455 171.814409 
L 148.654545 150.814409 
L 153.163636 164.189049 
L 157.672727 158.530548 
L 162.181818 162.282709 
L 166.690909 163.008934 
L 171.2 175.052161 
L 175.709091 167.245245 
L 180.218182 153.931124 
L 184.727273 169.696254 
L 189.236364 156.836023 
L 193.745455 158.288473 
L 198.254545 155.413833 
L 202.763636 174.416715 
L 207.272727 171.935447 
L 211.781818 169.726513 
L 216.290909 172.873487 
L 220.8 151.934006 
L 225.309091 175.354755 
L 229.818182 163.583862 
L 234.327273 173.055043 
L 238.836364 182.859078 
L 243.345455 186.762536 
L 247.854545 184.281268 
L 252.363636 176.867723 
L 256.872727 173.176081 
L 261.381818 186.671758 
L 265.890909 171.057925 
L 270.4 188.457061 
L 274.909091 161.617003 
L 279.418182 181.31585 
L 283.927273 175.838905 
L 288.436364 189.243804 
L 292.945455 188.124207 
L 297.454545 186.853314 
L 301.963636 194.115562 
L 306.472727 178.895101 
L 310.981818 181.921037 
L 315.490909 190.302882 
L 320 189.788473 
L 324.509091 191.573775 
L 329.018182 180.438329 
L 333.527273 185.400865 
L 338.036364 182.889337 
L 342.545455 195.900865 
L 347.054545 175.869164 
L 351.563636 192.118444 
L 356.072727 188.759654 
L 360.581818 187.246686 
L 365.090909 181.588184 
L 369.6 186.974352 
L 374.109091 188.880692 
L 378.618182 184.341787 
L 383.127273 192.178963 
L 387.636364 193.812968 
L 392.145455 186.520461 
L 396.654545 202.527666 
L 401.163636 181.890778 
L 405.672727 191.301441 
L 410.181818 200.076657 
L 414.690909 191.271182 
L 419.2 196.59683 
L 423.709091 196.959942 
L 428.218182 192.118444 
L 432.727273 199.592507 
L 437.236364 189.788473 
L 441.745455 199.743804 
L 446.254545 202.467147 
L 450.763636 207.55072 
L 455.272727 193.570893 
L 459.781818 195.17464 
L 464.290909 199.047839 
L 468.8 198.654467 
L 473.309091 208.972911 
L 477.818182 203.949856 
L 482.327273 209.093948 
L 486.836364 204.191931 
L 491.345455 214.934006 
L 495.854545 204.948415 
L 500.363636 212.876369 
L 504.872727 204.978674 
L 509.381818 220.108357 
L 513.890909 194.902305 
L 518.4 207.732277 
" clip-path="url(#p33ca49267e)" style="fill: none; stroke: #ff7f0e; stroke-width: 1.5; stroke-linecap: square"/>
   </g>
   <g id="line2d_12">
    <path d="M 72 201.075216 
L 76.509091 250.004611 
L 81.018182 241.92536 
L 85.527273 234.663112 
L 90.036364 255.572334 
L 94.545455 247.372046 
L 99.054545 251.457061 
L 103.563636 251.093948 
L 108.072727 253.39366 
L 112.581818 247.795677 
L 117.090909 267.403746 
L 121.6 252.546398 
L 126.109091 251.94121 
L 130.618182 252.031988 
L 135.127273 253.333141 
L 139.636364 267.494524 
L 144.145455 259.203458 
L 148.654545 274.121326 
L 153.163636 262.199135 
L 157.672727 268.462824 
L 162.181818 269.431124 
L 166.690909 267.312968 
L 171.2 260.56513 
L 175.709091 267.22219 
L 180.218182 263.016138 
L 184.727273 267.312968 
L 189.236364 263.258213 
L 193.745455 265.769741 
L 198.254545 258.083862 
L 202.763636 270.248127 
L 207.272727 268.493084 
L 211.781818 256.964265 
L 216.290909 261.50317 
L 220.8 264.650144 
L 225.309091 257.115562 
L 229.818182 255.663112 
L 234.327273 269.279827 
L 238.836364 259.415274 
L 243.345455 266.465706 
L 247.854545 271.216427 
L 252.363636 264.498847 
L 256.872727 259.021902 
L 261.381818 261.866282 
L 265.890909 278.781268 
L 270.4 266.647262 
L 274.909091 267.676081 
L 279.418182 275.725072 
L 283.927273 254.785591 
L 288.436364 279.477233 
L 292.945455 270.459942 
L 297.454545 264.650144 
L 301.963636 285.559366 
L 306.472727 275.452738 
L 310.981818 265.860519 
L 315.490909 283.592507 
L 320 267.161671 
L 324.509091 284.621326 
L 329.018182 273.304323 
L 333.527273 261.472911 
L 338.036364 274.544957 
L 342.545455 280.173199 
L 347.054545 273.818732 
L 351.563636 269.15879 
L 356.072727 265.981556 
L 360.581818 277.540634 
L 365.090909 262.95562 
L 369.6 274.212104 
L 374.109091 261.775504 
L 378.618182 270.036311 
L 383.127273 264.135735 
L 387.636364 277.994524 
L 392.145455 274.696254 
L 396.654545 278.599712 
L 401.163636 281.292795 
L 405.672727 282.200576 
L 410.181818 274.544957 
L 414.690909 274.635735 
L 419.2 277.601153 
L 423.709091 270.762536 
L 428.218182 275.452738 
L 432.727273 286.164553 
L 437.236364 278.902305 
L 441.745455 282.98732 
L 446.254545 276.330259 
L 450.763636 283.199135 
L 455.272727 260.867723 
L 459.781818 287.435447 
L 464.290909 280.475793 
L 468.8 280.354755 
L 473.309091 282.382133 
L 477.818182 289.129971 
L 482.327273 272.396542 
L 486.836364 288.645821 
L 491.345455 293.396542 
L 495.854545 286.436888 
L 500.363636 297.75389 
L 504.872727 271.821614 
L 509.381818 303.775504 
L 513.890909 271.640058 
L 518.4 268.281268 
" clip-path="url(#p33ca49267e)" style="fill: none; stroke: #2ca02c; stroke-width: 1.5; stroke-linecap: square"/>
   </g>
   <g id="line2d_13">
    <path d="M 72 161.011816 
L 76.509091 201.226513 
L 81.018182 214.117003 
L 85.527273 221.772622 
L 90.036364 223.194813 
L 94.545455 210.90951 
L 99.054545 214.086744 
L 103.563636 224.526225 
L 108.072727 205.008934 
L 112.581818 211.091066 
L 117.090909 228.974352 
L 121.6 181.31585 
L 126.109091 216.17464 
L 130.618182 232.423919 
L 135.127273 225.434006 
L 139.636364 235.934006 
L 144.145455 222.982997 
L 148.654545 234.965706 
L 153.163636 218.504611 
L 157.672727 234.330259 
L 162.181818 247.160231 
L 166.690909 228.520461 
L 171.2 228.823055 
L 175.709091 235.510375 
L 180.218182 235.570893 
L 184.727273 232.091066 
L 189.236364 225.22219 
L 193.745455 223.557925 
L 198.254545 210.758213 
L 202.763636 216.507493 
L 207.272727 222.256772 
L 211.781818 216.900865 
L 216.290909 224.011816 
L 220.8 218.655908 
L 225.309091 213.511816 
L 229.818182 225.524784 
L 234.327273 227.007493 
L 238.836364 235.631412 
L 243.345455 217.687608 
L 247.854545 234.874928 
L 252.363636 227.037752 
L 256.872727 239.111239 
L 261.381818 252.183285 
L 265.890909 232.665994 
L 270.4 236.902305 
L 274.909091 237.991643 
L 279.418182 248.733718 
L 283.927273 222.317291 
L 288.436364 257.902305 
L 292.945455 239.504611 
L 297.454545 214.419597 
L 301.963636 252.334582 
L 306.472727 239.686167 
L 310.981818 236.932565 
L 315.490909 237.416715 
L 320 250.670317 
L 324.509091 257.872046 
L 329.018182 236.024784 
L 333.527273 244.527666 
L 338.036364 249.429683 
L 342.545455 235.117003 
L 347.054545 236.629971 
L 351.563636 247.886455 
L 356.072727 244.951297 
L 360.581818 243.8317 
L 365.090909 259.990202 
L 369.6 247.765418 
L 374.109091 244.648703 
L 378.618182 242.712104 
L 383.127273 232.787032 
L 387.636364 256.207781 
L 392.145455 260.56513 
L 396.654545 258.356196 
L 401.163636 251.910951 
L 405.672727 268.432565 
L 410.181818 265.678963 
L 414.690909 254.936888 
L 419.2 270.671758 
L 423.709091 256.601153 
L 428.218182 269.037752 
L 432.727273 258.325937 
L 437.236364 268.341787 
L 441.745455 271.730836 
L 446.254545 258.598271 
L 450.763636 264.589625 
L 455.272727 249.913833 
L 459.781818 274.454179 
L 464.290909 262.44121 
L 468.8 269.915274 
L 473.309091 266.223631 
L 477.818182 269.068012 
L 482.327273 267.434006 
L 486.836364 263.439769 
L 491.345455 277.964265 
L 495.854545 268.67464 
L 500.363636 281.928242 
L 504.872727 269.915274 
L 509.381818 278.599712 
L 513.890909 267.857637 
L 518.4 259.11268 
" clip-path="url(#p33ca49267e)" style="fill: none; stroke: #d62728; stroke-width: 1.5; stroke-linecap: square"/>
   </g>
   <g id="line2d_14">
    <path d="M 72 195.17464 
L 76.509091 229.06513 
L 81.018182 270.520461 
L 85.527273 244.618444 
L 90.036364 260.807205 
L 94.545455 256.117003 
L 99.054545 274.544957 
L 103.563636 267.827378 
L 108.072727 257.932565 
L 112.581818 255.360519 
L 117.090909 265.678963 
L 121.6 268.946974 
L 126.109091 254.059366 
L 130.618182 274.030548 
L 135.127273 271.06513 
L 139.636364 275.180403 
L 144.145455 248.582421 
L 148.654545 271.54928 
L 153.163636 268.462824 
L 157.672727 266.73804 
L 162.181818 266.949856 
L 166.690909 257.993084 
L 171.2 273.274063 
L 175.709091 273.758213 
L 180.218182 279.446974 
L 184.727273 278.993084 
L 189.236364 269.582421 
L 193.745455 269.340346 
L 198.254545 256.328818 
L 202.763636 276.269741 
L 207.272727 270.09683 
L 211.781818 255.542075 
L 216.290909 271.761095 
L 220.8 268.281268 
L 225.309091 247.735159 
L 229.818182 262.683285 
L 234.327273 273.092507 
L 238.836364 265.557925 
L 243.345455 267.312968 
L 247.854545 282.533429 
L 252.363636 271.186167 
L 256.872727 268.735159 
L 261.381818 270.157349 
L 265.890909 287.25389 
L 270.4 273.334582 
L 274.909091 267.494524 
L 279.418182 278.387896 
L 283.927273 265.739481 
L 288.436364 288.282709 
L 292.945455 271.821614 
L 297.454545 268.341787 
L 301.963636 282.140058 
L 306.472727 286.34611 
L 310.981818 263.197695 
L 315.490909 283.501729 
L 320 284.560807 
L 324.509091 280.536311 
L 329.018182 287.405187 
L 333.527273 269.400865 
L 338.036364 283.653026 
L 342.545455 278.20634 
L 347.054545 277.934006 
L 351.563636 272.093948 
L 356.072727 272.305764 
L 360.581818 281.897983 
L 365.090909 280.778386 
L 369.6 285.014697 
L 374.109091 275.119885 
L 378.618182 284.591066 
L 383.127273 281.383573 
L 387.636364 288.676081 
L 392.145455 281.202017 
L 396.654545 284.137176 
L 401.163636 297.360519 
L 405.672727 286.406628 
L 410.181818 280.233718 
L 414.690909 284.591066 
L 419.2 281.08098 
L 423.709091 280.778386 
L 428.218182 289.462824 
L 432.727273 284.379251 
L 437.236364 290.854755 
L 441.745455 285.226513 
L 446.254545 287.072334 
L 450.763636 284.802882 
L 455.272727 282.079539 
L 459.781818 295.242363 
L 464.290909 286.467147 
L 468.8 287.405187 
L 473.309091 290.249568 
L 477.818182 299.508934 
L 482.327273 287.314409 
L 486.836364 294.092507 
L 491.345455 298.873487 
L 495.854545 294.516138 
L 500.363636 307.8 
L 504.872727 292.125648 
L 509.381818 300.265418 
L 513.890909 289.281268 
L 518.4 286.376369 
" clip-path="url(#p33ca49267e)" style="fill: none; stroke: #9467bd; stroke-width: 1.5; stroke-linecap: square"/>
   </g>
   <g id="line2d_15">
    <path d="M 72 223.860519 
L 76.509091 244.860519 
L 81.018182 264.014697 
L 85.527273 259.717867 
L 90.036364 268.583862 
L 94.545455 253.696254 
L 99.054545 258.689049 
L 103.563636 268.311527 
L 108.072727 261.230836 
L 112.581818 266.072334 
L 117.090909 278.266859 
L 121.6 266.495965 
L 126.109091 258.900865 
L 130.618182 272.00317 
L 135.127273 275.604035 
L 139.636364 268.19049 
L 144.145455 261.412392 
L 148.654545 283.501729 
L 153.163636 265.921037 
L 157.672727 268.251009 
L 162.181818 278.20634 
L 166.690909 278.811527 
L 171.2 279.931124 
L 175.709091 275.029107 
L 180.218182 268.432565 
L 184.727273 276.481556 
L 189.236364 270.187608 
L 193.745455 273.939769 
L 198.254545 255.935447 
L 202.763636 270.09683 
L 207.272727 267.736599 
L 211.781818 254.180403 
L 216.290909 268.251009 
L 220.8 264.589625 
L 225.309091 281.504611 
L 229.818182 265.618444 
L 234.327273 277.75245 
L 238.836364 261.745245 
L 243.345455 269.885014 
L 247.854545 292.51902 
L 252.363636 265.890778 
L 256.872727 268.372046 
L 261.381818 271.912392 
L 265.890909 283.047839 
L 270.4 279.900865 
L 274.909091 280.173199 
L 279.418182 281.08098 
L 283.927273 275.452738 
L 288.436364 288.797118 
L 292.945455 274.817291 
L 297.454545 274.181844 
L 301.963636 286.406628 
L 306.472727 286.527666 
L 310.981818 271.700576 
L 315.490909 287.677522 
L 320 284.802882 
L 324.509091 289.432565 
L 329.018182 281.020461 
L 333.527273 273.092507 
L 338.036364 285.165994 
L 342.545455 287.495965 
L 347.054545 270.55072 
L 351.563636 278.962824 
L 356.072727 281.897983 
L 360.581818 283.501729 
L 365.090909 275.81585 
L 369.6 285.982997 
L 374.109091 280.687608 
L 378.618182 283.017579 
L 383.127273 283.713545 
L 387.636364 280.294236 
L 392.145455 290.007493 
L 396.654545 283.047839 
L 401.163636 291.55072 
L 405.672727 291.066571 
L 410.181818 276.75389 
L 414.690909 278.085303 
L 419.2 284.167435 
L 423.709091 285.075216 
L 428.218182 278.69049 
L 432.727273 290.219308 
L 437.236364 282.140058 
L 441.745455 290.249568 
L 446.254545 283.44121 
L 450.763636 290.703458 
L 455.272727 282.533429 
L 459.781818 290.794236 
L 464.290909 281.807205 
L 468.8 294.395101 
L 473.309091 292.03487 
L 477.818182 296.36196 
L 482.327273 281.353314 
L 486.836364 303.836023 
L 491.345455 300.356196 
L 495.854545 283.168876 
L 500.363636 298.934006 
L 504.872727 293.366282 
L 509.381818 301.324496 
L 513.890909 284.621326 
L 518.4 285.37781 
" clip-path="url(#p33ca49267e)" style="fill: none; stroke: #8c564b; stroke-width: 1.5; stroke-linecap: square"/>
   </g>
   <g id="line2d_16">
    <path d="M 72 175.506052 
L 76.509091 226.765418 
L 81.018182 220.410951 
L 85.527273 205.129971 
L 90.036364 239.716427 
L 94.545455 219.140058 
L 99.054545 228.974352 
L 103.563636 233.301441 
L 108.072727 229.307205 
L 112.581818 218.474352 
L 117.090909 235.994524 
L 121.6 215.69049 
L 126.109091 225.373487 
L 130.618182 225.010375 
L 135.127273 249.308646 
L 139.636364 237.65879 
L 144.145455 219.836023 
L 148.654545 211.151585 
L 153.163636 225.585303 
L 157.672727 237.749568 
L 162.181818 239.958501 
L 166.690909 206.521902 
L 171.2 226.432565 
L 175.709091 246.827378 
L 180.218182 223.890778 
L 184.727273 219.50317 
L 189.236364 231.848991 
L 193.745455 214.570893 
L 198.254545 223.921037 
L 202.763636 237.719308 
L 207.272727 228.853314 
L 211.781818 226.432565 
L 216.290909 238.021902 
L 220.8 242.621326 
L 225.309091 233.240922 
L 229.818182 228.792795 
L 234.327273 238.778386 
L 238.836364 244.497406 
L 243.345455 239.595389 
L 247.854545 251.578098 
L 252.363636 229.54928 
L 256.872727 244.225072 
L 261.381818 240.714986 
L 265.890909 260.383573 
L 270.4 244.709222 
L 274.909091 248.15879 
L 279.418182 248.12853 
L 283.927273 239.958501 
L 288.436364 255.995965 
L 292.945455 251.94121 
L 297.454545 241.622767 
L 301.963636 261.684726 
L 306.472727 234.481556 
L 310.981818 243.8317 
L 315.490909 259.203458 
L 320 250.912392 
L 324.509091 253.787032 
L 329.018182 252.274063 
L 333.527273 247.099712 
L 338.036364 246.70634 
L 342.545455 254.089625 
L 347.054545 245.163112 
L 351.563636 253.181844 
L 356.072727 252.939769 
L 360.581818 243.498847 
L 365.090909 248.249568 
L 369.6 248.582421 
L 374.109091 249.732277 
L 378.618182 255.572334 
L 383.127273 263.500288 
L 387.636364 267.040634 
L 392.145455 272.063689 
L 396.654545 270.58098 
L 401.163636 258.386455 
L 405.672727 265.921037 
L 410.181818 263.89366 
L 414.690909 265.557925 
L 419.2 270.732277 
L 423.709091 261.170317 
L 428.218182 270.459942 
L 432.727273 261.442651 
L 437.236364 269.340346 
L 441.745455 264.982997 
L 446.254545 257.115562 
L 450.763636 274.514697 
L 455.272727 254.755331 
L 459.781818 273.637176 
L 464.290909 269.824496 
L 468.8 263.954179 
L 473.309091 278.660231 
L 477.818182 283.410951 
L 482.327273 287.223631 
L 486.836364 283.259654 
L 491.345455 286.194813 
L 495.854545 280.808646 
L 500.363636 301.778386 
L 504.872727 266.193372 
L 509.381818 305.106916 
L 513.890909 271.276945 
L 518.4 275.755331 
" clip-path="url(#p33ca49267e)" style="fill: none; stroke: #e377c2; stroke-width: 1.5; stroke-linecap: square"/>
   </g>
   <g id="line2d_17">
    <path d="M 72 212.634294 
L 76.509091 238.959942 
L 81.018182 263.197695 
L 85.527273 246.978674 
L 90.036364 260.353314 
L 94.545455 246.918156 
L 99.054545 272.336023 
L 103.563636 272.517579 
L 108.072727 250.51902 
L 112.581818 229.397983 
L 117.090909 207.55072 
L 121.6 241.078098 
L 126.109091 235.026225 
L 130.618182 259.687608 
L 135.127273 261.079539 
L 139.636364 277.23804 
L 144.145455 261.805764 
L 148.654545 278.781268 
L 153.163636 271.579539 
L 157.672727 258.840346 
L 162.181818 265.618444 
L 166.690909 265.769741 
L 171.2 258.568012 
L 175.709091 256.207781 
L 180.218182 272.305764 
L 184.727273 271.186167 
L 189.236364 269.249568 
L 193.745455 268.977233 
L 198.254545 264.135735 
L 202.763636 261.079539 
L 207.272727 271.004611 
L 211.781818 256.480115 
L 216.290909 267.464265 
L 220.8 254.392219 
L 225.309091 262.320173 
L 229.818182 267.101153 
L 234.327273 275.119885 
L 238.836364 263.137176 
L 243.345455 263.954179 
L 247.854545 272.608357 
L 252.363636 266.949856 
L 256.872727 269.885014 
L 261.381818 276.027666 
L 265.890909 280.929683 
L 270.4 268.64438 
L 274.909091 282.351873 
L 279.418182 269.61268 
L 283.927273 258.870605 
L 288.436364 288.282709 
L 292.945455 275.119885 
L 297.454545 251.517579 
L 301.963636 284.106916 
L 306.472727 287.919597 
L 310.981818 273.485879 
L 315.490909 281.958501 
L 320 273.546398 
L 324.509091 287.677522 
L 329.018182 287.828818 
L 333.527273 264.86196 
L 338.036364 289.432565 
L 342.545455 277.056484 
L 347.054545 266.556484 
L 351.563636 271.882133 
L 356.072727 283.199135 
L 360.581818 277.812968 
L 365.090909 278.448415 
L 369.6 280.687608 
L 374.109091 281.141499 
L 378.618182 282.200576 
L 383.127273 281.292795 
L 387.636364 282.866282 
L 392.145455 285.86196 
L 396.654545 289.251009 
L 401.163636 294.818732 
L 405.672727 290.15879 
L 410.181818 287.042075 
L 414.690909 286.406628 
L 419.2 287.374928 
L 423.709091 278.448415 
L 428.218182 269.794236 
L 432.727273 295.242363 
L 437.236364 282.805764 
L 441.745455 285.408069 
L 446.254545 282.593948 
L 450.763636 286.467147 
L 455.272727 280.959942 
L 459.781818 295.726513 
L 464.290909 284.197695 
L 468.8 290.249568 
L 473.309091 290.582421 
L 477.818182 297.995965 
L 482.327273 277.964265 
L 486.836364 302.292795 
L 491.345455 295.817291 
L 495.854545 293.638617 
L 500.363636 298.298559 
L 504.872727 291.58098 
L 509.381818 302.655908 
L 513.890909 286.648703 
L 518.4 286.981556 
" clip-path="url(#p33ca49267e)" style="fill: none; stroke: #7f7f7f; stroke-width: 1.5; stroke-linecap: square"/>
   </g>
   <g id="patch_3">
    <path d="M 72 320.4 
L 72 43.2 
" style="fill: none; stroke: #000000; stroke-width: 0.8; stroke-linejoin: miter; stroke-linecap: square"/>
   </g>
   <g id="patch_4">
    <path d="M 518.4 320.4 
L 518.4 43.2 
" style="fill: none; stroke: #000000; stroke-width: 0.8; stroke-linejoin: miter; stroke-linecap: square"/>
   </g>
   <g id="patch_5">
    <path d="M 72 320.4 
L 518.4 320.4 
" style="fill: none; stroke: #000000; stroke-width: 0.8; stroke-linejoin: miter; stroke-linecap: square"/>
   </g>
   <g id="patch_6">
    <path d="M 72 43.2 
L 518.4 43.2 
" style="fill: none; stroke: #000000; stroke-width: 0.8; stroke-linejoin: miter; stroke-linecap: square"/>
   </g>
   <g id="text_12">
    <!-- Human or Worm (Demo) -->
    <g transform="translate(221.736562 37.2) scale(0.12 -0.12)">
     <defs>
      <path id="DejaVuSans-48" d="M 628 4666 
L 1259 4666 
L 1259 2753 
L 3553 2753 
L 3553 4666 
L 4184 4666 
L 4184 0 
L 3553 0 
L 3553 2222 
L 1259 2222 
L 1259 0 
L 628 0 
L 628 4666 
z
" transform="scale(0.015625)"/>
      <path id="DejaVuSans-75" d="M 544 1381 
L 544 3500 
L 1119 3500 
L 1119 1403 
Q 1119 906 1312 657 
Q 1506 409 1894 409 
Q 2359 409 2629 706 
Q 2900 1003 2900 1516 
L 2900 3500 
L 3475 3500 
L 3475 0 
L 2900 0 
L 2900 538 
Q 2691 219 2414 64 
Q 2138 -91 1772 -91 
Q 1169 -91 856 284 
Q 544 659 544 1381 
z
M 1991 3584 
L 1991 3584 
z
" transform="scale(0.015625)"/>
      <path id="DejaVuSans-6d" d="M 3328 2828 
Q 3544 3216 3844 3400 
Q 4144 3584 4550 3584 
Q 5097 3584 5394 3201 
Q 5691 2819 5691 2113 
L 5691 0 
L 5113 0 
L 5113 2094 
Q 5113 2597 4934 2840 
Q 4756 3084 4391 3084 
Q 3944 3084 3684 2787 
Q 3425 2491 3425 1978 
L 3425 0 
L 2847 0 
L 2847 2094 
Q 2847 2600 2669 2842 
Q 2491 3084 2119 3084 
Q 1678 3084 1418 2786 
Q 1159 2488 1159 1978 
L 1159 0 
L 581 0 
L 581 3500 
L 1159 3500 
L 1159 2956 
Q 1356 3278 1631 3431 
Q 1906 3584 2284 3584 
Q 2666 3584 2933 3390 
Q 3200 3197 3328 2828 
z
" transform="scale(0.015625)"/>
      <path id="DejaVuSans-57" d="M 213 4666 
L 850 4666 
L 1831 722 
L 2809 4666 
L 3519 4666 
L 4500 722 
L 5478 4666 
L 6119 4666 
L 4947 0 
L 4153 0 
L 3169 4050 
L 2175 0 
L 1381 0 
L 213 4666 
z
" transform="scale(0.015625)"/>
      <path id="DejaVuSans-28" d="M 1984 4856 
Q 1566 4138 1362 3434 
Q 1159 2731 1159 2009 
Q 1159 1288 1364 580 
Q 1569 -128 1984 -844 
L 1484 -844 
Q 1016 -109 783 600 
Q 550 1309 550 2009 
Q 550 2706 781 3412 
Q 1013 4119 1484 4856 
L 1984 4856 
z
" transform="scale(0.015625)"/>
      <path id="DejaVuSans-44" d="M 1259 4147 
L 1259 519 
L 2022 519 
Q 2988 519 3436 956 
Q 3884 1394 3884 2338 
Q 3884 3275 3436 3711 
Q 2988 4147 2022 4147 
L 1259 4147 
z
M 628 4666 
L 1925 4666 
Q 3281 4666 3915 4102 
Q 4550 3538 4550 2338 
Q 4550 1131 3912 565 
Q 3275 0 1925 0 
L 628 0 
L 628 4666 
z
" transform="scale(0.015625)"/>
      <path id="DejaVuSans-29" d="M 513 4856 
L 1013 4856 
Q 1481 4119 1714 3412 
Q 1947 2706 1947 2009 
Q 1947 1309 1714 600 
Q 1481 -109 1013 -844 
L 513 -844 
Q 928 -128 1133 580 
Q 1338 1288 1338 2009 
Q 1338 2731 1133 3434 
Q 928 4138 513 4856 
z
" transform="scale(0.015625)"/>
     </defs>
     <use xlink:href="#DejaVuSans-48"/>
     <use xlink:href="#DejaVuSans-75" transform="translate(75.195312 0)"/>
     <use xlink:href="#DejaVuSans-6d" transform="translate(138.574219 0)"/>
     <use xlink:href="#DejaVuSans-61" transform="translate(235.986328 0)"/>
     <use xlink:href="#DejaVuSans-6e" transform="translate(297.265625 0)"/>
     <use xlink:href="#DejaVuSans-20" transform="translate(360.644531 0)"/>
     <use xlink:href="#DejaVuSans-6f" transform="translate(392.431641 0)"/>
     <use xlink:href="#DejaVuSans-72" transform="translate(453.613281 0)"/>
     <use xlink:href="#DejaVuSans-20" transform="translate(494.726562 0)"/>
     <use xlink:href="#DejaVuSans-57" transform="translate(526.513672 0)"/>
     <use xlink:href="#DejaVuSans-6f" transform="translate(619.515625 0)"/>
     <use xlink:href="#DejaVuSans-72" transform="translate(680.697266 0)"/>
     <use xlink:href="#DejaVuSans-6d" transform="translate(720.060547 0)"/>
     <use xlink:href="#DejaVuSans-20" transform="translate(817.472656 0)"/>
     <use xlink:href="#DejaVuSans-28" transform="translate(849.259766 0)"/>
     <use xlink:href="#DejaVuSans-44" transform="translate(888.273438 0)"/>
     <use xlink:href="#DejaVuSans-65" transform="translate(965.275391 0)"/>
     <use xlink:href="#DejaVuSans-6d" transform="translate(1026.798828 0)"/>
     <use xlink:href="#DejaVuSans-6f" transform="translate(1124.210938 0)"/>
     <use xlink:href="#DejaVuSans-29" transform="translate(1185.392578 0)"/>
    </g>
   </g>
   <g id="legend_1">
    <g id="patch_7">
     <path d="M 334.210684 147.679025 
L 512.569 147.679025 
Q 514.235 147.679025 514.235 146.013025 
L 514.235 49.031 
Q 514.235 47.365 512.569 47.365 
L 334.210684 47.365 
Q 332.544684 47.365 332.544684 49.031 
L 332.544684 146.013025 
Q 332.544684 147.679025 334.210684 147.679025 
z
" style="fill: #ffffff; opacity: 0.8; stroke: #cccccc; stroke-linejoin: miter"/>
    </g>
    <g id="line2d_18">
     <path d="M 335.876684 54.110998 
L 344.206684 54.110998 
L 352.536684 54.110998 
" style="fill: none; stroke: #1f77b4; stroke-width: 1.5; stroke-linecap: square"/>
    </g>
    <g id="text_13">
     <!-- NT-MS V2 (50M) with rand. weights -->
     <g transform="translate(359.200684 57.026498) scale(0.0833 -0.0833)">
      <defs>
       <path id="DejaVuSans-4e" d="M 628 4666 
L 1478 4666 
L 3547 763 
L 3547 4666 
L 4159 4666 
L 4159 0 
L 3309 0 
L 1241 3903 
L 1241 0 
L 628 0 
L 628 4666 
z
" transform="scale(0.015625)"/>
       <path id="DejaVuSans-2d" d="M 313 2009 
L 1997 2009 
L 1997 1497 
L 313 1497 
L 313 2009 
z
" transform="scale(0.015625)"/>
       <path id="DejaVuSans-4d" d="M 628 4666 
L 1569 4666 
L 2759 1491 
L 3956 4666 
L 4897 4666 
L 4897 0 
L 4281 0 
L 4281 4097 
L 3078 897 
L 2444 897 
L 1241 4097 
L 1241 0 
L 628 0 
L 628 4666 
z
" transform="scale(0.015625)"/>
       <path id="DejaVuSans-53" d="M 3425 4513 
L 3425 3897 
Q 3066 4069 2747 4153 
Q 2428 4238 2131 4238 
Q 1616 4238 1336 4038 
Q 1056 3838 1056 3469 
Q 1056 3159 1242 3001 
Q 1428 2844 1947 2747 
L 2328 2669 
Q 3034 2534 3370 2195 
Q 3706 1856 3706 1288 
Q 3706 609 3251 259 
Q 2797 -91 1919 -91 
Q 1588 -91 1214 -16 
Q 841 59 441 206 
L 441 856 
Q 825 641 1194 531 
Q 1563 422 1919 422 
Q 2459 422 2753 634 
Q 3047 847 3047 1241 
Q 3047 1584 2836 1778 
Q 2625 1972 2144 2069 
L 1759 2144 
Q 1053 2284 737 2584 
Q 422 2884 422 3419 
Q 422 4038 858 4394 
Q 1294 4750 2059 4750 
Q 2388 4750 2728 4690 
Q 3069 4631 3425 4513 
z
" transform="scale(0.015625)"/>
       <path id="DejaVuSans-56" d="M 1831 0 
L 50 4666 
L 709 4666 
L 2188 738 
L 3669 4666 
L 4325 4666 
L 2547 0 
L 1831 0 
z
" transform="scale(0.015625)"/>
       <path id="DejaVuSans-35" d="M 691 4666 
L 3169 4666 
L 3169 4134 
L 1269 4134 
L 1269 2991 
Q 1406 3038 1543 3061 
Q 1681 3084 1819 3084 
Q 2600 3084 3056 2656 
Q 3513 2228 3513 1497 
Q 3513 744 3044 326 
Q 2575 -91 1722 -91 
Q 1428 -91 1123 -41 
Q 819 9 494 109 
L 494 744 
Q 775 591 1075 516 
Q 1375 441 1709 441 
Q 2250 441 2565 725 
Q 2881 1009 2881 1497 
Q 2881 1984 2565 2268 
Q 2250 2553 1709 2553 
Q 1456 2553 1204 2497 
Q 953 2441 691 2322 
L 691 4666 
z
" transform="scale(0.015625)"/>
       <path id="DejaVuSans-77" d="M 269 3500 
L 844 3500 
L 1563 769 
L 2278 3500 
L 2956 3500 
L 3675 769 
L 4391 3500 
L 4966 3500 
L 4050 0 
L 3372 0 
L 2619 2869 
L 1863 0 
L 1184 0 
L 269 3500 
z
" transform="scale(0.015625)"/>
       <path id="DejaVuSans-68" d="M 3513 2113 
L 3513 0 
L 2938 0 
L 2938 2094 
Q 2938 2591 2744 2837 
Q 2550 3084 2163 3084 
Q 1697 3084 1428 2787 
Q 1159 2491 1159 1978 
L 1159 0 
L 581 0 
L 581 4863 
L 1159 4863 
L 1159 2956 
Q 1366 3272 1645 3428 
Q 1925 3584 2291 3584 
Q 2894 3584 3203 3211 
Q 3513 2838 3513 2113 
z
" transform="scale(0.015625)"/>
       <path id="DejaVuSans-64" d="M 2906 2969 
L 2906 4863 
L 3481 4863 
L 3481 0 
L 2906 0 
L 2906 525 
Q 2725 213 2448 61 
Q 2172 -91 1784 -91 
Q 1150 -91 751 415 
Q 353 922 353 1747 
Q 353 2572 751 3078 
Q 1150 3584 1784 3584 
Q 2172 3584 2448 3432 
Q 2725 3281 2906 2969 
z
M 947 1747 
Q 947 1113 1208 752 
Q 1469 391 1925 391 
Q 2381 391 2643 752 
Q 2906 1113 2906 1747 
Q 2906 2381 2643 2742 
Q 2381 3103 1925 3103 
Q 1469 3103 1208 2742 
Q 947 2381 947 1747 
z
" transform="scale(0.015625)"/>
      </defs>
      <use xlink:href="#DejaVuSans-4e"/>
      <use xlink:href="#DejaVuSans-54" transform="translate(74.804688 0)"/>
      <use xlink:href="#DejaVuSans-2d" transform="translate(126.763672 0)"/>
      <use xlink:href="#DejaVuSans-4d" transform="translate(162.847656 0)"/>
      <use xlink:href="#DejaVuSans-53" transform="translate(249.126953 0)"/>
      <use xlink:href="#DejaVuSans-20" transform="translate(312.603516 0)"/>
      <use xlink:href="#DejaVuSans-56" transform="translate(344.390625 0)"/>
      <use xlink:href="#DejaVuSans-32" transform="translate(412.798828 0)"/>
      <use xlink:href="#DejaVuSans-20" transform="translate(476.421875 0)"/>
      <use xlink:href="#DejaVuSans-28" transform="translate(508.208984 0)"/>
      <use xlink:href="#DejaVuSans-35" transform="translate(547.222656 0)"/>
      <use xlink:href="#DejaVuSans-30" transform="translate(610.845703 0)"/>
      <use xlink:href="#DejaVuSans-4d" transform="translate(674.46875 0)"/>
      <use xlink:href="#DejaVuSans-29" transform="translate(760.748047 0)"/>
      <use xlink:href="#DejaVuSans-20" transform="translate(799.761719 0)"/>
      <use xlink:href="#DejaVuSans-77" transform="translate(831.548828 0)"/>
      <use xlink:href="#DejaVuSans-69" transform="translate(913.335938 0)"/>
      <use xlink:href="#DejaVuSans-74" transform="translate(941.119141 0)"/>
      <use xlink:href="#DejaVuSans-68" transform="translate(980.328125 0)"/>
      <use xlink:href="#DejaVuSans-20" transform="translate(1043.707031 0)"/>
      <use xlink:href="#DejaVuSans-72" transform="translate(1075.494141 0)"/>
      <use xlink:href="#DejaVuSans-61" transform="translate(1116.607422 0)"/>
      <use xlink:href="#DejaVuSans-6e" transform="translate(1177.886719 0)"/>
      <use xlink:href="#DejaVuSans-64" transform="translate(1241.265625 0)"/>
      <use xlink:href="#DejaVuSans-2e" transform="translate(1304.742188 0)"/>
      <use xlink:href="#DejaVuSans-20" transform="translate(1336.529297 0)"/>
      <use xlink:href="#DejaVuSans-77" transform="translate(1368.316406 0)"/>
      <use xlink:href="#DejaVuSans-65" transform="translate(1450.103516 0)"/>
      <use xlink:href="#DejaVuSans-69" transform="translate(1511.626953 0)"/>
      <use xlink:href="#DejaVuSans-67" transform="translate(1539.410156 0)"/>
      <use xlink:href="#DejaVuSans-68" transform="translate(1602.886719 0)"/>
      <use xlink:href="#DejaVuSans-74" transform="translate(1666.265625 0)"/>
      <use xlink:href="#DejaVuSans-73" transform="translate(1705.474609 0)"/>
     </g>
    </g>
    <g id="line2d_19">
     <path d="M 335.876684 66.337877 
L 344.206684 66.337877 
L 352.536684 66.337877 
" style="fill: none; stroke: #ff7f0e; stroke-width: 1.5; stroke-linecap: square"/>
    </g>
    <g id="text_14">
     <!-- NT-MS V2 (500M) with rand. weights -->
     <g transform="translate(359.200684 69.253377) scale(0.0833 -0.0833)">
      <use xlink:href="#DejaVuSans-4e"/>
      <use xlink:href="#DejaVuSans-54" transform="translate(74.804688 0)"/>
      <use xlink:href="#DejaVuSans-2d" transform="translate(126.763672 0)"/>
      <use xlink:href="#DejaVuSans-4d" transform="translate(162.847656 0)"/>
      <use xlink:href="#DejaVuSans-53" transform="translate(249.126953 0)"/>
      <use xlink:href="#DejaVuSans-20" transform="translate(312.603516 0)"/>
      <use xlink:href="#DejaVuSans-56" transform="translate(344.390625 0)"/>
      <use xlink:href="#DejaVuSans-32" transform="translate(412.798828 0)"/>
      <use xlink:href="#DejaVuSans-20" transform="translate(476.421875 0)"/>
      <use xlink:href="#DejaVuSans-28" transform="translate(508.208984 0)"/>
      <use xlink:href="#DejaVuSans-35" transform="translate(547.222656 0)"/>
      <use xlink:href="#DejaVuSans-30" transform="translate(610.845703 0)"/>
      <use xlink:href="#DejaVuSans-30" transform="translate(674.46875 0)"/>
      <use xlink:href="#DejaVuSans-4d" transform="translate(738.091797 0)"/>
      <use xlink:href="#DejaVuSans-29" transform="translate(824.371094 0)"/>
      <use xlink:href="#DejaVuSans-20" transform="translate(863.384766 0)"/>
      <use xlink:href="#DejaVuSans-77" transform="translate(895.171875 0)"/>
      <use xlink:href="#DejaVuSans-69" transform="translate(976.958984 0)"/>
      <use xlink:href="#DejaVuSans-74" transform="translate(1004.742188 0)"/>
      <use xlink:href="#DejaVuSans-68" transform="translate(1043.951172 0)"/>
      <use xlink:href="#DejaVuSans-20" transform="translate(1107.330078 0)"/>
      <use xlink:href="#DejaVuSans-72" transform="translate(1139.117188 0)"/>
      <use xlink:href="#DejaVuSans-61" transform="translate(1180.230469 0)"/>
      <use xlink:href="#DejaVuSans-6e" transform="translate(1241.509766 0)"/>
      <use xlink:href="#DejaVuSans-64" transform="translate(1304.888672 0)"/>
      <use xlink:href="#DejaVuSans-2e" transform="translate(1368.365234 0)"/>
      <use xlink:href="#DejaVuSans-20" transform="translate(1400.152344 0)"/>
      <use xlink:href="#DejaVuSans-77" transform="translate(1431.939453 0)"/>
      <use xlink:href="#DejaVuSans-65" transform="translate(1513.726562 0)"/>
      <use xlink:href="#DejaVuSans-69" transform="translate(1575.25 0)"/>
      <use xlink:href="#DejaVuSans-67" transform="translate(1603.033203 0)"/>
      <use xlink:href="#DejaVuSans-68" transform="translate(1666.509766 0)"/>
      <use xlink:href="#DejaVuSans-74" transform="translate(1729.888672 0)"/>
      <use xlink:href="#DejaVuSans-73" transform="translate(1769.097656 0)"/>
     </g>
    </g>
    <g id="line2d_20">
     <path d="M 335.876684 78.564755 
L 344.206684 78.564755 
L 352.536684 78.564755 
" style="fill: none; stroke: #2ca02c; stroke-width: 1.5; stroke-linecap: square"/>
    </g>
    <g id="text_15">
     <!-- NT-MS V2 (50M) -->
     <g transform="translate(359.200684 81.480255) scale(0.0833 -0.0833)">
      <use xlink:href="#DejaVuSans-4e"/>
      <use xlink:href="#DejaVuSans-54" transform="translate(74.804688 0)"/>
      <use xlink:href="#DejaVuSans-2d" transform="translate(126.763672 0)"/>
      <use xlink:href="#DejaVuSans-4d" transform="translate(162.847656 0)"/>
      <use xlink:href="#DejaVuSans-53" transform="translate(249.126953 0)"/>
      <use xlink:href="#DejaVuSans-20" transform="translate(312.603516 0)"/>
      <use xlink:href="#DejaVuSans-56" transform="translate(344.390625 0)"/>
      <use xlink:href="#DejaVuSans-32" transform="translate(412.798828 0)"/>
      <use xlink:href="#DejaVuSans-20" transform="translate(476.421875 0)"/>
      <use xlink:href="#DejaVuSans-28" transform="translate(508.208984 0)"/>
      <use xlink:href="#DejaVuSans-35" transform="translate(547.222656 0)"/>
      <use xlink:href="#DejaVuSans-30" transform="translate(610.845703 0)"/>
      <use xlink:href="#DejaVuSans-4d" transform="translate(674.46875 0)"/>
      <use xlink:href="#DejaVuSans-29" transform="translate(760.748047 0)"/>
     </g>
    </g>
    <g id="line2d_21">
     <path d="M 335.876684 90.791633 
L 344.206684 90.791633 
L 352.536684 90.791633 
" style="fill: none; stroke: #d62728; stroke-width: 1.5; stroke-linecap: square"/>
    </g>
    <g id="text_16">
     <!-- NT-1000g (500M) -->
     <g transform="translate(359.200684 93.707133) scale(0.0833 -0.0833)">
      <use xlink:href="#DejaVuSans-4e"/>
      <use xlink:href="#DejaVuSans-54" transform="translate(74.804688 0)"/>
      <use xlink:href="#DejaVuSans-2d" transform="translate(126.763672 0)"/>
      <use xlink:href="#DejaVuSans-31" transform="translate(162.847656 0)"/>
      <use xlink:href="#DejaVuSans-30" transform="translate(226.470703 0)"/>
      <use xlink:href="#DejaVuSans-30" transform="translate(290.09375 0)"/>
      <use xlink:href="#DejaVuSans-30" transform="translate(353.716797 0)"/>
      <use xlink:href="#DejaVuSans-67" transform="translate(417.339844 0)"/>
      <use xlink:href="#DejaVuSans-20" transform="translate(480.816406 0)"/>
      <use xlink:href="#DejaVuSans-28" transform="translate(512.603516 0)"/>
      <use xlink:href="#DejaVuSans-35" transform="translate(551.617188 0)"/>
      <use xlink:href="#DejaVuSans-30" transform="translate(615.240234 0)"/>
      <use xlink:href="#DejaVuSans-30" transform="translate(678.863281 0)"/>
      <use xlink:href="#DejaVuSans-4d" transform="translate(742.486328 0)"/>
      <use xlink:href="#DejaVuSans-29" transform="translate(828.765625 0)"/>
     </g>
    </g>
    <g id="line2d_22">
     <path d="M 335.876684 103.018511 
L 344.206684 103.018511 
L 352.536684 103.018511 
" style="fill: none; stroke: #9467bd; stroke-width: 1.5; stroke-linecap: square"/>
    </g>
    <g id="text_17">
     <!-- NT-MS V2 (250M) -->
     <g transform="translate(359.200684 105.934011) scale(0.0833 -0.0833)">
      <use xlink:href="#DejaVuSans-4e"/>
      <use xlink:href="#DejaVuSans-54" transform="translate(74.804688 0)"/>
      <use xlink:href="#DejaVuSans-2d" transform="translate(126.763672 0)"/>
      <use xlink:href="#DejaVuSans-4d" transform="translate(162.847656 0)"/>
      <use xlink:href="#DejaVuSans-53" transform="translate(249.126953 0)"/>
      <use xlink:href="#DejaVuSans-20" transform="translate(312.603516 0)"/>
      <use xlink:href="#DejaVuSans-56" transform="translate(344.390625 0)"/>
      <use xlink:href="#DejaVuSans-32" transform="translate(412.798828 0)"/>
      <use xlink:href="#DejaVuSans-20" transform="translate(476.421875 0)"/>
      <use xlink:href="#DejaVuSans-28" transform="translate(508.208984 0)"/>
      <use xlink:href="#DejaVuSans-32" transform="translate(547.222656 0)"/>
      <use xlink:href="#DejaVuSans-35" transform="translate(610.845703 0)"/>
      <use xlink:href="#DejaVuSans-30" transform="translate(674.46875 0)"/>
      <use xlink:href="#DejaVuSans-4d" transform="translate(738.091797 0)"/>
      <use xlink:href="#DejaVuSans-29" transform="translate(824.371094 0)"/>
     </g>
    </g>
    <g id="line2d_23">
     <path d="M 335.876684 115.245389 
L 344.206684 115.245389 
L 352.536684 115.245389 
" style="fill: none; stroke: #8c564b; stroke-width: 1.5; stroke-linecap: square"/>
    </g>
    <g id="text_18">
     <!-- NT-MS V2 (100M) -->
     <g transform="translate(359.200684 118.160889) scale(0.0833 -0.0833)">
      <use xlink:href="#DejaVuSans-4e"/>
      <use xlink:href="#DejaVuSans-54" transform="translate(74.804688 0)"/>
      <use xlink:href="#DejaVuSans-2d" transform="translate(126.763672 0)"/>
      <use xlink:href="#DejaVuSans-4d" transform="translate(162.847656 0)"/>
      <use xlink:href="#DejaVuSans-53" transform="translate(249.126953 0)"/>
      <use xlink:href="#DejaVuSans-20" transform="translate(312.603516 0)"/>
      <use xlink:href="#DejaVuSans-56" transform="translate(344.390625 0)"/>
      <use xlink:href="#DejaVuSans-32" transform="translate(412.798828 0)"/>
      <use xlink:href="#DejaVuSans-20" transform="translate(476.421875 0)"/>
      <use xlink:href="#DejaVuSans-28" transform="translate(508.208984 0)"/>
      <use xlink:href="#DejaVuSans-31" transform="translate(547.222656 0)"/>
      <use xlink:href="#DejaVuSans-30" transform="translate(610.845703 0)"/>
      <use xlink:href="#DejaVuSans-30" transform="translate(674.46875 0)"/>
      <use xlink:href="#DejaVuSans-4d" transform="translate(738.091797 0)"/>
      <use xlink:href="#DejaVuSans-29" transform="translate(824.371094 0)"/>
     </g>
    </g>
    <g id="line2d_24">
     <path d="M 335.876684 127.472267 
L 344.206684 127.472267 
L 352.536684 127.472267 
" style="fill: none; stroke: #e377c2; stroke-width: 1.5; stroke-linecap: square"/>
    </g>
    <g id="text_19">
     <!-- NT-Human-Ref. (500M) -->
     <g transform="translate(359.200684 130.387767) scale(0.0833 -0.0833)">
      <defs>
       <path id="DejaVuSans-52" d="M 2841 2188 
Q 3044 2119 3236 1894 
Q 3428 1669 3622 1275 
L 4263 0 
L 3584 0 
L 2988 1197 
Q 2756 1666 2539 1819 
Q 2322 1972 1947 1972 
L 1259 1972 
L 1259 0 
L 628 0 
L 628 4666 
L 2053 4666 
Q 2853 4666 3247 4331 
Q 3641 3997 3641 3322 
Q 3641 2881 3436 2590 
Q 3231 2300 2841 2188 
z
M 1259 4147 
L 1259 2491 
L 2053 2491 
Q 2509 2491 2742 2702 
Q 2975 2913 2975 3322 
Q 2975 3731 2742 3939 
Q 2509 4147 2053 4147 
L 1259 4147 
z
" transform="scale(0.015625)"/>
       <path id="DejaVuSans-66" d="M 2375 4863 
L 2375 4384 
L 1825 4384 
Q 1516 4384 1395 4259 
Q 1275 4134 1275 3809 
L 1275 3500 
L 2222 3500 
L 2222 3053 
L 1275 3053 
L 1275 0 
L 697 0 
L 697 3053 
L 147 3053 
L 147 3500 
L 697 3500 
L 697 3744 
Q 697 4328 969 4595 
Q 1241 4863 1831 4863 
L 2375 4863 
z
" transform="scale(0.015625)"/>
      </defs>
      <use xlink:href="#DejaVuSans-4e"/>
      <use xlink:href="#DejaVuSans-54" transform="translate(74.804688 0)"/>
      <use xlink:href="#DejaVuSans-2d" transform="translate(126.763672 0)"/>
      <use xlink:href="#DejaVuSans-48" transform="translate(162.847656 0)"/>
      <use xlink:href="#DejaVuSans-75" transform="translate(238.042969 0)"/>
      <use xlink:href="#DejaVuSans-6d" transform="translate(301.421875 0)"/>
      <use xlink:href="#DejaVuSans-61" transform="translate(398.833984 0)"/>
      <use xlink:href="#DejaVuSans-6e" transform="translate(460.113281 0)"/>
      <use xlink:href="#DejaVuSans-2d" transform="translate(523.492188 0)"/>
      <use xlink:href="#DejaVuSans-52" transform="translate(559.576172 0)"/>
      <use xlink:href="#DejaVuSans-65" transform="translate(624.558594 0)"/>
      <use xlink:href="#DejaVuSans-66" transform="translate(686.082031 0)"/>
      <use xlink:href="#DejaVuSans-2e" transform="translate(714.037109 0)"/>
      <use xlink:href="#DejaVuSans-20" transform="translate(745.824219 0)"/>
      <use xlink:href="#DejaVuSans-28" transform="translate(777.611328 0)"/>
      <use xlink:href="#DejaVuSans-35" transform="translate(816.625 0)"/>
      <use xlink:href="#DejaVuSans-30" transform="translate(880.248047 0)"/>
      <use xlink:href="#DejaVuSans-30" transform="translate(943.871094 0)"/>
      <use xlink:href="#DejaVuSans-4d" transform="translate(1007.494141 0)"/>
      <use xlink:href="#DejaVuSans-29" transform="translate(1093.773438 0)"/>
     </g>
    </g>
    <g id="line2d_25">
     <path d="M 335.876684 139.699145 
L 344.206684 139.699145 
L 352.536684 139.699145 
" style="fill: none; stroke: #7f7f7f; stroke-width: 1.5; stroke-linecap: square"/>
    </g>
    <g id="text_20">
     <!-- NT-MS V2 (500M) -->
     <g transform="translate(359.200684 142.614645) scale(0.0833 -0.0833)">
      <use xlink:href="#DejaVuSans-4e"/>
      <use xlink:href="#DejaVuSans-54" transform="translate(74.804688 0)"/>
      <use xlink:href="#DejaVuSans-2d" transform="translate(126.763672 0)"/>
      <use xlink:href="#DejaVuSans-4d" transform="translate(162.847656 0)"/>
      <use xlink:href="#DejaVuSans-53" transform="translate(249.126953 0)"/>
      <use xlink:href="#DejaVuSans-20" transform="translate(312.603516 0)"/>
      <use xlink:href="#DejaVuSans-56" transform="translate(344.390625 0)"/>
      <use xlink:href="#DejaVuSans-32" transform="translate(412.798828 0)"/>
      <use xlink:href="#DejaVuSans-20" transform="translate(476.421875 0)"/>
      <use xlink:href="#DejaVuSans-28" transform="translate(508.208984 0)"/>
      <use xlink:href="#DejaVuSans-35" transform="translate(547.222656 0)"/>
      <use xlink:href="#DejaVuSans-30" transform="translate(610.845703 0)"/>
      <use xlink:href="#DejaVuSans-30" transform="translate(674.46875 0)"/>
      <use xlink:href="#DejaVuSans-4d" transform="translate(738.091797 0)"/>
      <use xlink:href="#DejaVuSans-29" transform="translate(824.371094 0)"/>
     </g>
    </g>
   </g>
  </g>
 </g>
 <defs>
  <clipPath id="p33ca49267e">
   <rect x="72" y="43.2" width="446.4" height="277.2"/>
  </clipPath>
 </defs>
</svg>
