<?xml version="1.0" encoding="utf-8" standalone="no"?>
<!DOCTYPE svg PUBLIC "-//W3C//DTD SVG 1.1//EN"
  "http://www.w3.org/Graphics/SVG/1.1/DTD/svg11.dtd">
<svg xmlns:xlink="http://www.w3.org/1999/xlink" width="576pt" height="360pt" viewBox="0 0 576 360" xmlns="http://www.w3.org/2000/svg" version="1.1">
 <metadata>
  <rdf:RDF xmlns:dc="http://purl.org/dc/elements/1.1/" xmlns:cc="http://creativecommons.org/ns#" xmlns:rdf="http://www.w3.org/1999/02/22-rdf-syntax-ns#">
   <cc:Work>
    <dc:type rdf:resource="http://purl.org/dc/dcmitype/StillImage"/>
    <dc:date>2025-01-07T03:55:00.131997</dc:date>
    <dc:format>image/svg+xml</dc:format>
    <dc:creator>
     <cc:Agent>
      <dc:title>Matplotlib v3.10.0, https://matplotlib.org/</dc:title>
     </cc:Agent>
    </dc:creator>
   </cc:Work>
  </rdf:RDF>
 </metadata>
 <defs>
  <style type="text/css">*{stroke-linejoin: round; stroke-linecap: butt}</style>
 </defs>
 <g id="figure_1">
  <g id="patch_1">
   <path d="M 0 360 
L 576 360 
L 576 0 
L 0 0 
z
" style="fill: #ffffff"/>
  </g>
  <g id="axes_1">
   <g id="patch_2">
    <path d="M 72 320.4 
L 518.4 320.4 
L 518.4 43.2 
L 72 43.2 
z
" style="fill: #ffffff"/>
   </g>
   <g id="matplotlib.axis_1">
    <g id="xtick_1">
     <g id="line2d_1">
      <defs>
       <path id="mbbd9044727" d="M 0 0 
L 0 3.5 
" style="stroke: #000000; stroke-width: 0.8"/>
      </defs>
      <g>
       <use xlink:href="#mbbd9044727" x="157.672727" y="320.4" style="stroke: #000000; stroke-width: 0.8"/>
      </g>
     </g>
     <g id="text_1">
      <!-- 2000 -->
      <g transform="translate(144.947727 334.998438) scale(0.1 -0.1)">
       <defs>
        <path id="DejaVuSans-32" d="M 1228 531 
L 3431 531 
L 3431 0 
L 469 0 
L 469 531 
Q 828 903 1448 1529 
Q 2069 2156 2228 2338 
Q 2531 2678 2651 2914 
Q 2772 3150 2772 3378 
Q 2772 3750 2511 3984 
Q 2250 4219 1831 4219 
Q 1534 4219 1204 4116 
Q 875 4013 500 3803 
L 500 4441 
Q 881 4594 1212 4672 
Q 1544 4750 1819 4750 
Q 2544 4750 2975 4387 
Q 3406 4025 3406 3419 
Q 3406 3131 3298 2873 
Q 3191 2616 2906 2266 
Q 2828 2175 2409 1742 
Q 1991 1309 1228 531 
z
" transform="scale(0.015625)"/>
        <path id="DejaVuSans-30" d="M 2034 4250 
Q 1547 4250 1301 3770 
Q 1056 3291 1056 2328 
Q 1056 1369 1301 889 
Q 1547 409 2034 409 
Q 2525 409 2770 889 
Q 3016 1369 3016 2328 
Q 3016 3291 2770 3770 
Q 2525 4250 2034 4250 
z
M 2034 4750 
Q 2819 4750 3233 4129 
Q 3647 3509 3647 2328 
Q 3647 1150 3233 529 
Q 2819 -91 2034 -91 
Q 1250 -91 836 529 
Q 422 1150 422 2328 
Q 422 3509 836 4129 
Q 1250 4750 2034 4750 
z
" transform="scale(0.015625)"/>
       </defs>
       <use xlink:href="#DejaVuSans-32"/>
       <use xlink:href="#DejaVuSans-30" transform="translate(63.623047 0)"/>
       <use xlink:href="#DejaVuSans-30" transform="translate(127.246094 0)"/>
       <use xlink:href="#DejaVuSans-30" transform="translate(190.869141 0)"/>
      </g>
     </g>
    </g>
    <g id="xtick_2">
     <g id="line2d_2">
      <g>
       <use xlink:href="#mbbd9044727" x="247.854545" y="320.4" style="stroke: #000000; stroke-width: 0.8"/>
      </g>
     </g>
     <g id="text_2">
      <!-- 4000 -->
      <g transform="translate(235.129545 334.998438) scale(0.1 -0.1)">
       <defs>
        <path id="DejaVuSans-34" d="M 2419 4116 
L 825 1625 
L 2419 1625 
L 2419 4116 
z
M 2253 4666 
L 3047 4666 
L 3047 1625 
L 3713 1625 
L 3713 1100 
L 3047 1100 
L 3047 0 
L 2419 0 
L 2419 1100 
L 313 1100 
L 313 1709 
L 2253 4666 
z
" transform="scale(0.015625)"/>
       </defs>
       <use xlink:href="#DejaVuSans-34"/>
       <use xlink:href="#DejaVuSans-30" transform="translate(63.623047 0)"/>
       <use xlink:href="#DejaVuSans-30" transform="translate(127.246094 0)"/>
       <use xlink:href="#DejaVuSans-30" transform="translate(190.869141 0)"/>
      </g>
     </g>
    </g>
    <g id="xtick_3">
     <g id="line2d_3">
      <g>
       <use xlink:href="#mbbd9044727" x="338.036364" y="320.4" style="stroke: #000000; stroke-width: 0.8"/>
      </g>
     </g>
     <g id="text_3">
      <!-- 6000 -->
      <g transform="translate(325.311364 334.998438) scale(0.1 -0.1)">
       <defs>
        <path id="DejaVuSans-36" d="M 2113 2584 
Q 1688 2584 1439 2293 
Q 1191 2003 1191 1497 
Q 1191 994 1439 701 
Q 1688 409 2113 409 
Q 2538 409 2786 701 
Q 3034 994 3034 1497 
Q 3034 2003 2786 2293 
Q 2538 2584 2113 2584 
z
M 3366 4563 
L 3366 3988 
Q 3128 4100 2886 4159 
Q 2644 4219 2406 4219 
Q 1781 4219 1451 3797 
Q 1122 3375 1075 2522 
Q 1259 2794 1537 2939 
Q 1816 3084 2150 3084 
Q 2853 3084 3261 2657 
Q 3669 2231 3669 1497 
Q 3669 778 3244 343 
Q 2819 -91 2113 -91 
Q 1303 -91 875 529 
Q 447 1150 447 2328 
Q 447 3434 972 4092 
Q 1497 4750 2381 4750 
Q 2619 4750 2861 4703 
Q 3103 4656 3366 4563 
z
" transform="scale(0.015625)"/>
       </defs>
       <use xlink:href="#DejaVuSans-36"/>
       <use xlink:href="#DejaVuSans-30" transform="translate(63.623047 0)"/>
       <use xlink:href="#DejaVuSans-30" transform="translate(127.246094 0)"/>
       <use xlink:href="#DejaVuSans-30" transform="translate(190.869141 0)"/>
      </g>
     </g>
    </g>
    <g id="xtick_4">
     <g id="line2d_4">
      <g>
       <use xlink:href="#mbbd9044727" x="428.218182" y="320.4" style="stroke: #000000; stroke-width: 0.8"/>
      </g>
     </g>
     <g id="text_4">
      <!-- 8000 -->
      <g transform="translate(415.493182 334.998438) scale(0.1 -0.1)">
       <defs>
        <path id="DejaVuSans-38" d="M 2034 2216 
Q 1584 2216 1326 1975 
Q 1069 1734 1069 1313 
Q 1069 891 1326 650 
Q 1584 409 2034 409 
Q 2484 409 2743 651 
Q 3003 894 3003 1313 
Q 3003 1734 2745 1975 
Q 2488 2216 2034 2216 
z
M 1403 2484 
Q 997 2584 770 2862 
Q 544 3141 544 3541 
Q 544 4100 942 4425 
Q 1341 4750 2034 4750 
Q 2731 4750 3128 4425 
Q 3525 4100 3525 3541 
Q 3525 3141 3298 2862 
Q 3072 2584 2669 2484 
Q 3125 2378 3379 2068 
Q 3634 1759 3634 1313 
Q 3634 634 3220 271 
Q 2806 -91 2034 -91 
Q 1263 -91 848 271 
Q 434 634 434 1313 
Q 434 1759 690 2068 
Q 947 2378 1403 2484 
z
M 1172 3481 
Q 1172 3119 1398 2916 
Q 1625 2713 2034 2713 
Q 2441 2713 2670 2916 
Q 2900 3119 2900 3481 
Q 2900 3844 2670 4047 
Q 2441 4250 2034 4250 
Q 1625 4250 1398 4047 
Q 1172 3844 1172 3481 
z
" transform="scale(0.015625)"/>
       </defs>
       <use xlink:href="#DejaVuSans-38"/>
       <use xlink:href="#DejaVuSans-30" transform="translate(63.623047 0)"/>
       <use xlink:href="#DejaVuSans-30" transform="translate(127.246094 0)"/>
       <use xlink:href="#DejaVuSans-30" transform="translate(190.869141 0)"/>
      </g>
     </g>
    </g>
    <g id="xtick_5">
     <g id="line2d_5">
      <g>
       <use xlink:href="#mbbd9044727" x="518.4" y="320.4" style="stroke: #000000; stroke-width: 0.8"/>
      </g>
     </g>
     <g id="text_5">
      <!-- 10000 -->
      <g transform="translate(502.49375 334.998438) scale(0.1 -0.1)">
       <defs>
        <path id="DejaVuSans-31" d="M 794 531 
L 1825 531 
L 1825 4091 
L 703 3866 
L 703 4441 
L 1819 4666 
L 2450 4666 
L 2450 531 
L 3481 531 
L 3481 0 
L 794 0 
L 794 531 
z
" transform="scale(0.015625)"/>
       </defs>
       <use xlink:href="#DejaVuSans-31"/>
       <use xlink:href="#DejaVuSans-30" transform="translate(63.623047 0)"/>
       <use xlink:href="#DejaVuSans-30" transform="translate(127.246094 0)"/>
       <use xlink:href="#DejaVuSans-30" transform="translate(190.869141 0)"/>
       <use xlink:href="#DejaVuSans-30" transform="translate(254.492188 0)"/>
      </g>
     </g>
    </g>
    <g id="text_6">
     <!-- Training steps -->
     <g transform="translate(260.464844 348.676562) scale(0.1 -0.1)">
      <defs>
       <path id="DejaVuSans-54" d="M -19 4666 
L 3928 4666 
L 3928 4134 
L 2272 4134 
L 2272 0 
L 1638 0 
L 1638 4134 
L -19 4134 
L -19 4666 
z
" transform="scale(0.015625)"/>
       <path id="DejaVuSans-72" d="M 2631 2963 
Q 2534 3019 2420 3045 
Q 2306 3072 2169 3072 
Q 1681 3072 1420 2755 
Q 1159 2438 1159 1844 
L 1159 0 
L 581 0 
L 581 3500 
L 1159 3500 
L 1159 2956 
Q 1341 3275 1631 3429 
Q 1922 3584 2338 3584 
Q 2397 3584 2469 3576 
Q 2541 3569 2628 3553 
L 2631 2963 
z
" transform="scale(0.015625)"/>
       <path id="DejaVuSans-61" d="M 2194 1759 
Q 1497 1759 1228 1600 
Q 959 1441 959 1056 
Q 959 750 1161 570 
Q 1363 391 1709 391 
Q 2188 391 2477 730 
Q 2766 1069 2766 1631 
L 2766 1759 
L 2194 1759 
z
M 3341 1997 
L 3341 0 
L 2766 0 
L 2766 531 
Q 2569 213 2275 61 
Q 1981 -91 1556 -91 
Q 1019 -91 701 211 
Q 384 513 384 1019 
Q 384 1609 779 1909 
Q 1175 2209 1959 2209 
L 2766 2209 
L 2766 2266 
Q 2766 2663 2505 2880 
Q 2244 3097 1772 3097 
Q 1472 3097 1187 3025 
Q 903 2953 641 2809 
L 641 3341 
Q 956 3463 1253 3523 
Q 1550 3584 1831 3584 
Q 2591 3584 2966 3190 
Q 3341 2797 3341 1997 
z
" transform="scale(0.015625)"/>
       <path id="DejaVuSans-69" d="M 603 3500 
L 1178 3500 
L 1178 0 
L 603 0 
L 603 3500 
z
M 603 4863 
L 1178 4863 
L 1178 4134 
L 603 4134 
L 603 4863 
z
" transform="scale(0.015625)"/>
       <path id="DejaVuSans-6e" d="M 3513 2113 
L 3513 0 
L 2938 0 
L 2938 2094 
Q 2938 2591 2744 2837 
Q 2550 3084 2163 3084 
Q 1697 3084 1428 2787 
Q 1159 2491 1159 1978 
L 1159 0 
L 581 0 
L 581 3500 
L 1159 3500 
L 1159 2956 
Q 1366 3272 1645 3428 
Q 1925 3584 2291 3584 
Q 2894 3584 3203 3211 
Q 3513 2838 3513 2113 
z
" transform="scale(0.015625)"/>
       <path id="DejaVuSans-67" d="M 2906 1791 
Q 2906 2416 2648 2759 
Q 2391 3103 1925 3103 
Q 1463 3103 1205 2759 
Q 947 2416 947 1791 
Q 947 1169 1205 825 
Q 1463 481 1925 481 
Q 2391 481 2648 825 
Q 2906 1169 2906 1791 
z
M 3481 434 
Q 3481 -459 3084 -895 
Q 2688 -1331 1869 -1331 
Q 1566 -1331 1297 -1286 
Q 1028 -1241 775 -1147 
L 775 -588 
Q 1028 -725 1275 -790 
Q 1522 -856 1778 -856 
Q 2344 -856 2625 -561 
Q 2906 -266 2906 331 
L 2906 616 
Q 2728 306 2450 153 
Q 2172 0 1784 0 
Q 1141 0 747 490 
Q 353 981 353 1791 
Q 353 2603 747 3093 
Q 1141 3584 1784 3584 
Q 2172 3584 2450 3431 
Q 2728 3278 2906 2969 
L 2906 3500 
L 3481 3500 
L 3481 434 
z
" transform="scale(0.015625)"/>
       <path id="DejaVuSans-20" transform="scale(0.015625)"/>
       <path id="DejaVuSans-73" d="M 2834 3397 
L 2834 2853 
Q 2591 2978 2328 3040 
Q 2066 3103 1784 3103 
Q 1356 3103 1142 2972 
Q 928 2841 928 2578 
Q 928 2378 1081 2264 
Q 1234 2150 1697 2047 
L 1894 2003 
Q 2506 1872 2764 1633 
Q 3022 1394 3022 966 
Q 3022 478 2636 193 
Q 2250 -91 1575 -91 
Q 1294 -91 989 -36 
Q 684 19 347 128 
L 347 722 
Q 666 556 975 473 
Q 1284 391 1588 391 
Q 1994 391 2212 530 
Q 2431 669 2431 922 
Q 2431 1156 2273 1281 
Q 2116 1406 1581 1522 
L 1381 1569 
Q 847 1681 609 1914 
Q 372 2147 372 2553 
Q 372 3047 722 3315 
Q 1072 3584 1716 3584 
Q 2034 3584 2315 3537 
Q 2597 3491 2834 3397 
z
" transform="scale(0.015625)"/>
       <path id="DejaVuSans-74" d="M 1172 4494 
L 1172 3500 
L 2356 3500 
L 2356 3053 
L 1172 3053 
L 1172 1153 
Q 1172 725 1289 603 
Q 1406 481 1766 481 
L 2356 481 
L 2356 0 
L 1766 0 
Q 1100 0 847 248 
Q 594 497 594 1153 
L 594 3053 
L 172 3053 
L 172 3500 
L 594 3500 
L 594 4494 
L 1172 4494 
z
" transform="scale(0.015625)"/>
       <path id="DejaVuSans-65" d="M 3597 1894 
L 3597 1613 
L 953 1613 
Q 991 1019 1311 708 
Q 1631 397 2203 397 
Q 2534 397 2845 478 
Q 3156 559 3463 722 
L 3463 178 
Q 3153 47 2828 -22 
Q 2503 -91 2169 -91 
Q 1331 -91 842 396 
Q 353 884 353 1716 
Q 353 2575 817 3079 
Q 1281 3584 2069 3584 
Q 2775 3584 3186 3129 
Q 3597 2675 3597 1894 
z
M 3022 2063 
Q 3016 2534 2758 2815 
Q 2500 3097 2075 3097 
Q 1594 3097 1305 2825 
Q 1016 2553 972 2059 
L 3022 2063 
z
" transform="scale(0.015625)"/>
       <path id="DejaVuSans-70" d="M 1159 525 
L 1159 -1331 
L 581 -1331 
L 581 3500 
L 1159 3500 
L 1159 2969 
Q 1341 3281 1617 3432 
Q 1894 3584 2278 3584 
Q 2916 3584 3314 3078 
Q 3713 2572 3713 1747 
Q 3713 922 3314 415 
Q 2916 -91 2278 -91 
Q 1894 -91 1617 61 
Q 1341 213 1159 525 
z
M 3116 1747 
Q 3116 2381 2855 2742 
Q 2594 3103 2138 3103 
Q 1681 3103 1420 2742 
Q 1159 2381 1159 1747 
Q 1159 1113 1420 752 
Q 1681 391 2138 391 
Q 2594 391 2855 752 
Q 3116 1113 3116 1747 
z
" transform="scale(0.015625)"/>
      </defs>
      <use xlink:href="#DejaVuSans-54"/>
      <use xlink:href="#DejaVuSans-72" transform="translate(46.333984 0)"/>
      <use xlink:href="#DejaVuSans-61" transform="translate(87.447266 0)"/>
      <use xlink:href="#DejaVuSans-69" transform="translate(148.726562 0)"/>
      <use xlink:href="#DejaVuSans-6e" transform="translate(176.509766 0)"/>
      <use xlink:href="#DejaVuSans-69" transform="translate(239.888672 0)"/>
      <use xlink:href="#DejaVuSans-6e" transform="translate(267.671875 0)"/>
      <use xlink:href="#DejaVuSans-67" transform="translate(331.050781 0)"/>
      <use xlink:href="#DejaVuSans-20" transform="translate(394.527344 0)"/>
      <use xlink:href="#DejaVuSans-73" transform="translate(426.314453 0)"/>
      <use xlink:href="#DejaVuSans-74" transform="translate(478.414062 0)"/>
      <use xlink:href="#DejaVuSans-65" transform="translate(517.623047 0)"/>
      <use xlink:href="#DejaVuSans-70" transform="translate(579.146484 0)"/>
      <use xlink:href="#DejaVuSans-73" transform="translate(642.623047 0)"/>
     </g>
    </g>
   </g>
   <g id="matplotlib.axis_2">
    <g id="ytick_1">
     <g id="line2d_6">
      <defs>
       <path id="m5f1fca3bc2" d="M 0 0 
L -3.5 0 
" style="stroke: #000000; stroke-width: 0.8"/>
      </defs>
      <g>
       <use xlink:href="#m5f1fca3bc2" x="72" y="311.703614" style="stroke: #000000; stroke-width: 0.8"/>
      </g>
     </g>
     <g id="text_7">
      <!-- 0.50 -->
      <g transform="translate(42.734375 315.502833) scale(0.1 -0.1)">
       <defs>
        <path id="DejaVuSans-2e" d="M 684 794 
L 1344 794 
L 1344 0 
L 684 0 
L 684 794 
z
" transform="scale(0.015625)"/>
        <path id="DejaVuSans-35" d="M 691 4666 
L 3169 4666 
L 3169 4134 
L 1269 4134 
L 1269 2991 
Q 1406 3038 1543 3061 
Q 1681 3084 1819 3084 
Q 2600 3084 3056 2656 
Q 3513 2228 3513 1497 
Q 3513 744 3044 326 
Q 2575 -91 1722 -91 
Q 1428 -91 1123 -41 
Q 819 9 494 109 
L 494 744 
Q 775 591 1075 516 
Q 1375 441 1709 441 
Q 2250 441 2565 725 
Q 2881 1009 2881 1497 
Q 2881 1984 2565 2268 
Q 2250 2553 1709 2553 
Q 1456 2553 1204 2497 
Q 953 2441 691 2322 
L 691 4666 
z
" transform="scale(0.015625)"/>
       </defs>
       <use xlink:href="#DejaVuSans-30"/>
       <use xlink:href="#DejaVuSans-2e" transform="translate(63.623047 0)"/>
       <use xlink:href="#DejaVuSans-35" transform="translate(95.410156 0)"/>
       <use xlink:href="#DejaVuSans-30" transform="translate(159.033203 0)"/>
      </g>
     </g>
    </g>
    <g id="ytick_2">
     <g id="line2d_7">
      <g>
       <use xlink:href="#m5f1fca3bc2" x="72" y="280.722547" style="stroke: #000000; stroke-width: 0.8"/>
      </g>
     </g>
     <g id="text_8">
      <!-- 0.55 -->
      <g transform="translate(42.734375 284.521766) scale(0.1 -0.1)">
       <use xlink:href="#DejaVuSans-30"/>
       <use xlink:href="#DejaVuSans-2e" transform="translate(63.623047 0)"/>
       <use xlink:href="#DejaVuSans-35" transform="translate(95.410156 0)"/>
       <use xlink:href="#DejaVuSans-35" transform="translate(159.033203 0)"/>
      </g>
     </g>
    </g>
    <g id="ytick_3">
     <g id="line2d_8">
      <g>
       <use xlink:href="#m5f1fca3bc2" x="72" y="249.74148" style="stroke: #000000; stroke-width: 0.8"/>
      </g>
     </g>
     <g id="text_9">
      <!-- 0.60 -->
      <g transform="translate(42.734375 253.540699) scale(0.1 -0.1)">
       <use xlink:href="#DejaVuSans-30"/>
       <use xlink:href="#DejaVuSans-2e" transform="translate(63.623047 0)"/>
       <use xlink:href="#DejaVuSans-36" transform="translate(95.410156 0)"/>
       <use xlink:href="#DejaVuSans-30" transform="translate(159.033203 0)"/>
      </g>
     </g>
    </g>
    <g id="ytick_4">
     <g id="line2d_9">
      <g>
       <use xlink:href="#m5f1fca3bc2" x="72" y="218.760413" style="stroke: #000000; stroke-width: 0.8"/>
      </g>
     </g>
     <g id="text_10">
      <!-- 0.65 -->
      <g transform="translate(42.734375 222.559632) scale(0.1 -0.1)">
       <use xlink:href="#DejaVuSans-30"/>
       <use xlink:href="#DejaVuSans-2e" transform="translate(63.623047 0)"/>
       <use xlink:href="#DejaVuSans-36" transform="translate(95.410156 0)"/>
       <use xlink:href="#DejaVuSans-35" transform="translate(159.033203 0)"/>
      </g>
     </g>
    </g>
    <g id="ytick_5">
     <g id="line2d_10">
      <g>
       <use xlink:href="#m5f1fca3bc2" x="72" y="187.779346" style="stroke: #000000; stroke-width: 0.8"/>
      </g>
     </g>
     <g id="text_11">
      <!-- 0.70 -->
      <g transform="translate(42.734375 191.578565) scale(0.1 -0.1)">
       <defs>
        <path id="DejaVuSans-37" d="M 525 4666 
L 3525 4666 
L 3525 4397 
L 1831 0 
L 1172 0 
L 2766 4134 
L 525 4134 
L 525 4666 
z
" transform="scale(0.015625)"/>
       </defs>
       <use xlink:href="#DejaVuSans-30"/>
       <use xlink:href="#DejaVuSans-2e" transform="translate(63.623047 0)"/>
       <use xlink:href="#DejaVuSans-37" transform="translate(95.410156 0)"/>
       <use xlink:href="#DejaVuSans-30" transform="translate(159.033203 0)"/>
      </g>
     </g>
    </g>
    <g id="ytick_6">
     <g id="line2d_11">
      <g>
       <use xlink:href="#m5f1fca3bc2" x="72" y="156.798279" style="stroke: #000000; stroke-width: 0.8"/>
      </g>
     </g>
     <g id="text_12">
      <!-- 0.75 -->
      <g transform="translate(42.734375 160.597498) scale(0.1 -0.1)">
       <use xlink:href="#DejaVuSans-30"/>
       <use xlink:href="#DejaVuSans-2e" transform="translate(63.623047 0)"/>
       <use xlink:href="#DejaVuSans-37" transform="translate(95.410156 0)"/>
       <use xlink:href="#DejaVuSans-35" transform="translate(159.033203 0)"/>
      </g>
     </g>
    </g>
    <g id="ytick_7">
     <g id="line2d_12">
      <g>
       <use xlink:href="#m5f1fca3bc2" x="72" y="125.817212" style="stroke: #000000; stroke-width: 0.8"/>
      </g>
     </g>
     <g id="text_13">
      <!-- 0.80 -->
      <g transform="translate(42.734375 129.61643) scale(0.1 -0.1)">
       <use xlink:href="#DejaVuSans-30"/>
       <use xlink:href="#DejaVuSans-2e" transform="translate(63.623047 0)"/>
       <use xlink:href="#DejaVuSans-38" transform="translate(95.410156 0)"/>
       <use xlink:href="#DejaVuSans-30" transform="translate(159.033203 0)"/>
      </g>
     </g>
    </g>
    <g id="ytick_8">
     <g id="line2d_13">
      <g>
       <use xlink:href="#m5f1fca3bc2" x="72" y="94.836145" style="stroke: #000000; stroke-width: 0.8"/>
      </g>
     </g>
     <g id="text_14">
      <!-- 0.85 -->
      <g transform="translate(42.734375 98.635363) scale(0.1 -0.1)">
       <use xlink:href="#DejaVuSans-30"/>
       <use xlink:href="#DejaVuSans-2e" transform="translate(63.623047 0)"/>
       <use xlink:href="#DejaVuSans-38" transform="translate(95.410156 0)"/>
       <use xlink:href="#DejaVuSans-35" transform="translate(159.033203 0)"/>
      </g>
     </g>
    </g>
    <g id="ytick_9">
     <g id="line2d_14">
      <g>
       <use xlink:href="#m5f1fca3bc2" x="72" y="63.855077" style="stroke: #000000; stroke-width: 0.8"/>
      </g>
     </g>
     <g id="text_15">
      <!-- 0.90 -->
      <g transform="translate(42.734375 67.654296) scale(0.1 -0.1)">
       <defs>
        <path id="DejaVuSans-39" d="M 703 97 
L 703 672 
Q 941 559 1184 500 
Q 1428 441 1663 441 
Q 2288 441 2617 861 
Q 2947 1281 2994 2138 
Q 2813 1869 2534 1725 
Q 2256 1581 1919 1581 
Q 1219 1581 811 2004 
Q 403 2428 403 3163 
Q 403 3881 828 4315 
Q 1253 4750 1959 4750 
Q 2769 4750 3195 4129 
Q 3622 3509 3622 2328 
Q 3622 1225 3098 567 
Q 2575 -91 1691 -91 
Q 1453 -91 1209 -44 
Q 966 3 703 97 
z
M 1959 2075 
Q 2384 2075 2632 2365 
Q 2881 2656 2881 3163 
Q 2881 3666 2632 3958 
Q 2384 4250 1959 4250 
Q 1534 4250 1286 3958 
Q 1038 3666 1038 3163 
Q 1038 2656 1286 2365 
Q 1534 2075 1959 2075 
z
" transform="scale(0.015625)"/>
       </defs>
       <use xlink:href="#DejaVuSans-30"/>
       <use xlink:href="#DejaVuSans-2e" transform="translate(63.623047 0)"/>
       <use xlink:href="#DejaVuSans-39" transform="translate(95.410156 0)"/>
       <use xlink:href="#DejaVuSans-30" transform="translate(159.033203 0)"/>
      </g>
     </g>
    </g>
    <g id="text_16">
     <!-- Loss -->
     <g transform="translate(36.654688 192.767187) rotate(-90) scale(0.1 -0.1)">
      <defs>
       <path id="DejaVuSans-4c" d="M 628 4666 
L 1259 4666 
L 1259 531 
L 3531 531 
L 3531 0 
L 628 0 
L 628 4666 
z
" transform="scale(0.015625)"/>
       <path id="DejaVuSans-6f" d="M 1959 3097 
Q 1497 3097 1228 2736 
Q 959 2375 959 1747 
Q 959 1119 1226 758 
Q 1494 397 1959 397 
Q 2419 397 2687 759 
Q 2956 1122 2956 1747 
Q 2956 2369 2687 2733 
Q 2419 3097 1959 3097 
z
M 1959 3584 
Q 2709 3584 3137 3096 
Q 3566 2609 3566 1747 
Q 3566 888 3137 398 
Q 2709 -91 1959 -91 
Q 1206 -91 779 398 
Q 353 888 353 1747 
Q 353 2609 779 3096 
Q 1206 3584 1959 3584 
z
" transform="scale(0.015625)"/>
      </defs>
      <use xlink:href="#DejaVuSans-4c"/>
      <use xlink:href="#DejaVuSans-6f" transform="translate(53.962891 0)"/>
      <use xlink:href="#DejaVuSans-73" transform="translate(115.144531 0)"/>
      <use xlink:href="#DejaVuSans-73" transform="translate(167.244141 0)"/>
     </g>
    </g>
   </g>
   <g id="line2d_15">
    <path d="M 72 154.257831 
L 76.509091 166.898107 
L 81.018182 178.485026 
L 85.527273 184.309466 
L 90.036364 178.732874 
L 94.545455 180.901549 
L 99.054545 183.25611 
L 103.563636 183.441997 
L 108.072727 181.645095 
L 112.581818 162.127022 
L 117.090909 182.016867 
L 121.6 183.999656 
L 126.109091 181.830981 
L 130.618182 181.025473 
L 135.127273 178.237177 
L 139.636364 179.600344 
L 144.145455 183.565921 
L 148.654545 179.414458 
L 153.163636 184.433391 
L 157.672727 186.16833 
L 162.181818 187.097762 
L 166.690909 187.90327 
L 171.2 186.72599 
L 175.709091 190.753528 
L 180.218182 187.221687 
L 184.727273 187.965232 
L 189.236364 189.452324 
L 193.745455 189.328399 
L 198.254545 182.822375 
L 202.763636 190.195869 
L 207.272727 189.514286 
L 211.781818 186.230293 
L 216.290909 187.655422 
L 220.8 187.469535 
L 225.309091 192.55043 
L 229.818182 188.894664 
L 234.327273 192.922203 
L 238.836364 187.345611 
L 243.345455 186.540103 
L 247.854545 189.948021 
L 252.363636 190.567642 
L 256.872727 190.319793 
L 261.381818 189.390361 
L 265.890909 190.691566 
L 270.4 190.381756 
L 274.909091 190.629604 
L 279.418182 189.63821 
L 283.927273 192.860241 
L 288.436364 189.514286 
L 292.945455 190.443718 
L 297.454545 191.620998 
L 301.963636 190.877453 
L 306.472727 191.744923 
L 310.981818 191.868847 
L 315.490909 190.629604 
L 320 191.744923 
L 324.509091 191.497074 
L 329.018182 191.435112 
L 333.527273 192.674355 
L 338.036364 190.071945 
L 342.545455 191.497074 
L 347.054545 192.364544 
L 351.563636 190.443718 
L 356.072727 190.753528 
L 360.581818 190.691566 
L 365.090909 190.877453 
L 369.6 191.311188 
L 374.109091 191.559036 
L 378.618182 191.311188 
L 383.127273 191.187263 
L 387.636364 191.620998 
L 392.145455 191.187263 
L 396.654545 191.868847 
L 401.163636 191.311188 
L 405.672727 191.992771 
L 410.181818 191.311188 
L 414.690909 192.426506 
L 419.2 191.249225 
L 423.709091 191.620998 
L 428.218182 192.178657 
L 432.727273 191.806885 
L 437.236364 192.116695 
L 441.745455 192.55043 
L 446.254545 191.992771 
L 450.763636 192.736317 
L 455.272727 191.744923 
L 459.781818 191.559036 
L 464.290909 191.249225 
L 468.8 192.984165 
L 473.309091 192.116695 
L 477.818182 191.435112 
L 482.327273 191.744923 
L 486.836364 192.116695 
L 491.345455 191.311188 
L 495.854545 193.293976 
L 500.363636 191.930809 
L 504.872727 191.868847 
L 509.381818 193.170052 
L 513.890909 191.435112 
L 518.4 192.55043 
" clip-path="url(#pade72d711a)" style="fill: none; stroke: #1f77b4; stroke-width: 1.5; stroke-linecap: square"/>
   </g>
   <g id="line2d_16">
    <path d="M 72 82.009983 
L 76.509091 107.972117 
L 81.018182 153.018589 
L 85.527273 168.756971 
L 90.036364 143.724269 
L 94.545455 141.989329 
L 99.054545 140.812048 
L 103.563636 159.090878 
L 108.072727 161.569363 
L 112.581818 163.304303 
L 117.090909 137.032358 
L 121.6 157.603787 
L 126.109091 176.254389 
L 130.618182 165.225129 
L 135.127273 162.188985 
L 139.636364 180.219966 
L 144.145455 169.934251 
L 148.654545 152.089157 
L 153.163636 160.454045 
L 157.672727 179.786231 
L 162.181818 167.951463 
L 166.690909 169.872289 
L 171.2 115.159725 
L 175.709091 166.464372 
L 180.218182 174.519449 
L 184.727273 164.419621 
L 189.236364 140.997935 
L 193.745455 158.904991 
L 198.254545 162.06506 
L 202.763636 162.188985 
L 207.272727 167.083993 
L 211.781818 135.607229 
L 216.290909 165.411015 
L 220.8 164.233735 
L 225.309091 176.997935 
L 229.818182 179.47642 
L 234.327273 181.954905 
L 238.836364 170.429948 
L 243.345455 174.953184 
L 247.854545 185.920482 
L 252.363636 170.553873 
L 256.872727 179.600344 
L 261.381818 163.8 
L 265.890909 176.812048 
L 270.4 151.965232 
L 274.909091 159.400688 
L 279.418182 173.899828 
L 283.927273 182.698451 
L 288.436364 185.114974 
L 292.945455 167.703614 
L 297.454545 181.149398 
L 301.963636 179.228571 
L 306.472727 176.935972 
L 310.981818 182.202754 
L 315.490909 185.796558 
L 320 181.645095 
L 324.509091 185.734596 
L 329.018182 185.114974 
L 333.527273 187.283649 
L 338.036364 186.849914 
L 342.545455 185.85852 
L 347.054545 186.230293 
L 351.563636 189.080551 
L 356.072727 183.132186 
L 360.581818 180.963511 
L 365.090909 186.787952 
L 369.6 187.469535 
L 374.109091 181.52117 
L 378.618182 188.213081 
L 383.127273 188.584854 
L 387.636364 185.424785 
L 392.145455 186.664028 
L 396.654545 187.779346 
L 401.163636 186.540103 
L 405.672727 185.238898 
L 410.181818 187.159725 
L 414.690909 190.257831 
L 419.2 189.018589 
L 423.709091 192.364544 
L 428.218182 188.894664 
L 432.727273 186.354217 
L 437.236364 191.311188 
L 441.745455 189.204475 
L 446.254545 188.894664 
L 450.763636 190.443718 
L 455.272727 189.328399 
L 459.781818 191.311188 
L 464.290909 187.841308 
L 468.8 191.187263 
L 473.309091 190.443718 
L 477.818182 191.930809 
L 482.327273 191.620998 
L 486.836364 189.018589 
L 491.345455 190.939415 
L 495.854545 192.798279 
L 500.363636 191.435112 
L 504.872727 191.187263 
L 509.381818 191.37315 
L 513.890909 191.620998 
L 518.4 191.68296 
" clip-path="url(#pade72d711a)" style="fill: none; stroke: #ff7f0e; stroke-width: 1.5; stroke-linecap: square"/>
   </g>
   <g id="line2d_17">
    <path d="M 72 195.834423 
L 76.509091 194.347332 
L 81.018182 207.483305 
L 85.527273 216.405852 
L 90.036364 204.261274 
L 94.545455 216.34389 
L 99.054545 206.120138 
L 103.563636 234.374871 
L 108.072727 217.149398 
L 112.581818 179.662306 
L 117.090909 198.622719 
L 121.6 202.092599 
L 126.109091 213.121859 
L 130.618182 210.457487 
L 135.127273 231.958348 
L 139.636364 232.268158 
L 144.145455 229.4179 
L 148.654545 239.083993 
L 153.163636 232.88778 
L 157.672727 253.892943 
L 162.181818 225.886059 
L 166.690909 248.254389 
L 171.2 212.068503 
L 175.709091 229.789673 
L 180.218182 228.488468 
L 184.727273 231.338726 
L 189.236364 241.252668 
L 193.745455 234.994492 
L 198.254545 214.60895 
L 202.763636 241.004819 
L 207.272727 246.271601 
L 211.781818 240.261274 
L 216.290909 239.889501 
L 220.8 252.158003 
L 225.309091 247.882616 
L 229.818182 239.145955 
L 234.327273 261.266437 
L 238.836364 245.404131 
L 243.345455 255.25611 
L 247.854545 245.280207 
L 252.363636 253.645095 
L 256.872727 250.732874 
L 261.381818 244.288812 
L 265.890909 251.352496 
L 270.4 228.860241 
L 274.909091 239.393804 
L 279.418182 251.538382 
L 283.927273 260.894664 
L 288.436364 245.775904 
L 292.945455 262.629604 
L 297.454545 274.526334 
L 301.963636 256.557315 
L 306.472727 256.061618 
L 310.981818 257.610671 
L 315.490909 252.405852 
L 320 248.688124 
L 324.509091 240.880895 
L 329.018182 260.213081 
L 333.527273 265.170052 
L 338.036364 274.526334 
L 342.545455 244.350775 
L 347.054545 259.345611 
L 351.563636 262.753528 
L 356.072727 283.944578 
L 360.581818 276.075387 
L 365.090909 260.151119 
L 369.6 262.009983 
L 374.109091 248.440275 
L 378.618182 264.860241 
L 383.127273 275.331842 
L 387.636364 255.813769 
L 392.145455 265.541824 
L 396.654545 271.428227 
L 401.163636 246.82926 
L 405.672727 263.744923 
L 410.181818 264.488468 
L 414.690909 268.763855 
L 419.2 288.591738 
L 423.709091 277.31463 
L 428.218182 257.238898 
L 432.727273 277.934251 
L 437.236364 276.633046 
L 441.745455 265.10809 
L 446.254545 259.221687 
L 450.763636 283.324957 
L 455.272727 264.302582 
L 459.781818 259.655422 
L 464.290909 280.908434 
L 468.8 267.214802 
L 473.309091 295.0358 
L 477.818182 261.328399 
L 482.327273 283.634768 
L 486.836364 273.658864 
L 491.345455 267.896386 
L 495.854545 280.536661 
L 500.363636 260.460929 
L 504.872727 277.748365 
L 509.381818 265.4179 
L 513.890909 300.612392 
L 518.4 273.658864 
" clip-path="url(#pade72d711a)" style="fill: none; stroke: #2ca02c; stroke-width: 1.5; stroke-linecap: square"/>
   </g>
   <g id="line2d_18">
    <path d="M 72 55.8 
L 76.509091 153.452324 
L 81.018182 195.834423 
L 85.527273 176.812048 
L 90.036364 191.125301 
L 94.545455 175.944578 
L 99.054545 160.454045 
L 103.563636 185.610671 
L 108.072727 203.331842 
L 112.581818 183.132186 
L 117.090909 191.992771 
L 121.6 195.338726 
L 126.109091 188.832702 
L 130.618182 209.466093 
L 135.127273 214.794836 
L 139.636364 211.324957 
L 144.145455 226.753528 
L 148.654545 205.376592 
L 153.163636 196.268158 
L 157.672727 134.429948 
L 162.181818 202.278485 
L 166.690909 182.450602 
L 171.2 183.441997 
L 175.709091 236.915318 
L 180.218182 185.238898 
L 184.727273 168.44716 
L 189.236364 189.080551 
L 193.745455 180.158003 
L 198.254545 184.929088 
L 202.763636 180.963511 
L 207.272727 203.827539 
L 211.781818 220.061618 
L 216.290909 195.524613 
L 220.8 214.051291 
L 225.309091 223.221687 
L 229.818182 202.526334 
L 234.327273 218.38864 
L 238.836364 214.546988 
L 243.345455 208.722547 
L 247.854545 225.948021 
L 252.363636 213.183821 
L 256.872727 231.524613 
L 261.381818 216.901549 
L 265.890909 226.629604 
L 270.4 202.960069 
L 274.909091 219.194148 
L 279.418182 196.763855 
L 283.927273 224.213081 
L 288.436364 210.891222 
L 292.945455 221.734596 
L 297.454545 233.507401 
L 301.963636 224.151119 
L 306.472727 215.724269 
L 310.981818 227.868847 
L 315.490909 217.830981 
L 320 214.980723 
L 324.509091 213.43167 
L 329.018182 220.681239 
L 333.527273 220.681239 
L 338.036364 248.750086 
L 342.545455 206.429948 
L 347.054545 237.906713 
L 351.563636 230.037522 
L 356.072727 227.37315 
L 360.581818 222.72599 
L 365.090909 233.383477 
L 369.6 235.304303 
L 374.109091 198.250947 
L 378.618182 235.428227 
L 383.127273 237.53494 
L 387.636364 229.789673 
L 392.145455 232.763855 
L 396.654545 228.302582 
L 401.163636 230.966954 
L 405.672727 246.271601 
L 410.181818 221.982444 
L 414.690909 240.571084 
L 419.2 240.756971 
L 423.709091 248.87401 
L 428.218182 233.19759 
L 432.727273 232.949742 
L 437.236364 243.483305 
L 441.745455 225.762134 
L 446.254545 235.738038 
L 450.763636 257.362823 
L 455.272727 233.19759 
L 459.781818 238.650258 
L 464.290909 258.478141 
L 468.8 244.22685 
L 473.309091 263.311188 
L 477.818182 230.347332 
L 482.327273 252.158003 
L 486.836364 248.378313 
L 491.345455 248.5642 
L 495.854545 263.559036 
L 500.363636 236.605508 
L 504.872727 252.281928 
L 509.381818 233.941136 
L 513.890909 269.879174 
L 518.4 243.669191 
" clip-path="url(#pade72d711a)" style="fill: none; stroke: #d62728; stroke-width: 1.5; stroke-linecap: square"/>
   </g>
   <g id="line2d_19">
    <path d="M 72 172.040964 
L 76.509091 193.293976 
L 81.018182 205.376592 
L 85.527273 211.201033 
L 90.036364 201.039243 
L 94.545455 211.015146 
L 99.054545 181.830981 
L 103.563636 192.116695 
L 108.072727 210.147676 
L 112.581818 217.273322 
L 117.090909 211.510843 
L 121.6 212.068503 
L 126.109091 212.502238 
L 130.618182 186.106368 
L 135.127273 236.171773 
L 139.636364 215.228571 
L 144.145455 211.262995 
L 148.654545 224.584854 
L 153.163636 233.321515 
L 157.672727 240.756971 
L 162.181818 207.235456 
L 166.690909 209.156282 
L 171.2 201.287091 
L 175.709091 232.949742 
L 180.218182 231.524613 
L 184.727273 231.896386 
L 189.236364 237.782788 
L 193.745455 224.213081 
L 198.254545 207.979002 
L 202.763636 209.09432 
L 207.272727 215.972117 
L 211.781818 228.798279 
L 216.290909 224.337005 
L 220.8 238.154561 
L 225.309091 240.261274 
L 229.818182 228.24062 
L 234.327273 255.070224 
L 238.836364 237.225129 
L 243.345455 265.046127 
L 247.854545 241.252668 
L 252.363636 266.781067 
L 256.872727 252.963511 
L 261.381818 255.070224 
L 265.890909 249.679518 
L 270.4 238.526334 
L 274.909091 240.509122 
L 279.418182 253.52117 
L 283.927273 263.620998 
L 288.436364 238.71222 
L 292.945455 266.966954 
L 297.454545 254.264716 
L 301.963636 268.392083 
L 306.472727 264.922203 
L 310.981818 267.524613 
L 315.490909 263.868847 
L 320 256.495353 
L 324.509091 245.775904 
L 329.018182 267.090878 
L 333.527273 264.426506 
L 338.036364 290.698451 
L 342.545455 256.433391 
L 347.054545 269.941136 
L 351.563636 260.832702 
L 356.072727 284.750086 
L 360.581818 281.218244 
L 365.090909 275.703614 
L 369.6 287.228571 
L 374.109091 251.352496 
L 378.618182 276.385198 
L 383.127273 282.395525 
L 387.636364 277.748365 
L 392.145455 285.74148 
L 396.654545 285.059897 
L 401.163636 255.999656 
L 405.672727 273.53494 
L 410.181818 265.541824 
L 414.690909 278.553873 
L 419.2 289.087435 
L 423.709091 282.209639 
L 428.218182 266.904991 
L 432.727273 288.839587 
L 437.236364 270.436833 
L 441.745455 275.889501 
L 446.254545 274.526334 
L 450.763636 291.132186 
L 455.272727 275.889501 
L 459.781818 276.695009 
L 464.290909 305.445439 
L 468.8 275.827539 
L 473.309091 301.975559 
L 477.818182 270.127022 
L 482.327273 297.452324 
L 486.836364 287.724269 
L 491.345455 289.707057 
L 495.854545 295.097762 
L 500.363636 283.077108 
L 504.872727 290.574527 
L 509.381818 277.624441 
L 513.890909 307.8 
L 518.4 281.09432 
" clip-path="url(#pade72d711a)" style="fill: none; stroke: #9467bd; stroke-width: 1.5; stroke-linecap: square"/>
   </g>
   <g id="line2d_20">
    <path d="M 72 191.620998 
L 76.509091 176.316351 
L 81.018182 189.452324 
L 85.527273 215.228571 
L 90.036364 194.037522 
L 94.545455 203.393804 
L 99.054545 200.109811 
L 103.563636 214.423064 
L 108.072727 221.053012 
L 112.581818 218.946299 
L 117.090909 219.751807 
L 121.6 212.192427 
L 126.109091 213.617556 
L 130.618182 217.397246 
L 135.127273 217.149398 
L 139.636364 219.070224 
L 144.145455 226.381756 
L 148.654545 235.490189 
L 153.163636 221.610671 
L 157.672727 254.326678 
L 162.181818 238.836145 
L 166.690909 231.338726 
L 171.2 210.643373 
L 175.709091 232.577969 
L 180.218182 221.85852 
L 184.727273 217.397246 
L 189.236364 221.114974 
L 193.745455 194.037522 
L 198.254545 200.66747 
L 202.763636 207.111532 
L 207.272727 228.364544 
L 211.781818 227.001377 
L 216.290909 231.648537 
L 220.8 244.846472 
L 225.309091 238.71222 
L 229.818182 226.815491 
L 234.327273 248.254389 
L 238.836364 238.71222 
L 243.345455 252.653701 
L 247.854545 236.605508 
L 252.363636 232.763855 
L 256.872727 241.438554 
L 261.381818 253.087435 
L 265.890909 242.058176 
L 270.4 229.975559 
L 274.909091 235.180379 
L 279.418182 241.190706 
L 283.927273 241.376592 
L 288.436364 229.851635 
L 292.945455 253.21136 
L 297.454545 253.954905 
L 301.963636 242.739759 
L 306.472727 237.349053 
L 310.981818 252.653701 
L 315.490909 240.261274 
L 320 242.429948 
L 324.509091 236.419621 
L 329.018182 250.918761 
L 333.527273 247.944578 
L 338.036364 269.75525 
L 342.545455 248.254389 
L 347.054545 250.546988 
L 351.563636 258.416179 
L 356.072727 273.53494 
L 360.581818 265.975559 
L 365.090909 262.443718 
L 369.6 263.063339 
L 374.109091 241.810327 
L 378.618182 255.875731 
L 383.127273 258.849914 
L 387.636364 255.194148 
L 392.145455 262.257831 
L 396.654545 272.605508 
L 401.163636 243.91704 
L 405.672727 265.665749 
L 410.181818 251.786231 
L 414.690909 268.33012 
L 419.2 271.304303 
L 423.709091 278.429948 
L 428.218182 244.412737 
L 432.727273 273.782788 
L 437.236364 260.77074 
L 441.745455 262.009983 
L 446.254545 256.557315 
L 450.763636 281.218244 
L 455.272727 260.398967 
L 459.781818 263.806885 
L 464.290909 289.335284 
L 468.8 259.779346 
L 473.309091 285.121859 
L 477.818182 255.689845 
L 482.327273 275.889501 
L 486.836364 267.400688 
L 491.345455 265.293976 
L 495.854545 288.901549 
L 500.363636 270.188985 
L 504.872727 271.676076 
L 509.381818 250.794836 
L 513.890909 286.361102 
L 518.4 260.832702 
" clip-path="url(#pade72d711a)" style="fill: none; stroke: #8c564b; stroke-width: 1.5; stroke-linecap: square"/>
   </g>
   <g id="line2d_21">
    <path d="M 72 83.187263 
L 76.509091 154.071945 
L 81.018182 192.116695 
L 85.527273 197.817212 
L 90.036364 183.132186 
L 94.545455 180.591738 
L 99.054545 163.8 
L 103.563636 196.88778 
L 108.072727 199.676076 
L 112.581818 181.21136 
L 117.090909 178.361102 
L 121.6 196.392083 
L 126.109091 199.304303 
L 130.618182 220.495353 
L 135.127273 210.519449 
L 139.636364 205.004819 
L 144.145455 210.643373 
L 148.654545 178.980723 
L 153.163636 190.195869 
L 157.672727 181.459208 
L 162.181818 202.960069 
L 166.690909 159.772461 
L 171.2 172.102926 
L 175.709091 212.997935 
L 180.218182 182.884337 
L 184.727273 173.09432 
L 189.236364 191.311188 
L 193.745455 176.440275 
L 198.254545 170.429948 
L 202.763636 187.159725 
L 207.272727 204.385198 
L 211.781818 205.872289 
L 216.290909 188.089157 
L 220.8 210.581411 
L 225.309091 209.775904 
L 229.818182 217.954905 
L 234.327273 221.300861 
L 238.836364 192.24062 
L 243.345455 212.192427 
L 247.854545 210.271601 
L 252.363636 215.786231 
L 256.872727 219.875731 
L 261.381818 218.822375 
L 265.890909 217.769019 
L 270.4 203.455766 
L 274.909091 207.173494 
L 279.418182 207.91704 
L 283.927273 228.364544 
L 288.436364 204.509122 
L 292.945455 214.051291 
L 297.454545 211.077108 
L 301.963636 225.63821 
L 306.472727 216.653701 
L 310.981818 210.457487 
L 315.490909 211.448881 
L 320 205.686403 
L 324.509091 200.791394 
L 329.018182 223.221687 
L 333.527273 227.868847 
L 338.036364 234.560757 
L 342.545455 217.769019 
L 347.054545 241.004819 
L 351.563636 228.860241 
L 356.072727 223.159725 
L 360.581818 224.584854 
L 365.090909 236.977281 
L 369.6 237.968675 
L 374.109091 217.397246 
L 378.618182 236.977281 
L 383.127273 243.607229 
L 387.636364 223.345611 
L 392.145455 224.275043 
L 396.654545 226.009983 
L 401.163636 221.610671 
L 405.672727 237.287091 
L 410.181818 218.822375 
L 414.690909 232.33012 
L 419.2 238.526334 
L 423.709091 253.273322 
L 428.218182 232.701893 
L 432.727273 235.738038 
L 437.236364 237.349053 
L 441.745455 224.027194 
L 446.254545 224.522892 
L 450.763636 253.459208 
L 455.272727 238.40241 
L 459.781818 243.793115 
L 464.290909 252.777625 
L 468.8 241.066781 
L 473.309091 256.495353 
L 477.818182 230.719105 
L 482.327273 251.662306 
L 486.836364 244.784509 
L 491.345455 247.139071 
L 495.854545 264.922203 
L 500.363636 238.340448 
L 504.872727 258.354217 
L 509.381818 230.657143 
L 513.890909 267.896386 
L 518.4 243.607229 
" clip-path="url(#pade72d711a)" style="fill: none; stroke: #e377c2; stroke-width: 1.5; stroke-linecap: square"/>
   </g>
   <g id="line2d_22">
    <path d="M 72 176.502238 
L 76.509091 163.304303 
L 81.018182 192.178657 
L 85.527273 172.846472 
L 90.036364 192.736317 
L 94.545455 189.824096 
L 99.054545 185.920482 
L 103.563636 185.300861 
L 108.072727 184.12358 
L 112.581818 182.326678 
L 117.090909 187.097762 
L 121.6 188.337005 
L 126.109091 189.948021 
L 130.618182 182.760413 
L 135.127273 187.655422 
L 139.636364 175.201033 
L 144.145455 187.345611 
L 148.654545 189.824096 
L 153.163636 188.646816 
L 157.672727 190.071945 
L 162.181818 189.576248 
L 166.690909 191.620998 
L 171.2 183.813769 
L 175.709091 187.717384 
L 180.218182 184.495353 
L 184.727273 186.602065 
L 189.236364 181.149398 
L 193.745455 191.311188 
L 198.254545 188.089157 
L 202.763636 191.497074 
L 207.272727 189.948021 
L 211.781818 190.133907 
L 216.290909 190.753528 
L 220.8 188.213081 
L 225.309091 191.187263 
L 229.818182 190.815491 
L 234.327273 192.054733 
L 238.836364 191.620998 
L 243.345455 189.762134 
L 247.854545 191.249225 
L 252.363636 191.311188 
L 256.872727 191.930809 
L 261.381818 189.63821 
L 265.890909 191.125301 
L 270.4 189.948021 
L 274.909091 191.68296 
L 279.418182 188.77074 
L 283.927273 191.37315 
L 288.436364 190.629604 
L 292.945455 185.920482 
L 297.454545 185.610671 
L 301.963636 182.450602 
L 306.472727 190.071945 
L 310.981818 192.674355 
L 315.490909 190.753528 
L 320 191.744923 
L 324.509091 191.806885 
L 329.018182 191.744923 
L 333.527273 191.125301 
L 338.036364 191.249225 
L 342.545455 191.868847 
L 347.054545 191.559036 
L 351.563636 191.435112 
L 356.072727 191.559036 
L 360.581818 191.37315 
L 365.090909 191.992771 
L 369.6 191.249225 
L 374.109091 191.868847 
L 378.618182 191.868847 
L 383.127273 191.930809 
L 387.636364 191.187263 
L 392.145455 191.249225 
L 396.654545 191.868847 
L 401.163636 191.435112 
L 405.672727 191.68296 
L 410.181818 192.054733 
L 414.690909 191.992771 
L 419.2 191.992771 
L 423.709091 191.868847 
L 428.218182 191.930809 
L 432.727273 191.992771 
L 437.236364 191.930809 
L 441.745455 191.806885 
L 446.254545 191.930809 
L 450.763636 191.992771 
L 455.272727 191.930809 
L 459.781818 192.55043 
L 464.290909 191.001377 
L 468.8 191.930809 
L 473.309091 191.868847 
L 477.818182 192.612392 
L 482.327273 192.116695 
L 486.836364 191.559036 
L 491.345455 191.930809 
L 495.854545 192.116695 
L 500.363636 191.992771 
L 504.872727 191.559036 
L 509.381818 191.930809 
L 513.890909 192.054733 
L 518.4 191.992771 
" clip-path="url(#pade72d711a)" style="fill: none; stroke: #7f7f7f; stroke-width: 1.5; stroke-linecap: square"/>
   </g>
   <g id="patch_3">
    <path d="M 72 320.4 
L 72 43.2 
" style="fill: none; stroke: #000000; stroke-width: 0.8; stroke-linejoin: miter; stroke-linecap: square"/>
   </g>
   <g id="patch_4">
    <path d="M 518.4 320.4 
L 518.4 43.2 
" style="fill: none; stroke: #000000; stroke-width: 0.8; stroke-linejoin: miter; stroke-linecap: square"/>
   </g>
   <g id="patch_5">
    <path d="M 72 320.4 
L 518.4 320.4 
" style="fill: none; stroke: #000000; stroke-width: 0.8; stroke-linejoin: miter; stroke-linecap: square"/>
   </g>
   <g id="patch_6">
    <path d="M 72 43.2 
L 518.4 43.2 
" style="fill: none; stroke: #000000; stroke-width: 0.8; stroke-linejoin: miter; stroke-linecap: square"/>
   </g>
   <g id="text_17">
    <!-- Human Ensemble (ocr) -->
    <g transform="translate(226.205625 37.2) scale(0.12 -0.12)">
     <defs>
      <path id="DejaVuSans-48" d="M 628 4666 
L 1259 4666 
L 1259 2753 
L 3553 2753 
L 3553 4666 
L 4184 4666 
L 4184 0 
L 3553 0 
L 3553 2222 
L 1259 2222 
L 1259 0 
L 628 0 
L 628 4666 
z
" transform="scale(0.015625)"/>
      <path id="DejaVuSans-75" d="M 544 1381 
L 544 3500 
L 1119 3500 
L 1119 1403 
Q 1119 906 1312 657 
Q 1506 409 1894 409 
Q 2359 409 2629 706 
Q 2900 1003 2900 1516 
L 2900 3500 
L 3475 3500 
L 3475 0 
L 2900 0 
L 2900 538 
Q 2691 219 2414 64 
Q 2138 -91 1772 -91 
Q 1169 -91 856 284 
Q 544 659 544 1381 
z
M 1991 3584 
L 1991 3584 
z
" transform="scale(0.015625)"/>
      <path id="DejaVuSans-6d" d="M 3328 2828 
Q 3544 3216 3844 3400 
Q 4144 3584 4550 3584 
Q 5097 3584 5394 3201 
Q 5691 2819 5691 2113 
L 5691 0 
L 5113 0 
L 5113 2094 
Q 5113 2597 4934 2840 
Q 4756 3084 4391 3084 
Q 3944 3084 3684 2787 
Q 3425 2491 3425 1978 
L 3425 0 
L 2847 0 
L 2847 2094 
Q 2847 2600 2669 2842 
Q 2491 3084 2119 3084 
Q 1678 3084 1418 2786 
Q 1159 2488 1159 1978 
L 1159 0 
L 581 0 
L 581 3500 
L 1159 3500 
L 1159 2956 
Q 1356 3278 1631 3431 
Q 1906 3584 2284 3584 
Q 2666 3584 2933 3390 
Q 3200 3197 3328 2828 
z
" transform="scale(0.015625)"/>
      <path id="DejaVuSans-45" d="M 628 4666 
L 3578 4666 
L 3578 4134 
L 1259 4134 
L 1259 2753 
L 3481 2753 
L 3481 2222 
L 1259 2222 
L 1259 531 
L 3634 531 
L 3634 0 
L 628 0 
L 628 4666 
z
" transform="scale(0.015625)"/>
      <path id="DejaVuSans-62" d="M 3116 1747 
Q 3116 2381 2855 2742 
Q 2594 3103 2138 3103 
Q 1681 3103 1420 2742 
Q 1159 2381 1159 1747 
Q 1159 1113 1420 752 
Q 1681 391 2138 391 
Q 2594 391 2855 752 
Q 3116 1113 3116 1747 
z
M 1159 2969 
Q 1341 3281 1617 3432 
Q 1894 3584 2278 3584 
Q 2916 3584 3314 3078 
Q 3713 2572 3713 1747 
Q 3713 922 3314 415 
Q 2916 -91 2278 -91 
Q 1894 -91 1617 61 
Q 1341 213 1159 525 
L 1159 0 
L 581 0 
L 581 4863 
L 1159 4863 
L 1159 2969 
z
" transform="scale(0.015625)"/>
      <path id="DejaVuSans-6c" d="M 603 4863 
L 1178 4863 
L 1178 0 
L 603 0 
L 603 4863 
z
" transform="scale(0.015625)"/>
      <path id="DejaVuSans-28" d="M 1984 4856 
Q 1566 4138 1362 3434 
Q 1159 2731 1159 2009 
Q 1159 1288 1364 580 
Q 1569 -128 1984 -844 
L 1484 -844 
Q 1016 -109 783 600 
Q 550 1309 550 2009 
Q 550 2706 781 3412 
Q 1013 4119 1484 4856 
L 1984 4856 
z
" transform="scale(0.015625)"/>
      <path id="DejaVuSans-63" d="M 3122 3366 
L 3122 2828 
Q 2878 2963 2633 3030 
Q 2388 3097 2138 3097 
Q 1578 3097 1268 2742 
Q 959 2388 959 1747 
Q 959 1106 1268 751 
Q 1578 397 2138 397 
Q 2388 397 2633 464 
Q 2878 531 3122 666 
L 3122 134 
Q 2881 22 2623 -34 
Q 2366 -91 2075 -91 
Q 1284 -91 818 406 
Q 353 903 353 1747 
Q 353 2603 823 3093 
Q 1294 3584 2113 3584 
Q 2378 3584 2631 3529 
Q 2884 3475 3122 3366 
z
" transform="scale(0.015625)"/>
      <path id="DejaVuSans-29" d="M 513 4856 
L 1013 4856 
Q 1481 4119 1714 3412 
Q 1947 2706 1947 2009 
Q 1947 1309 1714 600 
Q 1481 -109 1013 -844 
L 513 -844 
Q 928 -128 1133 580 
Q 1338 1288 1338 2009 
Q 1338 2731 1133 3434 
Q 928 4138 513 4856 
z
" transform="scale(0.015625)"/>
     </defs>
     <use xlink:href="#DejaVuSans-48"/>
     <use xlink:href="#DejaVuSans-75" transform="translate(75.195312 0)"/>
     <use xlink:href="#DejaVuSans-6d" transform="translate(138.574219 0)"/>
     <use xlink:href="#DejaVuSans-61" transform="translate(235.986328 0)"/>
     <use xlink:href="#DejaVuSans-6e" transform="translate(297.265625 0)"/>
     <use xlink:href="#DejaVuSans-20" transform="translate(360.644531 0)"/>
     <use xlink:href="#DejaVuSans-45" transform="translate(392.431641 0)"/>
     <use xlink:href="#DejaVuSans-6e" transform="translate(455.615234 0)"/>
     <use xlink:href="#DejaVuSans-73" transform="translate(518.994141 0)"/>
     <use xlink:href="#DejaVuSans-65" transform="translate(571.09375 0)"/>
     <use xlink:href="#DejaVuSans-6d" transform="translate(632.617188 0)"/>
     <use xlink:href="#DejaVuSans-62" transform="translate(730.029297 0)"/>
     <use xlink:href="#DejaVuSans-6c" transform="translate(793.505859 0)"/>
     <use xlink:href="#DejaVuSans-65" transform="translate(821.289062 0)"/>
     <use xlink:href="#DejaVuSans-20" transform="translate(882.8125 0)"/>
     <use xlink:href="#DejaVuSans-28" transform="translate(914.599609 0)"/>
     <use xlink:href="#DejaVuSans-6f" transform="translate(953.613281 0)"/>
     <use xlink:href="#DejaVuSans-63" transform="translate(1014.794922 0)"/>
     <use xlink:href="#DejaVuSans-72" transform="translate(1069.775391 0)"/>
     <use xlink:href="#DejaVuSans-29" transform="translate(1110.888672 0)"/>
    </g>
   </g>
   <g id="legend_1">
    <g id="patch_7">
     <path d="M 334.210684 147.679025 
L 512.569 147.679025 
Q 514.235 147.679025 514.235 146.013025 
L 514.235 49.031 
Q 514.235 47.365 512.569 47.365 
L 334.210684 47.365 
Q 332.544684 47.365 332.544684 49.031 
L 332.544684 146.013025 
Q 332.544684 147.679025 334.210684 147.679025 
z
" style="fill: #ffffff; opacity: 0.8; stroke: #cccccc; stroke-linejoin: miter"/>
    </g>
    <g id="line2d_23">
     <path d="M 335.876684 54.110998 
L 344.206684 54.110998 
L 352.536684 54.110998 
" style="fill: none; stroke: #1f77b4; stroke-width: 1.5; stroke-linecap: square"/>
    </g>
    <g id="text_18">
     <!-- NT-MS V2 (50M) with rand. weights -->
     <g transform="translate(359.200684 57.026498) scale(0.0833 -0.0833)">
      <defs>
       <path id="DejaVuSans-4e" d="M 628 4666 
L 1478 4666 
L 3547 763 
L 3547 4666 
L 4159 4666 
L 4159 0 
L 3309 0 
L 1241 3903 
L 1241 0 
L 628 0 
L 628 4666 
z
" transform="scale(0.015625)"/>
       <path id="DejaVuSans-2d" d="M 313 2009 
L 1997 2009 
L 1997 1497 
L 313 1497 
L 313 2009 
z
" transform="scale(0.015625)"/>
       <path id="DejaVuSans-4d" d="M 628 4666 
L 1569 4666 
L 2759 1491 
L 3956 4666 
L 4897 4666 
L 4897 0 
L 4281 0 
L 4281 4097 
L 3078 897 
L 2444 897 
L 1241 4097 
L 1241 0 
L 628 0 
L 628 4666 
z
" transform="scale(0.015625)"/>
       <path id="DejaVuSans-53" d="M 3425 4513 
L 3425 3897 
Q 3066 4069 2747 4153 
Q 2428 4238 2131 4238 
Q 1616 4238 1336 4038 
Q 1056 3838 1056 3469 
Q 1056 3159 1242 3001 
Q 1428 2844 1947 2747 
L 2328 2669 
Q 3034 2534 3370 2195 
Q 3706 1856 3706 1288 
Q 3706 609 3251 259 
Q 2797 -91 1919 -91 
Q 1588 -91 1214 -16 
Q 841 59 441 206 
L 441 856 
Q 825 641 1194 531 
Q 1563 422 1919 422 
Q 2459 422 2753 634 
Q 3047 847 3047 1241 
Q 3047 1584 2836 1778 
Q 2625 1972 2144 2069 
L 1759 2144 
Q 1053 2284 737 2584 
Q 422 2884 422 3419 
Q 422 4038 858 4394 
Q 1294 4750 2059 4750 
Q 2388 4750 2728 4690 
Q 3069 4631 3425 4513 
z
" transform="scale(0.015625)"/>
       <path id="DejaVuSans-56" d="M 1831 0 
L 50 4666 
L 709 4666 
L 2188 738 
L 3669 4666 
L 4325 4666 
L 2547 0 
L 1831 0 
z
" transform="scale(0.015625)"/>
       <path id="DejaVuSans-77" d="M 269 3500 
L 844 3500 
L 1563 769 
L 2278 3500 
L 2956 3500 
L 3675 769 
L 4391 3500 
L 4966 3500 
L 4050 0 
L 3372 0 
L 2619 2869 
L 1863 0 
L 1184 0 
L 269 3500 
z
" transform="scale(0.015625)"/>
       <path id="DejaVuSans-68" d="M 3513 2113 
L 3513 0 
L 2938 0 
L 2938 2094 
Q 2938 2591 2744 2837 
Q 2550 3084 2163 3084 
Q 1697 3084 1428 2787 
Q 1159 2491 1159 1978 
L 1159 0 
L 581 0 
L 581 4863 
L 1159 4863 
L 1159 2956 
Q 1366 3272 1645 3428 
Q 1925 3584 2291 3584 
Q 2894 3584 3203 3211 
Q 3513 2838 3513 2113 
z
" transform="scale(0.015625)"/>
       <path id="DejaVuSans-64" d="M 2906 2969 
L 2906 4863 
L 3481 4863 
L 3481 0 
L 2906 0 
L 2906 525 
Q 2725 213 2448 61 
Q 2172 -91 1784 -91 
Q 1150 -91 751 415 
Q 353 922 353 1747 
Q 353 2572 751 3078 
Q 1150 3584 1784 3584 
Q 2172 3584 2448 3432 
Q 2725 3281 2906 2969 
z
M 947 1747 
Q 947 1113 1208 752 
Q 1469 391 1925 391 
Q 2381 391 2643 752 
Q 2906 1113 2906 1747 
Q 2906 2381 2643 2742 
Q 2381 3103 1925 3103 
Q 1469 3103 1208 2742 
Q 947 2381 947 1747 
z
" transform="scale(0.015625)"/>
      </defs>
      <use xlink:href="#DejaVuSans-4e"/>
      <use xlink:href="#DejaVuSans-54" transform="translate(74.804688 0)"/>
      <use xlink:href="#DejaVuSans-2d" transform="translate(126.763672 0)"/>
      <use xlink:href="#DejaVuSans-4d" transform="translate(162.847656 0)"/>
      <use xlink:href="#DejaVuSans-53" transform="translate(249.126953 0)"/>
      <use xlink:href="#DejaVuSans-20" transform="translate(312.603516 0)"/>
      <use xlink:href="#DejaVuSans-56" transform="translate(344.390625 0)"/>
      <use xlink:href="#DejaVuSans-32" transform="translate(412.798828 0)"/>
      <use xlink:href="#DejaVuSans-20" transform="translate(476.421875 0)"/>
      <use xlink:href="#DejaVuSans-28" transform="translate(508.208984 0)"/>
      <use xlink:href="#DejaVuSans-35" transform="translate(547.222656 0)"/>
      <use xlink:href="#DejaVuSans-30" transform="translate(610.845703 0)"/>
      <use xlink:href="#DejaVuSans-4d" transform="translate(674.46875 0)"/>
      <use xlink:href="#DejaVuSans-29" transform="translate(760.748047 0)"/>
      <use xlink:href="#DejaVuSans-20" transform="translate(799.761719 0)"/>
      <use xlink:href="#DejaVuSans-77" transform="translate(831.548828 0)"/>
      <use xlink:href="#DejaVuSans-69" transform="translate(913.335938 0)"/>
      <use xlink:href="#DejaVuSans-74" transform="translate(941.119141 0)"/>
      <use xlink:href="#DejaVuSans-68" transform="translate(980.328125 0)"/>
      <use xlink:href="#DejaVuSans-20" transform="translate(1043.707031 0)"/>
      <use xlink:href="#DejaVuSans-72" transform="translate(1075.494141 0)"/>
      <use xlink:href="#DejaVuSans-61" transform="translate(1116.607422 0)"/>
      <use xlink:href="#DejaVuSans-6e" transform="translate(1177.886719 0)"/>
      <use xlink:href="#DejaVuSans-64" transform="translate(1241.265625 0)"/>
      <use xlink:href="#DejaVuSans-2e" transform="translate(1304.742188 0)"/>
      <use xlink:href="#DejaVuSans-20" transform="translate(1336.529297 0)"/>
      <use xlink:href="#DejaVuSans-77" transform="translate(1368.316406 0)"/>
      <use xlink:href="#DejaVuSans-65" transform="translate(1450.103516 0)"/>
      <use xlink:href="#DejaVuSans-69" transform="translate(1511.626953 0)"/>
      <use xlink:href="#DejaVuSans-67" transform="translate(1539.410156 0)"/>
      <use xlink:href="#DejaVuSans-68" transform="translate(1602.886719 0)"/>
      <use xlink:href="#DejaVuSans-74" transform="translate(1666.265625 0)"/>
      <use xlink:href="#DejaVuSans-73" transform="translate(1705.474609 0)"/>
     </g>
    </g>
    <g id="line2d_24">
     <path d="M 335.876684 66.337877 
L 344.206684 66.337877 
L 352.536684 66.337877 
" style="fill: none; stroke: #ff7f0e; stroke-width: 1.5; stroke-linecap: square"/>
    </g>
    <g id="text_19">
     <!-- NT-MS V2 (500M) with rand. weights -->
     <g transform="translate(359.200684 69.253377) scale(0.0833 -0.0833)">
      <use xlink:href="#DejaVuSans-4e"/>
      <use xlink:href="#DejaVuSans-54" transform="translate(74.804688 0)"/>
      <use xlink:href="#DejaVuSans-2d" transform="translate(126.763672 0)"/>
      <use xlink:href="#DejaVuSans-4d" transform="translate(162.847656 0)"/>
      <use xlink:href="#DejaVuSans-53" transform="translate(249.126953 0)"/>
      <use xlink:href="#DejaVuSans-20" transform="translate(312.603516 0)"/>
      <use xlink:href="#DejaVuSans-56" transform="translate(344.390625 0)"/>
      <use xlink:href="#DejaVuSans-32" transform="translate(412.798828 0)"/>
      <use xlink:href="#DejaVuSans-20" transform="translate(476.421875 0)"/>
      <use xlink:href="#DejaVuSans-28" transform="translate(508.208984 0)"/>
      <use xlink:href="#DejaVuSans-35" transform="translate(547.222656 0)"/>
      <use xlink:href="#DejaVuSans-30" transform="translate(610.845703 0)"/>
      <use xlink:href="#DejaVuSans-30" transform="translate(674.46875 0)"/>
      <use xlink:href="#DejaVuSans-4d" transform="translate(738.091797 0)"/>
      <use xlink:href="#DejaVuSans-29" transform="translate(824.371094 0)"/>
      <use xlink:href="#DejaVuSans-20" transform="translate(863.384766 0)"/>
      <use xlink:href="#DejaVuSans-77" transform="translate(895.171875 0)"/>
      <use xlink:href="#DejaVuSans-69" transform="translate(976.958984 0)"/>
      <use xlink:href="#DejaVuSans-74" transform="translate(1004.742188 0)"/>
      <use xlink:href="#DejaVuSans-68" transform="translate(1043.951172 0)"/>
      <use xlink:href="#DejaVuSans-20" transform="translate(1107.330078 0)"/>
      <use xlink:href="#DejaVuSans-72" transform="translate(1139.117188 0)"/>
      <use xlink:href="#DejaVuSans-61" transform="translate(1180.230469 0)"/>
      <use xlink:href="#DejaVuSans-6e" transform="translate(1241.509766 0)"/>
      <use xlink:href="#DejaVuSans-64" transform="translate(1304.888672 0)"/>
      <use xlink:href="#DejaVuSans-2e" transform="translate(1368.365234 0)"/>
      <use xlink:href="#DejaVuSans-20" transform="translate(1400.152344 0)"/>
      <use xlink:href="#DejaVuSans-77" transform="translate(1431.939453 0)"/>
      <use xlink:href="#DejaVuSans-65" transform="translate(1513.726562 0)"/>
      <use xlink:href="#DejaVuSans-69" transform="translate(1575.25 0)"/>
      <use xlink:href="#DejaVuSans-67" transform="translate(1603.033203 0)"/>
      <use xlink:href="#DejaVuSans-68" transform="translate(1666.509766 0)"/>
      <use xlink:href="#DejaVuSans-74" transform="translate(1729.888672 0)"/>
      <use xlink:href="#DejaVuSans-73" transform="translate(1769.097656 0)"/>
     </g>
    </g>
    <g id="line2d_25">
     <path d="M 335.876684 78.564755 
L 344.206684 78.564755 
L 352.536684 78.564755 
" style="fill: none; stroke: #2ca02c; stroke-width: 1.5; stroke-linecap: square"/>
    </g>
    <g id="text_20">
     <!-- NT-MS V2 (50M) -->
     <g transform="translate(359.200684 81.480255) scale(0.0833 -0.0833)">
      <use xlink:href="#DejaVuSans-4e"/>
      <use xlink:href="#DejaVuSans-54" transform="translate(74.804688 0)"/>
      <use xlink:href="#DejaVuSans-2d" transform="translate(126.763672 0)"/>
      <use xlink:href="#DejaVuSans-4d" transform="translate(162.847656 0)"/>
      <use xlink:href="#DejaVuSans-53" transform="translate(249.126953 0)"/>
      <use xlink:href="#DejaVuSans-20" transform="translate(312.603516 0)"/>
      <use xlink:href="#DejaVuSans-56" transform="translate(344.390625 0)"/>
      <use xlink:href="#DejaVuSans-32" transform="translate(412.798828 0)"/>
      <use xlink:href="#DejaVuSans-20" transform="translate(476.421875 0)"/>
      <use xlink:href="#DejaVuSans-28" transform="translate(508.208984 0)"/>
      <use xlink:href="#DejaVuSans-35" transform="translate(547.222656 0)"/>
      <use xlink:href="#DejaVuSans-30" transform="translate(610.845703 0)"/>
      <use xlink:href="#DejaVuSans-4d" transform="translate(674.46875 0)"/>
      <use xlink:href="#DejaVuSans-29" transform="translate(760.748047 0)"/>
     </g>
    </g>
    <g id="line2d_26">
     <path d="M 335.876684 90.791633 
L 344.206684 90.791633 
L 352.536684 90.791633 
" style="fill: none; stroke: #d62728; stroke-width: 1.5; stroke-linecap: square"/>
    </g>
    <g id="text_21">
     <!-- NT-1000g (500M) -->
     <g transform="translate(359.200684 93.707133) scale(0.0833 -0.0833)">
      <use xlink:href="#DejaVuSans-4e"/>
      <use xlink:href="#DejaVuSans-54" transform="translate(74.804688 0)"/>
      <use xlink:href="#DejaVuSans-2d" transform="translate(126.763672 0)"/>
      <use xlink:href="#DejaVuSans-31" transform="translate(162.847656 0)"/>
      <use xlink:href="#DejaVuSans-30" transform="translate(226.470703 0)"/>
      <use xlink:href="#DejaVuSans-30" transform="translate(290.09375 0)"/>
      <use xlink:href="#DejaVuSans-30" transform="translate(353.716797 0)"/>
      <use xlink:href="#DejaVuSans-67" transform="translate(417.339844 0)"/>
      <use xlink:href="#DejaVuSans-20" transform="translate(480.816406 0)"/>
      <use xlink:href="#DejaVuSans-28" transform="translate(512.603516 0)"/>
      <use xlink:href="#DejaVuSans-35" transform="translate(551.617188 0)"/>
      <use xlink:href="#DejaVuSans-30" transform="translate(615.240234 0)"/>
      <use xlink:href="#DejaVuSans-30" transform="translate(678.863281 0)"/>
      <use xlink:href="#DejaVuSans-4d" transform="translate(742.486328 0)"/>
      <use xlink:href="#DejaVuSans-29" transform="translate(828.765625 0)"/>
     </g>
    </g>
    <g id="line2d_27">
     <path d="M 335.876684 103.018511 
L 344.206684 103.018511 
L 352.536684 103.018511 
" style="fill: none; stroke: #9467bd; stroke-width: 1.5; stroke-linecap: square"/>
    </g>
    <g id="text_22">
     <!-- NT-MS V2 (250M) -->
     <g transform="translate(359.200684 105.934011) scale(0.0833 -0.0833)">
      <use xlink:href="#DejaVuSans-4e"/>
      <use xlink:href="#DejaVuSans-54" transform="translate(74.804688 0)"/>
      <use xlink:href="#DejaVuSans-2d" transform="translate(126.763672 0)"/>
      <use xlink:href="#DejaVuSans-4d" transform="translate(162.847656 0)"/>
      <use xlink:href="#DejaVuSans-53" transform="translate(249.126953 0)"/>
      <use xlink:href="#DejaVuSans-20" transform="translate(312.603516 0)"/>
      <use xlink:href="#DejaVuSans-56" transform="translate(344.390625 0)"/>
      <use xlink:href="#DejaVuSans-32" transform="translate(412.798828 0)"/>
      <use xlink:href="#DejaVuSans-20" transform="translate(476.421875 0)"/>
      <use xlink:href="#DejaVuSans-28" transform="translate(508.208984 0)"/>
      <use xlink:href="#DejaVuSans-32" transform="translate(547.222656 0)"/>
      <use xlink:href="#DejaVuSans-35" transform="translate(610.845703 0)"/>
      <use xlink:href="#DejaVuSans-30" transform="translate(674.46875 0)"/>
      <use xlink:href="#DejaVuSans-4d" transform="translate(738.091797 0)"/>
      <use xlink:href="#DejaVuSans-29" transform="translate(824.371094 0)"/>
     </g>
    </g>
    <g id="line2d_28">
     <path d="M 335.876684 115.245389 
L 344.206684 115.245389 
L 352.536684 115.245389 
" style="fill: none; stroke: #8c564b; stroke-width: 1.5; stroke-linecap: square"/>
    </g>
    <g id="text_23">
     <!-- NT-MS V2 (100M) -->
     <g transform="translate(359.200684 118.160889) scale(0.0833 -0.0833)">
      <use xlink:href="#DejaVuSans-4e"/>
      <use xlink:href="#DejaVuSans-54" transform="translate(74.804688 0)"/>
      <use xlink:href="#DejaVuSans-2d" transform="translate(126.763672 0)"/>
      <use xlink:href="#DejaVuSans-4d" transform="translate(162.847656 0)"/>
      <use xlink:href="#DejaVuSans-53" transform="translate(249.126953 0)"/>
      <use xlink:href="#DejaVuSans-20" transform="translate(312.603516 0)"/>
      <use xlink:href="#DejaVuSans-56" transform="translate(344.390625 0)"/>
      <use xlink:href="#DejaVuSans-32" transform="translate(412.798828 0)"/>
      <use xlink:href="#DejaVuSans-20" transform="translate(476.421875 0)"/>
      <use xlink:href="#DejaVuSans-28" transform="translate(508.208984 0)"/>
      <use xlink:href="#DejaVuSans-31" transform="translate(547.222656 0)"/>
      <use xlink:href="#DejaVuSans-30" transform="translate(610.845703 0)"/>
      <use xlink:href="#DejaVuSans-30" transform="translate(674.46875 0)"/>
      <use xlink:href="#DejaVuSans-4d" transform="translate(738.091797 0)"/>
      <use xlink:href="#DejaVuSans-29" transform="translate(824.371094 0)"/>
     </g>
    </g>
    <g id="line2d_29">
     <path d="M 335.876684 127.472267 
L 344.206684 127.472267 
L 352.536684 127.472267 
" style="fill: none; stroke: #e377c2; stroke-width: 1.5; stroke-linecap: square"/>
    </g>
    <g id="text_24">
     <!-- NT-Human-Ref. (500M) -->
     <g transform="translate(359.200684 130.387767) scale(0.0833 -0.0833)">
      <defs>
       <path id="DejaVuSans-52" d="M 2841 2188 
Q 3044 2119 3236 1894 
Q 3428 1669 3622 1275 
L 4263 0 
L 3584 0 
L 2988 1197 
Q 2756 1666 2539 1819 
Q 2322 1972 1947 1972 
L 1259 1972 
L 1259 0 
L 628 0 
L 628 4666 
L 2053 4666 
Q 2853 4666 3247 4331 
Q 3641 3997 3641 3322 
Q 3641 2881 3436 2590 
Q 3231 2300 2841 2188 
z
M 1259 4147 
L 1259 2491 
L 2053 2491 
Q 2509 2491 2742 2702 
Q 2975 2913 2975 3322 
Q 2975 3731 2742 3939 
Q 2509 4147 2053 4147 
L 1259 4147 
z
" transform="scale(0.015625)"/>
       <path id="DejaVuSans-66" d="M 2375 4863 
L 2375 4384 
L 1825 4384 
Q 1516 4384 1395 4259 
Q 1275 4134 1275 3809 
L 1275 3500 
L 2222 3500 
L 2222 3053 
L 1275 3053 
L 1275 0 
L 697 0 
L 697 3053 
L 147 3053 
L 147 3500 
L 697 3500 
L 697 3744 
Q 697 4328 969 4595 
Q 1241 4863 1831 4863 
L 2375 4863 
z
" transform="scale(0.015625)"/>
      </defs>
      <use xlink:href="#DejaVuSans-4e"/>
      <use xlink:href="#DejaVuSans-54" transform="translate(74.804688 0)"/>
      <use xlink:href="#DejaVuSans-2d" transform="translate(126.763672 0)"/>
      <use xlink:href="#DejaVuSans-48" transform="translate(162.847656 0)"/>
      <use xlink:href="#DejaVuSans-75" transform="translate(238.042969 0)"/>
      <use xlink:href="#DejaVuSans-6d" transform="translate(301.421875 0)"/>
      <use xlink:href="#DejaVuSans-61" transform="translate(398.833984 0)"/>
      <use xlink:href="#DejaVuSans-6e" transform="translate(460.113281 0)"/>
      <use xlink:href="#DejaVuSans-2d" transform="translate(523.492188 0)"/>
      <use xlink:href="#DejaVuSans-52" transform="translate(559.576172 0)"/>
      <use xlink:href="#DejaVuSans-65" transform="translate(624.558594 0)"/>
      <use xlink:href="#DejaVuSans-66" transform="translate(686.082031 0)"/>
      <use xlink:href="#DejaVuSans-2e" transform="translate(714.037109 0)"/>
      <use xlink:href="#DejaVuSans-20" transform="translate(745.824219 0)"/>
      <use xlink:href="#DejaVuSans-28" transform="translate(777.611328 0)"/>
      <use xlink:href="#DejaVuSans-35" transform="translate(816.625 0)"/>
      <use xlink:href="#DejaVuSans-30" transform="translate(880.248047 0)"/>
      <use xlink:href="#DejaVuSans-30" transform="translate(943.871094 0)"/>
      <use xlink:href="#DejaVuSans-4d" transform="translate(1007.494141 0)"/>
      <use xlink:href="#DejaVuSans-29" transform="translate(1093.773438 0)"/>
     </g>
    </g>
    <g id="line2d_30">
     <path d="M 335.876684 139.699145 
L 344.206684 139.699145 
L 352.536684 139.699145 
" style="fill: none; stroke: #7f7f7f; stroke-width: 1.5; stroke-linecap: square"/>
    </g>
    <g id="text_25">
     <!-- NT-MS V2 (500M) -->
     <g transform="translate(359.200684 142.614645) scale(0.0833 -0.0833)">
      <use xlink:href="#DejaVuSans-4e"/>
      <use xlink:href="#DejaVuSans-54" transform="translate(74.804688 0)"/>
      <use xlink:href="#DejaVuSans-2d" transform="translate(126.763672 0)"/>
      <use xlink:href="#DejaVuSans-4d" transform="translate(162.847656 0)"/>
      <use xlink:href="#DejaVuSans-53" transform="translate(249.126953 0)"/>
      <use xlink:href="#DejaVuSans-20" transform="translate(312.603516 0)"/>
      <use xlink:href="#DejaVuSans-56" transform="translate(344.390625 0)"/>
      <use xlink:href="#DejaVuSans-32" transform="translate(412.798828 0)"/>
      <use xlink:href="#DejaVuSans-20" transform="translate(476.421875 0)"/>
      <use xlink:href="#DejaVuSans-28" transform="translate(508.208984 0)"/>
      <use xlink:href="#DejaVuSans-35" transform="translate(547.222656 0)"/>
      <use xlink:href="#DejaVuSans-30" transform="translate(610.845703 0)"/>
      <use xlink:href="#DejaVuSans-30" transform="translate(674.46875 0)"/>
      <use xlink:href="#DejaVuSans-4d" transform="translate(738.091797 0)"/>
      <use xlink:href="#DejaVuSans-29" transform="translate(824.371094 0)"/>
     </g>
    </g>
   </g>
  </g>
 </g>
 <defs>
  <clipPath id="pade72d711a">
   <rect x="72" y="43.2" width="446.4" height="277.2"/>
  </clipPath>
 </defs>
</svg>
