<?xml version="1.0" encoding="utf-8" standalone="no"?>
<!DOCTYPE svg PUBLIC "-//W3C//DTD SVG 1.1//EN"
  "http://www.w3.org/Graphics/SVG/1.1/DTD/svg11.dtd">
<svg xmlns:xlink="http://www.w3.org/1999/xlink" width="576pt" height="360pt" viewBox="0 0 576 360" xmlns="http://www.w3.org/2000/svg" version="1.1">
 <metadata>
  <rdf:RDF xmlns:dc="http://purl.org/dc/elements/1.1/" xmlns:cc="http://creativecommons.org/ns#" xmlns:rdf="http://www.w3.org/1999/02/22-rdf-syntax-ns#">
   <cc:Work>
    <dc:type rdf:resource="http://purl.org/dc/dcmitype/StillImage"/>
    <dc:date>2025-01-07T03:55:02.309523</dc:date>
    <dc:format>image/svg+xml</dc:format>
    <dc:creator>
     <cc:Agent>
      <dc:title>Matplotlib v3.10.0, https://matplotlib.org/</dc:title>
     </cc:Agent>
    </dc:creator>
   </cc:Work>
  </rdf:RDF>
 </metadata>
 <defs>
  <style type="text/css">*{stroke-linejoin: round; stroke-linecap: butt}</style>
 </defs>
 <g id="figure_1">
  <g id="patch_1">
   <path d="M 0 360 
L 576 360 
L 576 0 
L 0 0 
z
" style="fill: #ffffff"/>
  </g>
  <g id="axes_1">
   <g id="patch_2">
    <path d="M 72 320.4 
L 518.4 320.4 
L 518.4 43.2 
L 72 43.2 
z
" style="fill: #ffffff"/>
   </g>
   <g id="matplotlib.axis_1">
    <g id="xtick_1">
     <g id="line2d_1">
      <defs>
       <path id="m690788c416" d="M 0 0 
L 0 3.5 
" style="stroke: #000000; stroke-width: 0.8"/>
      </defs>
      <g>
       <use xlink:href="#m690788c416" x="157.672727" y="320.4" style="stroke: #000000; stroke-width: 0.8"/>
      </g>
     </g>
     <g id="text_1">
      <!-- 2000 -->
      <g transform="translate(144.947727 334.998438) scale(0.1 -0.1)">
       <defs>
        <path id="DejaVuSans-32" d="M 1228 531 
L 3431 531 
L 3431 0 
L 469 0 
L 469 531 
Q 828 903 1448 1529 
Q 2069 2156 2228 2338 
Q 2531 2678 2651 2914 
Q 2772 3150 2772 3378 
Q 2772 3750 2511 3984 
Q 2250 4219 1831 4219 
Q 1534 4219 1204 4116 
Q 875 4013 500 3803 
L 500 4441 
Q 881 4594 1212 4672 
Q 1544 4750 1819 4750 
Q 2544 4750 2975 4387 
Q 3406 4025 3406 3419 
Q 3406 3131 3298 2873 
Q 3191 2616 2906 2266 
Q 2828 2175 2409 1742 
Q 1991 1309 1228 531 
z
" transform="scale(0.015625)"/>
        <path id="DejaVuSans-30" d="M 2034 4250 
Q 1547 4250 1301 3770 
Q 1056 3291 1056 2328 
Q 1056 1369 1301 889 
Q 1547 409 2034 409 
Q 2525 409 2770 889 
Q 3016 1369 3016 2328 
Q 3016 3291 2770 3770 
Q 2525 4250 2034 4250 
z
M 2034 4750 
Q 2819 4750 3233 4129 
Q 3647 3509 3647 2328 
Q 3647 1150 3233 529 
Q 2819 -91 2034 -91 
Q 1250 -91 836 529 
Q 422 1150 422 2328 
Q 422 3509 836 4129 
Q 1250 4750 2034 4750 
z
" transform="scale(0.015625)"/>
       </defs>
       <use xlink:href="#DejaVuSans-32"/>
       <use xlink:href="#DejaVuSans-30" transform="translate(63.623047 0)"/>
       <use xlink:href="#DejaVuSans-30" transform="translate(127.246094 0)"/>
       <use xlink:href="#DejaVuSans-30" transform="translate(190.869141 0)"/>
      </g>
     </g>
    </g>
    <g id="xtick_2">
     <g id="line2d_2">
      <g>
       <use xlink:href="#m690788c416" x="247.854545" y="320.4" style="stroke: #000000; stroke-width: 0.8"/>
      </g>
     </g>
     <g id="text_2">
      <!-- 4000 -->
      <g transform="translate(235.129545 334.998438) scale(0.1 -0.1)">
       <defs>
        <path id="DejaVuSans-34" d="M 2419 4116 
L 825 1625 
L 2419 1625 
L 2419 4116 
z
M 2253 4666 
L 3047 4666 
L 3047 1625 
L 3713 1625 
L 3713 1100 
L 3047 1100 
L 3047 0 
L 2419 0 
L 2419 1100 
L 313 1100 
L 313 1709 
L 2253 4666 
z
" transform="scale(0.015625)"/>
       </defs>
       <use xlink:href="#DejaVuSans-34"/>
       <use xlink:href="#DejaVuSans-30" transform="translate(63.623047 0)"/>
       <use xlink:href="#DejaVuSans-30" transform="translate(127.246094 0)"/>
       <use xlink:href="#DejaVuSans-30" transform="translate(190.869141 0)"/>
      </g>
     </g>
    </g>
    <g id="xtick_3">
     <g id="line2d_3">
      <g>
       <use xlink:href="#m690788c416" x="338.036364" y="320.4" style="stroke: #000000; stroke-width: 0.8"/>
      </g>
     </g>
     <g id="text_3">
      <!-- 6000 -->
      <g transform="translate(325.311364 334.998438) scale(0.1 -0.1)">
       <defs>
        <path id="DejaVuSans-36" d="M 2113 2584 
Q 1688 2584 1439 2293 
Q 1191 2003 1191 1497 
Q 1191 994 1439 701 
Q 1688 409 2113 409 
Q 2538 409 2786 701 
Q 3034 994 3034 1497 
Q 3034 2003 2786 2293 
Q 2538 2584 2113 2584 
z
M 3366 4563 
L 3366 3988 
Q 3128 4100 2886 4159 
Q 2644 4219 2406 4219 
Q 1781 4219 1451 3797 
Q 1122 3375 1075 2522 
Q 1259 2794 1537 2939 
Q 1816 3084 2150 3084 
Q 2853 3084 3261 2657 
Q 3669 2231 3669 1497 
Q 3669 778 3244 343 
Q 2819 -91 2113 -91 
Q 1303 -91 875 529 
Q 447 1150 447 2328 
Q 447 3434 972 4092 
Q 1497 4750 2381 4750 
Q 2619 4750 2861 4703 
Q 3103 4656 3366 4563 
z
" transform="scale(0.015625)"/>
       </defs>
       <use xlink:href="#DejaVuSans-36"/>
       <use xlink:href="#DejaVuSans-30" transform="translate(63.623047 0)"/>
       <use xlink:href="#DejaVuSans-30" transform="translate(127.246094 0)"/>
       <use xlink:href="#DejaVuSans-30" transform="translate(190.869141 0)"/>
      </g>
     </g>
    </g>
    <g id="xtick_4">
     <g id="line2d_4">
      <g>
       <use xlink:href="#m690788c416" x="428.218182" y="320.4" style="stroke: #000000; stroke-width: 0.8"/>
      </g>
     </g>
     <g id="text_4">
      <!-- 8000 -->
      <g transform="translate(415.493182 334.998438) scale(0.1 -0.1)">
       <defs>
        <path id="DejaVuSans-38" d="M 2034 2216 
Q 1584 2216 1326 1975 
Q 1069 1734 1069 1313 
Q 1069 891 1326 650 
Q 1584 409 2034 409 
Q 2484 409 2743 651 
Q 3003 894 3003 1313 
Q 3003 1734 2745 1975 
Q 2488 2216 2034 2216 
z
M 1403 2484 
Q 997 2584 770 2862 
Q 544 3141 544 3541 
Q 544 4100 942 4425 
Q 1341 4750 2034 4750 
Q 2731 4750 3128 4425 
Q 3525 4100 3525 3541 
Q 3525 3141 3298 2862 
Q 3072 2584 2669 2484 
Q 3125 2378 3379 2068 
Q 3634 1759 3634 1313 
Q 3634 634 3220 271 
Q 2806 -91 2034 -91 
Q 1263 -91 848 271 
Q 434 634 434 1313 
Q 434 1759 690 2068 
Q 947 2378 1403 2484 
z
M 1172 3481 
Q 1172 3119 1398 2916 
Q 1625 2713 2034 2713 
Q 2441 2713 2670 2916 
Q 2900 3119 2900 3481 
Q 2900 3844 2670 4047 
Q 2441 4250 2034 4250 
Q 1625 4250 1398 4047 
Q 1172 3844 1172 3481 
z
" transform="scale(0.015625)"/>
       </defs>
       <use xlink:href="#DejaVuSans-38"/>
       <use xlink:href="#DejaVuSans-30" transform="translate(63.623047 0)"/>
       <use xlink:href="#DejaVuSans-30" transform="translate(127.246094 0)"/>
       <use xlink:href="#DejaVuSans-30" transform="translate(190.869141 0)"/>
      </g>
     </g>
    </g>
    <g id="xtick_5">
     <g id="line2d_5">
      <g>
       <use xlink:href="#m690788c416" x="518.4" y="320.4" style="stroke: #000000; stroke-width: 0.8"/>
      </g>
     </g>
     <g id="text_5">
      <!-- 10000 -->
      <g transform="translate(502.49375 334.998438) scale(0.1 -0.1)">
       <defs>
        <path id="DejaVuSans-31" d="M 794 531 
L 1825 531 
L 1825 4091 
L 703 3866 
L 703 4441 
L 1819 4666 
L 2450 4666 
L 2450 531 
L 3481 531 
L 3481 0 
L 794 0 
L 794 531 
z
" transform="scale(0.015625)"/>
       </defs>
       <use xlink:href="#DejaVuSans-31"/>
       <use xlink:href="#DejaVuSans-30" transform="translate(63.623047 0)"/>
       <use xlink:href="#DejaVuSans-30" transform="translate(127.246094 0)"/>
       <use xlink:href="#DejaVuSans-30" transform="translate(190.869141 0)"/>
       <use xlink:href="#DejaVuSans-30" transform="translate(254.492188 0)"/>
      </g>
     </g>
    </g>
    <g id="text_6">
     <!-- Training steps -->
     <g transform="translate(260.464844 348.676562) scale(0.1 -0.1)">
      <defs>
       <path id="DejaVuSans-54" d="M -19 4666 
L 3928 4666 
L 3928 4134 
L 2272 4134 
L 2272 0 
L 1638 0 
L 1638 4134 
L -19 4134 
L -19 4666 
z
" transform="scale(0.015625)"/>
       <path id="DejaVuSans-72" d="M 2631 2963 
Q 2534 3019 2420 3045 
Q 2306 3072 2169 3072 
Q 1681 3072 1420 2755 
Q 1159 2438 1159 1844 
L 1159 0 
L 581 0 
L 581 3500 
L 1159 3500 
L 1159 2956 
Q 1341 3275 1631 3429 
Q 1922 3584 2338 3584 
Q 2397 3584 2469 3576 
Q 2541 3569 2628 3553 
L 2631 2963 
z
" transform="scale(0.015625)"/>
       <path id="DejaVuSans-61" d="M 2194 1759 
Q 1497 1759 1228 1600 
Q 959 1441 959 1056 
Q 959 750 1161 570 
Q 1363 391 1709 391 
Q 2188 391 2477 730 
Q 2766 1069 2766 1631 
L 2766 1759 
L 2194 1759 
z
M 3341 1997 
L 3341 0 
L 2766 0 
L 2766 531 
Q 2569 213 2275 61 
Q 1981 -91 1556 -91 
Q 1019 -91 701 211 
Q 384 513 384 1019 
Q 384 1609 779 1909 
Q 1175 2209 1959 2209 
L 2766 2209 
L 2766 2266 
Q 2766 2663 2505 2880 
Q 2244 3097 1772 3097 
Q 1472 3097 1187 3025 
Q 903 2953 641 2809 
L 641 3341 
Q 956 3463 1253 3523 
Q 1550 3584 1831 3584 
Q 2591 3584 2966 3190 
Q 3341 2797 3341 1997 
z
" transform="scale(0.015625)"/>
       <path id="DejaVuSans-69" d="M 603 3500 
L 1178 3500 
L 1178 0 
L 603 0 
L 603 3500 
z
M 603 4863 
L 1178 4863 
L 1178 4134 
L 603 4134 
L 603 4863 
z
" transform="scale(0.015625)"/>
       <path id="DejaVuSans-6e" d="M 3513 2113 
L 3513 0 
L 2938 0 
L 2938 2094 
Q 2938 2591 2744 2837 
Q 2550 3084 2163 3084 
Q 1697 3084 1428 2787 
Q 1159 2491 1159 1978 
L 1159 0 
L 581 0 
L 581 3500 
L 1159 3500 
L 1159 2956 
Q 1366 3272 1645 3428 
Q 1925 3584 2291 3584 
Q 2894 3584 3203 3211 
Q 3513 2838 3513 2113 
z
" transform="scale(0.015625)"/>
       <path id="DejaVuSans-67" d="M 2906 1791 
Q 2906 2416 2648 2759 
Q 2391 3103 1925 3103 
Q 1463 3103 1205 2759 
Q 947 2416 947 1791 
Q 947 1169 1205 825 
Q 1463 481 1925 481 
Q 2391 481 2648 825 
Q 2906 1169 2906 1791 
z
M 3481 434 
Q 3481 -459 3084 -895 
Q 2688 -1331 1869 -1331 
Q 1566 -1331 1297 -1286 
Q 1028 -1241 775 -1147 
L 775 -588 
Q 1028 -725 1275 -790 
Q 1522 -856 1778 -856 
Q 2344 -856 2625 -561 
Q 2906 -266 2906 331 
L 2906 616 
Q 2728 306 2450 153 
Q 2172 0 1784 0 
Q 1141 0 747 490 
Q 353 981 353 1791 
Q 353 2603 747 3093 
Q 1141 3584 1784 3584 
Q 2172 3584 2450 3431 
Q 2728 3278 2906 2969 
L 2906 3500 
L 3481 3500 
L 3481 434 
z
" transform="scale(0.015625)"/>
       <path id="DejaVuSans-20" transform="scale(0.015625)"/>
       <path id="DejaVuSans-73" d="M 2834 3397 
L 2834 2853 
Q 2591 2978 2328 3040 
Q 2066 3103 1784 3103 
Q 1356 3103 1142 2972 
Q 928 2841 928 2578 
Q 928 2378 1081 2264 
Q 1234 2150 1697 2047 
L 1894 2003 
Q 2506 1872 2764 1633 
Q 3022 1394 3022 966 
Q 3022 478 2636 193 
Q 2250 -91 1575 -91 
Q 1294 -91 989 -36 
Q 684 19 347 128 
L 347 722 
Q 666 556 975 473 
Q 1284 391 1588 391 
Q 1994 391 2212 530 
Q 2431 669 2431 922 
Q 2431 1156 2273 1281 
Q 2116 1406 1581 1522 
L 1381 1569 
Q 847 1681 609 1914 
Q 372 2147 372 2553 
Q 372 3047 722 3315 
Q 1072 3584 1716 3584 
Q 2034 3584 2315 3537 
Q 2597 3491 2834 3397 
z
" transform="scale(0.015625)"/>
       <path id="DejaVuSans-74" d="M 1172 4494 
L 1172 3500 
L 2356 3500 
L 2356 3053 
L 1172 3053 
L 1172 1153 
Q 1172 725 1289 603 
Q 1406 481 1766 481 
L 2356 481 
L 2356 0 
L 1766 0 
Q 1100 0 847 248 
Q 594 497 594 1153 
L 594 3053 
L 172 3053 
L 172 3500 
L 594 3500 
L 594 4494 
L 1172 4494 
z
" transform="scale(0.015625)"/>
       <path id="DejaVuSans-65" d="M 3597 1894 
L 3597 1613 
L 953 1613 
Q 991 1019 1311 708 
Q 1631 397 2203 397 
Q 2534 397 2845 478 
Q 3156 559 3463 722 
L 3463 178 
Q 3153 47 2828 -22 
Q 2503 -91 2169 -91 
Q 1331 -91 842 396 
Q 353 884 353 1716 
Q 353 2575 817 3079 
Q 1281 3584 2069 3584 
Q 2775 3584 3186 3129 
Q 3597 2675 3597 1894 
z
M 3022 2063 
Q 3016 2534 2758 2815 
Q 2500 3097 2075 3097 
Q 1594 3097 1305 2825 
Q 1016 2553 972 2059 
L 3022 2063 
z
" transform="scale(0.015625)"/>
       <path id="DejaVuSans-70" d="M 1159 525 
L 1159 -1331 
L 581 -1331 
L 581 3500 
L 1159 3500 
L 1159 2969 
Q 1341 3281 1617 3432 
Q 1894 3584 2278 3584 
Q 2916 3584 3314 3078 
Q 3713 2572 3713 1747 
Q 3713 922 3314 415 
Q 2916 -91 2278 -91 
Q 1894 -91 1617 61 
Q 1341 213 1159 525 
z
M 3116 1747 
Q 3116 2381 2855 2742 
Q 2594 3103 2138 3103 
Q 1681 3103 1420 2742 
Q 1159 2381 1159 1747 
Q 1159 1113 1420 752 
Q 1681 391 2138 391 
Q 2594 391 2855 752 
Q 3116 1113 3116 1747 
z
" transform="scale(0.015625)"/>
      </defs>
      <use xlink:href="#DejaVuSans-54"/>
      <use xlink:href="#DejaVuSans-72" transform="translate(46.333984 0)"/>
      <use xlink:href="#DejaVuSans-61" transform="translate(87.447266 0)"/>
      <use xlink:href="#DejaVuSans-69" transform="translate(148.726562 0)"/>
      <use xlink:href="#DejaVuSans-6e" transform="translate(176.509766 0)"/>
      <use xlink:href="#DejaVuSans-69" transform="translate(239.888672 0)"/>
      <use xlink:href="#DejaVuSans-6e" transform="translate(267.671875 0)"/>
      <use xlink:href="#DejaVuSans-67" transform="translate(331.050781 0)"/>
      <use xlink:href="#DejaVuSans-20" transform="translate(394.527344 0)"/>
      <use xlink:href="#DejaVuSans-73" transform="translate(426.314453 0)"/>
      <use xlink:href="#DejaVuSans-74" transform="translate(478.414062 0)"/>
      <use xlink:href="#DejaVuSans-65" transform="translate(517.623047 0)"/>
      <use xlink:href="#DejaVuSans-70" transform="translate(579.146484 0)"/>
      <use xlink:href="#DejaVuSans-73" transform="translate(642.623047 0)"/>
     </g>
    </g>
   </g>
   <g id="matplotlib.axis_2">
    <g id="ytick_1">
     <g id="line2d_6">
      <defs>
       <path id="mac3ce63d08" d="M 0 0 
L -3.5 0 
" style="stroke: #000000; stroke-width: 0.8"/>
      </defs>
      <g>
       <use xlink:href="#mac3ce63d08" x="72" y="300.517901" style="stroke: #000000; stroke-width: 0.8"/>
      </g>
     </g>
     <g id="text_7">
      <!-- 0.2 -->
      <g transform="translate(49.096875 304.317119) scale(0.1 -0.1)">
       <defs>
        <path id="DejaVuSans-2e" d="M 684 794 
L 1344 794 
L 1344 0 
L 684 0 
L 684 794 
z
" transform="scale(0.015625)"/>
       </defs>
       <use xlink:href="#DejaVuSans-30"/>
       <use xlink:href="#DejaVuSans-2e" transform="translate(63.623047 0)"/>
       <use xlink:href="#DejaVuSans-32" transform="translate(95.410156 0)"/>
      </g>
     </g>
    </g>
    <g id="ytick_2">
     <g id="line2d_7">
      <g>
       <use xlink:href="#mac3ce63d08" x="72" y="261.155201" style="stroke: #000000; stroke-width: 0.8"/>
      </g>
     </g>
     <g id="text_8">
      <!-- 0.3 -->
      <g transform="translate(49.096875 264.95442) scale(0.1 -0.1)">
       <defs>
        <path id="DejaVuSans-33" d="M 2597 2516 
Q 3050 2419 3304 2112 
Q 3559 1806 3559 1356 
Q 3559 666 3084 287 
Q 2609 -91 1734 -91 
Q 1441 -91 1130 -33 
Q 819 25 488 141 
L 488 750 
Q 750 597 1062 519 
Q 1375 441 1716 441 
Q 2309 441 2620 675 
Q 2931 909 2931 1356 
Q 2931 1769 2642 2001 
Q 2353 2234 1838 2234 
L 1294 2234 
L 1294 2753 
L 1863 2753 
Q 2328 2753 2575 2939 
Q 2822 3125 2822 3475 
Q 2822 3834 2567 4026 
Q 2313 4219 1838 4219 
Q 1578 4219 1281 4162 
Q 984 4106 628 3988 
L 628 4550 
Q 988 4650 1302 4700 
Q 1616 4750 1894 4750 
Q 2613 4750 3031 4423 
Q 3450 4097 3450 3541 
Q 3450 3153 3228 2886 
Q 3006 2619 2597 2516 
z
" transform="scale(0.015625)"/>
       </defs>
       <use xlink:href="#DejaVuSans-30"/>
       <use xlink:href="#DejaVuSans-2e" transform="translate(63.623047 0)"/>
       <use xlink:href="#DejaVuSans-33" transform="translate(95.410156 0)"/>
      </g>
     </g>
    </g>
    <g id="ytick_3">
     <g id="line2d_8">
      <g>
       <use xlink:href="#mac3ce63d08" x="72" y="221.792502" style="stroke: #000000; stroke-width: 0.8"/>
      </g>
     </g>
     <g id="text_9">
      <!-- 0.4 -->
      <g transform="translate(49.096875 225.591721) scale(0.1 -0.1)">
       <use xlink:href="#DejaVuSans-30"/>
       <use xlink:href="#DejaVuSans-2e" transform="translate(63.623047 0)"/>
       <use xlink:href="#DejaVuSans-34" transform="translate(95.410156 0)"/>
      </g>
     </g>
    </g>
    <g id="ytick_4">
     <g id="line2d_9">
      <g>
       <use xlink:href="#mac3ce63d08" x="72" y="182.429803" style="stroke: #000000; stroke-width: 0.8"/>
      </g>
     </g>
     <g id="text_10">
      <!-- 0.5 -->
      <g transform="translate(49.096875 186.229022) scale(0.1 -0.1)">
       <defs>
        <path id="DejaVuSans-35" d="M 691 4666 
L 3169 4666 
L 3169 4134 
L 1269 4134 
L 1269 2991 
Q 1406 3038 1543 3061 
Q 1681 3084 1819 3084 
Q 2600 3084 3056 2656 
Q 3513 2228 3513 1497 
Q 3513 744 3044 326 
Q 2575 -91 1722 -91 
Q 1428 -91 1123 -41 
Q 819 9 494 109 
L 494 744 
Q 775 591 1075 516 
Q 1375 441 1709 441 
Q 2250 441 2565 725 
Q 2881 1009 2881 1497 
Q 2881 1984 2565 2268 
Q 2250 2553 1709 2553 
Q 1456 2553 1204 2497 
Q 953 2441 691 2322 
L 691 4666 
z
" transform="scale(0.015625)"/>
       </defs>
       <use xlink:href="#DejaVuSans-30"/>
       <use xlink:href="#DejaVuSans-2e" transform="translate(63.623047 0)"/>
       <use xlink:href="#DejaVuSans-35" transform="translate(95.410156 0)"/>
      </g>
     </g>
    </g>
    <g id="ytick_5">
     <g id="line2d_10">
      <g>
       <use xlink:href="#mac3ce63d08" x="72" y="143.067104" style="stroke: #000000; stroke-width: 0.8"/>
      </g>
     </g>
     <g id="text_11">
      <!-- 0.6 -->
      <g transform="translate(49.096875 146.866323) scale(0.1 -0.1)">
       <use xlink:href="#DejaVuSans-30"/>
       <use xlink:href="#DejaVuSans-2e" transform="translate(63.623047 0)"/>
       <use xlink:href="#DejaVuSans-36" transform="translate(95.410156 0)"/>
      </g>
     </g>
    </g>
    <g id="ytick_6">
     <g id="line2d_11">
      <g>
       <use xlink:href="#mac3ce63d08" x="72" y="103.704405" style="stroke: #000000; stroke-width: 0.8"/>
      </g>
     </g>
     <g id="text_12">
      <!-- 0.7 -->
      <g transform="translate(49.096875 107.503624) scale(0.1 -0.1)">
       <defs>
        <path id="DejaVuSans-37" d="M 525 4666 
L 3525 4666 
L 3525 4397 
L 1831 0 
L 1172 0 
L 2766 4134 
L 525 4134 
L 525 4666 
z
" transform="scale(0.015625)"/>
       </defs>
       <use xlink:href="#DejaVuSans-30"/>
       <use xlink:href="#DejaVuSans-2e" transform="translate(63.623047 0)"/>
       <use xlink:href="#DejaVuSans-37" transform="translate(95.410156 0)"/>
      </g>
     </g>
    </g>
    <g id="ytick_7">
     <g id="line2d_12">
      <g>
       <use xlink:href="#mac3ce63d08" x="72" y="64.341706" style="stroke: #000000; stroke-width: 0.8"/>
      </g>
     </g>
     <g id="text_13">
      <!-- 0.8 -->
      <g transform="translate(49.096875 68.140924) scale(0.1 -0.1)">
       <use xlink:href="#DejaVuSans-30"/>
       <use xlink:href="#DejaVuSans-2e" transform="translate(63.623047 0)"/>
       <use xlink:href="#DejaVuSans-38" transform="translate(95.410156 0)"/>
      </g>
     </g>
    </g>
    <g id="text_14">
     <!-- Loss -->
     <g transform="translate(43.017187 192.767187) rotate(-90) scale(0.1 -0.1)">
      <defs>
       <path id="DejaVuSans-4c" d="M 628 4666 
L 1259 4666 
L 1259 531 
L 3531 531 
L 3531 0 
L 628 0 
L 628 4666 
z
" transform="scale(0.015625)"/>
       <path id="DejaVuSans-6f" d="M 1959 3097 
Q 1497 3097 1228 2736 
Q 959 2375 959 1747 
Q 959 1119 1226 758 
Q 1494 397 1959 397 
Q 2419 397 2687 759 
Q 2956 1122 2956 1747 
Q 2956 2369 2687 2733 
Q 2419 3097 1959 3097 
z
M 1959 3584 
Q 2709 3584 3137 3096 
Q 3566 2609 3566 1747 
Q 3566 888 3137 398 
Q 2709 -91 1959 -91 
Q 1206 -91 779 398 
Q 353 888 353 1747 
Q 353 2609 779 3096 
Q 1206 3584 1959 3584 
z
" transform="scale(0.015625)"/>
      </defs>
      <use xlink:href="#DejaVuSans-4c"/>
      <use xlink:href="#DejaVuSans-6f" transform="translate(53.962891 0)"/>
      <use xlink:href="#DejaVuSans-73" transform="translate(115.144531 0)"/>
      <use xlink:href="#DejaVuSans-73" transform="translate(167.244141 0)"/>
     </g>
    </g>
   </g>
   <g id="line2d_13">
    <path d="M 72 107.680037 
L 76.509091 142.437301 
L 81.018182 166.842174 
L 85.527273 164.519775 
L 90.036364 172.982755 
L 94.545455 178.847798 
L 99.054545 168.613496 
L 103.563636 174.79344 
L 108.072727 187.940581 
L 112.581818 196.206748 
L 117.090909 185.145829 
L 121.6 190.381068 
L 126.109091 189.318276 
L 130.618182 191.680037 
L 135.127273 171.644424 
L 139.636364 184.043674 
L 144.145455 195.419494 
L 148.654545 186.602249 
L 153.163636 197.859981 
L 157.672727 202.622868 
L 162.181818 189.318276 
L 166.690909 195.852484 
L 171.2 193.687535 
L 175.709091 190.538519 
L 180.218182 205.929335 
L 184.727273 196.836551 
L 189.236364 196.797188 
L 193.745455 194.317338 
L 198.254545 195.025867 
L 202.763636 181.406373 
L 207.272727 179.241425 
L 211.781818 203.410122 
L 216.290909 202.740956 
L 220.8 192.270478 
L 225.309091 193.333271 
L 229.818182 198.411059 
L 234.327273 202.977132 
L 238.836364 203.882474 
L 243.345455 200.064292 
L 247.854545 196.797188 
L 252.363636 196.836551 
L 256.872727 203.370759 
L 261.381818 225.925586 
L 265.890909 195.537582 
L 270.4 205.260169 
L 274.909091 205.220806 
L 279.418182 228.247985 
L 283.927273 208.409185 
L 288.436364 207.582568 
L 292.945455 197.11209 
L 297.454545 208.684724 
L 301.963636 212.502905 
L 306.472727 211.322024 
L 310.981818 199.985567 
L 315.490909 215.49447 
L 320 213.486973 
L 324.509091 207.46448 
L 329.018182 208.566635 
L 333.527273 215.376382 
L 338.036364 191.758763 
L 342.545455 204.433552 
L 347.054545 200.418557 
L 351.563636 204.945267 
L 356.072727 225.335145 
L 360.581818 218.722212 
L 365.090909 221.635052 
L 369.6 203.134583 
L 374.109091 208.881537 
L 378.618182 201.48135 
L 383.127273 205.220806 
L 387.636364 219.903093 
L 392.145455 213.053983 
L 396.654545 226.043674 
L 401.163636 222.619119 
L 405.672727 221.949953 
L 410.181818 229.586317 
L 414.690909 228.720337 
L 419.2 230.688472 
L 423.709091 217.305155 
L 428.218182 218.367948 
L 432.727273 221.162699 
L 437.236364 218.446673 
L 441.745455 213.998688 
L 446.254545 213.408247 
L 450.763636 218.958388 
L 455.272727 224.154264 
L 459.781818 232.184255 
L 464.290909 224.114902 
L 468.8 211.164574 
L 473.309091 224.941518 
L 477.818182 205.456982 
L 482.327273 217.226429 
L 486.836364 228.917151 
L 491.345455 221.989316 
L 495.854545 234.15239 
L 500.363636 213.132709 
L 504.872727 226.476664 
L 509.381818 217.187067 
L 513.890909 237.813121 
L 518.4 218.958388 
" clip-path="url(#p16ebced324)" style="fill: none; stroke: #1f77b4; stroke-width: 1.5; stroke-linecap: square"/>
   </g>
   <g id="line2d_14">
    <path d="M 72 55.8 
L 76.509091 133.81687 
L 81.018182 149.443861 
L 85.527273 159.993065 
L 90.036364 179.871228 
L 94.545455 173.888097 
L 99.054545 144.32671 
L 103.563636 168.53477 
L 108.072727 191.561949 
L 112.581818 190.223618 
L 117.090909 164.952765 
L 121.6 141.610684 
L 126.109091 169.794377 
L 130.618182 174.202999 
L 135.127273 170.463543 
L 139.636364 180.304217 
L 144.145455 147.593814 
L 148.654545 166.291097 
L 153.163636 178.532896 
L 157.672727 195.183318 
L 162.181818 179.831865 
L 166.690909 192.900281 
L 171.2 197.387629 
L 175.709091 194.277976 
L 180.218182 187.074602 
L 184.727273 205.57507 
L 189.236364 159.127085 
L 193.745455 179.516963 
L 198.254545 184.122399 
L 202.763636 190.184255 
L 207.272727 183.964948 
L 211.781818 181.406373 
L 216.290909 171.368885 
L 220.8 182.23299 
L 225.309091 180.304217 
L 229.818182 194.514152 
L 234.327273 197.151453 
L 238.836364 198.883411 
L 243.345455 203.882474 
L 247.854545 190.26298 
L 252.363636 198.017432 
L 256.872727 207.307029 
L 261.381818 199.316401 
L 265.890909 192.74283 
L 270.4 196.364199 
L 274.909091 192.231115 
L 279.418182 196.442924 
L 283.927273 196.482287 
L 288.436364 200.654733 
L 292.945455 188.767198 
L 297.454545 190.656607 
L 301.963636 196.08866 
L 306.472727 202.189878 
L 310.981818 206.401687 
L 315.490909 199.985567 
L 320 211.40075 
L 324.509091 201.835614 
L 329.018182 217.777507 
L 333.527273 207.188941 
L 338.036364 193.726898 
L 342.545455 184.71284 
L 347.054545 201.835614 
L 351.563636 209.275164 
L 356.072727 214.47104 
L 360.581818 213.919963 
L 365.090909 216.242362 
L 369.6 209.747516 
L 374.109091 207.070853 
L 378.618182 204.591003 
L 383.127273 206.165511 
L 387.636364 208.448547 
L 392.145455 210.456045 
L 396.654545 210.456045 
L 401.163636 207.346392 
L 405.672727 209.983693 
L 410.181818 223.20956 
L 414.690909 221.477601 
L 419.2 225.413871 
L 423.709091 215.848735 
L 428.218182 212.699719 
L 432.727273 214.90403 
L 437.236364 210.96776 
L 441.745455 207.503843 
L 446.254545 217.462605 
L 450.763636 218.8403 
L 455.272727 223.406373 
L 459.781818 230.137395 
L 464.290909 213.368885 
L 468.8 213.526336 
L 473.309091 215.258294 
L 477.818182 219.155201 
L 482.327273 219.470103 
L 486.836364 219.194564 
L 491.345455 226.161762 
L 495.854545 228.680975 
L 500.363636 208.527273 
L 504.872727 232.538519 
L 509.381818 212.975258 
L 513.890909 224.82343 
L 518.4 217.856232 
" clip-path="url(#p16ebced324)" style="fill: none; stroke: #ff7f0e; stroke-width: 1.5; stroke-linecap: square"/>
   </g>
   <g id="line2d_15">
    <path d="M 72 199.513215 
L 76.509091 210.731584 
L 81.018182 221.202062 
L 85.527273 212.542268 
L 90.036364 228.208622 
L 94.545455 204.158013 
L 99.054545 214.628491 
L 103.563636 215.612559 
L 108.072727 238.994002 
L 112.581818 231.042737 
L 117.090909 221.438238 
L 121.6 222.855295 
L 126.109091 230.412933 
L 130.618182 238.600375 
L 135.127273 222.264855 
L 139.636364 235.215183 
L 144.145455 233.837488 
L 148.654545 231.042737 
L 153.163636 232.341706 
L 157.672727 231.436364 
L 162.181818 234.270478 
L 166.690909 229.232052 
L 171.2 243.48135 
L 175.709091 230.137395 
L 180.218182 229.310778 
L 184.727273 242.969634 
L 189.236364 240.13552 
L 193.745455 222.501031 
L 198.254545 228.523524 
L 202.763636 231.082099 
L 207.272727 224.980881 
L 211.781818 242.339831 
L 216.290909 237.695033 
L 220.8 227.814995 
L 225.309091 235.490722 
L 229.818182 246.197376 
L 234.327273 230.885286 
L 238.836364 245.213308 
L 243.345455 227.618182 
L 247.854545 240.292971 
L 252.363636 243.756888 
L 256.872727 233.837488 
L 261.381818 263.32015 
L 265.890909 241.670665 
L 270.4 236.947142 
L 274.909091 243.04836 
L 279.418182 260.446673 
L 283.927273 241.040862 
L 288.436364 237.65567 
L 292.945455 239.623805 
L 297.454545 247.732521 
L 301.963636 248.322962 
L 306.472727 241.985567 
L 310.981818 243.993065 
L 315.490909 251.708154 
L 320 263.713777 
L 324.509091 236.356701 
L 329.018182 248.834677 
L 333.527273 253.676289 
L 338.036364 233.28641 
L 342.545455 249.346392 
L 347.054545 244.740956 
L 351.563636 242.930272 
L 356.072727 263.556326 
L 360.581818 228.405436 
L 365.090909 261.509466 
L 369.6 239.54508 
L 374.109091 255.172071 
L 378.618182 257.022118 
L 383.127273 253.243299 
L 387.636364 259.305155 
L 392.145455 256.234864 
L 396.654545 256.352952 
L 401.163636 257.140206 
L 405.672727 245.52821 
L 410.181818 270.995876 
L 414.690909 267.413871 
L 419.2 262.729709 
L 423.709091 253.361387 
L 428.218182 255.644424 
L 432.727273 252.37732 
L 437.236364 253.597563 
L 441.745455 262.257357 
L 446.254545 256.038051 
L 450.763636 254.935895 
L 455.272727 273.633177 
L 459.781818 257.49447 
L 464.290909 240.13552 
L 468.8 261.115839 
L 473.309091 266.862793 
L 477.818182 261.27329 
L 482.327273 250.842174 
L 486.836364 253.164574 
L 491.345455 273.829991 
L 495.854545 267.413871 
L 500.363636 251.235801 
L 504.872727 243.284536 
L 509.381818 243.756888 
L 513.890909 270.011809 
L 518.4 254.227366 
" clip-path="url(#p16ebced324)" style="fill: none; stroke: #2ca02c; stroke-width: 1.5; stroke-linecap: square"/>
   </g>
   <g id="line2d_16">
    <path d="M 72 133.974321 
L 76.509091 199.040862 
L 81.018182 204.158013 
L 85.527273 212.660356 
L 90.036364 187.979944 
L 94.545455 207.621931 
L 99.054545 205.260169 
L 103.563636 206.00806 
L 108.072727 236.002437 
L 112.581818 220.729709 
L 117.090909 199.316401 
L 121.6 180.737207 
L 126.109091 219.627554 
L 130.618182 229.035239 
L 135.127273 205.299531 
L 139.636364 228.720337 
L 144.145455 210.298594 
L 148.654545 213.723149 
L 153.163636 203.449485 
L 157.672727 231.711903 
L 162.181818 210.337957 
L 166.690909 222.658482 
L 171.2 205.260169 
L 175.709091 209.471978 
L 180.218182 217.108341 
L 184.727273 239.033365 
L 189.236364 212.620993 
L 193.745455 194.907779 
L 198.254545 209.157076 
L 202.763636 204.11865 
L 207.272727 206.126148 
L 211.781818 227.539456 
L 216.290909 194.750328 
L 220.8 214.431678 
L 225.309091 228.287348 
L 229.818182 225.531959 
L 234.327273 216.635989 
L 238.836364 226.71284 
L 243.345455 222.579756 
L 247.854545 217.265792 
L 252.363636 218.525398 
L 256.872727 221.280787 
L 261.381818 255.762512 
L 265.890909 217.541331 
L 270.4 232.381068 
L 274.909091 227.106467 
L 279.418182 231.908716 
L 283.927273 212.384817 
L 288.436364 227.460731 
L 292.945455 210.495408 
L 297.454545 224.469166 
L 301.963636 231.278913 
L 306.472727 233.089597 
L 310.981818 228.602249 
L 315.490909 229.822493 
L 320 249.188941 
L 324.509091 236.710965 
L 329.018182 245.646298 
L 333.527273 235.490722 
L 338.036364 207.070853 
L 342.545455 241.080225 
L 347.054545 230.098032 
L 351.563636 223.445736 
L 356.072727 257.258294 
L 360.581818 214.077413 
L 365.090909 247.811246 
L 369.6 232.971509 
L 374.109091 242.930272 
L 378.618182 240.13552 
L 383.127273 238.6791 
L 387.636364 243.599438 
L 392.145455 243.520712 
L 396.654545 241.434489 
L 401.163636 245.055858 
L 405.672727 232.69597 
L 410.181818 267.84686 
L 414.690909 259.934958 
L 419.2 246.276101 
L 423.709091 254.739082 
L 428.218182 253.440112 
L 432.727273 229.113964 
L 437.236364 244.898407 
L 441.745455 248.834677 
L 446.254545 248.874039 
L 450.763636 262.532896 
L 455.272727 259.38388 
L 459.781818 251.747516 
L 464.290909 232.499157 
L 468.8 253.833739 
L 473.309091 261.706279 
L 477.818182 248.244236 
L 482.327273 253.164574 
L 486.836364 258.045548 
L 491.345455 270.7597 
L 495.854545 263.044611 
L 500.363636 238.206748 
L 504.872727 245.370759 
L 509.381818 244.386692 
L 513.890909 277.057732 
L 518.4 251.786879 
" clip-path="url(#p16ebced324)" style="fill: none; stroke: #d62728; stroke-width: 1.5; stroke-linecap: square"/>
   </g>
   <g id="line2d_17">
    <path d="M 72 185.263918 
L 76.509091 199.828116 
L 81.018182 217.738144 
L 85.527273 222.934021 
L 90.036364 226.27985 
L 94.545455 233.404499 
L 99.054545 228.877788 
L 103.563636 230.019306 
L 108.072727 248.204873 
L 112.581818 236.868416 
L 117.090909 229.271415 
L 121.6 236.829053 
L 126.109091 236.789691 
L 130.618182 238.442924 
L 135.127273 242.61537 
L 139.636364 253.951828 
L 144.145455 239.899344 
L 148.654545 247.142081 
L 153.163636 246.079288 
L 157.672727 243.835614 
L 162.181818 247.614433 
L 166.690909 258.95089 
L 171.2 242.418557 
L 175.709091 228.444799 
L 180.218182 252.613496 
L 184.727273 253.203936 
L 189.236364 255.486973 
L 193.745455 229.389503 
L 198.254545 238.561012 
L 202.763636 244.740956 
L 207.272727 241.198313 
L 211.781818 251.826242 
L 216.290909 249.46448 
L 220.8 243.953702 
L 225.309091 247.771884 
L 229.818182 276.900281 
L 234.327273 249.858107 
L 238.836364 258.281724 
L 243.345455 252.101781 
L 247.854545 230.176757 
L 252.363636 256.510403 
L 256.872727 243.993065 
L 261.381818 272.885286 
L 265.890909 255.053983 
L 270.4 260.053046 
L 274.909091 253.243299 
L 279.418182 268.397938 
L 283.927273 249.188941 
L 288.436364 257.258294 
L 292.945455 260.958388 
L 297.454545 257.376382 
L 301.963636 258.084911 
L 306.472727 267.925586 
L 310.981818 265.248922 
L 315.490909 269.578819 
L 320 266.39044 
L 324.509091 261.548828 
L 329.018182 274.971509 
L 333.527273 275.483224 
L 338.036364 247.142081 
L 342.545455 262.611621 
L 347.054545 272.21612 
L 351.563636 252.652858 
L 356.072727 283.0015 
L 360.581818 248.559138 
L 365.090909 277.451359 
L 369.6 252.849672 
L 374.109091 276.349203 
L 378.618182 267.295783 
L 383.127273 265.681912 
L 387.636364 284.103655 
L 392.145455 264.815933 
L 396.654545 287.410122 
L 401.163636 282.804686 
L 405.672727 255.565698 
L 410.181818 283.395127 
L 414.690909 304.611621 
L 419.2 286.583505 
L 423.709091 276.073664 
L 428.218182 286.307966 
L 432.727273 267.650047 
L 437.236364 270.995876 
L 441.745455 276.703468 
L 446.254545 291.188941 
L 450.763636 284.103655 
L 455.272727 284.930272 
L 459.781818 274.223618 
L 464.290909 260.328585 
L 468.8 289.260169 
L 473.309091 280.994002 
L 477.818182 287.252671 
L 482.327273 273.200187 
L 486.836364 282.844049 
L 491.345455 292.05492 
L 495.854545 283.749391 
L 500.363636 269.854358 
L 504.872727 280.246111 
L 509.381818 279.419494 
L 513.890909 307.8 
L 518.4 281.54508 
" clip-path="url(#p16ebced324)" style="fill: none; stroke: #9467bd; stroke-width: 1.5; stroke-linecap: square"/>
   </g>
   <g id="line2d_18">
    <path d="M 72 211.597563 
L 76.509091 217.856232 
L 81.018182 214.352952 
L 85.527273 229.822493 
L 90.036364 240.292971 
L 94.545455 226.71284 
L 99.054545 235.411996 
L 103.563636 240.450422 
L 108.072727 242.143018 
L 112.581818 232.459794 
L 117.090909 231.633177 
L 121.6 225.650047 
L 126.109091 241.316401 
L 130.618182 248.44105 
L 135.127273 243.796251 
L 139.636364 251.865604 
L 144.145455 244.819681 
L 148.654545 245.606935 
L 153.163636 249.661293 
L 157.672727 248.362324 
L 162.181818 248.00806 
L 166.690909 244.189878 
L 171.2 247.57507 
L 175.709091 239.387629 
L 180.218182 227.263918 
L 184.727273 245.567573 
L 189.236364 242.930272 
L 193.745455 220.217994 
L 198.254545 241.434489 
L 202.763636 242.064292 
L 207.272727 246.827179 
L 211.781818 249.267666 
L 216.290909 247.338894 
L 220.8 242.02493 
L 225.309091 241.749391 
L 229.818182 264.382943 
L 234.327273 254.85717 
L 238.836364 262.808435 
L 243.345455 235.530084 
L 247.854545 248.795314 
L 252.363636 249.070853 
L 256.872727 240.332334 
L 261.381818 271.586317 
L 265.890909 244.780319 
L 270.4 255.801874 
L 274.909091 246.866542 
L 279.418182 250.645361 
L 283.927273 245.567573 
L 288.436364 247.181443 
L 292.945455 255.919963 
L 297.454545 249.543205 
L 301.963636 247.417619 
L 306.472727 257.848735 
L 310.981818 251.550703 
L 315.490909 262.099906 
L 320 267.925586 
L 324.509091 260.604124 
L 329.018182 264.855295 
L 333.527273 270.7597 
L 338.036364 235.844986 
L 342.545455 249.89747 
L 347.054545 260.800937 
L 351.563636 254.778444 
L 356.072727 281.466354 
L 360.581818 234.58538 
L 365.090909 261.115839 
L 369.6 241.749391 
L 374.109091 262.729709 
L 378.618182 271.901218 
L 383.127273 268.043674 
L 387.636364 261.942455 
L 392.145455 263.989316 
L 396.654545 283.513215 
L 401.163636 260.800937 
L 405.672727 244.229241 
L 410.181818 279.773758 
L 414.690909 274.144892 
L 419.2 272.058669 
L 423.709091 262.139269 
L 428.218182 266.665979 
L 432.727273 262.769072 
L 437.236364 256.943393 
L 441.745455 265.485098 
L 446.254545 275.404499 
L 450.763636 263.75314 
L 455.272727 272.019306 
L 459.781818 270.602249 
L 464.290909 246.079288 
L 468.8 274.69597 
L 473.309091 275.365136 
L 477.818182 280.482287 
L 482.327273 254.345455 
L 486.836364 270.011809 
L 491.345455 292.960262 
L 495.854545 273.554452 
L 500.363636 257.376382 
L 504.872727 267.020244 
L 509.381818 268.988379 
L 513.890909 292.369822 
L 518.4 258.163636 
" clip-path="url(#p16ebced324)" style="fill: none; stroke: #8c564b; stroke-width: 1.5; stroke-linecap: square"/>
   </g>
   <g id="line2d_19">
    <path d="M 72 171.644424 
L 76.509091 202.465417 
L 81.018182 219.037113 
L 85.527273 223.918088 
L 90.036364 222.737207 
L 94.545455 199.080225 
L 99.054545 215.218932 
L 103.563636 210.456045 
L 108.072727 229.546954 
L 112.581818 227.185192 
L 117.090909 210.574133 
L 121.6 220.769072 
L 126.109091 235.018369 
L 130.618182 239.426992 
L 135.127273 222.304217 
L 139.636364 242.930272 
L 144.145455 209.314527 
L 148.654545 213.683786 
L 153.163636 224.784067 
L 157.672727 235.963074 
L 162.181818 222.382943 
L 166.690909 222.34358 
L 171.2 233.089597 
L 175.709091 221.516963 
L 180.218182 232.69597 
L 184.727273 240.804686 
L 189.236364 227.382006 
L 193.745455 219.509466 
L 198.254545 222.107404 
L 202.763636 216.675351 
L 207.272727 231.633177 
L 211.781818 242.418557 
L 216.290909 220.021181 
L 220.8 218.761575 
L 225.309091 226.161762 
L 229.818182 240.411059 
L 234.327273 220.926523 
L 238.836364 245.725023 
L 243.345455 232.735333 
L 247.854545 229.78313 
L 252.363636 238.875914 
L 256.872727 228.720337 
L 261.381818 254.542268 
L 265.890909 221.674414 
L 270.4 236.750328 
L 274.909091 230.176757 
L 279.418182 250.763449 
L 283.927273 223.681912 
L 288.436364 234.191753 
L 292.945455 238.875914 
L 297.454545 238.482287 
L 301.963636 237.65567 
L 306.472727 242.379194 
L 310.981818 244.347329 
L 315.490909 247.299531 
L 320 243.599438 
L 324.509091 248.401687 
L 329.018182 249.188941 
L 333.527273 235.411996 
L 338.036364 221.438238 
L 342.545455 238.285473 
L 347.054545 240.450422 
L 351.563636 242.890909 
L 356.072727 266.075539 
L 360.581818 228.877788 
L 365.090909 258.79344 
L 369.6 242.969634 
L 374.109091 250.960262 
L 378.618182 256.707216 
L 383.127273 254.069916 
L 387.636364 259.344517 
L 392.145455 256.667854 
L 396.654545 272.098032 
L 401.163636 264.697844 
L 405.672727 249.858107 
L 410.181818 275.640675 
L 414.690909 269.067104 
L 419.2 258.439175 
L 423.709091 270.562887 
L 428.218182 256.549766 
L 432.727273 274.617245 
L 437.236364 249.661293 
L 441.745455 255.8806 
L 446.254545 263.005248 
L 450.763636 266.351078 
L 455.272727 266.902156 
L 459.781818 263.162699 
L 464.290909 239.11209 
L 468.8 268.083037 
L 473.309091 266.23299 
L 477.818182 261.86373 
L 482.327273 263.241425 
L 486.836364 256.274227 
L 491.345455 278.041799 
L 495.854545 279.616307 
L 500.363636 252.298594 
L 504.872727 249.070853 
L 509.381818 253.085848 
L 513.890909 288.394189 
L 518.4 256.864667 
" clip-path="url(#p16ebced324)" style="fill: none; stroke: #e377c2; stroke-width: 1.5; stroke-linecap: square"/>
   </g>
   <g id="line2d_20">
    <path d="M 72 199.040862 
L 76.509091 216.242362 
L 81.018182 216.990253 
L 85.527273 220.178632 
L 90.036364 209.038988 
L 94.545455 209.117713 
L 99.054545 218.171134 
L 103.563636 215.612559 
L 108.072727 232.774695 
L 112.581818 227.382006 
L 117.090909 219.037113 
L 121.6 212.384817 
L 126.109091 225.68941 
L 130.618182 231.160825 
L 135.127273 236.592877 
L 139.636364 241.277038 
L 144.145455 244.701593 
L 148.654545 253.794377 
L 153.163636 248.952765 
L 157.672727 250.9209 
L 162.181818 238.561012 
L 166.690909 253.676289 
L 171.2 221.202062 
L 175.709091 230.845923 
L 180.218182 249.779381 
L 184.727273 261.312652 
L 189.236364 260.879663 
L 193.745455 241.0015 
L 198.254545 236.789691 
L 202.763636 244.780319 
L 207.272727 255.841237 
L 211.781818 260.958388 
L 216.290909 252.259231 
L 220.8 252.53477 
L 225.309091 261.588191 
L 229.818182 273.829991 
L 234.327273 256.707216 
L 238.836364 266.902156 
L 243.345455 259.541331 
L 247.854545 257.533833 
L 252.363636 261.548828 
L 256.872727 252.337957 
L 261.381818 277.726898 
L 265.890909 252.849672 
L 270.4 261.470103 
L 274.909091 252.141143 
L 279.418182 266.39044 
L 283.927273 258.321087 
L 288.436364 258.517901 
L 292.945455 266.626617 
L 297.454545 268.673477 
L 301.963636 269.972446 
L 306.472727 258.95089 
L 310.981818 268.122399 
L 315.490909 264.77657 
L 320 262.060544 
L 324.509091 262.375445 
L 329.018182 273.751265 
L 333.527273 273.121462 
L 338.036364 242.143018 
L 342.545455 269.027741 
L 347.054545 272.137395 
L 351.563636 268.909653 
L 356.072727 281.741893 
L 360.581818 253.951828 
L 365.090909 279.104592 
L 369.6 262.29672 
L 374.109091 273.711903 
L 378.618182 274.026804 
L 383.127273 277.411996 
L 387.636364 288.11865 
L 392.145455 272.334208 
L 396.654545 290.086785 
L 401.163636 283.749391 
L 405.672727 261.391378 
L 410.181818 298.234864 
L 414.690909 293.865604 
L 419.2 285.756888 
L 423.709091 279.537582 
L 428.218182 285.323899 
L 432.727273 282.253608 
L 437.236364 278.671603 
L 441.745455 294.652858 
L 446.254545 284.02493 
L 450.763636 295.912465 
L 455.272727 285.520712 
L 459.781818 279.852484 
L 464.290909 256.628491 
L 468.8 281.820619 
L 473.309091 274.656607 
L 477.818182 287.646298 
L 482.327273 279.734396 
L 486.836364 279.183318 
L 491.345455 295.125211 
L 495.854545 287.09522 
L 500.363636 274.223618 
L 504.872727 280.836551 
L 509.381818 283.828116 
L 513.890909 305.241425 
L 518.4 278.710965 
" clip-path="url(#p16ebced324)" style="fill: none; stroke: #7f7f7f; stroke-width: 1.5; stroke-linecap: square"/>
   </g>
   <g id="patch_3">
    <path d="M 72 320.4 
L 72 43.2 
" style="fill: none; stroke: #000000; stroke-width: 0.8; stroke-linejoin: miter; stroke-linecap: square"/>
   </g>
   <g id="patch_4">
    <path d="M 518.4 320.4 
L 518.4 43.2 
" style="fill: none; stroke: #000000; stroke-width: 0.8; stroke-linejoin: miter; stroke-linecap: square"/>
   </g>
   <g id="patch_5">
    <path d="M 72 320.4 
L 518.4 320.4 
" style="fill: none; stroke: #000000; stroke-width: 0.8; stroke-linejoin: miter; stroke-linecap: square"/>
   </g>
   <g id="patch_6">
    <path d="M 72 43.2 
L 518.4 43.2 
" style="fill: none; stroke: #000000; stroke-width: 0.8; stroke-linejoin: miter; stroke-linecap: square"/>
   </g>
   <g id="text_15">
    <!-- Promoter (all) -->
    <g transform="translate(254.05875 37.2) scale(0.12 -0.12)">
     <defs>
      <path id="DejaVuSans-50" d="M 1259 4147 
L 1259 2394 
L 2053 2394 
Q 2494 2394 2734 2622 
Q 2975 2850 2975 3272 
Q 2975 3691 2734 3919 
Q 2494 4147 2053 4147 
L 1259 4147 
z
M 628 4666 
L 2053 4666 
Q 2838 4666 3239 4311 
Q 3641 3956 3641 3272 
Q 3641 2581 3239 2228 
Q 2838 1875 2053 1875 
L 1259 1875 
L 1259 0 
L 628 0 
L 628 4666 
z
" transform="scale(0.015625)"/>
      <path id="DejaVuSans-6d" d="M 3328 2828 
Q 3544 3216 3844 3400 
Q 4144 3584 4550 3584 
Q 5097 3584 5394 3201 
Q 5691 2819 5691 2113 
L 5691 0 
L 5113 0 
L 5113 2094 
Q 5113 2597 4934 2840 
Q 4756 3084 4391 3084 
Q 3944 3084 3684 2787 
Q 3425 2491 3425 1978 
L 3425 0 
L 2847 0 
L 2847 2094 
Q 2847 2600 2669 2842 
Q 2491 3084 2119 3084 
Q 1678 3084 1418 2786 
Q 1159 2488 1159 1978 
L 1159 0 
L 581 0 
L 581 3500 
L 1159 3500 
L 1159 2956 
Q 1356 3278 1631 3431 
Q 1906 3584 2284 3584 
Q 2666 3584 2933 3390 
Q 3200 3197 3328 2828 
z
" transform="scale(0.015625)"/>
      <path id="DejaVuSans-28" d="M 1984 4856 
Q 1566 4138 1362 3434 
Q 1159 2731 1159 2009 
Q 1159 1288 1364 580 
Q 1569 -128 1984 -844 
L 1484 -844 
Q 1016 -109 783 600 
Q 550 1309 550 2009 
Q 550 2706 781 3412 
Q 1013 4119 1484 4856 
L 1984 4856 
z
" transform="scale(0.015625)"/>
      <path id="DejaVuSans-6c" d="M 603 4863 
L 1178 4863 
L 1178 0 
L 603 0 
L 603 4863 
z
" transform="scale(0.015625)"/>
      <path id="DejaVuSans-29" d="M 513 4856 
L 1013 4856 
Q 1481 4119 1714 3412 
Q 1947 2706 1947 2009 
Q 1947 1309 1714 600 
Q 1481 -109 1013 -844 
L 513 -844 
Q 928 -128 1133 580 
Q 1338 1288 1338 2009 
Q 1338 2731 1133 3434 
Q 928 4138 513 4856 
z
" transform="scale(0.015625)"/>
     </defs>
     <use xlink:href="#DejaVuSans-50"/>
     <use xlink:href="#DejaVuSans-72" transform="translate(58.552734 0)"/>
     <use xlink:href="#DejaVuSans-6f" transform="translate(97.416016 0)"/>
     <use xlink:href="#DejaVuSans-6d" transform="translate(158.597656 0)"/>
     <use xlink:href="#DejaVuSans-6f" transform="translate(256.009766 0)"/>
     <use xlink:href="#DejaVuSans-74" transform="translate(317.191406 0)"/>
     <use xlink:href="#DejaVuSans-65" transform="translate(356.400391 0)"/>
     <use xlink:href="#DejaVuSans-72" transform="translate(417.923828 0)"/>
     <use xlink:href="#DejaVuSans-20" transform="translate(459.037109 0)"/>
     <use xlink:href="#DejaVuSans-28" transform="translate(490.824219 0)"/>
     <use xlink:href="#DejaVuSans-61" transform="translate(529.837891 0)"/>
     <use xlink:href="#DejaVuSans-6c" transform="translate(591.117188 0)"/>
     <use xlink:href="#DejaVuSans-6c" transform="translate(618.900391 0)"/>
     <use xlink:href="#DejaVuSans-29" transform="translate(646.683594 0)"/>
    </g>
   </g>
   <g id="legend_1">
    <g id="patch_7">
     <path d="M 334.210684 147.679025 
L 512.569 147.679025 
Q 514.235 147.679025 514.235 146.013025 
L 514.235 49.031 
Q 514.235 47.365 512.569 47.365 
L 334.210684 47.365 
Q 332.544684 47.365 332.544684 49.031 
L 332.544684 146.013025 
Q 332.544684 147.679025 334.210684 147.679025 
z
" style="fill: #ffffff; opacity: 0.8; stroke: #cccccc; stroke-linejoin: miter"/>
    </g>
    <g id="line2d_21">
     <path d="M 335.876684 54.110998 
L 344.206684 54.110998 
L 352.536684 54.110998 
" style="fill: none; stroke: #1f77b4; stroke-width: 1.5; stroke-linecap: square"/>
    </g>
    <g id="text_16">
     <!-- NT-MS V2 (50M) with rand. weights -->
     <g transform="translate(359.200684 57.026498) scale(0.0833 -0.0833)">
      <defs>
       <path id="DejaVuSans-4e" d="M 628 4666 
L 1478 4666 
L 3547 763 
L 3547 4666 
L 4159 4666 
L 4159 0 
L 3309 0 
L 1241 3903 
L 1241 0 
L 628 0 
L 628 4666 
z
" transform="scale(0.015625)"/>
       <path id="DejaVuSans-2d" d="M 313 2009 
L 1997 2009 
L 1997 1497 
L 313 1497 
L 313 2009 
z
" transform="scale(0.015625)"/>
       <path id="DejaVuSans-4d" d="M 628 4666 
L 1569 4666 
L 2759 1491 
L 3956 4666 
L 4897 4666 
L 4897 0 
L 4281 0 
L 4281 4097 
L 3078 897 
L 2444 897 
L 1241 4097 
L 1241 0 
L 628 0 
L 628 4666 
z
" transform="scale(0.015625)"/>
       <path id="DejaVuSans-53" d="M 3425 4513 
L 3425 3897 
Q 3066 4069 2747 4153 
Q 2428 4238 2131 4238 
Q 1616 4238 1336 4038 
Q 1056 3838 1056 3469 
Q 1056 3159 1242 3001 
Q 1428 2844 1947 2747 
L 2328 2669 
Q 3034 2534 3370 2195 
Q 3706 1856 3706 1288 
Q 3706 609 3251 259 
Q 2797 -91 1919 -91 
Q 1588 -91 1214 -16 
Q 841 59 441 206 
L 441 856 
Q 825 641 1194 531 
Q 1563 422 1919 422 
Q 2459 422 2753 634 
Q 3047 847 3047 1241 
Q 3047 1584 2836 1778 
Q 2625 1972 2144 2069 
L 1759 2144 
Q 1053 2284 737 2584 
Q 422 2884 422 3419 
Q 422 4038 858 4394 
Q 1294 4750 2059 4750 
Q 2388 4750 2728 4690 
Q 3069 4631 3425 4513 
z
" transform="scale(0.015625)"/>
       <path id="DejaVuSans-56" d="M 1831 0 
L 50 4666 
L 709 4666 
L 2188 738 
L 3669 4666 
L 4325 4666 
L 2547 0 
L 1831 0 
z
" transform="scale(0.015625)"/>
       <path id="DejaVuSans-77" d="M 269 3500 
L 844 3500 
L 1563 769 
L 2278 3500 
L 2956 3500 
L 3675 769 
L 4391 3500 
L 4966 3500 
L 4050 0 
L 3372 0 
L 2619 2869 
L 1863 0 
L 1184 0 
L 269 3500 
z
" transform="scale(0.015625)"/>
       <path id="DejaVuSans-68" d="M 3513 2113 
L 3513 0 
L 2938 0 
L 2938 2094 
Q 2938 2591 2744 2837 
Q 2550 3084 2163 3084 
Q 1697 3084 1428 2787 
Q 1159 2491 1159 1978 
L 1159 0 
L 581 0 
L 581 4863 
L 1159 4863 
L 1159 2956 
Q 1366 3272 1645 3428 
Q 1925 3584 2291 3584 
Q 2894 3584 3203 3211 
Q 3513 2838 3513 2113 
z
" transform="scale(0.015625)"/>
       <path id="DejaVuSans-64" d="M 2906 2969 
L 2906 4863 
L 3481 4863 
L 3481 0 
L 2906 0 
L 2906 525 
Q 2725 213 2448 61 
Q 2172 -91 1784 -91 
Q 1150 -91 751 415 
Q 353 922 353 1747 
Q 353 2572 751 3078 
Q 1150 3584 1784 3584 
Q 2172 3584 2448 3432 
Q 2725 3281 2906 2969 
z
M 947 1747 
Q 947 1113 1208 752 
Q 1469 391 1925 391 
Q 2381 391 2643 752 
Q 2906 1113 2906 1747 
Q 2906 2381 2643 2742 
Q 2381 3103 1925 3103 
Q 1469 3103 1208 2742 
Q 947 2381 947 1747 
z
" transform="scale(0.015625)"/>
      </defs>
      <use xlink:href="#DejaVuSans-4e"/>
      <use xlink:href="#DejaVuSans-54" transform="translate(74.804688 0)"/>
      <use xlink:href="#DejaVuSans-2d" transform="translate(126.763672 0)"/>
      <use xlink:href="#DejaVuSans-4d" transform="translate(162.847656 0)"/>
      <use xlink:href="#DejaVuSans-53" transform="translate(249.126953 0)"/>
      <use xlink:href="#DejaVuSans-20" transform="translate(312.603516 0)"/>
      <use xlink:href="#DejaVuSans-56" transform="translate(344.390625 0)"/>
      <use xlink:href="#DejaVuSans-32" transform="translate(412.798828 0)"/>
      <use xlink:href="#DejaVuSans-20" transform="translate(476.421875 0)"/>
      <use xlink:href="#DejaVuSans-28" transform="translate(508.208984 0)"/>
      <use xlink:href="#DejaVuSans-35" transform="translate(547.222656 0)"/>
      <use xlink:href="#DejaVuSans-30" transform="translate(610.845703 0)"/>
      <use xlink:href="#DejaVuSans-4d" transform="translate(674.46875 0)"/>
      <use xlink:href="#DejaVuSans-29" transform="translate(760.748047 0)"/>
      <use xlink:href="#DejaVuSans-20" transform="translate(799.761719 0)"/>
      <use xlink:href="#DejaVuSans-77" transform="translate(831.548828 0)"/>
      <use xlink:href="#DejaVuSans-69" transform="translate(913.335938 0)"/>
      <use xlink:href="#DejaVuSans-74" transform="translate(941.119141 0)"/>
      <use xlink:href="#DejaVuSans-68" transform="translate(980.328125 0)"/>
      <use xlink:href="#DejaVuSans-20" transform="translate(1043.707031 0)"/>
      <use xlink:href="#DejaVuSans-72" transform="translate(1075.494141 0)"/>
      <use xlink:href="#DejaVuSans-61" transform="translate(1116.607422 0)"/>
      <use xlink:href="#DejaVuSans-6e" transform="translate(1177.886719 0)"/>
      <use xlink:href="#DejaVuSans-64" transform="translate(1241.265625 0)"/>
      <use xlink:href="#DejaVuSans-2e" transform="translate(1304.742188 0)"/>
      <use xlink:href="#DejaVuSans-20" transform="translate(1336.529297 0)"/>
      <use xlink:href="#DejaVuSans-77" transform="translate(1368.316406 0)"/>
      <use xlink:href="#DejaVuSans-65" transform="translate(1450.103516 0)"/>
      <use xlink:href="#DejaVuSans-69" transform="translate(1511.626953 0)"/>
      <use xlink:href="#DejaVuSans-67" transform="translate(1539.410156 0)"/>
      <use xlink:href="#DejaVuSans-68" transform="translate(1602.886719 0)"/>
      <use xlink:href="#DejaVuSans-74" transform="translate(1666.265625 0)"/>
      <use xlink:href="#DejaVuSans-73" transform="translate(1705.474609 0)"/>
     </g>
    </g>
    <g id="line2d_22">
     <path d="M 335.876684 66.337877 
L 344.206684 66.337877 
L 352.536684 66.337877 
" style="fill: none; stroke: #ff7f0e; stroke-width: 1.5; stroke-linecap: square"/>
    </g>
    <g id="text_17">
     <!-- NT-MS V2 (500M) with rand. weights -->
     <g transform="translate(359.200684 69.253377) scale(0.0833 -0.0833)">
      <use xlink:href="#DejaVuSans-4e"/>
      <use xlink:href="#DejaVuSans-54" transform="translate(74.804688 0)"/>
      <use xlink:href="#DejaVuSans-2d" transform="translate(126.763672 0)"/>
      <use xlink:href="#DejaVuSans-4d" transform="translate(162.847656 0)"/>
      <use xlink:href="#DejaVuSans-53" transform="translate(249.126953 0)"/>
      <use xlink:href="#DejaVuSans-20" transform="translate(312.603516 0)"/>
      <use xlink:href="#DejaVuSans-56" transform="translate(344.390625 0)"/>
      <use xlink:href="#DejaVuSans-32" transform="translate(412.798828 0)"/>
      <use xlink:href="#DejaVuSans-20" transform="translate(476.421875 0)"/>
      <use xlink:href="#DejaVuSans-28" transform="translate(508.208984 0)"/>
      <use xlink:href="#DejaVuSans-35" transform="translate(547.222656 0)"/>
      <use xlink:href="#DejaVuSans-30" transform="translate(610.845703 0)"/>
      <use xlink:href="#DejaVuSans-30" transform="translate(674.46875 0)"/>
      <use xlink:href="#DejaVuSans-4d" transform="translate(738.091797 0)"/>
      <use xlink:href="#DejaVuSans-29" transform="translate(824.371094 0)"/>
      <use xlink:href="#DejaVuSans-20" transform="translate(863.384766 0)"/>
      <use xlink:href="#DejaVuSans-77" transform="translate(895.171875 0)"/>
      <use xlink:href="#DejaVuSans-69" transform="translate(976.958984 0)"/>
      <use xlink:href="#DejaVuSans-74" transform="translate(1004.742188 0)"/>
      <use xlink:href="#DejaVuSans-68" transform="translate(1043.951172 0)"/>
      <use xlink:href="#DejaVuSans-20" transform="translate(1107.330078 0)"/>
      <use xlink:href="#DejaVuSans-72" transform="translate(1139.117188 0)"/>
      <use xlink:href="#DejaVuSans-61" transform="translate(1180.230469 0)"/>
      <use xlink:href="#DejaVuSans-6e" transform="translate(1241.509766 0)"/>
      <use xlink:href="#DejaVuSans-64" transform="translate(1304.888672 0)"/>
      <use xlink:href="#DejaVuSans-2e" transform="translate(1368.365234 0)"/>
      <use xlink:href="#DejaVuSans-20" transform="translate(1400.152344 0)"/>
      <use xlink:href="#DejaVuSans-77" transform="translate(1431.939453 0)"/>
      <use xlink:href="#DejaVuSans-65" transform="translate(1513.726562 0)"/>
      <use xlink:href="#DejaVuSans-69" transform="translate(1575.25 0)"/>
      <use xlink:href="#DejaVuSans-67" transform="translate(1603.033203 0)"/>
      <use xlink:href="#DejaVuSans-68" transform="translate(1666.509766 0)"/>
      <use xlink:href="#DejaVuSans-74" transform="translate(1729.888672 0)"/>
      <use xlink:href="#DejaVuSans-73" transform="translate(1769.097656 0)"/>
     </g>
    </g>
    <g id="line2d_23">
     <path d="M 335.876684 78.564755 
L 344.206684 78.564755 
L 352.536684 78.564755 
" style="fill: none; stroke: #2ca02c; stroke-width: 1.5; stroke-linecap: square"/>
    </g>
    <g id="text_18">
     <!-- NT-MS V2 (50M) -->
     <g transform="translate(359.200684 81.480255) scale(0.0833 -0.0833)">
      <use xlink:href="#DejaVuSans-4e"/>
      <use xlink:href="#DejaVuSans-54" transform="translate(74.804688 0)"/>
      <use xlink:href="#DejaVuSans-2d" transform="translate(126.763672 0)"/>
      <use xlink:href="#DejaVuSans-4d" transform="translate(162.847656 0)"/>
      <use xlink:href="#DejaVuSans-53" transform="translate(249.126953 0)"/>
      <use xlink:href="#DejaVuSans-20" transform="translate(312.603516 0)"/>
      <use xlink:href="#DejaVuSans-56" transform="translate(344.390625 0)"/>
      <use xlink:href="#DejaVuSans-32" transform="translate(412.798828 0)"/>
      <use xlink:href="#DejaVuSans-20" transform="translate(476.421875 0)"/>
      <use xlink:href="#DejaVuSans-28" transform="translate(508.208984 0)"/>
      <use xlink:href="#DejaVuSans-35" transform="translate(547.222656 0)"/>
      <use xlink:href="#DejaVuSans-30" transform="translate(610.845703 0)"/>
      <use xlink:href="#DejaVuSans-4d" transform="translate(674.46875 0)"/>
      <use xlink:href="#DejaVuSans-29" transform="translate(760.748047 0)"/>
     </g>
    </g>
    <g id="line2d_24">
     <path d="M 335.876684 90.791633 
L 344.206684 90.791633 
L 352.536684 90.791633 
" style="fill: none; stroke: #d62728; stroke-width: 1.5; stroke-linecap: square"/>
    </g>
    <g id="text_19">
     <!-- NT-1000g (500M) -->
     <g transform="translate(359.200684 93.707133) scale(0.0833 -0.0833)">
      <use xlink:href="#DejaVuSans-4e"/>
      <use xlink:href="#DejaVuSans-54" transform="translate(74.804688 0)"/>
      <use xlink:href="#DejaVuSans-2d" transform="translate(126.763672 0)"/>
      <use xlink:href="#DejaVuSans-31" transform="translate(162.847656 0)"/>
      <use xlink:href="#DejaVuSans-30" transform="translate(226.470703 0)"/>
      <use xlink:href="#DejaVuSans-30" transform="translate(290.09375 0)"/>
      <use xlink:href="#DejaVuSans-30" transform="translate(353.716797 0)"/>
      <use xlink:href="#DejaVuSans-67" transform="translate(417.339844 0)"/>
      <use xlink:href="#DejaVuSans-20" transform="translate(480.816406 0)"/>
      <use xlink:href="#DejaVuSans-28" transform="translate(512.603516 0)"/>
      <use xlink:href="#DejaVuSans-35" transform="translate(551.617188 0)"/>
      <use xlink:href="#DejaVuSans-30" transform="translate(615.240234 0)"/>
      <use xlink:href="#DejaVuSans-30" transform="translate(678.863281 0)"/>
      <use xlink:href="#DejaVuSans-4d" transform="translate(742.486328 0)"/>
      <use xlink:href="#DejaVuSans-29" transform="translate(828.765625 0)"/>
     </g>
    </g>
    <g id="line2d_25">
     <path d="M 335.876684 103.018511 
L 344.206684 103.018511 
L 352.536684 103.018511 
" style="fill: none; stroke: #9467bd; stroke-width: 1.5; stroke-linecap: square"/>
    </g>
    <g id="text_20">
     <!-- NT-MS V2 (250M) -->
     <g transform="translate(359.200684 105.934011) scale(0.0833 -0.0833)">
      <use xlink:href="#DejaVuSans-4e"/>
      <use xlink:href="#DejaVuSans-54" transform="translate(74.804688 0)"/>
      <use xlink:href="#DejaVuSans-2d" transform="translate(126.763672 0)"/>
      <use xlink:href="#DejaVuSans-4d" transform="translate(162.847656 0)"/>
      <use xlink:href="#DejaVuSans-53" transform="translate(249.126953 0)"/>
      <use xlink:href="#DejaVuSans-20" transform="translate(312.603516 0)"/>
      <use xlink:href="#DejaVuSans-56" transform="translate(344.390625 0)"/>
      <use xlink:href="#DejaVuSans-32" transform="translate(412.798828 0)"/>
      <use xlink:href="#DejaVuSans-20" transform="translate(476.421875 0)"/>
      <use xlink:href="#DejaVuSans-28" transform="translate(508.208984 0)"/>
      <use xlink:href="#DejaVuSans-32" transform="translate(547.222656 0)"/>
      <use xlink:href="#DejaVuSans-35" transform="translate(610.845703 0)"/>
      <use xlink:href="#DejaVuSans-30" transform="translate(674.46875 0)"/>
      <use xlink:href="#DejaVuSans-4d" transform="translate(738.091797 0)"/>
      <use xlink:href="#DejaVuSans-29" transform="translate(824.371094 0)"/>
     </g>
    </g>
    <g id="line2d_26">
     <path d="M 335.876684 115.245389 
L 344.206684 115.245389 
L 352.536684 115.245389 
" style="fill: none; stroke: #8c564b; stroke-width: 1.5; stroke-linecap: square"/>
    </g>
    <g id="text_21">
     <!-- NT-MS V2 (100M) -->
     <g transform="translate(359.200684 118.160889) scale(0.0833 -0.0833)">
      <use xlink:href="#DejaVuSans-4e"/>
      <use xlink:href="#DejaVuSans-54" transform="translate(74.804688 0)"/>
      <use xlink:href="#DejaVuSans-2d" transform="translate(126.763672 0)"/>
      <use xlink:href="#DejaVuSans-4d" transform="translate(162.847656 0)"/>
      <use xlink:href="#DejaVuSans-53" transform="translate(249.126953 0)"/>
      <use xlink:href="#DejaVuSans-20" transform="translate(312.603516 0)"/>
      <use xlink:href="#DejaVuSans-56" transform="translate(344.390625 0)"/>
      <use xlink:href="#DejaVuSans-32" transform="translate(412.798828 0)"/>
      <use xlink:href="#DejaVuSans-20" transform="translate(476.421875 0)"/>
      <use xlink:href="#DejaVuSans-28" transform="translate(508.208984 0)"/>
      <use xlink:href="#DejaVuSans-31" transform="translate(547.222656 0)"/>
      <use xlink:href="#DejaVuSans-30" transform="translate(610.845703 0)"/>
      <use xlink:href="#DejaVuSans-30" transform="translate(674.46875 0)"/>
      <use xlink:href="#DejaVuSans-4d" transform="translate(738.091797 0)"/>
      <use xlink:href="#DejaVuSans-29" transform="translate(824.371094 0)"/>
     </g>
    </g>
    <g id="line2d_27">
     <path d="M 335.876684 127.472267 
L 344.206684 127.472267 
L 352.536684 127.472267 
" style="fill: none; stroke: #e377c2; stroke-width: 1.5; stroke-linecap: square"/>
    </g>
    <g id="text_22">
     <!-- NT-Human-Ref. (500M) -->
     <g transform="translate(359.200684 130.387767) scale(0.0833 -0.0833)">
      <defs>
       <path id="DejaVuSans-48" d="M 628 4666 
L 1259 4666 
L 1259 2753 
L 3553 2753 
L 3553 4666 
L 4184 4666 
L 4184 0 
L 3553 0 
L 3553 2222 
L 1259 2222 
L 1259 0 
L 628 0 
L 628 4666 
z
" transform="scale(0.015625)"/>
       <path id="DejaVuSans-75" d="M 544 1381 
L 544 3500 
L 1119 3500 
L 1119 1403 
Q 1119 906 1312 657 
Q 1506 409 1894 409 
Q 2359 409 2629 706 
Q 2900 1003 2900 1516 
L 2900 3500 
L 3475 3500 
L 3475 0 
L 2900 0 
L 2900 538 
Q 2691 219 2414 64 
Q 2138 -91 1772 -91 
Q 1169 -91 856 284 
Q 544 659 544 1381 
z
M 1991 3584 
L 1991 3584 
z
" transform="scale(0.015625)"/>
       <path id="DejaVuSans-52" d="M 2841 2188 
Q 3044 2119 3236 1894 
Q 3428 1669 3622 1275 
L 4263 0 
L 3584 0 
L 2988 1197 
Q 2756 1666 2539 1819 
Q 2322 1972 1947 1972 
L 1259 1972 
L 1259 0 
L 628 0 
L 628 4666 
L 2053 4666 
Q 2853 4666 3247 4331 
Q 3641 3997 3641 3322 
Q 3641 2881 3436 2590 
Q 3231 2300 2841 2188 
z
M 1259 4147 
L 1259 2491 
L 2053 2491 
Q 2509 2491 2742 2702 
Q 2975 2913 2975 3322 
Q 2975 3731 2742 3939 
Q 2509 4147 2053 4147 
L 1259 4147 
z
" transform="scale(0.015625)"/>
       <path id="DejaVuSans-66" d="M 2375 4863 
L 2375 4384 
L 1825 4384 
Q 1516 4384 1395 4259 
Q 1275 4134 1275 3809 
L 1275 3500 
L 2222 3500 
L 2222 3053 
L 1275 3053 
L 1275 0 
L 697 0 
L 697 3053 
L 147 3053 
L 147 3500 
L 697 3500 
L 697 3744 
Q 697 4328 969 4595 
Q 1241 4863 1831 4863 
L 2375 4863 
z
" transform="scale(0.015625)"/>
      </defs>
      <use xlink:href="#DejaVuSans-4e"/>
      <use xlink:href="#DejaVuSans-54" transform="translate(74.804688 0)"/>
      <use xlink:href="#DejaVuSans-2d" transform="translate(126.763672 0)"/>
      <use xlink:href="#DejaVuSans-48" transform="translate(162.847656 0)"/>
      <use xlink:href="#DejaVuSans-75" transform="translate(238.042969 0)"/>
      <use xlink:href="#DejaVuSans-6d" transform="translate(301.421875 0)"/>
      <use xlink:href="#DejaVuSans-61" transform="translate(398.833984 0)"/>
      <use xlink:href="#DejaVuSans-6e" transform="translate(460.113281 0)"/>
      <use xlink:href="#DejaVuSans-2d" transform="translate(523.492188 0)"/>
      <use xlink:href="#DejaVuSans-52" transform="translate(559.576172 0)"/>
      <use xlink:href="#DejaVuSans-65" transform="translate(624.558594 0)"/>
      <use xlink:href="#DejaVuSans-66" transform="translate(686.082031 0)"/>
      <use xlink:href="#DejaVuSans-2e" transform="translate(714.037109 0)"/>
      <use xlink:href="#DejaVuSans-20" transform="translate(745.824219 0)"/>
      <use xlink:href="#DejaVuSans-28" transform="translate(777.611328 0)"/>
      <use xlink:href="#DejaVuSans-35" transform="translate(816.625 0)"/>
      <use xlink:href="#DejaVuSans-30" transform="translate(880.248047 0)"/>
      <use xlink:href="#DejaVuSans-30" transform="translate(943.871094 0)"/>
      <use xlink:href="#DejaVuSans-4d" transform="translate(1007.494141 0)"/>
      <use xlink:href="#DejaVuSans-29" transform="translate(1093.773438 0)"/>
     </g>
    </g>
    <g id="line2d_28">
     <path d="M 335.876684 139.699145 
L 344.206684 139.699145 
L 352.536684 139.699145 
" style="fill: none; stroke: #7f7f7f; stroke-width: 1.5; stroke-linecap: square"/>
    </g>
    <g id="text_23">
     <!-- NT-MS V2 (500M) -->
     <g transform="translate(359.200684 142.614645) scale(0.0833 -0.0833)">
      <use xlink:href="#DejaVuSans-4e"/>
      <use xlink:href="#DejaVuSans-54" transform="translate(74.804688 0)"/>
      <use xlink:href="#DejaVuSans-2d" transform="translate(126.763672 0)"/>
      <use xlink:href="#DejaVuSans-4d" transform="translate(162.847656 0)"/>
      <use xlink:href="#DejaVuSans-53" transform="translate(249.126953 0)"/>
      <use xlink:href="#DejaVuSans-20" transform="translate(312.603516 0)"/>
      <use xlink:href="#DejaVuSans-56" transform="translate(344.390625 0)"/>
      <use xlink:href="#DejaVuSans-32" transform="translate(412.798828 0)"/>
      <use xlink:href="#DejaVuSans-20" transform="translate(476.421875 0)"/>
      <use xlink:href="#DejaVuSans-28" transform="translate(508.208984 0)"/>
      <use xlink:href="#DejaVuSans-35" transform="translate(547.222656 0)"/>
      <use xlink:href="#DejaVuSans-30" transform="translate(610.845703 0)"/>
      <use xlink:href="#DejaVuSans-30" transform="translate(674.46875 0)"/>
      <use xlink:href="#DejaVuSans-4d" transform="translate(738.091797 0)"/>
      <use xlink:href="#DejaVuSans-29" transform="translate(824.371094 0)"/>
     </g>
    </g>
   </g>
  </g>
 </g>
 <defs>
  <clipPath id="p16ebced324">
   <rect x="72" y="43.2" width="446.4" height="277.2"/>
  </clipPath>
 </defs>
</svg>
