<?xml version="1.0" encoding="utf-8" standalone="no"?>
<!DOCTYPE svg PUBLIC "-//W3C//DTD SVG 1.1//EN"
  "http://www.w3.org/Graphics/SVG/1.1/DTD/svg11.dtd">
<svg xmlns:xlink="http://www.w3.org/1999/xlink" width="576pt" height="360pt" viewBox="0 0 576 360" xmlns="http://www.w3.org/2000/svg" version="1.1">
 <metadata>
  <rdf:RDF xmlns:dc="http://purl.org/dc/elements/1.1/" xmlns:cc="http://creativecommons.org/ns#" xmlns:rdf="http://www.w3.org/1999/02/22-rdf-syntax-ns#">
   <cc:Work>
    <dc:type rdf:resource="http://purl.org/dc/dcmitype/StillImage"/>
    <dc:date>2025-01-07T03:55:00.763288</dc:date>
    <dc:format>image/svg+xml</dc:format>
    <dc:creator>
     <cc:Agent>
      <dc:title>Matplotlib v3.10.0, https://matplotlib.org/</dc:title>
     </cc:Agent>
    </dc:creator>
   </cc:Work>
  </rdf:RDF>
 </metadata>
 <defs>
  <style type="text/css">*{stroke-linejoin: round; stroke-linecap: butt}</style>
 </defs>
 <g id="figure_1">
  <g id="patch_1">
   <path d="M 0 360 
L 576 360 
L 576 0 
L 0 0 
z
" style="fill: #ffffff"/>
  </g>
  <g id="axes_1">
   <g id="patch_2">
    <path d="M 72 320.4 
L 518.4 320.4 
L 518.4 43.2 
L 72 43.2 
z
" style="fill: #ffffff"/>
   </g>
   <g id="matplotlib.axis_1">
    <g id="xtick_1">
     <g id="line2d_1">
      <defs>
       <path id="mea6a466a11" d="M 0 0 
L 0 3.5 
" style="stroke: #000000; stroke-width: 0.8"/>
      </defs>
      <g>
       <use xlink:href="#mea6a466a11" x="157.672727" y="320.4" style="stroke: #000000; stroke-width: 0.8"/>
      </g>
     </g>
     <g id="text_1">
      <!-- 2000 -->
      <g transform="translate(144.947727 334.998438) scale(0.1 -0.1)">
       <defs>
        <path id="DejaVuSans-32" d="M 1228 531 
L 3431 531 
L 3431 0 
L 469 0 
L 469 531 
Q 828 903 1448 1529 
Q 2069 2156 2228 2338 
Q 2531 2678 2651 2914 
Q 2772 3150 2772 3378 
Q 2772 3750 2511 3984 
Q 2250 4219 1831 4219 
Q 1534 4219 1204 4116 
Q 875 4013 500 3803 
L 500 4441 
Q 881 4594 1212 4672 
Q 1544 4750 1819 4750 
Q 2544 4750 2975 4387 
Q 3406 4025 3406 3419 
Q 3406 3131 3298 2873 
Q 3191 2616 2906 2266 
Q 2828 2175 2409 1742 
Q 1991 1309 1228 531 
z
" transform="scale(0.015625)"/>
        <path id="DejaVuSans-30" d="M 2034 4250 
Q 1547 4250 1301 3770 
Q 1056 3291 1056 2328 
Q 1056 1369 1301 889 
Q 1547 409 2034 409 
Q 2525 409 2770 889 
Q 3016 1369 3016 2328 
Q 3016 3291 2770 3770 
Q 2525 4250 2034 4250 
z
M 2034 4750 
Q 2819 4750 3233 4129 
Q 3647 3509 3647 2328 
Q 3647 1150 3233 529 
Q 2819 -91 2034 -91 
Q 1250 -91 836 529 
Q 422 1150 422 2328 
Q 422 3509 836 4129 
Q 1250 4750 2034 4750 
z
" transform="scale(0.015625)"/>
       </defs>
       <use xlink:href="#DejaVuSans-32"/>
       <use xlink:href="#DejaVuSans-30" transform="translate(63.623047 0)"/>
       <use xlink:href="#DejaVuSans-30" transform="translate(127.246094 0)"/>
       <use xlink:href="#DejaVuSans-30" transform="translate(190.869141 0)"/>
      </g>
     </g>
    </g>
    <g id="xtick_2">
     <g id="line2d_2">
      <g>
       <use xlink:href="#mea6a466a11" x="247.854545" y="320.4" style="stroke: #000000; stroke-width: 0.8"/>
      </g>
     </g>
     <g id="text_2">
      <!-- 4000 -->
      <g transform="translate(235.129545 334.998438) scale(0.1 -0.1)">
       <defs>
        <path id="DejaVuSans-34" d="M 2419 4116 
L 825 1625 
L 2419 1625 
L 2419 4116 
z
M 2253 4666 
L 3047 4666 
L 3047 1625 
L 3713 1625 
L 3713 1100 
L 3047 1100 
L 3047 0 
L 2419 0 
L 2419 1100 
L 313 1100 
L 313 1709 
L 2253 4666 
z
" transform="scale(0.015625)"/>
       </defs>
       <use xlink:href="#DejaVuSans-34"/>
       <use xlink:href="#DejaVuSans-30" transform="translate(63.623047 0)"/>
       <use xlink:href="#DejaVuSans-30" transform="translate(127.246094 0)"/>
       <use xlink:href="#DejaVuSans-30" transform="translate(190.869141 0)"/>
      </g>
     </g>
    </g>
    <g id="xtick_3">
     <g id="line2d_3">
      <g>
       <use xlink:href="#mea6a466a11" x="338.036364" y="320.4" style="stroke: #000000; stroke-width: 0.8"/>
      </g>
     </g>
     <g id="text_3">
      <!-- 6000 -->
      <g transform="translate(325.311364 334.998438) scale(0.1 -0.1)">
       <defs>
        <path id="DejaVuSans-36" d="M 2113 2584 
Q 1688 2584 1439 2293 
Q 1191 2003 1191 1497 
Q 1191 994 1439 701 
Q 1688 409 2113 409 
Q 2538 409 2786 701 
Q 3034 994 3034 1497 
Q 3034 2003 2786 2293 
Q 2538 2584 2113 2584 
z
M 3366 4563 
L 3366 3988 
Q 3128 4100 2886 4159 
Q 2644 4219 2406 4219 
Q 1781 4219 1451 3797 
Q 1122 3375 1075 2522 
Q 1259 2794 1537 2939 
Q 1816 3084 2150 3084 
Q 2853 3084 3261 2657 
Q 3669 2231 3669 1497 
Q 3669 778 3244 343 
Q 2819 -91 2113 -91 
Q 1303 -91 875 529 
Q 447 1150 447 2328 
Q 447 3434 972 4092 
Q 1497 4750 2381 4750 
Q 2619 4750 2861 4703 
Q 3103 4656 3366 4563 
z
" transform="scale(0.015625)"/>
       </defs>
       <use xlink:href="#DejaVuSans-36"/>
       <use xlink:href="#DejaVuSans-30" transform="translate(63.623047 0)"/>
       <use xlink:href="#DejaVuSans-30" transform="translate(127.246094 0)"/>
       <use xlink:href="#DejaVuSans-30" transform="translate(190.869141 0)"/>
      </g>
     </g>
    </g>
    <g id="xtick_4">
     <g id="line2d_4">
      <g>
       <use xlink:href="#mea6a466a11" x="428.218182" y="320.4" style="stroke: #000000; stroke-width: 0.8"/>
      </g>
     </g>
     <g id="text_4">
      <!-- 8000 -->
      <g transform="translate(415.493182 334.998438) scale(0.1 -0.1)">
       <defs>
        <path id="DejaVuSans-38" d="M 2034 2216 
Q 1584 2216 1326 1975 
Q 1069 1734 1069 1313 
Q 1069 891 1326 650 
Q 1584 409 2034 409 
Q 2484 409 2743 651 
Q 3003 894 3003 1313 
Q 3003 1734 2745 1975 
Q 2488 2216 2034 2216 
z
M 1403 2484 
Q 997 2584 770 2862 
Q 544 3141 544 3541 
Q 544 4100 942 4425 
Q 1341 4750 2034 4750 
Q 2731 4750 3128 4425 
Q 3525 4100 3525 3541 
Q 3525 3141 3298 2862 
Q 3072 2584 2669 2484 
Q 3125 2378 3379 2068 
Q 3634 1759 3634 1313 
Q 3634 634 3220 271 
Q 2806 -91 2034 -91 
Q 1263 -91 848 271 
Q 434 634 434 1313 
Q 434 1759 690 2068 
Q 947 2378 1403 2484 
z
M 1172 3481 
Q 1172 3119 1398 2916 
Q 1625 2713 2034 2713 
Q 2441 2713 2670 2916 
Q 2900 3119 2900 3481 
Q 2900 3844 2670 4047 
Q 2441 4250 2034 4250 
Q 1625 4250 1398 4047 
Q 1172 3844 1172 3481 
z
" transform="scale(0.015625)"/>
       </defs>
       <use xlink:href="#DejaVuSans-38"/>
       <use xlink:href="#DejaVuSans-30" transform="translate(63.623047 0)"/>
       <use xlink:href="#DejaVuSans-30" transform="translate(127.246094 0)"/>
       <use xlink:href="#DejaVuSans-30" transform="translate(190.869141 0)"/>
      </g>
     </g>
    </g>
    <g id="xtick_5">
     <g id="line2d_5">
      <g>
       <use xlink:href="#mea6a466a11" x="518.4" y="320.4" style="stroke: #000000; stroke-width: 0.8"/>
      </g>
     </g>
     <g id="text_5">
      <!-- 10000 -->
      <g transform="translate(502.49375 334.998438) scale(0.1 -0.1)">
       <defs>
        <path id="DejaVuSans-31" d="M 794 531 
L 1825 531 
L 1825 4091 
L 703 3866 
L 703 4441 
L 1819 4666 
L 2450 4666 
L 2450 531 
L 3481 531 
L 3481 0 
L 794 0 
L 794 531 
z
" transform="scale(0.015625)"/>
       </defs>
       <use xlink:href="#DejaVuSans-31"/>
       <use xlink:href="#DejaVuSans-30" transform="translate(63.623047 0)"/>
       <use xlink:href="#DejaVuSans-30" transform="translate(127.246094 0)"/>
       <use xlink:href="#DejaVuSans-30" transform="translate(190.869141 0)"/>
       <use xlink:href="#DejaVuSans-30" transform="translate(254.492188 0)"/>
      </g>
     </g>
    </g>
    <g id="text_6">
     <!-- Training steps -->
     <g transform="translate(260.464844 348.676562) scale(0.1 -0.1)">
      <defs>
       <path id="DejaVuSans-54" d="M -19 4666 
L 3928 4666 
L 3928 4134 
L 2272 4134 
L 2272 0 
L 1638 0 
L 1638 4134 
L -19 4134 
L -19 4666 
z
" transform="scale(0.015625)"/>
       <path id="DejaVuSans-72" d="M 2631 2963 
Q 2534 3019 2420 3045 
Q 2306 3072 2169 3072 
Q 1681 3072 1420 2755 
Q 1159 2438 1159 1844 
L 1159 0 
L 581 0 
L 581 3500 
L 1159 3500 
L 1159 2956 
Q 1341 3275 1631 3429 
Q 1922 3584 2338 3584 
Q 2397 3584 2469 3576 
Q 2541 3569 2628 3553 
L 2631 2963 
z
" transform="scale(0.015625)"/>
       <path id="DejaVuSans-61" d="M 2194 1759 
Q 1497 1759 1228 1600 
Q 959 1441 959 1056 
Q 959 750 1161 570 
Q 1363 391 1709 391 
Q 2188 391 2477 730 
Q 2766 1069 2766 1631 
L 2766 1759 
L 2194 1759 
z
M 3341 1997 
L 3341 0 
L 2766 0 
L 2766 531 
Q 2569 213 2275 61 
Q 1981 -91 1556 -91 
Q 1019 -91 701 211 
Q 384 513 384 1019 
Q 384 1609 779 1909 
Q 1175 2209 1959 2209 
L 2766 2209 
L 2766 2266 
Q 2766 2663 2505 2880 
Q 2244 3097 1772 3097 
Q 1472 3097 1187 3025 
Q 903 2953 641 2809 
L 641 3341 
Q 956 3463 1253 3523 
Q 1550 3584 1831 3584 
Q 2591 3584 2966 3190 
Q 3341 2797 3341 1997 
z
" transform="scale(0.015625)"/>
       <path id="DejaVuSans-69" d="M 603 3500 
L 1178 3500 
L 1178 0 
L 603 0 
L 603 3500 
z
M 603 4863 
L 1178 4863 
L 1178 4134 
L 603 4134 
L 603 4863 
z
" transform="scale(0.015625)"/>
       <path id="DejaVuSans-6e" d="M 3513 2113 
L 3513 0 
L 2938 0 
L 2938 2094 
Q 2938 2591 2744 2837 
Q 2550 3084 2163 3084 
Q 1697 3084 1428 2787 
Q 1159 2491 1159 1978 
L 1159 0 
L 581 0 
L 581 3500 
L 1159 3500 
L 1159 2956 
Q 1366 3272 1645 3428 
Q 1925 3584 2291 3584 
Q 2894 3584 3203 3211 
Q 3513 2838 3513 2113 
z
" transform="scale(0.015625)"/>
       <path id="DejaVuSans-67" d="M 2906 1791 
Q 2906 2416 2648 2759 
Q 2391 3103 1925 3103 
Q 1463 3103 1205 2759 
Q 947 2416 947 1791 
Q 947 1169 1205 825 
Q 1463 481 1925 481 
Q 2391 481 2648 825 
Q 2906 1169 2906 1791 
z
M 3481 434 
Q 3481 -459 3084 -895 
Q 2688 -1331 1869 -1331 
Q 1566 -1331 1297 -1286 
Q 1028 -1241 775 -1147 
L 775 -588 
Q 1028 -725 1275 -790 
Q 1522 -856 1778 -856 
Q 2344 -856 2625 -561 
Q 2906 -266 2906 331 
L 2906 616 
Q 2728 306 2450 153 
Q 2172 0 1784 0 
Q 1141 0 747 490 
Q 353 981 353 1791 
Q 353 2603 747 3093 
Q 1141 3584 1784 3584 
Q 2172 3584 2450 3431 
Q 2728 3278 2906 2969 
L 2906 3500 
L 3481 3500 
L 3481 434 
z
" transform="scale(0.015625)"/>
       <path id="DejaVuSans-20" transform="scale(0.015625)"/>
       <path id="DejaVuSans-73" d="M 2834 3397 
L 2834 2853 
Q 2591 2978 2328 3040 
Q 2066 3103 1784 3103 
Q 1356 3103 1142 2972 
Q 928 2841 928 2578 
Q 928 2378 1081 2264 
Q 1234 2150 1697 2047 
L 1894 2003 
Q 2506 1872 2764 1633 
Q 3022 1394 3022 966 
Q 3022 478 2636 193 
Q 2250 -91 1575 -91 
Q 1294 -91 989 -36 
Q 684 19 347 128 
L 347 722 
Q 666 556 975 473 
Q 1284 391 1588 391 
Q 1994 391 2212 530 
Q 2431 669 2431 922 
Q 2431 1156 2273 1281 
Q 2116 1406 1581 1522 
L 1381 1569 
Q 847 1681 609 1914 
Q 372 2147 372 2553 
Q 372 3047 722 3315 
Q 1072 3584 1716 3584 
Q 2034 3584 2315 3537 
Q 2597 3491 2834 3397 
z
" transform="scale(0.015625)"/>
       <path id="DejaVuSans-74" d="M 1172 4494 
L 1172 3500 
L 2356 3500 
L 2356 3053 
L 1172 3053 
L 1172 1153 
Q 1172 725 1289 603 
Q 1406 481 1766 481 
L 2356 481 
L 2356 0 
L 1766 0 
Q 1100 0 847 248 
Q 594 497 594 1153 
L 594 3053 
L 172 3053 
L 172 3500 
L 594 3500 
L 594 4494 
L 1172 4494 
z
" transform="scale(0.015625)"/>
       <path id="DejaVuSans-65" d="M 3597 1894 
L 3597 1613 
L 953 1613 
Q 991 1019 1311 708 
Q 1631 397 2203 397 
Q 2534 397 2845 478 
Q 3156 559 3463 722 
L 3463 178 
Q 3153 47 2828 -22 
Q 2503 -91 2169 -91 
Q 1331 -91 842 396 
Q 353 884 353 1716 
Q 353 2575 817 3079 
Q 1281 3584 2069 3584 
Q 2775 3584 3186 3129 
Q 3597 2675 3597 1894 
z
M 3022 2063 
Q 3016 2534 2758 2815 
Q 2500 3097 2075 3097 
Q 1594 3097 1305 2825 
Q 1016 2553 972 2059 
L 3022 2063 
z
" transform="scale(0.015625)"/>
       <path id="DejaVuSans-70" d="M 1159 525 
L 1159 -1331 
L 581 -1331 
L 581 3500 
L 1159 3500 
L 1159 2969 
Q 1341 3281 1617 3432 
Q 1894 3584 2278 3584 
Q 2916 3584 3314 3078 
Q 3713 2572 3713 1747 
Q 3713 922 3314 415 
Q 2916 -91 2278 -91 
Q 1894 -91 1617 61 
Q 1341 213 1159 525 
z
M 3116 1747 
Q 3116 2381 2855 2742 
Q 2594 3103 2138 3103 
Q 1681 3103 1420 2742 
Q 1159 2381 1159 1747 
Q 1159 1113 1420 752 
Q 1681 391 2138 391 
Q 2594 391 2855 752 
Q 3116 1113 3116 1747 
z
" transform="scale(0.015625)"/>
      </defs>
      <use xlink:href="#DejaVuSans-54"/>
      <use xlink:href="#DejaVuSans-72" transform="translate(46.333984 0)"/>
      <use xlink:href="#DejaVuSans-61" transform="translate(87.447266 0)"/>
      <use xlink:href="#DejaVuSans-69" transform="translate(148.726562 0)"/>
      <use xlink:href="#DejaVuSans-6e" transform="translate(176.509766 0)"/>
      <use xlink:href="#DejaVuSans-69" transform="translate(239.888672 0)"/>
      <use xlink:href="#DejaVuSans-6e" transform="translate(267.671875 0)"/>
      <use xlink:href="#DejaVuSans-67" transform="translate(331.050781 0)"/>
      <use xlink:href="#DejaVuSans-20" transform="translate(394.527344 0)"/>
      <use xlink:href="#DejaVuSans-73" transform="translate(426.314453 0)"/>
      <use xlink:href="#DejaVuSans-74" transform="translate(478.414062 0)"/>
      <use xlink:href="#DejaVuSans-65" transform="translate(517.623047 0)"/>
      <use xlink:href="#DejaVuSans-70" transform="translate(579.146484 0)"/>
      <use xlink:href="#DejaVuSans-73" transform="translate(642.623047 0)"/>
     </g>
    </g>
   </g>
   <g id="matplotlib.axis_2">
    <g id="ytick_1">
     <g id="line2d_6">
      <defs>
       <path id="md62787fdf0" d="M 0 0 
L -3.5 0 
" style="stroke: #000000; stroke-width: 0.8"/>
      </defs>
      <g>
       <use xlink:href="#md62787fdf0" x="72" y="307.8" style="stroke: #000000; stroke-width: 0.8"/>
      </g>
     </g>
     <g id="text_7">
      <!-- 0.0 -->
      <g transform="translate(49.096875 311.599219) scale(0.1 -0.1)">
       <defs>
        <path id="DejaVuSans-2e" d="M 684 794 
L 1344 794 
L 1344 0 
L 684 0 
L 684 794 
z
" transform="scale(0.015625)"/>
       </defs>
       <use xlink:href="#DejaVuSans-30"/>
       <use xlink:href="#DejaVuSans-2e" transform="translate(63.623047 0)"/>
       <use xlink:href="#DejaVuSans-30" transform="translate(95.410156 0)"/>
      </g>
     </g>
    </g>
    <g id="ytick_2">
     <g id="line2d_7">
      <g>
       <use xlink:href="#md62787fdf0" x="72" y="254.342215" style="stroke: #000000; stroke-width: 0.8"/>
      </g>
     </g>
     <g id="text_8">
      <!-- 0.2 -->
      <g transform="translate(49.096875 258.141433) scale(0.1 -0.1)">
       <use xlink:href="#DejaVuSans-30"/>
       <use xlink:href="#DejaVuSans-2e" transform="translate(63.623047 0)"/>
       <use xlink:href="#DejaVuSans-32" transform="translate(95.410156 0)"/>
      </g>
     </g>
    </g>
    <g id="ytick_3">
     <g id="line2d_8">
      <g>
       <use xlink:href="#md62787fdf0" x="72" y="200.884429" style="stroke: #000000; stroke-width: 0.8"/>
      </g>
     </g>
     <g id="text_9">
      <!-- 0.4 -->
      <g transform="translate(49.096875 204.683648) scale(0.1 -0.1)">
       <use xlink:href="#DejaVuSans-30"/>
       <use xlink:href="#DejaVuSans-2e" transform="translate(63.623047 0)"/>
       <use xlink:href="#DejaVuSans-34" transform="translate(95.410156 0)"/>
      </g>
     </g>
    </g>
    <g id="ytick_4">
     <g id="line2d_9">
      <g>
       <use xlink:href="#md62787fdf0" x="72" y="147.426644" style="stroke: #000000; stroke-width: 0.8"/>
      </g>
     </g>
     <g id="text_10">
      <!-- 0.6 -->
      <g transform="translate(49.096875 151.225863) scale(0.1 -0.1)">
       <use xlink:href="#DejaVuSans-30"/>
       <use xlink:href="#DejaVuSans-2e" transform="translate(63.623047 0)"/>
       <use xlink:href="#DejaVuSans-36" transform="translate(95.410156 0)"/>
      </g>
     </g>
    </g>
    <g id="ytick_5">
     <g id="line2d_10">
      <g>
       <use xlink:href="#md62787fdf0" x="72" y="93.968859" style="stroke: #000000; stroke-width: 0.8"/>
      </g>
     </g>
     <g id="text_11">
      <!-- 0.8 -->
      <g transform="translate(49.096875 97.768077) scale(0.1 -0.1)">
       <use xlink:href="#DejaVuSans-30"/>
       <use xlink:href="#DejaVuSans-2e" transform="translate(63.623047 0)"/>
       <use xlink:href="#DejaVuSans-38" transform="translate(95.410156 0)"/>
      </g>
     </g>
    </g>
    <g id="text_12">
     <!-- Loss -->
     <g transform="translate(43.017187 192.767187) rotate(-90) scale(0.1 -0.1)">
      <defs>
       <path id="DejaVuSans-4c" d="M 628 4666 
L 1259 4666 
L 1259 531 
L 3531 531 
L 3531 0 
L 628 0 
L 628 4666 
z
" transform="scale(0.015625)"/>
       <path id="DejaVuSans-6f" d="M 1959 3097 
Q 1497 3097 1228 2736 
Q 959 2375 959 1747 
Q 959 1119 1226 758 
Q 1494 397 1959 397 
Q 2419 397 2687 759 
Q 2956 1122 2956 1747 
Q 2956 2369 2687 2733 
Q 2419 3097 1959 3097 
z
M 1959 3584 
Q 2709 3584 3137 3096 
Q 3566 2609 3566 1747 
Q 3566 888 3137 398 
Q 2709 -91 1959 -91 
Q 1206 -91 779 398 
Q 353 888 353 1747 
Q 353 2609 779 3096 
Q 1206 3584 1959 3584 
z
" transform="scale(0.015625)"/>
      </defs>
      <use xlink:href="#DejaVuSans-4c"/>
      <use xlink:href="#DejaVuSans-6f" transform="translate(53.962891 0)"/>
      <use xlink:href="#DejaVuSans-73" transform="translate(115.144531 0)"/>
      <use xlink:href="#DejaVuSans-73" transform="translate(167.244141 0)"/>
     </g>
    </g>
   </g>
   <g id="line2d_11">
    <path d="M 72 107.680781 
L 76.509091 121.419431 
L 81.018182 137.430038 
L 85.527273 137.216207 
L 90.036364 141.439372 
L 94.545455 146.090199 
L 99.054545 169.745269 
L 103.563636 160.497073 
L 108.072727 159.080441 
L 112.581818 165.441918 
L 117.090909 162.795757 
L 121.6 161.833517 
L 126.109091 189.76521 
L 130.618182 173.059652 
L 135.127273 181.639627 
L 139.636364 180.944675 
L 144.145455 170.279847 
L 148.654545 183.48392 
L 153.163636 206.738057 
L 157.672727 188.214934 
L 162.181818 200.830972 
L 166.690909 188.295121 
L 171.2 184.312516 
L 175.709091 186.798303 
L 180.218182 209.197115 
L 184.727273 210.907764 
L 189.236364 205.134323 
L 193.745455 210.079168 
L 198.254545 198.799576 
L 202.763636 211.25524 
L 207.272727 219.487739 
L 211.781818 227.880611 
L 216.290909 197.356216 
L 220.8 217.456343 
L 225.309091 212.083835 
L 229.818182 204.573017 
L 234.327273 224.780059 
L 238.836364 209.036742 
L 243.345455 229.83182 
L 247.854545 222.160628 
L 252.363636 205.508528 
L 256.872727 227.025286 
L 261.381818 238.705812 
L 265.890909 235.498345 
L 270.4 236.514043 
L 274.909091 223.603988 
L 279.418182 222.962495 
L 283.927273 224.539499 
L 288.436364 250.626899 
L 292.945455 245.842427 
L 297.454545 212.377853 
L 301.963636 225.448282 
L 306.472727 228.067713 
L 310.981818 232.878914 
L 315.490909 253.326517 
L 320 244.960373 
L 324.509091 251.428765 
L 329.018182 231.328638 
L 333.527273 245.788969 
L 338.036364 227.212389 
L 342.545455 260.115655 
L 347.054545 246.858125 
L 351.563636 259.393975 
L 356.072727 251.963343 
L 360.581818 235.551803 
L 365.090909 258.351549 
L 369.6 257.095291 
L 374.109091 274.228511 
L 378.618182 251.856428 
L 383.127273 258.057531 
L 387.636364 253.96801 
L 392.145455 247.44616 
L 396.654545 281.953161 
L 401.163636 274.896733 
L 405.672727 269.791515 
L 410.181818 269.764786 
L 414.690909 259.848367 
L 419.2 257.041833 
L 423.709091 281.472041 
L 428.218182 286.55053 
L 432.727273 283.289605 
L 437.236364 281.25821 
L 441.745455 270.914128 
L 446.254545 267.145354 
L 450.763636 285.10717 
L 455.272727 286.176326 
L 459.781818 284.706237 
L 464.290909 286.416886 
L 468.8 286.844548 
L 473.309091 287.405855 
L 477.818182 284.305303 
L 482.327273 294.355367 
L 486.836364 290.506406 
L 491.345455 288.394824 
L 495.854545 284.732966 
L 500.363636 290.346033 
L 504.872727 293.713874 
L 509.381818 286.951464 
L 513.890909 297.375732 
L 518.4 299.620959 
" clip-path="url(#p8726367f3e)" style="fill: none; stroke: #1f77b4; stroke-width: 1.5; stroke-linecap: square"/>
   </g>
   <g id="line2d_12">
    <path d="M 72 55.8 
L 76.509091 122.675689 
L 81.018182 136.040136 
L 85.527273 142.588714 
L 90.036364 133.821638 
L 94.545455 136.788545 
L 99.054545 160.817819 
L 103.563636 157.129232 
L 108.072727 154.509801 
L 112.581818 172.124141 
L 117.090909 149.538227 
L 121.6 151.302333 
L 126.109091 174.235723 
L 130.618182 168.141536 
L 135.127273 155.284938 
L 139.636364 176.668053 
L 144.145455 165.655749 
L 148.654545 163.784726 
L 153.163636 165.735936 
L 157.672727 175.304879 
L 162.181818 167.5535 
L 166.690909 184.045227 
L 171.2 173.727874 
L 175.709091 170.360034 
L 180.218182 193.052864 
L 184.727273 175.251421 
L 189.236364 195.56538 
L 193.745455 190.353246 
L 198.254545 173.941706 
L 202.763636 180.089351 
L 207.272727 206.470768 
L 211.781818 199.147051 
L 216.290909 180.303182 
L 220.8 194.255664 
L 225.309091 189.391006 
L 229.818182 185.034196 
L 234.327273 200.189478 
L 238.836364 198.93322 
L 243.345455 202.969283 
L 247.854545 195.431735 
L 252.363636 188.161476 
L 256.872727 201.713025 
L 261.381818 213.259907 
L 265.890909 221.251846 
L 270.4 199.120322 
L 274.909091 206.444039 
L 279.418182 199.547985 
L 283.927273 207.459737 
L 288.436364 220.049045 
L 292.945455 217.001952 
L 297.454545 220.556894 
L 301.963636 185.114383 
L 306.472727 196.901824 
L 310.981818 197.436402 
L 315.490909 212.270938 
L 320 213.928129 
L 324.509091 196.554349 
L 329.018182 213.527196 
L 333.527273 211.870004 
L 338.036364 207.673568 
L 342.545455 225.501739 
L 347.054545 228.789393 
L 351.563636 216.093169 
L 356.072727 217.135596 
L 360.581818 210.105897 
L 365.090909 210.506831 
L 369.6 229.3507 
L 374.109091 225.875944 
L 378.618182 225.902673 
L 383.127273 213.928129 
L 387.636364 219.567925 
L 392.145455 222.641748 
L 396.654545 232.798727 
L 401.163636 234.536105 
L 405.672727 227.078744 
L 410.181818 236.273483 
L 414.690909 232.584896 
L 419.2 210.506831 
L 423.709091 256.854731 
L 428.218182 243.196266 
L 432.727273 239.160204 
L 437.236364 218.49877 
L 441.745455 221.198388 
L 446.254545 234.937039 
L 450.763636 229.083411 
L 455.272727 234.749936 
L 459.781818 239.668053 
L 464.290909 243.704115 
L 468.8 233.547136 
L 473.309091 233.867883 
L 477.818182 245.788969 
L 482.327273 255.865762 
L 486.836364 260.329487 
L 491.345455 244.826729 
L 495.854545 250.092321 
L 500.363636 231.943403 
L 504.872727 268.027408 
L 509.381818 242.127111 
L 513.890909 253.994739 
L 518.4 249.236996 
" clip-path="url(#p8726367f3e)" style="fill: none; stroke: #ff7f0e; stroke-width: 1.5; stroke-linecap: square"/>
   </g>
   <g id="line2d_13">
    <path d="M 72 159.508104 
L 76.509091 176.133475 
L 81.018182 186.584472 
L 85.527273 207.566653 
L 90.036364 197.703691 
L 94.545455 199.948918 
L 99.054545 212.244209 
L 103.563636 228.228087 
L 108.072727 225.047348 
L 112.581818 234.776665 
L 117.090909 234.937039 
L 121.6 223.06941 
L 126.109091 258.458464 
L 130.618182 233.279847 
L 135.127273 241.966737 
L 139.636364 254.609504 
L 144.145455 240.175902 
L 148.654545 257.496224 
L 153.163636 272.464404 
L 157.672727 270.005346 
L 162.181818 266.209843 
L 166.690909 262.467798 
L 171.2 273.934493 
L 175.709091 262.307425 
L 180.218182 279.440645 
L 184.727273 277.943827 
L 189.236364 287.379126 
L 193.745455 269.283666 
L 198.254545 266.477132 
L 202.763636 283.049045 
L 207.272727 295.638354 
L 211.781818 290.880611 
L 216.290909 291.709207 
L 220.8 286.149597 
L 225.309091 279.707934 
L 229.818182 273.747391 
L 234.327273 293.259482 
L 238.836364 299.086381 
L 243.345455 296.867883 
L 247.854545 299.620959 
L 252.363636 295.424523 
L 256.872727 296.199661 
L 261.381818 287.967162 
L 265.890909 298.311243 
L 270.4 303.042257 
L 274.909091 297.18863 
L 279.418182 305.421129 
L 283.927273 284.572592 
L 288.436364 305.581502 
L 292.945455 300.503012 
L 297.454545 302.748239 
L 301.963636 296.70751 
L 306.472727 304.619262 
L 310.981818 305.581502 
L 315.490909 305.3944 
L 320 302.293848 
L 324.509091 307.372338 
L 329.018182 306.249724 
L 333.527273 304.619262 
L 338.036364 298.578532 
L 342.545455 307.238693 
L 347.054545 305.982435 
L 351.563636 303.683751 
L 356.072727 303.710479 
L 360.581818 306.83776 
L 365.090909 307.532711 
L 369.6 307.211964 
L 374.109091 300.930675 
L 378.618182 300.422826 
L 383.127273 301.946373 
L 387.636364 306.089351 
L 392.145455 302.668053 
L 396.654545 307.586169 
L 401.163636 307.452524 
L 405.672727 307.773271 
L 410.181818 307.105049 
L 414.690909 307.07832 
L 419.2 307.773271 
L 423.709091 307.8 
L 428.218182 307.8 
L 432.727273 304.592533 
L 437.236364 307.773271 
L 441.745455 307.773271 
L 446.254545 306.169538 
L 450.763636 307.105049 
L 455.272727 304.699448 
L 459.781818 307.746542 
L 464.290909 307.105049 
L 468.8 307.8 
L 473.309091 307.746542 
L 477.818182 306.998133 
L 482.327273 307.8 
L 486.836364 307.8 
L 491.345455 306.517013 
L 495.854545 307.8 
L 500.363636 307.773271 
L 504.872727 307.8 
L 509.381818 307.8 
L 513.890909 307.639627 
L 518.4 307.8 
" clip-path="url(#p8726367f3e)" style="fill: none; stroke: #2ca02c; stroke-width: 1.5; stroke-linecap: square"/>
   </g>
   <g id="line2d_14">
    <path d="M 72 111.663386 
L 76.509091 151.703267 
L 81.018182 185.301485 
L 85.527273 216.360458 
L 90.036364 211.575986 
L 94.545455 212.992618 
L 99.054545 219.166992 
L 103.563636 224.51277 
L 108.072727 225.020619 
L 112.581818 223.764361 
L 117.090909 217.001952 
L 121.6 208.769453 
L 126.109091 236.326941 
L 130.618182 222.214086 
L 135.127273 225.929402 
L 139.636364 243.089351 
L 144.145455 231.248451 
L 148.654545 237.476283 
L 153.163636 244.880187 
L 157.672727 246.590836 
L 162.181818 244.933644 
L 166.690909 245.494951 
L 171.2 249.985405 
L 175.709091 238.224692 
L 180.218182 233.921341 
L 184.727273 283.449979 
L 189.236364 269.818244 
L 193.745455 252.150445 
L 198.254545 247.900552 
L 202.763636 251.696054 
L 207.272727 278.371489 
L 211.781818 262.547985 
L 216.290909 271.234875 
L 220.8 254.44913 
L 225.309091 261.318456 
L 229.818182 273.399915 
L 234.327273 283.18269 
L 238.836364 280.643445 
L 243.345455 277.676538 
L 247.854545 271.58235 
L 252.363636 273.827577 
L 256.872727 274.4958 
L 261.381818 289.22342 
L 265.890909 294.088078 
L 270.4 298.525074 
L 274.909091 272.437675 
L 279.418182 282.621383 
L 283.927273 277.997285 
L 288.436364 293.981162 
L 292.945455 287.379126 
L 297.454545 292.190327 
L 301.963636 289.437251 
L 306.472727 289.250148 
L 310.981818 294.916674 
L 315.490909 296.333305 
L 320 295.050318 
L 324.509091 298.043954 
L 329.018182 292.323971 
L 333.527273 292.751633 
L 338.036364 298.712176 
L 342.545455 293.500042 
L 347.054545 306.169538 
L 351.563636 307.8 
L 356.072727 299.11311 
L 360.581818 303.175902 
L 365.090909 300.529741 
L 369.6 301.491981 
L 374.109091 303.870853 
L 378.618182 297.375732 
L 383.127273 303.363004 
L 387.636364 302.026559 
L 392.145455 306.142809 
L 396.654545 305.073653 
L 401.163636 299.781332 
L 405.672727 304.752906 
L 410.181818 297.536105 
L 414.690909 305.822062 
L 419.2 298.204328 
L 423.709091 304.726177 
L 428.218182 299.567501 
L 432.727273 305.928978 
L 437.236364 303.042257 
L 441.745455 300.957403 
L 446.254545 307.8 
L 450.763636 305.447857 
L 455.272727 306.757573 
L 459.781818 307.8 
L 464.290909 304.779635 
L 468.8 307.8 
L 473.309091 307.8 
L 477.818182 305.421129 
L 482.327273 307.8 
L 486.836364 307.452524 
L 491.345455 307.8 
L 495.854545 304.966737 
L 500.363636 307.8 
L 504.872727 305.581502 
L 509.381818 305.715146 
L 513.890909 307.8 
L 518.4 306.089351 
" clip-path="url(#p8726367f3e)" style="fill: none; stroke: #d62728; stroke-width: 1.5; stroke-linecap: square"/>
   </g>
   <g id="line2d_15">
    <path d="M 72 149.030378 
L 76.509091 182.735511 
L 81.018182 204.278999 
L 85.527273 223.470344 
L 90.036364 223.684175 
L 94.545455 235.043954 
L 99.054545 254.716419 
L 103.563636 255.518286 
L 108.072727 235.284514 
L 112.581818 255.438099 
L 117.090909 258.672295 
L 121.6 245.869156 
L 126.109091 276.046076 
L 130.618182 264.525923 
L 135.127273 272.678235 
L 139.636364 273.399915 
L 144.145455 259.901824 
L 148.654545 277.836911 
L 153.163636 291.735936 
L 157.672727 286.283241 
L 162.181818 288.074077 
L 166.690909 283.369792 
L 171.2 284.572592 
L 175.709091 283.155961 
L 180.218182 287.993891 
L 184.727273 293.206025 
L 189.236364 294.114807 
L 193.745455 286.176326 
L 198.254545 299.808061 
L 202.763636 284.358761 
L 207.272727 298.952737 
L 211.781818 292.029953 
L 216.290909 287.51277 
L 220.8 286.470344 
L 225.309091 295.103776 
L 229.818182 281.178023 
L 234.327273 287.886975 
L 238.836364 299.487314 
L 243.345455 299.326941 
L 247.854545 297.455919 
L 252.363636 305.234026 
L 256.872727 300.583199 
L 261.381818 307.719813 
L 265.890909 304.084684 
L 270.4 297.18863 
L 274.909091 304.886551 
L 279.418182 300.957403 
L 283.927273 300.583199 
L 288.436364 307.693084 
L 292.945455 301.251421 
L 297.454545 305.795333 
L 301.963636 295.932372 
L 306.472727 302.988799 
L 310.981818 305.608231 
L 315.490909 307.693084 
L 320 306.623929 
L 324.509091 304.859822 
L 329.018182 304.779635 
L 333.527273 302.106746 
L 338.036364 307.639627 
L 342.545455 307.693084 
L 347.054545 306.517013 
L 351.563636 299.032923 
L 356.072727 307.719813 
L 360.581818 307.8 
L 365.090909 306.704115 
L 369.6 301.839457 
L 374.109091 302.561137 
L 378.618182 301.411795 
L 383.127273 306.864489 
L 387.636364 306.410098 
L 392.145455 306.303182 
L 396.654545 306.891218 
L 401.163636 305.982435 
L 405.672727 305.020195 
L 410.181818 304.859822 
L 414.690909 307.773271 
L 419.2 305.474586 
L 423.709091 305.260755 
L 428.218182 306.784302 
L 432.727273 307.8 
L 437.236364 302.774968 
L 441.745455 305.554773 
L 446.254545 307.746542 
L 450.763636 307.719813 
L 455.272727 307.8 
L 459.781818 307.8 
L 464.290909 307.372338 
L 468.8 307.8 
L 473.309091 306.329911 
L 477.818182 307.425796 
L 482.327273 307.8 
L 486.836364 307.8 
L 491.345455 307.8 
L 495.854545 307.051591 
L 500.363636 307.8 
L 504.872727 307.8 
L 509.381818 307.8 
L 513.890909 307.8 
L 518.4 306.436826 
" clip-path="url(#p8726367f3e)" style="fill: none; stroke: #9467bd; stroke-width: 1.5; stroke-linecap: square"/>
   </g>
   <g id="line2d_16">
    <path d="M 72 168.943403 
L 76.509091 179.020195 
L 81.018182 192.812304 
L 85.527273 206.363852 
L 90.036364 200.777514 
L 94.545455 212.057106 
L 99.054545 238.946373 
L 103.563636 244.051591 
L 108.072727 233.814425 
L 112.581818 248.488587 
L 117.090909 208.261604 
L 121.6 240.844124 
L 126.109091 275.244209 
L 130.618182 254.101655 
L 135.127273 261.104625 
L 139.636364 262.868731 
L 144.145455 252.310819 
L 148.654545 242.260755 
L 153.163636 277.409249 
L 157.672727 271.555622 
L 162.181818 268.000679 
L 166.690909 276.019347 
L 171.2 268.802546 
L 175.709091 257.576411 
L 180.218182 242.63496 
L 184.727273 278.692236 
L 189.236364 284.519134 
L 193.745455 269.631141 
L 198.254545 281.391854 
L 202.763636 280.189054 
L 207.272727 294.836487 
L 211.781818 290.105473 
L 216.290909 287.780059 
L 220.8 290.90734 
L 225.309091 294.248451 
L 229.818182 282.861943 
L 234.327273 296.386763 
L 238.836364 305.100382 
L 243.345455 299.300212 
L 247.854545 294.301909 
L 252.363636 301.946373 
L 256.872727 297.028256 
L 261.381818 303.603564 
L 265.890909 307.532711 
L 270.4 304.191599 
L 274.909091 298.418159 
L 279.418182 300.770301 
L 283.927273 301.010861 
L 288.436364 304.619262 
L 292.945455 302.828426 
L 297.454545 307.746542 
L 301.963636 304.004497 
L 306.472727 301.304879 
L 310.981818 306.276453 
L 315.490909 304.512346 
L 320 306.811031 
L 324.509091 304.806364 
L 329.018182 304.67272 
L 333.527273 305.3944 
L 338.036364 305.87552 
L 342.545455 301.732541 
L 347.054545 306.891218 
L 351.563636 301.144506 
L 356.072727 305.715146 
L 360.581818 305.046924 
L 365.090909 298.124141 
L 369.6 306.730844 
L 374.109091 303.977768 
L 378.618182 307.024862 
L 383.127273 305.87552 
L 387.636364 306.410098 
L 392.145455 304.752906 
L 396.654545 307.425796 
L 401.163636 307.8 
L 405.672727 307.8 
L 410.181818 307.8 
L 414.690909 304.726177 
L 419.2 305.447857 
L 423.709091 307.399067 
L 428.218182 307.773271 
L 432.727273 305.554773 
L 437.236364 304.859822 
L 441.745455 307.452524 
L 446.254545 307.8 
L 450.763636 307.8 
L 455.272727 307.452524 
L 459.781818 307.8 
L 464.290909 307.479253 
L 468.8 307.8 
L 473.309091 307.8 
L 477.818182 307.8 
L 482.327273 307.8 
L 486.836364 307.8 
L 491.345455 307.773271 
L 495.854545 307.8 
L 500.363636 307.8 
L 504.872727 307.8 
L 509.381818 307.8 
L 513.890909 307.8 
L 518.4 307.8 
" clip-path="url(#p8726367f3e)" style="fill: none; stroke: #8c564b; stroke-width: 1.5; stroke-linecap: square"/>
   </g>
   <g id="line2d_17">
    <path d="M 72 116.474586 
L 76.509091 191.235299 
L 81.018182 207.967586 
L 85.527273 217.910734 
L 90.036364 214.542894 
L 94.545455 216.54756 
L 99.054545 225.421553 
L 103.563636 239.106746 
L 108.072727 221.545863 
L 112.581818 236.808061 
L 117.090909 228.86958 
L 121.6 234.349003 
L 126.109091 257.763513 
L 130.618182 248.16784 
L 135.127273 245.842427 
L 139.636364 256.186508 
L 144.145455 249.15681 
L 148.654545 251.295121 
L 153.163636 268.93619 
L 157.672727 274.308697 
L 162.181818 264.419007 
L 166.690909 258.378277 
L 171.2 266.610776 
L 175.709091 272.410946 
L 180.218182 266.958252 
L 184.727273 287.085108 
L 189.236364 277.943827 
L 193.745455 273.05244 
L 198.254545 274.25524 
L 202.763636 270.914128 
L 207.272727 289.46398 
L 211.781818 280.295969 
L 216.290909 291.522104 
L 220.8 274.25524 
L 225.309091 287.138566 
L 229.818182 276.874671 
L 234.327273 286.203055 
L 238.836364 278.772423 
L 243.345455 284.358761 
L 247.854545 284.973526 
L 252.363636 274.01468 
L 256.872727 276.259907 
L 261.381818 291.308273 
L 265.890909 289.063046 
L 270.4 286.764361 
L 274.909091 281.178023 
L 279.418182 277.248876 
L 283.927273 278.932796 
L 288.436364 300.369368 
L 292.945455 291.361731 
L 297.454545 292.377429 
L 301.963636 298.899279 
L 306.472727 293.366398 
L 310.981818 297.883581 
L 315.490909 297.18863 
L 320 302.320577 
L 324.509091 294.99686 
L 329.018182 288.688842 
L 333.527273 299.193297 
L 338.036364 294.382096 
L 342.545455 306.998133 
L 347.054545 287.432584 
L 351.563636 294.595927 
L 356.072727 298.979465 
L 360.581818 291.575562 
L 365.090909 298.792363 
L 369.6 297.643021 
L 374.109091 301.812728 
L 378.618182 297.349003 
L 383.127273 294.702843 
L 387.636364 307.746542 
L 392.145455 289.971829 
L 396.654545 299.193297 
L 401.163636 306.329911 
L 405.672727 300.31591 
L 410.181818 302.748239 
L 414.690909 303.763937 
L 419.2 301.411795 
L 423.709091 300.235723 
L 428.218182 303.068986 
L 432.727273 306.303182 
L 437.236364 307.345609 
L 441.745455 307.773271 
L 446.254545 302.534408 
L 450.763636 303.015528 
L 455.272727 306.035893 
L 459.781818 304.271786 
L 464.290909 306.677387 
L 468.8 307.8 
L 473.309091 305.87552 
L 477.818182 307.773271 
L 482.327273 302.801697 
L 486.836364 307.8 
L 491.345455 307.8 
L 495.854545 307.8 
L 500.363636 307.8 
L 504.872727 307.8 
L 509.381818 307.8 
L 513.890909 307.8 
L 518.4 307.666356 
" clip-path="url(#p8726367f3e)" style="fill: none; stroke: #e377c2; stroke-width: 1.5; stroke-linecap: square"/>
   </g>
   <g id="line2d_18">
    <path d="M 72 148.148324 
L 76.509091 188.749512 
L 81.018182 222.34773 
L 85.527273 234.509376 
L 90.036364 225.769028 
L 94.545455 241.057955 
L 99.054545 261.345185 
L 103.563636 251.963343 
L 108.072727 249.664658 
L 112.581818 250.145779 
L 117.090909 269.41731 
L 121.6 253.834366 
L 126.109091 275.912431 
L 130.618182 264.445736 
L 135.127273 262.120322 
L 139.636364 265.301061 
L 144.145455 272.571319 
L 148.654545 272.464404 
L 153.163636 277.355791 
L 157.672727 289.196691 
L 162.181818 284.732966 
L 166.690909 281.391854 
L 171.2 271.502164 
L 175.709091 282.354094 
L 180.218182 292.270513 
L 184.727273 297.963768 
L 189.236364 285.508104 
L 193.745455 295.050318 
L 198.254545 300.823759 
L 202.763636 287.913704 
L 207.272727 297.42919 
L 211.781818 302.801697 
L 216.290909 287.138566 
L 220.8 291.441918 
L 225.309091 299.781332 
L 229.818182 296.199661 
L 234.327273 302.24039 
L 238.836364 303.44319 
L 243.345455 302.267119 
L 247.854545 307.505982 
L 252.363636 301.117777 
L 256.872727 294.863216 
L 261.381818 305.528044 
L 265.890909 304.592533 
L 270.4 290.720238 
L 274.909091 297.803394 
L 279.418182 302.587866 
L 283.927273 300.208994 
L 288.436364 306.35664 
L 292.945455 298.311243 
L 297.454545 304.111413 
L 301.963636 304.004497 
L 306.472727 304.592533 
L 310.981818 303.229359 
L 315.490909 306.11608 
L 320 306.035893 
L 324.509091 301.51871 
L 329.018182 306.329911 
L 333.527273 307.158507 
L 338.036364 305.581502 
L 342.545455 307.211964 
L 347.054545 305.741875 
L 351.563636 304.67272 
L 356.072727 298.525074 
L 360.581818 305.581502 
L 365.090909 307.399067 
L 369.6 307.8 
L 374.109091 304.218328 
L 378.618182 304.378702 
L 383.127273 307.8 
L 387.636364 303.256088 
L 392.145455 305.287484 
L 396.654545 298.337972 
L 401.163636 304.298515 
L 405.672727 305.608231 
L 410.181818 305.928978 
L 414.690909 307.8 
L 419.2 306.11608 
L 423.709091 307.399067 
L 428.218182 307.8 
L 432.727273 306.83776 
L 437.236364 306.944675 
L 441.745455 307.746542 
L 446.254545 307.8 
L 450.763636 307.8 
L 455.272727 307.292151 
L 459.781818 307.8 
L 464.290909 307.8 
L 468.8 307.693084 
L 473.309091 307.8 
L 477.818182 307.8 
L 482.327273 307.8 
L 486.836364 307.8 
L 491.345455 307.8 
L 495.854545 307.8 
L 500.363636 307.8 
L 504.872727 307.8 
L 509.381818 307.8 
L 513.890909 307.8 
L 518.4 307.8 
" clip-path="url(#p8726367f3e)" style="fill: none; stroke: #7f7f7f; stroke-width: 1.5; stroke-linecap: square"/>
   </g>
   <g id="patch_3">
    <path d="M 72 320.4 
L 72 43.2 
" style="fill: none; stroke: #000000; stroke-width: 0.8; stroke-linejoin: miter; stroke-linecap: square"/>
   </g>
   <g id="patch_4">
    <path d="M 518.4 320.4 
L 518.4 43.2 
" style="fill: none; stroke: #000000; stroke-width: 0.8; stroke-linejoin: miter; stroke-linecap: square"/>
   </g>
   <g id="patch_5">
    <path d="M 72 320.4 
L 518.4 320.4 
" style="fill: none; stroke: #000000; stroke-width: 0.8; stroke-linejoin: miter; stroke-linecap: square"/>
   </g>
   <g id="patch_6">
    <path d="M 72 43.2 
L 518.4 43.2 
" style="fill: none; stroke: #000000; stroke-width: 0.8; stroke-linejoin: miter; stroke-linecap: square"/>
   </g>
   <g id="text_13">
    <!-- Promoter (TATA) -->
    <g transform="translate(246.92625 37.2) scale(0.12 -0.12)">
     <defs>
      <path id="DejaVuSans-50" d="M 1259 4147 
L 1259 2394 
L 2053 2394 
Q 2494 2394 2734 2622 
Q 2975 2850 2975 3272 
Q 2975 3691 2734 3919 
Q 2494 4147 2053 4147 
L 1259 4147 
z
M 628 4666 
L 2053 4666 
Q 2838 4666 3239 4311 
Q 3641 3956 3641 3272 
Q 3641 2581 3239 2228 
Q 2838 1875 2053 1875 
L 1259 1875 
L 1259 0 
L 628 0 
L 628 4666 
z
" transform="scale(0.015625)"/>
      <path id="DejaVuSans-6d" d="M 3328 2828 
Q 3544 3216 3844 3400 
Q 4144 3584 4550 3584 
Q 5097 3584 5394 3201 
Q 5691 2819 5691 2113 
L 5691 0 
L 5113 0 
L 5113 2094 
Q 5113 2597 4934 2840 
Q 4756 3084 4391 3084 
Q 3944 3084 3684 2787 
Q 3425 2491 3425 1978 
L 3425 0 
L 2847 0 
L 2847 2094 
Q 2847 2600 2669 2842 
Q 2491 3084 2119 3084 
Q 1678 3084 1418 2786 
Q 1159 2488 1159 1978 
L 1159 0 
L 581 0 
L 581 3500 
L 1159 3500 
L 1159 2956 
Q 1356 3278 1631 3431 
Q 1906 3584 2284 3584 
Q 2666 3584 2933 3390 
Q 3200 3197 3328 2828 
z
" transform="scale(0.015625)"/>
      <path id="DejaVuSans-28" d="M 1984 4856 
Q 1566 4138 1362 3434 
Q 1159 2731 1159 2009 
Q 1159 1288 1364 580 
Q 1569 -128 1984 -844 
L 1484 -844 
Q 1016 -109 783 600 
Q 550 1309 550 2009 
Q 550 2706 781 3412 
Q 1013 4119 1484 4856 
L 1984 4856 
z
" transform="scale(0.015625)"/>
      <path id="DejaVuSans-41" d="M 2188 4044 
L 1331 1722 
L 3047 1722 
L 2188 4044 
z
M 1831 4666 
L 2547 4666 
L 4325 0 
L 3669 0 
L 3244 1197 
L 1141 1197 
L 716 0 
L 50 0 
L 1831 4666 
z
" transform="scale(0.015625)"/>
      <path id="DejaVuSans-29" d="M 513 4856 
L 1013 4856 
Q 1481 4119 1714 3412 
Q 1947 2706 1947 2009 
Q 1947 1309 1714 600 
Q 1481 -109 1013 -844 
L 513 -844 
Q 928 -128 1133 580 
Q 1338 1288 1338 2009 
Q 1338 2731 1133 3434 
Q 928 4138 513 4856 
z
" transform="scale(0.015625)"/>
     </defs>
     <use xlink:href="#DejaVuSans-50"/>
     <use xlink:href="#DejaVuSans-72" transform="translate(58.552734 0)"/>
     <use xlink:href="#DejaVuSans-6f" transform="translate(97.416016 0)"/>
     <use xlink:href="#DejaVuSans-6d" transform="translate(158.597656 0)"/>
     <use xlink:href="#DejaVuSans-6f" transform="translate(256.009766 0)"/>
     <use xlink:href="#DejaVuSans-74" transform="translate(317.191406 0)"/>
     <use xlink:href="#DejaVuSans-65" transform="translate(356.400391 0)"/>
     <use xlink:href="#DejaVuSans-72" transform="translate(417.923828 0)"/>
     <use xlink:href="#DejaVuSans-20" transform="translate(459.037109 0)"/>
     <use xlink:href="#DejaVuSans-28" transform="translate(490.824219 0)"/>
     <use xlink:href="#DejaVuSans-54" transform="translate(529.837891 0)"/>
     <use xlink:href="#DejaVuSans-41" transform="translate(583.171875 0)"/>
     <use xlink:href="#DejaVuSans-54" transform="translate(643.830078 0)"/>
     <use xlink:href="#DejaVuSans-41" transform="translate(697.164062 0)"/>
     <use xlink:href="#DejaVuSans-29" transform="translate(765.572266 0)"/>
    </g>
   </g>
   <g id="legend_1">
    <g id="patch_7">
     <path d="M 334.210684 147.679025 
L 512.569 147.679025 
Q 514.235 147.679025 514.235 146.013025 
L 514.235 49.031 
Q 514.235 47.365 512.569 47.365 
L 334.210684 47.365 
Q 332.544684 47.365 332.544684 49.031 
L 332.544684 146.013025 
Q 332.544684 147.679025 334.210684 147.679025 
z
" style="fill: #ffffff; opacity: 0.8; stroke: #cccccc; stroke-linejoin: miter"/>
    </g>
    <g id="line2d_19">
     <path d="M 335.876684 54.110998 
L 344.206684 54.110998 
L 352.536684 54.110998 
" style="fill: none; stroke: #1f77b4; stroke-width: 1.5; stroke-linecap: square"/>
    </g>
    <g id="text_14">
     <!-- NT-MS V2 (50M) with rand. weights -->
     <g transform="translate(359.200684 57.026498) scale(0.0833 -0.0833)">
      <defs>
       <path id="DejaVuSans-4e" d="M 628 4666 
L 1478 4666 
L 3547 763 
L 3547 4666 
L 4159 4666 
L 4159 0 
L 3309 0 
L 1241 3903 
L 1241 0 
L 628 0 
L 628 4666 
z
" transform="scale(0.015625)"/>
       <path id="DejaVuSans-2d" d="M 313 2009 
L 1997 2009 
L 1997 1497 
L 313 1497 
L 313 2009 
z
" transform="scale(0.015625)"/>
       <path id="DejaVuSans-4d" d="M 628 4666 
L 1569 4666 
L 2759 1491 
L 3956 4666 
L 4897 4666 
L 4897 0 
L 4281 0 
L 4281 4097 
L 3078 897 
L 2444 897 
L 1241 4097 
L 1241 0 
L 628 0 
L 628 4666 
z
" transform="scale(0.015625)"/>
       <path id="DejaVuSans-53" d="M 3425 4513 
L 3425 3897 
Q 3066 4069 2747 4153 
Q 2428 4238 2131 4238 
Q 1616 4238 1336 4038 
Q 1056 3838 1056 3469 
Q 1056 3159 1242 3001 
Q 1428 2844 1947 2747 
L 2328 2669 
Q 3034 2534 3370 2195 
Q 3706 1856 3706 1288 
Q 3706 609 3251 259 
Q 2797 -91 1919 -91 
Q 1588 -91 1214 -16 
Q 841 59 441 206 
L 441 856 
Q 825 641 1194 531 
Q 1563 422 1919 422 
Q 2459 422 2753 634 
Q 3047 847 3047 1241 
Q 3047 1584 2836 1778 
Q 2625 1972 2144 2069 
L 1759 2144 
Q 1053 2284 737 2584 
Q 422 2884 422 3419 
Q 422 4038 858 4394 
Q 1294 4750 2059 4750 
Q 2388 4750 2728 4690 
Q 3069 4631 3425 4513 
z
" transform="scale(0.015625)"/>
       <path id="DejaVuSans-56" d="M 1831 0 
L 50 4666 
L 709 4666 
L 2188 738 
L 3669 4666 
L 4325 4666 
L 2547 0 
L 1831 0 
z
" transform="scale(0.015625)"/>
       <path id="DejaVuSans-35" d="M 691 4666 
L 3169 4666 
L 3169 4134 
L 1269 4134 
L 1269 2991 
Q 1406 3038 1543 3061 
Q 1681 3084 1819 3084 
Q 2600 3084 3056 2656 
Q 3513 2228 3513 1497 
Q 3513 744 3044 326 
Q 2575 -91 1722 -91 
Q 1428 -91 1123 -41 
Q 819 9 494 109 
L 494 744 
Q 775 591 1075 516 
Q 1375 441 1709 441 
Q 2250 441 2565 725 
Q 2881 1009 2881 1497 
Q 2881 1984 2565 2268 
Q 2250 2553 1709 2553 
Q 1456 2553 1204 2497 
Q 953 2441 691 2322 
L 691 4666 
z
" transform="scale(0.015625)"/>
       <path id="DejaVuSans-77" d="M 269 3500 
L 844 3500 
L 1563 769 
L 2278 3500 
L 2956 3500 
L 3675 769 
L 4391 3500 
L 4966 3500 
L 4050 0 
L 3372 0 
L 2619 2869 
L 1863 0 
L 1184 0 
L 269 3500 
z
" transform="scale(0.015625)"/>
       <path id="DejaVuSans-68" d="M 3513 2113 
L 3513 0 
L 2938 0 
L 2938 2094 
Q 2938 2591 2744 2837 
Q 2550 3084 2163 3084 
Q 1697 3084 1428 2787 
Q 1159 2491 1159 1978 
L 1159 0 
L 581 0 
L 581 4863 
L 1159 4863 
L 1159 2956 
Q 1366 3272 1645 3428 
Q 1925 3584 2291 3584 
Q 2894 3584 3203 3211 
Q 3513 2838 3513 2113 
z
" transform="scale(0.015625)"/>
       <path id="DejaVuSans-64" d="M 2906 2969 
L 2906 4863 
L 3481 4863 
L 3481 0 
L 2906 0 
L 2906 525 
Q 2725 213 2448 61 
Q 2172 -91 1784 -91 
Q 1150 -91 751 415 
Q 353 922 353 1747 
Q 353 2572 751 3078 
Q 1150 3584 1784 3584 
Q 2172 3584 2448 3432 
Q 2725 3281 2906 2969 
z
M 947 1747 
Q 947 1113 1208 752 
Q 1469 391 1925 391 
Q 2381 391 2643 752 
Q 2906 1113 2906 1747 
Q 2906 2381 2643 2742 
Q 2381 3103 1925 3103 
Q 1469 3103 1208 2742 
Q 947 2381 947 1747 
z
" transform="scale(0.015625)"/>
      </defs>
      <use xlink:href="#DejaVuSans-4e"/>
      <use xlink:href="#DejaVuSans-54" transform="translate(74.804688 0)"/>
      <use xlink:href="#DejaVuSans-2d" transform="translate(126.763672 0)"/>
      <use xlink:href="#DejaVuSans-4d" transform="translate(162.847656 0)"/>
      <use xlink:href="#DejaVuSans-53" transform="translate(249.126953 0)"/>
      <use xlink:href="#DejaVuSans-20" transform="translate(312.603516 0)"/>
      <use xlink:href="#DejaVuSans-56" transform="translate(344.390625 0)"/>
      <use xlink:href="#DejaVuSans-32" transform="translate(412.798828 0)"/>
      <use xlink:href="#DejaVuSans-20" transform="translate(476.421875 0)"/>
      <use xlink:href="#DejaVuSans-28" transform="translate(508.208984 0)"/>
      <use xlink:href="#DejaVuSans-35" transform="translate(547.222656 0)"/>
      <use xlink:href="#DejaVuSans-30" transform="translate(610.845703 0)"/>
      <use xlink:href="#DejaVuSans-4d" transform="translate(674.46875 0)"/>
      <use xlink:href="#DejaVuSans-29" transform="translate(760.748047 0)"/>
      <use xlink:href="#DejaVuSans-20" transform="translate(799.761719 0)"/>
      <use xlink:href="#DejaVuSans-77" transform="translate(831.548828 0)"/>
      <use xlink:href="#DejaVuSans-69" transform="translate(913.335938 0)"/>
      <use xlink:href="#DejaVuSans-74" transform="translate(941.119141 0)"/>
      <use xlink:href="#DejaVuSans-68" transform="translate(980.328125 0)"/>
      <use xlink:href="#DejaVuSans-20" transform="translate(1043.707031 0)"/>
      <use xlink:href="#DejaVuSans-72" transform="translate(1075.494141 0)"/>
      <use xlink:href="#DejaVuSans-61" transform="translate(1116.607422 0)"/>
      <use xlink:href="#DejaVuSans-6e" transform="translate(1177.886719 0)"/>
      <use xlink:href="#DejaVuSans-64" transform="translate(1241.265625 0)"/>
      <use xlink:href="#DejaVuSans-2e" transform="translate(1304.742188 0)"/>
      <use xlink:href="#DejaVuSans-20" transform="translate(1336.529297 0)"/>
      <use xlink:href="#DejaVuSans-77" transform="translate(1368.316406 0)"/>
      <use xlink:href="#DejaVuSans-65" transform="translate(1450.103516 0)"/>
      <use xlink:href="#DejaVuSans-69" transform="translate(1511.626953 0)"/>
      <use xlink:href="#DejaVuSans-67" transform="translate(1539.410156 0)"/>
      <use xlink:href="#DejaVuSans-68" transform="translate(1602.886719 0)"/>
      <use xlink:href="#DejaVuSans-74" transform="translate(1666.265625 0)"/>
      <use xlink:href="#DejaVuSans-73" transform="translate(1705.474609 0)"/>
     </g>
    </g>
    <g id="line2d_20">
     <path d="M 335.876684 66.337877 
L 344.206684 66.337877 
L 352.536684 66.337877 
" style="fill: none; stroke: #ff7f0e; stroke-width: 1.5; stroke-linecap: square"/>
    </g>
    <g id="text_15">
     <!-- NT-MS V2 (500M) with rand. weights -->
     <g transform="translate(359.200684 69.253377) scale(0.0833 -0.0833)">
      <use xlink:href="#DejaVuSans-4e"/>
      <use xlink:href="#DejaVuSans-54" transform="translate(74.804688 0)"/>
      <use xlink:href="#DejaVuSans-2d" transform="translate(126.763672 0)"/>
      <use xlink:href="#DejaVuSans-4d" transform="translate(162.847656 0)"/>
      <use xlink:href="#DejaVuSans-53" transform="translate(249.126953 0)"/>
      <use xlink:href="#DejaVuSans-20" transform="translate(312.603516 0)"/>
      <use xlink:href="#DejaVuSans-56" transform="translate(344.390625 0)"/>
      <use xlink:href="#DejaVuSans-32" transform="translate(412.798828 0)"/>
      <use xlink:href="#DejaVuSans-20" transform="translate(476.421875 0)"/>
      <use xlink:href="#DejaVuSans-28" transform="translate(508.208984 0)"/>
      <use xlink:href="#DejaVuSans-35" transform="translate(547.222656 0)"/>
      <use xlink:href="#DejaVuSans-30" transform="translate(610.845703 0)"/>
      <use xlink:href="#DejaVuSans-30" transform="translate(674.46875 0)"/>
      <use xlink:href="#DejaVuSans-4d" transform="translate(738.091797 0)"/>
      <use xlink:href="#DejaVuSans-29" transform="translate(824.371094 0)"/>
      <use xlink:href="#DejaVuSans-20" transform="translate(863.384766 0)"/>
      <use xlink:href="#DejaVuSans-77" transform="translate(895.171875 0)"/>
      <use xlink:href="#DejaVuSans-69" transform="translate(976.958984 0)"/>
      <use xlink:href="#DejaVuSans-74" transform="translate(1004.742188 0)"/>
      <use xlink:href="#DejaVuSans-68" transform="translate(1043.951172 0)"/>
      <use xlink:href="#DejaVuSans-20" transform="translate(1107.330078 0)"/>
      <use xlink:href="#DejaVuSans-72" transform="translate(1139.117188 0)"/>
      <use xlink:href="#DejaVuSans-61" transform="translate(1180.230469 0)"/>
      <use xlink:href="#DejaVuSans-6e" transform="translate(1241.509766 0)"/>
      <use xlink:href="#DejaVuSans-64" transform="translate(1304.888672 0)"/>
      <use xlink:href="#DejaVuSans-2e" transform="translate(1368.365234 0)"/>
      <use xlink:href="#DejaVuSans-20" transform="translate(1400.152344 0)"/>
      <use xlink:href="#DejaVuSans-77" transform="translate(1431.939453 0)"/>
      <use xlink:href="#DejaVuSans-65" transform="translate(1513.726562 0)"/>
      <use xlink:href="#DejaVuSans-69" transform="translate(1575.25 0)"/>
      <use xlink:href="#DejaVuSans-67" transform="translate(1603.033203 0)"/>
      <use xlink:href="#DejaVuSans-68" transform="translate(1666.509766 0)"/>
      <use xlink:href="#DejaVuSans-74" transform="translate(1729.888672 0)"/>
      <use xlink:href="#DejaVuSans-73" transform="translate(1769.097656 0)"/>
     </g>
    </g>
    <g id="line2d_21">
     <path d="M 335.876684 78.564755 
L 344.206684 78.564755 
L 352.536684 78.564755 
" style="fill: none; stroke: #2ca02c; stroke-width: 1.5; stroke-linecap: square"/>
    </g>
    <g id="text_16">
     <!-- NT-MS V2 (50M) -->
     <g transform="translate(359.200684 81.480255) scale(0.0833 -0.0833)">
      <use xlink:href="#DejaVuSans-4e"/>
      <use xlink:href="#DejaVuSans-54" transform="translate(74.804688 0)"/>
      <use xlink:href="#DejaVuSans-2d" transform="translate(126.763672 0)"/>
      <use xlink:href="#DejaVuSans-4d" transform="translate(162.847656 0)"/>
      <use xlink:href="#DejaVuSans-53" transform="translate(249.126953 0)"/>
      <use xlink:href="#DejaVuSans-20" transform="translate(312.603516 0)"/>
      <use xlink:href="#DejaVuSans-56" transform="translate(344.390625 0)"/>
      <use xlink:href="#DejaVuSans-32" transform="translate(412.798828 0)"/>
      <use xlink:href="#DejaVuSans-20" transform="translate(476.421875 0)"/>
      <use xlink:href="#DejaVuSans-28" transform="translate(508.208984 0)"/>
      <use xlink:href="#DejaVuSans-35" transform="translate(547.222656 0)"/>
      <use xlink:href="#DejaVuSans-30" transform="translate(610.845703 0)"/>
      <use xlink:href="#DejaVuSans-4d" transform="translate(674.46875 0)"/>
      <use xlink:href="#DejaVuSans-29" transform="translate(760.748047 0)"/>
     </g>
    </g>
    <g id="line2d_22">
     <path d="M 335.876684 90.791633 
L 344.206684 90.791633 
L 352.536684 90.791633 
" style="fill: none; stroke: #d62728; stroke-width: 1.5; stroke-linecap: square"/>
    </g>
    <g id="text_17">
     <!-- NT-1000g (500M) -->
     <g transform="translate(359.200684 93.707133) scale(0.0833 -0.0833)">
      <use xlink:href="#DejaVuSans-4e"/>
      <use xlink:href="#DejaVuSans-54" transform="translate(74.804688 0)"/>
      <use xlink:href="#DejaVuSans-2d" transform="translate(126.763672 0)"/>
      <use xlink:href="#DejaVuSans-31" transform="translate(162.847656 0)"/>
      <use xlink:href="#DejaVuSans-30" transform="translate(226.470703 0)"/>
      <use xlink:href="#DejaVuSans-30" transform="translate(290.09375 0)"/>
      <use xlink:href="#DejaVuSans-30" transform="translate(353.716797 0)"/>
      <use xlink:href="#DejaVuSans-67" transform="translate(417.339844 0)"/>
      <use xlink:href="#DejaVuSans-20" transform="translate(480.816406 0)"/>
      <use xlink:href="#DejaVuSans-28" transform="translate(512.603516 0)"/>
      <use xlink:href="#DejaVuSans-35" transform="translate(551.617188 0)"/>
      <use xlink:href="#DejaVuSans-30" transform="translate(615.240234 0)"/>
      <use xlink:href="#DejaVuSans-30" transform="translate(678.863281 0)"/>
      <use xlink:href="#DejaVuSans-4d" transform="translate(742.486328 0)"/>
      <use xlink:href="#DejaVuSans-29" transform="translate(828.765625 0)"/>
     </g>
    </g>
    <g id="line2d_23">
     <path d="M 335.876684 103.018511 
L 344.206684 103.018511 
L 352.536684 103.018511 
" style="fill: none; stroke: #9467bd; stroke-width: 1.5; stroke-linecap: square"/>
    </g>
    <g id="text_18">
     <!-- NT-MS V2 (250M) -->
     <g transform="translate(359.200684 105.934011) scale(0.0833 -0.0833)">
      <use xlink:href="#DejaVuSans-4e"/>
      <use xlink:href="#DejaVuSans-54" transform="translate(74.804688 0)"/>
      <use xlink:href="#DejaVuSans-2d" transform="translate(126.763672 0)"/>
      <use xlink:href="#DejaVuSans-4d" transform="translate(162.847656 0)"/>
      <use xlink:href="#DejaVuSans-53" transform="translate(249.126953 0)"/>
      <use xlink:href="#DejaVuSans-20" transform="translate(312.603516 0)"/>
      <use xlink:href="#DejaVuSans-56" transform="translate(344.390625 0)"/>
      <use xlink:href="#DejaVuSans-32" transform="translate(412.798828 0)"/>
      <use xlink:href="#DejaVuSans-20" transform="translate(476.421875 0)"/>
      <use xlink:href="#DejaVuSans-28" transform="translate(508.208984 0)"/>
      <use xlink:href="#DejaVuSans-32" transform="translate(547.222656 0)"/>
      <use xlink:href="#DejaVuSans-35" transform="translate(610.845703 0)"/>
      <use xlink:href="#DejaVuSans-30" transform="translate(674.46875 0)"/>
      <use xlink:href="#DejaVuSans-4d" transform="translate(738.091797 0)"/>
      <use xlink:href="#DejaVuSans-29" transform="translate(824.371094 0)"/>
     </g>
    </g>
    <g id="line2d_24">
     <path d="M 335.876684 115.245389 
L 344.206684 115.245389 
L 352.536684 115.245389 
" style="fill: none; stroke: #8c564b; stroke-width: 1.5; stroke-linecap: square"/>
    </g>
    <g id="text_19">
     <!-- NT-MS V2 (100M) -->
     <g transform="translate(359.200684 118.160889) scale(0.0833 -0.0833)">
      <use xlink:href="#DejaVuSans-4e"/>
      <use xlink:href="#DejaVuSans-54" transform="translate(74.804688 0)"/>
      <use xlink:href="#DejaVuSans-2d" transform="translate(126.763672 0)"/>
      <use xlink:href="#DejaVuSans-4d" transform="translate(162.847656 0)"/>
      <use xlink:href="#DejaVuSans-53" transform="translate(249.126953 0)"/>
      <use xlink:href="#DejaVuSans-20" transform="translate(312.603516 0)"/>
      <use xlink:href="#DejaVuSans-56" transform="translate(344.390625 0)"/>
      <use xlink:href="#DejaVuSans-32" transform="translate(412.798828 0)"/>
      <use xlink:href="#DejaVuSans-20" transform="translate(476.421875 0)"/>
      <use xlink:href="#DejaVuSans-28" transform="translate(508.208984 0)"/>
      <use xlink:href="#DejaVuSans-31" transform="translate(547.222656 0)"/>
      <use xlink:href="#DejaVuSans-30" transform="translate(610.845703 0)"/>
      <use xlink:href="#DejaVuSans-30" transform="translate(674.46875 0)"/>
      <use xlink:href="#DejaVuSans-4d" transform="translate(738.091797 0)"/>
      <use xlink:href="#DejaVuSans-29" transform="translate(824.371094 0)"/>
     </g>
    </g>
    <g id="line2d_25">
     <path d="M 335.876684 127.472267 
L 344.206684 127.472267 
L 352.536684 127.472267 
" style="fill: none; stroke: #e377c2; stroke-width: 1.5; stroke-linecap: square"/>
    </g>
    <g id="text_20">
     <!-- NT-Human-Ref. (500M) -->
     <g transform="translate(359.200684 130.387767) scale(0.0833 -0.0833)">
      <defs>
       <path id="DejaVuSans-48" d="M 628 4666 
L 1259 4666 
L 1259 2753 
L 3553 2753 
L 3553 4666 
L 4184 4666 
L 4184 0 
L 3553 0 
L 3553 2222 
L 1259 2222 
L 1259 0 
L 628 0 
L 628 4666 
z
" transform="scale(0.015625)"/>
       <path id="DejaVuSans-75" d="M 544 1381 
L 544 3500 
L 1119 3500 
L 1119 1403 
Q 1119 906 1312 657 
Q 1506 409 1894 409 
Q 2359 409 2629 706 
Q 2900 1003 2900 1516 
L 2900 3500 
L 3475 3500 
L 3475 0 
L 2900 0 
L 2900 538 
Q 2691 219 2414 64 
Q 2138 -91 1772 -91 
Q 1169 -91 856 284 
Q 544 659 544 1381 
z
M 1991 3584 
L 1991 3584 
z
" transform="scale(0.015625)"/>
       <path id="DejaVuSans-52" d="M 2841 2188 
Q 3044 2119 3236 1894 
Q 3428 1669 3622 1275 
L 4263 0 
L 3584 0 
L 2988 1197 
Q 2756 1666 2539 1819 
Q 2322 1972 1947 1972 
L 1259 1972 
L 1259 0 
L 628 0 
L 628 4666 
L 2053 4666 
Q 2853 4666 3247 4331 
Q 3641 3997 3641 3322 
Q 3641 2881 3436 2590 
Q 3231 2300 2841 2188 
z
M 1259 4147 
L 1259 2491 
L 2053 2491 
Q 2509 2491 2742 2702 
Q 2975 2913 2975 3322 
Q 2975 3731 2742 3939 
Q 2509 4147 2053 4147 
L 1259 4147 
z
" transform="scale(0.015625)"/>
       <path id="DejaVuSans-66" d="M 2375 4863 
L 2375 4384 
L 1825 4384 
Q 1516 4384 1395 4259 
Q 1275 4134 1275 3809 
L 1275 3500 
L 2222 3500 
L 2222 3053 
L 1275 3053 
L 1275 0 
L 697 0 
L 697 3053 
L 147 3053 
L 147 3500 
L 697 3500 
L 697 3744 
Q 697 4328 969 4595 
Q 1241 4863 1831 4863 
L 2375 4863 
z
" transform="scale(0.015625)"/>
      </defs>
      <use xlink:href="#DejaVuSans-4e"/>
      <use xlink:href="#DejaVuSans-54" transform="translate(74.804688 0)"/>
      <use xlink:href="#DejaVuSans-2d" transform="translate(126.763672 0)"/>
      <use xlink:href="#DejaVuSans-48" transform="translate(162.847656 0)"/>
      <use xlink:href="#DejaVuSans-75" transform="translate(238.042969 0)"/>
      <use xlink:href="#DejaVuSans-6d" transform="translate(301.421875 0)"/>
      <use xlink:href="#DejaVuSans-61" transform="translate(398.833984 0)"/>
      <use xlink:href="#DejaVuSans-6e" transform="translate(460.113281 0)"/>
      <use xlink:href="#DejaVuSans-2d" transform="translate(523.492188 0)"/>
      <use xlink:href="#DejaVuSans-52" transform="translate(559.576172 0)"/>
      <use xlink:href="#DejaVuSans-65" transform="translate(624.558594 0)"/>
      <use xlink:href="#DejaVuSans-66" transform="translate(686.082031 0)"/>
      <use xlink:href="#DejaVuSans-2e" transform="translate(714.037109 0)"/>
      <use xlink:href="#DejaVuSans-20" transform="translate(745.824219 0)"/>
      <use xlink:href="#DejaVuSans-28" transform="translate(777.611328 0)"/>
      <use xlink:href="#DejaVuSans-35" transform="translate(816.625 0)"/>
      <use xlink:href="#DejaVuSans-30" transform="translate(880.248047 0)"/>
      <use xlink:href="#DejaVuSans-30" transform="translate(943.871094 0)"/>
      <use xlink:href="#DejaVuSans-4d" transform="translate(1007.494141 0)"/>
      <use xlink:href="#DejaVuSans-29" transform="translate(1093.773438 0)"/>
     </g>
    </g>
    <g id="line2d_26">
     <path d="M 335.876684 139.699145 
L 344.206684 139.699145 
L 352.536684 139.699145 
" style="fill: none; stroke: #7f7f7f; stroke-width: 1.5; stroke-linecap: square"/>
    </g>
    <g id="text_21">
     <!-- NT-MS V2 (500M) -->
     <g transform="translate(359.200684 142.614645) scale(0.0833 -0.0833)">
      <use xlink:href="#DejaVuSans-4e"/>
      <use xlink:href="#DejaVuSans-54" transform="translate(74.804688 0)"/>
      <use xlink:href="#DejaVuSans-2d" transform="translate(126.763672 0)"/>
      <use xlink:href="#DejaVuSans-4d" transform="translate(162.847656 0)"/>
      <use xlink:href="#DejaVuSans-53" transform="translate(249.126953 0)"/>
      <use xlink:href="#DejaVuSans-20" transform="translate(312.603516 0)"/>
      <use xlink:href="#DejaVuSans-56" transform="translate(344.390625 0)"/>
      <use xlink:href="#DejaVuSans-32" transform="translate(412.798828 0)"/>
      <use xlink:href="#DejaVuSans-20" transform="translate(476.421875 0)"/>
      <use xlink:href="#DejaVuSans-28" transform="translate(508.208984 0)"/>
      <use xlink:href="#DejaVuSans-35" transform="translate(547.222656 0)"/>
      <use xlink:href="#DejaVuSans-30" transform="translate(610.845703 0)"/>
      <use xlink:href="#DejaVuSans-30" transform="translate(674.46875 0)"/>
      <use xlink:href="#DejaVuSans-4d" transform="translate(738.091797 0)"/>
      <use xlink:href="#DejaVuSans-29" transform="translate(824.371094 0)"/>
     </g>
    </g>
   </g>
  </g>
 </g>
 <defs>
  <clipPath id="p8726367f3e">
   <rect x="72" y="43.2" width="446.4" height="277.2"/>
  </clipPath>
 </defs>
</svg>
