<?xml version="1.0" encoding="utf-8" standalone="no"?>
<!DOCTYPE svg PUBLIC "-//W3C//DTD SVG 1.1//EN"
  "http://www.w3.org/Graphics/SVG/1.1/DTD/svg11.dtd">
<svg xmlns:xlink="http://www.w3.org/1999/xlink" width="576pt" height="360pt" viewBox="0 0 576 360" xmlns="http://www.w3.org/2000/svg" version="1.1">
 <metadata>
  <rdf:RDF xmlns:dc="http://purl.org/dc/elements/1.1/" xmlns:cc="http://creativecommons.org/ns#" xmlns:rdf="http://www.w3.org/1999/02/22-rdf-syntax-ns#">
   <cc:Work>
    <dc:type rdf:resource="http://purl.org/dc/dcmitype/StillImage"/>
    <dc:date>2025-01-07T03:55:00.265769</dc:date>
    <dc:format>image/svg+xml</dc:format>
    <dc:creator>
     <cc:Agent>
      <dc:title>Matplotlib v3.10.0, https://matplotlib.org/</dc:title>
     </cc:Agent>
    </dc:creator>
   </cc:Work>
  </rdf:RDF>
 </metadata>
 <defs>
  <style type="text/css">*{stroke-linejoin: round; stroke-linecap: butt}</style>
 </defs>
 <g id="figure_1">
  <g id="patch_1">
   <path d="M 0 360 
L 576 360 
L 576 0 
L 0 0 
z
" style="fill: #ffffff"/>
  </g>
  <g id="axes_1">
   <g id="patch_2">
    <path d="M 72 320.4 
L 518.4 320.4 
L 518.4 43.2 
L 72 43.2 
z
" style="fill: #ffffff"/>
   </g>
   <g id="matplotlib.axis_1">
    <g id="xtick_1">
     <g id="line2d_1">
      <defs>
       <path id="m987171bb41" d="M 0 0 
L 0 3.5 
" style="stroke: #000000; stroke-width: 0.8"/>
      </defs>
      <g>
       <use xlink:href="#m987171bb41" x="157.672727" y="320.4" style="stroke: #000000; stroke-width: 0.8"/>
      </g>
     </g>
     <g id="text_1">
      <!-- 2000 -->
      <g transform="translate(144.947727 334.998438) scale(0.1 -0.1)">
       <defs>
        <path id="DejaVuSans-32" d="M 1228 531 
L 3431 531 
L 3431 0 
L 469 0 
L 469 531 
Q 828 903 1448 1529 
Q 2069 2156 2228 2338 
Q 2531 2678 2651 2914 
Q 2772 3150 2772 3378 
Q 2772 3750 2511 3984 
Q 2250 4219 1831 4219 
Q 1534 4219 1204 4116 
Q 875 4013 500 3803 
L 500 4441 
Q 881 4594 1212 4672 
Q 1544 4750 1819 4750 
Q 2544 4750 2975 4387 
Q 3406 4025 3406 3419 
Q 3406 3131 3298 2873 
Q 3191 2616 2906 2266 
Q 2828 2175 2409 1742 
Q 1991 1309 1228 531 
z
" transform="scale(0.015625)"/>
        <path id="DejaVuSans-30" d="M 2034 4250 
Q 1547 4250 1301 3770 
Q 1056 3291 1056 2328 
Q 1056 1369 1301 889 
Q 1547 409 2034 409 
Q 2525 409 2770 889 
Q 3016 1369 3016 2328 
Q 3016 3291 2770 3770 
Q 2525 4250 2034 4250 
z
M 2034 4750 
Q 2819 4750 3233 4129 
Q 3647 3509 3647 2328 
Q 3647 1150 3233 529 
Q 2819 -91 2034 -91 
Q 1250 -91 836 529 
Q 422 1150 422 2328 
Q 422 3509 836 4129 
Q 1250 4750 2034 4750 
z
" transform="scale(0.015625)"/>
       </defs>
       <use xlink:href="#DejaVuSans-32"/>
       <use xlink:href="#DejaVuSans-30" transform="translate(63.623047 0)"/>
       <use xlink:href="#DejaVuSans-30" transform="translate(127.246094 0)"/>
       <use xlink:href="#DejaVuSans-30" transform="translate(190.869141 0)"/>
      </g>
     </g>
    </g>
    <g id="xtick_2">
     <g id="line2d_2">
      <g>
       <use xlink:href="#m987171bb41" x="247.854545" y="320.4" style="stroke: #000000; stroke-width: 0.8"/>
      </g>
     </g>
     <g id="text_2">
      <!-- 4000 -->
      <g transform="translate(235.129545 334.998438) scale(0.1 -0.1)">
       <defs>
        <path id="DejaVuSans-34" d="M 2419 4116 
L 825 1625 
L 2419 1625 
L 2419 4116 
z
M 2253 4666 
L 3047 4666 
L 3047 1625 
L 3713 1625 
L 3713 1100 
L 3047 1100 
L 3047 0 
L 2419 0 
L 2419 1100 
L 313 1100 
L 313 1709 
L 2253 4666 
z
" transform="scale(0.015625)"/>
       </defs>
       <use xlink:href="#DejaVuSans-34"/>
       <use xlink:href="#DejaVuSans-30" transform="translate(63.623047 0)"/>
       <use xlink:href="#DejaVuSans-30" transform="translate(127.246094 0)"/>
       <use xlink:href="#DejaVuSans-30" transform="translate(190.869141 0)"/>
      </g>
     </g>
    </g>
    <g id="xtick_3">
     <g id="line2d_3">
      <g>
       <use xlink:href="#m987171bb41" x="338.036364" y="320.4" style="stroke: #000000; stroke-width: 0.8"/>
      </g>
     </g>
     <g id="text_3">
      <!-- 6000 -->
      <g transform="translate(325.311364 334.998438) scale(0.1 -0.1)">
       <defs>
        <path id="DejaVuSans-36" d="M 2113 2584 
Q 1688 2584 1439 2293 
Q 1191 2003 1191 1497 
Q 1191 994 1439 701 
Q 1688 409 2113 409 
Q 2538 409 2786 701 
Q 3034 994 3034 1497 
Q 3034 2003 2786 2293 
Q 2538 2584 2113 2584 
z
M 3366 4563 
L 3366 3988 
Q 3128 4100 2886 4159 
Q 2644 4219 2406 4219 
Q 1781 4219 1451 3797 
Q 1122 3375 1075 2522 
Q 1259 2794 1537 2939 
Q 1816 3084 2150 3084 
Q 2853 3084 3261 2657 
Q 3669 2231 3669 1497 
Q 3669 778 3244 343 
Q 2819 -91 2113 -91 
Q 1303 -91 875 529 
Q 447 1150 447 2328 
Q 447 3434 972 4092 
Q 1497 4750 2381 4750 
Q 2619 4750 2861 4703 
Q 3103 4656 3366 4563 
z
" transform="scale(0.015625)"/>
       </defs>
       <use xlink:href="#DejaVuSans-36"/>
       <use xlink:href="#DejaVuSans-30" transform="translate(63.623047 0)"/>
       <use xlink:href="#DejaVuSans-30" transform="translate(127.246094 0)"/>
       <use xlink:href="#DejaVuSans-30" transform="translate(190.869141 0)"/>
      </g>
     </g>
    </g>
    <g id="xtick_4">
     <g id="line2d_4">
      <g>
       <use xlink:href="#m987171bb41" x="428.218182" y="320.4" style="stroke: #000000; stroke-width: 0.8"/>
      </g>
     </g>
     <g id="text_4">
      <!-- 8000 -->
      <g transform="translate(415.493182 334.998438) scale(0.1 -0.1)">
       <defs>
        <path id="DejaVuSans-38" d="M 2034 2216 
Q 1584 2216 1326 1975 
Q 1069 1734 1069 1313 
Q 1069 891 1326 650 
Q 1584 409 2034 409 
Q 2484 409 2743 651 
Q 3003 894 3003 1313 
Q 3003 1734 2745 1975 
Q 2488 2216 2034 2216 
z
M 1403 2484 
Q 997 2584 770 2862 
Q 544 3141 544 3541 
Q 544 4100 942 4425 
Q 1341 4750 2034 4750 
Q 2731 4750 3128 4425 
Q 3525 4100 3525 3541 
Q 3525 3141 3298 2862 
Q 3072 2584 2669 2484 
Q 3125 2378 3379 2068 
Q 3634 1759 3634 1313 
Q 3634 634 3220 271 
Q 2806 -91 2034 -91 
Q 1263 -91 848 271 
Q 434 634 434 1313 
Q 434 1759 690 2068 
Q 947 2378 1403 2484 
z
M 1172 3481 
Q 1172 3119 1398 2916 
Q 1625 2713 2034 2713 
Q 2441 2713 2670 2916 
Q 2900 3119 2900 3481 
Q 2900 3844 2670 4047 
Q 2441 4250 2034 4250 
Q 1625 4250 1398 4047 
Q 1172 3844 1172 3481 
z
" transform="scale(0.015625)"/>
       </defs>
       <use xlink:href="#DejaVuSans-38"/>
       <use xlink:href="#DejaVuSans-30" transform="translate(63.623047 0)"/>
       <use xlink:href="#DejaVuSans-30" transform="translate(127.246094 0)"/>
       <use xlink:href="#DejaVuSans-30" transform="translate(190.869141 0)"/>
      </g>
     </g>
    </g>
    <g id="xtick_5">
     <g id="line2d_5">
      <g>
       <use xlink:href="#m987171bb41" x="518.4" y="320.4" style="stroke: #000000; stroke-width: 0.8"/>
      </g>
     </g>
     <g id="text_5">
      <!-- 10000 -->
      <g transform="translate(502.49375 334.998438) scale(0.1 -0.1)">
       <defs>
        <path id="DejaVuSans-31" d="M 794 531 
L 1825 531 
L 1825 4091 
L 703 3866 
L 703 4441 
L 1819 4666 
L 2450 4666 
L 2450 531 
L 3481 531 
L 3481 0 
L 794 0 
L 794 531 
z
" transform="scale(0.015625)"/>
       </defs>
       <use xlink:href="#DejaVuSans-31"/>
       <use xlink:href="#DejaVuSans-30" transform="translate(63.623047 0)"/>
       <use xlink:href="#DejaVuSans-30" transform="translate(127.246094 0)"/>
       <use xlink:href="#DejaVuSans-30" transform="translate(190.869141 0)"/>
       <use xlink:href="#DejaVuSans-30" transform="translate(254.492188 0)"/>
      </g>
     </g>
    </g>
    <g id="text_6">
     <!-- Training steps -->
     <g transform="translate(260.464844 348.676562) scale(0.1 -0.1)">
      <defs>
       <path id="DejaVuSans-54" d="M -19 4666 
L 3928 4666 
L 3928 4134 
L 2272 4134 
L 2272 0 
L 1638 0 
L 1638 4134 
L -19 4134 
L -19 4666 
z
" transform="scale(0.015625)"/>
       <path id="DejaVuSans-72" d="M 2631 2963 
Q 2534 3019 2420 3045 
Q 2306 3072 2169 3072 
Q 1681 3072 1420 2755 
Q 1159 2438 1159 1844 
L 1159 0 
L 581 0 
L 581 3500 
L 1159 3500 
L 1159 2956 
Q 1341 3275 1631 3429 
Q 1922 3584 2338 3584 
Q 2397 3584 2469 3576 
Q 2541 3569 2628 3553 
L 2631 2963 
z
" transform="scale(0.015625)"/>
       <path id="DejaVuSans-61" d="M 2194 1759 
Q 1497 1759 1228 1600 
Q 959 1441 959 1056 
Q 959 750 1161 570 
Q 1363 391 1709 391 
Q 2188 391 2477 730 
Q 2766 1069 2766 1631 
L 2766 1759 
L 2194 1759 
z
M 3341 1997 
L 3341 0 
L 2766 0 
L 2766 531 
Q 2569 213 2275 61 
Q 1981 -91 1556 -91 
Q 1019 -91 701 211 
Q 384 513 384 1019 
Q 384 1609 779 1909 
Q 1175 2209 1959 2209 
L 2766 2209 
L 2766 2266 
Q 2766 2663 2505 2880 
Q 2244 3097 1772 3097 
Q 1472 3097 1187 3025 
Q 903 2953 641 2809 
L 641 3341 
Q 956 3463 1253 3523 
Q 1550 3584 1831 3584 
Q 2591 3584 2966 3190 
Q 3341 2797 3341 1997 
z
" transform="scale(0.015625)"/>
       <path id="DejaVuSans-69" d="M 603 3500 
L 1178 3500 
L 1178 0 
L 603 0 
L 603 3500 
z
M 603 4863 
L 1178 4863 
L 1178 4134 
L 603 4134 
L 603 4863 
z
" transform="scale(0.015625)"/>
       <path id="DejaVuSans-6e" d="M 3513 2113 
L 3513 0 
L 2938 0 
L 2938 2094 
Q 2938 2591 2744 2837 
Q 2550 3084 2163 3084 
Q 1697 3084 1428 2787 
Q 1159 2491 1159 1978 
L 1159 0 
L 581 0 
L 581 3500 
L 1159 3500 
L 1159 2956 
Q 1366 3272 1645 3428 
Q 1925 3584 2291 3584 
Q 2894 3584 3203 3211 
Q 3513 2838 3513 2113 
z
" transform="scale(0.015625)"/>
       <path id="DejaVuSans-67" d="M 2906 1791 
Q 2906 2416 2648 2759 
Q 2391 3103 1925 3103 
Q 1463 3103 1205 2759 
Q 947 2416 947 1791 
Q 947 1169 1205 825 
Q 1463 481 1925 481 
Q 2391 481 2648 825 
Q 2906 1169 2906 1791 
z
M 3481 434 
Q 3481 -459 3084 -895 
Q 2688 -1331 1869 -1331 
Q 1566 -1331 1297 -1286 
Q 1028 -1241 775 -1147 
L 775 -588 
Q 1028 -725 1275 -790 
Q 1522 -856 1778 -856 
Q 2344 -856 2625 -561 
Q 2906 -266 2906 331 
L 2906 616 
Q 2728 306 2450 153 
Q 2172 0 1784 0 
Q 1141 0 747 490 
Q 353 981 353 1791 
Q 353 2603 747 3093 
Q 1141 3584 1784 3584 
Q 2172 3584 2450 3431 
Q 2728 3278 2906 2969 
L 2906 3500 
L 3481 3500 
L 3481 434 
z
" transform="scale(0.015625)"/>
       <path id="DejaVuSans-20" transform="scale(0.015625)"/>
       <path id="DejaVuSans-73" d="M 2834 3397 
L 2834 2853 
Q 2591 2978 2328 3040 
Q 2066 3103 1784 3103 
Q 1356 3103 1142 2972 
Q 928 2841 928 2578 
Q 928 2378 1081 2264 
Q 1234 2150 1697 2047 
L 1894 2003 
Q 2506 1872 2764 1633 
Q 3022 1394 3022 966 
Q 3022 478 2636 193 
Q 2250 -91 1575 -91 
Q 1294 -91 989 -36 
Q 684 19 347 128 
L 347 722 
Q 666 556 975 473 
Q 1284 391 1588 391 
Q 1994 391 2212 530 
Q 2431 669 2431 922 
Q 2431 1156 2273 1281 
Q 2116 1406 1581 1522 
L 1381 1569 
Q 847 1681 609 1914 
Q 372 2147 372 2553 
Q 372 3047 722 3315 
Q 1072 3584 1716 3584 
Q 2034 3584 2315 3537 
Q 2597 3491 2834 3397 
z
" transform="scale(0.015625)"/>
       <path id="DejaVuSans-74" d="M 1172 4494 
L 1172 3500 
L 2356 3500 
L 2356 3053 
L 1172 3053 
L 1172 1153 
Q 1172 725 1289 603 
Q 1406 481 1766 481 
L 2356 481 
L 2356 0 
L 1766 0 
Q 1100 0 847 248 
Q 594 497 594 1153 
L 594 3053 
L 172 3053 
L 172 3500 
L 594 3500 
L 594 4494 
L 1172 4494 
z
" transform="scale(0.015625)"/>
       <path id="DejaVuSans-65" d="M 3597 1894 
L 3597 1613 
L 953 1613 
Q 991 1019 1311 708 
Q 1631 397 2203 397 
Q 2534 397 2845 478 
Q 3156 559 3463 722 
L 3463 178 
Q 3153 47 2828 -22 
Q 2503 -91 2169 -91 
Q 1331 -91 842 396 
Q 353 884 353 1716 
Q 353 2575 817 3079 
Q 1281 3584 2069 3584 
Q 2775 3584 3186 3129 
Q 3597 2675 3597 1894 
z
M 3022 2063 
Q 3016 2534 2758 2815 
Q 2500 3097 2075 3097 
Q 1594 3097 1305 2825 
Q 1016 2553 972 2059 
L 3022 2063 
z
" transform="scale(0.015625)"/>
       <path id="DejaVuSans-70" d="M 1159 525 
L 1159 -1331 
L 581 -1331 
L 581 3500 
L 1159 3500 
L 1159 2969 
Q 1341 3281 1617 3432 
Q 1894 3584 2278 3584 
Q 2916 3584 3314 3078 
Q 3713 2572 3713 1747 
Q 3713 922 3314 415 
Q 2916 -91 2278 -91 
Q 1894 -91 1617 61 
Q 1341 213 1159 525 
z
M 3116 1747 
Q 3116 2381 2855 2742 
Q 2594 3103 2138 3103 
Q 1681 3103 1420 2742 
Q 1159 2381 1159 1747 
Q 1159 1113 1420 752 
Q 1681 391 2138 391 
Q 2594 391 2855 752 
Q 3116 1113 3116 1747 
z
" transform="scale(0.015625)"/>
      </defs>
      <use xlink:href="#DejaVuSans-54"/>
      <use xlink:href="#DejaVuSans-72" transform="translate(46.333984 0)"/>
      <use xlink:href="#DejaVuSans-61" transform="translate(87.447266 0)"/>
      <use xlink:href="#DejaVuSans-69" transform="translate(148.726562 0)"/>
      <use xlink:href="#DejaVuSans-6e" transform="translate(176.509766 0)"/>
      <use xlink:href="#DejaVuSans-69" transform="translate(239.888672 0)"/>
      <use xlink:href="#DejaVuSans-6e" transform="translate(267.671875 0)"/>
      <use xlink:href="#DejaVuSans-67" transform="translate(331.050781 0)"/>
      <use xlink:href="#DejaVuSans-20" transform="translate(394.527344 0)"/>
      <use xlink:href="#DejaVuSans-73" transform="translate(426.314453 0)"/>
      <use xlink:href="#DejaVuSans-74" transform="translate(478.414062 0)"/>
      <use xlink:href="#DejaVuSans-65" transform="translate(517.623047 0)"/>
      <use xlink:href="#DejaVuSans-70" transform="translate(579.146484 0)"/>
      <use xlink:href="#DejaVuSans-73" transform="translate(642.623047 0)"/>
     </g>
    </g>
   </g>
   <g id="matplotlib.axis_2">
    <g id="ytick_1">
     <g id="line2d_6">
      <defs>
       <path id="m141ef5ed88" d="M 0 0 
L -3.5 0 
" style="stroke: #000000; stroke-width: 0.8"/>
      </defs>
      <g>
       <use xlink:href="#m141ef5ed88" x="72" y="304.189328" style="stroke: #000000; stroke-width: 0.8"/>
      </g>
     </g>
     <g id="text_7">
      <!-- 0.2 -->
      <g transform="translate(49.096875 307.988547) scale(0.1 -0.1)">
       <defs>
        <path id="DejaVuSans-2e" d="M 684 794 
L 1344 794 
L 1344 0 
L 684 0 
L 684 794 
z
" transform="scale(0.015625)"/>
       </defs>
       <use xlink:href="#DejaVuSans-30"/>
       <use xlink:href="#DejaVuSans-2e" transform="translate(63.623047 0)"/>
       <use xlink:href="#DejaVuSans-32" transform="translate(95.410156 0)"/>
      </g>
     </g>
    </g>
    <g id="ytick_2">
     <g id="line2d_7">
      <g>
       <use xlink:href="#m141ef5ed88" x="72" y="262.687352" style="stroke: #000000; stroke-width: 0.8"/>
      </g>
     </g>
     <g id="text_8">
      <!-- 0.3 -->
      <g transform="translate(49.096875 266.486571) scale(0.1 -0.1)">
       <defs>
        <path id="DejaVuSans-33" d="M 2597 2516 
Q 3050 2419 3304 2112 
Q 3559 1806 3559 1356 
Q 3559 666 3084 287 
Q 2609 -91 1734 -91 
Q 1441 -91 1130 -33 
Q 819 25 488 141 
L 488 750 
Q 750 597 1062 519 
Q 1375 441 1716 441 
Q 2309 441 2620 675 
Q 2931 909 2931 1356 
Q 2931 1769 2642 2001 
Q 2353 2234 1838 2234 
L 1294 2234 
L 1294 2753 
L 1863 2753 
Q 2328 2753 2575 2939 
Q 2822 3125 2822 3475 
Q 2822 3834 2567 4026 
Q 2313 4219 1838 4219 
Q 1578 4219 1281 4162 
Q 984 4106 628 3988 
L 628 4550 
Q 988 4650 1302 4700 
Q 1616 4750 1894 4750 
Q 2613 4750 3031 4423 
Q 3450 4097 3450 3541 
Q 3450 3153 3228 2886 
Q 3006 2619 2597 2516 
z
" transform="scale(0.015625)"/>
       </defs>
       <use xlink:href="#DejaVuSans-30"/>
       <use xlink:href="#DejaVuSans-2e" transform="translate(63.623047 0)"/>
       <use xlink:href="#DejaVuSans-33" transform="translate(95.410156 0)"/>
      </g>
     </g>
    </g>
    <g id="ytick_3">
     <g id="line2d_8">
      <g>
       <use xlink:href="#m141ef5ed88" x="72" y="221.185375" style="stroke: #000000; stroke-width: 0.8"/>
      </g>
     </g>
     <g id="text_9">
      <!-- 0.4 -->
      <g transform="translate(49.096875 224.984594) scale(0.1 -0.1)">
       <use xlink:href="#DejaVuSans-30"/>
       <use xlink:href="#DejaVuSans-2e" transform="translate(63.623047 0)"/>
       <use xlink:href="#DejaVuSans-34" transform="translate(95.410156 0)"/>
      </g>
     </g>
    </g>
    <g id="ytick_4">
     <g id="line2d_9">
      <g>
       <use xlink:href="#m141ef5ed88" x="72" y="179.683399" style="stroke: #000000; stroke-width: 0.8"/>
      </g>
     </g>
     <g id="text_10">
      <!-- 0.5 -->
      <g transform="translate(49.096875 183.482618) scale(0.1 -0.1)">
       <defs>
        <path id="DejaVuSans-35" d="M 691 4666 
L 3169 4666 
L 3169 4134 
L 1269 4134 
L 1269 2991 
Q 1406 3038 1543 3061 
Q 1681 3084 1819 3084 
Q 2600 3084 3056 2656 
Q 3513 2228 3513 1497 
Q 3513 744 3044 326 
Q 2575 -91 1722 -91 
Q 1428 -91 1123 -41 
Q 819 9 494 109 
L 494 744 
Q 775 591 1075 516 
Q 1375 441 1709 441 
Q 2250 441 2565 725 
Q 2881 1009 2881 1497 
Q 2881 1984 2565 2268 
Q 2250 2553 1709 2553 
Q 1456 2553 1204 2497 
Q 953 2441 691 2322 
L 691 4666 
z
" transform="scale(0.015625)"/>
       </defs>
       <use xlink:href="#DejaVuSans-30"/>
       <use xlink:href="#DejaVuSans-2e" transform="translate(63.623047 0)"/>
       <use xlink:href="#DejaVuSans-35" transform="translate(95.410156 0)"/>
      </g>
     </g>
    </g>
    <g id="ytick_5">
     <g id="line2d_10">
      <g>
       <use xlink:href="#m141ef5ed88" x="72" y="138.181423" style="stroke: #000000; stroke-width: 0.8"/>
      </g>
     </g>
     <g id="text_11">
      <!-- 0.6 -->
      <g transform="translate(49.096875 141.980642) scale(0.1 -0.1)">
       <use xlink:href="#DejaVuSans-30"/>
       <use xlink:href="#DejaVuSans-2e" transform="translate(63.623047 0)"/>
       <use xlink:href="#DejaVuSans-36" transform="translate(95.410156 0)"/>
      </g>
     </g>
    </g>
    <g id="ytick_6">
     <g id="line2d_11">
      <g>
       <use xlink:href="#m141ef5ed88" x="72" y="96.679447" style="stroke: #000000; stroke-width: 0.8"/>
      </g>
     </g>
     <g id="text_12">
      <!-- 0.7 -->
      <g transform="translate(49.096875 100.478665) scale(0.1 -0.1)">
       <defs>
        <path id="DejaVuSans-37" d="M 525 4666 
L 3525 4666 
L 3525 4397 
L 1831 0 
L 1172 0 
L 2766 4134 
L 525 4134 
L 525 4666 
z
" transform="scale(0.015625)"/>
       </defs>
       <use xlink:href="#DejaVuSans-30"/>
       <use xlink:href="#DejaVuSans-2e" transform="translate(63.623047 0)"/>
       <use xlink:href="#DejaVuSans-37" transform="translate(95.410156 0)"/>
      </g>
     </g>
    </g>
    <g id="ytick_7">
     <g id="line2d_12">
      <g>
       <use xlink:href="#m141ef5ed88" x="72" y="55.17747" style="stroke: #000000; stroke-width: 0.8"/>
      </g>
     </g>
     <g id="text_13">
      <!-- 0.8 -->
      <g transform="translate(49.096875 58.976689) scale(0.1 -0.1)">
       <use xlink:href="#DejaVuSans-30"/>
       <use xlink:href="#DejaVuSans-2e" transform="translate(63.623047 0)"/>
       <use xlink:href="#DejaVuSans-38" transform="translate(95.410156 0)"/>
      </g>
     </g>
    </g>
    <g id="text_14">
     <!-- Loss -->
     <g transform="translate(43.017187 192.767187) rotate(-90) scale(0.1 -0.1)">
      <defs>
       <path id="DejaVuSans-4c" d="M 628 4666 
L 1259 4666 
L 1259 531 
L 3531 531 
L 3531 0 
L 628 0 
L 628 4666 
z
" transform="scale(0.015625)"/>
       <path id="DejaVuSans-6f" d="M 1959 3097 
Q 1497 3097 1228 2736 
Q 959 2375 959 1747 
Q 959 1119 1226 758 
Q 1494 397 1959 397 
Q 2419 397 2687 759 
Q 2956 1122 2956 1747 
Q 2956 2369 2687 2733 
Q 2419 3097 1959 3097 
z
M 1959 3584 
Q 2709 3584 3137 3096 
Q 3566 2609 3566 1747 
Q 3566 888 3137 398 
Q 2709 -91 1959 -91 
Q 1206 -91 779 398 
Q 353 888 353 1747 
Q 353 2609 779 3096 
Q 1206 3584 1959 3584 
z
" transform="scale(0.015625)"/>
      </defs>
      <use xlink:href="#DejaVuSans-4c"/>
      <use xlink:href="#DejaVuSans-6f" transform="translate(53.962891 0)"/>
      <use xlink:href="#DejaVuSans-73" transform="translate(115.144531 0)"/>
      <use xlink:href="#DejaVuSans-73" transform="translate(167.244141 0)"/>
     </g>
    </g>
   </g>
   <g id="line2d_13">
    <path d="M 72 102.448221 
L 76.509091 114.400791 
L 81.018182 125.772332 
L 85.527273 143.203162 
L 90.036364 146.979842 
L 94.545455 145.568775 
L 99.054545 162.667589 
L 103.563636 132.537154 
L 108.072727 149.137945 
L 112.581818 154.159684 
L 117.090909 163.331621 
L 121.6 135.276285 
L 126.109091 159.305929 
L 130.618182 164.286166 
L 135.127273 154.367194 
L 139.636364 176.446245 
L 144.145455 174.66166 
L 148.654545 154.948221 
L 153.163636 163.082609 
L 157.672727 170.345455 
L 162.181818 165.074704 
L 166.690909 171.798024 
L 171.2 148.930435 
L 175.709091 174.703162 
L 180.218182 171.839526 
L 184.727273 169.141897 
L 189.236364 167.357312 
L 193.745455 182.42253 
L 198.254545 160.426482 
L 202.763636 181.8 
L 207.272727 169.681423 
L 211.781818 180.513439 
L 216.290909 182.256522 
L 220.8 194.043083 
L 225.309091 178.064822 
L 229.818182 195.703162 
L 234.327273 185.659684 
L 238.836364 193.337549 
L 243.345455 188.481818 
L 247.854545 190.432411 
L 252.363636 182.796047 
L 256.872727 183.086561 
L 261.381818 186.448221 
L 265.890909 190.224901 
L 270.4 183.501581 
L 274.909091 195.495652 
L 279.418182 176.819763 
L 283.927273 183.460079 
L 288.436364 187.610277 
L 292.945455 194.997628 
L 297.454545 184.871146 
L 301.963636 189.14585 
L 306.472727 175.699209 
L 310.981818 184.53913 
L 315.490909 188.896838 
L 320 178.23083 
L 324.509091 169.805929 
L 329.018182 192.549012 
L 333.527273 197.238735 
L 338.036364 180.347431 
L 342.545455 182.505534 
L 347.054545 190.141897 
L 351.563636 184.290119 
L 356.072727 185.493676 
L 360.581818 202.38498 
L 365.090909 197.446245 
L 369.6 192.92253 
L 374.109091 198.649802 
L 378.618182 198.981818 
L 383.127273 210.934387 
L 387.636364 197.280237 
L 392.145455 199.313834 
L 396.654545 192.632016 
L 401.163636 190.971937 
L 405.672727 215.914625 
L 410.181818 213.09249 
L 414.690909 213.756522 
L 419.2 200.226877 
L 423.709091 203.21502 
L 428.218182 194.375099 
L 432.727273 209.1083 
L 437.236364 209.025296 
L 441.745455 200.807905 
L 446.254545 201.720949 
L 450.763636 194.084585 
L 455.272727 203.00751 
L 459.781818 199.479842 
L 464.290909 194.250593 
L 468.8 200.268379 
L 473.309091 202.924506 
L 477.818182 207.323715 
L 482.327273 216.744664 
L 486.836364 201.554941 
L 491.345455 204.916601 
L 495.854545 207.240711 
L 500.363636 198.774308 
L 504.872727 213.71502 
L 509.381818 232.017391 
L 513.890909 226.331621 
L 518.4 204.750593 
" clip-path="url(#pccd2a79b04)" style="fill: none; stroke: #1f77b4; stroke-width: 1.5; stroke-linecap: square"/>
   </g>
   <g id="line2d_14">
    <path d="M 72 55.8 
L 76.509091 98.713043 
L 81.018182 103.029249 
L 85.527273 145.485771 
L 90.036364 142.373123 
L 94.545455 141.792095 
L 99.054545 182.547036 
L 103.563636 139.260474 
L 108.072727 143.9917 
L 112.581818 147.436364 
L 117.090909 158.973913 
L 121.6 139.59249 
L 126.109091 162.335573 
L 130.618182 153.703162 
L 135.127273 142.124111 
L 139.636364 168.892885 
L 144.145455 164.535178 
L 148.654545 162.750593 
L 153.163636 148.390909 
L 157.672727 167.274308 
L 162.181818 159.471937 
L 166.690909 176.570751 
L 171.2 135.483794 
L 175.709091 168.270356 
L 180.218182 171.050988 
L 184.727273 163.497628 
L 189.236364 158.890909 
L 193.745455 186.697233 
L 198.254545 168.768379 
L 202.763636 174.952174 
L 207.272727 152.624111 
L 211.781818 171.466008 
L 216.290909 186.406719 
L 220.8 183.584585 
L 225.309091 184.290119 
L 229.818182 178.64585 
L 234.327273 175.782213 
L 238.836364 197.612253 
L 243.345455 186.157708 
L 247.854545 169.930435 
L 252.363636 153.329644 
L 256.872727 168.851383 
L 261.381818 175.450198 
L 265.890909 183.875099 
L 270.4 172.213043 
L 274.909091 176.736759 
L 279.418182 172.088538 
L 283.927273 184.165613 
L 288.436364 193.669565 
L 292.945455 186.240711 
L 297.454545 176.321739 
L 301.963636 188.191304 
L 306.472727 182.837549 
L 310.981818 182.173518 
L 315.490909 184.041107 
L 320 168.643874 
L 324.509091 171.175494 
L 329.018182 173.499605 
L 333.527273 182.547036 
L 338.036364 187.112253 
L 342.545455 180.430435 
L 347.054545 183.875099 
L 351.563636 167.31581 
L 356.072727 187.153755 
L 360.581818 193.088538 
L 365.090909 191.345455 
L 369.6 195.412648 
L 374.109091 199.23083 
L 378.618182 203.837549 
L 383.127273 203.63004 
L 387.636364 195.163636 
L 392.145455 181.509486 
L 396.654545 184.74664 
L 401.163636 186.157708 
L 405.672727 193.171542 
L 410.181818 198.317787 
L 414.690909 191.386957 
L 419.2 208.900791 
L 423.709091 201.554941 
L 428.218182 191.262451 
L 432.727273 203.256522 
L 437.236364 199.43834 
L 441.745455 195.66166 
L 446.254545 192.839526 
L 450.763636 193.545059 
L 455.272727 197.404743 
L 459.781818 189.394862 
L 464.290909 189.311858 
L 468.8 212.843478 
L 473.309091 201.264427 
L 477.818182 208.734783 
L 482.327273 213.009486 
L 486.836364 209.357312 
L 491.345455 199.396838 
L 495.854545 206.701186 
L 500.363636 199.521344 
L 504.872727 208.776285 
L 509.381818 216.578656 
L 513.890909 217.450198 
L 518.4 196.906719 
" clip-path="url(#pccd2a79b04)" style="fill: none; stroke: #ff7f0e; stroke-width: 1.5; stroke-linecap: square"/>
   </g>
   <g id="line2d_15">
    <path d="M 72 163.207115 
L 76.509091 197.363241 
L 81.018182 195.952174 
L 85.527273 208.610277 
L 90.036364 227.950198 
L 94.545455 192.71502 
L 99.054545 221.392885 
L 103.563636 212.013439 
L 108.072727 231.934387 
L 112.581818 228.365217 
L 117.090909 210.187352 
L 121.6 221.558893 
L 126.109091 236.167589 
L 130.618182 224.298024 
L 135.127273 214.918577 
L 139.636364 242.724901 
L 144.145455 216.163636 
L 148.654545 226.622134 
L 153.163636 216.495652 
L 157.672727 222.056917 
L 162.181818 206.659684 
L 166.690909 233.46996 
L 171.2 171.175494 
L 175.709091 231.14585 
L 180.218182 228.946245 
L 184.727273 228.157708 
L 189.236364 213.964032 
L 193.745455 236.416601 
L 198.254545 209.772332 
L 202.763636 221.683399 
L 207.272727 209.1083 
L 211.781818 236.748617 
L 216.290909 234.839526 
L 220.8 245.63004 
L 225.309091 219.898814 
L 229.818182 235.711067 
L 234.327273 222.430435 
L 238.836364 238.28419 
L 243.345455 236.624111 
L 247.854545 236.624111 
L 252.363636 226.041107 
L 256.872727 228.323715 
L 261.381818 235.13004 
L 265.890909 229.776285 
L 270.4 237.24664 
L 274.909091 247.331621 
L 279.418182 226.414625 
L 283.927273 250.900791 
L 288.436364 255.258498 
L 292.945455 243.222925 
L 297.454545 246.211067 
L 301.963636 244.924506 
L 306.472727 239.653755 
L 310.981818 249.946245 
L 315.490909 229.402767 
L 320 230.191304 
L 324.509091 255.383004 
L 329.018182 239.238735 
L 333.527273 260.778261 
L 338.036364 243.015415 
L 342.545455 242.475889 
L 347.054545 260.031225 
L 351.563636 236.209091 
L 356.072727 251.896838 
L 360.581818 275.096443 
L 365.090909 250.444269 
L 369.6 255.839526 
L 374.109091 277.794071 
L 378.618182 260.736759 
L 383.127273 267.999605 
L 387.636364 275.635968 
L 392.145455 250.651779 
L 396.654545 251.066798 
L 401.163636 274.639921 
L 405.672727 262.894862 
L 410.181818 243.96996 
L 414.690909 245.671542 
L 419.2 287.256522 
L 423.709091 253.556917 
L 428.218182 256.420553 
L 432.727273 250.900791 
L 437.236364 266.754545 
L 441.745455 242.558893 
L 446.254545 255.673518 
L 450.763636 268.207115 
L 455.272727 285.96996 
L 459.781818 257.084585 
L 464.290909 260.653755 
L 468.8 273.934387 
L 473.309091 251.606324 
L 477.818182 264.762451 
L 482.327273 268.497628 
L 486.836364 269.203162 
L 491.345455 272.31581 
L 495.854545 253.307905 
L 500.363636 276.673518 
L 504.872727 276.756522 
L 509.381818 297.09249 
L 513.890909 264.056917 
L 518.4 277.877075 
" clip-path="url(#pccd2a79b04)" style="fill: none; stroke: #2ca02c; stroke-width: 1.5; stroke-linecap: square"/>
   </g>
   <g id="line2d_16">
    <path d="M 72 109.711067 
L 76.509091 176.321739 
L 81.018182 149.428458 
L 85.527273 175.4917 
L 90.036364 200.185375 
L 94.545455 172.586561 
L 99.054545 226.622134 
L 103.563636 196.740711 
L 108.072727 208.693281 
L 112.581818 210.14585 
L 117.090909 200.143874 
L 121.6 202.052964 
L 126.109091 213.756522 
L 130.618182 199.396838 
L 135.127273 206.701186 
L 139.636364 210.228854 
L 144.145455 198.857312 
L 148.654545 216.495652 
L 153.163636 210.436364 
L 157.672727 196.865217 
L 162.181818 187.693281 
L 166.690909 207.448221 
L 171.2 199.728854 
L 175.709091 215.790119 
L 180.218182 199.064822 
L 184.727273 207.738735 
L 189.236364 211.100395 
L 193.745455 231.726877 
L 198.254545 222.96996 
L 202.763636 197.778261 
L 207.272727 204.128063 
L 211.781818 230.52332 
L 216.290909 208.236759 
L 220.8 222.471937 
L 225.309091 221.724901 
L 229.818182 199.770356 
L 234.327273 224.837549 
L 238.836364 220.313834 
L 243.345455 229.236759 
L 247.854545 197.446245 
L 252.363636 222.430435 
L 256.872727 221.434387 
L 261.381818 227.037154 
L 265.890909 218.114229 
L 270.4 197.985771 
L 274.909091 217.948221 
L 279.418182 233.096443 
L 283.927273 226.124111 
L 288.436364 240.525296 
L 292.945455 226.456126 
L 297.454545 230.274308 
L 301.963636 195.620158 
L 306.472727 222.679447 
L 310.981818 224.505534 
L 315.490909 226.622134 
L 320 215.707115 
L 324.509091 243.222925 
L 329.018182 219.566798 
L 333.527273 229.070751 
L 338.036364 209.855336 
L 342.545455 235.586561 
L 347.054545 225.128063 
L 351.563636 217.906719 
L 356.072727 223.467984 
L 360.581818 251.93834 
L 365.090909 213.009486 
L 369.6 232.639921 
L 374.109091 239.819763 
L 378.618182 232.058893 
L 383.127273 260.072727 
L 387.636364 243.886957 
L 392.145455 234.09249 
L 396.654545 218.280237 
L 401.163636 246.999605 
L 405.672727 241.977866 
L 410.181818 244.301976 
L 414.690909 233.220949 
L 419.2 234.133992 
L 423.709091 238.408696 
L 428.218182 249.987747 
L 432.727273 231.311858 
L 437.236364 243.430435 
L 441.745455 230.398814 
L 446.254545 246.294071 
L 450.763636 249.780237 
L 455.272727 240.276285 
L 459.781818 242.019368 
L 464.290909 245.63004 
L 468.8 270.406719 
L 473.309091 235.835573 
L 477.818182 254.303953 
L 482.327273 246.169565 
L 486.836364 256.711067 
L 491.345455 263.600395 
L 495.854545 242.641897 
L 500.363636 265.966008 
L 504.872727 246.335573 
L 509.381818 268.788142 
L 513.890909 250.361265 
L 518.4 256.296047 
" clip-path="url(#pccd2a79b04)" style="fill: none; stroke: #d62728; stroke-width: 1.5; stroke-linecap: square"/>
   </g>
   <g id="line2d_17">
    <path d="M 72 153.03913 
L 76.509091 203.00751 
L 81.018182 199.85336 
L 85.527273 205.788142 
L 90.036364 227.078656 
L 94.545455 200.890909 
L 99.054545 238.201186 
L 103.563636 218.446245 
L 108.072727 239.114229 
L 112.581818 232.307905 
L 117.090909 228.821739 
L 121.6 232.266403 
L 126.109091 244.550988 
L 130.618182 220.479842 
L 135.127273 229.859289 
L 139.636364 245.879051 
L 144.145455 234.216996 
L 148.654545 235.337549 
L 153.163636 213.175494 
L 157.672727 225.128063 
L 162.181818 227.037154 
L 166.690909 239.985771 
L 171.2 218.321739 
L 175.709091 235.337549 
L 180.218182 215.375099 
L 184.727273 227.203162 
L 189.236364 233.594466 
L 193.745455 254.46996 
L 198.254545 224.547036 
L 202.763636 238.782213 
L 207.272727 217.4917 
L 211.781818 255.673518 
L 216.290909 248.16166 
L 220.8 254.967984 
L 225.309091 242.268379 
L 229.818182 236.126087 
L 234.327273 239.238735 
L 238.836364 245.00751 
L 243.345455 232.888933 
L 247.854545 245.879051 
L 252.363636 238.159684 
L 256.872727 238.989723 
L 261.381818 254.967984 
L 265.890909 245.671542 
L 270.4 260.197233 
L 274.909091 257.790119 
L 279.418182 233.760474 
L 283.927273 246.252569 
L 288.436364 260.072727 
L 292.945455 253.473913 
L 297.454545 257.209091 
L 301.963636 258.744664 
L 306.472727 252.187352 
L 310.981818 264.222925 
L 315.490909 235.752569 
L 320 254.967984 
L 324.509091 275.303953 
L 329.018182 236.292095 
L 333.527273 258.537154 
L 338.036364 254.262451 
L 342.545455 257.416601 
L 347.054545 260.778261 
L 351.563636 253.432411 
L 356.072727 264.928458 
L 360.581818 279.205138 
L 365.090909 265.966008 
L 369.6 267.999605 
L 374.109091 281.446245 
L 378.618182 289.663636 
L 383.127273 289.871146 
L 387.636364 270.074704 
L 392.145455 276.590514 
L 396.654545 268.53913 
L 401.163636 274.307905 
L 405.672727 277.960079 
L 410.181818 266.00751 
L 414.690909 260.944269 
L 419.2 306.803953 
L 423.709091 271.942292 
L 428.218182 267.045059 
L 432.727273 279.288142 
L 437.236364 283.189328 
L 441.745455 272.31581 
L 446.254545 260.570751 
L 450.763636 288.211067 
L 455.272727 307.8 
L 459.781818 270.365217 
L 464.290909 280.07668 
L 468.8 286.550988 
L 473.309091 280.159684 
L 477.818182 288.958103 
L 482.327273 289.082609 
L 486.836364 277.047036 
L 491.345455 281.114229 
L 495.854545 277.337549 
L 500.363636 287.588538 
L 504.872727 291.323715 
L 509.381818 305.932411 
L 513.890909 285.886957 
L 518.4 305.268379 
" clip-path="url(#pccd2a79b04)" style="fill: none; stroke: #9467bd; stroke-width: 1.5; stroke-linecap: square"/>
   </g>
   <g id="line2d_18">
    <path d="M 72 172.711067 
L 76.509091 197.114229 
L 81.018182 191.88498 
L 85.527273 199.604348 
L 90.036364 227.9917 
L 94.545455 203.173518 
L 99.054545 227.120158 
L 103.563636 198.525296 
L 108.072727 222.222925 
L 112.581818 223.301976 
L 117.090909 210.726877 
L 121.6 213.466008 
L 126.109091 242.268379 
L 130.618182 213.424506 
L 135.127273 221.268379 
L 139.636364 239.695257 
L 144.145455 221.351383 
L 148.654545 226.207115 
L 153.163636 213.133992 
L 157.672727 225.377075 
L 162.181818 217.450198 
L 166.690909 246.377075 
L 171.2 209.855336 
L 175.709091 248.493676 
L 180.218182 231.104348 
L 184.727273 235.545059 
L 189.236364 239.114229 
L 193.745455 250.319763 
L 198.254545 234.09249 
L 202.763636 239.861265 
L 207.272727 222.305929 
L 211.781818 251.357312 
L 216.290909 253.390909 
L 220.8 256.171542 
L 225.309091 248.120158 
L 229.818182 242.351383 
L 234.327273 252.934387 
L 238.836364 251.025296 
L 243.345455 261.81581 
L 247.854545 243.181423 
L 252.363636 251.772332 
L 256.872727 266.381028 
L 261.381818 247.622134 
L 265.890909 248.203162 
L 270.4 250.361265 
L 274.909091 254.926482 
L 279.418182 247.373123 
L 283.927273 255.258498 
L 288.436364 267.169565 
L 292.945455 258.827668 
L 297.454545 253.888933 
L 301.963636 250.734783 
L 306.472727 252.643874 
L 310.981818 267.003557 
L 315.490909 252.021344 
L 320 244.841502 
L 324.509091 267.501581 
L 329.018182 255.881028 
L 333.527273 261.483794 
L 338.036364 243.928458 
L 342.545455 269.203162 
L 347.054545 277.171542 
L 351.563636 239.155731 
L 356.072727 258.744664 
L 360.581818 278.333597 
L 365.090909 262.189328 
L 369.6 262.521344 
L 374.109091 283.562846 
L 378.618182 277.752569 
L 383.127273 289.74664 
L 387.636364 269.16166 
L 392.145455 268.74664 
L 396.654545 249.406719 
L 401.163636 277.13004 
L 405.672727 268.829644 
L 410.181818 269.452174 
L 414.690909 262.106324 
L 419.2 286.8 
L 423.709091 266.381028 
L 428.218182 266.298024 
L 432.727273 262.189328 
L 437.236364 281.155731 
L 441.745455 259.035178 
L 446.254545 263.309881 
L 450.763636 271.817787 
L 455.272727 286.38498 
L 459.781818 262.106324 
L 464.290909 277.877075 
L 468.8 288.335573 
L 473.309091 258.703162 
L 477.818182 268.414625 
L 482.327273 277.088538 
L 486.836364 262.811858 
L 491.345455 284.849407 
L 495.854545 271.112253 
L 500.363636 296.220949 
L 504.872727 287.796047 
L 509.381818 303.483794 
L 513.890909 272.52332 
L 518.4 298.960079 
" clip-path="url(#pccd2a79b04)" style="fill: none; stroke: #8c564b; stroke-width: 1.5; stroke-linecap: square"/>
   </g>
   <g id="line2d_19">
    <path d="M 72 140.256522 
L 76.509091 171.216996 
L 81.018182 179.724901 
L 85.527273 192.839526 
L 90.036364 208.485771 
L 94.545455 187.278261 
L 99.054545 210.104348 
L 103.563636 186.033202 
L 108.072727 194.790119 
L 112.581818 199.147826 
L 117.090909 204.916601 
L 121.6 190.432411 
L 126.109091 225.418577 
L 130.618182 201.803953 
L 135.127273 201.928458 
L 139.636364 209.647826 
L 144.145455 207.448221 
L 148.654545 204.750593 
L 153.163636 196.450198 
L 157.672727 193.586561 
L 162.181818 194.541107 
L 166.690909 191.054941 
L 171.2 193.171542 
L 175.709091 214.628063 
L 180.218182 198.6083 
L 184.727273 210.851383 
L 189.236364 209.398814 
L 193.745455 234.383004 
L 198.254545 200.517391 
L 202.763636 216.620158 
L 207.272727 207.614229 
L 211.781818 238.782213 
L 216.290909 220.728854 
L 220.8 224.879051 
L 225.309091 231.477866 
L 229.818182 195.578656 
L 234.327273 206.452174 
L 238.836364 204.252569 
L 243.345455 222.96996 
L 247.854545 218.446245 
L 252.363636 211.266403 
L 256.872727 229.029249 
L 261.381818 215.624111 
L 265.890909 216.827668 
L 270.4 203.754545 
L 274.909091 225.169565 
L 279.418182 217.367194 
L 283.927273 227.618182 
L 288.436364 250.278261 
L 292.945455 225.252569 
L 297.454545 231.270356 
L 301.963636 228.614229 
L 306.472727 219.068775 
L 310.981818 228.780237 
L 315.490909 230.481818 
L 320 204.003557 
L 324.509091 226.041107 
L 329.018182 215.001581 
L 333.527273 228.821739 
L 338.036364 203.879051 
L 342.545455 232.764427 
L 347.054545 246.626087 
L 351.563636 226.207115 
L 356.072727 219.691304 
L 360.581818 253.722925 
L 365.090909 239.736759 
L 369.6 246.916601 
L 374.109091 247.788142 
L 378.618182 236.416601 
L 383.127273 250.859289 
L 387.636364 236.707115 
L 392.145455 243.554941 
L 396.654545 238.325692 
L 401.163636 256.171542 
L 405.672727 253.058893 
L 410.181818 252.436364 
L 414.690909 241.687352 
L 419.2 254.926482 
L 423.709091 239.363241 
L 428.218182 248.120158 
L 432.727273 250.859289 
L 437.236364 254.262451 
L 441.745455 243.471937 
L 446.254545 251.440316 
L 450.763636 253.556917 
L 455.272727 249.863241 
L 459.781818 232.307905 
L 464.290909 252.519368 
L 468.8 256.337549 
L 473.309091 253.432411 
L 477.818182 246.294071 
L 482.327273 256.960079 
L 486.836364 242.475889 
L 491.345455 258.122134 
L 495.854545 249.157708 
L 500.363636 260.487747 
L 504.872727 264.347431 
L 509.381818 280.906719 
L 513.890909 259.28419 
L 518.4 272.357312 
" clip-path="url(#pccd2a79b04)" style="fill: none; stroke: #e377c2; stroke-width: 1.5; stroke-linecap: square"/>
   </g>
   <g id="line2d_20">
    <path d="M 72 170.262451 
L 76.509091 200.766403 
L 81.018182 191.843478 
L 85.527273 203.090514 
L 90.036364 224.547036 
L 94.545455 211.432411 
L 99.054545 233.137945 
L 103.563636 222.056917 
L 108.072727 214.047036 
L 112.581818 205.53913 
L 117.090909 221.932411 
L 121.6 225.335573 
L 126.109091 244.758498 
L 130.618182 218.695257 
L 135.127273 219.068775 
L 139.636364 230.440316 
L 144.145455 234.133992 
L 148.654545 227.36917 
L 153.163636 219.442292 
L 157.672727 206.078656 
L 162.181818 202.135968 
L 166.690909 239.197233 
L 171.2 213.756522 
L 175.709091 219.940316 
L 180.218182 208.070751 
L 184.727273 220.02332 
L 189.236364 216.371146 
L 193.745455 252.35336 
L 198.254545 223.59249 
L 202.763636 246.750593 
L 207.272727 223.38498 
L 211.781818 229.942292 
L 216.290909 214.005534 
L 220.8 231.934387 
L 225.309091 206.701186 
L 229.818182 238.367194 
L 234.327273 224.21502 
L 238.836364 249.323715 
L 243.345455 238.616206 
L 247.854545 246.875099 
L 252.363636 225.543083 
L 256.872727 242.309881 
L 261.381818 229.817787 
L 265.890909 240.6083 
L 270.4 246.003557 
L 274.909091 247.165613 
L 279.418182 241.64585 
L 283.927273 239.653755 
L 288.436364 254.594466 
L 292.945455 245.713043 
L 297.454545 255.466008 
L 301.963636 240.151779 
L 306.472727 244.094466 
L 310.981818 254.386957 
L 315.490909 245.879051 
L 320 248.327668 
L 324.509091 261.898814 
L 329.018182 257.126087 
L 333.527273 264.056917 
L 338.036364 243.596443 
L 342.545455 241.64585 
L 347.054545 261.483794 
L 351.563636 251.647826 
L 356.072727 271.693281 
L 360.581818 269.410672 
L 365.090909 252.477866 
L 369.6 255.673518 
L 374.109091 272.274308 
L 378.618182 263.392885 
L 383.127273 268.95415 
L 387.636364 271.983794 
L 392.145455 265.550988 
L 396.654545 259.533202 
L 401.163636 269.120158 
L 405.672727 258.786166 
L 410.181818 260.155731 
L 414.690909 258.952174 
L 419.2 292.900791 
L 423.709091 267.792095 
L 428.218182 273.062846 
L 432.727273 244.758498 
L 437.236364 285.803953 
L 441.745455 274.349407 
L 446.254545 257.333597 
L 450.763636 276.590514 
L 455.272727 278.707115 
L 459.781818 276.424506 
L 464.290909 259.159684 
L 468.8 277.586561 
L 473.309091 249.531225 
L 477.818182 284.517391 
L 482.327273 287.00751 
L 486.836364 270.406719 
L 491.345455 277.503557 
L 495.854545 265.426482 
L 500.363636 282.898814 
L 504.872727 268.414625 
L 509.381818 297.632016 
L 513.890909 284.932411 
L 518.4 291.448221 
" clip-path="url(#pccd2a79b04)" style="fill: none; stroke: #7f7f7f; stroke-width: 1.5; stroke-linecap: square"/>
   </g>
   <g id="patch_3">
    <path d="M 72 320.4 
L 72 43.2 
" style="fill: none; stroke: #000000; stroke-width: 0.8; stroke-linejoin: miter; stroke-linecap: square"/>
   </g>
   <g id="patch_4">
    <path d="M 518.4 320.4 
L 518.4 43.2 
" style="fill: none; stroke: #000000; stroke-width: 0.8; stroke-linejoin: miter; stroke-linecap: square"/>
   </g>
   <g id="patch_5">
    <path d="M 72 320.4 
L 518.4 320.4 
" style="fill: none; stroke: #000000; stroke-width: 0.8; stroke-linejoin: miter; stroke-linecap: square"/>
   </g>
   <g id="patch_6">
    <path d="M 72 43.2 
L 518.4 43.2 
" style="fill: none; stroke: #000000; stroke-width: 0.8; stroke-linejoin: miter; stroke-linecap: square"/>
   </g>
   <g id="text_15">
    <!-- Promoter Human (no TATA) -->
    <g transform="translate(214.000313 37.2) scale(0.12 -0.12)">
     <defs>
      <path id="DejaVuSans-50" d="M 1259 4147 
L 1259 2394 
L 2053 2394 
Q 2494 2394 2734 2622 
Q 2975 2850 2975 3272 
Q 2975 3691 2734 3919 
Q 2494 4147 2053 4147 
L 1259 4147 
z
M 628 4666 
L 2053 4666 
Q 2838 4666 3239 4311 
Q 3641 3956 3641 3272 
Q 3641 2581 3239 2228 
Q 2838 1875 2053 1875 
L 1259 1875 
L 1259 0 
L 628 0 
L 628 4666 
z
" transform="scale(0.015625)"/>
      <path id="DejaVuSans-6d" d="M 3328 2828 
Q 3544 3216 3844 3400 
Q 4144 3584 4550 3584 
Q 5097 3584 5394 3201 
Q 5691 2819 5691 2113 
L 5691 0 
L 5113 0 
L 5113 2094 
Q 5113 2597 4934 2840 
Q 4756 3084 4391 3084 
Q 3944 3084 3684 2787 
Q 3425 2491 3425 1978 
L 3425 0 
L 2847 0 
L 2847 2094 
Q 2847 2600 2669 2842 
Q 2491 3084 2119 3084 
Q 1678 3084 1418 2786 
Q 1159 2488 1159 1978 
L 1159 0 
L 581 0 
L 581 3500 
L 1159 3500 
L 1159 2956 
Q 1356 3278 1631 3431 
Q 1906 3584 2284 3584 
Q 2666 3584 2933 3390 
Q 3200 3197 3328 2828 
z
" transform="scale(0.015625)"/>
      <path id="DejaVuSans-48" d="M 628 4666 
L 1259 4666 
L 1259 2753 
L 3553 2753 
L 3553 4666 
L 4184 4666 
L 4184 0 
L 3553 0 
L 3553 2222 
L 1259 2222 
L 1259 0 
L 628 0 
L 628 4666 
z
" transform="scale(0.015625)"/>
      <path id="DejaVuSans-75" d="M 544 1381 
L 544 3500 
L 1119 3500 
L 1119 1403 
Q 1119 906 1312 657 
Q 1506 409 1894 409 
Q 2359 409 2629 706 
Q 2900 1003 2900 1516 
L 2900 3500 
L 3475 3500 
L 3475 0 
L 2900 0 
L 2900 538 
Q 2691 219 2414 64 
Q 2138 -91 1772 -91 
Q 1169 -91 856 284 
Q 544 659 544 1381 
z
M 1991 3584 
L 1991 3584 
z
" transform="scale(0.015625)"/>
      <path id="DejaVuSans-28" d="M 1984 4856 
Q 1566 4138 1362 3434 
Q 1159 2731 1159 2009 
Q 1159 1288 1364 580 
Q 1569 -128 1984 -844 
L 1484 -844 
Q 1016 -109 783 600 
Q 550 1309 550 2009 
Q 550 2706 781 3412 
Q 1013 4119 1484 4856 
L 1984 4856 
z
" transform="scale(0.015625)"/>
      <path id="DejaVuSans-41" d="M 2188 4044 
L 1331 1722 
L 3047 1722 
L 2188 4044 
z
M 1831 4666 
L 2547 4666 
L 4325 0 
L 3669 0 
L 3244 1197 
L 1141 1197 
L 716 0 
L 50 0 
L 1831 4666 
z
" transform="scale(0.015625)"/>
      <path id="DejaVuSans-29" d="M 513 4856 
L 1013 4856 
Q 1481 4119 1714 3412 
Q 1947 2706 1947 2009 
Q 1947 1309 1714 600 
Q 1481 -109 1013 -844 
L 513 -844 
Q 928 -128 1133 580 
Q 1338 1288 1338 2009 
Q 1338 2731 1133 3434 
Q 928 4138 513 4856 
z
" transform="scale(0.015625)"/>
     </defs>
     <use xlink:href="#DejaVuSans-50"/>
     <use xlink:href="#DejaVuSans-72" transform="translate(58.552734 0)"/>
     <use xlink:href="#DejaVuSans-6f" transform="translate(97.416016 0)"/>
     <use xlink:href="#DejaVuSans-6d" transform="translate(158.597656 0)"/>
     <use xlink:href="#DejaVuSans-6f" transform="translate(256.009766 0)"/>
     <use xlink:href="#DejaVuSans-74" transform="translate(317.191406 0)"/>
     <use xlink:href="#DejaVuSans-65" transform="translate(356.400391 0)"/>
     <use xlink:href="#DejaVuSans-72" transform="translate(417.923828 0)"/>
     <use xlink:href="#DejaVuSans-20" transform="translate(459.037109 0)"/>
     <use xlink:href="#DejaVuSans-48" transform="translate(490.824219 0)"/>
     <use xlink:href="#DejaVuSans-75" transform="translate(566.019531 0)"/>
     <use xlink:href="#DejaVuSans-6d" transform="translate(629.398438 0)"/>
     <use xlink:href="#DejaVuSans-61" transform="translate(726.810547 0)"/>
     <use xlink:href="#DejaVuSans-6e" transform="translate(788.089844 0)"/>
     <use xlink:href="#DejaVuSans-20" transform="translate(851.46875 0)"/>
     <use xlink:href="#DejaVuSans-28" transform="translate(883.255859 0)"/>
     <use xlink:href="#DejaVuSans-6e" transform="translate(922.269531 0)"/>
     <use xlink:href="#DejaVuSans-6f" transform="translate(985.648438 0)"/>
     <use xlink:href="#DejaVuSans-20" transform="translate(1046.830078 0)"/>
     <use xlink:href="#DejaVuSans-54" transform="translate(1078.617188 0)"/>
     <use xlink:href="#DejaVuSans-41" transform="translate(1131.951172 0)"/>
     <use xlink:href="#DejaVuSans-54" transform="translate(1192.609375 0)"/>
     <use xlink:href="#DejaVuSans-41" transform="translate(1245.943359 0)"/>
     <use xlink:href="#DejaVuSans-29" transform="translate(1314.351562 0)"/>
    </g>
   </g>
   <g id="legend_1">
    <g id="patch_7">
     <path d="M 334.210684 147.679025 
L 512.569 147.679025 
Q 514.235 147.679025 514.235 146.013025 
L 514.235 49.031 
Q 514.235 47.365 512.569 47.365 
L 334.210684 47.365 
Q 332.544684 47.365 332.544684 49.031 
L 332.544684 146.013025 
Q 332.544684 147.679025 334.210684 147.679025 
z
" style="fill: #ffffff; opacity: 0.8; stroke: #cccccc; stroke-linejoin: miter"/>
    </g>
    <g id="line2d_21">
     <path d="M 335.876684 54.110998 
L 344.206684 54.110998 
L 352.536684 54.110998 
" style="fill: none; stroke: #1f77b4; stroke-width: 1.5; stroke-linecap: square"/>
    </g>
    <g id="text_16">
     <!-- NT-MS V2 (50M) with rand. weights -->
     <g transform="translate(359.200684 57.026498) scale(0.0833 -0.0833)">
      <defs>
       <path id="DejaVuSans-4e" d="M 628 4666 
L 1478 4666 
L 3547 763 
L 3547 4666 
L 4159 4666 
L 4159 0 
L 3309 0 
L 1241 3903 
L 1241 0 
L 628 0 
L 628 4666 
z
" transform="scale(0.015625)"/>
       <path id="DejaVuSans-2d" d="M 313 2009 
L 1997 2009 
L 1997 1497 
L 313 1497 
L 313 2009 
z
" transform="scale(0.015625)"/>
       <path id="DejaVuSans-4d" d="M 628 4666 
L 1569 4666 
L 2759 1491 
L 3956 4666 
L 4897 4666 
L 4897 0 
L 4281 0 
L 4281 4097 
L 3078 897 
L 2444 897 
L 1241 4097 
L 1241 0 
L 628 0 
L 628 4666 
z
" transform="scale(0.015625)"/>
       <path id="DejaVuSans-53" d="M 3425 4513 
L 3425 3897 
Q 3066 4069 2747 4153 
Q 2428 4238 2131 4238 
Q 1616 4238 1336 4038 
Q 1056 3838 1056 3469 
Q 1056 3159 1242 3001 
Q 1428 2844 1947 2747 
L 2328 2669 
Q 3034 2534 3370 2195 
Q 3706 1856 3706 1288 
Q 3706 609 3251 259 
Q 2797 -91 1919 -91 
Q 1588 -91 1214 -16 
Q 841 59 441 206 
L 441 856 
Q 825 641 1194 531 
Q 1563 422 1919 422 
Q 2459 422 2753 634 
Q 3047 847 3047 1241 
Q 3047 1584 2836 1778 
Q 2625 1972 2144 2069 
L 1759 2144 
Q 1053 2284 737 2584 
Q 422 2884 422 3419 
Q 422 4038 858 4394 
Q 1294 4750 2059 4750 
Q 2388 4750 2728 4690 
Q 3069 4631 3425 4513 
z
" transform="scale(0.015625)"/>
       <path id="DejaVuSans-56" d="M 1831 0 
L 50 4666 
L 709 4666 
L 2188 738 
L 3669 4666 
L 4325 4666 
L 2547 0 
L 1831 0 
z
" transform="scale(0.015625)"/>
       <path id="DejaVuSans-77" d="M 269 3500 
L 844 3500 
L 1563 769 
L 2278 3500 
L 2956 3500 
L 3675 769 
L 4391 3500 
L 4966 3500 
L 4050 0 
L 3372 0 
L 2619 2869 
L 1863 0 
L 1184 0 
L 269 3500 
z
" transform="scale(0.015625)"/>
       <path id="DejaVuSans-68" d="M 3513 2113 
L 3513 0 
L 2938 0 
L 2938 2094 
Q 2938 2591 2744 2837 
Q 2550 3084 2163 3084 
Q 1697 3084 1428 2787 
Q 1159 2491 1159 1978 
L 1159 0 
L 581 0 
L 581 4863 
L 1159 4863 
L 1159 2956 
Q 1366 3272 1645 3428 
Q 1925 3584 2291 3584 
Q 2894 3584 3203 3211 
Q 3513 2838 3513 2113 
z
" transform="scale(0.015625)"/>
       <path id="DejaVuSans-64" d="M 2906 2969 
L 2906 4863 
L 3481 4863 
L 3481 0 
L 2906 0 
L 2906 525 
Q 2725 213 2448 61 
Q 2172 -91 1784 -91 
Q 1150 -91 751 415 
Q 353 922 353 1747 
Q 353 2572 751 3078 
Q 1150 3584 1784 3584 
Q 2172 3584 2448 3432 
Q 2725 3281 2906 2969 
z
M 947 1747 
Q 947 1113 1208 752 
Q 1469 391 1925 391 
Q 2381 391 2643 752 
Q 2906 1113 2906 1747 
Q 2906 2381 2643 2742 
Q 2381 3103 1925 3103 
Q 1469 3103 1208 2742 
Q 947 2381 947 1747 
z
" transform="scale(0.015625)"/>
      </defs>
      <use xlink:href="#DejaVuSans-4e"/>
      <use xlink:href="#DejaVuSans-54" transform="translate(74.804688 0)"/>
      <use xlink:href="#DejaVuSans-2d" transform="translate(126.763672 0)"/>
      <use xlink:href="#DejaVuSans-4d" transform="translate(162.847656 0)"/>
      <use xlink:href="#DejaVuSans-53" transform="translate(249.126953 0)"/>
      <use xlink:href="#DejaVuSans-20" transform="translate(312.603516 0)"/>
      <use xlink:href="#DejaVuSans-56" transform="translate(344.390625 0)"/>
      <use xlink:href="#DejaVuSans-32" transform="translate(412.798828 0)"/>
      <use xlink:href="#DejaVuSans-20" transform="translate(476.421875 0)"/>
      <use xlink:href="#DejaVuSans-28" transform="translate(508.208984 0)"/>
      <use xlink:href="#DejaVuSans-35" transform="translate(547.222656 0)"/>
      <use xlink:href="#DejaVuSans-30" transform="translate(610.845703 0)"/>
      <use xlink:href="#DejaVuSans-4d" transform="translate(674.46875 0)"/>
      <use xlink:href="#DejaVuSans-29" transform="translate(760.748047 0)"/>
      <use xlink:href="#DejaVuSans-20" transform="translate(799.761719 0)"/>
      <use xlink:href="#DejaVuSans-77" transform="translate(831.548828 0)"/>
      <use xlink:href="#DejaVuSans-69" transform="translate(913.335938 0)"/>
      <use xlink:href="#DejaVuSans-74" transform="translate(941.119141 0)"/>
      <use xlink:href="#DejaVuSans-68" transform="translate(980.328125 0)"/>
      <use xlink:href="#DejaVuSans-20" transform="translate(1043.707031 0)"/>
      <use xlink:href="#DejaVuSans-72" transform="translate(1075.494141 0)"/>
      <use xlink:href="#DejaVuSans-61" transform="translate(1116.607422 0)"/>
      <use xlink:href="#DejaVuSans-6e" transform="translate(1177.886719 0)"/>
      <use xlink:href="#DejaVuSans-64" transform="translate(1241.265625 0)"/>
      <use xlink:href="#DejaVuSans-2e" transform="translate(1304.742188 0)"/>
      <use xlink:href="#DejaVuSans-20" transform="translate(1336.529297 0)"/>
      <use xlink:href="#DejaVuSans-77" transform="translate(1368.316406 0)"/>
      <use xlink:href="#DejaVuSans-65" transform="translate(1450.103516 0)"/>
      <use xlink:href="#DejaVuSans-69" transform="translate(1511.626953 0)"/>
      <use xlink:href="#DejaVuSans-67" transform="translate(1539.410156 0)"/>
      <use xlink:href="#DejaVuSans-68" transform="translate(1602.886719 0)"/>
      <use xlink:href="#DejaVuSans-74" transform="translate(1666.265625 0)"/>
      <use xlink:href="#DejaVuSans-73" transform="translate(1705.474609 0)"/>
     </g>
    </g>
    <g id="line2d_22">
     <path d="M 335.876684 66.337877 
L 344.206684 66.337877 
L 352.536684 66.337877 
" style="fill: none; stroke: #ff7f0e; stroke-width: 1.5; stroke-linecap: square"/>
    </g>
    <g id="text_17">
     <!-- NT-MS V2 (500M) with rand. weights -->
     <g transform="translate(359.200684 69.253377) scale(0.0833 -0.0833)">
      <use xlink:href="#DejaVuSans-4e"/>
      <use xlink:href="#DejaVuSans-54" transform="translate(74.804688 0)"/>
      <use xlink:href="#DejaVuSans-2d" transform="translate(126.763672 0)"/>
      <use xlink:href="#DejaVuSans-4d" transform="translate(162.847656 0)"/>
      <use xlink:href="#DejaVuSans-53" transform="translate(249.126953 0)"/>
      <use xlink:href="#DejaVuSans-20" transform="translate(312.603516 0)"/>
      <use xlink:href="#DejaVuSans-56" transform="translate(344.390625 0)"/>
      <use xlink:href="#DejaVuSans-32" transform="translate(412.798828 0)"/>
      <use xlink:href="#DejaVuSans-20" transform="translate(476.421875 0)"/>
      <use xlink:href="#DejaVuSans-28" transform="translate(508.208984 0)"/>
      <use xlink:href="#DejaVuSans-35" transform="translate(547.222656 0)"/>
      <use xlink:href="#DejaVuSans-30" transform="translate(610.845703 0)"/>
      <use xlink:href="#DejaVuSans-30" transform="translate(674.46875 0)"/>
      <use xlink:href="#DejaVuSans-4d" transform="translate(738.091797 0)"/>
      <use xlink:href="#DejaVuSans-29" transform="translate(824.371094 0)"/>
      <use xlink:href="#DejaVuSans-20" transform="translate(863.384766 0)"/>
      <use xlink:href="#DejaVuSans-77" transform="translate(895.171875 0)"/>
      <use xlink:href="#DejaVuSans-69" transform="translate(976.958984 0)"/>
      <use xlink:href="#DejaVuSans-74" transform="translate(1004.742188 0)"/>
      <use xlink:href="#DejaVuSans-68" transform="translate(1043.951172 0)"/>
      <use xlink:href="#DejaVuSans-20" transform="translate(1107.330078 0)"/>
      <use xlink:href="#DejaVuSans-72" transform="translate(1139.117188 0)"/>
      <use xlink:href="#DejaVuSans-61" transform="translate(1180.230469 0)"/>
      <use xlink:href="#DejaVuSans-6e" transform="translate(1241.509766 0)"/>
      <use xlink:href="#DejaVuSans-64" transform="translate(1304.888672 0)"/>
      <use xlink:href="#DejaVuSans-2e" transform="translate(1368.365234 0)"/>
      <use xlink:href="#DejaVuSans-20" transform="translate(1400.152344 0)"/>
      <use xlink:href="#DejaVuSans-77" transform="translate(1431.939453 0)"/>
      <use xlink:href="#DejaVuSans-65" transform="translate(1513.726562 0)"/>
      <use xlink:href="#DejaVuSans-69" transform="translate(1575.25 0)"/>
      <use xlink:href="#DejaVuSans-67" transform="translate(1603.033203 0)"/>
      <use xlink:href="#DejaVuSans-68" transform="translate(1666.509766 0)"/>
      <use xlink:href="#DejaVuSans-74" transform="translate(1729.888672 0)"/>
      <use xlink:href="#DejaVuSans-73" transform="translate(1769.097656 0)"/>
     </g>
    </g>
    <g id="line2d_23">
     <path d="M 335.876684 78.564755 
L 344.206684 78.564755 
L 352.536684 78.564755 
" style="fill: none; stroke: #2ca02c; stroke-width: 1.5; stroke-linecap: square"/>
    </g>
    <g id="text_18">
     <!-- NT-MS V2 (50M) -->
     <g transform="translate(359.200684 81.480255) scale(0.0833 -0.0833)">
      <use xlink:href="#DejaVuSans-4e"/>
      <use xlink:href="#DejaVuSans-54" transform="translate(74.804688 0)"/>
      <use xlink:href="#DejaVuSans-2d" transform="translate(126.763672 0)"/>
      <use xlink:href="#DejaVuSans-4d" transform="translate(162.847656 0)"/>
      <use xlink:href="#DejaVuSans-53" transform="translate(249.126953 0)"/>
      <use xlink:href="#DejaVuSans-20" transform="translate(312.603516 0)"/>
      <use xlink:href="#DejaVuSans-56" transform="translate(344.390625 0)"/>
      <use xlink:href="#DejaVuSans-32" transform="translate(412.798828 0)"/>
      <use xlink:href="#DejaVuSans-20" transform="translate(476.421875 0)"/>
      <use xlink:href="#DejaVuSans-28" transform="translate(508.208984 0)"/>
      <use xlink:href="#DejaVuSans-35" transform="translate(547.222656 0)"/>
      <use xlink:href="#DejaVuSans-30" transform="translate(610.845703 0)"/>
      <use xlink:href="#DejaVuSans-4d" transform="translate(674.46875 0)"/>
      <use xlink:href="#DejaVuSans-29" transform="translate(760.748047 0)"/>
     </g>
    </g>
    <g id="line2d_24">
     <path d="M 335.876684 90.791633 
L 344.206684 90.791633 
L 352.536684 90.791633 
" style="fill: none; stroke: #d62728; stroke-width: 1.5; stroke-linecap: square"/>
    </g>
    <g id="text_19">
     <!-- NT-1000g (500M) -->
     <g transform="translate(359.200684 93.707133) scale(0.0833 -0.0833)">
      <use xlink:href="#DejaVuSans-4e"/>
      <use xlink:href="#DejaVuSans-54" transform="translate(74.804688 0)"/>
      <use xlink:href="#DejaVuSans-2d" transform="translate(126.763672 0)"/>
      <use xlink:href="#DejaVuSans-31" transform="translate(162.847656 0)"/>
      <use xlink:href="#DejaVuSans-30" transform="translate(226.470703 0)"/>
      <use xlink:href="#DejaVuSans-30" transform="translate(290.09375 0)"/>
      <use xlink:href="#DejaVuSans-30" transform="translate(353.716797 0)"/>
      <use xlink:href="#DejaVuSans-67" transform="translate(417.339844 0)"/>
      <use xlink:href="#DejaVuSans-20" transform="translate(480.816406 0)"/>
      <use xlink:href="#DejaVuSans-28" transform="translate(512.603516 0)"/>
      <use xlink:href="#DejaVuSans-35" transform="translate(551.617188 0)"/>
      <use xlink:href="#DejaVuSans-30" transform="translate(615.240234 0)"/>
      <use xlink:href="#DejaVuSans-30" transform="translate(678.863281 0)"/>
      <use xlink:href="#DejaVuSans-4d" transform="translate(742.486328 0)"/>
      <use xlink:href="#DejaVuSans-29" transform="translate(828.765625 0)"/>
     </g>
    </g>
    <g id="line2d_25">
     <path d="M 335.876684 103.018511 
L 344.206684 103.018511 
L 352.536684 103.018511 
" style="fill: none; stroke: #9467bd; stroke-width: 1.5; stroke-linecap: square"/>
    </g>
    <g id="text_20">
     <!-- NT-MS V2 (250M) -->
     <g transform="translate(359.200684 105.934011) scale(0.0833 -0.0833)">
      <use xlink:href="#DejaVuSans-4e"/>
      <use xlink:href="#DejaVuSans-54" transform="translate(74.804688 0)"/>
      <use xlink:href="#DejaVuSans-2d" transform="translate(126.763672 0)"/>
      <use xlink:href="#DejaVuSans-4d" transform="translate(162.847656 0)"/>
      <use xlink:href="#DejaVuSans-53" transform="translate(249.126953 0)"/>
      <use xlink:href="#DejaVuSans-20" transform="translate(312.603516 0)"/>
      <use xlink:href="#DejaVuSans-56" transform="translate(344.390625 0)"/>
      <use xlink:href="#DejaVuSans-32" transform="translate(412.798828 0)"/>
      <use xlink:href="#DejaVuSans-20" transform="translate(476.421875 0)"/>
      <use xlink:href="#DejaVuSans-28" transform="translate(508.208984 0)"/>
      <use xlink:href="#DejaVuSans-32" transform="translate(547.222656 0)"/>
      <use xlink:href="#DejaVuSans-35" transform="translate(610.845703 0)"/>
      <use xlink:href="#DejaVuSans-30" transform="translate(674.46875 0)"/>
      <use xlink:href="#DejaVuSans-4d" transform="translate(738.091797 0)"/>
      <use xlink:href="#DejaVuSans-29" transform="translate(824.371094 0)"/>
     </g>
    </g>
    <g id="line2d_26">
     <path d="M 335.876684 115.245389 
L 344.206684 115.245389 
L 352.536684 115.245389 
" style="fill: none; stroke: #8c564b; stroke-width: 1.5; stroke-linecap: square"/>
    </g>
    <g id="text_21">
     <!-- NT-MS V2 (100M) -->
     <g transform="translate(359.200684 118.160889) scale(0.0833 -0.0833)">
      <use xlink:href="#DejaVuSans-4e"/>
      <use xlink:href="#DejaVuSans-54" transform="translate(74.804688 0)"/>
      <use xlink:href="#DejaVuSans-2d" transform="translate(126.763672 0)"/>
      <use xlink:href="#DejaVuSans-4d" transform="translate(162.847656 0)"/>
      <use xlink:href="#DejaVuSans-53" transform="translate(249.126953 0)"/>
      <use xlink:href="#DejaVuSans-20" transform="translate(312.603516 0)"/>
      <use xlink:href="#DejaVuSans-56" transform="translate(344.390625 0)"/>
      <use xlink:href="#DejaVuSans-32" transform="translate(412.798828 0)"/>
      <use xlink:href="#DejaVuSans-20" transform="translate(476.421875 0)"/>
      <use xlink:href="#DejaVuSans-28" transform="translate(508.208984 0)"/>
      <use xlink:href="#DejaVuSans-31" transform="translate(547.222656 0)"/>
      <use xlink:href="#DejaVuSans-30" transform="translate(610.845703 0)"/>
      <use xlink:href="#DejaVuSans-30" transform="translate(674.46875 0)"/>
      <use xlink:href="#DejaVuSans-4d" transform="translate(738.091797 0)"/>
      <use xlink:href="#DejaVuSans-29" transform="translate(824.371094 0)"/>
     </g>
    </g>
    <g id="line2d_27">
     <path d="M 335.876684 127.472267 
L 344.206684 127.472267 
L 352.536684 127.472267 
" style="fill: none; stroke: #e377c2; stroke-width: 1.5; stroke-linecap: square"/>
    </g>
    <g id="text_22">
     <!-- NT-Human-Ref. (500M) -->
     <g transform="translate(359.200684 130.387767) scale(0.0833 -0.0833)">
      <defs>
       <path id="DejaVuSans-52" d="M 2841 2188 
Q 3044 2119 3236 1894 
Q 3428 1669 3622 1275 
L 4263 0 
L 3584 0 
L 2988 1197 
Q 2756 1666 2539 1819 
Q 2322 1972 1947 1972 
L 1259 1972 
L 1259 0 
L 628 0 
L 628 4666 
L 2053 4666 
Q 2853 4666 3247 4331 
Q 3641 3997 3641 3322 
Q 3641 2881 3436 2590 
Q 3231 2300 2841 2188 
z
M 1259 4147 
L 1259 2491 
L 2053 2491 
Q 2509 2491 2742 2702 
Q 2975 2913 2975 3322 
Q 2975 3731 2742 3939 
Q 2509 4147 2053 4147 
L 1259 4147 
z
" transform="scale(0.015625)"/>
       <path id="DejaVuSans-66" d="M 2375 4863 
L 2375 4384 
L 1825 4384 
Q 1516 4384 1395 4259 
Q 1275 4134 1275 3809 
L 1275 3500 
L 2222 3500 
L 2222 3053 
L 1275 3053 
L 1275 0 
L 697 0 
L 697 3053 
L 147 3053 
L 147 3500 
L 697 3500 
L 697 3744 
Q 697 4328 969 4595 
Q 1241 4863 1831 4863 
L 2375 4863 
z
" transform="scale(0.015625)"/>
      </defs>
      <use xlink:href="#DejaVuSans-4e"/>
      <use xlink:href="#DejaVuSans-54" transform="translate(74.804688 0)"/>
      <use xlink:href="#DejaVuSans-2d" transform="translate(126.763672 0)"/>
      <use xlink:href="#DejaVuSans-48" transform="translate(162.847656 0)"/>
      <use xlink:href="#DejaVuSans-75" transform="translate(238.042969 0)"/>
      <use xlink:href="#DejaVuSans-6d" transform="translate(301.421875 0)"/>
      <use xlink:href="#DejaVuSans-61" transform="translate(398.833984 0)"/>
      <use xlink:href="#DejaVuSans-6e" transform="translate(460.113281 0)"/>
      <use xlink:href="#DejaVuSans-2d" transform="translate(523.492188 0)"/>
      <use xlink:href="#DejaVuSans-52" transform="translate(559.576172 0)"/>
      <use xlink:href="#DejaVuSans-65" transform="translate(624.558594 0)"/>
      <use xlink:href="#DejaVuSans-66" transform="translate(686.082031 0)"/>
      <use xlink:href="#DejaVuSans-2e" transform="translate(714.037109 0)"/>
      <use xlink:href="#DejaVuSans-20" transform="translate(745.824219 0)"/>
      <use xlink:href="#DejaVuSans-28" transform="translate(777.611328 0)"/>
      <use xlink:href="#DejaVuSans-35" transform="translate(816.625 0)"/>
      <use xlink:href="#DejaVuSans-30" transform="translate(880.248047 0)"/>
      <use xlink:href="#DejaVuSans-30" transform="translate(943.871094 0)"/>
      <use xlink:href="#DejaVuSans-4d" transform="translate(1007.494141 0)"/>
      <use xlink:href="#DejaVuSans-29" transform="translate(1093.773438 0)"/>
     </g>
    </g>
    <g id="line2d_28">
     <path d="M 335.876684 139.699145 
L 344.206684 139.699145 
L 352.536684 139.699145 
" style="fill: none; stroke: #7f7f7f; stroke-width: 1.5; stroke-linecap: square"/>
    </g>
    <g id="text_23">
     <!-- NT-MS V2 (500M) -->
     <g transform="translate(359.200684 142.614645) scale(0.0833 -0.0833)">
      <use xlink:href="#DejaVuSans-4e"/>
      <use xlink:href="#DejaVuSans-54" transform="translate(74.804688 0)"/>
      <use xlink:href="#DejaVuSans-2d" transform="translate(126.763672 0)"/>
      <use xlink:href="#DejaVuSans-4d" transform="translate(162.847656 0)"/>
      <use xlink:href="#DejaVuSans-53" transform="translate(249.126953 0)"/>
      <use xlink:href="#DejaVuSans-20" transform="translate(312.603516 0)"/>
      <use xlink:href="#DejaVuSans-56" transform="translate(344.390625 0)"/>
      <use xlink:href="#DejaVuSans-32" transform="translate(412.798828 0)"/>
      <use xlink:href="#DejaVuSans-20" transform="translate(476.421875 0)"/>
      <use xlink:href="#DejaVuSans-28" transform="translate(508.208984 0)"/>
      <use xlink:href="#DejaVuSans-35" transform="translate(547.222656 0)"/>
      <use xlink:href="#DejaVuSans-30" transform="translate(610.845703 0)"/>
      <use xlink:href="#DejaVuSans-30" transform="translate(674.46875 0)"/>
      <use xlink:href="#DejaVuSans-4d" transform="translate(738.091797 0)"/>
      <use xlink:href="#DejaVuSans-29" transform="translate(824.371094 0)"/>
     </g>
    </g>
   </g>
  </g>
 </g>
 <defs>
  <clipPath id="pccd2a79b04">
   <rect x="72" y="43.2" width="446.4" height="277.2"/>
  </clipPath>
 </defs>
</svg>
