<?xml version="1.0" encoding="utf-8" standalone="no"?>
<!DOCTYPE svg PUBLIC "-//W3C//DTD SVG 1.1//EN"
  "http://www.w3.org/Graphics/SVG/1.1/DTD/svg11.dtd">
<svg xmlns:xlink="http://www.w3.org/1999/xlink" width="576pt" height="360pt" viewBox="0 0 576 360" xmlns="http://www.w3.org/2000/svg" version="1.1">
 <metadata>
  <rdf:RDF xmlns:dc="http://purl.org/dc/elements/1.1/" xmlns:cc="http://creativecommons.org/ns#" xmlns:rdf="http://www.w3.org/1999/02/22-rdf-syntax-ns#">
   <cc:Work>
    <dc:type rdf:resource="http://purl.org/dc/dcmitype/StillImage"/>
    <dc:date>2025-01-07T03:54:59.587439</dc:date>
    <dc:format>image/svg+xml</dc:format>
    <dc:creator>
     <cc:Agent>
      <dc:title>Matplotlib v3.10.0, https://matplotlib.org/</dc:title>
     </cc:Agent>
    </dc:creator>
   </cc:Work>
  </rdf:RDF>
 </metadata>
 <defs>
  <style type="text/css">*{stroke-linejoin: round; stroke-linecap: butt}</style>
 </defs>
 <g id="figure_1">
  <g id="patch_1">
   <path d="M 0 360 
L 576 360 
L 576 0 
L 0 0 
z
" style="fill: #ffffff"/>
  </g>
  <g id="axes_1">
   <g id="patch_2">
    <path d="M 72 320.4 
L 518.4 320.4 
L 518.4 43.2 
L 72 43.2 
z
" style="fill: #ffffff"/>
   </g>
   <g id="matplotlib.axis_1">
    <g id="xtick_1">
     <g id="line2d_1">
      <defs>
       <path id="mb31ce5d18b" d="M 0 0 
L 0 3.5 
" style="stroke: #000000; stroke-width: 0.8"/>
      </defs>
      <g>
       <use xlink:href="#mb31ce5d18b" x="157.672727" y="320.4" style="stroke: #000000; stroke-width: 0.8"/>
      </g>
     </g>
     <g id="text_1">
      <!-- 2000 -->
      <g transform="translate(144.947727 334.998438) scale(0.1 -0.1)">
       <defs>
        <path id="DejaVuSans-32" d="M 1228 531 
L 3431 531 
L 3431 0 
L 469 0 
L 469 531 
Q 828 903 1448 1529 
Q 2069 2156 2228 2338 
Q 2531 2678 2651 2914 
Q 2772 3150 2772 3378 
Q 2772 3750 2511 3984 
Q 2250 4219 1831 4219 
Q 1534 4219 1204 4116 
Q 875 4013 500 3803 
L 500 4441 
Q 881 4594 1212 4672 
Q 1544 4750 1819 4750 
Q 2544 4750 2975 4387 
Q 3406 4025 3406 3419 
Q 3406 3131 3298 2873 
Q 3191 2616 2906 2266 
Q 2828 2175 2409 1742 
Q 1991 1309 1228 531 
z
" transform="scale(0.015625)"/>
        <path id="DejaVuSans-30" d="M 2034 4250 
Q 1547 4250 1301 3770 
Q 1056 3291 1056 2328 
Q 1056 1369 1301 889 
Q 1547 409 2034 409 
Q 2525 409 2770 889 
Q 3016 1369 3016 2328 
Q 3016 3291 2770 3770 
Q 2525 4250 2034 4250 
z
M 2034 4750 
Q 2819 4750 3233 4129 
Q 3647 3509 3647 2328 
Q 3647 1150 3233 529 
Q 2819 -91 2034 -91 
Q 1250 -91 836 529 
Q 422 1150 422 2328 
Q 422 3509 836 4129 
Q 1250 4750 2034 4750 
z
" transform="scale(0.015625)"/>
       </defs>
       <use xlink:href="#DejaVuSans-32"/>
       <use xlink:href="#DejaVuSans-30" transform="translate(63.623047 0)"/>
       <use xlink:href="#DejaVuSans-30" transform="translate(127.246094 0)"/>
       <use xlink:href="#DejaVuSans-30" transform="translate(190.869141 0)"/>
      </g>
     </g>
    </g>
    <g id="xtick_2">
     <g id="line2d_2">
      <g>
       <use xlink:href="#mb31ce5d18b" x="247.854545" y="320.4" style="stroke: #000000; stroke-width: 0.8"/>
      </g>
     </g>
     <g id="text_2">
      <!-- 4000 -->
      <g transform="translate(235.129545 334.998438) scale(0.1 -0.1)">
       <defs>
        <path id="DejaVuSans-34" d="M 2419 4116 
L 825 1625 
L 2419 1625 
L 2419 4116 
z
M 2253 4666 
L 3047 4666 
L 3047 1625 
L 3713 1625 
L 3713 1100 
L 3047 1100 
L 3047 0 
L 2419 0 
L 2419 1100 
L 313 1100 
L 313 1709 
L 2253 4666 
z
" transform="scale(0.015625)"/>
       </defs>
       <use xlink:href="#DejaVuSans-34"/>
       <use xlink:href="#DejaVuSans-30" transform="translate(63.623047 0)"/>
       <use xlink:href="#DejaVuSans-30" transform="translate(127.246094 0)"/>
       <use xlink:href="#DejaVuSans-30" transform="translate(190.869141 0)"/>
      </g>
     </g>
    </g>
    <g id="xtick_3">
     <g id="line2d_3">
      <g>
       <use xlink:href="#mb31ce5d18b" x="338.036364" y="320.4" style="stroke: #000000; stroke-width: 0.8"/>
      </g>
     </g>
     <g id="text_3">
      <!-- 6000 -->
      <g transform="translate(325.311364 334.998438) scale(0.1 -0.1)">
       <defs>
        <path id="DejaVuSans-36" d="M 2113 2584 
Q 1688 2584 1439 2293 
Q 1191 2003 1191 1497 
Q 1191 994 1439 701 
Q 1688 409 2113 409 
Q 2538 409 2786 701 
Q 3034 994 3034 1497 
Q 3034 2003 2786 2293 
Q 2538 2584 2113 2584 
z
M 3366 4563 
L 3366 3988 
Q 3128 4100 2886 4159 
Q 2644 4219 2406 4219 
Q 1781 4219 1451 3797 
Q 1122 3375 1075 2522 
Q 1259 2794 1537 2939 
Q 1816 3084 2150 3084 
Q 2853 3084 3261 2657 
Q 3669 2231 3669 1497 
Q 3669 778 3244 343 
Q 2819 -91 2113 -91 
Q 1303 -91 875 529 
Q 447 1150 447 2328 
Q 447 3434 972 4092 
Q 1497 4750 2381 4750 
Q 2619 4750 2861 4703 
Q 3103 4656 3366 4563 
z
" transform="scale(0.015625)"/>
       </defs>
       <use xlink:href="#DejaVuSans-36"/>
       <use xlink:href="#DejaVuSans-30" transform="translate(63.623047 0)"/>
       <use xlink:href="#DejaVuSans-30" transform="translate(127.246094 0)"/>
       <use xlink:href="#DejaVuSans-30" transform="translate(190.869141 0)"/>
      </g>
     </g>
    </g>
    <g id="xtick_4">
     <g id="line2d_4">
      <g>
       <use xlink:href="#mb31ce5d18b" x="428.218182" y="320.4" style="stroke: #000000; stroke-width: 0.8"/>
      </g>
     </g>
     <g id="text_4">
      <!-- 8000 -->
      <g transform="translate(415.493182 334.998438) scale(0.1 -0.1)">
       <defs>
        <path id="DejaVuSans-38" d="M 2034 2216 
Q 1584 2216 1326 1975 
Q 1069 1734 1069 1313 
Q 1069 891 1326 650 
Q 1584 409 2034 409 
Q 2484 409 2743 651 
Q 3003 894 3003 1313 
Q 3003 1734 2745 1975 
Q 2488 2216 2034 2216 
z
M 1403 2484 
Q 997 2584 770 2862 
Q 544 3141 544 3541 
Q 544 4100 942 4425 
Q 1341 4750 2034 4750 
Q 2731 4750 3128 4425 
Q 3525 4100 3525 3541 
Q 3525 3141 3298 2862 
Q 3072 2584 2669 2484 
Q 3125 2378 3379 2068 
Q 3634 1759 3634 1313 
Q 3634 634 3220 271 
Q 2806 -91 2034 -91 
Q 1263 -91 848 271 
Q 434 634 434 1313 
Q 434 1759 690 2068 
Q 947 2378 1403 2484 
z
M 1172 3481 
Q 1172 3119 1398 2916 
Q 1625 2713 2034 2713 
Q 2441 2713 2670 2916 
Q 2900 3119 2900 3481 
Q 2900 3844 2670 4047 
Q 2441 4250 2034 4250 
Q 1625 4250 1398 4047 
Q 1172 3844 1172 3481 
z
" transform="scale(0.015625)"/>
       </defs>
       <use xlink:href="#DejaVuSans-38"/>
       <use xlink:href="#DejaVuSans-30" transform="translate(63.623047 0)"/>
       <use xlink:href="#DejaVuSans-30" transform="translate(127.246094 0)"/>
       <use xlink:href="#DejaVuSans-30" transform="translate(190.869141 0)"/>
      </g>
     </g>
    </g>
    <g id="xtick_5">
     <g id="line2d_5">
      <g>
       <use xlink:href="#mb31ce5d18b" x="518.4" y="320.4" style="stroke: #000000; stroke-width: 0.8"/>
      </g>
     </g>
     <g id="text_5">
      <!-- 10000 -->
      <g transform="translate(502.49375 334.998438) scale(0.1 -0.1)">
       <defs>
        <path id="DejaVuSans-31" d="M 794 531 
L 1825 531 
L 1825 4091 
L 703 3866 
L 703 4441 
L 1819 4666 
L 2450 4666 
L 2450 531 
L 3481 531 
L 3481 0 
L 794 0 
L 794 531 
z
" transform="scale(0.015625)"/>
       </defs>
       <use xlink:href="#DejaVuSans-31"/>
       <use xlink:href="#DejaVuSans-30" transform="translate(63.623047 0)"/>
       <use xlink:href="#DejaVuSans-30" transform="translate(127.246094 0)"/>
       <use xlink:href="#DejaVuSans-30" transform="translate(190.869141 0)"/>
       <use xlink:href="#DejaVuSans-30" transform="translate(254.492188 0)"/>
      </g>
     </g>
    </g>
    <g id="text_6">
     <!-- Training steps -->
     <g transform="translate(260.464844 348.676562) scale(0.1 -0.1)">
      <defs>
       <path id="DejaVuSans-54" d="M -19 4666 
L 3928 4666 
L 3928 4134 
L 2272 4134 
L 2272 0 
L 1638 0 
L 1638 4134 
L -19 4134 
L -19 4666 
z
" transform="scale(0.015625)"/>
       <path id="DejaVuSans-72" d="M 2631 2963 
Q 2534 3019 2420 3045 
Q 2306 3072 2169 3072 
Q 1681 3072 1420 2755 
Q 1159 2438 1159 1844 
L 1159 0 
L 581 0 
L 581 3500 
L 1159 3500 
L 1159 2956 
Q 1341 3275 1631 3429 
Q 1922 3584 2338 3584 
Q 2397 3584 2469 3576 
Q 2541 3569 2628 3553 
L 2631 2963 
z
" transform="scale(0.015625)"/>
       <path id="DejaVuSans-61" d="M 2194 1759 
Q 1497 1759 1228 1600 
Q 959 1441 959 1056 
Q 959 750 1161 570 
Q 1363 391 1709 391 
Q 2188 391 2477 730 
Q 2766 1069 2766 1631 
L 2766 1759 
L 2194 1759 
z
M 3341 1997 
L 3341 0 
L 2766 0 
L 2766 531 
Q 2569 213 2275 61 
Q 1981 -91 1556 -91 
Q 1019 -91 701 211 
Q 384 513 384 1019 
Q 384 1609 779 1909 
Q 1175 2209 1959 2209 
L 2766 2209 
L 2766 2266 
Q 2766 2663 2505 2880 
Q 2244 3097 1772 3097 
Q 1472 3097 1187 3025 
Q 903 2953 641 2809 
L 641 3341 
Q 956 3463 1253 3523 
Q 1550 3584 1831 3584 
Q 2591 3584 2966 3190 
Q 3341 2797 3341 1997 
z
" transform="scale(0.015625)"/>
       <path id="DejaVuSans-69" d="M 603 3500 
L 1178 3500 
L 1178 0 
L 603 0 
L 603 3500 
z
M 603 4863 
L 1178 4863 
L 1178 4134 
L 603 4134 
L 603 4863 
z
" transform="scale(0.015625)"/>
       <path id="DejaVuSans-6e" d="M 3513 2113 
L 3513 0 
L 2938 0 
L 2938 2094 
Q 2938 2591 2744 2837 
Q 2550 3084 2163 3084 
Q 1697 3084 1428 2787 
Q 1159 2491 1159 1978 
L 1159 0 
L 581 0 
L 581 3500 
L 1159 3500 
L 1159 2956 
Q 1366 3272 1645 3428 
Q 1925 3584 2291 3584 
Q 2894 3584 3203 3211 
Q 3513 2838 3513 2113 
z
" transform="scale(0.015625)"/>
       <path id="DejaVuSans-67" d="M 2906 1791 
Q 2906 2416 2648 2759 
Q 2391 3103 1925 3103 
Q 1463 3103 1205 2759 
Q 947 2416 947 1791 
Q 947 1169 1205 825 
Q 1463 481 1925 481 
Q 2391 481 2648 825 
Q 2906 1169 2906 1791 
z
M 3481 434 
Q 3481 -459 3084 -895 
Q 2688 -1331 1869 -1331 
Q 1566 -1331 1297 -1286 
Q 1028 -1241 775 -1147 
L 775 -588 
Q 1028 -725 1275 -790 
Q 1522 -856 1778 -856 
Q 2344 -856 2625 -561 
Q 2906 -266 2906 331 
L 2906 616 
Q 2728 306 2450 153 
Q 2172 0 1784 0 
Q 1141 0 747 490 
Q 353 981 353 1791 
Q 353 2603 747 3093 
Q 1141 3584 1784 3584 
Q 2172 3584 2450 3431 
Q 2728 3278 2906 2969 
L 2906 3500 
L 3481 3500 
L 3481 434 
z
" transform="scale(0.015625)"/>
       <path id="DejaVuSans-20" transform="scale(0.015625)"/>
       <path id="DejaVuSans-73" d="M 2834 3397 
L 2834 2853 
Q 2591 2978 2328 3040 
Q 2066 3103 1784 3103 
Q 1356 3103 1142 2972 
Q 928 2841 928 2578 
Q 928 2378 1081 2264 
Q 1234 2150 1697 2047 
L 1894 2003 
Q 2506 1872 2764 1633 
Q 3022 1394 3022 966 
Q 3022 478 2636 193 
Q 2250 -91 1575 -91 
Q 1294 -91 989 -36 
Q 684 19 347 128 
L 347 722 
Q 666 556 975 473 
Q 1284 391 1588 391 
Q 1994 391 2212 530 
Q 2431 669 2431 922 
Q 2431 1156 2273 1281 
Q 2116 1406 1581 1522 
L 1381 1569 
Q 847 1681 609 1914 
Q 372 2147 372 2553 
Q 372 3047 722 3315 
Q 1072 3584 1716 3584 
Q 2034 3584 2315 3537 
Q 2597 3491 2834 3397 
z
" transform="scale(0.015625)"/>
       <path id="DejaVuSans-74" d="M 1172 4494 
L 1172 3500 
L 2356 3500 
L 2356 3053 
L 1172 3053 
L 1172 1153 
Q 1172 725 1289 603 
Q 1406 481 1766 481 
L 2356 481 
L 2356 0 
L 1766 0 
Q 1100 0 847 248 
Q 594 497 594 1153 
L 594 3053 
L 172 3053 
L 172 3500 
L 594 3500 
L 594 4494 
L 1172 4494 
z
" transform="scale(0.015625)"/>
       <path id="DejaVuSans-65" d="M 3597 1894 
L 3597 1613 
L 953 1613 
Q 991 1019 1311 708 
Q 1631 397 2203 397 
Q 2534 397 2845 478 
Q 3156 559 3463 722 
L 3463 178 
Q 3153 47 2828 -22 
Q 2503 -91 2169 -91 
Q 1331 -91 842 396 
Q 353 884 353 1716 
Q 353 2575 817 3079 
Q 1281 3584 2069 3584 
Q 2775 3584 3186 3129 
Q 3597 2675 3597 1894 
z
M 3022 2063 
Q 3016 2534 2758 2815 
Q 2500 3097 2075 3097 
Q 1594 3097 1305 2825 
Q 1016 2553 972 2059 
L 3022 2063 
z
" transform="scale(0.015625)"/>
       <path id="DejaVuSans-70" d="M 1159 525 
L 1159 -1331 
L 581 -1331 
L 581 3500 
L 1159 3500 
L 1159 2969 
Q 1341 3281 1617 3432 
Q 1894 3584 2278 3584 
Q 2916 3584 3314 3078 
Q 3713 2572 3713 1747 
Q 3713 922 3314 415 
Q 2916 -91 2278 -91 
Q 1894 -91 1617 61 
Q 1341 213 1159 525 
z
M 3116 1747 
Q 3116 2381 2855 2742 
Q 2594 3103 2138 3103 
Q 1681 3103 1420 2742 
Q 1159 2381 1159 1747 
Q 1159 1113 1420 752 
Q 1681 391 2138 391 
Q 2594 391 2855 752 
Q 3116 1113 3116 1747 
z
" transform="scale(0.015625)"/>
      </defs>
      <use xlink:href="#DejaVuSans-54"/>
      <use xlink:href="#DejaVuSans-72" transform="translate(46.333984 0)"/>
      <use xlink:href="#DejaVuSans-61" transform="translate(87.447266 0)"/>
      <use xlink:href="#DejaVuSans-69" transform="translate(148.726562 0)"/>
      <use xlink:href="#DejaVuSans-6e" transform="translate(176.509766 0)"/>
      <use xlink:href="#DejaVuSans-69" transform="translate(239.888672 0)"/>
      <use xlink:href="#DejaVuSans-6e" transform="translate(267.671875 0)"/>
      <use xlink:href="#DejaVuSans-67" transform="translate(331.050781 0)"/>
      <use xlink:href="#DejaVuSans-20" transform="translate(394.527344 0)"/>
      <use xlink:href="#DejaVuSans-73" transform="translate(426.314453 0)"/>
      <use xlink:href="#DejaVuSans-74" transform="translate(478.414062 0)"/>
      <use xlink:href="#DejaVuSans-65" transform="translate(517.623047 0)"/>
      <use xlink:href="#DejaVuSans-70" transform="translate(579.146484 0)"/>
      <use xlink:href="#DejaVuSans-73" transform="translate(642.623047 0)"/>
     </g>
    </g>
   </g>
   <g id="matplotlib.axis_2">
    <g id="ytick_1">
     <g id="line2d_6">
      <defs>
       <path id="mb1129c3b1e" d="M 0 0 
L -3.5 0 
" style="stroke: #000000; stroke-width: 0.8"/>
      </defs>
      <g>
       <use xlink:href="#mb1129c3b1e" x="72" y="313.114587" style="stroke: #000000; stroke-width: 0.8"/>
      </g>
     </g>
     <g id="text_7">
      <!-- 0.2 -->
      <g transform="translate(49.096875 316.913806) scale(0.1 -0.1)">
       <defs>
        <path id="DejaVuSans-2e" d="M 684 794 
L 1344 794 
L 1344 0 
L 684 0 
L 684 794 
z
" transform="scale(0.015625)"/>
       </defs>
       <use xlink:href="#DejaVuSans-30"/>
       <use xlink:href="#DejaVuSans-2e" transform="translate(63.623047 0)"/>
       <use xlink:href="#DejaVuSans-32" transform="translate(95.410156 0)"/>
      </g>
     </g>
    </g>
    <g id="ytick_2">
     <g id="line2d_7">
      <g>
       <use xlink:href="#mb1129c3b1e" x="72" y="263.905448" style="stroke: #000000; stroke-width: 0.8"/>
      </g>
     </g>
     <g id="text_8">
      <!-- 0.3 -->
      <g transform="translate(49.096875 267.704667) scale(0.1 -0.1)">
       <defs>
        <path id="DejaVuSans-33" d="M 2597 2516 
Q 3050 2419 3304 2112 
Q 3559 1806 3559 1356 
Q 3559 666 3084 287 
Q 2609 -91 1734 -91 
Q 1441 -91 1130 -33 
Q 819 25 488 141 
L 488 750 
Q 750 597 1062 519 
Q 1375 441 1716 441 
Q 2309 441 2620 675 
Q 2931 909 2931 1356 
Q 2931 1769 2642 2001 
Q 2353 2234 1838 2234 
L 1294 2234 
L 1294 2753 
L 1863 2753 
Q 2328 2753 2575 2939 
Q 2822 3125 2822 3475 
Q 2822 3834 2567 4026 
Q 2313 4219 1838 4219 
Q 1578 4219 1281 4162 
Q 984 4106 628 3988 
L 628 4550 
Q 988 4650 1302 4700 
Q 1616 4750 1894 4750 
Q 2613 4750 3031 4423 
Q 3450 4097 3450 3541 
Q 3450 3153 3228 2886 
Q 3006 2619 2597 2516 
z
" transform="scale(0.015625)"/>
       </defs>
       <use xlink:href="#DejaVuSans-30"/>
       <use xlink:href="#DejaVuSans-2e" transform="translate(63.623047 0)"/>
       <use xlink:href="#DejaVuSans-33" transform="translate(95.410156 0)"/>
      </g>
     </g>
    </g>
    <g id="ytick_3">
     <g id="line2d_8">
      <g>
       <use xlink:href="#mb1129c3b1e" x="72" y="214.696309" style="stroke: #000000; stroke-width: 0.8"/>
      </g>
     </g>
     <g id="text_9">
      <!-- 0.4 -->
      <g transform="translate(49.096875 218.495528) scale(0.1 -0.1)">
       <use xlink:href="#DejaVuSans-30"/>
       <use xlink:href="#DejaVuSans-2e" transform="translate(63.623047 0)"/>
       <use xlink:href="#DejaVuSans-34" transform="translate(95.410156 0)"/>
      </g>
     </g>
    </g>
    <g id="ytick_4">
     <g id="line2d_9">
      <g>
       <use xlink:href="#mb1129c3b1e" x="72" y="165.48717" style="stroke: #000000; stroke-width: 0.8"/>
      </g>
     </g>
     <g id="text_10">
      <!-- 0.5 -->
      <g transform="translate(49.096875 169.286389) scale(0.1 -0.1)">
       <defs>
        <path id="DejaVuSans-35" d="M 691 4666 
L 3169 4666 
L 3169 4134 
L 1269 4134 
L 1269 2991 
Q 1406 3038 1543 3061 
Q 1681 3084 1819 3084 
Q 2600 3084 3056 2656 
Q 3513 2228 3513 1497 
Q 3513 744 3044 326 
Q 2575 -91 1722 -91 
Q 1428 -91 1123 -41 
Q 819 9 494 109 
L 494 744 
Q 775 591 1075 516 
Q 1375 441 1709 441 
Q 2250 441 2565 725 
Q 2881 1009 2881 1497 
Q 2881 1984 2565 2268 
Q 2250 2553 1709 2553 
Q 1456 2553 1204 2497 
Q 953 2441 691 2322 
L 691 4666 
z
" transform="scale(0.015625)"/>
       </defs>
       <use xlink:href="#DejaVuSans-30"/>
       <use xlink:href="#DejaVuSans-2e" transform="translate(63.623047 0)"/>
       <use xlink:href="#DejaVuSans-35" transform="translate(95.410156 0)"/>
      </g>
     </g>
    </g>
    <g id="ytick_5">
     <g id="line2d_10">
      <g>
       <use xlink:href="#mb1129c3b1e" x="72" y="116.278032" style="stroke: #000000; stroke-width: 0.8"/>
      </g>
     </g>
     <g id="text_11">
      <!-- 0.6 -->
      <g transform="translate(49.096875 120.07725) scale(0.1 -0.1)">
       <use xlink:href="#DejaVuSans-30"/>
       <use xlink:href="#DejaVuSans-2e" transform="translate(63.623047 0)"/>
       <use xlink:href="#DejaVuSans-36" transform="translate(95.410156 0)"/>
      </g>
     </g>
    </g>
    <g id="ytick_6">
     <g id="line2d_11">
      <g>
       <use xlink:href="#mb1129c3b1e" x="72" y="67.068893" style="stroke: #000000; stroke-width: 0.8"/>
      </g>
     </g>
     <g id="text_12">
      <!-- 0.7 -->
      <g transform="translate(49.096875 70.868112) scale(0.1 -0.1)">
       <defs>
        <path id="DejaVuSans-37" d="M 525 4666 
L 3525 4666 
L 3525 4397 
L 1831 0 
L 1172 0 
L 2766 4134 
L 525 4134 
L 525 4666 
z
" transform="scale(0.015625)"/>
       </defs>
       <use xlink:href="#DejaVuSans-30"/>
       <use xlink:href="#DejaVuSans-2e" transform="translate(63.623047 0)"/>
       <use xlink:href="#DejaVuSans-37" transform="translate(95.410156 0)"/>
      </g>
     </g>
    </g>
    <g id="text_13">
     <!-- Loss -->
     <g transform="translate(43.017187 192.767187) rotate(-90) scale(0.1 -0.1)">
      <defs>
       <path id="DejaVuSans-4c" d="M 628 4666 
L 1259 4666 
L 1259 531 
L 3531 531 
L 3531 0 
L 628 0 
L 628 4666 
z
" transform="scale(0.015625)"/>
       <path id="DejaVuSans-6f" d="M 1959 3097 
Q 1497 3097 1228 2736 
Q 959 2375 959 1747 
Q 959 1119 1226 758 
Q 1494 397 1959 397 
Q 2419 397 2687 759 
Q 2956 1122 2956 1747 
Q 2956 2369 2687 2733 
Q 2419 3097 1959 3097 
z
M 1959 3584 
Q 2709 3584 3137 3096 
Q 3566 2609 3566 1747 
Q 3566 888 3137 398 
Q 2709 -91 1959 -91 
Q 1206 -91 779 398 
Q 353 888 353 1747 
Q 353 2609 779 3096 
Q 1206 3584 1959 3584 
z
" transform="scale(0.015625)"/>
      </defs>
      <use xlink:href="#DejaVuSans-4c"/>
      <use xlink:href="#DejaVuSans-6f" transform="translate(53.962891 0)"/>
      <use xlink:href="#DejaVuSans-73" transform="translate(115.144531 0)"/>
      <use xlink:href="#DejaVuSans-73" transform="translate(167.244141 0)"/>
     </g>
    </g>
   </g>
   <g id="line2d_12">
    <path d="M 72 75.631283 
L 76.509091 140.39051 
L 81.018182 143.78594 
L 85.527273 139.258699 
L 90.036364 166.914236 
L 94.545455 162.190158 
L 99.054545 165.48717 
L 103.563636 173.360633 
L 108.072727 180.003866 
L 112.581818 180.742004 
L 117.090909 131.483656 
L 121.6 179.364148 
L 126.109091 187.139192 
L 130.618182 183.448506 
L 135.127273 206.576801 
L 139.636364 164.749033 
L 144.145455 180.249912 
L 148.654545 186.204218 
L 153.163636 179.314938 
L 157.672727 183.399297 
L 162.181818 171.097012 
L 166.690909 190.829877 
L 171.2 180.200703 
L 175.709091 190.190158 
L 180.218182 193.634798 
L 184.727273 198.850967 
L 189.236364 201.754306 
L 193.745455 183.054833 
L 198.254545 185.662917 
L 202.763636 185.859754 
L 207.272727 202.689279 
L 211.781818 198.309666 
L 216.290909 177.740246 
L 220.8 182.808787 
L 225.309091 176.854482 
L 229.818182 201.754306 
L 234.327273 225.473111 
L 238.836364 194.66819 
L 243.345455 196.784183 
L 247.854545 193.388752 
L 252.363636 188.664675 
L 256.872727 195.996837 
L 261.381818 192.502988 
L 265.890909 223.258699 
L 270.4 206.035501 
L 274.909091 189.599649 
L 279.418182 213.121617 
L 283.927273 185.318453 
L 288.436364 217.205975 
L 292.945455 196.046046 
L 297.454545 211.350088 
L 301.963636 216.517047 
L 306.472727 194.569772 
L 310.981818 214.253427 
L 315.490909 203.033743 
L 320 206.822847 
L 324.509091 205.592619 
L 329.018182 200.081195 
L 333.527273 214.794728 
L 338.036364 199.736731 
L 342.545455 198.555712 
L 347.054545 205.691037 
L 351.563636 214.696309 
L 356.072727 211.448506 
L 360.581818 223.898418 
L 365.090909 191.961687 
L 369.6 190.436204 
L 374.109091 196.685764 
L 378.618182 211.25167 
L 383.127273 197.423902 
L 387.636364 209.234095 
L 392.145455 220.158524 
L 396.654545 236.34833 
L 401.163636 238.464323 
L 405.672727 225.669947 
L 410.181818 220.896661 
L 414.690909 226.260457 
L 419.2 227.490685 
L 423.709091 217.353603 
L 428.218182 198.457293 
L 432.727273 229.262214 
L 437.236364 236.791213 
L 441.745455 220.94587 
L 446.254545 236.643585 
L 450.763636 209.135677 
L 455.272727 215.926538 
L 459.781818 201.114587 
L 464.290909 214.253427 
L 468.8 217.205975 
L 473.309091 226.900176 
L 477.818182 217.353603 
L 482.327273 224.538137 
L 486.836364 217.205975 
L 491.345455 221.241125 
L 495.854545 228.96696 
L 500.363636 214.450264 
L 504.872727 236.299121 
L 509.381818 223.8 
L 513.890909 241.121617 
L 518.4 227.884359 
" clip-path="url(#pdf5403be27)" style="fill: none; stroke: #1f77b4; stroke-width: 1.5; stroke-linecap: square"/>
   </g>
   <g id="line2d_13">
    <path d="M 72 55.8 
L 76.509091 147.427417 
L 81.018182 152.93884 
L 85.527273 140.046046 
L 90.036364 139.504745 
L 94.545455 134.337786 
L 99.054545 152.151494 
L 103.563636 159.729701 
L 108.072727 168.685764 
L 112.581818 164.847452 
L 117.090909 152.34833 
L 121.6 182.808787 
L 126.109091 186.302636 
L 130.618182 151.314938 
L 135.127273 181.184886 
L 139.636364 156.826362 
L 144.145455 173.655888 
L 148.654545 190.436204 
L 153.163636 168.93181 
L 157.672727 150.822847 
L 162.181818 150.527592 
L 166.690909 157.761336 
L 171.2 191.125132 
L 175.709091 192.109315 
L 180.218182 149.346573 
L 184.727273 180.742004 
L 189.236364 194.323726 
L 193.745455 162.977504 
L 198.254545 190.239367 
L 202.763636 197.030228 
L 207.272727 214.056591 
L 211.781818 190.485413 
L 216.290909 169.423902 
L 220.8 176.608436 
L 225.309091 159.877329 
L 229.818182 165.979262 
L 234.327273 173.114587 
L 238.836364 194.66819 
L 243.345455 191.321968 
L 247.854545 198.555712 
L 252.363636 191.518805 
L 256.872727 195.849209 
L 261.381818 189.107557 
L 265.890909 223.111072 
L 270.4 199.441476 
L 274.909091 207.905448 
L 279.418182 208.692794 
L 283.927273 182.66116 
L 288.436364 209.824605 
L 292.945455 191.81406 
L 297.454545 213.466081 
L 301.963636 218.731459 
L 306.472727 189.156766 
L 310.981818 206.67522 
L 315.490909 205.887873 
L 320 189.107557 
L 324.509091 199.539895 
L 329.018182 195.504745 
L 333.527273 213.416872 
L 338.036364 195.750791 
L 342.545455 202.541652 
L 347.054545 199.78594 
L 351.563636 226.850967 
L 356.072727 219.272759 
L 360.581818 214.991564 
L 365.090909 178.576801 
L 369.6 201.901933 
L 374.109091 205.543409 
L 378.618182 221.684007 
L 383.127273 186.302636 
L 387.636364 212.777153 
L 392.145455 220.94587 
L 396.654545 229.114587 
L 401.163636 221.241125 
L 405.672727 218.583831 
L 410.181818 218.68225 
L 414.690909 221.290334 
L 419.2 226.506503 
L 423.709091 217.009139 
L 428.218182 207.560984 
L 432.727273 217.058348 
L 437.236364 234.478383 
L 441.745455 208.053076 
L 446.254545 217.452021 
L 450.763636 224.046046 
L 455.272727 222.471353 
L 459.781818 214.843937 
L 464.290909 223.160281 
L 468.8 212.039016 
L 473.309091 225.177856 
L 477.818182 214.450264 
L 482.327273 230.295606 
L 486.836364 213.958172 
L 491.345455 227.78594 
L 495.854545 222.766608 
L 500.363636 220.158524 
L 504.872727 225.227065 
L 509.381818 229.50826 
L 513.890909 239.104042 
L 518.4 227.933568 
" clip-path="url(#pdf5403be27)" style="fill: none; stroke: #ff7f0e; stroke-width: 1.5; stroke-linecap: square"/>
   </g>
   <g id="line2d_14">
    <path d="M 72 197.177856 
L 76.509091 238.218278 
L 81.018182 235.462566 
L 85.527273 220.060105 
L 90.036364 224.685764 
L 94.545455 243.286819 
L 99.054545 234.921265 
L 103.563636 237.923023 
L 108.072727 236.889631 
L 112.581818 257.262214 
L 117.090909 217.402812 
L 121.6 257.901933 
L 126.109091 223.455536 
L 130.618182 230.64007 
L 135.127273 269.269244 
L 139.636364 193.241125 
L 144.145455 250.422144 
L 148.654545 247.174341 
L 153.163636 239.743761 
L 157.672727 235.856239 
L 162.181818 242.1058 
L 166.690909 246.09174 
L 171.2 250.618981 
L 175.709091 267.153251 
L 180.218182 222.422144 
L 184.727273 257.951142 
L 189.236364 243.926538 
L 193.745455 236.249912 
L 198.254545 244.467838 
L 202.763636 236.495958 
L 207.272727 254.162039 
L 211.781818 237.52935 
L 216.290909 228.278032 
L 220.8 234.379965 
L 225.309091 233.444991 
L 229.818182 257.163796 
L 234.327273 262.773638 
L 238.836364 242.302636 
L 243.345455 274.386995 
L 247.854545 257.606678 
L 252.363636 234.183128 
L 256.872727 244.615466 
L 261.381818 244.615466 
L 265.890909 262.429174 
L 270.4 265.381722 
L 274.909091 245.255185 
L 279.418182 267.940598 
L 283.927273 249.733216 
L 288.436364 258.590861 
L 292.945455 252.193673 
L 297.454545 254.998594 
L 301.963636 266.021441 
L 306.472727 248.109315 
L 310.981818 257.803515 
L 315.490909 273.50123 
L 320 247.321968 
L 324.509091 236.93884 
L 329.018182 252.734974 
L 333.527273 268.186643 
L 338.036364 260.165554 
L 342.545455 260.805272 
L 347.054545 256.91775 
L 351.563636 268.875571 
L 356.072727 251.455536 
L 360.581818 254.900176 
L 365.090909 242.745518 
L 369.6 251.406327 
L 374.109091 260.36239 
L 378.618182 255.097012 
L 383.127273 239.546924 
L 387.636364 247.371178 
L 392.145455 255.146221 
L 396.654545 276.798243 
L 401.163636 271.139192 
L 405.672727 278.963445 
L 410.181818 263.413357 
L 414.690909 280.636555 
L 419.2 282.703339 
L 423.709091 261.198946 
L 428.218182 267.300879 
L 432.727273 273.944112 
L 437.236364 286.049561 
L 441.745455 262.773638 
L 446.254545 262.232337 
L 450.763636 266.07065 
L 455.272727 263.118102 
L 459.781818 251.750791 
L 464.290909 265.283304 
L 468.8 254.604921 
L 473.309091 275.666432 
L 477.818182 270.548682 
L 482.327273 258.147979 
L 486.836364 269.958172 
L 491.345455 273.107557 
L 495.854545 280.882601 
L 500.363636 266.169069 
L 504.872727 272.418629 
L 509.381818 270.548682 
L 513.890909 285.803515 
L 518.4 275.666432 
" clip-path="url(#pdf5403be27)" style="fill: none; stroke: #2ca02c; stroke-width: 1.5; stroke-linecap: square"/>
   </g>
   <g id="line2d_15">
    <path d="M 72 146.836907 
L 76.509091 205.887873 
L 81.018182 230.836907 
L 85.527273 205.051318 
L 90.036364 208.545167 
L 94.545455 225.177856 
L 99.054545 179.511775 
L 103.563636 209.283304 
L 108.072727 207.21652 
L 112.581818 207.610193 
L 117.090909 201.311424 
L 121.6 204.854482 
L 126.109091 227.392267 
L 130.618182 193.930053 
L 135.127273 249.880844 
L 139.636364 178.330756 
L 144.145455 217.894903 
L 148.654545 231.919508 
L 153.163636 210.021441 
L 157.672727 199.933568 
L 162.181818 223.20949 
L 166.690909 216.123374 
L 171.2 215.877329 
L 175.709091 231.082953 
L 180.218182 207.856239 
L 184.727273 238.562742 
L 189.236364 213.564499 
L 193.745455 209.086467 
L 198.254545 218.68225 
L 202.763636 208.151494 
L 207.272727 232.116344 
L 211.781818 218.928295 
L 216.290909 202.09877 
L 220.8 214.597891 
L 225.309091 222.225308 
L 229.818182 239.054833 
L 234.327273 223.898418 
L 238.836364 208.39754 
L 243.345455 240.334271 
L 247.854545 240.92478 
L 252.363636 213.662917 
L 256.872727 227.933568 
L 261.381818 218.780668 
L 265.890909 260.36239 
L 270.4 233.248155 
L 274.909091 231.77188 
L 279.418182 258.394025 
L 283.927273 229.213005 
L 288.436364 238.415114 
L 292.945455 231.82109 
L 297.454545 237.234095 
L 301.963636 246.63304 
L 306.472727 222.07768 
L 310.981818 246.288576 
L 315.490909 240.727944 
L 320 234.429174 
L 324.509091 222.176098 
L 329.018182 227.884359 
L 333.527273 254.850967 
L 338.036364 234.921265 
L 342.545455 233.937083 
L 347.054545 230.09877 
L 351.563636 244.615466 
L 356.072727 226.801757 
L 360.581818 252.144464 
L 365.090909 237.972232 
L 369.6 219.961687 
L 374.109091 250.520562 
L 378.618182 223.504745 
L 383.127273 235.068893 
L 387.636364 240.826362 
L 392.145455 243.434446 
L 396.654545 271.926538 
L 401.163636 255.933568 
L 405.672727 255.589104 
L 410.181818 257.360633 
L 414.690909 254.408084 
L 419.2 275.371178 
L 423.709091 249.388752 
L 428.218182 269.023199 
L 432.727273 256.327241 
L 437.236364 245.894903 
L 441.745455 242.548682 
L 446.254545 270.794728 
L 450.763636 251.652373 
L 455.272727 259.624253 
L 459.781818 262.379965 
L 464.290909 264.34833 
L 468.8 243.23761 
L 473.309091 279.160281 
L 477.818182 256.474868 
L 482.327273 244.763093 
L 486.836364 237.627768 
L 491.345455 260.559227 
L 495.854545 276.404569 
L 500.363636 263.314938 
L 504.872727 257.557469 
L 509.381818 255.490685 
L 513.890909 280.193673 
L 518.4 272.418629 
" clip-path="url(#pdf5403be27)" style="fill: none; stroke: #d62728; stroke-width: 1.5; stroke-linecap: square"/>
   </g>
   <g id="line2d_16">
    <path d="M 72 200.819332 
L 76.509091 219.371178 
L 81.018182 237.972232 
L 85.527273 204.36239 
L 90.036364 231.870299 
L 94.545455 237.283304 
L 99.054545 235.659402 
L 103.563636 229.360633 
L 108.072727 236.39754 
L 112.581818 252.587346 
L 117.090909 224.784183 
L 121.6 267.153251 
L 126.109091 240.334271 
L 130.618182 230.246397 
L 135.127273 266.119859 
L 139.636364 221.290334 
L 144.145455 253.719156 
L 148.654545 254.801757 
L 153.163636 241.220035 
L 157.672727 249.880844 
L 162.181818 253.52232 
L 166.690909 255.24464 
L 171.2 255.78594 
L 175.709091 255.097012 
L 180.218182 219.666432 
L 184.727273 252.341301 
L 189.236364 248.35536 
L 193.745455 233.986292 
L 198.254545 226.65413 
L 202.763636 242.1058 
L 207.272727 249.782425 
L 211.781818 225.030228 
L 216.290909 215.336028 
L 220.8 233.248155 
L 225.309091 215.926538 
L 229.818182 233.297364 
L 234.327273 257.754306 
L 238.836364 233.740246 
L 243.345455 256.425659 
L 247.854545 267.596134 
L 252.363636 244.172583 
L 256.872727 236.446749 
L 261.381818 249.634798 
L 265.890909 274.042531 
L 270.4 272.517047 
L 274.909091 237.234095 
L 279.418182 270.597891 
L 283.927273 252.93181 
L 288.436364 261.297364 
L 292.945455 260.9529 
L 297.454545 258.09877 
L 301.963636 262.872056 
L 306.472727 254.604921 
L 310.981818 261.297364 
L 315.490909 289.641828 
L 320 252.242882 
L 324.509091 254.506503 
L 329.018182 247.568014 
L 333.527273 278.176098 
L 338.036364 265.480141 
L 342.545455 270.253427 
L 347.054545 250.520562 
L 351.563636 267.842179 
L 356.072727 257.606678 
L 360.581818 264.742004 
L 365.090909 238.021441 
L 369.6 269.712127 
L 374.109091 267.645343 
L 378.618182 269.416872 
L 383.127273 253.52232 
L 387.636364 254.801757 
L 392.145455 278.717399 
L 396.654545 283.687522 
L 401.163636 294.218278 
L 405.672727 303.863269 
L 410.181818 262.724429 
L 414.690909 294.415114 
L 419.2 297.51529 
L 423.709091 284.37645 
L 428.218182 284.228822 
L 432.727273 291.314938 
L 437.236364 299.975747 
L 441.745455 265.578559 
L 446.254545 294.021441 
L 450.763636 288.411599 
L 455.272727 289.198946 
L 459.781818 269.761336 
L 464.290909 271.729701 
L 468.8 278.914236 
L 473.309091 265.135677 
L 477.818182 272.763093 
L 482.327273 260.706854 
L 486.836364 269.367663 
L 491.345455 280.587346 
L 495.854545 299.089982 
L 500.363636 295.448506 
L 504.872727 296.826362 
L 509.381818 277.585589 
L 513.890909 300.95993 
L 518.4 281.817575 
" clip-path="url(#pdf5403be27)" style="fill: none; stroke: #9467bd; stroke-width: 1.5; stroke-linecap: square"/>
   </g>
   <g id="line2d_17">
    <path d="M 72 204.559227 
L 76.509091 225.866784 
L 81.018182 241.564499 
L 85.527273 228.622496 
L 90.036364 223.504745 
L 94.545455 236.102285 
L 99.054545 233.444991 
L 103.563636 241.564499 
L 108.072727 234.921265 
L 112.581818 257.262214 
L 117.090909 225.768366 
L 121.6 260.559227 
L 126.109091 236.249912 
L 130.618182 234.527592 
L 135.127273 269.023199 
L 139.636364 217.255185 
L 144.145455 239.399297 
L 148.654545 252.39051 
L 153.163636 245.747276 
L 157.672727 237.873814 
L 162.181818 246.63304 
L 166.690909 253.817575 
L 171.2 265.824605 
L 175.709091 261.4942 
L 180.218182 238.218278 
L 184.727273 253.473111 
L 189.236364 252.93181 
L 193.745455 239.842179 
L 198.254545 241.170826 
L 202.763636 230.886116 
L 207.272727 262.773638 
L 211.781818 243.23761 
L 216.290909 243.139192 
L 220.8 243.729701 
L 225.309091 237.234095 
L 229.818182 268.285062 
L 234.327273 267.153251 
L 238.836364 244.024956 
L 243.345455 270.597891 
L 247.854545 258.049561 
L 252.363636 237.037258 
L 256.872727 251.996837 
L 261.381818 258.443234 
L 265.890909 272.861511 
L 270.4 277.339543 
L 274.909091 248.35536 
L 279.418182 252.193673 
L 283.927273 247.22355 
L 288.436364 261.691037 
L 292.945455 256.91775 
L 297.454545 261.297364 
L 301.963636 269.810545 
L 306.472727 252.882601 
L 310.981818 267.842179 
L 315.490909 276.453779 
L 320 239.743761 
L 324.509091 250.422144 
L 329.018182 254.604921 
L 333.527273 267.497715 
L 338.036364 256.671705 
L 342.545455 259.624253 
L 347.054545 265.627768 
L 351.563636 266.562742 
L 356.072727 266.513533 
L 360.581818 263.905448 
L 365.090909 250.07768 
L 369.6 263.413357 
L 374.109091 263.905448 
L 378.618182 265.52935 
L 383.127273 259.082953 
L 387.636364 251.603163 
L 392.145455 275.568014 
L 396.654545 283.392267 
L 401.163636 278.028471 
L 405.672727 278.422144 
L 410.181818 251.996837 
L 414.690909 279.996837 
L 419.2 296.235852 
L 423.709091 269.564499 
L 428.218182 266.611951 
L 432.727273 276.256942 
L 437.236364 291.80703 
L 441.745455 255.441476 
L 446.254545 277.142707 
L 450.763636 267.497715 
L 455.272727 277.339543 
L 459.781818 260.903691 
L 464.290909 278.07768 
L 468.8 256.327241 
L 473.309091 283.982777 
L 477.818182 276.010896 
L 482.327273 271.139192 
L 486.836364 273.50123 
L 491.345455 277.093497 
L 495.854545 292.594376 
L 500.363636 278.865026 
L 504.872727 286.246397 
L 509.381818 270.204218 
L 513.890909 297.810545 
L 518.4 279.357118 
" clip-path="url(#pdf5403be27)" style="fill: none; stroke: #8c564b; stroke-width: 1.5; stroke-linecap: square"/>
   </g>
   <g id="line2d_18">
    <path d="M 72 179.019684 
L 76.509091 215.286819 
L 81.018182 223.012654 
L 85.527273 196.784183 
L 90.036364 207.413357 
L 94.545455 226.11283 
L 99.054545 206.67522 
L 103.563636 197.817575 
L 108.072727 216.074165 
L 112.581818 219.912478 
L 117.090909 194.717399 
L 121.6 229.803515 
L 126.109091 240.088225 
L 130.618182 194.126889 
L 135.127273 255.392267 
L 139.636364 206.970475 
L 144.145455 227.78594 
L 148.654545 233.592619 
L 153.163636 222.422144 
L 157.672727 196.046046 
L 162.181818 226.11283 
L 166.690909 218.485413 
L 171.2 232.805272 
L 175.709091 242.745518 
L 180.218182 209.676977 
L 184.727273 235.905448 
L 189.236364 225.079438 
L 193.745455 232.903691 
L 198.254545 229.262214 
L 202.763636 206.232337 
L 207.272727 227.392267 
L 211.781818 214.745518 
L 216.290909 206.67522 
L 220.8 222.372935 
L 225.309091 217.452021 
L 229.818182 233.4942 
L 234.327273 232.313181 
L 238.836364 207.856239 
L 243.345455 239.448506 
L 247.854545 228.327241 
L 252.363636 211.005624 
L 256.872727 220.601406 
L 261.381818 220.798243 
L 265.890909 258.394025 
L 270.4 250.323726 
L 274.909091 238.808787 
L 279.418182 222.323726 
L 283.927273 214.302636 
L 288.436364 233.198946 
L 292.945455 236.840422 
L 297.454545 229.606678 
L 301.963636 228.228822 
L 306.472727 228.228822 
L 310.981818 249.585589 
L 315.490909 246.928295 
L 320 232.608436 
L 324.509091 237.972232 
L 329.018182 217.107557 
L 333.527273 255.392267 
L 338.036364 222.66819 
L 342.545455 228.130404 
L 347.054545 233.789455 
L 351.563636 253.768366 
L 356.072727 238.07065 
L 360.581818 233.986292 
L 365.090909 228.770123 
L 369.6 222.815817 
L 374.109091 245.747276 
L 378.618182 241.466081 
L 383.127273 228.278032 
L 387.636364 236.299121 
L 392.145455 246.68225 
L 396.654545 267.153251 
L 401.163636 251.849209 
L 405.672727 265.873814 
L 410.181818 260.460808 
L 414.690909 263.068893 
L 419.2 276.749033 
L 423.709091 245.452021 
L 428.218182 249.831634 
L 432.727273 252.538137 
L 437.236364 261.444991 
L 441.745455 247.715641 
L 446.254545 248.94587 
L 450.763636 270.450264 
L 455.272727 258.64007 
L 459.781818 247.125132 
L 464.290909 254.752548 
L 468.8 244.713884 
L 473.309091 275.961687 
L 477.818182 258.394025 
L 482.327273 243.631283 
L 486.836364 242.548682 
L 491.345455 264.053076 
L 495.854545 266.513533 
L 500.363636 262.035501 
L 504.872727 267.842179 
L 509.381818 263.856239 
L 513.890909 268.38348 
L 518.4 267.054833 
" clip-path="url(#pdf5403be27)" style="fill: none; stroke: #e377c2; stroke-width: 1.5; stroke-linecap: square"/>
   </g>
   <g id="line2d_19">
    <path d="M 72 195.406327 
L 76.509091 218.09174 
L 81.018182 229.213005 
L 85.527273 220.306151 
L 90.036364 228.720914 
L 94.545455 245.304394 
L 99.054545 232.411599 
L 103.563636 250.126889 
L 108.072727 248.060105 
L 112.581818 269.564499 
L 117.090909 215.582074 
L 121.6 265.184886 
L 126.109091 257.360633 
L 130.618182 230.197188 
L 135.127273 265.234095 
L 139.636364 212.088225 
L 144.145455 251.307909 
L 148.654545 239.694552 
L 153.163636 227.687522 
L 157.672727 244.024956 
L 162.181818 245.402812 
L 166.690909 254.162039 
L 171.2 248.158524 
L 175.709091 277.093497 
L 180.218182 234.822847 
L 184.727273 243.631283 
L 189.236364 253.52232 
L 193.745455 245.452021 
L 198.254545 254.309666 
L 202.763636 249.241125 
L 207.272727 267.399297 
L 211.781818 248.502988 
L 216.290909 236.791213 
L 220.8 243.77891 
L 225.309091 262.133919 
L 229.818182 263.462566 
L 234.327273 259.673462 
L 238.836364 252.784183 
L 243.345455 279.8 
L 247.854545 260.903691 
L 252.363636 249.48717 
L 256.872727 259.328998 
L 261.381818 264.988049 
L 265.890909 282.850967 
L 270.4 259.722671 
L 274.909091 241.416872 
L 279.418182 270.351845 
L 283.927273 257.409842 
L 288.436364 281.719156 
L 292.945455 271.532865 
L 297.454545 256.081195 
L 301.963636 285.311424 
L 306.472727 264.889631 
L 310.981818 267.645343 
L 315.490909 278.126889 
L 320 266.021441 
L 324.509091 262.330756 
L 329.018182 265.726186 
L 333.527273 276.847452 
L 338.036364 263.167311 
L 342.545455 274.190158 
L 347.054545 272.123374 
L 351.563636 269.318453 
L 356.072727 263.068893 
L 360.581818 270.597891 
L 365.090909 265.824605 
L 369.6 275.715641 
L 374.109091 270.007381 
L 378.618182 283.441476 
L 383.127273 264.545167 
L 387.636364 249.53638 
L 392.145455 278.815817 
L 396.654545 306.07768 
L 401.163636 307.8 
L 405.672727 306.225308 
L 410.181818 270.204218 
L 414.690909 297.072408 
L 419.2 300.467838 
L 423.709091 283.146221 
L 428.218182 289.986292 
L 432.727273 286.836907 
L 437.236364 285.951142 
L 441.745455 281.669947 
L 446.254545 297.712127 
L 450.763636 295.300879 
L 455.272727 301.894903 
L 459.781818 261.297364 
L 464.290909 278.865026 
L 468.8 284.819332 
L 473.309091 297.072408 
L 477.818182 290.330756 
L 482.327273 276.404569 
L 486.836364 290.478383 
L 491.345455 290.576801 
L 495.854545 299.188401 
L 500.363636 299.286819 
L 504.872727 306.66819 
L 509.381818 270.696309 
L 513.890909 303.912478 
L 518.4 296.285062 
" clip-path="url(#pdf5403be27)" style="fill: none; stroke: #7f7f7f; stroke-width: 1.5; stroke-linecap: square"/>
   </g>
   <g id="patch_3">
    <path d="M 72 320.4 
L 72 43.2 
" style="fill: none; stroke: #000000; stroke-width: 0.8; stroke-linejoin: miter; stroke-linecap: square"/>
   </g>
   <g id="patch_4">
    <path d="M 518.4 320.4 
L 518.4 43.2 
" style="fill: none; stroke: #000000; stroke-width: 0.8; stroke-linejoin: miter; stroke-linecap: square"/>
   </g>
   <g id="patch_5">
    <path d="M 72 320.4 
L 518.4 320.4 
" style="fill: none; stroke: #000000; stroke-width: 0.8; stroke-linejoin: miter; stroke-linecap: square"/>
   </g>
   <g id="patch_6">
    <path d="M 72 43.2 
L 518.4 43.2 
" style="fill: none; stroke: #000000; stroke-width: 0.8; stroke-linejoin: miter; stroke-linecap: square"/>
   </g>
   <g id="text_14">
    <!-- Promoter (non-TATA) -->
    <g transform="translate(234.032812 37.2) scale(0.12 -0.12)">
     <defs>
      <path id="DejaVuSans-50" d="M 1259 4147 
L 1259 2394 
L 2053 2394 
Q 2494 2394 2734 2622 
Q 2975 2850 2975 3272 
Q 2975 3691 2734 3919 
Q 2494 4147 2053 4147 
L 1259 4147 
z
M 628 4666 
L 2053 4666 
Q 2838 4666 3239 4311 
Q 3641 3956 3641 3272 
Q 3641 2581 3239 2228 
Q 2838 1875 2053 1875 
L 1259 1875 
L 1259 0 
L 628 0 
L 628 4666 
z
" transform="scale(0.015625)"/>
      <path id="DejaVuSans-6d" d="M 3328 2828 
Q 3544 3216 3844 3400 
Q 4144 3584 4550 3584 
Q 5097 3584 5394 3201 
Q 5691 2819 5691 2113 
L 5691 0 
L 5113 0 
L 5113 2094 
Q 5113 2597 4934 2840 
Q 4756 3084 4391 3084 
Q 3944 3084 3684 2787 
Q 3425 2491 3425 1978 
L 3425 0 
L 2847 0 
L 2847 2094 
Q 2847 2600 2669 2842 
Q 2491 3084 2119 3084 
Q 1678 3084 1418 2786 
Q 1159 2488 1159 1978 
L 1159 0 
L 581 0 
L 581 3500 
L 1159 3500 
L 1159 2956 
Q 1356 3278 1631 3431 
Q 1906 3584 2284 3584 
Q 2666 3584 2933 3390 
Q 3200 3197 3328 2828 
z
" transform="scale(0.015625)"/>
      <path id="DejaVuSans-28" d="M 1984 4856 
Q 1566 4138 1362 3434 
Q 1159 2731 1159 2009 
Q 1159 1288 1364 580 
Q 1569 -128 1984 -844 
L 1484 -844 
Q 1016 -109 783 600 
Q 550 1309 550 2009 
Q 550 2706 781 3412 
Q 1013 4119 1484 4856 
L 1984 4856 
z
" transform="scale(0.015625)"/>
      <path id="DejaVuSans-2d" d="M 313 2009 
L 1997 2009 
L 1997 1497 
L 313 1497 
L 313 2009 
z
" transform="scale(0.015625)"/>
      <path id="DejaVuSans-41" d="M 2188 4044 
L 1331 1722 
L 3047 1722 
L 2188 4044 
z
M 1831 4666 
L 2547 4666 
L 4325 0 
L 3669 0 
L 3244 1197 
L 1141 1197 
L 716 0 
L 50 0 
L 1831 4666 
z
" transform="scale(0.015625)"/>
      <path id="DejaVuSans-29" d="M 513 4856 
L 1013 4856 
Q 1481 4119 1714 3412 
Q 1947 2706 1947 2009 
Q 1947 1309 1714 600 
Q 1481 -109 1013 -844 
L 513 -844 
Q 928 -128 1133 580 
Q 1338 1288 1338 2009 
Q 1338 2731 1133 3434 
Q 928 4138 513 4856 
z
" transform="scale(0.015625)"/>
     </defs>
     <use xlink:href="#DejaVuSans-50"/>
     <use xlink:href="#DejaVuSans-72" transform="translate(58.552734 0)"/>
     <use xlink:href="#DejaVuSans-6f" transform="translate(97.416016 0)"/>
     <use xlink:href="#DejaVuSans-6d" transform="translate(158.597656 0)"/>
     <use xlink:href="#DejaVuSans-6f" transform="translate(256.009766 0)"/>
     <use xlink:href="#DejaVuSans-74" transform="translate(317.191406 0)"/>
     <use xlink:href="#DejaVuSans-65" transform="translate(356.400391 0)"/>
     <use xlink:href="#DejaVuSans-72" transform="translate(417.923828 0)"/>
     <use xlink:href="#DejaVuSans-20" transform="translate(459.037109 0)"/>
     <use xlink:href="#DejaVuSans-28" transform="translate(490.824219 0)"/>
     <use xlink:href="#DejaVuSans-6e" transform="translate(529.837891 0)"/>
     <use xlink:href="#DejaVuSans-6f" transform="translate(593.216797 0)"/>
     <use xlink:href="#DejaVuSans-6e" transform="translate(654.398438 0)"/>
     <use xlink:href="#DejaVuSans-2d" transform="translate(717.777344 0)"/>
     <use xlink:href="#DejaVuSans-54" transform="translate(744.736328 0)"/>
     <use xlink:href="#DejaVuSans-41" transform="translate(798.070312 0)"/>
     <use xlink:href="#DejaVuSans-54" transform="translate(858.728516 0)"/>
     <use xlink:href="#DejaVuSans-41" transform="translate(912.0625 0)"/>
     <use xlink:href="#DejaVuSans-29" transform="translate(980.470703 0)"/>
    </g>
   </g>
   <g id="legend_1">
    <g id="patch_7">
     <path d="M 334.210684 147.679025 
L 512.569 147.679025 
Q 514.235 147.679025 514.235 146.013025 
L 514.235 49.031 
Q 514.235 47.365 512.569 47.365 
L 334.210684 47.365 
Q 332.544684 47.365 332.544684 49.031 
L 332.544684 146.013025 
Q 332.544684 147.679025 334.210684 147.679025 
z
" style="fill: #ffffff; opacity: 0.8; stroke: #cccccc; stroke-linejoin: miter"/>
    </g>
    <g id="line2d_20">
     <path d="M 335.876684 54.110998 
L 344.206684 54.110998 
L 352.536684 54.110998 
" style="fill: none; stroke: #1f77b4; stroke-width: 1.5; stroke-linecap: square"/>
    </g>
    <g id="text_15">
     <!-- NT-MS V2 (50M) with rand. weights -->
     <g transform="translate(359.200684 57.026498) scale(0.0833 -0.0833)">
      <defs>
       <path id="DejaVuSans-4e" d="M 628 4666 
L 1478 4666 
L 3547 763 
L 3547 4666 
L 4159 4666 
L 4159 0 
L 3309 0 
L 1241 3903 
L 1241 0 
L 628 0 
L 628 4666 
z
" transform="scale(0.015625)"/>
       <path id="DejaVuSans-4d" d="M 628 4666 
L 1569 4666 
L 2759 1491 
L 3956 4666 
L 4897 4666 
L 4897 0 
L 4281 0 
L 4281 4097 
L 3078 897 
L 2444 897 
L 1241 4097 
L 1241 0 
L 628 0 
L 628 4666 
z
" transform="scale(0.015625)"/>
       <path id="DejaVuSans-53" d="M 3425 4513 
L 3425 3897 
Q 3066 4069 2747 4153 
Q 2428 4238 2131 4238 
Q 1616 4238 1336 4038 
Q 1056 3838 1056 3469 
Q 1056 3159 1242 3001 
Q 1428 2844 1947 2747 
L 2328 2669 
Q 3034 2534 3370 2195 
Q 3706 1856 3706 1288 
Q 3706 609 3251 259 
Q 2797 -91 1919 -91 
Q 1588 -91 1214 -16 
Q 841 59 441 206 
L 441 856 
Q 825 641 1194 531 
Q 1563 422 1919 422 
Q 2459 422 2753 634 
Q 3047 847 3047 1241 
Q 3047 1584 2836 1778 
Q 2625 1972 2144 2069 
L 1759 2144 
Q 1053 2284 737 2584 
Q 422 2884 422 3419 
Q 422 4038 858 4394 
Q 1294 4750 2059 4750 
Q 2388 4750 2728 4690 
Q 3069 4631 3425 4513 
z
" transform="scale(0.015625)"/>
       <path id="DejaVuSans-56" d="M 1831 0 
L 50 4666 
L 709 4666 
L 2188 738 
L 3669 4666 
L 4325 4666 
L 2547 0 
L 1831 0 
z
" transform="scale(0.015625)"/>
       <path id="DejaVuSans-77" d="M 269 3500 
L 844 3500 
L 1563 769 
L 2278 3500 
L 2956 3500 
L 3675 769 
L 4391 3500 
L 4966 3500 
L 4050 0 
L 3372 0 
L 2619 2869 
L 1863 0 
L 1184 0 
L 269 3500 
z
" transform="scale(0.015625)"/>
       <path id="DejaVuSans-68" d="M 3513 2113 
L 3513 0 
L 2938 0 
L 2938 2094 
Q 2938 2591 2744 2837 
Q 2550 3084 2163 3084 
Q 1697 3084 1428 2787 
Q 1159 2491 1159 1978 
L 1159 0 
L 581 0 
L 581 4863 
L 1159 4863 
L 1159 2956 
Q 1366 3272 1645 3428 
Q 1925 3584 2291 3584 
Q 2894 3584 3203 3211 
Q 3513 2838 3513 2113 
z
" transform="scale(0.015625)"/>
       <path id="DejaVuSans-64" d="M 2906 2969 
L 2906 4863 
L 3481 4863 
L 3481 0 
L 2906 0 
L 2906 525 
Q 2725 213 2448 61 
Q 2172 -91 1784 -91 
Q 1150 -91 751 415 
Q 353 922 353 1747 
Q 353 2572 751 3078 
Q 1150 3584 1784 3584 
Q 2172 3584 2448 3432 
Q 2725 3281 2906 2969 
z
M 947 1747 
Q 947 1113 1208 752 
Q 1469 391 1925 391 
Q 2381 391 2643 752 
Q 2906 1113 2906 1747 
Q 2906 2381 2643 2742 
Q 2381 3103 1925 3103 
Q 1469 3103 1208 2742 
Q 947 2381 947 1747 
z
" transform="scale(0.015625)"/>
      </defs>
      <use xlink:href="#DejaVuSans-4e"/>
      <use xlink:href="#DejaVuSans-54" transform="translate(74.804688 0)"/>
      <use xlink:href="#DejaVuSans-2d" transform="translate(126.763672 0)"/>
      <use xlink:href="#DejaVuSans-4d" transform="translate(162.847656 0)"/>
      <use xlink:href="#DejaVuSans-53" transform="translate(249.126953 0)"/>
      <use xlink:href="#DejaVuSans-20" transform="translate(312.603516 0)"/>
      <use xlink:href="#DejaVuSans-56" transform="translate(344.390625 0)"/>
      <use xlink:href="#DejaVuSans-32" transform="translate(412.798828 0)"/>
      <use xlink:href="#DejaVuSans-20" transform="translate(476.421875 0)"/>
      <use xlink:href="#DejaVuSans-28" transform="translate(508.208984 0)"/>
      <use xlink:href="#DejaVuSans-35" transform="translate(547.222656 0)"/>
      <use xlink:href="#DejaVuSans-30" transform="translate(610.845703 0)"/>
      <use xlink:href="#DejaVuSans-4d" transform="translate(674.46875 0)"/>
      <use xlink:href="#DejaVuSans-29" transform="translate(760.748047 0)"/>
      <use xlink:href="#DejaVuSans-20" transform="translate(799.761719 0)"/>
      <use xlink:href="#DejaVuSans-77" transform="translate(831.548828 0)"/>
      <use xlink:href="#DejaVuSans-69" transform="translate(913.335938 0)"/>
      <use xlink:href="#DejaVuSans-74" transform="translate(941.119141 0)"/>
      <use xlink:href="#DejaVuSans-68" transform="translate(980.328125 0)"/>
      <use xlink:href="#DejaVuSans-20" transform="translate(1043.707031 0)"/>
      <use xlink:href="#DejaVuSans-72" transform="translate(1075.494141 0)"/>
      <use xlink:href="#DejaVuSans-61" transform="translate(1116.607422 0)"/>
      <use xlink:href="#DejaVuSans-6e" transform="translate(1177.886719 0)"/>
      <use xlink:href="#DejaVuSans-64" transform="translate(1241.265625 0)"/>
      <use xlink:href="#DejaVuSans-2e" transform="translate(1304.742188 0)"/>
      <use xlink:href="#DejaVuSans-20" transform="translate(1336.529297 0)"/>
      <use xlink:href="#DejaVuSans-77" transform="translate(1368.316406 0)"/>
      <use xlink:href="#DejaVuSans-65" transform="translate(1450.103516 0)"/>
      <use xlink:href="#DejaVuSans-69" transform="translate(1511.626953 0)"/>
      <use xlink:href="#DejaVuSans-67" transform="translate(1539.410156 0)"/>
      <use xlink:href="#DejaVuSans-68" transform="translate(1602.886719 0)"/>
      <use xlink:href="#DejaVuSans-74" transform="translate(1666.265625 0)"/>
      <use xlink:href="#DejaVuSans-73" transform="translate(1705.474609 0)"/>
     </g>
    </g>
    <g id="line2d_21">
     <path d="M 335.876684 66.337877 
L 344.206684 66.337877 
L 352.536684 66.337877 
" style="fill: none; stroke: #ff7f0e; stroke-width: 1.5; stroke-linecap: square"/>
    </g>
    <g id="text_16">
     <!-- NT-MS V2 (500M) with rand. weights -->
     <g transform="translate(359.200684 69.253377) scale(0.0833 -0.0833)">
      <use xlink:href="#DejaVuSans-4e"/>
      <use xlink:href="#DejaVuSans-54" transform="translate(74.804688 0)"/>
      <use xlink:href="#DejaVuSans-2d" transform="translate(126.763672 0)"/>
      <use xlink:href="#DejaVuSans-4d" transform="translate(162.847656 0)"/>
      <use xlink:href="#DejaVuSans-53" transform="translate(249.126953 0)"/>
      <use xlink:href="#DejaVuSans-20" transform="translate(312.603516 0)"/>
      <use xlink:href="#DejaVuSans-56" transform="translate(344.390625 0)"/>
      <use xlink:href="#DejaVuSans-32" transform="translate(412.798828 0)"/>
      <use xlink:href="#DejaVuSans-20" transform="translate(476.421875 0)"/>
      <use xlink:href="#DejaVuSans-28" transform="translate(508.208984 0)"/>
      <use xlink:href="#DejaVuSans-35" transform="translate(547.222656 0)"/>
      <use xlink:href="#DejaVuSans-30" transform="translate(610.845703 0)"/>
      <use xlink:href="#DejaVuSans-30" transform="translate(674.46875 0)"/>
      <use xlink:href="#DejaVuSans-4d" transform="translate(738.091797 0)"/>
      <use xlink:href="#DejaVuSans-29" transform="translate(824.371094 0)"/>
      <use xlink:href="#DejaVuSans-20" transform="translate(863.384766 0)"/>
      <use xlink:href="#DejaVuSans-77" transform="translate(895.171875 0)"/>
      <use xlink:href="#DejaVuSans-69" transform="translate(976.958984 0)"/>
      <use xlink:href="#DejaVuSans-74" transform="translate(1004.742188 0)"/>
      <use xlink:href="#DejaVuSans-68" transform="translate(1043.951172 0)"/>
      <use xlink:href="#DejaVuSans-20" transform="translate(1107.330078 0)"/>
      <use xlink:href="#DejaVuSans-72" transform="translate(1139.117188 0)"/>
      <use xlink:href="#DejaVuSans-61" transform="translate(1180.230469 0)"/>
      <use xlink:href="#DejaVuSans-6e" transform="translate(1241.509766 0)"/>
      <use xlink:href="#DejaVuSans-64" transform="translate(1304.888672 0)"/>
      <use xlink:href="#DejaVuSans-2e" transform="translate(1368.365234 0)"/>
      <use xlink:href="#DejaVuSans-20" transform="translate(1400.152344 0)"/>
      <use xlink:href="#DejaVuSans-77" transform="translate(1431.939453 0)"/>
      <use xlink:href="#DejaVuSans-65" transform="translate(1513.726562 0)"/>
      <use xlink:href="#DejaVuSans-69" transform="translate(1575.25 0)"/>
      <use xlink:href="#DejaVuSans-67" transform="translate(1603.033203 0)"/>
      <use xlink:href="#DejaVuSans-68" transform="translate(1666.509766 0)"/>
      <use xlink:href="#DejaVuSans-74" transform="translate(1729.888672 0)"/>
      <use xlink:href="#DejaVuSans-73" transform="translate(1769.097656 0)"/>
     </g>
    </g>
    <g id="line2d_22">
     <path d="M 335.876684 78.564755 
L 344.206684 78.564755 
L 352.536684 78.564755 
" style="fill: none; stroke: #2ca02c; stroke-width: 1.5; stroke-linecap: square"/>
    </g>
    <g id="text_17">
     <!-- NT-MS V2 (50M) -->
     <g transform="translate(359.200684 81.480255) scale(0.0833 -0.0833)">
      <use xlink:href="#DejaVuSans-4e"/>
      <use xlink:href="#DejaVuSans-54" transform="translate(74.804688 0)"/>
      <use xlink:href="#DejaVuSans-2d" transform="translate(126.763672 0)"/>
      <use xlink:href="#DejaVuSans-4d" transform="translate(162.847656 0)"/>
      <use xlink:href="#DejaVuSans-53" transform="translate(249.126953 0)"/>
      <use xlink:href="#DejaVuSans-20" transform="translate(312.603516 0)"/>
      <use xlink:href="#DejaVuSans-56" transform="translate(344.390625 0)"/>
      <use xlink:href="#DejaVuSans-32" transform="translate(412.798828 0)"/>
      <use xlink:href="#DejaVuSans-20" transform="translate(476.421875 0)"/>
      <use xlink:href="#DejaVuSans-28" transform="translate(508.208984 0)"/>
      <use xlink:href="#DejaVuSans-35" transform="translate(547.222656 0)"/>
      <use xlink:href="#DejaVuSans-30" transform="translate(610.845703 0)"/>
      <use xlink:href="#DejaVuSans-4d" transform="translate(674.46875 0)"/>
      <use xlink:href="#DejaVuSans-29" transform="translate(760.748047 0)"/>
     </g>
    </g>
    <g id="line2d_23">
     <path d="M 335.876684 90.791633 
L 344.206684 90.791633 
L 352.536684 90.791633 
" style="fill: none; stroke: #d62728; stroke-width: 1.5; stroke-linecap: square"/>
    </g>
    <g id="text_18">
     <!-- NT-1000g (500M) -->
     <g transform="translate(359.200684 93.707133) scale(0.0833 -0.0833)">
      <use xlink:href="#DejaVuSans-4e"/>
      <use xlink:href="#DejaVuSans-54" transform="translate(74.804688 0)"/>
      <use xlink:href="#DejaVuSans-2d" transform="translate(126.763672 0)"/>
      <use xlink:href="#DejaVuSans-31" transform="translate(162.847656 0)"/>
      <use xlink:href="#DejaVuSans-30" transform="translate(226.470703 0)"/>
      <use xlink:href="#DejaVuSans-30" transform="translate(290.09375 0)"/>
      <use xlink:href="#DejaVuSans-30" transform="translate(353.716797 0)"/>
      <use xlink:href="#DejaVuSans-67" transform="translate(417.339844 0)"/>
      <use xlink:href="#DejaVuSans-20" transform="translate(480.816406 0)"/>
      <use xlink:href="#DejaVuSans-28" transform="translate(512.603516 0)"/>
      <use xlink:href="#DejaVuSans-35" transform="translate(551.617188 0)"/>
      <use xlink:href="#DejaVuSans-30" transform="translate(615.240234 0)"/>
      <use xlink:href="#DejaVuSans-30" transform="translate(678.863281 0)"/>
      <use xlink:href="#DejaVuSans-4d" transform="translate(742.486328 0)"/>
      <use xlink:href="#DejaVuSans-29" transform="translate(828.765625 0)"/>
     </g>
    </g>
    <g id="line2d_24">
     <path d="M 335.876684 103.018511 
L 344.206684 103.018511 
L 352.536684 103.018511 
" style="fill: none; stroke: #9467bd; stroke-width: 1.5; stroke-linecap: square"/>
    </g>
    <g id="text_19">
     <!-- NT-MS V2 (250M) -->
     <g transform="translate(359.200684 105.934011) scale(0.0833 -0.0833)">
      <use xlink:href="#DejaVuSans-4e"/>
      <use xlink:href="#DejaVuSans-54" transform="translate(74.804688 0)"/>
      <use xlink:href="#DejaVuSans-2d" transform="translate(126.763672 0)"/>
      <use xlink:href="#DejaVuSans-4d" transform="translate(162.847656 0)"/>
      <use xlink:href="#DejaVuSans-53" transform="translate(249.126953 0)"/>
      <use xlink:href="#DejaVuSans-20" transform="translate(312.603516 0)"/>
      <use xlink:href="#DejaVuSans-56" transform="translate(344.390625 0)"/>
      <use xlink:href="#DejaVuSans-32" transform="translate(412.798828 0)"/>
      <use xlink:href="#DejaVuSans-20" transform="translate(476.421875 0)"/>
      <use xlink:href="#DejaVuSans-28" transform="translate(508.208984 0)"/>
      <use xlink:href="#DejaVuSans-32" transform="translate(547.222656 0)"/>
      <use xlink:href="#DejaVuSans-35" transform="translate(610.845703 0)"/>
      <use xlink:href="#DejaVuSans-30" transform="translate(674.46875 0)"/>
      <use xlink:href="#DejaVuSans-4d" transform="translate(738.091797 0)"/>
      <use xlink:href="#DejaVuSans-29" transform="translate(824.371094 0)"/>
     </g>
    </g>
    <g id="line2d_25">
     <path d="M 335.876684 115.245389 
L 344.206684 115.245389 
L 352.536684 115.245389 
" style="fill: none; stroke: #8c564b; stroke-width: 1.5; stroke-linecap: square"/>
    </g>
    <g id="text_20">
     <!-- NT-MS V2 (100M) -->
     <g transform="translate(359.200684 118.160889) scale(0.0833 -0.0833)">
      <use xlink:href="#DejaVuSans-4e"/>
      <use xlink:href="#DejaVuSans-54" transform="translate(74.804688 0)"/>
      <use xlink:href="#DejaVuSans-2d" transform="translate(126.763672 0)"/>
      <use xlink:href="#DejaVuSans-4d" transform="translate(162.847656 0)"/>
      <use xlink:href="#DejaVuSans-53" transform="translate(249.126953 0)"/>
      <use xlink:href="#DejaVuSans-20" transform="translate(312.603516 0)"/>
      <use xlink:href="#DejaVuSans-56" transform="translate(344.390625 0)"/>
      <use xlink:href="#DejaVuSans-32" transform="translate(412.798828 0)"/>
      <use xlink:href="#DejaVuSans-20" transform="translate(476.421875 0)"/>
      <use xlink:href="#DejaVuSans-28" transform="translate(508.208984 0)"/>
      <use xlink:href="#DejaVuSans-31" transform="translate(547.222656 0)"/>
      <use xlink:href="#DejaVuSans-30" transform="translate(610.845703 0)"/>
      <use xlink:href="#DejaVuSans-30" transform="translate(674.46875 0)"/>
      <use xlink:href="#DejaVuSans-4d" transform="translate(738.091797 0)"/>
      <use xlink:href="#DejaVuSans-29" transform="translate(824.371094 0)"/>
     </g>
    </g>
    <g id="line2d_26">
     <path d="M 335.876684 127.472267 
L 344.206684 127.472267 
L 352.536684 127.472267 
" style="fill: none; stroke: #e377c2; stroke-width: 1.5; stroke-linecap: square"/>
    </g>
    <g id="text_21">
     <!-- NT-Human-Ref. (500M) -->
     <g transform="translate(359.200684 130.387767) scale(0.0833 -0.0833)">
      <defs>
       <path id="DejaVuSans-48" d="M 628 4666 
L 1259 4666 
L 1259 2753 
L 3553 2753 
L 3553 4666 
L 4184 4666 
L 4184 0 
L 3553 0 
L 3553 2222 
L 1259 2222 
L 1259 0 
L 628 0 
L 628 4666 
z
" transform="scale(0.015625)"/>
       <path id="DejaVuSans-75" d="M 544 1381 
L 544 3500 
L 1119 3500 
L 1119 1403 
Q 1119 906 1312 657 
Q 1506 409 1894 409 
Q 2359 409 2629 706 
Q 2900 1003 2900 1516 
L 2900 3500 
L 3475 3500 
L 3475 0 
L 2900 0 
L 2900 538 
Q 2691 219 2414 64 
Q 2138 -91 1772 -91 
Q 1169 -91 856 284 
Q 544 659 544 1381 
z
M 1991 3584 
L 1991 3584 
z
" transform="scale(0.015625)"/>
       <path id="DejaVuSans-52" d="M 2841 2188 
Q 3044 2119 3236 1894 
Q 3428 1669 3622 1275 
L 4263 0 
L 3584 0 
L 2988 1197 
Q 2756 1666 2539 1819 
Q 2322 1972 1947 1972 
L 1259 1972 
L 1259 0 
L 628 0 
L 628 4666 
L 2053 4666 
Q 2853 4666 3247 4331 
Q 3641 3997 3641 3322 
Q 3641 2881 3436 2590 
Q 3231 2300 2841 2188 
z
M 1259 4147 
L 1259 2491 
L 2053 2491 
Q 2509 2491 2742 2702 
Q 2975 2913 2975 3322 
Q 2975 3731 2742 3939 
Q 2509 4147 2053 4147 
L 1259 4147 
z
" transform="scale(0.015625)"/>
       <path id="DejaVuSans-66" d="M 2375 4863 
L 2375 4384 
L 1825 4384 
Q 1516 4384 1395 4259 
Q 1275 4134 1275 3809 
L 1275 3500 
L 2222 3500 
L 2222 3053 
L 1275 3053 
L 1275 0 
L 697 0 
L 697 3053 
L 147 3053 
L 147 3500 
L 697 3500 
L 697 3744 
Q 697 4328 969 4595 
Q 1241 4863 1831 4863 
L 2375 4863 
z
" transform="scale(0.015625)"/>
      </defs>
      <use xlink:href="#DejaVuSans-4e"/>
      <use xlink:href="#DejaVuSans-54" transform="translate(74.804688 0)"/>
      <use xlink:href="#DejaVuSans-2d" transform="translate(126.763672 0)"/>
      <use xlink:href="#DejaVuSans-48" transform="translate(162.847656 0)"/>
      <use xlink:href="#DejaVuSans-75" transform="translate(238.042969 0)"/>
      <use xlink:href="#DejaVuSans-6d" transform="translate(301.421875 0)"/>
      <use xlink:href="#DejaVuSans-61" transform="translate(398.833984 0)"/>
      <use xlink:href="#DejaVuSans-6e" transform="translate(460.113281 0)"/>
      <use xlink:href="#DejaVuSans-2d" transform="translate(523.492188 0)"/>
      <use xlink:href="#DejaVuSans-52" transform="translate(559.576172 0)"/>
      <use xlink:href="#DejaVuSans-65" transform="translate(624.558594 0)"/>
      <use xlink:href="#DejaVuSans-66" transform="translate(686.082031 0)"/>
      <use xlink:href="#DejaVuSans-2e" transform="translate(714.037109 0)"/>
      <use xlink:href="#DejaVuSans-20" transform="translate(745.824219 0)"/>
      <use xlink:href="#DejaVuSans-28" transform="translate(777.611328 0)"/>
      <use xlink:href="#DejaVuSans-35" transform="translate(816.625 0)"/>
      <use xlink:href="#DejaVuSans-30" transform="translate(880.248047 0)"/>
      <use xlink:href="#DejaVuSans-30" transform="translate(943.871094 0)"/>
      <use xlink:href="#DejaVuSans-4d" transform="translate(1007.494141 0)"/>
      <use xlink:href="#DejaVuSans-29" transform="translate(1093.773438 0)"/>
     </g>
    </g>
    <g id="line2d_27">
     <path d="M 335.876684 139.699145 
L 344.206684 139.699145 
L 352.536684 139.699145 
" style="fill: none; stroke: #7f7f7f; stroke-width: 1.5; stroke-linecap: square"/>
    </g>
    <g id="text_22">
     <!-- NT-MS V2 (500M) -->
     <g transform="translate(359.200684 142.614645) scale(0.0833 -0.0833)">
      <use xlink:href="#DejaVuSans-4e"/>
      <use xlink:href="#DejaVuSans-54" transform="translate(74.804688 0)"/>
      <use xlink:href="#DejaVuSans-2d" transform="translate(126.763672 0)"/>
      <use xlink:href="#DejaVuSans-4d" transform="translate(162.847656 0)"/>
      <use xlink:href="#DejaVuSans-53" transform="translate(249.126953 0)"/>
      <use xlink:href="#DejaVuSans-20" transform="translate(312.603516 0)"/>
      <use xlink:href="#DejaVuSans-56" transform="translate(344.390625 0)"/>
      <use xlink:href="#DejaVuSans-32" transform="translate(412.798828 0)"/>
      <use xlink:href="#DejaVuSans-20" transform="translate(476.421875 0)"/>
      <use xlink:href="#DejaVuSans-28" transform="translate(508.208984 0)"/>
      <use xlink:href="#DejaVuSans-35" transform="translate(547.222656 0)"/>
      <use xlink:href="#DejaVuSans-30" transform="translate(610.845703 0)"/>
      <use xlink:href="#DejaVuSans-30" transform="translate(674.46875 0)"/>
      <use xlink:href="#DejaVuSans-4d" transform="translate(738.091797 0)"/>
      <use xlink:href="#DejaVuSans-29" transform="translate(824.371094 0)"/>
     </g>
    </g>
   </g>
  </g>
 </g>
 <defs>
  <clipPath id="pdf5403be27">
   <rect x="72" y="43.2" width="446.4" height="277.2"/>
  </clipPath>
 </defs>
</svg>
