<?xml version="1.0" encoding="utf-8" standalone="no"?>
<!DOCTYPE svg PUBLIC "-//W3C//DTD SVG 1.1//EN"
  "http://www.w3.org/Graphics/SVG/1.1/DTD/svg11.dtd">
<svg xmlns:xlink="http://www.w3.org/1999/xlink" width="576pt" height="360pt" viewBox="0 0 576 360" xmlns="http://www.w3.org/2000/svg" version="1.1">
 <metadata>
  <rdf:RDF xmlns:dc="http://purl.org/dc/elements/1.1/" xmlns:cc="http://creativecommons.org/ns#" xmlns:rdf="http://www.w3.org/1999/02/22-rdf-syntax-ns#">
   <cc:Work>
    <dc:type rdf:resource="http://purl.org/dc/dcmitype/StillImage"/>
    <dc:date>2025-01-07T03:55:00.644013</dc:date>
    <dc:format>image/svg+xml</dc:format>
    <dc:creator>
     <cc:Agent>
      <dc:title>Matplotlib v3.10.0, https://matplotlib.org/</dc:title>
     </cc:Agent>
    </dc:creator>
   </cc:Work>
  </rdf:RDF>
 </metadata>
 <defs>
  <style type="text/css">*{stroke-linejoin: round; stroke-linecap: butt}</style>
 </defs>
 <g id="figure_1">
  <g id="patch_1">
   <path d="M 0 360 
L 576 360 
L 576 0 
L 0 0 
z
" style="fill: #ffffff"/>
  </g>
  <g id="axes_1">
   <g id="patch_2">
    <path d="M 72 320.4 
L 518.4 320.4 
L 518.4 43.2 
L 72 43.2 
z
" style="fill: #ffffff"/>
   </g>
   <g id="matplotlib.axis_1">
    <g id="xtick_1">
     <g id="line2d_1">
      <defs>
       <path id="mfc1943fd3f" d="M 0 0 
L 0 3.5 
" style="stroke: #000000; stroke-width: 0.8"/>
      </defs>
      <g>
       <use xlink:href="#mfc1943fd3f" x="157.672727" y="320.4" style="stroke: #000000; stroke-width: 0.8"/>
      </g>
     </g>
     <g id="text_1">
      <!-- 2000 -->
      <g transform="translate(144.947727 334.998438) scale(0.1 -0.1)">
       <defs>
        <path id="DejaVuSans-32" d="M 1228 531 
L 3431 531 
L 3431 0 
L 469 0 
L 469 531 
Q 828 903 1448 1529 
Q 2069 2156 2228 2338 
Q 2531 2678 2651 2914 
Q 2772 3150 2772 3378 
Q 2772 3750 2511 3984 
Q 2250 4219 1831 4219 
Q 1534 4219 1204 4116 
Q 875 4013 500 3803 
L 500 4441 
Q 881 4594 1212 4672 
Q 1544 4750 1819 4750 
Q 2544 4750 2975 4387 
Q 3406 4025 3406 3419 
Q 3406 3131 3298 2873 
Q 3191 2616 2906 2266 
Q 2828 2175 2409 1742 
Q 1991 1309 1228 531 
z
" transform="scale(0.015625)"/>
        <path id="DejaVuSans-30" d="M 2034 4250 
Q 1547 4250 1301 3770 
Q 1056 3291 1056 2328 
Q 1056 1369 1301 889 
Q 1547 409 2034 409 
Q 2525 409 2770 889 
Q 3016 1369 3016 2328 
Q 3016 3291 2770 3770 
Q 2525 4250 2034 4250 
z
M 2034 4750 
Q 2819 4750 3233 4129 
Q 3647 3509 3647 2328 
Q 3647 1150 3233 529 
Q 2819 -91 2034 -91 
Q 1250 -91 836 529 
Q 422 1150 422 2328 
Q 422 3509 836 4129 
Q 1250 4750 2034 4750 
z
" transform="scale(0.015625)"/>
       </defs>
       <use xlink:href="#DejaVuSans-32"/>
       <use xlink:href="#DejaVuSans-30" transform="translate(63.623047 0)"/>
       <use xlink:href="#DejaVuSans-30" transform="translate(127.246094 0)"/>
       <use xlink:href="#DejaVuSans-30" transform="translate(190.869141 0)"/>
      </g>
     </g>
    </g>
    <g id="xtick_2">
     <g id="line2d_2">
      <g>
       <use xlink:href="#mfc1943fd3f" x="247.854545" y="320.4" style="stroke: #000000; stroke-width: 0.8"/>
      </g>
     </g>
     <g id="text_2">
      <!-- 4000 -->
      <g transform="translate(235.129545 334.998438) scale(0.1 -0.1)">
       <defs>
        <path id="DejaVuSans-34" d="M 2419 4116 
L 825 1625 
L 2419 1625 
L 2419 4116 
z
M 2253 4666 
L 3047 4666 
L 3047 1625 
L 3713 1625 
L 3713 1100 
L 3047 1100 
L 3047 0 
L 2419 0 
L 2419 1100 
L 313 1100 
L 313 1709 
L 2253 4666 
z
" transform="scale(0.015625)"/>
       </defs>
       <use xlink:href="#DejaVuSans-34"/>
       <use xlink:href="#DejaVuSans-30" transform="translate(63.623047 0)"/>
       <use xlink:href="#DejaVuSans-30" transform="translate(127.246094 0)"/>
       <use xlink:href="#DejaVuSans-30" transform="translate(190.869141 0)"/>
      </g>
     </g>
    </g>
    <g id="xtick_3">
     <g id="line2d_3">
      <g>
       <use xlink:href="#mfc1943fd3f" x="338.036364" y="320.4" style="stroke: #000000; stroke-width: 0.8"/>
      </g>
     </g>
     <g id="text_3">
      <!-- 6000 -->
      <g transform="translate(325.311364 334.998438) scale(0.1 -0.1)">
       <defs>
        <path id="DejaVuSans-36" d="M 2113 2584 
Q 1688 2584 1439 2293 
Q 1191 2003 1191 1497 
Q 1191 994 1439 701 
Q 1688 409 2113 409 
Q 2538 409 2786 701 
Q 3034 994 3034 1497 
Q 3034 2003 2786 2293 
Q 2538 2584 2113 2584 
z
M 3366 4563 
L 3366 3988 
Q 3128 4100 2886 4159 
Q 2644 4219 2406 4219 
Q 1781 4219 1451 3797 
Q 1122 3375 1075 2522 
Q 1259 2794 1537 2939 
Q 1816 3084 2150 3084 
Q 2853 3084 3261 2657 
Q 3669 2231 3669 1497 
Q 3669 778 3244 343 
Q 2819 -91 2113 -91 
Q 1303 -91 875 529 
Q 447 1150 447 2328 
Q 447 3434 972 4092 
Q 1497 4750 2381 4750 
Q 2619 4750 2861 4703 
Q 3103 4656 3366 4563 
z
" transform="scale(0.015625)"/>
       </defs>
       <use xlink:href="#DejaVuSans-36"/>
       <use xlink:href="#DejaVuSans-30" transform="translate(63.623047 0)"/>
       <use xlink:href="#DejaVuSans-30" transform="translate(127.246094 0)"/>
       <use xlink:href="#DejaVuSans-30" transform="translate(190.869141 0)"/>
      </g>
     </g>
    </g>
    <g id="xtick_4">
     <g id="line2d_4">
      <g>
       <use xlink:href="#mfc1943fd3f" x="428.218182" y="320.4" style="stroke: #000000; stroke-width: 0.8"/>
      </g>
     </g>
     <g id="text_4">
      <!-- 8000 -->
      <g transform="translate(415.493182 334.998438) scale(0.1 -0.1)">
       <defs>
        <path id="DejaVuSans-38" d="M 2034 2216 
Q 1584 2216 1326 1975 
Q 1069 1734 1069 1313 
Q 1069 891 1326 650 
Q 1584 409 2034 409 
Q 2484 409 2743 651 
Q 3003 894 3003 1313 
Q 3003 1734 2745 1975 
Q 2488 2216 2034 2216 
z
M 1403 2484 
Q 997 2584 770 2862 
Q 544 3141 544 3541 
Q 544 4100 942 4425 
Q 1341 4750 2034 4750 
Q 2731 4750 3128 4425 
Q 3525 4100 3525 3541 
Q 3525 3141 3298 2862 
Q 3072 2584 2669 2484 
Q 3125 2378 3379 2068 
Q 3634 1759 3634 1313 
Q 3634 634 3220 271 
Q 2806 -91 2034 -91 
Q 1263 -91 848 271 
Q 434 634 434 1313 
Q 434 1759 690 2068 
Q 947 2378 1403 2484 
z
M 1172 3481 
Q 1172 3119 1398 2916 
Q 1625 2713 2034 2713 
Q 2441 2713 2670 2916 
Q 2900 3119 2900 3481 
Q 2900 3844 2670 4047 
Q 2441 4250 2034 4250 
Q 1625 4250 1398 4047 
Q 1172 3844 1172 3481 
z
" transform="scale(0.015625)"/>
       </defs>
       <use xlink:href="#DejaVuSans-38"/>
       <use xlink:href="#DejaVuSans-30" transform="translate(63.623047 0)"/>
       <use xlink:href="#DejaVuSans-30" transform="translate(127.246094 0)"/>
       <use xlink:href="#DejaVuSans-30" transform="translate(190.869141 0)"/>
      </g>
     </g>
    </g>
    <g id="xtick_5">
     <g id="line2d_5">
      <g>
       <use xlink:href="#mfc1943fd3f" x="518.4" y="320.4" style="stroke: #000000; stroke-width: 0.8"/>
      </g>
     </g>
     <g id="text_5">
      <!-- 10000 -->
      <g transform="translate(502.49375 334.998438) scale(0.1 -0.1)">
       <defs>
        <path id="DejaVuSans-31" d="M 794 531 
L 1825 531 
L 1825 4091 
L 703 3866 
L 703 4441 
L 1819 4666 
L 2450 4666 
L 2450 531 
L 3481 531 
L 3481 0 
L 794 0 
L 794 531 
z
" transform="scale(0.015625)"/>
       </defs>
       <use xlink:href="#DejaVuSans-31"/>
       <use xlink:href="#DejaVuSans-30" transform="translate(63.623047 0)"/>
       <use xlink:href="#DejaVuSans-30" transform="translate(127.246094 0)"/>
       <use xlink:href="#DejaVuSans-30" transform="translate(190.869141 0)"/>
       <use xlink:href="#DejaVuSans-30" transform="translate(254.492188 0)"/>
      </g>
     </g>
    </g>
    <g id="text_6">
     <!-- Training steps -->
     <g transform="translate(260.464844 348.676562) scale(0.1 -0.1)">
      <defs>
       <path id="DejaVuSans-54" d="M -19 4666 
L 3928 4666 
L 3928 4134 
L 2272 4134 
L 2272 0 
L 1638 0 
L 1638 4134 
L -19 4134 
L -19 4666 
z
" transform="scale(0.015625)"/>
       <path id="DejaVuSans-72" d="M 2631 2963 
Q 2534 3019 2420 3045 
Q 2306 3072 2169 3072 
Q 1681 3072 1420 2755 
Q 1159 2438 1159 1844 
L 1159 0 
L 581 0 
L 581 3500 
L 1159 3500 
L 1159 2956 
Q 1341 3275 1631 3429 
Q 1922 3584 2338 3584 
Q 2397 3584 2469 3576 
Q 2541 3569 2628 3553 
L 2631 2963 
z
" transform="scale(0.015625)"/>
       <path id="DejaVuSans-61" d="M 2194 1759 
Q 1497 1759 1228 1600 
Q 959 1441 959 1056 
Q 959 750 1161 570 
Q 1363 391 1709 391 
Q 2188 391 2477 730 
Q 2766 1069 2766 1631 
L 2766 1759 
L 2194 1759 
z
M 3341 1997 
L 3341 0 
L 2766 0 
L 2766 531 
Q 2569 213 2275 61 
Q 1981 -91 1556 -91 
Q 1019 -91 701 211 
Q 384 513 384 1019 
Q 384 1609 779 1909 
Q 1175 2209 1959 2209 
L 2766 2209 
L 2766 2266 
Q 2766 2663 2505 2880 
Q 2244 3097 1772 3097 
Q 1472 3097 1187 3025 
Q 903 2953 641 2809 
L 641 3341 
Q 956 3463 1253 3523 
Q 1550 3584 1831 3584 
Q 2591 3584 2966 3190 
Q 3341 2797 3341 1997 
z
" transform="scale(0.015625)"/>
       <path id="DejaVuSans-69" d="M 603 3500 
L 1178 3500 
L 1178 0 
L 603 0 
L 603 3500 
z
M 603 4863 
L 1178 4863 
L 1178 4134 
L 603 4134 
L 603 4863 
z
" transform="scale(0.015625)"/>
       <path id="DejaVuSans-6e" d="M 3513 2113 
L 3513 0 
L 2938 0 
L 2938 2094 
Q 2938 2591 2744 2837 
Q 2550 3084 2163 3084 
Q 1697 3084 1428 2787 
Q 1159 2491 1159 1978 
L 1159 0 
L 581 0 
L 581 3500 
L 1159 3500 
L 1159 2956 
Q 1366 3272 1645 3428 
Q 1925 3584 2291 3584 
Q 2894 3584 3203 3211 
Q 3513 2838 3513 2113 
z
" transform="scale(0.015625)"/>
       <path id="DejaVuSans-67" d="M 2906 1791 
Q 2906 2416 2648 2759 
Q 2391 3103 1925 3103 
Q 1463 3103 1205 2759 
Q 947 2416 947 1791 
Q 947 1169 1205 825 
Q 1463 481 1925 481 
Q 2391 481 2648 825 
Q 2906 1169 2906 1791 
z
M 3481 434 
Q 3481 -459 3084 -895 
Q 2688 -1331 1869 -1331 
Q 1566 -1331 1297 -1286 
Q 1028 -1241 775 -1147 
L 775 -588 
Q 1028 -725 1275 -790 
Q 1522 -856 1778 -856 
Q 2344 -856 2625 -561 
Q 2906 -266 2906 331 
L 2906 616 
Q 2728 306 2450 153 
Q 2172 0 1784 0 
Q 1141 0 747 490 
Q 353 981 353 1791 
Q 353 2603 747 3093 
Q 1141 3584 1784 3584 
Q 2172 3584 2450 3431 
Q 2728 3278 2906 2969 
L 2906 3500 
L 3481 3500 
L 3481 434 
z
" transform="scale(0.015625)"/>
       <path id="DejaVuSans-20" transform="scale(0.015625)"/>
       <path id="DejaVuSans-73" d="M 2834 3397 
L 2834 2853 
Q 2591 2978 2328 3040 
Q 2066 3103 1784 3103 
Q 1356 3103 1142 2972 
Q 928 2841 928 2578 
Q 928 2378 1081 2264 
Q 1234 2150 1697 2047 
L 1894 2003 
Q 2506 1872 2764 1633 
Q 3022 1394 3022 966 
Q 3022 478 2636 193 
Q 2250 -91 1575 -91 
Q 1294 -91 989 -36 
Q 684 19 347 128 
L 347 722 
Q 666 556 975 473 
Q 1284 391 1588 391 
Q 1994 391 2212 530 
Q 2431 669 2431 922 
Q 2431 1156 2273 1281 
Q 2116 1406 1581 1522 
L 1381 1569 
Q 847 1681 609 1914 
Q 372 2147 372 2553 
Q 372 3047 722 3315 
Q 1072 3584 1716 3584 
Q 2034 3584 2315 3537 
Q 2597 3491 2834 3397 
z
" transform="scale(0.015625)"/>
       <path id="DejaVuSans-74" d="M 1172 4494 
L 1172 3500 
L 2356 3500 
L 2356 3053 
L 1172 3053 
L 1172 1153 
Q 1172 725 1289 603 
Q 1406 481 1766 481 
L 2356 481 
L 2356 0 
L 1766 0 
Q 1100 0 847 248 
Q 594 497 594 1153 
L 594 3053 
L 172 3053 
L 172 3500 
L 594 3500 
L 594 4494 
L 1172 4494 
z
" transform="scale(0.015625)"/>
       <path id="DejaVuSans-65" d="M 3597 1894 
L 3597 1613 
L 953 1613 
Q 991 1019 1311 708 
Q 1631 397 2203 397 
Q 2534 397 2845 478 
Q 3156 559 3463 722 
L 3463 178 
Q 3153 47 2828 -22 
Q 2503 -91 2169 -91 
Q 1331 -91 842 396 
Q 353 884 353 1716 
Q 353 2575 817 3079 
Q 1281 3584 2069 3584 
Q 2775 3584 3186 3129 
Q 3597 2675 3597 1894 
z
M 3022 2063 
Q 3016 2534 2758 2815 
Q 2500 3097 2075 3097 
Q 1594 3097 1305 2825 
Q 1016 2553 972 2059 
L 3022 2063 
z
" transform="scale(0.015625)"/>
       <path id="DejaVuSans-70" d="M 1159 525 
L 1159 -1331 
L 581 -1331 
L 581 3500 
L 1159 3500 
L 1159 2969 
Q 1341 3281 1617 3432 
Q 1894 3584 2278 3584 
Q 2916 3584 3314 3078 
Q 3713 2572 3713 1747 
Q 3713 922 3314 415 
Q 2916 -91 2278 -91 
Q 1894 -91 1617 61 
Q 1341 213 1159 525 
z
M 3116 1747 
Q 3116 2381 2855 2742 
Q 2594 3103 2138 3103 
Q 1681 3103 1420 2742 
Q 1159 2381 1159 1747 
Q 1159 1113 1420 752 
Q 1681 391 2138 391 
Q 2594 391 2855 752 
Q 3116 1113 3116 1747 
z
" transform="scale(0.015625)"/>
      </defs>
      <use xlink:href="#DejaVuSans-54"/>
      <use xlink:href="#DejaVuSans-72" transform="translate(46.333984 0)"/>
      <use xlink:href="#DejaVuSans-61" transform="translate(87.447266 0)"/>
      <use xlink:href="#DejaVuSans-69" transform="translate(148.726562 0)"/>
      <use xlink:href="#DejaVuSans-6e" transform="translate(176.509766 0)"/>
      <use xlink:href="#DejaVuSans-69" transform="translate(239.888672 0)"/>
      <use xlink:href="#DejaVuSans-6e" transform="translate(267.671875 0)"/>
      <use xlink:href="#DejaVuSans-67" transform="translate(331.050781 0)"/>
      <use xlink:href="#DejaVuSans-20" transform="translate(394.527344 0)"/>
      <use xlink:href="#DejaVuSans-73" transform="translate(426.314453 0)"/>
      <use xlink:href="#DejaVuSans-74" transform="translate(478.414062 0)"/>
      <use xlink:href="#DejaVuSans-65" transform="translate(517.623047 0)"/>
      <use xlink:href="#DejaVuSans-70" transform="translate(579.146484 0)"/>
      <use xlink:href="#DejaVuSans-73" transform="translate(642.623047 0)"/>
     </g>
    </g>
   </g>
   <g id="matplotlib.axis_2">
    <g id="ytick_1">
     <g id="line2d_6">
      <defs>
       <path id="m1e412eebe5" d="M 0 0 
L -3.5 0 
" style="stroke: #000000; stroke-width: 0.8"/>
      </defs>
      <g>
       <use xlink:href="#m1e412eebe5" x="72" y="310.210533" style="stroke: #000000; stroke-width: 0.8"/>
      </g>
     </g>
     <g id="text_7">
      <!-- 0.0 -->
      <g transform="translate(49.096875 314.009752) scale(0.1 -0.1)">
       <defs>
        <path id="DejaVuSans-2e" d="M 684 794 
L 1344 794 
L 1344 0 
L 684 0 
L 684 794 
z
" transform="scale(0.015625)"/>
       </defs>
       <use xlink:href="#DejaVuSans-30"/>
       <use xlink:href="#DejaVuSans-2e" transform="translate(63.623047 0)"/>
       <use xlink:href="#DejaVuSans-30" transform="translate(95.410156 0)"/>
      </g>
     </g>
    </g>
    <g id="ytick_2">
     <g id="line2d_7">
      <g>
       <use xlink:href="#m1e412eebe5" x="72" y="253.4921" style="stroke: #000000; stroke-width: 0.8"/>
      </g>
     </g>
     <g id="text_8">
      <!-- 0.2 -->
      <g transform="translate(49.096875 257.291319) scale(0.1 -0.1)">
       <use xlink:href="#DejaVuSans-30"/>
       <use xlink:href="#DejaVuSans-2e" transform="translate(63.623047 0)"/>
       <use xlink:href="#DejaVuSans-32" transform="translate(95.410156 0)"/>
      </g>
     </g>
    </g>
    <g id="ytick_3">
     <g id="line2d_8">
      <g>
       <use xlink:href="#m1e412eebe5" x="72" y="196.773666" style="stroke: #000000; stroke-width: 0.8"/>
      </g>
     </g>
     <g id="text_9">
      <!-- 0.4 -->
      <g transform="translate(49.096875 200.572885) scale(0.1 -0.1)">
       <use xlink:href="#DejaVuSans-30"/>
       <use xlink:href="#DejaVuSans-2e" transform="translate(63.623047 0)"/>
       <use xlink:href="#DejaVuSans-34" transform="translate(95.410156 0)"/>
      </g>
     </g>
    </g>
    <g id="ytick_4">
     <g id="line2d_9">
      <g>
       <use xlink:href="#m1e412eebe5" x="72" y="140.055233" style="stroke: #000000; stroke-width: 0.8"/>
      </g>
     </g>
     <g id="text_10">
      <!-- 0.6 -->
      <g transform="translate(49.096875 143.854452) scale(0.1 -0.1)">
       <use xlink:href="#DejaVuSans-30"/>
       <use xlink:href="#DejaVuSans-2e" transform="translate(63.623047 0)"/>
       <use xlink:href="#DejaVuSans-36" transform="translate(95.410156 0)"/>
      </g>
     </g>
    </g>
    <g id="ytick_5">
     <g id="line2d_10">
      <g>
       <use xlink:href="#m1e412eebe5" x="72" y="83.336799" style="stroke: #000000; stroke-width: 0.8"/>
      </g>
     </g>
     <g id="text_11">
      <!-- 0.8 -->
      <g transform="translate(49.096875 87.136018) scale(0.1 -0.1)">
       <use xlink:href="#DejaVuSans-30"/>
       <use xlink:href="#DejaVuSans-2e" transform="translate(63.623047 0)"/>
       <use xlink:href="#DejaVuSans-38" transform="translate(95.410156 0)"/>
      </g>
     </g>
    </g>
    <g id="text_12">
     <!-- Loss -->
     <g transform="translate(43.017187 192.767187) rotate(-90) scale(0.1 -0.1)">
      <defs>
       <path id="DejaVuSans-4c" d="M 628 4666 
L 1259 4666 
L 1259 531 
L 3531 531 
L 3531 0 
L 628 0 
L 628 4666 
z
" transform="scale(0.015625)"/>
       <path id="DejaVuSans-6f" d="M 1959 3097 
Q 1497 3097 1228 2736 
Q 959 2375 959 1747 
Q 959 1119 1226 758 
Q 1494 397 1959 397 
Q 2419 397 2687 759 
Q 2956 1122 2956 1747 
Q 2956 2369 2687 2733 
Q 2419 3097 1959 3097 
z
M 1959 3584 
Q 2709 3584 3137 3096 
Q 3566 2609 3566 1747 
Q 3566 888 3137 398 
Q 2709 -91 1959 -91 
Q 1206 -91 779 398 
Q 353 888 353 1747 
Q 353 2609 779 3096 
Q 1206 3584 1959 3584 
z
" transform="scale(0.015625)"/>
      </defs>
      <use xlink:href="#DejaVuSans-4c"/>
      <use xlink:href="#DejaVuSans-6f" transform="translate(53.962891 0)"/>
      <use xlink:href="#DejaVuSans-73" transform="translate(115.144531 0)"/>
      <use xlink:href="#DejaVuSans-73" transform="translate(167.244141 0)"/>
     </g>
    </g>
   </g>
   <g id="line2d_11">
    <path d="M 72 90.851992 
L 76.509091 99.728427 
L 81.018182 106.13761 
L 85.527273 109.427279 
L 90.036364 108.122755 
L 94.545455 109.994463 
L 99.054545 109.455638 
L 103.563636 105.683862 
L 108.072727 108.037677 
L 112.581818 108.491425 
L 117.090909 110.646725 
L 121.6 106.648076 
L 126.109091 108.689939 
L 130.618182 108.945172 
L 135.127273 109.852667 
L 139.636364 114.248346 
L 144.145455 110.136259 
L 148.654545 112.29156 
L 153.163636 110.958677 
L 157.672727 107.413774 
L 162.181818 111.809453 
L 166.690909 113.539365 
L 171.2 110.192978 
L 175.709091 109.540716 
L 180.218182 111.894531 
L 184.727273 112.66023 
L 189.236364 112.149764 
L 193.745455 112.518433 
L 198.254545 110.618366 
L 202.763636 111.072113 
L 207.272727 115.099122 
L 211.781818 112.745307 
L 216.290909 111.92289 
L 220.8 114.390142 
L 225.309091 114.957326 
L 229.818182 113.596084 
L 234.327273 114.475219 
L 238.836364 114.10655 
L 243.345455 117.112627 
L 247.854545 114.021472 
L 252.363636 114.787171 
L 256.872727 114.44686 
L 261.381818 114.049831 
L 265.890909 117.197704 
L 270.4 115.52451 
L 274.909091 119.52316 
L 279.418182 117.538015 
L 283.927273 113.709521 
L 288.436364 119.948548 
L 292.945455 117.679811 
L 297.454545 117.651452 
L 301.963636 119.608238 
L 306.472727 120.147063 
L 310.981818 122.132208 
L 315.490909 121.054558 
L 320 120.430655 
L 324.509091 117.027549 
L 329.018182 123.15314 
L 333.527273 121.763538 
L 338.036364 120.827684 
L 342.545455 124.996489 
L 347.054545 115.637947 
L 351.563636 121.082917 
L 356.072727 120.714247 
L 360.581818 127.293585 
L 365.090909 120.430655 
L 369.6 117.679811 
L 374.109091 122.387441 
L 378.618182 119.778393 
L 383.127273 125.932343 
L 387.636364 117.226063 
L 392.145455 126.215935 
L 396.654545 124.032275 
L 401.163636 126.78312 
L 405.672727 127.775692 
L 410.181818 128.768265 
L 414.690909 123.947198 
L 419.2 130.498177 
L 423.709091 124.400945 
L 428.218182 129.193653 
L 432.727273 130.895206 
L 437.236364 125.251722 
L 441.745455 127.4921 
L 446.254545 129.987711 
L 450.763636 124.854693 
L 455.272727 125.081567 
L 459.781818 129.023498 
L 464.290909 125.648751 
L 468.8 125.166644 
L 473.309091 128.427954 
L 477.818182 126.612964 
L 482.327273 124.93977 
L 486.836364 126.641323 
L 491.345455 134.213234 
L 495.854545 120.175422 
L 500.363636 129.987711 
L 504.872727 127.605537 
L 509.381818 133.958001 
L 513.890909 132.398244 
L 518.4 127.378663 
" clip-path="url(#p5913459fda)" style="fill: none; stroke: #1f77b4; stroke-width: 1.5; stroke-linecap: square"/>
   </g>
   <g id="line2d_12">
    <path d="M 72 55.8 
L 76.509091 96.098447 
L 81.018182 98.53734 
L 85.527273 94.53869 
L 90.036364 98.423903 
L 94.545455 104.124105 
L 99.054545 105.712221 
L 103.563636 98.962728 
L 108.072727 108.264551 
L 112.581818 97.459689 
L 117.090909 101.089669 
L 121.6 100.35233 
L 126.109091 105.088319 
L 130.618182 103.528562 
L 135.127273 95.105874 
L 139.636364 92.808778 
L 144.145455 107.300338 
L 148.654545 96.098447 
L 153.163636 95.587981 
L 157.672727 105.542066 
L 162.181818 103.330047 
L 166.690909 104.521134 
L 171.2 104.209183 
L 175.709091 98.679136 
L 180.218182 104.748008 
L 184.727273 104.095746 
L 189.236364 97.885078 
L 193.745455 98.735854 
L 198.254545 91.220662 
L 202.763636 109.257124 
L 207.272727 101.543417 
L 211.781818 104.606212 
L 216.290909 112.716948 
L 220.8 106.591357 
L 225.309091 103.046455 
L 229.818182 108.264551 
L 234.327273 107.725726 
L 238.836364 111.21391 
L 243.345455 108.860095 
L 247.854545 103.58528 
L 252.363636 104.294261 
L 256.872727 99.841864 
L 261.381818 113.170695 
L 265.890909 111.837812 
L 270.4 101.713572 
L 274.909091 109.767589 
L 279.418182 110.618366 
L 283.927273 114.390142 
L 288.436364 109.625793 
L 292.945455 111.072113 
L 297.454545 111.497502 
L 301.963636 103.95395 
L 306.472727 104.521134 
L 310.981818 109.37056 
L 315.490909 109.200405 
L 320 114.049831 
L 324.509091 111.894531 
L 329.018182 115.836462 
L 333.527273 108.29291 
L 338.036364 111.781094 
L 342.545455 115.609588 
L 347.054545 109.540716 
L 351.563636 111.610939 
L 356.072727 116.290209 
L 360.581818 119.89183 
L 365.090909 114.333423 
L 369.6 117.197704 
L 374.109091 114.248346 
L 378.618182 114.021472 
L 383.127273 116.091695 
L 387.636364 113.425928 
L 392.145455 116.658879 
L 396.654545 119.863471 
L 401.163636 120.572451 
L 405.672727 120.912762 
L 410.181818 124.96813 
L 414.690909 117.3395 
L 419.2 122.217286 
L 423.709091 115.949899 
L 428.218182 124.145712 
L 432.727273 123.663606 
L 437.236364 120.061985 
L 441.745455 121.33815 
L 446.254545 122.160567 
L 450.763636 121.650101 
L 455.272727 119.012694 
L 459.781818 124.003916 
L 464.290909 117.197704 
L 468.8 125.280081 
L 473.309091 124.060635 
L 477.818182 120.96948 
L 482.327273 123.351654 
L 486.836364 131.207157 
L 491.345455 126.726401 
L 495.854545 123.209858 
L 500.363636 121.565024 
L 504.872727 123.52181 
L 509.381818 125.024848 
L 513.890909 127.463741 
L 518.4 124.060635 
" clip-path="url(#p5913459fda)" style="fill: none; stroke: #ff7f0e; stroke-width: 1.5; stroke-linecap: square"/>
   </g>
   <g id="line2d_13">
    <path d="M 72 117.112627 
L 76.509091 123.436732 
L 81.018182 123.748683 
L 85.527273 141.047806 
L 90.036364 145.131533 
L 94.545455 174.483322 
L 99.054545 182.906009 
L 103.563636 202.927616 
L 108.072727 229.613639 
L 112.581818 232.421202 
L 117.090909 229.982309 
L 121.6 232.84659 
L 126.109091 241.637947 
L 130.618182 245.353005 
L 135.127273 244.899257 
L 139.636364 243.906685 
L 144.145455 235.115327 
L 148.654545 241.55287 
L 153.163636 260.213234 
L 157.672727 234.264551 
L 162.181818 244.417151 
L 166.690909 252.896556 
L 171.2 258.029575 
L 175.709091 246.96948 
L 180.218182 263.758136 
L 184.727273 256.696691 
L 189.236364 260.808778 
L 193.745455 265.43133 
L 198.254545 265.544767 
L 202.763636 265.43133 
L 207.272727 265.232816 
L 211.781818 252.641323 
L 216.290909 263.729777 
L 220.8 250.93977 
L 225.309091 269.912086 
L 229.818182 266.225388 
L 234.327273 272.606212 
L 238.836364 276.207833 
L 243.345455 260.01472 
L 247.854545 273.088319 
L 252.363636 270.082242 
L 256.872727 280.064686 
L 261.381818 282.560297 
L 265.890909 277.73923 
L 270.4 274.534639 
L 274.909091 276.775017 
L 279.418182 280.802026 
L 283.927273 277.824308 
L 288.436364 280.887103 
L 292.945455 259.731128 
L 297.454545 285.169345 
L 301.963636 281.652802 
L 306.472727 278.164619 
L 310.981818 259.447535 
L 315.490909 290.756111 
L 320 283.723025 
L 324.509091 272.350979 
L 329.018182 274.251047 
L 333.527273 278.391492 
L 338.036364 282.021472 
L 342.545455 273.315192 
L 347.054545 278.079541 
L 351.563636 279.21391 
L 356.072727 292.486023 
L 360.581818 277.342201 
L 365.090909 283.411074 
L 369.6 276.406347 
L 374.109091 281.36921 
L 378.618182 271.24497 
L 383.127273 276.037677 
L 387.636364 287.693315 
L 392.145455 285.084267 
L 396.654545 285.140986 
L 401.163636 289.735179 
L 405.672727 298.696691 
L 410.181818 277.994463 
L 414.690909 297.6474 
L 419.2 290.274004 
L 423.709091 297.335449 
L 428.218182 287.041053 
L 432.727273 283.751384 
L 437.236364 287.211209 
L 441.745455 289.281431 
L 446.254545 279.242269 
L 450.763636 287.863471 
L 455.272727 290.472519 
L 459.781818 295.066712 
L 464.290909 284.687238 
L 468.8 290.841188 
L 473.309091 292.032275 
L 477.818182 284.063336 
L 482.327273 299.575827 
L 486.836364 296.342876 
L 491.345455 292.656178 
L 495.854545 287.069413 
L 500.363636 291.380014 
L 504.872727 293.336799 
L 509.381818 291.663606 
L 513.890909 290.302363 
L 518.4 293.903984 
" clip-path="url(#p5913459fda)" style="fill: none; stroke: #2ca02c; stroke-width: 1.5; stroke-linecap: square"/>
   </g>
   <g id="line2d_14">
    <path d="M 72 96.155165 
L 76.509091 137.502903 
L 81.018182 183.047806 
L 85.527273 184.125456 
L 90.036364 227.231465 
L 94.545455 216.93707 
L 99.054545 219.772991 
L 103.563636 234.916813 
L 108.072727 238.121404 
L 112.581818 253.038352 
L 117.090909 235.257124 
L 121.6 246.061985 
L 126.109091 252.442809 
L 130.618182 259.334099 
L 135.127273 262.879001 
L 139.636364 258.454963 
L 144.145455 241.836462 
L 148.654545 254.995138 
L 153.163636 250.769615 
L 157.672727 234.066036 
L 162.181818 245.239568 
L 166.690909 257.348953 
L 171.2 259.731128 
L 175.709091 221.134234 
L 180.218182 248.954625 
L 184.727273 265.06266 
L 189.236364 239.879676 
L 193.745455 253.265226 
L 198.254545 245.267927 
L 202.763636 239.766239 
L 207.272727 232.789872 
L 211.781818 263.843214 
L 216.290909 241.099122 
L 220.8 256.186226 
L 225.309091 241.637947 
L 229.818182 257.008643 
L 234.327273 254.739905 
L 238.836364 264.438758 
L 243.345455 252.499527 
L 247.854545 247.650101 
L 252.363636 263.701418 
L 256.872727 268.834436 
L 261.381818 254.683187 
L 265.890909 257.802701 
L 270.4 273.201756 
L 274.909091 257.802701 
L 279.418182 249.720324 
L 283.927273 253.038352 
L 288.436364 260.808778 
L 292.945455 251.393518 
L 297.454545 270.535989 
L 301.963636 259.135584 
L 306.472727 260.837137 
L 310.981818 254.513032 
L 315.490909 272.66293 
L 320 252.130858 
L 324.509091 246.742606 
L 329.018182 270.535989 
L 333.527273 268.862795 
L 338.036364 273.343552 
L 342.545455 260.184875 
L 347.054545 276.860095 
L 351.563636 269.174747 
L 356.072727 263.219311 
L 360.581818 259.986361 
L 365.090909 264.552194 
L 369.6 257.887779 
L 374.109091 276.831735 
L 378.618182 264.807427 
L 383.127273 263.587981 
L 387.636364 268.522485 
L 392.145455 267.841864 
L 396.654545 272.039028 
L 401.163636 268.494126 
L 405.672727 282.134909 
L 410.181818 273.655503 
L 414.690909 280.830385 
L 419.2 277.824308 
L 423.709091 279.18555 
L 428.218182 285.254423 
L 432.727273 271.528562 
L 437.236364 282.702093 
L 441.745455 273.485348 
L 446.254545 266.395544 
L 450.763636 272.237542 
L 455.272727 279.866172 
L 459.781818 276.973531 
L 464.290909 269.685213 
L 468.8 283.52451 
L 473.309091 295.718974 
L 477.818182 275.895881 
L 482.327273 279.55422 
L 486.836364 285.935044 
L 491.345455 282.957326 
L 495.854545 282.843889 
L 500.363636 285.821607 
L 504.872727 275.130182 
L 509.381818 283.92154 
L 513.890909 274.421202 
L 518.4 280.830385 
" clip-path="url(#p5913459fda)" style="fill: none; stroke: #d62728; stroke-width: 1.5; stroke-linecap: square"/>
   </g>
   <g id="line2d_15">
    <path d="M 72 105.286833 
L 76.509091 154.093045 
L 81.018182 182.367184 
L 85.527273 187.868872 
L 90.036364 197.511006 
L 94.545455 200.743957 
L 99.054545 220.53869 
L 103.563636 231.570425 
L 108.072727 258.483322 
L 112.581818 251.563673 
L 117.090909 265.374612 
L 121.6 259.504254 
L 126.109091 261.09237 
L 130.618182 266.026874 
L 135.127273 267.98366 
L 139.636364 290.188926 
L 144.145455 266.253747 
L 148.654545 269.401621 
L 153.163636 269.685213 
L 157.672727 255.023498 
L 162.181818 274.052532 
L 166.690909 279.298987 
L 171.2 286.303714 
L 175.709091 261.46104 
L 180.218182 267.388116 
L 184.727273 276.491425 
L 189.236364 280.688589 
L 193.745455 278.646725 
L 198.254545 274.874949 
L 202.763636 287.494801 
L 207.272727 275.300338 
L 211.781818 271.443484 
L 216.290909 278.561648 
L 220.8 85.832411 
L 225.309091 106.704794 
L 229.818182 110.363133 
L 234.327273 139.176097 
L 238.836364 266.962728 
L 243.345455 275.21526 
L 247.854545 285.793248 
L 252.363636 276.689939 
L 256.872727 293.733828 
L 261.381818 289.848616 
L 265.890909 284.772316 
L 270.4 292.996489 
L 274.909091 287.381364 
L 279.418182 286.388791 
L 283.927273 293.053207 
L 288.436364 283.637947 
L 292.945455 284.743957 
L 297.454545 294.074139 
L 301.963636 291.436732 
L 306.472727 287.267927 
L 310.981818 274.591357 
L 315.490909 294.130858 
L 320 280.858744 
L 324.509091 285.793248 
L 329.018182 286.78582 
L 333.527273 291.748683 
L 338.036364 280.802026 
L 342.545455 277.285483 
L 347.054545 281.397569 
L 351.563636 289.082917 
L 356.072727 289.33815 
L 360.581818 288.770966 
L 365.090909 290.756111 
L 369.6 285.793248 
L 374.109091 289.735179 
L 378.618182 285.055908 
L 383.127273 287.89183 
L 387.636364 286.388791 
L 392.145455 300.114652 
L 396.654545 289.224713 
L 401.163636 298.101148 
L 405.672727 307.374612 
L 410.181818 296.427954 
L 414.690909 294.102498 
L 419.2 294.329372 
L 423.709091 303.744632 
L 428.218182 295.12343 
L 432.727273 296.56975 
L 437.236364 297.193653 
L 441.745455 299.348953 
L 446.254545 294.612964 
L 450.763636 299.660905 
L 455.272727 297.136935 
L 459.781818 290.330722 
L 464.290909 295.321945 
L 468.8 295.151789 
L 473.309091 305.162593 
L 477.818182 293.932343 
L 482.327273 301.078866 
L 486.836364 300.313167 
L 491.345455 296.910061 
L 495.854545 301.589332 
L 500.363636 297.67576 
L 504.872727 300.710196 
L 509.381818 298.951924 
L 513.890909 305.956651 
L 518.4 296.456313 
" clip-path="url(#p5913459fda)" style="fill: none; stroke: #9467bd; stroke-width: 1.5; stroke-linecap: square"/>
   </g>
   <g id="line2d_16">
    <path d="M 72 108.604862 
L 76.509091 105.088319 
L 81.018182 104.010668 
L 85.527273 118.218636 
L 90.036364 117.424578 
L 94.545455 128.824983 
L 99.054545 129.477245 
L 103.563636 132.766914 
L 108.072727 147.485348 
L 112.581818 160.899257 
L 117.090909 174.029575 
L 121.6 169.350304 
L 126.109091 180.665631 
L 130.618182 195.92289 
L 135.127273 183.161242 
L 139.636364 192.491425 
L 144.145455 195.724375 
L 148.654545 205.962053 
L 153.163636 219.687914 
L 157.672727 204.629169 
L 162.181818 217.504254 
L 166.690909 241.694666 
L 171.2 224.906009 
L 175.709091 223.43133 
L 180.218182 238.404997 
L 184.727273 248.160567 
L 189.236364 242.488724 
L 193.745455 247.848616 
L 198.254545 263.758136 
L 202.763636 259.816205 
L 207.272727 257.774342 
L 211.781818 256.583255 
L 216.290909 263.105874 
L 220.8 256.328022 
L 225.309091 264.155165 
L 229.818182 266.338825 
L 234.327273 274.704794 
L 238.836364 266.367184 
L 243.345455 272.804727 
L 247.854545 273.201756 
L 252.363636 263.899932 
L 256.872727 281.794598 
L 261.381818 269.032951 
L 265.890909 278.618366 
L 270.4 288.430655 
L 274.909091 272.719649 
L 279.418182 269.373261 
L 283.927273 292.712897 
L 288.436364 276.406347 
L 292.945455 276.548143 
L 297.454545 281.255773 
L 301.963636 286.927616 
L 306.472727 272.69129 
L 310.981818 265.941796 
L 315.490909 285.538015 
L 320 290.642674 
L 324.509091 264.637272 
L 329.018182 279.610939 
L 333.527273 279.724375 
L 338.036364 290.529237 
L 342.545455 279.100473 
L 347.054545 278.1079 
L 351.563636 266.338825 
L 356.072727 282.957326 
L 360.581818 268.267252 
L 365.090909 281.73788 
L 369.6 273.995814 
L 374.109091 289.621742 
L 378.618182 284.063336 
L 383.127273 281.964754 
L 387.636364 282.021472 
L 392.145455 285.991762 
L 396.654545 279.412424 
L 401.163636 287.466442 
L 405.672727 300.057934 
L 410.181818 284.715598 
L 414.690909 294.357731 
L 419.2 292.400945 
L 423.709091 295.435381 
L 428.218182 295.718974 
L 432.727273 287.069413 
L 437.236364 293.818906 
L 441.745455 290.359082 
L 446.254545 282.872248 
L 450.763636 284.233491 
L 455.272727 290.585955 
L 459.781818 292.457664 
L 464.290909 280.830385 
L 468.8 291.124781 
L 473.309091 302.071438 
L 477.818182 293.024848 
L 482.327273 299.689264 
L 486.836364 305.077515 
L 491.345455 294.75476 
L 495.854545 288.884402 
L 500.363636 294.726401 
L 504.872727 289.905334 
L 509.381818 290.359082 
L 513.890909 291.351654 
L 518.4 287.126131 
" clip-path="url(#p5913459fda)" style="fill: none; stroke: #8c564b; stroke-width: 1.5; stroke-linecap: square"/>
   </g>
   <g id="line2d_17">
    <path d="M 72 117.084267 
L 76.509091 159.623093 
L 81.018182 194.788521 
L 85.527273 206.869548 
L 90.036364 227.628494 
L 94.545455 225.841864 
L 99.054545 239.709521 
L 103.563636 235.285483 
L 108.072727 244.558947 
L 112.581818 240.248346 
L 117.090909 226.380689 
L 121.6 262.453612 
L 126.109091 241.439433 
L 130.618182 243.197704 
L 135.127273 237.610939 
L 139.636364 265.941796 
L 144.145455 233.9526 
L 148.654545 251.506955 
L 153.163636 250.797974 
L 157.672727 253.009993 
L 162.181818 262.623768 
L 166.690909 248.04713 
L 171.2 266.820932 
L 175.709091 251.903984 
L 180.218182 238.007968 
L 184.727273 250.712897 
L 189.236364 251.790547 
L 193.745455 251.393518 
L 198.254545 260.610263 
L 202.763636 268.012019 
L 207.272727 246.742606 
L 211.781818 270.904659 
L 216.290909 248.330722 
L 220.8 254.541391 
L 225.309091 247.990412 
L 229.818182 258.398244 
L 234.327273 255.704119 
L 238.836364 249.238217 
L 243.345455 256.611614 
L 247.854545 254.796624 
L 252.363636 270.082242 
L 256.872727 272.32262 
L 261.381818 247.366509 
L 265.890909 267.331398 
L 270.4 273.145037 
L 274.909091 260.269953 
L 279.418182 270.621067 
L 283.927273 273.315192 
L 288.436364 270.110601 
L 292.945455 260.553545 
L 297.454545 266.565699 
L 301.963636 273.740581 
L 306.472727 271.95395 
L 310.981818 266.225388 
L 315.490909 278.249696 
L 320 268.182174 
L 324.509091 246.799325 
L 329.018182 270.564348 
L 333.527273 282.418501 
L 338.036364 272.492775 
L 342.545455 256.554895 
L 347.054545 275.612289 
L 351.563636 263.27603 
L 356.072727 274.818231 
L 360.581818 256.838488 
L 365.090909 271.528562 
L 369.6 266.367184 
L 374.109091 282.305064 
L 378.618182 272.124105 
L 383.127273 270.989737 
L 387.636364 271.727076 
L 392.145455 283.354355 
L 396.654545 280.830385 
L 401.163636 283.240918 
L 405.672727 302.581904 
L 410.181818 278.81688 
L 414.690909 285.991762 
L 419.2 285.169345 
L 423.709091 288.175422 
L 428.218182 281.085618 
L 432.727273 271.868872 
L 437.236364 291.890479 
L 441.745455 283.978258 
L 446.254545 277.200405 
L 450.763636 279.327346 
L 455.272727 280.433356 
L 459.781818 291.947198 
L 464.290909 274.903309 
L 468.8 285.311141 
L 473.309091 298.129507 
L 477.818182 287.721675 
L 482.327273 289.650101 
L 486.836364 286.899257 
L 491.345455 294.499527 
L 495.854545 294.159217 
L 500.363636 290.529237 
L 504.872727 289.111276 
L 509.381818 292.287508 
L 513.890909 282.503579 
L 518.4 286.048481 
" clip-path="url(#p5913459fda)" style="fill: none; stroke: #e377c2; stroke-width: 1.5; stroke-linecap: square"/>
   </g>
   <g id="line2d_18">
    <path d="M 72 98.026874 
L 76.509091 126.215935 
L 81.018182 162.629169 
L 85.527273 182.622417 
L 90.036364 186.195679 
L 94.545455 188.294261 
L 99.054545 203.353005 
L 103.563636 205.593383 
L 108.072727 219.375962 
L 112.581818 227.827009 
L 117.090909 242.743957 
L 121.6 250.96813 
L 126.109091 257.972856 
L 130.618182 254.087643 
L 135.127273 259.305739 
L 139.636364 282.219986 
L 144.145455 261.375962 
L 148.654545 260.411749 
L 153.163636 261.375962 
L 157.672727 278.675084 
L 162.181818 271.358406 
L 166.690909 280.036327 
L 171.2 284.006617 
L 175.709091 266.225388 
L 180.218182 273.201756 
L 184.727273 279.015395 
L 189.236364 276.973531 
L 193.745455 280.490074 
L 198.254545 289.933693 
L 202.763636 291.096421 
L 207.272727 281.851317 
L 211.781818 284.63052 
L 216.290909 271.925591 
L 220.8 288.402296 
L 225.309091 274.307765 
L 229.818182 280.376637 
L 234.327273 286.615665 
L 238.836364 278.079541 
L 243.345455 278.987036 
L 247.854545 285.509656 
L 252.363636 285.594733 
L 256.872727 289.111276 
L 261.381818 288.714247 
L 265.890909 293.875625 
L 270.4 292.457664 
L 274.909091 286.615665 
L 279.418182 290.614315 
L 283.927273 288.799325 
L 288.436364 289.67846 
L 292.945455 287.89183 
L 297.454545 292.741256 
L 301.963636 292.400945 
L 306.472727 286.133558 
L 310.981818 281.397569 
L 315.490909 292.911411 
L 320 292.23079 
L 324.509091 290.812829 
L 329.018182 292.514382 
L 333.527273 298.866847 
L 338.036364 286.275354 
L 342.545455 285.055908 
L 347.054545 294.499527 
L 351.563636 293.223363 
L 356.072727 292.96813 
L 360.581818 283.240918 
L 365.090909 297.874274 
L 369.6 291.777043 
L 374.109091 290.4158 
L 378.618182 289.735179 
L 383.127273 295.804051 
L 387.636364 293.251722 
L 392.145455 295.775692 
L 396.654545 296.683187 
L 401.163636 300.596759 
L 405.672727 304.226739 
L 410.181818 296.144362 
L 414.690909 301.816205 
L 419.2 296.059284 
L 423.709091 303.262525 
L 428.218182 298.923565 
L 432.727273 299.46239 
L 437.236364 295.236867 
L 441.745455 296.314517 
L 446.254545 296.172721 
L 450.763636 305.531263 
L 455.272727 299.774342 
L 459.781818 301.702768 
L 464.290909 295.775692 
L 468.8 297.193653 
L 473.309091 303.375962 
L 477.818182 301.192302 
L 482.327273 307.8 
L 486.836364 301.419176 
L 491.345455 300.993788 
L 495.854545 296.796624 
L 500.363636 297.874274 
L 504.872727 301.362458 
L 509.381818 297.051857 
L 513.890909 305.474544 
L 518.4 298.01607 
" clip-path="url(#p5913459fda)" style="fill: none; stroke: #7f7f7f; stroke-width: 1.5; stroke-linecap: square"/>
   </g>
   <g id="patch_3">
    <path d="M 72 320.4 
L 72 43.2 
" style="fill: none; stroke: #000000; stroke-width: 0.8; stroke-linejoin: miter; stroke-linecap: square"/>
   </g>
   <g id="patch_4">
    <path d="M 518.4 320.4 
L 518.4 43.2 
" style="fill: none; stroke: #000000; stroke-width: 0.8; stroke-linejoin: miter; stroke-linecap: square"/>
   </g>
   <g id="patch_5">
    <path d="M 72 320.4 
L 518.4 320.4 
" style="fill: none; stroke: #000000; stroke-width: 0.8; stroke-linejoin: miter; stroke-linecap: square"/>
   </g>
   <g id="patch_6">
    <path d="M 72 43.2 
L 518.4 43.2 
" style="fill: none; stroke: #000000; stroke-width: 0.8; stroke-linejoin: miter; stroke-linecap: square"/>
   </g>
   <g id="text_13">
    <!-- Splice Sites (acceptors) -->
    <g transform="translate(224.724375 37.2) scale(0.12 -0.12)">
     <defs>
      <path id="DejaVuSans-53" d="M 3425 4513 
L 3425 3897 
Q 3066 4069 2747 4153 
Q 2428 4238 2131 4238 
Q 1616 4238 1336 4038 
Q 1056 3838 1056 3469 
Q 1056 3159 1242 3001 
Q 1428 2844 1947 2747 
L 2328 2669 
Q 3034 2534 3370 2195 
Q 3706 1856 3706 1288 
Q 3706 609 3251 259 
Q 2797 -91 1919 -91 
Q 1588 -91 1214 -16 
Q 841 59 441 206 
L 441 856 
Q 825 641 1194 531 
Q 1563 422 1919 422 
Q 2459 422 2753 634 
Q 3047 847 3047 1241 
Q 3047 1584 2836 1778 
Q 2625 1972 2144 2069 
L 1759 2144 
Q 1053 2284 737 2584 
Q 422 2884 422 3419 
Q 422 4038 858 4394 
Q 1294 4750 2059 4750 
Q 2388 4750 2728 4690 
Q 3069 4631 3425 4513 
z
" transform="scale(0.015625)"/>
      <path id="DejaVuSans-6c" d="M 603 4863 
L 1178 4863 
L 1178 0 
L 603 0 
L 603 4863 
z
" transform="scale(0.015625)"/>
      <path id="DejaVuSans-63" d="M 3122 3366 
L 3122 2828 
Q 2878 2963 2633 3030 
Q 2388 3097 2138 3097 
Q 1578 3097 1268 2742 
Q 959 2388 959 1747 
Q 959 1106 1268 751 
Q 1578 397 2138 397 
Q 2388 397 2633 464 
Q 2878 531 3122 666 
L 3122 134 
Q 2881 22 2623 -34 
Q 2366 -91 2075 -91 
Q 1284 -91 818 406 
Q 353 903 353 1747 
Q 353 2603 823 3093 
Q 1294 3584 2113 3584 
Q 2378 3584 2631 3529 
Q 2884 3475 3122 3366 
z
" transform="scale(0.015625)"/>
      <path id="DejaVuSans-28" d="M 1984 4856 
Q 1566 4138 1362 3434 
Q 1159 2731 1159 2009 
Q 1159 1288 1364 580 
Q 1569 -128 1984 -844 
L 1484 -844 
Q 1016 -109 783 600 
Q 550 1309 550 2009 
Q 550 2706 781 3412 
Q 1013 4119 1484 4856 
L 1984 4856 
z
" transform="scale(0.015625)"/>
      <path id="DejaVuSans-29" d="M 513 4856 
L 1013 4856 
Q 1481 4119 1714 3412 
Q 1947 2706 1947 2009 
Q 1947 1309 1714 600 
Q 1481 -109 1013 -844 
L 513 -844 
Q 928 -128 1133 580 
Q 1338 1288 1338 2009 
Q 1338 2731 1133 3434 
Q 928 4138 513 4856 
z
" transform="scale(0.015625)"/>
     </defs>
     <use xlink:href="#DejaVuSans-53"/>
     <use xlink:href="#DejaVuSans-70" transform="translate(63.476562 0)"/>
     <use xlink:href="#DejaVuSans-6c" transform="translate(126.953125 0)"/>
     <use xlink:href="#DejaVuSans-69" transform="translate(154.736328 0)"/>
     <use xlink:href="#DejaVuSans-63" transform="translate(182.519531 0)"/>
     <use xlink:href="#DejaVuSans-65" transform="translate(237.5 0)"/>
     <use xlink:href="#DejaVuSans-20" transform="translate(299.023438 0)"/>
     <use xlink:href="#DejaVuSans-53" transform="translate(330.810547 0)"/>
     <use xlink:href="#DejaVuSans-69" transform="translate(394.287109 0)"/>
     <use xlink:href="#DejaVuSans-74" transform="translate(422.070312 0)"/>
     <use xlink:href="#DejaVuSans-65" transform="translate(461.279297 0)"/>
     <use xlink:href="#DejaVuSans-73" transform="translate(522.802734 0)"/>
     <use xlink:href="#DejaVuSans-20" transform="translate(574.902344 0)"/>
     <use xlink:href="#DejaVuSans-28" transform="translate(606.689453 0)"/>
     <use xlink:href="#DejaVuSans-61" transform="translate(645.703125 0)"/>
     <use xlink:href="#DejaVuSans-63" transform="translate(706.982422 0)"/>
     <use xlink:href="#DejaVuSans-63" transform="translate(761.962891 0)"/>
     <use xlink:href="#DejaVuSans-65" transform="translate(816.943359 0)"/>
     <use xlink:href="#DejaVuSans-70" transform="translate(878.466797 0)"/>
     <use xlink:href="#DejaVuSans-74" transform="translate(941.943359 0)"/>
     <use xlink:href="#DejaVuSans-6f" transform="translate(981.152344 0)"/>
     <use xlink:href="#DejaVuSans-72" transform="translate(1042.333984 0)"/>
     <use xlink:href="#DejaVuSans-73" transform="translate(1083.447266 0)"/>
     <use xlink:href="#DejaVuSans-29" transform="translate(1135.546875 0)"/>
    </g>
   </g>
   <g id="legend_1">
    <g id="patch_7">
     <path d="M 334.210684 147.679025 
L 512.569 147.679025 
Q 514.235 147.679025 514.235 146.013025 
L 514.235 49.031 
Q 514.235 47.365 512.569 47.365 
L 334.210684 47.365 
Q 332.544684 47.365 332.544684 49.031 
L 332.544684 146.013025 
Q 332.544684 147.679025 334.210684 147.679025 
z
" style="fill: #ffffff; opacity: 0.8; stroke: #cccccc; stroke-linejoin: miter"/>
    </g>
    <g id="line2d_19">
     <path d="M 335.876684 54.110998 
L 344.206684 54.110998 
L 352.536684 54.110998 
" style="fill: none; stroke: #1f77b4; stroke-width: 1.5; stroke-linecap: square"/>
    </g>
    <g id="text_14">
     <!-- NT-MS V2 (50M) with rand. weights -->
     <g transform="translate(359.200684 57.026498) scale(0.0833 -0.0833)">
      <defs>
       <path id="DejaVuSans-4e" d="M 628 4666 
L 1478 4666 
L 3547 763 
L 3547 4666 
L 4159 4666 
L 4159 0 
L 3309 0 
L 1241 3903 
L 1241 0 
L 628 0 
L 628 4666 
z
" transform="scale(0.015625)"/>
       <path id="DejaVuSans-2d" d="M 313 2009 
L 1997 2009 
L 1997 1497 
L 313 1497 
L 313 2009 
z
" transform="scale(0.015625)"/>
       <path id="DejaVuSans-4d" d="M 628 4666 
L 1569 4666 
L 2759 1491 
L 3956 4666 
L 4897 4666 
L 4897 0 
L 4281 0 
L 4281 4097 
L 3078 897 
L 2444 897 
L 1241 4097 
L 1241 0 
L 628 0 
L 628 4666 
z
" transform="scale(0.015625)"/>
       <path id="DejaVuSans-56" d="M 1831 0 
L 50 4666 
L 709 4666 
L 2188 738 
L 3669 4666 
L 4325 4666 
L 2547 0 
L 1831 0 
z
" transform="scale(0.015625)"/>
       <path id="DejaVuSans-35" d="M 691 4666 
L 3169 4666 
L 3169 4134 
L 1269 4134 
L 1269 2991 
Q 1406 3038 1543 3061 
Q 1681 3084 1819 3084 
Q 2600 3084 3056 2656 
Q 3513 2228 3513 1497 
Q 3513 744 3044 326 
Q 2575 -91 1722 -91 
Q 1428 -91 1123 -41 
Q 819 9 494 109 
L 494 744 
Q 775 591 1075 516 
Q 1375 441 1709 441 
Q 2250 441 2565 725 
Q 2881 1009 2881 1497 
Q 2881 1984 2565 2268 
Q 2250 2553 1709 2553 
Q 1456 2553 1204 2497 
Q 953 2441 691 2322 
L 691 4666 
z
" transform="scale(0.015625)"/>
       <path id="DejaVuSans-77" d="M 269 3500 
L 844 3500 
L 1563 769 
L 2278 3500 
L 2956 3500 
L 3675 769 
L 4391 3500 
L 4966 3500 
L 4050 0 
L 3372 0 
L 2619 2869 
L 1863 0 
L 1184 0 
L 269 3500 
z
" transform="scale(0.015625)"/>
       <path id="DejaVuSans-68" d="M 3513 2113 
L 3513 0 
L 2938 0 
L 2938 2094 
Q 2938 2591 2744 2837 
Q 2550 3084 2163 3084 
Q 1697 3084 1428 2787 
Q 1159 2491 1159 1978 
L 1159 0 
L 581 0 
L 581 4863 
L 1159 4863 
L 1159 2956 
Q 1366 3272 1645 3428 
Q 1925 3584 2291 3584 
Q 2894 3584 3203 3211 
Q 3513 2838 3513 2113 
z
" transform="scale(0.015625)"/>
       <path id="DejaVuSans-64" d="M 2906 2969 
L 2906 4863 
L 3481 4863 
L 3481 0 
L 2906 0 
L 2906 525 
Q 2725 213 2448 61 
Q 2172 -91 1784 -91 
Q 1150 -91 751 415 
Q 353 922 353 1747 
Q 353 2572 751 3078 
Q 1150 3584 1784 3584 
Q 2172 3584 2448 3432 
Q 2725 3281 2906 2969 
z
M 947 1747 
Q 947 1113 1208 752 
Q 1469 391 1925 391 
Q 2381 391 2643 752 
Q 2906 1113 2906 1747 
Q 2906 2381 2643 2742 
Q 2381 3103 1925 3103 
Q 1469 3103 1208 2742 
Q 947 2381 947 1747 
z
" transform="scale(0.015625)"/>
      </defs>
      <use xlink:href="#DejaVuSans-4e"/>
      <use xlink:href="#DejaVuSans-54" transform="translate(74.804688 0)"/>
      <use xlink:href="#DejaVuSans-2d" transform="translate(126.763672 0)"/>
      <use xlink:href="#DejaVuSans-4d" transform="translate(162.847656 0)"/>
      <use xlink:href="#DejaVuSans-53" transform="translate(249.126953 0)"/>
      <use xlink:href="#DejaVuSans-20" transform="translate(312.603516 0)"/>
      <use xlink:href="#DejaVuSans-56" transform="translate(344.390625 0)"/>
      <use xlink:href="#DejaVuSans-32" transform="translate(412.798828 0)"/>
      <use xlink:href="#DejaVuSans-20" transform="translate(476.421875 0)"/>
      <use xlink:href="#DejaVuSans-28" transform="translate(508.208984 0)"/>
      <use xlink:href="#DejaVuSans-35" transform="translate(547.222656 0)"/>
      <use xlink:href="#DejaVuSans-30" transform="translate(610.845703 0)"/>
      <use xlink:href="#DejaVuSans-4d" transform="translate(674.46875 0)"/>
      <use xlink:href="#DejaVuSans-29" transform="translate(760.748047 0)"/>
      <use xlink:href="#DejaVuSans-20" transform="translate(799.761719 0)"/>
      <use xlink:href="#DejaVuSans-77" transform="translate(831.548828 0)"/>
      <use xlink:href="#DejaVuSans-69" transform="translate(913.335938 0)"/>
      <use xlink:href="#DejaVuSans-74" transform="translate(941.119141 0)"/>
      <use xlink:href="#DejaVuSans-68" transform="translate(980.328125 0)"/>
      <use xlink:href="#DejaVuSans-20" transform="translate(1043.707031 0)"/>
      <use xlink:href="#DejaVuSans-72" transform="translate(1075.494141 0)"/>
      <use xlink:href="#DejaVuSans-61" transform="translate(1116.607422 0)"/>
      <use xlink:href="#DejaVuSans-6e" transform="translate(1177.886719 0)"/>
      <use xlink:href="#DejaVuSans-64" transform="translate(1241.265625 0)"/>
      <use xlink:href="#DejaVuSans-2e" transform="translate(1304.742188 0)"/>
      <use xlink:href="#DejaVuSans-20" transform="translate(1336.529297 0)"/>
      <use xlink:href="#DejaVuSans-77" transform="translate(1368.316406 0)"/>
      <use xlink:href="#DejaVuSans-65" transform="translate(1450.103516 0)"/>
      <use xlink:href="#DejaVuSans-69" transform="translate(1511.626953 0)"/>
      <use xlink:href="#DejaVuSans-67" transform="translate(1539.410156 0)"/>
      <use xlink:href="#DejaVuSans-68" transform="translate(1602.886719 0)"/>
      <use xlink:href="#DejaVuSans-74" transform="translate(1666.265625 0)"/>
      <use xlink:href="#DejaVuSans-73" transform="translate(1705.474609 0)"/>
     </g>
    </g>
    <g id="line2d_20">
     <path d="M 335.876684 66.337877 
L 344.206684 66.337877 
L 352.536684 66.337877 
" style="fill: none; stroke: #ff7f0e; stroke-width: 1.5; stroke-linecap: square"/>
    </g>
    <g id="text_15">
     <!-- NT-MS V2 (500M) with rand. weights -->
     <g transform="translate(359.200684 69.253377) scale(0.0833 -0.0833)">
      <use xlink:href="#DejaVuSans-4e"/>
      <use xlink:href="#DejaVuSans-54" transform="translate(74.804688 0)"/>
      <use xlink:href="#DejaVuSans-2d" transform="translate(126.763672 0)"/>
      <use xlink:href="#DejaVuSans-4d" transform="translate(162.847656 0)"/>
      <use xlink:href="#DejaVuSans-53" transform="translate(249.126953 0)"/>
      <use xlink:href="#DejaVuSans-20" transform="translate(312.603516 0)"/>
      <use xlink:href="#DejaVuSans-56" transform="translate(344.390625 0)"/>
      <use xlink:href="#DejaVuSans-32" transform="translate(412.798828 0)"/>
      <use xlink:href="#DejaVuSans-20" transform="translate(476.421875 0)"/>
      <use xlink:href="#DejaVuSans-28" transform="translate(508.208984 0)"/>
      <use xlink:href="#DejaVuSans-35" transform="translate(547.222656 0)"/>
      <use xlink:href="#DejaVuSans-30" transform="translate(610.845703 0)"/>
      <use xlink:href="#DejaVuSans-30" transform="translate(674.46875 0)"/>
      <use xlink:href="#DejaVuSans-4d" transform="translate(738.091797 0)"/>
      <use xlink:href="#DejaVuSans-29" transform="translate(824.371094 0)"/>
      <use xlink:href="#DejaVuSans-20" transform="translate(863.384766 0)"/>
      <use xlink:href="#DejaVuSans-77" transform="translate(895.171875 0)"/>
      <use xlink:href="#DejaVuSans-69" transform="translate(976.958984 0)"/>
      <use xlink:href="#DejaVuSans-74" transform="translate(1004.742188 0)"/>
      <use xlink:href="#DejaVuSans-68" transform="translate(1043.951172 0)"/>
      <use xlink:href="#DejaVuSans-20" transform="translate(1107.330078 0)"/>
      <use xlink:href="#DejaVuSans-72" transform="translate(1139.117188 0)"/>
      <use xlink:href="#DejaVuSans-61" transform="translate(1180.230469 0)"/>
      <use xlink:href="#DejaVuSans-6e" transform="translate(1241.509766 0)"/>
      <use xlink:href="#DejaVuSans-64" transform="translate(1304.888672 0)"/>
      <use xlink:href="#DejaVuSans-2e" transform="translate(1368.365234 0)"/>
      <use xlink:href="#DejaVuSans-20" transform="translate(1400.152344 0)"/>
      <use xlink:href="#DejaVuSans-77" transform="translate(1431.939453 0)"/>
      <use xlink:href="#DejaVuSans-65" transform="translate(1513.726562 0)"/>
      <use xlink:href="#DejaVuSans-69" transform="translate(1575.25 0)"/>
      <use xlink:href="#DejaVuSans-67" transform="translate(1603.033203 0)"/>
      <use xlink:href="#DejaVuSans-68" transform="translate(1666.509766 0)"/>
      <use xlink:href="#DejaVuSans-74" transform="translate(1729.888672 0)"/>
      <use xlink:href="#DejaVuSans-73" transform="translate(1769.097656 0)"/>
     </g>
    </g>
    <g id="line2d_21">
     <path d="M 335.876684 78.564755 
L 344.206684 78.564755 
L 352.536684 78.564755 
" style="fill: none; stroke: #2ca02c; stroke-width: 1.5; stroke-linecap: square"/>
    </g>
    <g id="text_16">
     <!-- NT-MS V2 (50M) -->
     <g transform="translate(359.200684 81.480255) scale(0.0833 -0.0833)">
      <use xlink:href="#DejaVuSans-4e"/>
      <use xlink:href="#DejaVuSans-54" transform="translate(74.804688 0)"/>
      <use xlink:href="#DejaVuSans-2d" transform="translate(126.763672 0)"/>
      <use xlink:href="#DejaVuSans-4d" transform="translate(162.847656 0)"/>
      <use xlink:href="#DejaVuSans-53" transform="translate(249.126953 0)"/>
      <use xlink:href="#DejaVuSans-20" transform="translate(312.603516 0)"/>
      <use xlink:href="#DejaVuSans-56" transform="translate(344.390625 0)"/>
      <use xlink:href="#DejaVuSans-32" transform="translate(412.798828 0)"/>
      <use xlink:href="#DejaVuSans-20" transform="translate(476.421875 0)"/>
      <use xlink:href="#DejaVuSans-28" transform="translate(508.208984 0)"/>
      <use xlink:href="#DejaVuSans-35" transform="translate(547.222656 0)"/>
      <use xlink:href="#DejaVuSans-30" transform="translate(610.845703 0)"/>
      <use xlink:href="#DejaVuSans-4d" transform="translate(674.46875 0)"/>
      <use xlink:href="#DejaVuSans-29" transform="translate(760.748047 0)"/>
     </g>
    </g>
    <g id="line2d_22">
     <path d="M 335.876684 90.791633 
L 344.206684 90.791633 
L 352.536684 90.791633 
" style="fill: none; stroke: #d62728; stroke-width: 1.5; stroke-linecap: square"/>
    </g>
    <g id="text_17">
     <!-- NT-1000g (500M) -->
     <g transform="translate(359.200684 93.707133) scale(0.0833 -0.0833)">
      <use xlink:href="#DejaVuSans-4e"/>
      <use xlink:href="#DejaVuSans-54" transform="translate(74.804688 0)"/>
      <use xlink:href="#DejaVuSans-2d" transform="translate(126.763672 0)"/>
      <use xlink:href="#DejaVuSans-31" transform="translate(162.847656 0)"/>
      <use xlink:href="#DejaVuSans-30" transform="translate(226.470703 0)"/>
      <use xlink:href="#DejaVuSans-30" transform="translate(290.09375 0)"/>
      <use xlink:href="#DejaVuSans-30" transform="translate(353.716797 0)"/>
      <use xlink:href="#DejaVuSans-67" transform="translate(417.339844 0)"/>
      <use xlink:href="#DejaVuSans-20" transform="translate(480.816406 0)"/>
      <use xlink:href="#DejaVuSans-28" transform="translate(512.603516 0)"/>
      <use xlink:href="#DejaVuSans-35" transform="translate(551.617188 0)"/>
      <use xlink:href="#DejaVuSans-30" transform="translate(615.240234 0)"/>
      <use xlink:href="#DejaVuSans-30" transform="translate(678.863281 0)"/>
      <use xlink:href="#DejaVuSans-4d" transform="translate(742.486328 0)"/>
      <use xlink:href="#DejaVuSans-29" transform="translate(828.765625 0)"/>
     </g>
    </g>
    <g id="line2d_23">
     <path d="M 335.876684 103.018511 
L 344.206684 103.018511 
L 352.536684 103.018511 
" style="fill: none; stroke: #9467bd; stroke-width: 1.5; stroke-linecap: square"/>
    </g>
    <g id="text_18">
     <!-- NT-MS V2 (250M) -->
     <g transform="translate(359.200684 105.934011) scale(0.0833 -0.0833)">
      <use xlink:href="#DejaVuSans-4e"/>
      <use xlink:href="#DejaVuSans-54" transform="translate(74.804688 0)"/>
      <use xlink:href="#DejaVuSans-2d" transform="translate(126.763672 0)"/>
      <use xlink:href="#DejaVuSans-4d" transform="translate(162.847656 0)"/>
      <use xlink:href="#DejaVuSans-53" transform="translate(249.126953 0)"/>
      <use xlink:href="#DejaVuSans-20" transform="translate(312.603516 0)"/>
      <use xlink:href="#DejaVuSans-56" transform="translate(344.390625 0)"/>
      <use xlink:href="#DejaVuSans-32" transform="translate(412.798828 0)"/>
      <use xlink:href="#DejaVuSans-20" transform="translate(476.421875 0)"/>
      <use xlink:href="#DejaVuSans-28" transform="translate(508.208984 0)"/>
      <use xlink:href="#DejaVuSans-32" transform="translate(547.222656 0)"/>
      <use xlink:href="#DejaVuSans-35" transform="translate(610.845703 0)"/>
      <use xlink:href="#DejaVuSans-30" transform="translate(674.46875 0)"/>
      <use xlink:href="#DejaVuSans-4d" transform="translate(738.091797 0)"/>
      <use xlink:href="#DejaVuSans-29" transform="translate(824.371094 0)"/>
     </g>
    </g>
    <g id="line2d_24">
     <path d="M 335.876684 115.245389 
L 344.206684 115.245389 
L 352.536684 115.245389 
" style="fill: none; stroke: #8c564b; stroke-width: 1.5; stroke-linecap: square"/>
    </g>
    <g id="text_19">
     <!-- NT-MS V2 (100M) -->
     <g transform="translate(359.200684 118.160889) scale(0.0833 -0.0833)">
      <use xlink:href="#DejaVuSans-4e"/>
      <use xlink:href="#DejaVuSans-54" transform="translate(74.804688 0)"/>
      <use xlink:href="#DejaVuSans-2d" transform="translate(126.763672 0)"/>
      <use xlink:href="#DejaVuSans-4d" transform="translate(162.847656 0)"/>
      <use xlink:href="#DejaVuSans-53" transform="translate(249.126953 0)"/>
      <use xlink:href="#DejaVuSans-20" transform="translate(312.603516 0)"/>
      <use xlink:href="#DejaVuSans-56" transform="translate(344.390625 0)"/>
      <use xlink:href="#DejaVuSans-32" transform="translate(412.798828 0)"/>
      <use xlink:href="#DejaVuSans-20" transform="translate(476.421875 0)"/>
      <use xlink:href="#DejaVuSans-28" transform="translate(508.208984 0)"/>
      <use xlink:href="#DejaVuSans-31" transform="translate(547.222656 0)"/>
      <use xlink:href="#DejaVuSans-30" transform="translate(610.845703 0)"/>
      <use xlink:href="#DejaVuSans-30" transform="translate(674.46875 0)"/>
      <use xlink:href="#DejaVuSans-4d" transform="translate(738.091797 0)"/>
      <use xlink:href="#DejaVuSans-29" transform="translate(824.371094 0)"/>
     </g>
    </g>
    <g id="line2d_25">
     <path d="M 335.876684 127.472267 
L 344.206684 127.472267 
L 352.536684 127.472267 
" style="fill: none; stroke: #e377c2; stroke-width: 1.5; stroke-linecap: square"/>
    </g>
    <g id="text_20">
     <!-- NT-Human-Ref. (500M) -->
     <g transform="translate(359.200684 130.387767) scale(0.0833 -0.0833)">
      <defs>
       <path id="DejaVuSans-48" d="M 628 4666 
L 1259 4666 
L 1259 2753 
L 3553 2753 
L 3553 4666 
L 4184 4666 
L 4184 0 
L 3553 0 
L 3553 2222 
L 1259 2222 
L 1259 0 
L 628 0 
L 628 4666 
z
" transform="scale(0.015625)"/>
       <path id="DejaVuSans-75" d="M 544 1381 
L 544 3500 
L 1119 3500 
L 1119 1403 
Q 1119 906 1312 657 
Q 1506 409 1894 409 
Q 2359 409 2629 706 
Q 2900 1003 2900 1516 
L 2900 3500 
L 3475 3500 
L 3475 0 
L 2900 0 
L 2900 538 
Q 2691 219 2414 64 
Q 2138 -91 1772 -91 
Q 1169 -91 856 284 
Q 544 659 544 1381 
z
M 1991 3584 
L 1991 3584 
z
" transform="scale(0.015625)"/>
       <path id="DejaVuSans-6d" d="M 3328 2828 
Q 3544 3216 3844 3400 
Q 4144 3584 4550 3584 
Q 5097 3584 5394 3201 
Q 5691 2819 5691 2113 
L 5691 0 
L 5113 0 
L 5113 2094 
Q 5113 2597 4934 2840 
Q 4756 3084 4391 3084 
Q 3944 3084 3684 2787 
Q 3425 2491 3425 1978 
L 3425 0 
L 2847 0 
L 2847 2094 
Q 2847 2600 2669 2842 
Q 2491 3084 2119 3084 
Q 1678 3084 1418 2786 
Q 1159 2488 1159 1978 
L 1159 0 
L 581 0 
L 581 3500 
L 1159 3500 
L 1159 2956 
Q 1356 3278 1631 3431 
Q 1906 3584 2284 3584 
Q 2666 3584 2933 3390 
Q 3200 3197 3328 2828 
z
" transform="scale(0.015625)"/>
       <path id="DejaVuSans-52" d="M 2841 2188 
Q 3044 2119 3236 1894 
Q 3428 1669 3622 1275 
L 4263 0 
L 3584 0 
L 2988 1197 
Q 2756 1666 2539 1819 
Q 2322 1972 1947 1972 
L 1259 1972 
L 1259 0 
L 628 0 
L 628 4666 
L 2053 4666 
Q 2853 4666 3247 4331 
Q 3641 3997 3641 3322 
Q 3641 2881 3436 2590 
Q 3231 2300 2841 2188 
z
M 1259 4147 
L 1259 2491 
L 2053 2491 
Q 2509 2491 2742 2702 
Q 2975 2913 2975 3322 
Q 2975 3731 2742 3939 
Q 2509 4147 2053 4147 
L 1259 4147 
z
" transform="scale(0.015625)"/>
       <path id="DejaVuSans-66" d="M 2375 4863 
L 2375 4384 
L 1825 4384 
Q 1516 4384 1395 4259 
Q 1275 4134 1275 3809 
L 1275 3500 
L 2222 3500 
L 2222 3053 
L 1275 3053 
L 1275 0 
L 697 0 
L 697 3053 
L 147 3053 
L 147 3500 
L 697 3500 
L 697 3744 
Q 697 4328 969 4595 
Q 1241 4863 1831 4863 
L 2375 4863 
z
" transform="scale(0.015625)"/>
      </defs>
      <use xlink:href="#DejaVuSans-4e"/>
      <use xlink:href="#DejaVuSans-54" transform="translate(74.804688 0)"/>
      <use xlink:href="#DejaVuSans-2d" transform="translate(126.763672 0)"/>
      <use xlink:href="#DejaVuSans-48" transform="translate(162.847656 0)"/>
      <use xlink:href="#DejaVuSans-75" transform="translate(238.042969 0)"/>
      <use xlink:href="#DejaVuSans-6d" transform="translate(301.421875 0)"/>
      <use xlink:href="#DejaVuSans-61" transform="translate(398.833984 0)"/>
      <use xlink:href="#DejaVuSans-6e" transform="translate(460.113281 0)"/>
      <use xlink:href="#DejaVuSans-2d" transform="translate(523.492188 0)"/>
      <use xlink:href="#DejaVuSans-52" transform="translate(559.576172 0)"/>
      <use xlink:href="#DejaVuSans-65" transform="translate(624.558594 0)"/>
      <use xlink:href="#DejaVuSans-66" transform="translate(686.082031 0)"/>
      <use xlink:href="#DejaVuSans-2e" transform="translate(714.037109 0)"/>
      <use xlink:href="#DejaVuSans-20" transform="translate(745.824219 0)"/>
      <use xlink:href="#DejaVuSans-28" transform="translate(777.611328 0)"/>
      <use xlink:href="#DejaVuSans-35" transform="translate(816.625 0)"/>
      <use xlink:href="#DejaVuSans-30" transform="translate(880.248047 0)"/>
      <use xlink:href="#DejaVuSans-30" transform="translate(943.871094 0)"/>
      <use xlink:href="#DejaVuSans-4d" transform="translate(1007.494141 0)"/>
      <use xlink:href="#DejaVuSans-29" transform="translate(1093.773438 0)"/>
     </g>
    </g>
    <g id="line2d_26">
     <path d="M 335.876684 139.699145 
L 344.206684 139.699145 
L 352.536684 139.699145 
" style="fill: none; stroke: #7f7f7f; stroke-width: 1.5; stroke-linecap: square"/>
    </g>
    <g id="text_21">
     <!-- NT-MS V2 (500M) -->
     <g transform="translate(359.200684 142.614645) scale(0.0833 -0.0833)">
      <use xlink:href="#DejaVuSans-4e"/>
      <use xlink:href="#DejaVuSans-54" transform="translate(74.804688 0)"/>
      <use xlink:href="#DejaVuSans-2d" transform="translate(126.763672 0)"/>
      <use xlink:href="#DejaVuSans-4d" transform="translate(162.847656 0)"/>
      <use xlink:href="#DejaVuSans-53" transform="translate(249.126953 0)"/>
      <use xlink:href="#DejaVuSans-20" transform="translate(312.603516 0)"/>
      <use xlink:href="#DejaVuSans-56" transform="translate(344.390625 0)"/>
      <use xlink:href="#DejaVuSans-32" transform="translate(412.798828 0)"/>
      <use xlink:href="#DejaVuSans-20" transform="translate(476.421875 0)"/>
      <use xlink:href="#DejaVuSans-28" transform="translate(508.208984 0)"/>
      <use xlink:href="#DejaVuSans-35" transform="translate(547.222656 0)"/>
      <use xlink:href="#DejaVuSans-30" transform="translate(610.845703 0)"/>
      <use xlink:href="#DejaVuSans-30" transform="translate(674.46875 0)"/>
      <use xlink:href="#DejaVuSans-4d" transform="translate(738.091797 0)"/>
      <use xlink:href="#DejaVuSans-29" transform="translate(824.371094 0)"/>
     </g>
    </g>
   </g>
  </g>
 </g>
 <defs>
  <clipPath id="p5913459fda">
   <rect x="72" y="43.2" width="446.4" height="277.2"/>
  </clipPath>
 </defs>
</svg>
