<?xml version="1.0" encoding="utf-8" standalone="no"?>
<!DOCTYPE svg PUBLIC "-//W3C//DTD SVG 1.1//EN"
  "http://www.w3.org/Graphics/SVG/1.1/DTD/svg11.dtd">
<svg xmlns:xlink="http://www.w3.org/1999/xlink" width="576pt" height="360pt" viewBox="0 0 576 360" xmlns="http://www.w3.org/2000/svg" version="1.1">
 <metadata>
  <rdf:RDF xmlns:dc="http://purl.org/dc/elements/1.1/" xmlns:cc="http://creativecommons.org/ns#" xmlns:rdf="http://www.w3.org/1999/02/22-rdf-syntax-ns#">
   <cc:Work>
    <dc:type rdf:resource="http://purl.org/dc/dcmitype/StillImage"/>
    <dc:date>2025-01-07T03:55:01.395060</dc:date>
    <dc:format>image/svg+xml</dc:format>
    <dc:creator>
     <cc:Agent>
      <dc:title>Matplotlib v3.10.0, https://matplotlib.org/</dc:title>
     </cc:Agent>
    </dc:creator>
   </cc:Work>
  </rdf:RDF>
 </metadata>
 <defs>
  <style type="text/css">*{stroke-linejoin: round; stroke-linecap: butt}</style>
 </defs>
 <g id="figure_1">
  <g id="patch_1">
   <path d="M 0 360 
L 576 360 
L 576 0 
L 0 0 
z
" style="fill: #ffffff"/>
  </g>
  <g id="axes_1">
   <g id="patch_2">
    <path d="M 72 320.4 
L 518.4 320.4 
L 518.4 43.2 
L 72 43.2 
z
" style="fill: #ffffff"/>
   </g>
   <g id="matplotlib.axis_1">
    <g id="xtick_1">
     <g id="line2d_1">
      <defs>
       <path id="m9959f83cb5" d="M 0 0 
L 0 3.5 
" style="stroke: #000000; stroke-width: 0.8"/>
      </defs>
      <g>
       <use xlink:href="#m9959f83cb5" x="157.672727" y="320.4" style="stroke: #000000; stroke-width: 0.8"/>
      </g>
     </g>
     <g id="text_1">
      <!-- 2000 -->
      <g transform="translate(144.947727 334.998438) scale(0.1 -0.1)">
       <defs>
        <path id="DejaVuSans-32" d="M 1228 531 
L 3431 531 
L 3431 0 
L 469 0 
L 469 531 
Q 828 903 1448 1529 
Q 2069 2156 2228 2338 
Q 2531 2678 2651 2914 
Q 2772 3150 2772 3378 
Q 2772 3750 2511 3984 
Q 2250 4219 1831 4219 
Q 1534 4219 1204 4116 
Q 875 4013 500 3803 
L 500 4441 
Q 881 4594 1212 4672 
Q 1544 4750 1819 4750 
Q 2544 4750 2975 4387 
Q 3406 4025 3406 3419 
Q 3406 3131 3298 2873 
Q 3191 2616 2906 2266 
Q 2828 2175 2409 1742 
Q 1991 1309 1228 531 
z
" transform="scale(0.015625)"/>
        <path id="DejaVuSans-30" d="M 2034 4250 
Q 1547 4250 1301 3770 
Q 1056 3291 1056 2328 
Q 1056 1369 1301 889 
Q 1547 409 2034 409 
Q 2525 409 2770 889 
Q 3016 1369 3016 2328 
Q 3016 3291 2770 3770 
Q 2525 4250 2034 4250 
z
M 2034 4750 
Q 2819 4750 3233 4129 
Q 3647 3509 3647 2328 
Q 3647 1150 3233 529 
Q 2819 -91 2034 -91 
Q 1250 -91 836 529 
Q 422 1150 422 2328 
Q 422 3509 836 4129 
Q 1250 4750 2034 4750 
z
" transform="scale(0.015625)"/>
       </defs>
       <use xlink:href="#DejaVuSans-32"/>
       <use xlink:href="#DejaVuSans-30" transform="translate(63.623047 0)"/>
       <use xlink:href="#DejaVuSans-30" transform="translate(127.246094 0)"/>
       <use xlink:href="#DejaVuSans-30" transform="translate(190.869141 0)"/>
      </g>
     </g>
    </g>
    <g id="xtick_2">
     <g id="line2d_2">
      <g>
       <use xlink:href="#m9959f83cb5" x="247.854545" y="320.4" style="stroke: #000000; stroke-width: 0.8"/>
      </g>
     </g>
     <g id="text_2">
      <!-- 4000 -->
      <g transform="translate(235.129545 334.998438) scale(0.1 -0.1)">
       <defs>
        <path id="DejaVuSans-34" d="M 2419 4116 
L 825 1625 
L 2419 1625 
L 2419 4116 
z
M 2253 4666 
L 3047 4666 
L 3047 1625 
L 3713 1625 
L 3713 1100 
L 3047 1100 
L 3047 0 
L 2419 0 
L 2419 1100 
L 313 1100 
L 313 1709 
L 2253 4666 
z
" transform="scale(0.015625)"/>
       </defs>
       <use xlink:href="#DejaVuSans-34"/>
       <use xlink:href="#DejaVuSans-30" transform="translate(63.623047 0)"/>
       <use xlink:href="#DejaVuSans-30" transform="translate(127.246094 0)"/>
       <use xlink:href="#DejaVuSans-30" transform="translate(190.869141 0)"/>
      </g>
     </g>
    </g>
    <g id="xtick_3">
     <g id="line2d_3">
      <g>
       <use xlink:href="#m9959f83cb5" x="338.036364" y="320.4" style="stroke: #000000; stroke-width: 0.8"/>
      </g>
     </g>
     <g id="text_3">
      <!-- 6000 -->
      <g transform="translate(325.311364 334.998438) scale(0.1 -0.1)">
       <defs>
        <path id="DejaVuSans-36" d="M 2113 2584 
Q 1688 2584 1439 2293 
Q 1191 2003 1191 1497 
Q 1191 994 1439 701 
Q 1688 409 2113 409 
Q 2538 409 2786 701 
Q 3034 994 3034 1497 
Q 3034 2003 2786 2293 
Q 2538 2584 2113 2584 
z
M 3366 4563 
L 3366 3988 
Q 3128 4100 2886 4159 
Q 2644 4219 2406 4219 
Q 1781 4219 1451 3797 
Q 1122 3375 1075 2522 
Q 1259 2794 1537 2939 
Q 1816 3084 2150 3084 
Q 2853 3084 3261 2657 
Q 3669 2231 3669 1497 
Q 3669 778 3244 343 
Q 2819 -91 2113 -91 
Q 1303 -91 875 529 
Q 447 1150 447 2328 
Q 447 3434 972 4092 
Q 1497 4750 2381 4750 
Q 2619 4750 2861 4703 
Q 3103 4656 3366 4563 
z
" transform="scale(0.015625)"/>
       </defs>
       <use xlink:href="#DejaVuSans-36"/>
       <use xlink:href="#DejaVuSans-30" transform="translate(63.623047 0)"/>
       <use xlink:href="#DejaVuSans-30" transform="translate(127.246094 0)"/>
       <use xlink:href="#DejaVuSans-30" transform="translate(190.869141 0)"/>
      </g>
     </g>
    </g>
    <g id="xtick_4">
     <g id="line2d_4">
      <g>
       <use xlink:href="#m9959f83cb5" x="428.218182" y="320.4" style="stroke: #000000; stroke-width: 0.8"/>
      </g>
     </g>
     <g id="text_4">
      <!-- 8000 -->
      <g transform="translate(415.493182 334.998438) scale(0.1 -0.1)">
       <defs>
        <path id="DejaVuSans-38" d="M 2034 2216 
Q 1584 2216 1326 1975 
Q 1069 1734 1069 1313 
Q 1069 891 1326 650 
Q 1584 409 2034 409 
Q 2484 409 2743 651 
Q 3003 894 3003 1313 
Q 3003 1734 2745 1975 
Q 2488 2216 2034 2216 
z
M 1403 2484 
Q 997 2584 770 2862 
Q 544 3141 544 3541 
Q 544 4100 942 4425 
Q 1341 4750 2034 4750 
Q 2731 4750 3128 4425 
Q 3525 4100 3525 3541 
Q 3525 3141 3298 2862 
Q 3072 2584 2669 2484 
Q 3125 2378 3379 2068 
Q 3634 1759 3634 1313 
Q 3634 634 3220 271 
Q 2806 -91 2034 -91 
Q 1263 -91 848 271 
Q 434 634 434 1313 
Q 434 1759 690 2068 
Q 947 2378 1403 2484 
z
M 1172 3481 
Q 1172 3119 1398 2916 
Q 1625 2713 2034 2713 
Q 2441 2713 2670 2916 
Q 2900 3119 2900 3481 
Q 2900 3844 2670 4047 
Q 2441 4250 2034 4250 
Q 1625 4250 1398 4047 
Q 1172 3844 1172 3481 
z
" transform="scale(0.015625)"/>
       </defs>
       <use xlink:href="#DejaVuSans-38"/>
       <use xlink:href="#DejaVuSans-30" transform="translate(63.623047 0)"/>
       <use xlink:href="#DejaVuSans-30" transform="translate(127.246094 0)"/>
       <use xlink:href="#DejaVuSans-30" transform="translate(190.869141 0)"/>
      </g>
     </g>
    </g>
    <g id="xtick_5">
     <g id="line2d_5">
      <g>
       <use xlink:href="#m9959f83cb5" x="518.4" y="320.4" style="stroke: #000000; stroke-width: 0.8"/>
      </g>
     </g>
     <g id="text_5">
      <!-- 10000 -->
      <g transform="translate(502.49375 334.998438) scale(0.1 -0.1)">
       <defs>
        <path id="DejaVuSans-31" d="M 794 531 
L 1825 531 
L 1825 4091 
L 703 3866 
L 703 4441 
L 1819 4666 
L 2450 4666 
L 2450 531 
L 3481 531 
L 3481 0 
L 794 0 
L 794 531 
z
" transform="scale(0.015625)"/>
       </defs>
       <use xlink:href="#DejaVuSans-31"/>
       <use xlink:href="#DejaVuSans-30" transform="translate(63.623047 0)"/>
       <use xlink:href="#DejaVuSans-30" transform="translate(127.246094 0)"/>
       <use xlink:href="#DejaVuSans-30" transform="translate(190.869141 0)"/>
       <use xlink:href="#DejaVuSans-30" transform="translate(254.492188 0)"/>
      </g>
     </g>
    </g>
    <g id="text_6">
     <!-- Training steps -->
     <g transform="translate(260.464844 348.676562) scale(0.1 -0.1)">
      <defs>
       <path id="DejaVuSans-54" d="M -19 4666 
L 3928 4666 
L 3928 4134 
L 2272 4134 
L 2272 0 
L 1638 0 
L 1638 4134 
L -19 4134 
L -19 4666 
z
" transform="scale(0.015625)"/>
       <path id="DejaVuSans-72" d="M 2631 2963 
Q 2534 3019 2420 3045 
Q 2306 3072 2169 3072 
Q 1681 3072 1420 2755 
Q 1159 2438 1159 1844 
L 1159 0 
L 581 0 
L 581 3500 
L 1159 3500 
L 1159 2956 
Q 1341 3275 1631 3429 
Q 1922 3584 2338 3584 
Q 2397 3584 2469 3576 
Q 2541 3569 2628 3553 
L 2631 2963 
z
" transform="scale(0.015625)"/>
       <path id="DejaVuSans-61" d="M 2194 1759 
Q 1497 1759 1228 1600 
Q 959 1441 959 1056 
Q 959 750 1161 570 
Q 1363 391 1709 391 
Q 2188 391 2477 730 
Q 2766 1069 2766 1631 
L 2766 1759 
L 2194 1759 
z
M 3341 1997 
L 3341 0 
L 2766 0 
L 2766 531 
Q 2569 213 2275 61 
Q 1981 -91 1556 -91 
Q 1019 -91 701 211 
Q 384 513 384 1019 
Q 384 1609 779 1909 
Q 1175 2209 1959 2209 
L 2766 2209 
L 2766 2266 
Q 2766 2663 2505 2880 
Q 2244 3097 1772 3097 
Q 1472 3097 1187 3025 
Q 903 2953 641 2809 
L 641 3341 
Q 956 3463 1253 3523 
Q 1550 3584 1831 3584 
Q 2591 3584 2966 3190 
Q 3341 2797 3341 1997 
z
" transform="scale(0.015625)"/>
       <path id="DejaVuSans-69" d="M 603 3500 
L 1178 3500 
L 1178 0 
L 603 0 
L 603 3500 
z
M 603 4863 
L 1178 4863 
L 1178 4134 
L 603 4134 
L 603 4863 
z
" transform="scale(0.015625)"/>
       <path id="DejaVuSans-6e" d="M 3513 2113 
L 3513 0 
L 2938 0 
L 2938 2094 
Q 2938 2591 2744 2837 
Q 2550 3084 2163 3084 
Q 1697 3084 1428 2787 
Q 1159 2491 1159 1978 
L 1159 0 
L 581 0 
L 581 3500 
L 1159 3500 
L 1159 2956 
Q 1366 3272 1645 3428 
Q 1925 3584 2291 3584 
Q 2894 3584 3203 3211 
Q 3513 2838 3513 2113 
z
" transform="scale(0.015625)"/>
       <path id="DejaVuSans-67" d="M 2906 1791 
Q 2906 2416 2648 2759 
Q 2391 3103 1925 3103 
Q 1463 3103 1205 2759 
Q 947 2416 947 1791 
Q 947 1169 1205 825 
Q 1463 481 1925 481 
Q 2391 481 2648 825 
Q 2906 1169 2906 1791 
z
M 3481 434 
Q 3481 -459 3084 -895 
Q 2688 -1331 1869 -1331 
Q 1566 -1331 1297 -1286 
Q 1028 -1241 775 -1147 
L 775 -588 
Q 1028 -725 1275 -790 
Q 1522 -856 1778 -856 
Q 2344 -856 2625 -561 
Q 2906 -266 2906 331 
L 2906 616 
Q 2728 306 2450 153 
Q 2172 0 1784 0 
Q 1141 0 747 490 
Q 353 981 353 1791 
Q 353 2603 747 3093 
Q 1141 3584 1784 3584 
Q 2172 3584 2450 3431 
Q 2728 3278 2906 2969 
L 2906 3500 
L 3481 3500 
L 3481 434 
z
" transform="scale(0.015625)"/>
       <path id="DejaVuSans-20" transform="scale(0.015625)"/>
       <path id="DejaVuSans-73" d="M 2834 3397 
L 2834 2853 
Q 2591 2978 2328 3040 
Q 2066 3103 1784 3103 
Q 1356 3103 1142 2972 
Q 928 2841 928 2578 
Q 928 2378 1081 2264 
Q 1234 2150 1697 2047 
L 1894 2003 
Q 2506 1872 2764 1633 
Q 3022 1394 3022 966 
Q 3022 478 2636 193 
Q 2250 -91 1575 -91 
Q 1294 -91 989 -36 
Q 684 19 347 128 
L 347 722 
Q 666 556 975 473 
Q 1284 391 1588 391 
Q 1994 391 2212 530 
Q 2431 669 2431 922 
Q 2431 1156 2273 1281 
Q 2116 1406 1581 1522 
L 1381 1569 
Q 847 1681 609 1914 
Q 372 2147 372 2553 
Q 372 3047 722 3315 
Q 1072 3584 1716 3584 
Q 2034 3584 2315 3537 
Q 2597 3491 2834 3397 
z
" transform="scale(0.015625)"/>
       <path id="DejaVuSans-74" d="M 1172 4494 
L 1172 3500 
L 2356 3500 
L 2356 3053 
L 1172 3053 
L 1172 1153 
Q 1172 725 1289 603 
Q 1406 481 1766 481 
L 2356 481 
L 2356 0 
L 1766 0 
Q 1100 0 847 248 
Q 594 497 594 1153 
L 594 3053 
L 172 3053 
L 172 3500 
L 594 3500 
L 594 4494 
L 1172 4494 
z
" transform="scale(0.015625)"/>
       <path id="DejaVuSans-65" d="M 3597 1894 
L 3597 1613 
L 953 1613 
Q 991 1019 1311 708 
Q 1631 397 2203 397 
Q 2534 397 2845 478 
Q 3156 559 3463 722 
L 3463 178 
Q 3153 47 2828 -22 
Q 2503 -91 2169 -91 
Q 1331 -91 842 396 
Q 353 884 353 1716 
Q 353 2575 817 3079 
Q 1281 3584 2069 3584 
Q 2775 3584 3186 3129 
Q 3597 2675 3597 1894 
z
M 3022 2063 
Q 3016 2534 2758 2815 
Q 2500 3097 2075 3097 
Q 1594 3097 1305 2825 
Q 1016 2553 972 2059 
L 3022 2063 
z
" transform="scale(0.015625)"/>
       <path id="DejaVuSans-70" d="M 1159 525 
L 1159 -1331 
L 581 -1331 
L 581 3500 
L 1159 3500 
L 1159 2969 
Q 1341 3281 1617 3432 
Q 1894 3584 2278 3584 
Q 2916 3584 3314 3078 
Q 3713 2572 3713 1747 
Q 3713 922 3314 415 
Q 2916 -91 2278 -91 
Q 1894 -91 1617 61 
Q 1341 213 1159 525 
z
M 3116 1747 
Q 3116 2381 2855 2742 
Q 2594 3103 2138 3103 
Q 1681 3103 1420 2742 
Q 1159 2381 1159 1747 
Q 1159 1113 1420 752 
Q 1681 391 2138 391 
Q 2594 391 2855 752 
Q 3116 1113 3116 1747 
z
" transform="scale(0.015625)"/>
      </defs>
      <use xlink:href="#DejaVuSans-54"/>
      <use xlink:href="#DejaVuSans-72" transform="translate(46.333984 0)"/>
      <use xlink:href="#DejaVuSans-61" transform="translate(87.447266 0)"/>
      <use xlink:href="#DejaVuSans-69" transform="translate(148.726562 0)"/>
      <use xlink:href="#DejaVuSans-6e" transform="translate(176.509766 0)"/>
      <use xlink:href="#DejaVuSans-69" transform="translate(239.888672 0)"/>
      <use xlink:href="#DejaVuSans-6e" transform="translate(267.671875 0)"/>
      <use xlink:href="#DejaVuSans-67" transform="translate(331.050781 0)"/>
      <use xlink:href="#DejaVuSans-20" transform="translate(394.527344 0)"/>
      <use xlink:href="#DejaVuSans-73" transform="translate(426.314453 0)"/>
      <use xlink:href="#DejaVuSans-74" transform="translate(478.414062 0)"/>
      <use xlink:href="#DejaVuSans-65" transform="translate(517.623047 0)"/>
      <use xlink:href="#DejaVuSans-70" transform="translate(579.146484 0)"/>
      <use xlink:href="#DejaVuSans-73" transform="translate(642.623047 0)"/>
     </g>
    </g>
   </g>
   <g id="matplotlib.axis_2">
    <g id="ytick_1">
     <g id="line2d_6">
      <defs>
       <path id="me93ec58807" d="M 0 0 
L -3.5 0 
" style="stroke: #000000; stroke-width: 0.8"/>
      </defs>
      <g>
       <use xlink:href="#me93ec58807" x="72" y="309.750968" style="stroke: #000000; stroke-width: 0.8"/>
      </g>
     </g>
     <g id="text_7">
      <!-- 0.0 -->
      <g transform="translate(49.096875 313.550186) scale(0.1 -0.1)">
       <defs>
        <path id="DejaVuSans-2e" d="M 684 794 
L 1344 794 
L 1344 0 
L 684 0 
L 684 794 
z
" transform="scale(0.015625)"/>
       </defs>
       <use xlink:href="#DejaVuSans-30"/>
       <use xlink:href="#DejaVuSans-2e" transform="translate(63.623047 0)"/>
       <use xlink:href="#DejaVuSans-30" transform="translate(95.410156 0)"/>
      </g>
     </g>
    </g>
    <g id="ytick_2">
     <g id="line2d_7">
      <g>
       <use xlink:href="#me93ec58807" x="72" y="255.557419" style="stroke: #000000; stroke-width: 0.8"/>
      </g>
     </g>
     <g id="text_8">
      <!-- 0.2 -->
      <g transform="translate(49.096875 259.356638) scale(0.1 -0.1)">
       <use xlink:href="#DejaVuSans-30"/>
       <use xlink:href="#DejaVuSans-2e" transform="translate(63.623047 0)"/>
       <use xlink:href="#DejaVuSans-32" transform="translate(95.410156 0)"/>
      </g>
     </g>
    </g>
    <g id="ytick_3">
     <g id="line2d_8">
      <g>
       <use xlink:href="#me93ec58807" x="72" y="201.363871" style="stroke: #000000; stroke-width: 0.8"/>
      </g>
     </g>
     <g id="text_9">
      <!-- 0.4 -->
      <g transform="translate(49.096875 205.16309) scale(0.1 -0.1)">
       <use xlink:href="#DejaVuSans-30"/>
       <use xlink:href="#DejaVuSans-2e" transform="translate(63.623047 0)"/>
       <use xlink:href="#DejaVuSans-34" transform="translate(95.410156 0)"/>
      </g>
     </g>
    </g>
    <g id="ytick_4">
     <g id="line2d_9">
      <g>
       <use xlink:href="#me93ec58807" x="72" y="147.170323" style="stroke: #000000; stroke-width: 0.8"/>
      </g>
     </g>
     <g id="text_10">
      <!-- 0.6 -->
      <g transform="translate(49.096875 150.969541) scale(0.1 -0.1)">
       <use xlink:href="#DejaVuSans-30"/>
       <use xlink:href="#DejaVuSans-2e" transform="translate(63.623047 0)"/>
       <use xlink:href="#DejaVuSans-36" transform="translate(95.410156 0)"/>
      </g>
     </g>
    </g>
    <g id="ytick_5">
     <g id="line2d_10">
      <g>
       <use xlink:href="#me93ec58807" x="72" y="92.976774" style="stroke: #000000; stroke-width: 0.8"/>
      </g>
     </g>
     <g id="text_11">
      <!-- 0.8 -->
      <g transform="translate(49.096875 96.775993) scale(0.1 -0.1)">
       <use xlink:href="#DejaVuSans-30"/>
       <use xlink:href="#DejaVuSans-2e" transform="translate(63.623047 0)"/>
       <use xlink:href="#DejaVuSans-38" transform="translate(95.410156 0)"/>
      </g>
     </g>
    </g>
    <g id="text_12">
     <!-- Loss -->
     <g transform="translate(43.017187 192.767187) rotate(-90) scale(0.1 -0.1)">
      <defs>
       <path id="DejaVuSans-4c" d="M 628 4666 
L 1259 4666 
L 1259 531 
L 3531 531 
L 3531 0 
L 628 0 
L 628 4666 
z
" transform="scale(0.015625)"/>
       <path id="DejaVuSans-6f" d="M 1959 3097 
Q 1497 3097 1228 2736 
Q 959 2375 959 1747 
Q 959 1119 1226 758 
Q 1494 397 1959 397 
Q 2419 397 2687 759 
Q 2956 1122 2956 1747 
Q 2956 2369 2687 2733 
Q 2419 3097 1959 3097 
z
M 1959 3584 
Q 2709 3584 3137 3096 
Q 3566 2609 3566 1747 
Q 3566 888 3137 398 
Q 2709 -91 1959 -91 
Q 1206 -91 779 398 
Q 353 888 353 1747 
Q 353 2609 779 3096 
Q 1206 3584 1959 3584 
z
" transform="scale(0.015625)"/>
      </defs>
      <use xlink:href="#DejaVuSans-4c"/>
      <use xlink:href="#DejaVuSans-6f" transform="translate(53.962891 0)"/>
      <use xlink:href="#DejaVuSans-73" transform="translate(115.144531 0)"/>
      <use xlink:href="#DejaVuSans-73" transform="translate(167.244141 0)"/>
     </g>
    </g>
   </g>
   <g id="line2d_11">
    <path d="M 72 99.425806 
L 76.509091 111.592258 
L 81.018182 114.437419 
L 85.527273 121.618065 
L 90.036364 132.402581 
L 94.545455 130.749677 
L 99.054545 129.936774 
L 103.563636 149.310968 
L 108.072727 138.282581 
L 112.581818 143.295484 
L 117.090909 159.716129 
L 121.6 149.392258 
L 126.109091 153.754839 
L 130.618182 156.6 
L 135.127273 146.736774 
L 139.636364 155.787097 
L 144.145455 163.32 
L 148.654545 161.910968 
L 153.163636 159.336774 
L 157.672727 168.27871 
L 162.181818 157.385806 
L 166.690909 157.575484 
L 171.2 162.994839 
L 175.709091 164.349677 
L 180.218182 155.949677 
L 184.727273 174.538065 
L 189.236364 160.04129 
L 193.745455 158.442581 
L 198.254545 165.975484 
L 202.763636 167.926452 
L 207.272727 171.178065 
L 211.781818 160.285161 
L 216.290909 171.476129 
L 220.8 169.660645 
L 225.309091 162.669677 
L 229.818182 174.944516 
L 234.327273 165.677419 
L 238.836364 178.277419 
L 243.345455 167.953548 
L 247.854545 173.752258 
L 252.363636 171.069677 
L 256.872727 168.630968 
L 261.381818 174.267097 
L 265.890909 163.943226 
L 270.4 172.47871 
L 274.909091 172.749677 
L 279.418182 174.592258 
L 283.927273 170.717419 
L 288.436364 168.089032 
L 292.945455 174.023226 
L 297.454545 170.094194 
L 301.963636 183.48 
L 306.472727 173.291613 
L 310.981818 172.993548 
L 315.490909 171.909677 
L 320 179.442581 
L 324.509091 176.218065 
L 329.018182 180.526452 
L 333.527273 179.686452 
L 338.036364 172.397419 
L 342.545455 171.855484 
L 347.054545 173.427097 
L 351.563636 171.557419 
L 356.072727 169.172903 
L 360.581818 193.776774 
L 365.090909 178.846452 
L 369.6 172.505806 
L 374.109091 180.797419 
L 378.618182 169.606452 
L 383.127273 176.976774 
L 387.636364 181.393548 
L 392.145455 177.247742 
L 396.654545 178.738065 
L 401.163636 180.87871 
L 405.672727 177.735484 
L 410.181818 192.72 
L 414.690909 179.063226 
L 419.2 191.852903 
L 423.709091 184.021935 
L 428.218182 185.07871 
L 432.727273 178.196129 
L 437.236364 187.707097 
L 441.745455 181.393548 
L 446.254545 183.48 
L 450.763636 182.396129 
L 455.272727 189.712258 
L 459.781818 189.983226 
L 464.290909 175.92 
L 468.8 186.325161 
L 473.309091 196.052903 
L 477.818182 179.821935 
L 482.327273 184.157419 
L 486.836364 187.842581 
L 491.345455 188.492903 
L 495.854545 184.753548 
L 500.363636 186.433548 
L 504.872727 186.243871 
L 509.381818 185.07871 
L 513.890909 188.628387 
L 518.4 184.347097 
" clip-path="url(#pe12a52fb86)" style="fill: none; stroke: #1f77b4; stroke-width: 1.5; stroke-linecap: square"/>
   </g>
   <g id="line2d_12">
    <path d="M 72 55.8 
L 76.509091 99.940645 
L 81.018182 105.766452 
L 85.527273 106.687742 
L 90.036364 120.913548 
L 94.545455 124.327742 
L 99.054545 112.730323 
L 103.563636 128.12129 
L 108.072727 119.423226 
L 112.581818 137.415484 
L 117.090909 146.736774 
L 121.6 137.334194 
L 126.109091 137.334194 
L 130.618182 142.265806 
L 135.127273 144.433548 
L 139.636364 152.589677 
L 144.145455 151.343226 
L 148.654545 158.19871 
L 153.163636 159.87871 
L 157.672727 151.343226 
L 162.181818 157.656774 
L 166.690909 154.323871 
L 171.2 156.247742 
L 175.709091 161.179355 
L 180.218182 153.809032 
L 184.727273 164.756129 
L 189.236364 162.344516 
L 193.745455 156.383226 
L 198.254545 159.607742 
L 202.763636 163.563871 
L 207.272727 172.505806 
L 211.781818 160.014194 
L 216.290909 156.545806 
L 220.8 150.205161 
L 225.309091 153.971613 
L 229.818182 157.087742 
L 234.327273 163.834839 
L 238.836364 172.424516 
L 243.345455 167.330323 
L 247.854545 175.025806 
L 252.363636 170.717419 
L 256.872727 165.379355 
L 261.381818 171.665806 
L 265.890909 165.785806 
L 270.4 170.012903 
L 274.909091 169.335484 
L 279.418182 169.606452 
L 283.927273 166.815484 
L 288.436364 168.929032 
L 292.945455 165.270968 
L 297.454545 169.362581 
L 301.963636 183.778065 
L 306.472727 177.491613 
L 310.981818 175.432258 
L 315.490909 166.138065 
L 320 180.12 
L 324.509091 172.153548 
L 329.018182 184.184516 
L 333.527273 175.378065 
L 338.036364 174.348387 
L 342.545455 164.051613 
L 347.054545 174.836129 
L 351.563636 171.503226 
L 356.072727 177.329032 
L 360.581818 193.505806 
L 365.090909 169.227097 
L 369.6 176.651613 
L 374.109091 185.756129 
L 378.618182 172.587097 
L 383.127273 176.732903 
L 387.636364 185.864516 
L 392.145455 180.499355 
L 396.654545 188.330323 
L 401.163636 187.923871 
L 405.672727 184.916129 
L 410.181818 192.367742 
L 414.690909 181.149677 
L 419.2 192.882581 
L 423.709091 189.712258 
L 428.218182 196.025806 
L 432.727273 184.889032 
L 437.236364 180.634839 
L 441.745455 198.058065 
L 446.254545 188.167742 
L 450.763636 186.270968 
L 455.272727 185.647742 
L 459.781818 188.140645 
L 464.290909 184.536774 
L 468.8 187.300645 
L 473.309091 192.340645 
L 477.818182 189.007742 
L 482.327273 189.034839 
L 486.836364 190.877419 
L 491.345455 194.291613 
L 495.854545 190.443871 
L 500.363636 192.015484 
L 504.872727 181.664516 
L 509.381818 192.503226 
L 513.890909 195.15871 
L 518.4 182.233548 
" clip-path="url(#pe12a52fb86)" style="fill: none; stroke: #ff7f0e; stroke-width: 1.5; stroke-linecap: square"/>
   </g>
   <g id="line2d_13">
    <path d="M 72 128.283871 
L 76.509091 142.157419 
L 81.018182 150.421935 
L 85.527273 163.021935 
L 90.036364 179.442581 
L 94.545455 200.009032 
L 99.054545 215.860645 
L 103.563636 234.828387 
L 108.072727 215.996129 
L 112.581818 230.60129 
L 117.090909 231.603871 
L 121.6 243.092903 
L 126.109091 228.216774 
L 130.618182 242.713548 
L 135.127273 240.708387 
L 139.636364 248.458065 
L 144.145455 267.046452 
L 148.654545 258.565161 
L 153.163636 244.095484 
L 157.672727 267.127742 
L 162.181818 261.51871 
L 166.690909 255.990968 
L 171.2 263.713548 
L 175.709091 240.030968 
L 180.218182 263.632258 
L 184.727273 261.383226 
L 189.236364 267.967742 
L 193.745455 265.258065 
L 198.254545 271.436129 
L 202.763636 277.424516 
L 207.272727 274.796129 
L 211.781818 275.988387 
L 216.290909 271.59871 
L 220.8 279.971613 
L 225.309091 275.527742 
L 229.818182 271.165161 
L 234.327273 278.31871 
L 238.836364 285.445161 
L 243.345455 282.979355 
L 247.854545 293.574194 
L 252.363636 287.64 
L 256.872727 285.363871 
L 261.381818 277.532903 
L 265.890909 288.39871 
L 270.4 275.609032 
L 274.909091 275.581935 
L 279.418182 289.699355 
L 283.927273 283.981935 
L 288.436364 285.661935 
L 292.945455 283.819355 
L 297.454545 282.301935 
L 301.963636 295.2 
L 306.472727 289.916129 
L 310.981818 296.500645 
L 315.490909 283.927742 
L 320 296.96129 
L 324.509091 288.154839 
L 329.018182 285.03871 
L 333.527273 281.489032 
L 338.036364 297.205161 
L 342.545455 298.776774 
L 347.054545 288.723871 
L 351.563636 288.290323 
L 356.072727 294.27871 
L 360.581818 293.845161 
L 365.090909 277.045161 
L 369.6 290.674839 
L 374.109091 296.012903 
L 378.618182 287.992258 
L 383.127273 293.303226 
L 387.636364 278.074839 
L 392.145455 296.202581 
L 396.654545 294.901935 
L 401.163636 293.384516 
L 405.672727 300.429677 
L 410.181818 295.335484 
L 414.690909 298.018065 
L 419.2 292.707097 
L 423.709091 292.788387 
L 428.218182 301.676129 
L 432.727273 298.668387 
L 437.236364 300.538065 
L 441.745455 302.895484 
L 446.254545 296.988387 
L 450.763636 296.067097 
L 455.272727 299.210323 
L 459.781818 297.828387 
L 464.290909 296.500645 
L 468.8 297.232258 
L 473.309091 296.96129 
L 477.818182 300.700645 
L 482.327273 298.47871 
L 486.836364 297.584516 
L 491.345455 303.220645 
L 495.854545 307.8 
L 500.363636 297.665806 
L 504.872727 292.381935 
L 509.381818 290.783226 
L 513.890909 303.329032 
L 518.4 287.829677 
" clip-path="url(#pe12a52fb86)" style="fill: none; stroke: #2ca02c; stroke-width: 1.5; stroke-linecap: square"/>
   </g>
   <g id="line2d_14">
    <path d="M 72 75.661935 
L 76.509091 132.754839 
L 81.018182 166.571613 
L 85.527273 205.699355 
L 90.036364 228.84 
L 94.545455 241.35871 
L 99.054545 250.463226 
L 103.563636 253.985806 
L 108.072727 263.740645 
L 112.581818 252.901935 
L 117.090909 255.909677 
L 121.6 271.354839 
L 126.109091 262.006452 
L 130.618182 253.525161 
L 135.127273 231.332903 
L 139.636364 258.781935 
L 144.145455 252.170323 
L 148.654545 271.192258 
L 153.163636 238.242581 
L 157.672727 255.123871 
L 162.181818 259.649032 
L 166.690909 257.670968 
L 171.2 261.274839 
L 175.709091 249.054194 
L 180.218182 251.059355 
L 184.727273 262.548387 
L 189.236364 242.036129 
L 193.745455 256.072258 
L 198.254545 255.557419 
L 202.763636 263.632258 
L 207.272727 273.847742 
L 211.781818 276.123871 
L 216.290909 246.994839 
L 220.8 278.860645 
L 225.309091 268.184516 
L 229.818182 275.012903 
L 234.327273 250.978065 
L 238.836364 261.789677 
L 243.345455 269.674839 
L 247.854545 271.517419 
L 252.363636 272.167742 
L 256.872727 267.940645 
L 261.381818 260.868387 
L 265.890909 269.295484 
L 270.4 275.527742 
L 274.909091 261.843871 
L 279.418182 273.956129 
L 283.927273 272.032258 
L 288.436364 272.763871 
L 292.945455 269.214194 
L 297.454545 265.393548 
L 301.963636 274.010323 
L 306.472727 269.430968 
L 310.981818 262.683871 
L 315.490909 283.792258 
L 320 271.652903 
L 324.509091 277.234839 
L 329.018182 280.134194 
L 333.527273 270.054194 
L 338.036364 274.498065 
L 342.545455 287.233548 
L 347.054545 266.64 
L 351.563636 256.993548 
L 356.072727 277.587097 
L 360.581818 280.974194 
L 365.090909 262.087742 
L 369.6 285.255484 
L 374.109091 293.194839 
L 378.618182 273.224516 
L 383.127273 284.36129 
L 387.636364 277.045161 
L 392.145455 278.698065 
L 396.654545 281.136774 
L 401.163636 285.03871 
L 405.672727 280.784516 
L 410.181818 281.624516 
L 414.690909 285.526452 
L 419.2 278.101935 
L 423.709091 279.375484 
L 428.218182 289.618065 
L 432.727273 290.349677 
L 437.236364 287.883871 
L 441.745455 292.219355 
L 446.254545 288.127742 
L 450.763636 280.08 
L 455.272727 289.40129 
L 459.781818 287.233548 
L 464.290909 285.770323 
L 468.8 289.40129 
L 473.309091 293.357419 
L 477.818182 277.505806 
L 482.327273 291.162581 
L 486.836364 297.313548 
L 491.345455 291.75871 
L 495.854545 287.450323 
L 500.363636 284.415484 
L 504.872727 279.836129 
L 509.381818 283.710968 
L 513.890909 291.623226 
L 518.4 276.774194 
" clip-path="url(#pe12a52fb86)" style="fill: none; stroke: #d62728; stroke-width: 1.5; stroke-linecap: square"/>
   </g>
   <g id="line2d_15">
    <path d="M 72 120.778065 
L 76.509091 143.024516 
L 81.018182 200.252903 
L 85.527273 190.823226 
L 90.036364 196.865806 
L 94.545455 222.336774 
L 99.054545 240.979355 
L 103.563636 255.476129 
L 108.072727 235.126452 
L 112.581818 234.394839 
L 117.090909 264.661935 
L 121.6 260.895484 
L 126.109091 255.936774 
L 130.618182 270.948387 
L 135.127273 263.984516 
L 139.636364 284.28 
L 144.145455 287.179355 
L 148.654545 287.585806 
L 153.163636 278.31871 
L 157.672727 267.56129 
L 162.181818 276.096774 
L 166.690909 294.305806 
L 171.2 291.75871 
L 175.709091 265.664516 
L 180.218182 276.476129 
L 184.727273 283.819355 
L 189.236364 288.046452 
L 193.745455 281.055484 
L 198.254545 285.607742 
L 202.763636 293.845161 
L 207.272727 293.926452 
L 211.781818 287.125161 
L 216.290909 287.369032 
L 220.8 289.509677 
L 225.309091 286.989677 
L 229.818182 294.983226 
L 234.327273 281.516129 
L 238.836364 291.731613 
L 243.345455 282.356129 
L 247.854545 298.099355 
L 252.363636 295.389677 
L 256.872727 285.770323 
L 261.381818 285.065806 
L 265.890909 292.68 
L 270.4 292.815484 
L 274.909091 291.84 
L 279.418182 288.750968 
L 283.927273 282.545806 
L 288.436364 292.652903 
L 292.945455 287.396129 
L 297.454545 286.474839 
L 301.963636 299.31871 
L 306.472727 294.007742 
L 310.981818 300.890323 
L 315.490909 291.325161 
L 320 300.050323 
L 324.509091 295.769032 
L 329.018182 296.229677 
L 333.527273 292.59871 
L 338.036364 295.931613 
L 342.545455 298.912258 
L 347.054545 290.187097 
L 351.563636 291.894194 
L 356.072727 292.978065 
L 360.581818 297.557419 
L 365.090909 286.312258 
L 369.6 301.459355 
L 374.109091 295.091613 
L 378.618182 288.39871 
L 383.127273 296.012903 
L 387.636364 289.32 
L 392.145455 300.077419 
L 396.654545 297.205161 
L 401.163636 295.443871 
L 405.672727 305.144516 
L 410.181818 303.6 
L 414.690909 302.380645 
L 419.2 300.185806 
L 423.709091 295.687742 
L 428.218182 300.077419 
L 432.727273 305.252903 
L 437.236364 304.196129 
L 441.745455 302.326452 
L 446.254545 301.350968 
L 450.763636 303.058065 
L 455.272727 301.215484 
L 459.781818 297.340645 
L 464.290909 303.410323 
L 468.8 302.624516 
L 473.309091 304.710968 
L 477.818182 301.83871 
L 482.327273 306.987097 
L 486.836364 306.553548 
L 491.345455 306.689032 
L 495.854545 306.580645 
L 500.363636 302.949677 
L 504.872727 302.570323 
L 509.381818 296.96129 
L 513.890909 302.516129 
L 518.4 298.532903 
" clip-path="url(#pe12a52fb86)" style="fill: none; stroke: #9467bd; stroke-width: 1.5; stroke-linecap: square"/>
   </g>
   <g id="line2d_16">
    <path d="M 72 119.856774 
L 76.509091 139.501935 
L 81.018182 168.522581 
L 85.527273 161.72129 
L 90.036364 172.776774 
L 94.545455 189.576774 
L 99.054545 206.729032 
L 103.563636 196.025806 
L 108.072727 201.689032 
L 112.581818 201.743226 
L 117.090909 218.814194 
L 121.6 201.96 
L 126.109091 204.588387 
L 130.618182 198.843871 
L 135.127273 207.487742 
L 139.636364 223.068387 
L 144.145455 234.692903 
L 148.654545 232.525161 
L 153.163636 236.589677 
L 157.672727 250.950968 
L 162.181818 246.39871 
L 166.690909 250.436129 
L 171.2 265.474839 
L 175.709091 253.606452 
L 180.218182 261.329032 
L 184.727273 269.07871 
L 189.236364 270.677419 
L 193.745455 267.940645 
L 198.254545 274.714839 
L 202.763636 282.003871 
L 207.272727 284.334194 
L 211.781818 270.731613 
L 216.290909 282.437419 
L 220.8 275.690323 
L 225.309091 278.427097 
L 229.818182 290.837419 
L 234.327273 277.939355 
L 238.836364 279.619355 
L 243.345455 284.740645 
L 247.854545 292.923871 
L 252.363636 284.252903 
L 256.872727 284.984516 
L 261.381818 284.19871 
L 265.890909 293.276129 
L 270.4 288.39871 
L 274.909091 286.529032 
L 279.418182 286.285161 
L 283.927273 283.304516 
L 288.436364 283.494194 
L 292.945455 282.627097 
L 297.454545 282.166452 
L 301.963636 295.254194 
L 306.472727 289.428387 
L 310.981818 287.992258 
L 315.490909 281.190968 
L 320 289.076129 
L 324.509091 292.219355 
L 329.018182 293.52 
L 333.527273 283.033548 
L 338.036364 287.341935 
L 342.545455 295.904516 
L 347.054545 289.834839 
L 351.563636 286.529032 
L 356.072727 292.923871 
L 360.581818 294.712258 
L 365.090909 281.245161 
L 369.6 297.259355 
L 374.109091 293.113548 
L 378.618182 287.531613 
L 383.127273 296.473548 
L 387.636364 285.634839 
L 392.145455 297.990968 
L 396.654545 296.094194 
L 401.163636 297.557419 
L 405.672727 292.463226 
L 410.181818 297.882581 
L 414.690909 299.508387 
L 419.2 289.265806 
L 423.709091 293.899355 
L 428.218182 301.83871 
L 432.727273 298.018065 
L 437.236364 299.833548 
L 441.745455 297.232258 
L 446.254545 296.175484 
L 450.763636 299.264516 
L 455.272727 296.744516 
L 459.781818 299.210323 
L 464.290909 302.326452 
L 468.8 300.294194 
L 473.309091 299.427097 
L 477.818182 294.658065 
L 482.327273 296.338065 
L 486.836364 300.971613 
L 491.345455 301.621935 
L 495.854545 304.656774 
L 500.363636 296.609032 
L 504.872727 297.286452 
L 509.381818 289.292903 
L 513.890909 298.397419 
L 518.4 294.305806 
" clip-path="url(#pe12a52fb86)" style="fill: none; stroke: #8c564b; stroke-width: 1.5; stroke-linecap: square"/>
   </g>
   <g id="line2d_17">
    <path d="M 72 113.353548 
L 76.509091 134.814194 
L 81.018182 176.516129 
L 85.527273 217.350968 
L 90.036364 229.788387 
L 94.545455 238.92 
L 99.054545 252.143226 
L 103.563636 262.060645 
L 108.072727 252.495484 
L 112.581818 254.690323 
L 117.090909 261.058065 
L 121.6 273.522581 
L 126.109091 259.350968 
L 130.618182 264.499355 
L 135.127273 246.723871 
L 139.636364 265.285161 
L 144.145455 279.483871 
L 148.654545 263.686452 
L 153.163636 246.154839 
L 157.672727 258.212903 
L 162.181818 255.367742 
L 166.690909 262.765161 
L 171.2 266.206452 
L 175.709091 262.006452 
L 180.218182 251.655484 
L 184.727273 270.298065 
L 189.236364 254.148387 
L 193.745455 266.829677 
L 198.254545 256.261935 
L 202.763636 276.394839 
L 207.272727 284.009032 
L 211.781818 258.700645 
L 216.290909 262.981935 
L 220.8 285.634839 
L 225.309091 278.589677 
L 229.818182 276.828387 
L 234.327273 272.60129 
L 238.836364 274.010323 
L 243.345455 290.837419 
L 247.854545 282.139355 
L 252.363636 283.304516 
L 256.872727 272.113548 
L 261.381818 257.156129 
L 265.890909 284.632258 
L 270.4 269.16 
L 274.909091 265.772903 
L 279.418182 279.700645 
L 283.927273 280.432258 
L 288.436364 274.443871 
L 292.945455 274.254194 
L 297.454545 264.553548 
L 301.963636 279.890323 
L 306.472727 269.945806 
L 310.981818 275.094194 
L 315.490909 280.513548 
L 320 285.092903 
L 324.509091 266.314839 
L 329.018182 283.494194 
L 333.527273 282.464516 
L 338.036364 282.979355 
L 342.545455 289.889032 
L 347.054545 272.167742 
L 351.563636 270.677419 
L 356.072727 284.415484 
L 360.581818 288.723871 
L 365.090909 275.636129 
L 369.6 283.873548 
L 374.109091 284.19871 
L 378.618182 264.797419 
L 383.127273 285.607742 
L 387.636364 276.747097 
L 392.145455 284.36129 
L 396.654545 283.683871 
L 401.163636 286.312258 
L 405.672727 285.065806 
L 410.181818 283.141935 
L 414.690909 293.113548 
L 419.2 282.058065 
L 423.709091 286.556129 
L 428.218182 289.699355 
L 432.727273 291.216774 
L 437.236364 289.889032 
L 441.745455 298.939355 
L 446.254545 284.713548 
L 450.763636 281.570323 
L 455.272727 291.243871 
L 459.781818 287.016774 
L 464.290909 291.325161 
L 468.8 293.574194 
L 473.309091 288.371613 
L 477.818182 287.206452 
L 482.327273 298.668387 
L 486.836364 293.086452 
L 491.345455 290.349677 
L 495.854545 291.677419 
L 500.363636 291.108387 
L 504.872727 285.797419 
L 509.381818 280.92 
L 513.890909 297.150968 
L 518.4 288.019355 
" clip-path="url(#pe12a52fb86)" style="fill: none; stroke: #e377c2; stroke-width: 1.5; stroke-linecap: square"/>
   </g>
   <g id="line2d_18">
    <path d="M 72 111.836129 
L 76.509091 109.153548 
L 81.018182 162.696774 
L 85.527273 169.985806 
L 90.036364 208.517419 
L 94.545455 224.667097 
L 99.054545 236.779355 
L 103.563636 272.465806 
L 108.072727 248.403871 
L 112.581818 257.427097 
L 117.090909 272.384516 
L 121.6 276.178065 
L 126.109091 272.709677 
L 130.618182 266.856774 
L 135.127273 256.180645 
L 139.636364 274.443871 
L 144.145455 290.810323 
L 148.654545 279.131613 
L 153.163636 275.88 
L 157.672727 271.436129 
L 162.181818 282.627097 
L 166.690909 287.910968 
L 171.2 286.014194 
L 175.709091 282.003871 
L 180.218182 271.083871 
L 184.727273 285.255484 
L 189.236364 276.340645 
L 193.745455 282.464516 
L 198.254545 290.620645 
L 202.763636 296.934194 
L 207.272727 290.376774 
L 211.781818 287.098065 
L 216.290909 286.501935 
L 220.8 288.154839 
L 225.309091 297.150968 
L 229.818182 291.514839 
L 234.327273 287.098065 
L 238.836364 292.219355 
L 243.345455 297.747097 
L 247.854545 293.113548 
L 252.363636 292.273548 
L 256.872727 290.729032 
L 261.381818 287.64 
L 265.890909 296.744516 
L 270.4 296.012903 
L 274.909091 296.609032 
L 279.418182 291.433548 
L 283.927273 288.317419 
L 288.436364 293.736774 
L 292.945455 287.910968 
L 297.454545 286.203871 
L 301.963636 300.754839 
L 306.472727 296.609032 
L 310.981818 296.88 
L 315.490909 279.348387 
L 320 297.232258 
L 324.509091 302.868387 
L 329.018182 296.554839 
L 333.527273 287.450323 
L 338.036364 297.855484 
L 342.545455 295.11871 
L 347.054545 288.019355 
L 351.563636 291.677419 
L 356.072727 291.135484 
L 360.581818 301.242581 
L 365.090909 286.989677 
L 369.6 300.375484 
L 374.109091 297.692903 
L 378.618182 291.433548 
L 383.127273 293.330323 
L 387.636364 286.745806 
L 392.145455 302.272258 
L 396.654545 296.229677 
L 401.163636 297.611613 
L 405.672727 296.636129 
L 410.181818 298.912258 
L 414.690909 298.64129 
L 419.2 297.313548 
L 423.709091 297.286452 
L 428.218182 299.047742 
L 432.727273 304.819355 
L 437.236364 306.255484 
L 441.745455 299.291613 
L 446.254545 297.069677 
L 450.763636 300.294194 
L 455.272727 304.52129 
L 459.781818 301.540645 
L 464.290909 304.765161 
L 468.8 302.570323 
L 473.309091 302.814194 
L 477.818182 299.779355 
L 482.327273 303.003871 
L 486.836364 303.735484 
L 491.345455 302.516129 
L 495.854545 307.8 
L 500.363636 302.055484 
L 504.872727 298.234839 
L 509.381818 295.931613 
L 513.890909 304.196129 
L 518.4 294.061935 
" clip-path="url(#pe12a52fb86)" style="fill: none; stroke: #7f7f7f; stroke-width: 1.5; stroke-linecap: square"/>
   </g>
   <g id="patch_3">
    <path d="M 72 320.4 
L 72 43.2 
" style="fill: none; stroke: #000000; stroke-width: 0.8; stroke-linejoin: miter; stroke-linecap: square"/>
   </g>
   <g id="patch_4">
    <path d="M 518.4 320.4 
L 518.4 43.2 
" style="fill: none; stroke: #000000; stroke-width: 0.8; stroke-linejoin: miter; stroke-linecap: square"/>
   </g>
   <g id="patch_5">
    <path d="M 72 320.4 
L 518.4 320.4 
" style="fill: none; stroke: #000000; stroke-width: 0.8; stroke-linejoin: miter; stroke-linecap: square"/>
   </g>
   <g id="patch_6">
    <path d="M 72 43.2 
L 518.4 43.2 
" style="fill: none; stroke: #000000; stroke-width: 0.8; stroke-linejoin: miter; stroke-linecap: square"/>
   </g>
   <g id="text_13">
    <!-- Splice Sites (donors) -->
    <g transform="translate(233.569687 37.2) scale(0.12 -0.12)">
     <defs>
      <path id="DejaVuSans-53" d="M 3425 4513 
L 3425 3897 
Q 3066 4069 2747 4153 
Q 2428 4238 2131 4238 
Q 1616 4238 1336 4038 
Q 1056 3838 1056 3469 
Q 1056 3159 1242 3001 
Q 1428 2844 1947 2747 
L 2328 2669 
Q 3034 2534 3370 2195 
Q 3706 1856 3706 1288 
Q 3706 609 3251 259 
Q 2797 -91 1919 -91 
Q 1588 -91 1214 -16 
Q 841 59 441 206 
L 441 856 
Q 825 641 1194 531 
Q 1563 422 1919 422 
Q 2459 422 2753 634 
Q 3047 847 3047 1241 
Q 3047 1584 2836 1778 
Q 2625 1972 2144 2069 
L 1759 2144 
Q 1053 2284 737 2584 
Q 422 2884 422 3419 
Q 422 4038 858 4394 
Q 1294 4750 2059 4750 
Q 2388 4750 2728 4690 
Q 3069 4631 3425 4513 
z
" transform="scale(0.015625)"/>
      <path id="DejaVuSans-6c" d="M 603 4863 
L 1178 4863 
L 1178 0 
L 603 0 
L 603 4863 
z
" transform="scale(0.015625)"/>
      <path id="DejaVuSans-63" d="M 3122 3366 
L 3122 2828 
Q 2878 2963 2633 3030 
Q 2388 3097 2138 3097 
Q 1578 3097 1268 2742 
Q 959 2388 959 1747 
Q 959 1106 1268 751 
Q 1578 397 2138 397 
Q 2388 397 2633 464 
Q 2878 531 3122 666 
L 3122 134 
Q 2881 22 2623 -34 
Q 2366 -91 2075 -91 
Q 1284 -91 818 406 
Q 353 903 353 1747 
Q 353 2603 823 3093 
Q 1294 3584 2113 3584 
Q 2378 3584 2631 3529 
Q 2884 3475 3122 3366 
z
" transform="scale(0.015625)"/>
      <path id="DejaVuSans-28" d="M 1984 4856 
Q 1566 4138 1362 3434 
Q 1159 2731 1159 2009 
Q 1159 1288 1364 580 
Q 1569 -128 1984 -844 
L 1484 -844 
Q 1016 -109 783 600 
Q 550 1309 550 2009 
Q 550 2706 781 3412 
Q 1013 4119 1484 4856 
L 1984 4856 
z
" transform="scale(0.015625)"/>
      <path id="DejaVuSans-64" d="M 2906 2969 
L 2906 4863 
L 3481 4863 
L 3481 0 
L 2906 0 
L 2906 525 
Q 2725 213 2448 61 
Q 2172 -91 1784 -91 
Q 1150 -91 751 415 
Q 353 922 353 1747 
Q 353 2572 751 3078 
Q 1150 3584 1784 3584 
Q 2172 3584 2448 3432 
Q 2725 3281 2906 2969 
z
M 947 1747 
Q 947 1113 1208 752 
Q 1469 391 1925 391 
Q 2381 391 2643 752 
Q 2906 1113 2906 1747 
Q 2906 2381 2643 2742 
Q 2381 3103 1925 3103 
Q 1469 3103 1208 2742 
Q 947 2381 947 1747 
z
" transform="scale(0.015625)"/>
      <path id="DejaVuSans-29" d="M 513 4856 
L 1013 4856 
Q 1481 4119 1714 3412 
Q 1947 2706 1947 2009 
Q 1947 1309 1714 600 
Q 1481 -109 1013 -844 
L 513 -844 
Q 928 -128 1133 580 
Q 1338 1288 1338 2009 
Q 1338 2731 1133 3434 
Q 928 4138 513 4856 
z
" transform="scale(0.015625)"/>
     </defs>
     <use xlink:href="#DejaVuSans-53"/>
     <use xlink:href="#DejaVuSans-70" transform="translate(63.476562 0)"/>
     <use xlink:href="#DejaVuSans-6c" transform="translate(126.953125 0)"/>
     <use xlink:href="#DejaVuSans-69" transform="translate(154.736328 0)"/>
     <use xlink:href="#DejaVuSans-63" transform="translate(182.519531 0)"/>
     <use xlink:href="#DejaVuSans-65" transform="translate(237.5 0)"/>
     <use xlink:href="#DejaVuSans-20" transform="translate(299.023438 0)"/>
     <use xlink:href="#DejaVuSans-53" transform="translate(330.810547 0)"/>
     <use xlink:href="#DejaVuSans-69" transform="translate(394.287109 0)"/>
     <use xlink:href="#DejaVuSans-74" transform="translate(422.070312 0)"/>
     <use xlink:href="#DejaVuSans-65" transform="translate(461.279297 0)"/>
     <use xlink:href="#DejaVuSans-73" transform="translate(522.802734 0)"/>
     <use xlink:href="#DejaVuSans-20" transform="translate(574.902344 0)"/>
     <use xlink:href="#DejaVuSans-28" transform="translate(606.689453 0)"/>
     <use xlink:href="#DejaVuSans-64" transform="translate(645.703125 0)"/>
     <use xlink:href="#DejaVuSans-6f" transform="translate(709.179688 0)"/>
     <use xlink:href="#DejaVuSans-6e" transform="translate(770.361328 0)"/>
     <use xlink:href="#DejaVuSans-6f" transform="translate(833.740234 0)"/>
     <use xlink:href="#DejaVuSans-72" transform="translate(894.921875 0)"/>
     <use xlink:href="#DejaVuSans-73" transform="translate(936.035156 0)"/>
     <use xlink:href="#DejaVuSans-29" transform="translate(988.134766 0)"/>
    </g>
   </g>
   <g id="legend_1">
    <g id="patch_7">
     <path d="M 334.210684 147.679025 
L 512.569 147.679025 
Q 514.235 147.679025 514.235 146.013025 
L 514.235 49.031 
Q 514.235 47.365 512.569 47.365 
L 334.210684 47.365 
Q 332.544684 47.365 332.544684 49.031 
L 332.544684 146.013025 
Q 332.544684 147.679025 334.210684 147.679025 
z
" style="fill: #ffffff; opacity: 0.8; stroke: #cccccc; stroke-linejoin: miter"/>
    </g>
    <g id="line2d_19">
     <path d="M 335.876684 54.110998 
L 344.206684 54.110998 
L 352.536684 54.110998 
" style="fill: none; stroke: #1f77b4; stroke-width: 1.5; stroke-linecap: square"/>
    </g>
    <g id="text_14">
     <!-- NT-MS V2 (50M) with rand. weights -->
     <g transform="translate(359.200684 57.026498) scale(0.0833 -0.0833)">
      <defs>
       <path id="DejaVuSans-4e" d="M 628 4666 
L 1478 4666 
L 3547 763 
L 3547 4666 
L 4159 4666 
L 4159 0 
L 3309 0 
L 1241 3903 
L 1241 0 
L 628 0 
L 628 4666 
z
" transform="scale(0.015625)"/>
       <path id="DejaVuSans-2d" d="M 313 2009 
L 1997 2009 
L 1997 1497 
L 313 1497 
L 313 2009 
z
" transform="scale(0.015625)"/>
       <path id="DejaVuSans-4d" d="M 628 4666 
L 1569 4666 
L 2759 1491 
L 3956 4666 
L 4897 4666 
L 4897 0 
L 4281 0 
L 4281 4097 
L 3078 897 
L 2444 897 
L 1241 4097 
L 1241 0 
L 628 0 
L 628 4666 
z
" transform="scale(0.015625)"/>
       <path id="DejaVuSans-56" d="M 1831 0 
L 50 4666 
L 709 4666 
L 2188 738 
L 3669 4666 
L 4325 4666 
L 2547 0 
L 1831 0 
z
" transform="scale(0.015625)"/>
       <path id="DejaVuSans-35" d="M 691 4666 
L 3169 4666 
L 3169 4134 
L 1269 4134 
L 1269 2991 
Q 1406 3038 1543 3061 
Q 1681 3084 1819 3084 
Q 2600 3084 3056 2656 
Q 3513 2228 3513 1497 
Q 3513 744 3044 326 
Q 2575 -91 1722 -91 
Q 1428 -91 1123 -41 
Q 819 9 494 109 
L 494 744 
Q 775 591 1075 516 
Q 1375 441 1709 441 
Q 2250 441 2565 725 
Q 2881 1009 2881 1497 
Q 2881 1984 2565 2268 
Q 2250 2553 1709 2553 
Q 1456 2553 1204 2497 
Q 953 2441 691 2322 
L 691 4666 
z
" transform="scale(0.015625)"/>
       <path id="DejaVuSans-77" d="M 269 3500 
L 844 3500 
L 1563 769 
L 2278 3500 
L 2956 3500 
L 3675 769 
L 4391 3500 
L 4966 3500 
L 4050 0 
L 3372 0 
L 2619 2869 
L 1863 0 
L 1184 0 
L 269 3500 
z
" transform="scale(0.015625)"/>
       <path id="DejaVuSans-68" d="M 3513 2113 
L 3513 0 
L 2938 0 
L 2938 2094 
Q 2938 2591 2744 2837 
Q 2550 3084 2163 3084 
Q 1697 3084 1428 2787 
Q 1159 2491 1159 1978 
L 1159 0 
L 581 0 
L 581 4863 
L 1159 4863 
L 1159 2956 
Q 1366 3272 1645 3428 
Q 1925 3584 2291 3584 
Q 2894 3584 3203 3211 
Q 3513 2838 3513 2113 
z
" transform="scale(0.015625)"/>
      </defs>
      <use xlink:href="#DejaVuSans-4e"/>
      <use xlink:href="#DejaVuSans-54" transform="translate(74.804688 0)"/>
      <use xlink:href="#DejaVuSans-2d" transform="translate(126.763672 0)"/>
      <use xlink:href="#DejaVuSans-4d" transform="translate(162.847656 0)"/>
      <use xlink:href="#DejaVuSans-53" transform="translate(249.126953 0)"/>
      <use xlink:href="#DejaVuSans-20" transform="translate(312.603516 0)"/>
      <use xlink:href="#DejaVuSans-56" transform="translate(344.390625 0)"/>
      <use xlink:href="#DejaVuSans-32" transform="translate(412.798828 0)"/>
      <use xlink:href="#DejaVuSans-20" transform="translate(476.421875 0)"/>
      <use xlink:href="#DejaVuSans-28" transform="translate(508.208984 0)"/>
      <use xlink:href="#DejaVuSans-35" transform="translate(547.222656 0)"/>
      <use xlink:href="#DejaVuSans-30" transform="translate(610.845703 0)"/>
      <use xlink:href="#DejaVuSans-4d" transform="translate(674.46875 0)"/>
      <use xlink:href="#DejaVuSans-29" transform="translate(760.748047 0)"/>
      <use xlink:href="#DejaVuSans-20" transform="translate(799.761719 0)"/>
      <use xlink:href="#DejaVuSans-77" transform="translate(831.548828 0)"/>
      <use xlink:href="#DejaVuSans-69" transform="translate(913.335938 0)"/>
      <use xlink:href="#DejaVuSans-74" transform="translate(941.119141 0)"/>
      <use xlink:href="#DejaVuSans-68" transform="translate(980.328125 0)"/>
      <use xlink:href="#DejaVuSans-20" transform="translate(1043.707031 0)"/>
      <use xlink:href="#DejaVuSans-72" transform="translate(1075.494141 0)"/>
      <use xlink:href="#DejaVuSans-61" transform="translate(1116.607422 0)"/>
      <use xlink:href="#DejaVuSans-6e" transform="translate(1177.886719 0)"/>
      <use xlink:href="#DejaVuSans-64" transform="translate(1241.265625 0)"/>
      <use xlink:href="#DejaVuSans-2e" transform="translate(1304.742188 0)"/>
      <use xlink:href="#DejaVuSans-20" transform="translate(1336.529297 0)"/>
      <use xlink:href="#DejaVuSans-77" transform="translate(1368.316406 0)"/>
      <use xlink:href="#DejaVuSans-65" transform="translate(1450.103516 0)"/>
      <use xlink:href="#DejaVuSans-69" transform="translate(1511.626953 0)"/>
      <use xlink:href="#DejaVuSans-67" transform="translate(1539.410156 0)"/>
      <use xlink:href="#DejaVuSans-68" transform="translate(1602.886719 0)"/>
      <use xlink:href="#DejaVuSans-74" transform="translate(1666.265625 0)"/>
      <use xlink:href="#DejaVuSans-73" transform="translate(1705.474609 0)"/>
     </g>
    </g>
    <g id="line2d_20">
     <path d="M 335.876684 66.337877 
L 344.206684 66.337877 
L 352.536684 66.337877 
" style="fill: none; stroke: #ff7f0e; stroke-width: 1.5; stroke-linecap: square"/>
    </g>
    <g id="text_15">
     <!-- NT-MS V2 (500M) with rand. weights -->
     <g transform="translate(359.200684 69.253377) scale(0.0833 -0.0833)">
      <use xlink:href="#DejaVuSans-4e"/>
      <use xlink:href="#DejaVuSans-54" transform="translate(74.804688 0)"/>
      <use xlink:href="#DejaVuSans-2d" transform="translate(126.763672 0)"/>
      <use xlink:href="#DejaVuSans-4d" transform="translate(162.847656 0)"/>
      <use xlink:href="#DejaVuSans-53" transform="translate(249.126953 0)"/>
      <use xlink:href="#DejaVuSans-20" transform="translate(312.603516 0)"/>
      <use xlink:href="#DejaVuSans-56" transform="translate(344.390625 0)"/>
      <use xlink:href="#DejaVuSans-32" transform="translate(412.798828 0)"/>
      <use xlink:href="#DejaVuSans-20" transform="translate(476.421875 0)"/>
      <use xlink:href="#DejaVuSans-28" transform="translate(508.208984 0)"/>
      <use xlink:href="#DejaVuSans-35" transform="translate(547.222656 0)"/>
      <use xlink:href="#DejaVuSans-30" transform="translate(610.845703 0)"/>
      <use xlink:href="#DejaVuSans-30" transform="translate(674.46875 0)"/>
      <use xlink:href="#DejaVuSans-4d" transform="translate(738.091797 0)"/>
      <use xlink:href="#DejaVuSans-29" transform="translate(824.371094 0)"/>
      <use xlink:href="#DejaVuSans-20" transform="translate(863.384766 0)"/>
      <use xlink:href="#DejaVuSans-77" transform="translate(895.171875 0)"/>
      <use xlink:href="#DejaVuSans-69" transform="translate(976.958984 0)"/>
      <use xlink:href="#DejaVuSans-74" transform="translate(1004.742188 0)"/>
      <use xlink:href="#DejaVuSans-68" transform="translate(1043.951172 0)"/>
      <use xlink:href="#DejaVuSans-20" transform="translate(1107.330078 0)"/>
      <use xlink:href="#DejaVuSans-72" transform="translate(1139.117188 0)"/>
      <use xlink:href="#DejaVuSans-61" transform="translate(1180.230469 0)"/>
      <use xlink:href="#DejaVuSans-6e" transform="translate(1241.509766 0)"/>
      <use xlink:href="#DejaVuSans-64" transform="translate(1304.888672 0)"/>
      <use xlink:href="#DejaVuSans-2e" transform="translate(1368.365234 0)"/>
      <use xlink:href="#DejaVuSans-20" transform="translate(1400.152344 0)"/>
      <use xlink:href="#DejaVuSans-77" transform="translate(1431.939453 0)"/>
      <use xlink:href="#DejaVuSans-65" transform="translate(1513.726562 0)"/>
      <use xlink:href="#DejaVuSans-69" transform="translate(1575.25 0)"/>
      <use xlink:href="#DejaVuSans-67" transform="translate(1603.033203 0)"/>
      <use xlink:href="#DejaVuSans-68" transform="translate(1666.509766 0)"/>
      <use xlink:href="#DejaVuSans-74" transform="translate(1729.888672 0)"/>
      <use xlink:href="#DejaVuSans-73" transform="translate(1769.097656 0)"/>
     </g>
    </g>
    <g id="line2d_21">
     <path d="M 335.876684 78.564755 
L 344.206684 78.564755 
L 352.536684 78.564755 
" style="fill: none; stroke: #2ca02c; stroke-width: 1.5; stroke-linecap: square"/>
    </g>
    <g id="text_16">
     <!-- NT-MS V2 (50M) -->
     <g transform="translate(359.200684 81.480255) scale(0.0833 -0.0833)">
      <use xlink:href="#DejaVuSans-4e"/>
      <use xlink:href="#DejaVuSans-54" transform="translate(74.804688 0)"/>
      <use xlink:href="#DejaVuSans-2d" transform="translate(126.763672 0)"/>
      <use xlink:href="#DejaVuSans-4d" transform="translate(162.847656 0)"/>
      <use xlink:href="#DejaVuSans-53" transform="translate(249.126953 0)"/>
      <use xlink:href="#DejaVuSans-20" transform="translate(312.603516 0)"/>
      <use xlink:href="#DejaVuSans-56" transform="translate(344.390625 0)"/>
      <use xlink:href="#DejaVuSans-32" transform="translate(412.798828 0)"/>
      <use xlink:href="#DejaVuSans-20" transform="translate(476.421875 0)"/>
      <use xlink:href="#DejaVuSans-28" transform="translate(508.208984 0)"/>
      <use xlink:href="#DejaVuSans-35" transform="translate(547.222656 0)"/>
      <use xlink:href="#DejaVuSans-30" transform="translate(610.845703 0)"/>
      <use xlink:href="#DejaVuSans-4d" transform="translate(674.46875 0)"/>
      <use xlink:href="#DejaVuSans-29" transform="translate(760.748047 0)"/>
     </g>
    </g>
    <g id="line2d_22">
     <path d="M 335.876684 90.791633 
L 344.206684 90.791633 
L 352.536684 90.791633 
" style="fill: none; stroke: #d62728; stroke-width: 1.5; stroke-linecap: square"/>
    </g>
    <g id="text_17">
     <!-- NT-1000g (500M) -->
     <g transform="translate(359.200684 93.707133) scale(0.0833 -0.0833)">
      <use xlink:href="#DejaVuSans-4e"/>
      <use xlink:href="#DejaVuSans-54" transform="translate(74.804688 0)"/>
      <use xlink:href="#DejaVuSans-2d" transform="translate(126.763672 0)"/>
      <use xlink:href="#DejaVuSans-31" transform="translate(162.847656 0)"/>
      <use xlink:href="#DejaVuSans-30" transform="translate(226.470703 0)"/>
      <use xlink:href="#DejaVuSans-30" transform="translate(290.09375 0)"/>
      <use xlink:href="#DejaVuSans-30" transform="translate(353.716797 0)"/>
      <use xlink:href="#DejaVuSans-67" transform="translate(417.339844 0)"/>
      <use xlink:href="#DejaVuSans-20" transform="translate(480.816406 0)"/>
      <use xlink:href="#DejaVuSans-28" transform="translate(512.603516 0)"/>
      <use xlink:href="#DejaVuSans-35" transform="translate(551.617188 0)"/>
      <use xlink:href="#DejaVuSans-30" transform="translate(615.240234 0)"/>
      <use xlink:href="#DejaVuSans-30" transform="translate(678.863281 0)"/>
      <use xlink:href="#DejaVuSans-4d" transform="translate(742.486328 0)"/>
      <use xlink:href="#DejaVuSans-29" transform="translate(828.765625 0)"/>
     </g>
    </g>
    <g id="line2d_23">
     <path d="M 335.876684 103.018511 
L 344.206684 103.018511 
L 352.536684 103.018511 
" style="fill: none; stroke: #9467bd; stroke-width: 1.5; stroke-linecap: square"/>
    </g>
    <g id="text_18">
     <!-- NT-MS V2 (250M) -->
     <g transform="translate(359.200684 105.934011) scale(0.0833 -0.0833)">
      <use xlink:href="#DejaVuSans-4e"/>
      <use xlink:href="#DejaVuSans-54" transform="translate(74.804688 0)"/>
      <use xlink:href="#DejaVuSans-2d" transform="translate(126.763672 0)"/>
      <use xlink:href="#DejaVuSans-4d" transform="translate(162.847656 0)"/>
      <use xlink:href="#DejaVuSans-53" transform="translate(249.126953 0)"/>
      <use xlink:href="#DejaVuSans-20" transform="translate(312.603516 0)"/>
      <use xlink:href="#DejaVuSans-56" transform="translate(344.390625 0)"/>
      <use xlink:href="#DejaVuSans-32" transform="translate(412.798828 0)"/>
      <use xlink:href="#DejaVuSans-20" transform="translate(476.421875 0)"/>
      <use xlink:href="#DejaVuSans-28" transform="translate(508.208984 0)"/>
      <use xlink:href="#DejaVuSans-32" transform="translate(547.222656 0)"/>
      <use xlink:href="#DejaVuSans-35" transform="translate(610.845703 0)"/>
      <use xlink:href="#DejaVuSans-30" transform="translate(674.46875 0)"/>
      <use xlink:href="#DejaVuSans-4d" transform="translate(738.091797 0)"/>
      <use xlink:href="#DejaVuSans-29" transform="translate(824.371094 0)"/>
     </g>
    </g>
    <g id="line2d_24">
     <path d="M 335.876684 115.245389 
L 344.206684 115.245389 
L 352.536684 115.245389 
" style="fill: none; stroke: #8c564b; stroke-width: 1.5; stroke-linecap: square"/>
    </g>
    <g id="text_19">
     <!-- NT-MS V2 (100M) -->
     <g transform="translate(359.200684 118.160889) scale(0.0833 -0.0833)">
      <use xlink:href="#DejaVuSans-4e"/>
      <use xlink:href="#DejaVuSans-54" transform="translate(74.804688 0)"/>
      <use xlink:href="#DejaVuSans-2d" transform="translate(126.763672 0)"/>
      <use xlink:href="#DejaVuSans-4d" transform="translate(162.847656 0)"/>
      <use xlink:href="#DejaVuSans-53" transform="translate(249.126953 0)"/>
      <use xlink:href="#DejaVuSans-20" transform="translate(312.603516 0)"/>
      <use xlink:href="#DejaVuSans-56" transform="translate(344.390625 0)"/>
      <use xlink:href="#DejaVuSans-32" transform="translate(412.798828 0)"/>
      <use xlink:href="#DejaVuSans-20" transform="translate(476.421875 0)"/>
      <use xlink:href="#DejaVuSans-28" transform="translate(508.208984 0)"/>
      <use xlink:href="#DejaVuSans-31" transform="translate(547.222656 0)"/>
      <use xlink:href="#DejaVuSans-30" transform="translate(610.845703 0)"/>
      <use xlink:href="#DejaVuSans-30" transform="translate(674.46875 0)"/>
      <use xlink:href="#DejaVuSans-4d" transform="translate(738.091797 0)"/>
      <use xlink:href="#DejaVuSans-29" transform="translate(824.371094 0)"/>
     </g>
    </g>
    <g id="line2d_25">
     <path d="M 335.876684 127.472267 
L 344.206684 127.472267 
L 352.536684 127.472267 
" style="fill: none; stroke: #e377c2; stroke-width: 1.5; stroke-linecap: square"/>
    </g>
    <g id="text_20">
     <!-- NT-Human-Ref. (500M) -->
     <g transform="translate(359.200684 130.387767) scale(0.0833 -0.0833)">
      <defs>
       <path id="DejaVuSans-48" d="M 628 4666 
L 1259 4666 
L 1259 2753 
L 3553 2753 
L 3553 4666 
L 4184 4666 
L 4184 0 
L 3553 0 
L 3553 2222 
L 1259 2222 
L 1259 0 
L 628 0 
L 628 4666 
z
" transform="scale(0.015625)"/>
       <path id="DejaVuSans-75" d="M 544 1381 
L 544 3500 
L 1119 3500 
L 1119 1403 
Q 1119 906 1312 657 
Q 1506 409 1894 409 
Q 2359 409 2629 706 
Q 2900 1003 2900 1516 
L 2900 3500 
L 3475 3500 
L 3475 0 
L 2900 0 
L 2900 538 
Q 2691 219 2414 64 
Q 2138 -91 1772 -91 
Q 1169 -91 856 284 
Q 544 659 544 1381 
z
M 1991 3584 
L 1991 3584 
z
" transform="scale(0.015625)"/>
       <path id="DejaVuSans-6d" d="M 3328 2828 
Q 3544 3216 3844 3400 
Q 4144 3584 4550 3584 
Q 5097 3584 5394 3201 
Q 5691 2819 5691 2113 
L 5691 0 
L 5113 0 
L 5113 2094 
Q 5113 2597 4934 2840 
Q 4756 3084 4391 3084 
Q 3944 3084 3684 2787 
Q 3425 2491 3425 1978 
L 3425 0 
L 2847 0 
L 2847 2094 
Q 2847 2600 2669 2842 
Q 2491 3084 2119 3084 
Q 1678 3084 1418 2786 
Q 1159 2488 1159 1978 
L 1159 0 
L 581 0 
L 581 3500 
L 1159 3500 
L 1159 2956 
Q 1356 3278 1631 3431 
Q 1906 3584 2284 3584 
Q 2666 3584 2933 3390 
Q 3200 3197 3328 2828 
z
" transform="scale(0.015625)"/>
       <path id="DejaVuSans-52" d="M 2841 2188 
Q 3044 2119 3236 1894 
Q 3428 1669 3622 1275 
L 4263 0 
L 3584 0 
L 2988 1197 
Q 2756 1666 2539 1819 
Q 2322 1972 1947 1972 
L 1259 1972 
L 1259 0 
L 628 0 
L 628 4666 
L 2053 4666 
Q 2853 4666 3247 4331 
Q 3641 3997 3641 3322 
Q 3641 2881 3436 2590 
Q 3231 2300 2841 2188 
z
M 1259 4147 
L 1259 2491 
L 2053 2491 
Q 2509 2491 2742 2702 
Q 2975 2913 2975 3322 
Q 2975 3731 2742 3939 
Q 2509 4147 2053 4147 
L 1259 4147 
z
" transform="scale(0.015625)"/>
       <path id="DejaVuSans-66" d="M 2375 4863 
L 2375 4384 
L 1825 4384 
Q 1516 4384 1395 4259 
Q 1275 4134 1275 3809 
L 1275 3500 
L 2222 3500 
L 2222 3053 
L 1275 3053 
L 1275 0 
L 697 0 
L 697 3053 
L 147 3053 
L 147 3500 
L 697 3500 
L 697 3744 
Q 697 4328 969 4595 
Q 1241 4863 1831 4863 
L 2375 4863 
z
" transform="scale(0.015625)"/>
      </defs>
      <use xlink:href="#DejaVuSans-4e"/>
      <use xlink:href="#DejaVuSans-54" transform="translate(74.804688 0)"/>
      <use xlink:href="#DejaVuSans-2d" transform="translate(126.763672 0)"/>
      <use xlink:href="#DejaVuSans-48" transform="translate(162.847656 0)"/>
      <use xlink:href="#DejaVuSans-75" transform="translate(238.042969 0)"/>
      <use xlink:href="#DejaVuSans-6d" transform="translate(301.421875 0)"/>
      <use xlink:href="#DejaVuSans-61" transform="translate(398.833984 0)"/>
      <use xlink:href="#DejaVuSans-6e" transform="translate(460.113281 0)"/>
      <use xlink:href="#DejaVuSans-2d" transform="translate(523.492188 0)"/>
      <use xlink:href="#DejaVuSans-52" transform="translate(559.576172 0)"/>
      <use xlink:href="#DejaVuSans-65" transform="translate(624.558594 0)"/>
      <use xlink:href="#DejaVuSans-66" transform="translate(686.082031 0)"/>
      <use xlink:href="#DejaVuSans-2e" transform="translate(714.037109 0)"/>
      <use xlink:href="#DejaVuSans-20" transform="translate(745.824219 0)"/>
      <use xlink:href="#DejaVuSans-28" transform="translate(777.611328 0)"/>
      <use xlink:href="#DejaVuSans-35" transform="translate(816.625 0)"/>
      <use xlink:href="#DejaVuSans-30" transform="translate(880.248047 0)"/>
      <use xlink:href="#DejaVuSans-30" transform="translate(943.871094 0)"/>
      <use xlink:href="#DejaVuSans-4d" transform="translate(1007.494141 0)"/>
      <use xlink:href="#DejaVuSans-29" transform="translate(1093.773438 0)"/>
     </g>
    </g>
    <g id="line2d_26">
     <path d="M 335.876684 139.699145 
L 344.206684 139.699145 
L 352.536684 139.699145 
" style="fill: none; stroke: #7f7f7f; stroke-width: 1.5; stroke-linecap: square"/>
    </g>
    <g id="text_21">
     <!-- NT-MS V2 (500M) -->
     <g transform="translate(359.200684 142.614645) scale(0.0833 -0.0833)">
      <use xlink:href="#DejaVuSans-4e"/>
      <use xlink:href="#DejaVuSans-54" transform="translate(74.804688 0)"/>
      <use xlink:href="#DejaVuSans-2d" transform="translate(126.763672 0)"/>
      <use xlink:href="#DejaVuSans-4d" transform="translate(162.847656 0)"/>
      <use xlink:href="#DejaVuSans-53" transform="translate(249.126953 0)"/>
      <use xlink:href="#DejaVuSans-20" transform="translate(312.603516 0)"/>
      <use xlink:href="#DejaVuSans-56" transform="translate(344.390625 0)"/>
      <use xlink:href="#DejaVuSans-32" transform="translate(412.798828 0)"/>
      <use xlink:href="#DejaVuSans-20" transform="translate(476.421875 0)"/>
      <use xlink:href="#DejaVuSans-28" transform="translate(508.208984 0)"/>
      <use xlink:href="#DejaVuSans-35" transform="translate(547.222656 0)"/>
      <use xlink:href="#DejaVuSans-30" transform="translate(610.845703 0)"/>
      <use xlink:href="#DejaVuSans-30" transform="translate(674.46875 0)"/>
      <use xlink:href="#DejaVuSans-4d" transform="translate(738.091797 0)"/>
      <use xlink:href="#DejaVuSans-29" transform="translate(824.371094 0)"/>
     </g>
    </g>
   </g>
  </g>
 </g>
 <defs>
  <clipPath id="pe12a52fb86">
   <rect x="72" y="43.2" width="446.4" height="277.2"/>
  </clipPath>
 </defs>
</svg>
