<?xml version="1.0" encoding="utf-8" standalone="no"?>
<!DOCTYPE svg PUBLIC "-//W3C//DTD SVG 1.1//EN"
  "http://www.w3.org/Graphics/SVG/1.1/DTD/svg11.dtd">
<svg xmlns:xlink="http://www.w3.org/1999/xlink" width="576pt" height="360pt" viewBox="0 0 576 360" xmlns="http://www.w3.org/2000/svg" version="1.1">
 <metadata>
  <rdf:RDF xmlns:dc="http://purl.org/dc/elements/1.1/" xmlns:cc="http://creativecommons.org/ns#" xmlns:rdf="http://www.w3.org/1999/02/22-rdf-syntax-ns#">
   <cc:Work>
    <dc:type rdf:resource="http://purl.org/dc/dcmitype/StillImage"/>
    <dc:date>2025-01-07T03:55:01.007994</dc:date>
    <dc:format>image/svg+xml</dc:format>
    <dc:creator>
     <cc:Agent>
      <dc:title>Matplotlib v3.10.0, https://matplotlib.org/</dc:title>
     </cc:Agent>
    </dc:creator>
   </cc:Work>
  </rdf:RDF>
 </metadata>
 <defs>
  <style type="text/css">*{stroke-linejoin: round; stroke-linecap: butt}</style>
 </defs>
 <g id="figure_1">
  <g id="patch_1">
   <path d="M 0 360 
L 576 360 
L 576 0 
L 0 0 
z
" style="fill: #ffffff"/>
  </g>
  <g id="axes_1">
   <g id="patch_2">
    <path d="M 72 320.4 
L 518.4 320.4 
L 518.4 43.2 
L 72 43.2 
z
" style="fill: #ffffff"/>
   </g>
   <g id="matplotlib.axis_1">
    <g id="xtick_1">
     <g id="line2d_1">
      <defs>
       <path id="mbe41190827" d="M 0 0 
L 0 3.5 
" style="stroke: #000000; stroke-width: 0.8"/>
      </defs>
      <g>
       <use xlink:href="#mbe41190827" x="157.672727" y="320.4" style="stroke: #000000; stroke-width: 0.8"/>
      </g>
     </g>
     <g id="text_1">
      <!-- 2000 -->
      <g transform="translate(144.947727 334.998438) scale(0.1 -0.1)">
       <defs>
        <path id="DejaVuSans-32" d="M 1228 531 
L 3431 531 
L 3431 0 
L 469 0 
L 469 531 
Q 828 903 1448 1529 
Q 2069 2156 2228 2338 
Q 2531 2678 2651 2914 
Q 2772 3150 2772 3378 
Q 2772 3750 2511 3984 
Q 2250 4219 1831 4219 
Q 1534 4219 1204 4116 
Q 875 4013 500 3803 
L 500 4441 
Q 881 4594 1212 4672 
Q 1544 4750 1819 4750 
Q 2544 4750 2975 4387 
Q 3406 4025 3406 3419 
Q 3406 3131 3298 2873 
Q 3191 2616 2906 2266 
Q 2828 2175 2409 1742 
Q 1991 1309 1228 531 
z
" transform="scale(0.015625)"/>
        <path id="DejaVuSans-30" d="M 2034 4250 
Q 1547 4250 1301 3770 
Q 1056 3291 1056 2328 
Q 1056 1369 1301 889 
Q 1547 409 2034 409 
Q 2525 409 2770 889 
Q 3016 1369 3016 2328 
Q 3016 3291 2770 3770 
Q 2525 4250 2034 4250 
z
M 2034 4750 
Q 2819 4750 3233 4129 
Q 3647 3509 3647 2328 
Q 3647 1150 3233 529 
Q 2819 -91 2034 -91 
Q 1250 -91 836 529 
Q 422 1150 422 2328 
Q 422 3509 836 4129 
Q 1250 4750 2034 4750 
z
" transform="scale(0.015625)"/>
       </defs>
       <use xlink:href="#DejaVuSans-32"/>
       <use xlink:href="#DejaVuSans-30" transform="translate(63.623047 0)"/>
       <use xlink:href="#DejaVuSans-30" transform="translate(127.246094 0)"/>
       <use xlink:href="#DejaVuSans-30" transform="translate(190.869141 0)"/>
      </g>
     </g>
    </g>
    <g id="xtick_2">
     <g id="line2d_2">
      <g>
       <use xlink:href="#mbe41190827" x="247.854545" y="320.4" style="stroke: #000000; stroke-width: 0.8"/>
      </g>
     </g>
     <g id="text_2">
      <!-- 4000 -->
      <g transform="translate(235.129545 334.998438) scale(0.1 -0.1)">
       <defs>
        <path id="DejaVuSans-34" d="M 2419 4116 
L 825 1625 
L 2419 1625 
L 2419 4116 
z
M 2253 4666 
L 3047 4666 
L 3047 1625 
L 3713 1625 
L 3713 1100 
L 3047 1100 
L 3047 0 
L 2419 0 
L 2419 1100 
L 313 1100 
L 313 1709 
L 2253 4666 
z
" transform="scale(0.015625)"/>
       </defs>
       <use xlink:href="#DejaVuSans-34"/>
       <use xlink:href="#DejaVuSans-30" transform="translate(63.623047 0)"/>
       <use xlink:href="#DejaVuSans-30" transform="translate(127.246094 0)"/>
       <use xlink:href="#DejaVuSans-30" transform="translate(190.869141 0)"/>
      </g>
     </g>
    </g>
    <g id="xtick_3">
     <g id="line2d_3">
      <g>
       <use xlink:href="#mbe41190827" x="338.036364" y="320.4" style="stroke: #000000; stroke-width: 0.8"/>
      </g>
     </g>
     <g id="text_3">
      <!-- 6000 -->
      <g transform="translate(325.311364 334.998438) scale(0.1 -0.1)">
       <defs>
        <path id="DejaVuSans-36" d="M 2113 2584 
Q 1688 2584 1439 2293 
Q 1191 2003 1191 1497 
Q 1191 994 1439 701 
Q 1688 409 2113 409 
Q 2538 409 2786 701 
Q 3034 994 3034 1497 
Q 3034 2003 2786 2293 
Q 2538 2584 2113 2584 
z
M 3366 4563 
L 3366 3988 
Q 3128 4100 2886 4159 
Q 2644 4219 2406 4219 
Q 1781 4219 1451 3797 
Q 1122 3375 1075 2522 
Q 1259 2794 1537 2939 
Q 1816 3084 2150 3084 
Q 2853 3084 3261 2657 
Q 3669 2231 3669 1497 
Q 3669 778 3244 343 
Q 2819 -91 2113 -91 
Q 1303 -91 875 529 
Q 447 1150 447 2328 
Q 447 3434 972 4092 
Q 1497 4750 2381 4750 
Q 2619 4750 2861 4703 
Q 3103 4656 3366 4563 
z
" transform="scale(0.015625)"/>
       </defs>
       <use xlink:href="#DejaVuSans-36"/>
       <use xlink:href="#DejaVuSans-30" transform="translate(63.623047 0)"/>
       <use xlink:href="#DejaVuSans-30" transform="translate(127.246094 0)"/>
       <use xlink:href="#DejaVuSans-30" transform="translate(190.869141 0)"/>
      </g>
     </g>
    </g>
    <g id="xtick_4">
     <g id="line2d_4">
      <g>
       <use xlink:href="#mbe41190827" x="428.218182" y="320.4" style="stroke: #000000; stroke-width: 0.8"/>
      </g>
     </g>
     <g id="text_4">
      <!-- 8000 -->
      <g transform="translate(415.493182 334.998438) scale(0.1 -0.1)">
       <defs>
        <path id="DejaVuSans-38" d="M 2034 2216 
Q 1584 2216 1326 1975 
Q 1069 1734 1069 1313 
Q 1069 891 1326 650 
Q 1584 409 2034 409 
Q 2484 409 2743 651 
Q 3003 894 3003 1313 
Q 3003 1734 2745 1975 
Q 2488 2216 2034 2216 
z
M 1403 2484 
Q 997 2584 770 2862 
Q 544 3141 544 3541 
Q 544 4100 942 4425 
Q 1341 4750 2034 4750 
Q 2731 4750 3128 4425 
Q 3525 4100 3525 3541 
Q 3525 3141 3298 2862 
Q 3072 2584 2669 2484 
Q 3125 2378 3379 2068 
Q 3634 1759 3634 1313 
Q 3634 634 3220 271 
Q 2806 -91 2034 -91 
Q 1263 -91 848 271 
Q 434 634 434 1313 
Q 434 1759 690 2068 
Q 947 2378 1403 2484 
z
M 1172 3481 
Q 1172 3119 1398 2916 
Q 1625 2713 2034 2713 
Q 2441 2713 2670 2916 
Q 2900 3119 2900 3481 
Q 2900 3844 2670 4047 
Q 2441 4250 2034 4250 
Q 1625 4250 1398 4047 
Q 1172 3844 1172 3481 
z
" transform="scale(0.015625)"/>
       </defs>
       <use xlink:href="#DejaVuSans-38"/>
       <use xlink:href="#DejaVuSans-30" transform="translate(63.623047 0)"/>
       <use xlink:href="#DejaVuSans-30" transform="translate(127.246094 0)"/>
       <use xlink:href="#DejaVuSans-30" transform="translate(190.869141 0)"/>
      </g>
     </g>
    </g>
    <g id="xtick_5">
     <g id="line2d_5">
      <g>
       <use xlink:href="#mbe41190827" x="518.4" y="320.4" style="stroke: #000000; stroke-width: 0.8"/>
      </g>
     </g>
     <g id="text_5">
      <!-- 10000 -->
      <g transform="translate(502.49375 334.998438) scale(0.1 -0.1)">
       <defs>
        <path id="DejaVuSans-31" d="M 794 531 
L 1825 531 
L 1825 4091 
L 703 3866 
L 703 4441 
L 1819 4666 
L 2450 4666 
L 2450 531 
L 3481 531 
L 3481 0 
L 794 0 
L 794 531 
z
" transform="scale(0.015625)"/>
       </defs>
       <use xlink:href="#DejaVuSans-31"/>
       <use xlink:href="#DejaVuSans-30" transform="translate(63.623047 0)"/>
       <use xlink:href="#DejaVuSans-30" transform="translate(127.246094 0)"/>
       <use xlink:href="#DejaVuSans-30" transform="translate(190.869141 0)"/>
       <use xlink:href="#DejaVuSans-30" transform="translate(254.492188 0)"/>
      </g>
     </g>
    </g>
    <g id="text_6">
     <!-- Training steps -->
     <g transform="translate(260.464844 348.676562) scale(0.1 -0.1)">
      <defs>
       <path id="DejaVuSans-54" d="M -19 4666 
L 3928 4666 
L 3928 4134 
L 2272 4134 
L 2272 0 
L 1638 0 
L 1638 4134 
L -19 4134 
L -19 4666 
z
" transform="scale(0.015625)"/>
       <path id="DejaVuSans-72" d="M 2631 2963 
Q 2534 3019 2420 3045 
Q 2306 3072 2169 3072 
Q 1681 3072 1420 2755 
Q 1159 2438 1159 1844 
L 1159 0 
L 581 0 
L 581 3500 
L 1159 3500 
L 1159 2956 
Q 1341 3275 1631 3429 
Q 1922 3584 2338 3584 
Q 2397 3584 2469 3576 
Q 2541 3569 2628 3553 
L 2631 2963 
z
" transform="scale(0.015625)"/>
       <path id="DejaVuSans-61" d="M 2194 1759 
Q 1497 1759 1228 1600 
Q 959 1441 959 1056 
Q 959 750 1161 570 
Q 1363 391 1709 391 
Q 2188 391 2477 730 
Q 2766 1069 2766 1631 
L 2766 1759 
L 2194 1759 
z
M 3341 1997 
L 3341 0 
L 2766 0 
L 2766 531 
Q 2569 213 2275 61 
Q 1981 -91 1556 -91 
Q 1019 -91 701 211 
Q 384 513 384 1019 
Q 384 1609 779 1909 
Q 1175 2209 1959 2209 
L 2766 2209 
L 2766 2266 
Q 2766 2663 2505 2880 
Q 2244 3097 1772 3097 
Q 1472 3097 1187 3025 
Q 903 2953 641 2809 
L 641 3341 
Q 956 3463 1253 3523 
Q 1550 3584 1831 3584 
Q 2591 3584 2966 3190 
Q 3341 2797 3341 1997 
z
" transform="scale(0.015625)"/>
       <path id="DejaVuSans-69" d="M 603 3500 
L 1178 3500 
L 1178 0 
L 603 0 
L 603 3500 
z
M 603 4863 
L 1178 4863 
L 1178 4134 
L 603 4134 
L 603 4863 
z
" transform="scale(0.015625)"/>
       <path id="DejaVuSans-6e" d="M 3513 2113 
L 3513 0 
L 2938 0 
L 2938 2094 
Q 2938 2591 2744 2837 
Q 2550 3084 2163 3084 
Q 1697 3084 1428 2787 
Q 1159 2491 1159 1978 
L 1159 0 
L 581 0 
L 581 3500 
L 1159 3500 
L 1159 2956 
Q 1366 3272 1645 3428 
Q 1925 3584 2291 3584 
Q 2894 3584 3203 3211 
Q 3513 2838 3513 2113 
z
" transform="scale(0.015625)"/>
       <path id="DejaVuSans-67" d="M 2906 1791 
Q 2906 2416 2648 2759 
Q 2391 3103 1925 3103 
Q 1463 3103 1205 2759 
Q 947 2416 947 1791 
Q 947 1169 1205 825 
Q 1463 481 1925 481 
Q 2391 481 2648 825 
Q 2906 1169 2906 1791 
z
M 3481 434 
Q 3481 -459 3084 -895 
Q 2688 -1331 1869 -1331 
Q 1566 -1331 1297 -1286 
Q 1028 -1241 775 -1147 
L 775 -588 
Q 1028 -725 1275 -790 
Q 1522 -856 1778 -856 
Q 2344 -856 2625 -561 
Q 2906 -266 2906 331 
L 2906 616 
Q 2728 306 2450 153 
Q 2172 0 1784 0 
Q 1141 0 747 490 
Q 353 981 353 1791 
Q 353 2603 747 3093 
Q 1141 3584 1784 3584 
Q 2172 3584 2450 3431 
Q 2728 3278 2906 2969 
L 2906 3500 
L 3481 3500 
L 3481 434 
z
" transform="scale(0.015625)"/>
       <path id="DejaVuSans-20" transform="scale(0.015625)"/>
       <path id="DejaVuSans-73" d="M 2834 3397 
L 2834 2853 
Q 2591 2978 2328 3040 
Q 2066 3103 1784 3103 
Q 1356 3103 1142 2972 
Q 928 2841 928 2578 
Q 928 2378 1081 2264 
Q 1234 2150 1697 2047 
L 1894 2003 
Q 2506 1872 2764 1633 
Q 3022 1394 3022 966 
Q 3022 478 2636 193 
Q 2250 -91 1575 -91 
Q 1294 -91 989 -36 
Q 684 19 347 128 
L 347 722 
Q 666 556 975 473 
Q 1284 391 1588 391 
Q 1994 391 2212 530 
Q 2431 669 2431 922 
Q 2431 1156 2273 1281 
Q 2116 1406 1581 1522 
L 1381 1569 
Q 847 1681 609 1914 
Q 372 2147 372 2553 
Q 372 3047 722 3315 
Q 1072 3584 1716 3584 
Q 2034 3584 2315 3537 
Q 2597 3491 2834 3397 
z
" transform="scale(0.015625)"/>
       <path id="DejaVuSans-74" d="M 1172 4494 
L 1172 3500 
L 2356 3500 
L 2356 3053 
L 1172 3053 
L 1172 1153 
Q 1172 725 1289 603 
Q 1406 481 1766 481 
L 2356 481 
L 2356 0 
L 1766 0 
Q 1100 0 847 248 
Q 594 497 594 1153 
L 594 3053 
L 172 3053 
L 172 3500 
L 594 3500 
L 594 4494 
L 1172 4494 
z
" transform="scale(0.015625)"/>
       <path id="DejaVuSans-65" d="M 3597 1894 
L 3597 1613 
L 953 1613 
Q 991 1019 1311 708 
Q 1631 397 2203 397 
Q 2534 397 2845 478 
Q 3156 559 3463 722 
L 3463 178 
Q 3153 47 2828 -22 
Q 2503 -91 2169 -91 
Q 1331 -91 842 396 
Q 353 884 353 1716 
Q 353 2575 817 3079 
Q 1281 3584 2069 3584 
Q 2775 3584 3186 3129 
Q 3597 2675 3597 1894 
z
M 3022 2063 
Q 3016 2534 2758 2815 
Q 2500 3097 2075 3097 
Q 1594 3097 1305 2825 
Q 1016 2553 972 2059 
L 3022 2063 
z
" transform="scale(0.015625)"/>
       <path id="DejaVuSans-70" d="M 1159 525 
L 1159 -1331 
L 581 -1331 
L 581 3500 
L 1159 3500 
L 1159 2969 
Q 1341 3281 1617 3432 
Q 1894 3584 2278 3584 
Q 2916 3584 3314 3078 
Q 3713 2572 3713 1747 
Q 3713 922 3314 415 
Q 2916 -91 2278 -91 
Q 1894 -91 1617 61 
Q 1341 213 1159 525 
z
M 3116 1747 
Q 3116 2381 2855 2742 
Q 2594 3103 2138 3103 
Q 1681 3103 1420 2742 
Q 1159 2381 1159 1747 
Q 1159 1113 1420 752 
Q 1681 391 2138 391 
Q 2594 391 2855 752 
Q 3116 1113 3116 1747 
z
" transform="scale(0.015625)"/>
      </defs>
      <use xlink:href="#DejaVuSans-54"/>
      <use xlink:href="#DejaVuSans-72" transform="translate(46.333984 0)"/>
      <use xlink:href="#DejaVuSans-61" transform="translate(87.447266 0)"/>
      <use xlink:href="#DejaVuSans-69" transform="translate(148.726562 0)"/>
      <use xlink:href="#DejaVuSans-6e" transform="translate(176.509766 0)"/>
      <use xlink:href="#DejaVuSans-69" transform="translate(239.888672 0)"/>
      <use xlink:href="#DejaVuSans-6e" transform="translate(267.671875 0)"/>
      <use xlink:href="#DejaVuSans-67" transform="translate(331.050781 0)"/>
      <use xlink:href="#DejaVuSans-20" transform="translate(394.527344 0)"/>
      <use xlink:href="#DejaVuSans-73" transform="translate(426.314453 0)"/>
      <use xlink:href="#DejaVuSans-74" transform="translate(478.414062 0)"/>
      <use xlink:href="#DejaVuSans-65" transform="translate(517.623047 0)"/>
      <use xlink:href="#DejaVuSans-70" transform="translate(579.146484 0)"/>
      <use xlink:href="#DejaVuSans-73" transform="translate(642.623047 0)"/>
     </g>
    </g>
   </g>
   <g id="matplotlib.axis_2">
    <g id="ytick_1">
     <g id="line2d_6">
      <defs>
       <path id="m009259a04e" d="M 0 0 
L -3.5 0 
" style="stroke: #000000; stroke-width: 0.8"/>
      </defs>
      <g>
       <use xlink:href="#m009259a04e" x="72" y="311.820013" style="stroke: #000000; stroke-width: 0.8"/>
      </g>
     </g>
     <g id="text_7">
      <!-- 0.0 -->
      <g transform="translate(49.096875 315.619232) scale(0.1 -0.1)">
       <defs>
        <path id="DejaVuSans-2e" d="M 684 794 
L 1344 794 
L 1344 0 
L 684 0 
L 684 794 
z
" transform="scale(0.015625)"/>
       </defs>
       <use xlink:href="#DejaVuSans-30"/>
       <use xlink:href="#DejaVuSans-2e" transform="translate(63.623047 0)"/>
       <use xlink:href="#DejaVuSans-30" transform="translate(95.410156 0)"/>
      </g>
     </g>
    </g>
    <g id="ytick_2">
     <g id="line2d_7">
      <g>
       <use xlink:href="#m009259a04e" x="72" y="275.27444" style="stroke: #000000; stroke-width: 0.8"/>
      </g>
     </g>
     <g id="text_8">
      <!-- 0.2 -->
      <g transform="translate(49.096875 279.073659) scale(0.1 -0.1)">
       <use xlink:href="#DejaVuSans-30"/>
       <use xlink:href="#DejaVuSans-2e" transform="translate(63.623047 0)"/>
       <use xlink:href="#DejaVuSans-32" transform="translate(95.410156 0)"/>
      </g>
     </g>
    </g>
    <g id="ytick_3">
     <g id="line2d_8">
      <g>
       <use xlink:href="#m009259a04e" x="72" y="238.728867" style="stroke: #000000; stroke-width: 0.8"/>
      </g>
     </g>
     <g id="text_9">
      <!-- 0.4 -->
      <g transform="translate(49.096875 242.528085) scale(0.1 -0.1)">
       <use xlink:href="#DejaVuSans-30"/>
       <use xlink:href="#DejaVuSans-2e" transform="translate(63.623047 0)"/>
       <use xlink:href="#DejaVuSans-34" transform="translate(95.410156 0)"/>
      </g>
     </g>
    </g>
    <g id="ytick_4">
     <g id="line2d_9">
      <g>
       <use xlink:href="#m009259a04e" x="72" y="202.183293" style="stroke: #000000; stroke-width: 0.8"/>
      </g>
     </g>
     <g id="text_10">
      <!-- 0.6 -->
      <g transform="translate(49.096875 205.982512) scale(0.1 -0.1)">
       <use xlink:href="#DejaVuSans-30"/>
       <use xlink:href="#DejaVuSans-2e" transform="translate(63.623047 0)"/>
       <use xlink:href="#DejaVuSans-36" transform="translate(95.410156 0)"/>
      </g>
     </g>
    </g>
    <g id="ytick_5">
     <g id="line2d_10">
      <g>
       <use xlink:href="#m009259a04e" x="72" y="165.63772" style="stroke: #000000; stroke-width: 0.8"/>
      </g>
     </g>
     <g id="text_11">
      <!-- 0.8 -->
      <g transform="translate(49.096875 169.436939) scale(0.1 -0.1)">
       <use xlink:href="#DejaVuSans-30"/>
       <use xlink:href="#DejaVuSans-2e" transform="translate(63.623047 0)"/>
       <use xlink:href="#DejaVuSans-38" transform="translate(95.410156 0)"/>
      </g>
     </g>
    </g>
    <g id="ytick_6">
     <g id="line2d_11">
      <g>
       <use xlink:href="#m009259a04e" x="72" y="129.092147" style="stroke: #000000; stroke-width: 0.8"/>
      </g>
     </g>
     <g id="text_12">
      <!-- 1.0 -->
      <g transform="translate(49.096875 132.891366) scale(0.1 -0.1)">
       <use xlink:href="#DejaVuSans-31"/>
       <use xlink:href="#DejaVuSans-2e" transform="translate(63.623047 0)"/>
       <use xlink:href="#DejaVuSans-30" transform="translate(95.410156 0)"/>
      </g>
     </g>
    </g>
    <g id="ytick_7">
     <g id="line2d_12">
      <g>
       <use xlink:href="#m009259a04e" x="72" y="92.546574" style="stroke: #000000; stroke-width: 0.8"/>
      </g>
     </g>
     <g id="text_13">
      <!-- 1.2 -->
      <g transform="translate(49.096875 96.345793) scale(0.1 -0.1)">
       <use xlink:href="#DejaVuSans-31"/>
       <use xlink:href="#DejaVuSans-2e" transform="translate(63.623047 0)"/>
       <use xlink:href="#DejaVuSans-32" transform="translate(95.410156 0)"/>
      </g>
     </g>
    </g>
    <g id="ytick_8">
     <g id="line2d_13">
      <g>
       <use xlink:href="#m009259a04e" x="72" y="56.001001" style="stroke: #000000; stroke-width: 0.8"/>
      </g>
     </g>
     <g id="text_14">
      <!-- 1.4 -->
      <g transform="translate(49.096875 59.800219) scale(0.1 -0.1)">
       <use xlink:href="#DejaVuSans-31"/>
       <use xlink:href="#DejaVuSans-2e" transform="translate(63.623047 0)"/>
       <use xlink:href="#DejaVuSans-34" transform="translate(95.410156 0)"/>
      </g>
     </g>
    </g>
    <g id="text_15">
     <!-- Loss -->
     <g transform="translate(43.017187 192.767187) rotate(-90) scale(0.1 -0.1)">
      <defs>
       <path id="DejaVuSans-4c" d="M 628 4666 
L 1259 4666 
L 1259 531 
L 3531 531 
L 3531 0 
L 628 0 
L 628 4666 
z
" transform="scale(0.015625)"/>
       <path id="DejaVuSans-6f" d="M 1959 3097 
Q 1497 3097 1228 2736 
Q 959 2375 959 1747 
Q 959 1119 1226 758 
Q 1494 397 1959 397 
Q 2419 397 2687 759 
Q 2956 1122 2956 1747 
Q 2956 2369 2687 2733 
Q 2419 3097 1959 3097 
z
M 1959 3584 
Q 2709 3584 3137 3096 
Q 3566 2609 3566 1747 
Q 3566 888 3137 398 
Q 2709 -91 1959 -91 
Q 1206 -91 779 398 
Q 353 888 353 1747 
Q 353 2609 779 3096 
Q 1206 3584 1959 3584 
z
" transform="scale(0.015625)"/>
      </defs>
      <use xlink:href="#DejaVuSans-4c"/>
      <use xlink:href="#DejaVuSans-6f" transform="translate(53.962891 0)"/>
      <use xlink:href="#DejaVuSans-73" transform="translate(115.144531 0)"/>
      <use xlink:href="#DejaVuSans-73" transform="translate(167.244141 0)"/>
     </g>
    </g>
   </g>
   <g id="line2d_14">
    <path d="M 72 92.893757 
L 76.509091 101.098238 
L 81.018182 104.478704 
L 85.527273 106.050163 
L 90.036364 105.246161 
L 94.545455 107.438895 
L 99.054545 106.452164 
L 103.563636 107.27444 
L 108.072727 105.099978 
L 112.581818 110.16154 
L 117.090909 105.319252 
L 121.6 107.767805 
L 126.109091 109.668175 
L 130.618182 108.133261 
L 135.127273 108.38908 
L 139.636364 112.153274 
L 144.145455 115.661649 
L 148.654545 117.653383 
L 153.163636 117.982293 
L 157.672727 121.709941 
L 162.181818 124.779769 
L 166.690909 126.643594 
L 171.2 130.608788 
L 175.709091 135.286622 
L 180.218182 126.479139 
L 184.727273 124.889406 
L 189.236364 129.293148 
L 193.745455 128.78151 
L 198.254545 128.617055 
L 202.763636 135.542441 
L 207.272727 134.062345 
L 211.781818 133.459343 
L 216.290909 137.808266 
L 220.8 141.261823 
L 225.309091 139.270089 
L 229.818182 141.481096 
L 234.327273 143.217011 
L 238.836364 138.868088 
L 243.345455 137.351447 
L 247.854545 140.421275 
L 252.363636 134.921166 
L 256.872727 145.464564 
L 261.381818 142.157189 
L 265.890909 139.087361 
L 270.4 139.67209 
L 274.909091 137.296628 
L 279.418182 136.876354 
L 283.927273 140.951186 
L 288.436364 144.313378 
L 292.945455 136.255079 
L 297.454545 143.92965 
L 301.963636 140.658821 
L 306.472727 139.653818 
L 310.981818 137.059082 
L 315.490909 144.770198 
L 320 142.102371 
L 324.509091 143.089102 
L 329.018182 143.655558 
L 333.527273 143.80174 
L 338.036364 145.647292 
L 342.545455 144.91638 
L 347.054545 143.783467 
L 351.563636 146.469567 
L 356.072727 143.01601 
L 360.581818 138.392995 
L 365.090909 143.80174 
L 369.6 151.73213 
L 374.109091 143.728649 
L 378.618182 141.24355 
L 383.127273 146.761932 
L 387.636364 144.952926 
L 392.145455 143.308375 
L 396.654545 148.2603 
L 401.163636 147.730389 
L 405.672727 149.466304 
L 410.181818 149.795214 
L 414.690909 151.768675 
L 419.2 140.823276 
L 423.709091 142.924647 
L 428.218182 146.250294 
L 432.727273 148.205482 
L 437.236364 149.265303 
L 441.745455 142.6871 
L 446.254545 151.293583 
L 450.763636 154.582684 
L 455.272727 144.331651 
L 459.781818 150.580944 
L 464.290909 151.238764 
L 468.8 149.612486 
L 473.309091 149.04603 
L 477.818182 146.725386 
L 482.327273 151.165673 
L 486.836364 150.635762 
L 491.345455 150.9464 
L 495.854545 159.443246 
L 500.363636 149.996215 
L 504.872727 152.444768 
L 509.381818 156.483054 
L 513.890909 154.875049 
L 518.4 158.529606 
" clip-path="url(#pb3f048b429)" style="fill: none; stroke: #1f77b4; stroke-width: 1.5; stroke-linecap: square"/>
   </g>
   <g id="line2d_15">
    <path d="M 72 55.8 
L 76.509091 87.612921 
L 81.018182 101.153056 
L 85.527273 98.996868 
L 90.036364 104.423885 
L 94.545455 102.35906 
L 99.054545 104.789341 
L 103.563636 116.995562 
L 108.072727 110.198086 
L 112.581818 118.548749 
L 117.090909 107.511986 
L 121.6 122.568762 
L 126.109091 123.793039 
L 130.618182 122.111943 
L 135.127273 123.482402 
L 139.636364 123.86613 
L 144.145455 119.955754 
L 148.654545 133.422797 
L 153.163636 125.474135 
L 157.672727 128.087144 
L 162.181818 129.402784 
L 166.690909 129.256602 
L 171.2 120.211573 
L 175.709091 127.484142 
L 180.218182 129.421057 
L 184.727273 117.543746 
L 189.236364 125.200044 
L 193.745455 127.685142 
L 198.254545 125.200044 
L 202.763636 131.485882 
L 207.272727 127.630324 
L 211.781818 130.645334 
L 216.290909 130.078878 
L 220.8 132.874614 
L 225.309091 134.774984 
L 229.818182 131.960975 
L 234.327273 136.730172 
L 238.836364 137.278355 
L 243.345455 131.138699 
L 247.854545 134.720165 
L 252.363636 135.578986 
L 256.872727 136.419534 
L 261.381818 142.650555 
L 265.890909 138.740178 
L 270.4 135.907896 
L 274.909091 131.321427 
L 279.418182 141.590733 
L 283.927273 141.444551 
L 288.436364 137.917903 
L 292.945455 132.911159 
L 297.454545 142.339917 
L 301.963636 135.122167 
L 306.472727 139.178725 
L 310.981818 139.617272 
L 315.490909 143.253557 
L 320 133.130433 
L 324.509091 140.147183 
L 329.018182 143.564194 
L 333.527273 141.280096 
L 338.036364 139.8 
L 342.545455 141.755188 
L 347.054545 135.213531 
L 351.563636 139.507635 
L 356.072727 148.333391 
L 360.581818 141.225277 
L 365.090909 140.476093 
L 369.6 144.185469 
L 374.109091 142.577464 
L 378.618182 145.738656 
L 383.127273 149.612486 
L 387.636364 142.266826 
L 392.145455 147.109115 
L 396.654545 141.883098 
L 401.163636 149.594214 
L 405.672727 147.547662 
L 410.181818 148.461301 
L 414.690909 144.404742 
L 419.2 141.773461 
L 423.709091 145.811747 
L 428.218182 147.93139 
L 432.727273 152.298586 
L 437.236364 143.692104 
L 441.745455 144.313378 
L 446.254545 150.379943 
L 450.763636 152.590951 
L 455.272727 148.845029 
L 459.781818 148.205482 
L 464.290909 149.155667 
L 468.8 148.753665 
L 473.309091 151.056037 
L 477.818182 153.267044 
L 482.327273 150.105852 
L 486.836364 151.512856 
L 491.345455 149.338395 
L 495.854545 152.71886 
L 500.363636 150.982945 
L 504.872727 158.547879 
L 509.381818 155.916598 
L 513.890909 152.956406 
L 518.4 155.934871 
" clip-path="url(#pb3f048b429)" style="fill: none; stroke: #ff7f0e; stroke-width: 1.5; stroke-linecap: square"/>
   </g>
   <g id="line2d_16">
    <path d="M 72 106.762802 
L 76.509091 111.897455 
L 81.018182 122.934218 
L 85.527273 122.148488 
L 90.036364 128.927692 
L 94.545455 124.706678 
L 99.054545 133.916163 
L 103.563636 152.536132 
L 108.072727 203.626844 
L 112.581818 233.977942 
L 117.090909 240.592691 
L 121.6 253.127822 
L 126.109091 263.634675 
L 130.618182 269.134784 
L 135.127273 256.343833 
L 139.636364 257.495018 
L 144.145455 272.990342 
L 148.654545 268.495236 
L 153.163636 268.860692 
L 157.672727 268.440418 
L 162.181818 265.37059 
L 166.690909 276.955536 
L 171.2 262.337307 
L 175.709091 282.071916 
L 180.218182 285.397564 
L 184.727273 268.769328 
L 189.236364 276.06017 
L 193.745455 267.654688 
L 198.254545 279.166543 
L 202.763636 274.141527 
L 207.272727 280.993822 
L 211.781818 273.593343 
L 216.290909 282.802828 
L 220.8 279.824364 
L 225.309091 284.867653 
L 229.818182 291.372765 
L 234.327273 284.739743 
L 238.836364 281.889189 
L 243.345455 288.631847 
L 247.854545 290.349489 
L 252.363636 289.929215 
L 256.872727 277.83263 
L 261.381818 297.494148 
L 265.890909 285.726474 
L 270.4 287.699935 
L 274.909091 290.660126 
L 279.418182 289.198303 
L 283.927273 281.121732 
L 288.436364 288.686665 
L 292.945455 288.832848 
L 297.454545 286.585295 
L 301.963636 279.824364 
L 306.472727 295.392778 
L 310.981818 292.962497 
L 315.490909 287.86439 
L 320 291.391038 
L 324.509091 286.914205 
L 329.018182 285.562019 
L 333.527273 282.053644 
L 338.036364 290.166761 
L 342.545455 288.357755 
L 347.054545 291.555493 
L 351.563636 291.354492 
L 356.072727 286.311203 
L 360.581818 286.457385 
L 365.090909 288.942484 
L 369.6 297.347966 
L 374.109091 288.759756 
L 378.618182 298.024059 
L 383.127273 292.597042 
L 387.636364 283.095193 
L 392.145455 296.434327 
L 396.654545 297.731695 
L 401.163636 298.919426 
L 405.672727 300.308157 
L 410.181818 305.223537 
L 414.690909 291.975767 
L 419.2 300.911159 
L 423.709091 299.522428 
L 428.218182 290.367762 
L 432.727273 301.166978 
L 437.236364 299.960975 
L 441.745455 303.67035 
L 446.254545 292.761497 
L 450.763636 295.484142 
L 455.272727 301.660344 
L 459.781818 299.175245 
L 464.290909 295.374505 
L 468.8 299.869611 
L 473.309091 300.161975 
L 477.818182 298.115423 
L 482.327273 300.235066 
L 486.836364 300.308157 
L 491.345455 305.004264 
L 495.854545 295.593779 
L 500.363636 302.811529 
L 504.872727 298.992517 
L 509.381818 301.76998 
L 513.890909 291.756493 
L 518.4 297.804786 
" clip-path="url(#pb3f048b429)" style="fill: none; stroke: #2ca02c; stroke-width: 1.5; stroke-linecap: square"/>
   </g>
   <g id="line2d_17">
    <path d="M 72 76.685795 
L 76.509091 123.610311 
L 81.018182 167.848727 
L 85.527273 203.937481 
L 90.036364 217.843072 
L 94.545455 251.592908 
L 99.054545 245.891799 
L 103.563636 253.840461 
L 108.072727 254.388645 
L 112.581818 256.855471 
L 117.090909 240.044507 
L 121.6 264.657951 
L 126.109091 261.44194 
L 130.618182 253.712552 
L 135.127273 262.757581 
L 139.636364 247.390168 
L 144.145455 263.652948 
L 148.654545 256.32556 
L 153.163636 247.170894 
L 157.672727 263.908767 
L 162.181818 251.867 
L 166.690909 267.819143 
L 171.2 256.051468 
L 175.709091 268.385599 
L 180.218182 253.803916 
L 184.727273 256.672743 
L 189.236364 259.541571 
L 193.745455 252.817185 
L 198.254545 257.147836 
L 202.763636 262.830672 
L 207.272727 275.987079 
L 211.781818 268.184599 
L 216.290909 256.124559 
L 220.8 269.463694 
L 225.309091 262.501762 
L 229.818182 273.776071 
L 234.327273 278.271177 
L 238.836364 267.307505 
L 243.345455 271.839156 
L 247.854545 273.355797 
L 252.363636 275.347531 
L 256.872727 263.287492 
L 261.381818 274.452164 
L 265.890909 269.57333 
L 270.4 267.088231 
L 274.909091 260.91203 
L 279.418182 275.402349 
L 283.927273 269.390603 
L 288.436364 272.277703 
L 292.945455 272.771068 
L 297.454545 268.604873 
L 301.963636 266.430411 
L 306.472727 283.040374 
L 310.981818 281.17655 
L 315.490909 272.990342 
L 320 281.468915 
L 324.509091 274.799347 
L 329.018182 274.03189 
L 333.527273 263.214401 
L 338.036364 280.445638 
L 342.545455 268.732782 
L 347.054545 265.315771 
L 351.563636 280.774549 
L 356.072727 278.508723 
L 360.581818 265.516772 
L 365.090909 271.071699 
L 369.6 277.83263 
L 374.109091 275.895715 
L 378.618182 284.155014 
L 383.127273 277.101719 
L 387.636364 274.653165 
L 392.145455 275.859169 
L 396.654545 289.362758 
L 401.163636 284.758016 
L 405.672727 286.987296 
L 410.181818 294.241592 
L 414.690909 279.60509 
L 419.2 284.758016 
L 423.709091 287.462389 
L 428.218182 278.508723 
L 432.727273 289.289667 
L 437.236364 286.640113 
L 441.745455 294.990777 
L 446.254545 287.188297 
L 450.763636 285.3062 
L 455.272727 284.575288 
L 459.781818 290.057124 
L 464.290909 286.969023 
L 468.8 290.8794 
L 473.309091 290.331216 
L 477.818182 288.010572 
L 482.327273 289.106939 
L 486.836364 284.100196 
L 491.345455 293.291407 
L 495.854545 286.822841 
L 500.363636 285.836111 
L 504.872727 281.432369 
L 509.381818 289.874396 
L 513.890909 291.86613 
L 518.4 298.279878 
" clip-path="url(#pb3f048b429)" style="fill: none; stroke: #d62728; stroke-width: 1.5; stroke-linecap: square"/>
   </g>
   <g id="line2d_18">
    <path d="M 72 105.355797 
L 76.509091 132.088884 
L 81.018182 148.443028 
L 85.527273 197.140004 
L 90.036364 221.57072 
L 94.545455 227.783467 
L 99.054545 235.987949 
L 103.563636 240.19069 
L 108.072727 260.400392 
L 112.581818 254.132826 
L 117.090909 260.930302 
L 121.6 274.982075 
L 126.109091 272.935523 
L 130.618182 273.154797 
L 135.127273 265.662954 
L 139.636364 278.508723 
L 144.145455 275.384077 
L 148.654545 277.741266 
L 153.163636 274.963802 
L 157.672727 281.213095 
L 162.181818 268.111508 
L 166.690909 276.151534 
L 171.2 281.450642 
L 175.709091 291.464129 
L 180.218182 291.190037 
L 184.727273 282.108462 
L 189.236364 275.475441 
L 193.745455 282.382554 
L 198.254545 277.211355 
L 202.763636 283.241375 
L 207.272727 286.512204 
L 211.781818 280.664912 
L 216.290909 289.874396 
L 220.8 281.889189 
L 225.309091 290.75149 
L 229.818182 294.259865 
L 234.327273 297.603785 
L 238.836364 287.900935 
L 243.345455 288.284664 
L 247.854545 289.856124 
L 252.363636 299.083881 
L 256.872727 287.352752 
L 261.381818 292.140222 
L 265.890909 283.460648 
L 270.4 289.18003 
L 274.909091 297.402784 
L 279.418182 290.568762 
L 283.927273 285.671655 
L 288.436364 300.527431 
L 292.945455 297.293148 
L 297.454545 284.630107 
L 301.963636 279.842637 
L 306.472727 295.502415 
L 310.981818 294.716685 
L 315.490909 293.949228 
L 320 300.65534 
L 324.509091 290.367762 
L 329.018182 293.967501 
L 333.527273 289.910942 
L 338.036364 298.22506 
L 342.545455 291.336219 
L 347.054545 286.256385 
L 351.563636 302.647074 
L 356.072727 288.832848 
L 360.581818 288.814575 
L 365.090909 292.085404 
L 369.6 297.183511 
L 374.109091 291.500674 
L 378.618182 301.185251 
L 383.127273 294.351229 
L 387.636364 290.915945 
L 392.145455 291.427583 
L 396.654545 306.703633 
L 401.163636 301.550707 
L 405.672727 299.266609 
L 410.181818 301.258342 
L 414.690909 298.864607 
L 419.2 302.537437 
L 423.709091 301.751708 
L 428.218182 297.000783 
L 432.727273 303.01253 
L 437.236364 304.401262 
L 441.745455 303.067348 
L 446.254545 306.740178 
L 450.763636 300.746704 
L 455.272727 303.597259 
L 459.781818 302.975984 
L 464.290909 300.289885 
L 468.8 305.406265 
L 473.309091 303.743441 
L 477.818182 301.550707 
L 482.327273 298.846335 
L 486.836364 301.514161 
L 491.345455 307.8 
L 495.854545 302.117163 
L 500.363636 305.607266 
L 504.872727 298.974244 
L 509.381818 297.914422 
L 513.890909 301.806526 
L 518.4 301.715162 
" clip-path="url(#pb3f048b429)" style="fill: none; stroke: #9467bd; stroke-width: 1.5; stroke-linecap: square"/>
   </g>
   <g id="line2d_19">
    <path d="M 72 105.538525 
L 76.509091 111.184816 
L 81.018182 121.508941 
L 85.527273 123.500674 
L 90.036364 147.894844 
L 94.545455 186.761062 
L 99.054545 194.855906 
L 103.563636 208.286404 
L 108.072727 216.32643 
L 112.581818 226.321645 
L 117.090909 237.394953 
L 121.6 242.41997 
L 126.109091 241.250511 
L 130.618182 245.489798 
L 135.127273 239.679052 
L 139.636364 253.200914 
L 144.145455 245.763889 
L 148.654545 263.433674 
L 153.163636 247.846987 
L 157.672727 257.348836 
L 162.181818 261.843942 
L 166.690909 271.784338 
L 171.2 267.453687 
L 175.709091 275.786078 
L 180.218182 268.568327 
L 184.727273 274.744529 
L 189.236364 263.324037 
L 193.745455 265.589863 
L 198.254545 274.1598 
L 202.763636 263.159582 
L 207.272727 275.676441 
L 211.781818 273.794344 
L 216.290909 278.709724 
L 220.8 269.993605 
L 225.309091 277.467174 
L 229.818182 288.814575 
L 234.327273 274.433892 
L 238.836364 282.437372 
L 243.345455 282.017098 
L 247.854545 285.525473 
L 252.363636 283.679922 
L 256.872727 276.169806 
L 261.381818 288.686665 
L 265.890909 283.917468 
L 270.4 277.722993 
L 274.909091 291.920948 
L 279.418182 279.806091 
L 283.927273 285.3062 
L 288.436364 291.062127 
L 292.945455 279.038634 
L 297.454545 285.434109 
L 301.963636 272.021884 
L 306.472727 295.685142 
L 310.981818 287.334479 
L 315.490909 290.349489 
L 320 287.791299 
L 324.509091 287.974027 
L 329.018182 283.241375 
L 333.527273 282.29119 
L 338.036364 294.332956 
L 342.545455 279.513726 
L 347.054545 283.07692 
L 351.563636 293.145225 
L 356.072727 295.739961 
L 360.581818 281.267914 
L 365.090909 285.287927 
L 369.6 294.09541 
L 374.109091 288.668392 
L 378.618182 295.173504 
L 383.127273 292.32295 
L 387.636364 276.498717 
L 392.145455 291.811312 
L 396.654545 298.060605 
L 401.163636 295.063868 
L 405.672727 296.543963 
L 410.181818 304.510898 
L 414.690909 291.738221 
L 419.2 301.532434 
L 423.709091 295.173504 
L 428.218182 290.258125 
L 432.727273 304.273352 
L 437.236364 296.98251 
L 441.745455 293.43759 
L 446.254545 295.758234 
L 450.763636 292.103676 
L 455.272727 298.444333 
L 459.781818 300.271612 
L 464.290909 299.047335 
L 468.8 299.759974 
L 473.309091 298.206787 
L 477.818182 295.776506 
L 482.327273 298.115423 
L 486.836364 298.828062 
L 491.345455 305.479356 
L 495.854545 301.605525 
L 500.363636 306.301631 
L 504.872727 294.040592 
L 509.381818 300.32643 
L 513.890909 294.55223 
L 518.4 298.590516 
" clip-path="url(#pb3f048b429)" style="fill: none; stroke: #8c564b; stroke-width: 1.5; stroke-linecap: square"/>
   </g>
   <g id="line2d_20">
    <path d="M 72 93.880487 
L 76.509091 125.729954 
L 81.018182 161.288797 
L 85.527273 203.480661 
L 90.036364 225.992734 
L 94.545455 219.79826 
L 99.054545 231.419752 
L 103.563636 243.772156 
L 108.072727 244.338612 
L 112.581818 248.431716 
L 117.090909 248.157625 
L 121.6 252.250729 
L 126.109091 257.330563 
L 130.618182 246.202436 
L 135.127273 260.930302 
L 139.636364 249.217446 
L 144.145455 263.598129 
L 148.654545 258.390385 
L 153.163636 256.709289 
L 157.672727 266.375593 
L 162.181818 253.10955 
L 166.690909 267.380596 
L 171.2 262.300761 
L 175.709091 262.885491 
L 180.218182 255.905286 
L 184.727273 259.468479 
L 189.236364 264.164586 
L 193.745455 250.057994 
L 198.254545 253.913552 
L 202.763636 261.368849 
L 207.272727 272.478704 
L 211.781818 263.525038 
L 216.290909 257.641201 
L 220.8 273.337524 
L 225.309091 264.237677 
L 229.818182 276.297716 
L 234.327273 281.560278 
L 238.836364 268.659691 
L 243.345455 273.04516 
L 247.854545 261.789123 
L 252.363636 282.473918 
L 256.872727 258.061475 
L 261.381818 276.699717 
L 265.890909 273.282706 
L 270.4 267.563324 
L 274.909091 274.506983 
L 279.418182 283.497194 
L 283.927273 269.993605 
L 288.436364 279.111725 
L 292.945455 284.39256 
L 297.454545 272.186339 
L 301.963636 267.124777 
L 306.472727 293.10868 
L 310.981818 270.980335 
L 315.490909 279.002088 
L 320 280.610094 
L 324.509091 268.349054 
L 329.018182 268.221144 
L 333.527273 263.762584 
L 338.036364 284.356015 
L 342.545455 275.566804 
L 347.054545 268.111508 
L 351.563636 275.493713 
L 356.072727 282.126735 
L 360.581818 285.5072 
L 365.090909 276.370807 
L 369.6 279.714727 
L 374.109091 275.676441 
L 378.618182 291.226583 
L 383.127273 278.801088 
L 387.636364 275.658168 
L 392.145455 281.140004 
L 396.654545 292.012312 
L 401.163636 287.663389 
L 405.672727 292.688405 
L 410.181818 294.533957 
L 414.690909 287.07866 
L 419.2 282.437372 
L 423.709091 295.173504 
L 428.218182 288.06539 
L 432.727273 293.711682 
L 437.236364 292.32295 
L 441.745455 294.296411 
L 446.254545 290.75149 
L 450.763636 286.256385 
L 455.272727 287.188297 
L 459.781818 294.588775 
L 464.290909 286.42084 
L 468.8 288.960757 
L 473.309091 294.607048 
L 477.818182 290.587035 
L 482.327273 290.641853 
L 486.836364 290.769763 
L 491.345455 299.686883 
L 495.854545 296.525691 
L 500.363636 295.118686 
L 504.872727 290.020579 
L 509.381818 292.341223 
L 513.890909 291.610311 
L 518.4 297.274875 
" clip-path="url(#pb3f048b429)" style="fill: none; stroke: #e377c2; stroke-width: 1.5; stroke-linecap: square"/>
   </g>
   <g id="line2d_21">
    <path d="M 72 90.152839 
L 76.509091 101.171329 
L 81.018182 109.595084 
L 85.527273 108.59008 
L 90.036364 109.083446 
L 94.545455 113.304459 
L 99.054545 121.088667 
L 103.563636 149.393213 
L 108.072727 165.783903 
L 112.581818 185.262693 
L 117.090909 229.391473 
L 121.6 238.747139 
L 126.109091 248.925082 
L 130.618182 255.759104 
L 135.127273 250.514814 
L 139.636364 267.508506 
L 144.145455 271.455427 
L 148.654545 275.749532 
L 153.163636 271.711246 
L 157.672727 273.173069 
L 162.181818 271.14479 
L 166.690909 275.950533 
L 171.2 269.609876 
L 175.709091 281.030368 
L 180.218182 278.94727 
L 184.727273 277.814357 
L 189.236364 274.48871 
L 193.745455 270.450424 
L 198.254545 268.604873 
L 202.763636 286.000566 
L 207.272727 281.395823 
L 211.781818 274.287709 
L 216.290909 285.781292 
L 220.8 276.151534 
L 225.309091 283.27792 
L 229.818182 288.503937 
L 234.327273 288.85112 
L 238.836364 286.895932 
L 243.345455 283.351012 
L 247.854545 286.110202 
L 252.363636 290.769763 
L 256.872727 282.94901 
L 261.381818 295.557233 
L 265.890909 280.281183 
L 270.4 286.201566 
L 274.909091 284.630107 
L 279.418182 293.419317 
L 283.927273 275.786078 
L 288.436364 291.939221 
L 292.945455 290.75149 
L 297.454545 283.204829 
L 301.963636 279.075179 
L 306.472727 297.548967 
L 310.981818 282.382554 
L 315.490909 286.256385 
L 320 290.952491 
L 324.509091 285.342745 
L 329.018182 284.648379 
L 333.527273 283.095193 
L 338.036364 289.253122 
L 342.545455 283.369284 
L 347.054545 288.284664 
L 351.563636 294.588775 
L 356.072727 297.731695 
L 360.581818 294.515684 
L 365.090909 283.515467 
L 369.6 296.836328 
L 374.109091 287.371025 
L 378.618182 291.354492 
L 383.127273 295.502415 
L 387.636364 288.175027 
L 392.145455 290.203307 
L 396.654545 301.970981 
L 401.163636 293.510681 
L 405.672727 306.35645 
L 410.181818 305.442811 
L 414.690909 296.489145 
L 419.2 300.746704 
L 423.709091 298.005786 
L 428.218182 290.861127 
L 432.727273 302.738438 
L 437.236364 299.705156 
L 441.745455 295.813052 
L 446.254545 299.851338 
L 450.763636 302.500892 
L 455.272727 297.31142 
L 459.781818 302.299891 
L 464.290909 293.163498 
L 468.8 300.015793 
L 473.309091 298.919426 
L 477.818182 296.342963 
L 482.327273 296.854601 
L 486.836364 297.293148 
L 491.345455 306.411268 
L 495.854545 304.894627 
L 500.363636 299.431064 
L 504.872727 288.1933 
L 509.381818 300.746704 
L 513.890909 297.457603 
L 518.4 302.062345 
" clip-path="url(#pb3f048b429)" style="fill: none; stroke: #7f7f7f; stroke-width: 1.5; stroke-linecap: square"/>
   </g>
   <g id="patch_3">
    <path d="M 72 320.4 
L 72 43.2 
" style="fill: none; stroke: #000000; stroke-width: 0.8; stroke-linejoin: miter; stroke-linecap: square"/>
   </g>
   <g id="patch_4">
    <path d="M 518.4 320.4 
L 518.4 43.2 
" style="fill: none; stroke: #000000; stroke-width: 0.8; stroke-linejoin: miter; stroke-linecap: square"/>
   </g>
   <g id="patch_5">
    <path d="M 72 320.4 
L 518.4 320.4 
" style="fill: none; stroke: #000000; stroke-width: 0.8; stroke-linejoin: miter; stroke-linecap: square"/>
   </g>
   <g id="patch_6">
    <path d="M 72 43.2 
L 518.4 43.2 
" style="fill: none; stroke: #000000; stroke-width: 0.8; stroke-linejoin: miter; stroke-linecap: square"/>
   </g>
   <g id="text_16">
    <!-- Splice Sites (all) -->
    <g transform="translate(247.105312 37.2) scale(0.12 -0.12)">
     <defs>
      <path id="DejaVuSans-53" d="M 3425 4513 
L 3425 3897 
Q 3066 4069 2747 4153 
Q 2428 4238 2131 4238 
Q 1616 4238 1336 4038 
Q 1056 3838 1056 3469 
Q 1056 3159 1242 3001 
Q 1428 2844 1947 2747 
L 2328 2669 
Q 3034 2534 3370 2195 
Q 3706 1856 3706 1288 
Q 3706 609 3251 259 
Q 2797 -91 1919 -91 
Q 1588 -91 1214 -16 
Q 841 59 441 206 
L 441 856 
Q 825 641 1194 531 
Q 1563 422 1919 422 
Q 2459 422 2753 634 
Q 3047 847 3047 1241 
Q 3047 1584 2836 1778 
Q 2625 1972 2144 2069 
L 1759 2144 
Q 1053 2284 737 2584 
Q 422 2884 422 3419 
Q 422 4038 858 4394 
Q 1294 4750 2059 4750 
Q 2388 4750 2728 4690 
Q 3069 4631 3425 4513 
z
" transform="scale(0.015625)"/>
      <path id="DejaVuSans-6c" d="M 603 4863 
L 1178 4863 
L 1178 0 
L 603 0 
L 603 4863 
z
" transform="scale(0.015625)"/>
      <path id="DejaVuSans-63" d="M 3122 3366 
L 3122 2828 
Q 2878 2963 2633 3030 
Q 2388 3097 2138 3097 
Q 1578 3097 1268 2742 
Q 959 2388 959 1747 
Q 959 1106 1268 751 
Q 1578 397 2138 397 
Q 2388 397 2633 464 
Q 2878 531 3122 666 
L 3122 134 
Q 2881 22 2623 -34 
Q 2366 -91 2075 -91 
Q 1284 -91 818 406 
Q 353 903 353 1747 
Q 353 2603 823 3093 
Q 1294 3584 2113 3584 
Q 2378 3584 2631 3529 
Q 2884 3475 3122 3366 
z
" transform="scale(0.015625)"/>
      <path id="DejaVuSans-28" d="M 1984 4856 
Q 1566 4138 1362 3434 
Q 1159 2731 1159 2009 
Q 1159 1288 1364 580 
Q 1569 -128 1984 -844 
L 1484 -844 
Q 1016 -109 783 600 
Q 550 1309 550 2009 
Q 550 2706 781 3412 
Q 1013 4119 1484 4856 
L 1984 4856 
z
" transform="scale(0.015625)"/>
      <path id="DejaVuSans-29" d="M 513 4856 
L 1013 4856 
Q 1481 4119 1714 3412 
Q 1947 2706 1947 2009 
Q 1947 1309 1714 600 
Q 1481 -109 1013 -844 
L 513 -844 
Q 928 -128 1133 580 
Q 1338 1288 1338 2009 
Q 1338 2731 1133 3434 
Q 928 4138 513 4856 
z
" transform="scale(0.015625)"/>
     </defs>
     <use xlink:href="#DejaVuSans-53"/>
     <use xlink:href="#DejaVuSans-70" transform="translate(63.476562 0)"/>
     <use xlink:href="#DejaVuSans-6c" transform="translate(126.953125 0)"/>
     <use xlink:href="#DejaVuSans-69" transform="translate(154.736328 0)"/>
     <use xlink:href="#DejaVuSans-63" transform="translate(182.519531 0)"/>
     <use xlink:href="#DejaVuSans-65" transform="translate(237.5 0)"/>
     <use xlink:href="#DejaVuSans-20" transform="translate(299.023438 0)"/>
     <use xlink:href="#DejaVuSans-53" transform="translate(330.810547 0)"/>
     <use xlink:href="#DejaVuSans-69" transform="translate(394.287109 0)"/>
     <use xlink:href="#DejaVuSans-74" transform="translate(422.070312 0)"/>
     <use xlink:href="#DejaVuSans-65" transform="translate(461.279297 0)"/>
     <use xlink:href="#DejaVuSans-73" transform="translate(522.802734 0)"/>
     <use xlink:href="#DejaVuSans-20" transform="translate(574.902344 0)"/>
     <use xlink:href="#DejaVuSans-28" transform="translate(606.689453 0)"/>
     <use xlink:href="#DejaVuSans-61" transform="translate(645.703125 0)"/>
     <use xlink:href="#DejaVuSans-6c" transform="translate(706.982422 0)"/>
     <use xlink:href="#DejaVuSans-6c" transform="translate(734.765625 0)"/>
     <use xlink:href="#DejaVuSans-29" transform="translate(762.548828 0)"/>
    </g>
   </g>
   <g id="legend_1">
    <g id="patch_7">
     <path d="M 334.210684 147.679025 
L 512.569 147.679025 
Q 514.235 147.679025 514.235 146.013025 
L 514.235 49.031 
Q 514.235 47.365 512.569 47.365 
L 334.210684 47.365 
Q 332.544684 47.365 332.544684 49.031 
L 332.544684 146.013025 
Q 332.544684 147.679025 334.210684 147.679025 
z
" style="fill: #ffffff; opacity: 0.8; stroke: #cccccc; stroke-linejoin: miter"/>
    </g>
    <g id="line2d_22">
     <path d="M 335.876684 54.110998 
L 344.206684 54.110998 
L 352.536684 54.110998 
" style="fill: none; stroke: #1f77b4; stroke-width: 1.5; stroke-linecap: square"/>
    </g>
    <g id="text_17">
     <!-- NT-MS V2 (50M) with rand. weights -->
     <g transform="translate(359.200684 57.026498) scale(0.0833 -0.0833)">
      <defs>
       <path id="DejaVuSans-4e" d="M 628 4666 
L 1478 4666 
L 3547 763 
L 3547 4666 
L 4159 4666 
L 4159 0 
L 3309 0 
L 1241 3903 
L 1241 0 
L 628 0 
L 628 4666 
z
" transform="scale(0.015625)"/>
       <path id="DejaVuSans-2d" d="M 313 2009 
L 1997 2009 
L 1997 1497 
L 313 1497 
L 313 2009 
z
" transform="scale(0.015625)"/>
       <path id="DejaVuSans-4d" d="M 628 4666 
L 1569 4666 
L 2759 1491 
L 3956 4666 
L 4897 4666 
L 4897 0 
L 4281 0 
L 4281 4097 
L 3078 897 
L 2444 897 
L 1241 4097 
L 1241 0 
L 628 0 
L 628 4666 
z
" transform="scale(0.015625)"/>
       <path id="DejaVuSans-56" d="M 1831 0 
L 50 4666 
L 709 4666 
L 2188 738 
L 3669 4666 
L 4325 4666 
L 2547 0 
L 1831 0 
z
" transform="scale(0.015625)"/>
       <path id="DejaVuSans-35" d="M 691 4666 
L 3169 4666 
L 3169 4134 
L 1269 4134 
L 1269 2991 
Q 1406 3038 1543 3061 
Q 1681 3084 1819 3084 
Q 2600 3084 3056 2656 
Q 3513 2228 3513 1497 
Q 3513 744 3044 326 
Q 2575 -91 1722 -91 
Q 1428 -91 1123 -41 
Q 819 9 494 109 
L 494 744 
Q 775 591 1075 516 
Q 1375 441 1709 441 
Q 2250 441 2565 725 
Q 2881 1009 2881 1497 
Q 2881 1984 2565 2268 
Q 2250 2553 1709 2553 
Q 1456 2553 1204 2497 
Q 953 2441 691 2322 
L 691 4666 
z
" transform="scale(0.015625)"/>
       <path id="DejaVuSans-77" d="M 269 3500 
L 844 3500 
L 1563 769 
L 2278 3500 
L 2956 3500 
L 3675 769 
L 4391 3500 
L 4966 3500 
L 4050 0 
L 3372 0 
L 2619 2869 
L 1863 0 
L 1184 0 
L 269 3500 
z
" transform="scale(0.015625)"/>
       <path id="DejaVuSans-68" d="M 3513 2113 
L 3513 0 
L 2938 0 
L 2938 2094 
Q 2938 2591 2744 2837 
Q 2550 3084 2163 3084 
Q 1697 3084 1428 2787 
Q 1159 2491 1159 1978 
L 1159 0 
L 581 0 
L 581 4863 
L 1159 4863 
L 1159 2956 
Q 1366 3272 1645 3428 
Q 1925 3584 2291 3584 
Q 2894 3584 3203 3211 
Q 3513 2838 3513 2113 
z
" transform="scale(0.015625)"/>
       <path id="DejaVuSans-64" d="M 2906 2969 
L 2906 4863 
L 3481 4863 
L 3481 0 
L 2906 0 
L 2906 525 
Q 2725 213 2448 61 
Q 2172 -91 1784 -91 
Q 1150 -91 751 415 
Q 353 922 353 1747 
Q 353 2572 751 3078 
Q 1150 3584 1784 3584 
Q 2172 3584 2448 3432 
Q 2725 3281 2906 2969 
z
M 947 1747 
Q 947 1113 1208 752 
Q 1469 391 1925 391 
Q 2381 391 2643 752 
Q 2906 1113 2906 1747 
Q 2906 2381 2643 2742 
Q 2381 3103 1925 3103 
Q 1469 3103 1208 2742 
Q 947 2381 947 1747 
z
" transform="scale(0.015625)"/>
      </defs>
      <use xlink:href="#DejaVuSans-4e"/>
      <use xlink:href="#DejaVuSans-54" transform="translate(74.804688 0)"/>
      <use xlink:href="#DejaVuSans-2d" transform="translate(126.763672 0)"/>
      <use xlink:href="#DejaVuSans-4d" transform="translate(162.847656 0)"/>
      <use xlink:href="#DejaVuSans-53" transform="translate(249.126953 0)"/>
      <use xlink:href="#DejaVuSans-20" transform="translate(312.603516 0)"/>
      <use xlink:href="#DejaVuSans-56" transform="translate(344.390625 0)"/>
      <use xlink:href="#DejaVuSans-32" transform="translate(412.798828 0)"/>
      <use xlink:href="#DejaVuSans-20" transform="translate(476.421875 0)"/>
      <use xlink:href="#DejaVuSans-28" transform="translate(508.208984 0)"/>
      <use xlink:href="#DejaVuSans-35" transform="translate(547.222656 0)"/>
      <use xlink:href="#DejaVuSans-30" transform="translate(610.845703 0)"/>
      <use xlink:href="#DejaVuSans-4d" transform="translate(674.46875 0)"/>
      <use xlink:href="#DejaVuSans-29" transform="translate(760.748047 0)"/>
      <use xlink:href="#DejaVuSans-20" transform="translate(799.761719 0)"/>
      <use xlink:href="#DejaVuSans-77" transform="translate(831.548828 0)"/>
      <use xlink:href="#DejaVuSans-69" transform="translate(913.335938 0)"/>
      <use xlink:href="#DejaVuSans-74" transform="translate(941.119141 0)"/>
      <use xlink:href="#DejaVuSans-68" transform="translate(980.328125 0)"/>
      <use xlink:href="#DejaVuSans-20" transform="translate(1043.707031 0)"/>
      <use xlink:href="#DejaVuSans-72" transform="translate(1075.494141 0)"/>
      <use xlink:href="#DejaVuSans-61" transform="translate(1116.607422 0)"/>
      <use xlink:href="#DejaVuSans-6e" transform="translate(1177.886719 0)"/>
      <use xlink:href="#DejaVuSans-64" transform="translate(1241.265625 0)"/>
      <use xlink:href="#DejaVuSans-2e" transform="translate(1304.742188 0)"/>
      <use xlink:href="#DejaVuSans-20" transform="translate(1336.529297 0)"/>
      <use xlink:href="#DejaVuSans-77" transform="translate(1368.316406 0)"/>
      <use xlink:href="#DejaVuSans-65" transform="translate(1450.103516 0)"/>
      <use xlink:href="#DejaVuSans-69" transform="translate(1511.626953 0)"/>
      <use xlink:href="#DejaVuSans-67" transform="translate(1539.410156 0)"/>
      <use xlink:href="#DejaVuSans-68" transform="translate(1602.886719 0)"/>
      <use xlink:href="#DejaVuSans-74" transform="translate(1666.265625 0)"/>
      <use xlink:href="#DejaVuSans-73" transform="translate(1705.474609 0)"/>
     </g>
    </g>
    <g id="line2d_23">
     <path d="M 335.876684 66.337877 
L 344.206684 66.337877 
L 352.536684 66.337877 
" style="fill: none; stroke: #ff7f0e; stroke-width: 1.5; stroke-linecap: square"/>
    </g>
    <g id="text_18">
     <!-- NT-MS V2 (500M) with rand. weights -->
     <g transform="translate(359.200684 69.253377) scale(0.0833 -0.0833)">
      <use xlink:href="#DejaVuSans-4e"/>
      <use xlink:href="#DejaVuSans-54" transform="translate(74.804688 0)"/>
      <use xlink:href="#DejaVuSans-2d" transform="translate(126.763672 0)"/>
      <use xlink:href="#DejaVuSans-4d" transform="translate(162.847656 0)"/>
      <use xlink:href="#DejaVuSans-53" transform="translate(249.126953 0)"/>
      <use xlink:href="#DejaVuSans-20" transform="translate(312.603516 0)"/>
      <use xlink:href="#DejaVuSans-56" transform="translate(344.390625 0)"/>
      <use xlink:href="#DejaVuSans-32" transform="translate(412.798828 0)"/>
      <use xlink:href="#DejaVuSans-20" transform="translate(476.421875 0)"/>
      <use xlink:href="#DejaVuSans-28" transform="translate(508.208984 0)"/>
      <use xlink:href="#DejaVuSans-35" transform="translate(547.222656 0)"/>
      <use xlink:href="#DejaVuSans-30" transform="translate(610.845703 0)"/>
      <use xlink:href="#DejaVuSans-30" transform="translate(674.46875 0)"/>
      <use xlink:href="#DejaVuSans-4d" transform="translate(738.091797 0)"/>
      <use xlink:href="#DejaVuSans-29" transform="translate(824.371094 0)"/>
      <use xlink:href="#DejaVuSans-20" transform="translate(863.384766 0)"/>
      <use xlink:href="#DejaVuSans-77" transform="translate(895.171875 0)"/>
      <use xlink:href="#DejaVuSans-69" transform="translate(976.958984 0)"/>
      <use xlink:href="#DejaVuSans-74" transform="translate(1004.742188 0)"/>
      <use xlink:href="#DejaVuSans-68" transform="translate(1043.951172 0)"/>
      <use xlink:href="#DejaVuSans-20" transform="translate(1107.330078 0)"/>
      <use xlink:href="#DejaVuSans-72" transform="translate(1139.117188 0)"/>
      <use xlink:href="#DejaVuSans-61" transform="translate(1180.230469 0)"/>
      <use xlink:href="#DejaVuSans-6e" transform="translate(1241.509766 0)"/>
      <use xlink:href="#DejaVuSans-64" transform="translate(1304.888672 0)"/>
      <use xlink:href="#DejaVuSans-2e" transform="translate(1368.365234 0)"/>
      <use xlink:href="#DejaVuSans-20" transform="translate(1400.152344 0)"/>
      <use xlink:href="#DejaVuSans-77" transform="translate(1431.939453 0)"/>
      <use xlink:href="#DejaVuSans-65" transform="translate(1513.726562 0)"/>
      <use xlink:href="#DejaVuSans-69" transform="translate(1575.25 0)"/>
      <use xlink:href="#DejaVuSans-67" transform="translate(1603.033203 0)"/>
      <use xlink:href="#DejaVuSans-68" transform="translate(1666.509766 0)"/>
      <use xlink:href="#DejaVuSans-74" transform="translate(1729.888672 0)"/>
      <use xlink:href="#DejaVuSans-73" transform="translate(1769.097656 0)"/>
     </g>
    </g>
    <g id="line2d_24">
     <path d="M 335.876684 78.564755 
L 344.206684 78.564755 
L 352.536684 78.564755 
" style="fill: none; stroke: #2ca02c; stroke-width: 1.5; stroke-linecap: square"/>
    </g>
    <g id="text_19">
     <!-- NT-MS V2 (50M) -->
     <g transform="translate(359.200684 81.480255) scale(0.0833 -0.0833)">
      <use xlink:href="#DejaVuSans-4e"/>
      <use xlink:href="#DejaVuSans-54" transform="translate(74.804688 0)"/>
      <use xlink:href="#DejaVuSans-2d" transform="translate(126.763672 0)"/>
      <use xlink:href="#DejaVuSans-4d" transform="translate(162.847656 0)"/>
      <use xlink:href="#DejaVuSans-53" transform="translate(249.126953 0)"/>
      <use xlink:href="#DejaVuSans-20" transform="translate(312.603516 0)"/>
      <use xlink:href="#DejaVuSans-56" transform="translate(344.390625 0)"/>
      <use xlink:href="#DejaVuSans-32" transform="translate(412.798828 0)"/>
      <use xlink:href="#DejaVuSans-20" transform="translate(476.421875 0)"/>
      <use xlink:href="#DejaVuSans-28" transform="translate(508.208984 0)"/>
      <use xlink:href="#DejaVuSans-35" transform="translate(547.222656 0)"/>
      <use xlink:href="#DejaVuSans-30" transform="translate(610.845703 0)"/>
      <use xlink:href="#DejaVuSans-4d" transform="translate(674.46875 0)"/>
      <use xlink:href="#DejaVuSans-29" transform="translate(760.748047 0)"/>
     </g>
    </g>
    <g id="line2d_25">
     <path d="M 335.876684 90.791633 
L 344.206684 90.791633 
L 352.536684 90.791633 
" style="fill: none; stroke: #d62728; stroke-width: 1.5; stroke-linecap: square"/>
    </g>
    <g id="text_20">
     <!-- NT-1000g (500M) -->
     <g transform="translate(359.200684 93.707133) scale(0.0833 -0.0833)">
      <use xlink:href="#DejaVuSans-4e"/>
      <use xlink:href="#DejaVuSans-54" transform="translate(74.804688 0)"/>
      <use xlink:href="#DejaVuSans-2d" transform="translate(126.763672 0)"/>
      <use xlink:href="#DejaVuSans-31" transform="translate(162.847656 0)"/>
      <use xlink:href="#DejaVuSans-30" transform="translate(226.470703 0)"/>
      <use xlink:href="#DejaVuSans-30" transform="translate(290.09375 0)"/>
      <use xlink:href="#DejaVuSans-30" transform="translate(353.716797 0)"/>
      <use xlink:href="#DejaVuSans-67" transform="translate(417.339844 0)"/>
      <use xlink:href="#DejaVuSans-20" transform="translate(480.816406 0)"/>
      <use xlink:href="#DejaVuSans-28" transform="translate(512.603516 0)"/>
      <use xlink:href="#DejaVuSans-35" transform="translate(551.617188 0)"/>
      <use xlink:href="#DejaVuSans-30" transform="translate(615.240234 0)"/>
      <use xlink:href="#DejaVuSans-30" transform="translate(678.863281 0)"/>
      <use xlink:href="#DejaVuSans-4d" transform="translate(742.486328 0)"/>
      <use xlink:href="#DejaVuSans-29" transform="translate(828.765625 0)"/>
     </g>
    </g>
    <g id="line2d_26">
     <path d="M 335.876684 103.018511 
L 344.206684 103.018511 
L 352.536684 103.018511 
" style="fill: none; stroke: #9467bd; stroke-width: 1.5; stroke-linecap: square"/>
    </g>
    <g id="text_21">
     <!-- NT-MS V2 (250M) -->
     <g transform="translate(359.200684 105.934011) scale(0.0833 -0.0833)">
      <use xlink:href="#DejaVuSans-4e"/>
      <use xlink:href="#DejaVuSans-54" transform="translate(74.804688 0)"/>
      <use xlink:href="#DejaVuSans-2d" transform="translate(126.763672 0)"/>
      <use xlink:href="#DejaVuSans-4d" transform="translate(162.847656 0)"/>
      <use xlink:href="#DejaVuSans-53" transform="translate(249.126953 0)"/>
      <use xlink:href="#DejaVuSans-20" transform="translate(312.603516 0)"/>
      <use xlink:href="#DejaVuSans-56" transform="translate(344.390625 0)"/>
      <use xlink:href="#DejaVuSans-32" transform="translate(412.798828 0)"/>
      <use xlink:href="#DejaVuSans-20" transform="translate(476.421875 0)"/>
      <use xlink:href="#DejaVuSans-28" transform="translate(508.208984 0)"/>
      <use xlink:href="#DejaVuSans-32" transform="translate(547.222656 0)"/>
      <use xlink:href="#DejaVuSans-35" transform="translate(610.845703 0)"/>
      <use xlink:href="#DejaVuSans-30" transform="translate(674.46875 0)"/>
      <use xlink:href="#DejaVuSans-4d" transform="translate(738.091797 0)"/>
      <use xlink:href="#DejaVuSans-29" transform="translate(824.371094 0)"/>
     </g>
    </g>
    <g id="line2d_27">
     <path d="M 335.876684 115.245389 
L 344.206684 115.245389 
L 352.536684 115.245389 
" style="fill: none; stroke: #8c564b; stroke-width: 1.5; stroke-linecap: square"/>
    </g>
    <g id="text_22">
     <!-- NT-MS V2 (100M) -->
     <g transform="translate(359.200684 118.160889) scale(0.0833 -0.0833)">
      <use xlink:href="#DejaVuSans-4e"/>
      <use xlink:href="#DejaVuSans-54" transform="translate(74.804688 0)"/>
      <use xlink:href="#DejaVuSans-2d" transform="translate(126.763672 0)"/>
      <use xlink:href="#DejaVuSans-4d" transform="translate(162.847656 0)"/>
      <use xlink:href="#DejaVuSans-53" transform="translate(249.126953 0)"/>
      <use xlink:href="#DejaVuSans-20" transform="translate(312.603516 0)"/>
      <use xlink:href="#DejaVuSans-56" transform="translate(344.390625 0)"/>
      <use xlink:href="#DejaVuSans-32" transform="translate(412.798828 0)"/>
      <use xlink:href="#DejaVuSans-20" transform="translate(476.421875 0)"/>
      <use xlink:href="#DejaVuSans-28" transform="translate(508.208984 0)"/>
      <use xlink:href="#DejaVuSans-31" transform="translate(547.222656 0)"/>
      <use xlink:href="#DejaVuSans-30" transform="translate(610.845703 0)"/>
      <use xlink:href="#DejaVuSans-30" transform="translate(674.46875 0)"/>
      <use xlink:href="#DejaVuSans-4d" transform="translate(738.091797 0)"/>
      <use xlink:href="#DejaVuSans-29" transform="translate(824.371094 0)"/>
     </g>
    </g>
    <g id="line2d_28">
     <path d="M 335.876684 127.472267 
L 344.206684 127.472267 
L 352.536684 127.472267 
" style="fill: none; stroke: #e377c2; stroke-width: 1.5; stroke-linecap: square"/>
    </g>
    <g id="text_23">
     <!-- NT-Human-Ref. (500M) -->
     <g transform="translate(359.200684 130.387767) scale(0.0833 -0.0833)">
      <defs>
       <path id="DejaVuSans-48" d="M 628 4666 
L 1259 4666 
L 1259 2753 
L 3553 2753 
L 3553 4666 
L 4184 4666 
L 4184 0 
L 3553 0 
L 3553 2222 
L 1259 2222 
L 1259 0 
L 628 0 
L 628 4666 
z
" transform="scale(0.015625)"/>
       <path id="DejaVuSans-75" d="M 544 1381 
L 544 3500 
L 1119 3500 
L 1119 1403 
Q 1119 906 1312 657 
Q 1506 409 1894 409 
Q 2359 409 2629 706 
Q 2900 1003 2900 1516 
L 2900 3500 
L 3475 3500 
L 3475 0 
L 2900 0 
L 2900 538 
Q 2691 219 2414 64 
Q 2138 -91 1772 -91 
Q 1169 -91 856 284 
Q 544 659 544 1381 
z
M 1991 3584 
L 1991 3584 
z
" transform="scale(0.015625)"/>
       <path id="DejaVuSans-6d" d="M 3328 2828 
Q 3544 3216 3844 3400 
Q 4144 3584 4550 3584 
Q 5097 3584 5394 3201 
Q 5691 2819 5691 2113 
L 5691 0 
L 5113 0 
L 5113 2094 
Q 5113 2597 4934 2840 
Q 4756 3084 4391 3084 
Q 3944 3084 3684 2787 
Q 3425 2491 3425 1978 
L 3425 0 
L 2847 0 
L 2847 2094 
Q 2847 2600 2669 2842 
Q 2491 3084 2119 3084 
Q 1678 3084 1418 2786 
Q 1159 2488 1159 1978 
L 1159 0 
L 581 0 
L 581 3500 
L 1159 3500 
L 1159 2956 
Q 1356 3278 1631 3431 
Q 1906 3584 2284 3584 
Q 2666 3584 2933 3390 
Q 3200 3197 3328 2828 
z
" transform="scale(0.015625)"/>
       <path id="DejaVuSans-52" d="M 2841 2188 
Q 3044 2119 3236 1894 
Q 3428 1669 3622 1275 
L 4263 0 
L 3584 0 
L 2988 1197 
Q 2756 1666 2539 1819 
Q 2322 1972 1947 1972 
L 1259 1972 
L 1259 0 
L 628 0 
L 628 4666 
L 2053 4666 
Q 2853 4666 3247 4331 
Q 3641 3997 3641 3322 
Q 3641 2881 3436 2590 
Q 3231 2300 2841 2188 
z
M 1259 4147 
L 1259 2491 
L 2053 2491 
Q 2509 2491 2742 2702 
Q 2975 2913 2975 3322 
Q 2975 3731 2742 3939 
Q 2509 4147 2053 4147 
L 1259 4147 
z
" transform="scale(0.015625)"/>
       <path id="DejaVuSans-66" d="M 2375 4863 
L 2375 4384 
L 1825 4384 
Q 1516 4384 1395 4259 
Q 1275 4134 1275 3809 
L 1275 3500 
L 2222 3500 
L 2222 3053 
L 1275 3053 
L 1275 0 
L 697 0 
L 697 3053 
L 147 3053 
L 147 3500 
L 697 3500 
L 697 3744 
Q 697 4328 969 4595 
Q 1241 4863 1831 4863 
L 2375 4863 
z
" transform="scale(0.015625)"/>
      </defs>
      <use xlink:href="#DejaVuSans-4e"/>
      <use xlink:href="#DejaVuSans-54" transform="translate(74.804688 0)"/>
      <use xlink:href="#DejaVuSans-2d" transform="translate(126.763672 0)"/>
      <use xlink:href="#DejaVuSans-48" transform="translate(162.847656 0)"/>
      <use xlink:href="#DejaVuSans-75" transform="translate(238.042969 0)"/>
      <use xlink:href="#DejaVuSans-6d" transform="translate(301.421875 0)"/>
      <use xlink:href="#DejaVuSans-61" transform="translate(398.833984 0)"/>
      <use xlink:href="#DejaVuSans-6e" transform="translate(460.113281 0)"/>
      <use xlink:href="#DejaVuSans-2d" transform="translate(523.492188 0)"/>
      <use xlink:href="#DejaVuSans-52" transform="translate(559.576172 0)"/>
      <use xlink:href="#DejaVuSans-65" transform="translate(624.558594 0)"/>
      <use xlink:href="#DejaVuSans-66" transform="translate(686.082031 0)"/>
      <use xlink:href="#DejaVuSans-2e" transform="translate(714.037109 0)"/>
      <use xlink:href="#DejaVuSans-20" transform="translate(745.824219 0)"/>
      <use xlink:href="#DejaVuSans-28" transform="translate(777.611328 0)"/>
      <use xlink:href="#DejaVuSans-35" transform="translate(816.625 0)"/>
      <use xlink:href="#DejaVuSans-30" transform="translate(880.248047 0)"/>
      <use xlink:href="#DejaVuSans-30" transform="translate(943.871094 0)"/>
      <use xlink:href="#DejaVuSans-4d" transform="translate(1007.494141 0)"/>
      <use xlink:href="#DejaVuSans-29" transform="translate(1093.773438 0)"/>
     </g>
    </g>
    <g id="line2d_29">
     <path d="M 335.876684 139.699145 
L 344.206684 139.699145 
L 352.536684 139.699145 
" style="fill: none; stroke: #7f7f7f; stroke-width: 1.5; stroke-linecap: square"/>
    </g>
    <g id="text_24">
     <!-- NT-MS V2 (500M) -->
     <g transform="translate(359.200684 142.614645) scale(0.0833 -0.0833)">
      <use xlink:href="#DejaVuSans-4e"/>
      <use xlink:href="#DejaVuSans-54" transform="translate(74.804688 0)"/>
      <use xlink:href="#DejaVuSans-2d" transform="translate(126.763672 0)"/>
      <use xlink:href="#DejaVuSans-4d" transform="translate(162.847656 0)"/>
      <use xlink:href="#DejaVuSans-53" transform="translate(249.126953 0)"/>
      <use xlink:href="#DejaVuSans-20" transform="translate(312.603516 0)"/>
      <use xlink:href="#DejaVuSans-56" transform="translate(344.390625 0)"/>
      <use xlink:href="#DejaVuSans-32" transform="translate(412.798828 0)"/>
      <use xlink:href="#DejaVuSans-20" transform="translate(476.421875 0)"/>
      <use xlink:href="#DejaVuSans-28" transform="translate(508.208984 0)"/>
      <use xlink:href="#DejaVuSans-35" transform="translate(547.222656 0)"/>
      <use xlink:href="#DejaVuSans-30" transform="translate(610.845703 0)"/>
      <use xlink:href="#DejaVuSans-30" transform="translate(674.46875 0)"/>
      <use xlink:href="#DejaVuSans-4d" transform="translate(738.091797 0)"/>
      <use xlink:href="#DejaVuSans-29" transform="translate(824.371094 0)"/>
     </g>
    </g>
   </g>
  </g>
 </g>
 <defs>
  <clipPath id="pb3f048b429">
   <rect x="72" y="43.2" width="446.4" height="277.2"/>
  </clipPath>
 </defs>
</svg>
